<svg width="16" height="16" viewBox="0 0 16 16" fill="none" xmlns="http://www.w3.org/2000/svg">
<path fill-rule="evenodd" clip-rule="evenodd" d="M5.58314 0H1.58964C0.710816 0 0 0.718367 0 1.60653V5.62939C0 6.51755 0.710816 7.23592 1.58964 7.23592H5.57022C6.44904 7.23592 7.15986 6.51755 7.15986 5.62939V1.60653C7.17278 0.718367 6.46197 0 5.58314 0ZM5.58314 8.76408H1.58964C0.710816 8.76408 0 9.48245 0 10.3706V14.3935C0 15.2816 0.710816 16 1.58964 16H5.57022C6.44904 16 7.15986 15.2816 7.15986 14.3935V10.3706C7.17278 9.48245 6.46197 8.76408 5.58314 8.76408ZM10.4296 8.76408H14.4102C15.289 8.76408 16.0128 9.48245 15.9998 10.3706V14.3935C15.9998 15.2816 15.289 16 14.4102 16H10.4296C9.55079 16 8.83997 15.2816 8.83997 14.3935V10.3706C8.83997 9.48245 9.55079 8.76408 10.4296 8.76408ZM14.4102 0H10.4296C9.55079 0 8.83997 0.718367 8.83997 1.60653V5.62939C8.83997 6.51755 9.55079 7.23592 10.4296 7.23592H14.4102C15.289 7.23592 15.9998 6.51755 15.9998 5.62939V1.60653C16.0128 0.718367 15.289 0 14.4102 0ZM14.4102 6.24327C14.7333 6.24327 15.0047 5.96898 15.0047 5.64245V1.61959C15.0047 1.29306 14.7333 1.01878 14.4102 1.01878H10.4296C10.1065 1.01878 9.83511 1.29306 9.83511 1.61959V5.64245C9.83511 5.96898 10.1065 6.24327 10.4296 6.24327H14.4102Z" fill="#222E39"/>
</svg>
