<svg width="32" height="32" viewBox="0 0 32 32" fill="none" xmlns="http://www.w3.org/2000/svg">
<g clip-path="url(#clip0_1166_38482)">
<path d="M27.6495 0C29.5055 0 31.1695 1.184 31.7775 2.976C32.3855 4.768 31.7775 6.72 30.2735 7.84C28.8335 5.28 26.7215 3.168 24.1935 1.728C24.9935 0.64 26.2735 0 27.6495 0ZM3.42551 0.096C5.12151 -0.256 6.88151 0.416 7.87351 1.824C5.34551 3.296 3.29751 5.408 1.85751 7.968C0.449514 6.944 -0.254486 5.216 0.0975141 3.52C0.417514 1.792 1.72951 0.48 3.42551 0.096ZM15.2335 7.872C14.8495 7.84 14.4335 7.936 14.1455 8.224C13.8575 8.48 13.6655 8.864 13.6655 9.28V17.664C13.6655 18.144 14.0495 18.528 14.5295 18.528H20.8655C21.2815 18.528 21.6655 18.368 21.9215 18.048C22.1775 17.76 22.3055 17.344 22.2735 16.96C22.1775 16.256 21.5695 15.712 20.8335 15.712H16.4495V9.312C16.4495 8.576 15.9375 7.968 15.2335 7.872ZM16.1295 1.6C22.1135 1.6 27.4895 5.376 29.5375 11.04C31.5855 16.704 29.9215 23.04 25.3455 26.944L27.6495 29.248C28.2895 29.888 28.2895 30.88 27.6495 31.52C27.3615 31.808 26.9455 32 26.5295 32C26.1135 32 25.6975 31.84 25.4095 31.52L22.6575 28.768C18.5295 30.912 13.6335 30.88 9.50551 28.736L6.72151 31.52C6.43351 31.808 6.01751 32 5.60151 32C5.18551 32 4.76951 31.84 4.48151 31.52C3.84151 30.88 3.84151 29.888 4.48151 29.248L6.81751 26.912C2.20951 22.976 0.577514 16.64 2.65751 10.976C4.73751 5.344 10.1135 1.6 16.1295 1.6Z" fill="#F2A56B"/>
</g>
<defs>
<clipPath id="clip0_1166_38482">
<rect width="32" height="32" fill="white"/>
</clipPath>
</defs>
</svg>
