<svg width="86" height="92" viewBox="0 0 86 92" fill="none" xmlns="http://www.w3.org/2000/svg">
<path d="M43.0001 45.9999C46.8661 46 50.0001 42.866 50.0001 38.9999V7C50.0001 3.13401 46.8661 0 43.0001 0C39.1341 0 36.0001 3.13401 36.0001 7V38.9999C36.0001 42.8659 39.1341 45.9999 43.0001 45.9999Z" fill="#C6C4E9"/>
<path d="M71.2524 19.4021C68.384 16.9137 63.9809 17.155 61.42 19.9458C58.8596 22.7337 59.1108 27.0117 61.9807 29.5002C67.9153 34.6612 71.6284 42.0887 71.6309 50.423C71.6037 65.9074 58.7121 78.4368 42.7804 78.4617C26.8492 78.4367 13.9556 65.9074 13.9304 50.423C13.9324 42.0494 17.6801 34.5948 23.6621 29.4319C26.5422 26.9547 26.8068 22.6751 24.2575 19.8802C21.7056 17.0821 17.3067 16.8231 14.4286 19.3023L14.4266 19.2987C5.59752 26.8924 -0.00249043 38.0524 8.30865e-07 50.423C0.00407755 73.3885 19.1519 91.9963 42.7805 91.9998C66.4085 91.9963 85.5565 73.3884 85.56 50.423C85.5624 38.1058 80.0152 26.9894 71.2524 19.4021Z" fill="#C6C4E9"/>
</svg>
