<?xml version="1.0" encoding="UTF-8"?>
<svg width="48px" height="48px" viewBox="0 0 48 48" version="1.1" xmlns="http://www.w3.org/2000/svg" xmlns:xlink="http://www.w3.org/1999/xlink">
    <title>编组 2</title>
    <g id="免开发面板" stroke="none" stroke-width="1" fill="none" fill-rule="evenodd" opacity="0.600000024">
        <g id="2.2-免开发面板-智能五彩灯-彩光" transform="translate(-64.000000, -1150.000000)" fill="#FFFFFF" fill-rule="nonzero">
            <g id="编组-8备份" transform="translate(64.000000, 1148.000000)">
                <g id="编组-2" transform="translate(0.000000, 2.000000)">
                    <g id="温度" transform="translate(8.000000, 2.000000)">
                        <path d="M18.5652174,0 C22.7205148,0 26.1015096,3.38099478 26.1015096,7.53629217 L26.1015096,7.53629217 L26.1015096,20.1685983 C29.8417113,22.6754504 32.1304348,26.9143096 32.1304348,31.4347826 C32.1304348,38.9151861 26.0456209,45 18.5652174,45 C11.0848139,45 5,38.9151861 5,31.4347826 C5,26.9143096 7.28872348,22.6754504 11.0289252,20.1685983 L11.0289252,20.1685983 L11.0289252,7.53629217 C11.0289252,3.38099478 14.40992,0 18.5652174,0 Z M20.8264035,3.62027279 C19.4273446,2.8125257 17.7036328,2.8125257 16.3045739,3.62027279 C14.9055149,4.42801987 14.0436591,5.92079803 14.0436591,7.53629217 L14.0436591,7.53629217 L14.0436591,9.43478261 L18.5652174,9.43478261 C19.3977132,9.43478261 20.0725843,10.1096538 20.0725843,10.9421496 C20.0725843,11.7746453 19.3977132,12.4495165 18.5652174,12.4495165 L18.5652174,12.4495165 L14.0436591,12.4495165 L14.0436591,14.4637078 L18.5652174,14.4637078 C19.3977132,14.4637078 20.0725843,15.138579 20.0725843,15.9710748 C20.0725843,16.8035706 19.3977132,17.4784417 18.5652174,17.4784417 L18.5652174,17.4784417 L14.0436591,17.4784417 L14.0436591,21.0053009 C14.0427581,21.5423379 13.7563011,22.0383673 13.2916035,22.3075617 C10.0370365,24.193127 8.01473391,27.6907826 8.01473391,31.4347826 C8.01473391,37.2515478 12.7484522,41.9852661 18.5652174,41.9852661 C24.3819826,41.9852661 29.1157009,37.2515478 29.1162435,31.4326122 C29.1162435,27.6880696 27.0950261,24.1909565 23.8393739,22.3053913 C23.3746763,22.0361968 23.0882193,21.5401674 23.0873183,21.0031304 L23.0873183,21.0031304 L23.0873183,7.53629217 C23.0873183,5.92079803 22.2254625,4.42801987 20.8264035,3.62027279 Z M24.5941426,29.9274153 C24.9940095,29.9271275 25.3775816,30.0858463 25.6603302,30.368595 C25.9430789,30.6513436 26.1017978,31.0349158 26.10151,31.4347826 C26.10151,35.59008 22.7205148,38.9710748 18.5652174,38.9710748 C17.7327216,38.9710748 17.0578504,38.2962036 17.0578504,37.4637078 C17.0578504,36.631212 17.7327216,35.9563409 18.5652174,35.9563409 C21.0612894,35.9536494 23.0840841,33.9308546 23.0867757,31.4347826 C23.0864875,31.0349158 23.2452063,30.6513436 23.527955,30.368595 C23.8107036,30.0858463 24.1942758,29.9271275 24.5941426,29.9274153 Z M6.5,17 C7.32842712,17 8,17.6715729 8,18.5 C8,19.3284271 7.32842712,20 6.5,20 L1.5,20 C0.671572875,20 1.01453063e-16,19.3284271 0,18.5 C-1.01453063e-16,17.6715729 0.671572875,17 1.5,17 L6.5,17 Z M6.5,12 C7.32842712,12 8,12.6715729 8,13.5 C8,14.3284271 7.32842712,15 6.5,15 L1.5,15 C0.671572875,15 1.01453063e-16,14.3284271 0,13.5 C-1.01453063e-16,12.6715729 0.671572875,12 1.5,12 L6.5,12 Z M6.5,7 C7.32842712,7 8,7.67157288 8,8.5 C8,9.32842712 7.32842712,10 6.5,10 L1.5,10 C0.671572875,10 1.01453063e-16,9.32842712 0,8.5 C-1.01453063e-16,7.67157288 0.671572875,7 1.5,7 L6.5,7 Z M6.5,2 C7.32842712,2 8,2.67157288 8,3.5 C8,4.32842712 7.32842712,5 6.5,5 L1.5,5 C0.671572875,5 1.01453063e-16,4.32842712 0,3.5 C-1.01453063e-16,2.67157288 0.671572875,2 1.5,2 L6.5,2 Z" id="形状结合"></path>
                    </g>
                </g>
            </g>
        </g>
    </g>
</svg>