<?xml version="1.0" encoding="UTF-8"?>
<svg width="48px" height="48px" viewBox="0 0 48 48" version="1.1" xmlns="http://www.w3.org/2000/svg" xmlns:xlink="http://www.w3.org/1999/xlink">
    <title>矩形</title>
    <g id="免开发面板" stroke="none" stroke-width="1" fill="none" fill-rule="evenodd" opacity="0.600000024">
        <g id="2.1-免开发面板-智能五彩灯-白光" transform="translate(-64.000000, -1046.000000)" fill="#FFFFFF" fill-rule="nonzero">
            <g id="编组-8" transform="translate(64.000000, 1044.000000)">
                <g id="编组-2备份" transform="translate(0.000000, 2.000000)">
                    <path d="M24.5,42 C25.3284271,42 26,42.6715729 26,43.5 L26,46.5 C26,47.3284271 25.3284271,48 24.5,48 C23.6715729,48 23,47.3284271 23,46.5 L23,43.5 C23,42.6715729 23.6715729,42 24.5,42 Z M38.995689,36.8743687 L41.1170094,38.995689 C41.7027958,39.5814755 41.7027958,40.5312229 41.1170094,41.1170094 C40.5312229,41.7027958 39.5814755,41.7027958 38.995689,41.1170094 L36.8743687,38.995689 C36.2885822,38.4099026 36.2885822,37.4601551 36.8743687,36.8743687 C37.4601551,36.2885822 38.4099026,36.2885822 38.995689,36.8743687 Z M12.1256313,36.8743687 C12.7114178,37.4601551 12.7114178,38.4099026 12.1256313,38.995689 L10.004311,41.1170094 C9.41852455,41.7027958 8.46877708,41.7027958 7.88299064,41.1170094 C7.2972042,40.5312229 7.2972042,39.5814755 7.88299064,38.995689 L10.004311,36.8743687 C10.5900974,36.2885822 11.5398449,36.2885822 12.1256313,36.8743687 Z M24.5,9.5 C32.7842712,9.5 39.5,16.2157288 39.5,24.5 C39.5,32.7842712 32.7842712,39.5 24.5,39.5 C16.2157288,39.5 9.5,32.7842712 9.5,24.5 C9.5,16.2157288 16.2157288,9.5 24.5,9.5 Z M24.5,12.5 C17.872583,12.5 12.5,17.872583 12.5,24.5 C12.5,31.127417 17.872583,36.5 24.5,36.5 C31.127417,36.5 36.5,31.127417 36.5,24.5 C36.5,17.872583 31.127417,12.5 24.5,12.5 Z M46.5,23 C47.3284271,23 48,23.6715729 48,24.5 C48,25.3284271 47.3284271,26 46.5,26 L43.5,26 C42.6715729,26 42,25.3284271 42,24.5 C42,23.6715729 42.6715729,23 43.5,23 L46.5,23 Z M5.5,23 C6.32842712,23 7,23.6715729 7,24.5 C7,25.3284271 6.32842712,26 5.5,26 L2.5,26 C1.67157288,26 1,25.3284271 1,24.5 C1,23.6715729 1.67157288,23 2.5,23 L5.5,23 Z M41.1170094,7.88299064 C41.7027958,8.46877708 41.7027958,9.41852455 41.1170094,10.004311 L38.995689,12.1256313 C38.4099026,12.7114178 37.4601551,12.7114178 36.8743687,12.1256313 C36.2885822,11.5398449 36.2885822,10.5900974 36.8743687,10.004311 L38.995689,7.88299064 C39.5814755,7.2972042 40.5312229,7.2972042 41.1170094,7.88299064 Z M10.004311,7.88299064 L12.1256313,10.004311 C12.7114178,10.5900974 12.7114178,11.5398449 12.1256313,12.1256313 C11.5398449,12.7114178 10.5900974,12.7114178 10.004311,12.1256313 L7.88299064,10.004311 C7.2972042,9.41852455 7.2972042,8.46877708 7.88299064,7.88299064 C8.46877708,7.2972042 9.41852455,7.2972042 10.004311,7.88299064 Z M24.5,1 C25.3284271,1 26,1.67157288 26,2.5 L26,5.5 C26,6.32842712 25.3284271,7 24.5,7 C23.6715729,7 23,6.32842712 23,5.5 L23,2.5 C23,1.67157288 23.6715729,1 24.5,1 Z" id="形状结合"></path>
                </g>
            </g>
        </g>
    </g>
</svg>