<?xml version="1.0" encoding="UTF-8"?>
<svg width="59px" height="66px" viewBox="0 0 59 66" version="1.1" xmlns="http://www.w3.org/2000/svg" xmlns:xlink="http://www.w3.org/1999/xlink">
    <!-- Generator: Sketch 59.1 (86144) - https://sketch.com -->
    <title>取水开关</title>
    <desc>Created with Sketch.</desc>
    <g id="页面-1" stroke="none" stroke-width="1" fill="none" fill-rule="evenodd">
        <g id="1" transform="translate(-422.000000, -2261.000000)" fill="#FFFFFF">
            <g id="取水开关" transform="translate(422.000000, 2261.000000)">
                <polygon id="路径-2" points="23.811567 6 2 36.8230828 2 48.3302749 10.2340128 59.9949443 25.4203752 64 39 59.0370528 37.339946 54.2779999 33.1584941 46.4104349 35.7528785 35 39 30.6212444"></polygon>
                <path d="M36.8309059,55.8316618 C32.8075265,59.5150057 27.2819253,61.2659939 21.7748048,60.6027362 C16.2676844,59.9394785 11.3594462,56.9318764 8.4008882,52.4076532 C4.79401681,46.7044592 4.79401681,39.5381946 8.4008882,33.8350006 L24.1235495,6.96172107 L37.4770426,29.3734136 L40.600037,24.081764 L27.2465439,1.77382928 C26.5940626,0.676733214 25.3820674,0 24.0697048,0 C22.7573421,0 21.5453469,0.676733214 20.8928657,1.77382928 L3.23179407,31.1372968 C-1.07736385,38.3284864 -1.07725805,47.1884212 3.23207162,54.3795153 C7.54140128,61.5706093 15.5052337,66 24.1235495,66 C30.9694126,66.0162842 37.4879611,63.1786803 42,58.218092 C40.1120604,57.8088481 38.3448287,56.9929652 36.8309059,55.8316618 Z" id="路径" fill-rule="nonzero"></path>
                <path d="M57.0108204,37.3717499 L46.4497198,19.0395899 C46.0220971,18.3916193 45.2860885,18 44.4959162,18 C43.7057438,18 42.9697352,18.3916193 42.5421125,19.0395899 L31.9810119,37.3717499 C29.3325816,41.8449329 29.3401584,47.357925 32.0008745,51.8241691 C34.6615906,56.2904133 39.5689268,59.0275314 44.8655547,58.9997911 L44.8655547,58.9997911 C50.0296816,58.7776004 54.6999866,55.9417562 57.1828007,51.5204548 C59.6656148,47.0991535 59.6004054,41.734418 57.0108204,37.3717499 Z M51.2513159,48.3551872 C49.0437547,52.1777075 44.2256499,53.445384 40.4897773,51.186622 C36.7539048,48.92786 35.5149635,43.9980067 37.7225244,40.1754863 L44.5747694,28.0407652 L51.2513159,39.9058258 C52.7447995,42.5150014 52.7447995,45.7460117 51.2513159,48.3551872 Z" id="形状" fill-rule="nonzero"></path>
            </g>
        </g>
    </g>
</svg>