<?xml version="1.0" encoding="UTF-8"?>
<svg width="105px" height="97px" viewBox="0 0 105 97" version="1.1" xmlns="http://www.w3.org/2000/svg" xmlns:xlink="http://www.w3.org/1999/xlink">
    <!-- Generator: Sketch 59.1 (86144) - https://sketch.com -->
    <title>报警</title>
    <desc>Created with Sketch.</desc>
    <g id="页面-1" stroke="none" stroke-width="1" fill="none" fill-rule="evenodd">
        <g id="1" transform="translate(-510.000000, -1621.000000)" fill="#000000" fill-rule="nonzero">
            <g id="编组-7" transform="translate(-1.000000, 0.000000)">
                <g id="编组-4" transform="translate(79.000000, 1553.000000)">
                    <g id="档位开关" transform="translate(337.000000, 0.000000)">
                        <g id="报警" transform="translate(106.000000, 75.000000)">
                            <path d="M68.5421819,79.3282227 C67.8363726,78.6230469 66.9277446,78.1205078 65.9136508,77.9178711 C65.3051946,77.7962891 64.8671061,77.2775391 64.8671061,76.6615234 L64.8671061,46.8658203 C64.8671061,33.978125 54.3124182,23.2951172 41.4131455,23.3435846 C28.5544366,23.3923828 18.1376655,33.8241211 18.1376655,46.6875 L18.1376655,76.6615234 C18.1376655,77.2775391 17.699577,77.7962891 17.0911207,77.9178711 C14.7221977,78.4041992 12.9455054,80.4954102 12.9455054,83 L70.0592661,83 C70.0592661,81.565332 69.4751481,80.268457 68.5421819,79.3282227 Z M45.9887366,37.609375 L44.4148631,51.6561523 L50.5886659,51.6561523 L37.0241477,71.328125 L38.5980213,57.2813477 L32.4161057,57.2813477 L45.9887366,37.609375 Z M41.5023858,16.859375 C40.066429,16.859375 38.9063058,15.700293 38.9063058,14.265625 L38.9063058,2.59375 C38.9063058,1.15908203 40.066429,0 41.5023858,0 C42.9383426,0 44.0984658,1.15908203 44.0984658,2.59375 L44.0984658,14.265625 C44.0984658,15.700293 42.9383426,16.859375 41.5023858,16.859375 Z M22.6808056,24.000293 C21.4395548,24.7135742 19.8494558,24.2920898 19.1355338,23.0519531 L13.2943537,12.9444336 C12.5804317,11.7042969 13.0022947,10.115625 14.2435455,9.40234375 C15.4847962,8.6890625 17.0748952,9.11054687 17.7888173,10.3506836 L23.6299973,20.4582031 C24.3439193,21.6983398 23.9220563,23.2789062 22.6808056,24.000293 Z M60.323966,24.000293 C61.5652168,24.7135742 63.1553158,24.2920898 63.8692378,23.0519531 L69.7104179,12.9444336 C70.4243399,11.7042969 70.0024769,10.115625 68.7612261,9.40234375 C67.5199753,8.6890625 65.9298763,9.11054687 65.2159543,10.3506836 L59.3747743,20.4582031 C58.6608522,21.6983398 59.0827152,23.2789062 60.323966,24.000293 Z M16.3934242,36.0612305 C16.0202377,37.4472656 14.6005065,38.265918 13.2132262,37.8930664 L1.92839081,34.877832 C0.541110544,34.5049805 -0.278277216,33.0865234 0.0867965386,31.7004883 C0.459983043,30.3144531 1.87971431,29.4958008 3.26699458,29.8686523 L14.55183,32.8919922 C15.9391102,33.2567383 16.758498,34.6751953 16.3934242,36.0612305 L16.3934242,36.0612305 Z M66.6113473,36.0612305 C66.9845338,37.4472656 68.4042651,38.265918 69.7915454,37.8930664 L81.0763808,34.8697266 C82.463661,34.496875 83.2830488,33.078418 82.9098623,31.6923828 C82.5366758,30.3063477 81.1169445,29.4876953 79.7296642,29.8605469 L68.4448289,32.8838867 C67.0656613,33.2567383 66.2462736,34.6751953 66.6113473,36.0612305 Z" id="形状"></path>
                        </g>
                    </g>
                </g>
            </g>
        </g>
    </g>
</svg>