<?xml version="1.0" encoding="UTF-8"?>
<svg width="37px" height="55px" viewBox="0 0 37 55" version="1.1" xmlns="http://www.w3.org/2000/svg" xmlns:xlink="http://www.w3.org/1999/xlink">
    <!-- Generator: Sketch 59.1 (86144) - https://sketch.com -->
    <title>蓝牙</title>
    <desc>Created with Sketch.</desc>
    <g id="页面-1" stroke="none" stroke-width="1" fill="none" fill-rule="evenodd">
        <g id="1" transform="translate(-144.000000, -634.000000)" fill="#000000" fill-rule="nonzero">
            <path d="M165.343284,679.149254 L165.343284,667.656716 L172.731343,673.402985 L165.343284,679.149254 Z M165.343284,643.853875 L172.731343,649.598579 L165.343284,655.343284 L165.343284,643.850746 L165.343284,643.853875 Z M166.961249,661.503092 L178.975802,651.723377 C179.699124,651.132367 180.119403,650.242976 180.119403,649.303301 C180.119403,648.363625 179.699124,647.474235 178.975802,646.883225 L163.989907,634.68654 C163.067957,633.937089 161.802047,633.78833 160.73436,634.303977 C159.666672,634.819624 158.986587,635.908214 158.985382,637.103509 L158.985382,655.003993 L149.007089,646.883225 C147.683735,645.806591 145.746792,646.017311 144.680804,647.353882 C143.614816,648.690453 143.823453,650.646742 145.146806,651.723377 L157.158284,661.499986 L145.146806,671.276595 C143.851109,672.360812 143.658446,674.295322 144.714388,675.618448 C145.770331,676.941574 147.68294,677.162206 149.007089,676.11364 L158.985382,667.992872 L158.985382,685.893355 C158.987077,687.608398 160.363222,688.998287 162.061304,689 C162.762969,689 163.443622,688.758176 163.989907,688.313431 L178.975802,676.116746 C179.697994,675.525702 180.117503,674.637034 180.117503,673.698224 C180.117503,672.759413 179.697994,671.870746 178.975802,671.279701 L166.961249,661.499986 L166.961249,661.503092 Z" id="蓝牙"></path>
        </g>
    </g>
</svg>