<?xml version="1.0" encoding="UTF-8"?>
<svg width="80px" height="80px" viewBox="0 0 80 80" version="1.1" xmlns="http://www.w3.org/2000/svg" xmlns:xlink="http://www.w3.org/1999/xlink">
    <!-- Generator: Sketch 59.1 (86144) - https://sketch.com -->
    <title>燃气报警器</title>
    <desc>Created with Sketch.</desc>
    <defs>
        <linearGradient x1="50%" y1="0%" x2="50%" y2="100%" id="linearGradient-1">
            <stop stop-color="#3FE83F" offset="0%"></stop>
            <stop stop-color="#00D8B2" offset="100%"></stop>
        </linearGradient>
    </defs>
    <g id="页面-1" stroke="none" stroke-width="1" fill="none" fill-rule="evenodd">
        <g id="切图多彩" transform="translate(-872.000000, -629.000000)">
            <g id="编组-2" transform="translate(52.000000, 121.000000)">
                <g id="编组" transform="translate(0.000000, 520.000000)"></g>
                <g id="燃气报警器" transform="translate(820.000000, 508.000000)">
                    <circle id="椭圆形" fill="url(#linearGradient-1)" cx="40" cy="40" r="40"></circle>
                    <path d="M44.5722859,60.9992588 C44.5722859,60.9992588 58.7636794,59.8468869 61,45.3328392 C61,35.5552342 52.7861429,30.0145592 52.7861429,30.0145592 C52.7861429,30.0145592 51.096967,32.9706477 49.2149416,33.8441407 C49.2299138,33.9771084 54.2985714,20.6119444 37.4298362,14 C37.4098733,14.2485859 38.1908764,17.5096235 38.1440765,18.8739543 C38.0973236,20.238377 36.9259602,26.402215 30.6445067,31.058978 C24.3630532,35.715741 21.1050443,39.0714671 21.0021692,45.3328392 C20.8993412,51.5941654 24.4284037,58.3453656 36.715596,60.9992588 C36.7056145,61.0730635 31.7230237,55.6242771 31.7159142,49.5105603 C31.7087577,43.3967975 37.7127074,39.3514016 40.6439644,37.6736762 C40.5793203,37.6545366 40.3243219,38.7355364 40.2868443,40.4588389 C40.2493196,42.1821415 41.3592876,45.2489369 43.5009255,47.0735372 C45.6426104,48.8981834 47.4582025,51.8517933 47.4292939,53.6882354 C47.4003853,55.5247234 45.929719,59.2379983 44.5723329,60.9992588 L44.5722859,60.9992588 Z" id="路径" fill="#FFFFFF" fill-rule="nonzero"></path>
                </g>
            </g>
        </g>
    </g>
</svg>