<?xml version="1.0" encoding="UTF-8"?>
<svg width="254px" height="276px" viewBox="0 0 254 276" version="1.1" xmlns="http://www.w3.org/2000/svg" xmlns:xlink="http://www.w3.org/1999/xlink">
    <!-- Generator: Sketch 59.1 (86144) - https://sketch.com -->
    <title>主机在家</title>
    <desc>Created with Sketch.</desc>
    <defs>
        <linearGradient x1="50%" y1="0%" x2="50%" y2="100%" id="linearGradient-1">
            <stop stop-color="#FADA00" offset="0%"></stop>
            <stop stop-color="#FFBE00" offset="100%"></stop>
        </linearGradient>
    </defs>
    <g id="页面-1" stroke="none" stroke-width="1" fill="none" fill-rule="evenodd">
        <g id="切图多彩" transform="translate(-706.000000, -290.000000)">
            <g id="编组-2" transform="translate(52.000000, 121.000000)">
                <g id="主机在家" transform="translate(654.000000, 169.000000)">
                    <path d="M122.017692,1.37944073 C88.5806213,23.8246854 49.8556599,36.9503859 9.76923075,39.425694 C4.37383359,39.425694 0,43.8386183 0,49.2822363 L0,114.631112 C-0.0029758268,190.810336 51.3849285,257.214389 124.635846,275.687014 C126.237783,276.104329 127.918525,276.104329 129.520461,275.687014 L134.405077,274.366237 C205.173579,254.073163 254,188.859881 254,114.631112 L254,49.2822363 C254,43.8386183 249.626166,39.425694 244.230769,39.425694 C221.702923,39.425694 183.661538,26.6516152 131.259385,0.985179102 C128.308423,-0.456396659 124.837507,-0.308323222 122.017692,1.37944073 Z" id="路径" fill="url(#linearGradient-1)"></path>
                    <polygon id="路径" fill="#FFFFFF" fill-rule="nonzero" points="167.621528 136.620384 158.094128 136.620384 158.094128 171 97.4605153 171 97.4605153 136.620384 87.7777778 136.620384 87.7777778 136.206795 127.699653 101 167.621528 136.206795"></polygon>
                    <polygon id="路径" fill="#FDCB00" fill-rule="nonzero" points="123.676856 126.15625 132.078495 126.15625 127.058003 138.257348 136.996528 138.257348 119.834643 162.25 125.572347 146.534289 115.121528 146.534289"></polygon>
                </g>
            </g>
        </g>
    </g>
</svg>