<?xml version="1.0" encoding="UTF-8"?>
<svg width="77px" height="77px" viewBox="0 0 77 77" version="1.1" xmlns="http://www.w3.org/2000/svg" xmlns:xlink="http://www.w3.org/1999/xlink">
    <!-- Generator: Sketch 59.1 (86144) - https://sketch.com -->
    <title>配件</title>
    <desc>Created with Sketch.</desc>
    <defs>
        <linearGradient x1="50%" y1="0%" x2="50%" y2="100%" id="linearGradient-1">
            <stop stop-color="#2960F3" offset="0%"></stop>
            <stop stop-color="#1753FF" offset="100%"></stop>
        </linearGradient>
        <linearGradient x1="50%" y1="0%" x2="50%" y2="100%" id="linearGradient-2">
            <stop stop-color="#2960F3" offset="0%"></stop>
            <stop stop-color="#1753FF" offset="100%"></stop>
        </linearGradient>
        <linearGradient x1="50%" y1="0%" x2="50%" y2="100%" id="linearGradient-3">
            <stop stop-color="#2960F3" offset="0%"></stop>
            <stop stop-color="#1753FF" offset="100%"></stop>
        </linearGradient>
    </defs>
    <g id="页面-1" stroke="none" stroke-width="1" fill="none" fill-rule="evenodd">
        <g id="切图多彩" transform="translate(-397.000000, -1089.000000)">
            <g id="编组-2" transform="translate(52.000000, 121.000000)">
                <g id="编组" transform="translate(0.000000, 520.000000)"></g>
                <g id="配件" transform="translate(351.000000, 970.000000)">
                    <path d="M0,0 L0,73 L40,73 L40,0 L0,0 Z M34.5945946,67.6043478 L5.40540541,67.6043478 L5.40540541,5.39565217 L34.5945946,5.39565217 L34.5945946,67.6043478 Z" id="形状" fill="url(#linearGradient-1)"></path>
                    <path d="M46,14 L46,59 L66,59 L66,14 L46,14 Z M60.3973941,53.6503497 L51.5374593,53.6503497 L51.5374593,19.5384615 L60.3973941,19.5384615 L60.3973941,53.6503497 Z" id="形状" fill="url(#linearGradient-2)"></path>
                    <circle id="椭圆形" fill="url(#linearGradient-3)" cx="20" cy="21" r="7"></circle>
                </g>
            </g>
        </g>
    </g>
</svg>