<?xml version="1.0" encoding="UTF-8"?>
<svg width="96px" height="82px" viewBox="0 0 96 82" version="1.1" xmlns="http://www.w3.org/2000/svg" xmlns:xlink="http://www.w3.org/1999/xlink">
    <!-- Generator: Sketch 59.1 (86144) - https://sketch.com -->
    <title>自然风未选中</title>
    <desc>Created with Sketch.</desc>
    <g id="页面-1" stroke="none" stroke-width="1" fill="none" fill-rule="evenodd">
        <g id="3备份" transform="translate(-84.000000, -87.000000)" fill="#B5C4D1">
            <g id="未选中" transform="translate(80.362181, 80.000000)">
                <g id="自然风未选中" transform="translate(50.500000, 51.500000) rotate(-16.000000) translate(-50.500000, -51.500000) translate(10.000000, 10.000000)">
                    <path d="M69.0408869,82.3097775 C60.5632951,82.3097775 47.6512706,81.824605 35.7439978,78.3895834 C17.1077874,72.9847612 6.93467722,62.2042273 5.50000784,46.3681955 C4.69813875,37.5283518 5.9299256,29.6103359 9.06494388,23.4777549 C12.1999622,17.345174 17.185076,13.2163556 23.1218055,11.8336139 C31.488295,9.89292373 41.038266,13.3813143 49.9989115,21.6874683 C59.8773589,30.8475259 68.924954,45.7277678 76.1659285,64.7271246 C76.2190644,64.8629729 76.3349973,65.1298178 76.494405,65.4985489 C80.257393,74.314134 81.0544316,78.2585868 79.5376431,80.5680081 C78.8344473,81.637544 77.6350167,82.2710142 76.3591499,82.2467051 C75.6683832,82.2467051 74.8278698,82.2467051 73.8521014,82.2709637 C72.4947206,82.2903706 70.8668298,82.3097775 69.0408869,82.3097775 Z M28.1262415,17.0589088 C26.8824422,17.0573254 25.6425607,17.1989501 24.430881,17.4810223 C15.0741315,19.659447 9.9102878,30.7893052 11.2724991,45.8248023 C14.1128547,77.2494279 59.0223539,76.6478139 73.7748128,76.4488932 L74.3061719,76.4488932 C73.992187,75.056448 73.1758263,72.4898853 71.166323,67.7837116 C70.9634405,67.298539 70.8185244,66.9686217 70.7557274,66.8133665 C61.0173655,41.2447735 44.4389638,17.0589088 28.1262415,17.0589088 L28.1262415,17.0589088 Z" id="形状"></path>
                    <path d="M50.5447719,66.8223375 C50.0494469,66.8223375 49.5623092,66.6919707 49.1288998,66.4445982 C13.3805712,46.0315657 1.26265924,15.5404485 0.745133592,14.2510983 C0.19466511,12.7143959 0.93144107,11.0050754 2.40623372,10.3973454 C3.88102636,9.78961538 5.55665887,10.5048347 6.18403527,12.009845 C6.29632857,12.3019634 18.1164192,41.8361411 51.945997,61.1562478 C53.1121102,61.8217632 53.695809,63.215369 53.3663796,64.5474722 C53.0369502,65.8795754 51.8774253,66.8144194 50.5447719,66.8223375 L50.5447719,66.8223375 Z M67.6328831,20.4863152 C66.727929,20.4863152 65.8737031,20.0551715 65.3186646,19.3178416 L55.1243857,5.7746281 C54.4414798,4.92609802 54.2609057,3.76117604 54.6532569,2.73527571 C55.0456081,1.70937538 55.9485688,0.985437042 57.0091363,0.8464765 C58.0697038,0.707515957 59.1194317,1.17560385 59.7479404,2.06774632 L69.9471016,15.6109598 C70.6331268,16.5222965 70.7562038,17.7570864 70.264306,18.7933657 C69.7724082,19.8296449 68.7514025,20.4865181 67.6328831,20.4863152 Z M66.1681879,34.0849304 C65.3036114,34.0844075 64.4834149,33.6899285 63.9272041,33.0071143 L46.3362142,11.4205717 C45.6249831,10.5993705 45.403094,9.44406966 45.757068,8.4051556 C46.1110421,7.36624154 46.9848331,6.60821039 48.0377236,6.42664119 C49.0906141,6.24507198 50.1558951,6.66871342 50.8181817,7.53237504 L68.3945246,29.1239541 C69.1222069,30.0211669 69.2825408,31.2710393 68.8061335,32.3326242 C68.3297261,33.3942091 67.3021679,34.0767845 66.1681879,34.0849304 L66.1681879,34.0849304 Z" id="形状"></path>
                    <path d="M19.2581384,54.7730405 C18.342672,54.7730405 17.4831208,54.3251474 16.9480855,53.5698322 C16.4130503,52.814517 16.2677845,51.8437095 16.5576823,50.9607767 C22.4142076,33.1058699 35.963948,30.50967 36.5382102,30.4083313 C38.0872957,30.1284924 39.5661861,31.1785038 39.8414043,32.7535975 C40.1166225,34.3286911 39.0839491,35.8324112 37.5348636,36.1122502 C37.0602667,36.2039375 26.6855793,38.3754802 21.9585946,52.7896982 C21.5723271,53.973059 20.4843852,54.7720949 19.2581384,54.7730405 L19.2581384,54.7730405 Z M37.017553,67.3631721 L36.8941578,67.3631721 C36.1395432,67.3305797 35.4285724,66.9945014 34.9176775,66.4288736 C34.4067825,65.8632458 34.1378211,65.1144106 34.1699718,64.347131 C34.6730445,52.0706763 45.4748691,47.1581641 51.1178258,46.2750701 C52.6721535,46.0258802 54.1308578,47.1050586 54.3759331,48.6854825 C54.6210084,50.2659064 53.5596497,51.7491015 52.005322,51.9982915 C51.5307251,52.0755019 40.3017633,54.034716 39.8698802,64.5884136 C39.8061633,66.1420635 38.5468719,67.3671044 37.017553,67.3631721 L37.017553,67.3631721 Z" id="形状"></path>
                </g>
            </g>
        </g>
    </g>
</svg>