<?xml version="1.0" encoding="UTF-8"?>
<svg width="71px" height="67px" viewBox="0 0 71 67" version="1.1" xmlns="http://www.w3.org/2000/svg" xmlns:xlink="http://www.w3.org/1999/xlink">
    <title>风</title>
    <g id="页面-1" stroke="none" stroke-width="1" fill="none" fill-rule="evenodd">
        <g id="3" transform="translate(-836.000000, -1774.000000)" fill="#0F0F0F">
            <g id="编组-10" transform="translate(0.000000, 1757.000000)">
                <g id="风" transform="translate(836.000000, 17.000000)">
                    <path d="M39.8190923,23 L4.05978462,23 C1.81754371,22.9997299 0,21.2835672 0,19.1666667 C0,17.0497661 1.81754371,15.3336034 4.05978462,15.3333334 L39.8190923,15.3333334 C42.0615356,15.3333334 43.879395,13.6170916 43.879395,11.5 C43.879395,9.38290845 42.0615356,7.66666665 39.8190923,7.66666665 C37.5768514,7.66639657 35.7593077,5.95023389 35.7593077,3.83333332 C35.7593077,1.71643276 37.5768514,0.000270077109 39.8190923,0 C46.5464219,0 52,5.14872544 52,11.5 C52,17.8512746 46.5464219,23 39.8190923,23 L39.8190923,23 Z" id="路径"></path>
                    <path d="M58.8091796,38.3995028 L4.06360675,38.3995028 C1.81933871,38.3995028 0,36.6534504 0,34.4995856 C0,32.3457209 1.81933871,30.5996685 4.06360675,30.5996685 L58.8091796,30.5996685 C61.0532452,30.5993937 62.872268,28.8534218 62.872268,26.6997514 C62.872268,24.5460809 61.0532452,22.800109 58.8091796,22.7998343 C57.3572693,22.800012 56.0155696,22.0567309 55.2895609,20.8500194 C54.5635523,19.6433078 54.5635523,18.1565265 55.2895609,16.9498149 C56.0155696,15.7431034 57.3572693,15 58.8091796,15 C63.1645403,15 67.1890594,17.22996 69.3667398,20.8498757 C71.5444201,24.4697914 71.5444201,28.9297115 69.3667398,32.5496272 C67.1890594,36.1695429 63.1645403,38.3995028 58.8091796,38.3995028 Z M47.9723194,67 C46.520409,67 45.1787093,66.2568966 44.4527007,65.0501851 C43.726692,63.8434735 43.726692,62.3566922 44.4527007,61.1499806 C45.1787093,59.9432691 46.520409,59.199988 47.9723194,59.2001657 C49.4242297,59.2003435 50.7659294,58.4570624 51.4919381,57.2503508 C52.2179467,56.0436393 52.2179467,54.556858 51.4919381,53.3501464 C50.7659294,52.1434348 49.4242297,51.4001537 47.9723194,51.4003315 L4.06360675,51.4003315 C1.81933871,51.4003315 5.32907052e-14,49.6542791 5.32907052e-14,47.5004144 C5.32907052e-14,45.3465496 1.81933871,43.6004972 4.06360675,43.6004972 L47.9878623,43.6004972 C52.3432229,43.6004972 56.3677421,45.8304571 58.5454224,49.4503728 C60.7231028,53.0702885 60.7231028,57.5302086 58.5454224,61.1501243 C56.3677421,64.7700401 52.3432229,67 47.9878623,67 L47.9723194,67 Z" id="形状"></path>
                </g>
            </g>
        </g>
    </g>
</svg>