<?xml version="1.0" encoding="UTF-8"?>
<svg width="82px" height="78px" viewBox="0 0 82 78" version="1.1" xmlns="http://www.w3.org/2000/svg" xmlns:xlink="http://www.w3.org/1999/xlink">
    <title>摇头开</title>
    <g id="页面-1" stroke="none" stroke-width="1" fill="none" fill-rule="evenodd">
        <g id="2" transform="translate(-184.000000, -1443.000000)" fill="#000000" fill-rule="nonzero">
            <g id="编组-6" transform="translate(80.000000, 1359.000000)">
                <g id="摇头开" transform="translate(104.000000, 84.000000)">
                    <path d="M41.007986,78 C31.2241992,78 22.9717081,75.9306501 14.8659279,71.1994053 C14.6917087,72.2386383 14.0681871,73.2049426 13.0778882,73.7792556 C11.3081873,74.8276046 9.01582864,74.2350595 7.97968253,72.4574242 L0.515762769,59.8590035 C-0.428688995,58.2636897 -0.0435727418,56.2308042 1.40519793,55.0821783 C2.86313803,53.9426685 4.94459968,54.0247132 6.29250657,55.2918481 C17.8093164,66.1582138 27.8681862,70.5886281 40.9988165,70.5886281 C54.1386163,70.5886281 64.1974861,66.1582138 75.7051265,55.2918481 C77.0530334,54.0155971 79.1436645,53.9335524 80.5924351,55.0821783 C82.0503752,56.2308042 82.4263221,58.2728058 81.4818703,59.8590035 L74.02712,72.4665403 C72.9818044,74.2350595 70.6986152,74.8184886 68.9289143,73.7883717 C67.9386154,73.2049426 67.3242633,72.2477544 67.1408746,71.2085214 C59.0442638,75.9306501 50.7917727,78 41.007986,78 L41.007986,78 Z M11.2623401,49.1658432 L27.4097145,5.07137085 C28.1157609,3.14787825 27.1162925,1.02383193 25.1815418,0.321893871 C23.2467911,-0.380044184 21.1103129,0.613608388 20.4042664,2.53710098 L4.25689209,46.6315734 C3.55084562,48.555066 4.55031399,50.6791123 6.48506469,51.3810504 C6.90685869,51.5360237 7.33782211,51.6089523 7.7596161,51.6089523 C9.28174225,51.5998362 10.712174,50.6699962 11.2623401,49.1658432 Z M75.8334986,51.3810504 C77.7682493,50.6791123 78.7677177,48.555066 78.0616712,46.6315734 L61.8776191,2.43682412 C61.1715727,0.513331523 59.025925,-0.471204971 57.1003437,0.221617006 C55.165593,0.923555062 54.1661246,3.04760139 54.8721711,4.97109398 L71.0562232,49.1749593 C71.6063892,50.6791123 73.036821,51.6180684 74.5589472,51.6180684 C74.9807412,51.6089523 75.4117046,51.5360237 75.8334986,51.3810504 L75.8334986,51.3810504 Z" id="形状"></path>
                </g>
            </g>
        </g>
    </g>
</svg>