<?xml version="1.0" encoding="UTF-8"?>
<svg width="78px" height="78px" viewBox="0 0 78 78" version="1.1" xmlns="http://www.w3.org/2000/svg" xmlns:xlink="http://www.w3.org/1999/xlink">
    <title>定时器</title>
    <g id="页面-1" stroke="none" stroke-width="1" fill="none" fill-rule="evenodd">
        <g id="2" transform="translate(-862.000000, -1443.000000)" fill="#000000" fill-rule="nonzero">
            <g id="编组-6" transform="translate(80.000000, 1359.000000)">
                <g id="编组-5">
                    <g id="灯光" transform="translate(670.000000, 0.000000)">
                        <g id="定时器" transform="translate(112.000000, 84.000000)">
                            <path d="M73.4926647,43 C73.4926647,62.3282668 57.8207895,78 38.473986,78 C19.1271825,78 3.49266469,62.3273918 3.49266469,43 C3.49266469,23.6726082 19.1271825,8 38.473986,8 C57.8207895,8 73.4935335,23.6717332 73.4926647,43 L73.4926647,43 Z M38.0810919,24 C36.1069473,24 34.5065868,25.6003605 34.5065868,27.5745051 L34.5065868,47.3072154 L34.5065868,47.3072154 L34.4926647,47.3304632 L51.8412623,57.2412562 C53.5460109,58.2151337 55.7171003,57.633231 56.7062823,55.937317 C57.6840711,54.2609362 57.1177504,52.1093066 55.4413696,51.1315178 C55.4323015,51.1262286 55.4232097,51.12098 55.4140945,51.1157723 L41.655597,43.2552092 L41.655597,43.2552092 L41.655597,27.5745051 C41.655597,25.6003605 40.0552366,24 38.0810919,24 Z M21.1277451,2.57129201 C22.530157,4.36364177 22.2140499,6.95350779 20.4217002,8.35591969 C20.4201461,8.35713564 20.4185912,8.35835047 20.4170354,8.35956419 L6.67214306,19.0823637 C4.87444535,20.4848012 2.28056822,20.1663135 0.875549685,18.3706323 C-0.52686221,16.5782825 -0.210755116,13.9884165 1.58159464,12.5860046 C1.58314868,12.5847887 1.5847036,12.5835738 1.58625939,12.5823601 L15.3311517,1.85956059 C17.1288495,0.457123118 19.7227266,0.775610844 21.1277451,2.57129201 Z M56.8717768,2.57129201 C55.4693649,4.36364177 55.785472,6.95350779 57.5778218,8.35591969 C57.5793758,8.35713564 57.5809307,8.35835047 57.5824865,8.35956419 L71.3273789,19.0823637 C73.1250766,20.4848012 75.7189537,20.1663135 77.1239723,18.3706323 C78.5263842,16.5782825 78.2102771,13.9884165 76.4179273,12.5860046 C76.4163733,12.5847887 76.4148183,12.5835738 76.4132626,12.5823601 L62.6683702,1.85956059 C60.8706725,0.457123118 58.2767954,0.775610844 56.8717768,2.57129201 Z" id="形状"></path>
                        </g>
                    </g>
                </g>
            </g>
        </g>
    </g>
</svg>