<?xml version="1.0" encoding="UTF-8"?>
<svg width="84px" height="84px" viewBox="0 0 84 84" version="1.1" xmlns="http://www.w3.org/2000/svg" xmlns:xlink="http://www.w3.org/1999/xlink">
    <!-- Generator: Sketch 59.1 (86144) - https://sketch.com -->
    <title>时间</title>
    <desc>Created with Sketch.</desc>
    <defs>
        <linearGradient x1="50%" y1="0%" x2="50%" y2="100%" id="linearGradient-1">
            <stop stop-color="#18CBFB" offset="0%"></stop>
            <stop stop-color="#5771F3" offset="100%"></stop>
        </linearGradient>
    </defs>
    <g id="页面-1" stroke="none" stroke-width="1" fill="none" fill-rule="evenodd">
        <g id="1" transform="translate(-239.000000, -2030.000000)" fill="url(#linearGradient-1)" fill-rule="nonzero">
            <g id="编组-3" transform="translate(236.000000, 567.000000)">
                <path d="M80,1504.98563 C80,1524.30596 64.3281248,1539.97126 44.9813213,1539.97126 C25.6345178,1539.97126 10,1524.30509 10,1504.98563 C10,1485.66617 25.6345178,1470 44.9813213,1470 C64.3281248,1470 80.0008688,1485.6653 80,1504.98563 L80,1504.98563 Z M41.8311943,1473.06042 C38.6232092,1473.06042 36.0226235,1475.66101 36.0226235,1478.86899 L36.0226235,1510.9191 L36.0226235,1510.9191 L36,1510.95686 L64.1924982,1527.05588 C66.9624312,1528.63761 70.4895422,1527.69227 72.0971286,1524.93726 C73.6854706,1522.21522 72.7664328,1518.72098 70.0444003,1517.13263 C70.0290917,1517.1237 70.0137416,1517.11484 69.9983505,1517.10605 L47.6397651,1504.33729 L47.6397651,1504.33729 L47.6397651,1478.86899 C47.6397651,1475.66101 45.0391793,1473.06042 41.8311943,1473.06042 Z" id="时间"></path>
            </g>
        </g>
    </g>
</svg>