<?xml version="1.0" encoding="UTF-8"?>
<svg width="67px" height="69px" viewBox="0 0 67 69" version="1.1" xmlns="http://www.w3.org/2000/svg" xmlns:xlink="http://www.w3.org/1999/xlink">
    <!-- Generator: Sketch 59.1 (86144) - https://sketch.com -->
    <title>电机反向</title>
    <desc>Created with Sketch.</desc>
    <defs>
        <linearGradient x1="50%" y1="0%" x2="50%" y2="100%" id="linearGradient-1">
            <stop stop-color="#3FE83F" offset="0%"></stop>
            <stop stop-color="#00D8B2" offset="100%"></stop>
        </linearGradient>
    </defs>
    <g id="页面-1" stroke="none" stroke-width="1" fill="none" fill-rule="evenodd">
        <g id="1" transform="translate(-186.000000, -1651.000000)" fill="url(#linearGradient-1)">
            <g id="编组-3" transform="translate(80.000000, 1563.000000)">
                <g id="喷雾开关">
                    <g id="电机反向" transform="translate(106.000000, 87.531089)">
                        <path d="M63.3743557,50 C65.3073523,50 66.8743557,51.5670034 66.8743557,53.5 C66.8743557,55.4329966 65.3073523,57 63.3743557,57 L15.8563557,56.9994156 L24.8432667,62.1878222 C26.459566,63.120993 27.0499894,65.1486577 26.2188626,66.7941392 L26.1243557,66.9689111 C25.1578573,68.6429353 23.0172909,69.2164983 21.3432667,68.25 L21.3432667,68.25 L3.15673326,57.75 C2.27491256,57.2408806 1.69845164,56.4059767 1.49160649,55.4850948 C1.10230835,54.9212714 0.874355653,54.2372563 0.874355653,53.5 C0.874355653,51.5670034 2.44135903,50 4.37435565,50 L63.3743557,50 Z M40.75,2.5 C41.7164983,0.825975818 43.8570647,0.252412775 45.5310889,1.21891109 L45.5310889,1.21891109 L63.7176224,11.7189111 C63.918869,11.8351009 64.1042116,11.9682586 64.2728863,12.1155337 C65.7701401,12.5126168 66.8743557,13.8773567 66.8743557,15.5 C66.8743557,17.4329966 65.3073523,19 63.3743557,19 L63.3743557,19 L4.37435565,19 C2.44135903,19 0.874355653,17.4329966 0.874355653,15.5 C0.874355653,13.5670034 2.44135903,12 4.37435565,12 L4.37435565,12 L50.2043557,11.9994156 L42.0310889,7.28108891 C40.4147897,6.34791813 39.8243663,4.32025341 40.6554931,2.67477189 Z" id="形状结合"></path>
                    </g>
                </g>
            </g>
        </g>
    </g>
</svg>