<svg width="21" height="20" viewBox="0 0 21 20" fill="none" xmlns="http://www.w3.org/2000/svg">
<path fill-rule="evenodd" clip-rule="evenodd" d="M18.9004 7.2357L20.2698 7.425C20.6911 7.48179 21.0047 7.83672 20.9999 8.25791V11.6392C20.9999 12.0581 20.6887 12.413 20.2674 12.4722L18.898 12.6615C18.594 12.7017 18.3474 12.9052 18.2277 13.1844C17.9596 13.8162 17.6125 14.4077 17.2007 14.9472C17.0164 15.1886 16.9613 15.5033 17.0762 15.7825L17.5957 17.0484C17.7537 17.4365 17.6005 17.8813 17.2318 18.0919L14.2705 19.7814C13.9018 19.992 13.435 19.9021 13.174 19.5708L12.3266 18.4989C12.1375 18.2576 11.831 18.1464 11.5246 18.1842C11.1894 18.2268 10.8471 18.2505 10.5 18.2505C10.1528 18.2505 9.81051 18.2268 9.47535 18.1842C9.16892 18.1464 8.86249 18.2576 8.67337 18.4989L7.8259 19.5708C7.56496 19.9021 7.09813 19.992 6.72946 19.7814L3.76812 18.0919C3.39944 17.8837 3.24384 17.4365 3.40423 17.0484L3.92372 15.7825C4.03864 15.5033 3.98357 15.1886 3.79924 14.9472C3.38747 14.4077 3.04274 13.8162 2.77222 13.1844C2.65252 12.9075 2.40594 12.704 2.10191 12.6615L0.732556 12.4722C0.313611 12.413 0 12.0581 0 11.6392V8.25791C0 7.83672 0.313611 7.48179 0.73495 7.42263L2.1043 7.23334C2.40834 7.19311 2.65492 6.98962 2.77462 6.7104C3.04274 6.07862 3.38987 5.48706 3.80163 4.94757C3.98597 4.70621 4.04103 4.39387 3.92612 4.11229L3.40663 2.84636C3.24862 2.4583 3.40184 2.01345 3.77051 1.80286L6.73186 0.113373C7.10053 -0.0972213 7.56735 -0.00730484 7.8283 0.323966L8.67577 1.39587C8.86489 1.63722 9.17132 1.74843 9.47775 1.71057C9.8129 1.66798 10.1552 1.64432 10.5024 1.64432C10.8495 1.64432 11.1918 1.66798 11.527 1.71057C11.8334 1.74843 12.1398 1.63722 12.329 1.39587L13.1764 0.323966C13.4374 -0.00730484 13.9042 -0.0972213 14.2729 0.113373L17.2342 1.80522C17.6029 2.01345 17.7585 2.46067 17.5981 2.84873L17.0786 4.11466C16.9637 4.39387 17.0188 4.70858 17.2031 4.94993C17.6149 5.48943 17.9596 6.08099 18.2301 6.71277C18.3498 6.98962 18.5964 7.19311 18.9004 7.2357ZM7.17721 9.94729C7.17721 11.7622 8.66626 13.234 10.5024 13.234C12.3386 13.234 13.8277 11.7622 13.8277 9.94729C13.8277 8.1324 12.3386 6.66061 10.5024 6.66061C8.66626 6.66061 7.17721 8.1324 7.17721 9.94729Z" fill="#060606"/>
</svg>
