<?xml version="1.0" encoding="UTF-8"?>
<svg width="77px" height="70px" viewBox="0 0 77 70" version="1.1" xmlns="http://www.w3.org/2000/svg" xmlns:xlink="http://www.w3.org/1999/xlink">
    <!-- Generator: Sketch 59.1 (86144) - https://sketch.com -->
    <title>开发</title>
    <desc>Created with Sketch.</desc>
    <g id="页面-1" stroke="none" stroke-width="1" fill="none" fill-rule="evenodd">
        <g id="2" transform="translate(-659.000000, -2258.000000)" fill="#0F0F0F" fill-rule="nonzero">
            <g id="开发" transform="translate(659.000000, 2258.000000)">
                <path d="M63.1287326,23.2172471 C61.5882356,21.7975037 59.5709507,21.0086418 57.4766253,21.0069833 L8.35281432,21.0069833 C3.73968235,21.0069833 0,24.7490809 0,29.3651923 L0,41.108494 C0.00259040867,57.0528892 12.9109397,69.982035 28.845034,70 L36.9797833,70 C49.0155567,69.9863212 59.7824574,62.5089942 64.0057056,51.2312137 C71.4981021,50.6887165 77.2283943,44.3278007 76.9930013,36.8146548 C76.7576083,29.3015089 70.6403756,23.3122653 63.1287326,23.2404643 L63.1287326,23.2172471 Z M18.0327799,44.2242304 C18.0327799,45.7629342 16.7862191,47.0103001 15.2485085,47.0103001 C13.7107978,47.0103001 12.464237,45.7629342 12.464237,44.2242304 L12.464237,35.3459007 C12.464237,33.8071969 13.7107978,32.5598311 15.2485085,32.5598311 C16.7862191,32.5598311 18.0327799,33.8071969 18.0327799,35.3459007 L18.0327799,44.2242304 Z M65.5230973,45.3014744 C65.7279676,43.9178945 65.8303606,42.5210546 65.8294396,41.1223699 L65.8294396,29.267698 C69.2720782,30.4688535 71.553214,33.7480833 71.4835227,37.3956833 C71.4138314,41.0432833 69.0091021,44.232869 65.5230973,45.3014744 L65.5230973,45.3014744 Z M16.4365368,19.5628887 C14.8988261,19.5628887 13.6522653,18.3155228 13.6522653,16.776819 L13.6522653,7.89386401 C13.6522653,6.35516028 14.8988262,5.10779448 16.4365368,5.10779448 C17.9742474,5.10779448 19.2208082,6.35516028 19.2208082,7.89386401 L19.2208082,16.776819 C19.2208082,18.3155228 17.9742474,19.5628887 16.4365368,19.5628887 L16.4365368,19.5628887 Z M47.8849371,19.5628887 C47.1465024,19.5628887 46.4383121,19.2693572 45.9161599,18.7468678 C45.3940077,18.2243784 45.1006657,17.5157306 45.1006657,16.776819 L45.1006657,7.89386401 C45.1006657,6.35516023 46.3472264,5.10779436 47.8849371,5.10779436 C49.4226478,5.10779436 50.6692085,6.35516023 50.6692085,7.89386401 L50.6692085,16.776819 C50.6692085,18.3155228 49.4226478,19.5628887 47.8849371,19.5628887 L47.8849371,19.5628887 Z M32.1630481,19.5628887 C30.6253374,19.5628887 29.3787767,18.3155228 29.3787767,16.776819 L29.3787767,2.78606965 C29.3787767,1.24736587 30.6253374,0 32.1630481,0 C33.7007588,0 34.9473195,1.24736587 34.9473195,2.78606965 L34.9473195,16.776819 C34.9473195,18.3155228 33.7007588,19.5628887 32.1630481,19.5628887 L32.1630481,19.5628887 Z" id="形状"></path>
            </g>
        </g>
    </g>
</svg>