<svg width="21" height="21" viewBox="0 0 21 21" fill="none" xmlns="http://www.w3.org/2000/svg">
<path d="M19.2029 18.3934H0.804683C0.591268 18.3934 0.386594 18.4782 0.235686 18.6291C0.0847789 18.78 0 18.9847 0 19.1981C0 19.4115 0.0847789 19.6162 0.235686 19.7671C0.386594 19.918 0.591268 20.0028 0.804683 20.0028H19.2029C19.4163 20.0028 19.621 19.918 19.7719 19.7671C19.9228 19.6162 20.0076 19.4115 20.0076 19.1981C20.0076 18.9847 19.9228 18.78 19.7719 18.6291C19.621 18.4782 19.4163 18.3934 19.2029 18.3934ZM19.5362 4.51859C19.838 4.21677 20.0076 3.80743 20.0076 3.3806C20.0076 2.95378 19.838 2.54443 19.5362 2.24262L17.7649 0.471363C17.4631 0.169554 17.0538 0 16.6269 0C16.2001 0 15.7908 0.169554 15.489 0.471363L14.9081 1.05226L18.9553 5.09948L19.5362 4.51859ZM6.67078 9.34669C6.60568 9.41229 6.55393 9.48991 6.51841 9.57524L4.24244 14.8223C4.17879 14.9556 4.15802 15.1054 4.183 15.2509C4.20797 15.3965 4.27747 15.5307 4.3819 15.6352C4.48634 15.7396 4.62058 15.8091 4.76615 15.8341C4.91172 15.8591 5.06145 15.8383 5.19473 15.7746L10.4799 13.5368C10.565 13.5008 10.6426 13.4491 10.7085 13.3844L17.6697 6.38507L13.6225 2.34737L6.67078 9.34669Z" fill="#594AE1"/>
</svg>
