<svg width="24" height="24" viewBox="0 0 24 24" fill="none" xmlns="http://www.w3.org/2000/svg">
<path d="M8 10.2857H2.28571C1.02857 10.2857 0 9.25714 0 8V2.28571C0 1.02857 1.02857 0 2.28571 0H8C9.25714 0 10.2857 1.02857 10.2857 2.28571V8C10.2857 9.25714 9.25714 10.2857 8 10.2857ZM2.28571 2.28571V8H8V2.28571H2.28571ZM18.8571 10.2857C16 10.2857 13.7143 8 13.7143 5.14286C13.7143 2.28571 16 0 18.8571 0C21.7143 0 24 2.28571 24 5.14286C24 8 21.7143 10.2857 18.8571 10.2857ZM18.8571 2.28571C17.2571 2.28571 16 3.54286 16 5.14286C16 6.74286 17.2571 8 18.8571 8C20.4571 8 21.7143 6.74286 21.7143 5.14286C21.7143 3.54286 20.4571 2.28571 18.8571 2.28571ZM8 24H2.28571C1.02857 24 0 22.9714 0 21.7143V16C0 14.7429 1.02857 13.7143 2.28571 13.7143H8C9.25714 13.7143 10.2857 14.7429 10.2857 16V21.7143C10.2857 22.9714 9.25714 24 8 24ZM2.28571 16V21.7143H8V16H2.28571ZM21.7143 24H16C14.7429 24 13.7143 22.9714 13.7143 21.7143V16C13.7143 14.7429 14.7429 13.7143 16 13.7143H21.7143C22.9714 13.7143 24 14.7429 24 16V21.7143C24 22.9714 22.9714 24 21.7143 24ZM16 16V21.7143H21.7143V16H16Z" fill="#594AE1"/>
</svg>
