<svg width="24" height="24" viewBox="0 0 24 24" fill="none" xmlns="http://www.w3.org/2000/svg">
<g clip-path="url(#clip0_192_383)">
<path d="M22.8987 8.16088C22.4526 8.16088 22.0149 7.93094 21.7711 7.51817C20.7711 5.82828 19.3416 4.42097 17.6378 3.44582C17.0118 3.08568 16.7929 2.28783 17.153 1.65897C17.5132 1.03011 18.311 0.814028 18.9399 1.17417C21.0342 2.37371 22.7934 4.10515 24.0234 6.18288C24.3919 6.8062 24.1869 7.60682 23.5635 7.97527C23.3558 8.1027 23.1258 8.16088 22.8987 8.16088ZM1.3069 7.8977C1.06865 7.8977 0.830403 7.83398 0.614319 7.69824C0.0020815 7.31594 -0.183529 6.50701 0.198773 5.89477C1.38723 3.99711 3.03557 2.3931 4.96647 1.26005C5.58979 0.894367 6.39318 1.10214 6.75886 1.72546C7.12454 2.34878 6.91677 3.1494 6.29345 3.51785C4.72545 4.44036 3.38463 5.7424 2.41779 7.28546C2.16846 7.67885 1.74183 7.8977 1.3069 7.8977ZM12.0224 23.3117C6.49291 23.3117 1.99393 18.8127 1.99393 13.2832C1.99393 7.75364 6.49291 3.25467 12.0224 3.25467C17.552 3.25467 22.0509 7.75364 22.0509 13.2832C22.0509 18.8127 17.552 23.3117 12.0224 23.3117ZM12.0224 5.86984C7.93624 5.86984 4.61187 9.1942 4.61187 13.2832C4.61187 17.3721 7.93624 20.6937 12.0224 20.6937C16.1086 20.6937 19.433 17.3694 19.433 13.2804C19.433 9.19143 16.1114 5.86984 12.0224 5.86984Z" fill="#594AE1"/>
<path d="M20.5106 23.9599C20.2031 23.9599 19.8929 23.8519 19.6435 23.6303L16.6848 21.0096C16.1446 20.5303 16.0948 19.702 16.574 19.1618C17.0533 18.6216 17.8788 18.5689 18.4218 19.0509L21.3805 21.6717C21.9207 22.1509 21.9706 22.9792 21.4913 23.5195C21.2309 23.8103 20.8708 23.9599 20.5106 23.9599ZM3.62286 23.9987C3.25995 23.9987 2.90258 23.8491 2.64217 23.5582C2.16291 23.018 2.21277 22.1897 2.75575 21.7104L5.69228 19.1119C6.23249 18.6326 7.06081 18.6825 7.54007 19.2255C8.01933 19.7657 7.96947 20.594 7.42649 21.0733L4.48996 23.6718C4.24064 23.8907 3.93036 23.9987 3.62286 23.9987ZM16.6848 14.5908H12.0224C11.2994 14.5908 10.7148 14.0062 10.7148 13.2832C10.7148 12.5601 11.2994 11.9756 12.0224 11.9756H16.6821C17.4051 11.9756 17.9897 12.5601 17.9897 13.2832C17.9924 14.0062 17.4051 14.5908 16.6848 14.5908Z" fill="#594AE1"/>
<path d="M12.0224 14.5904C11.2994 14.5904 10.7148 14.0059 10.7148 13.2829V8.52902C10.7148 7.80597 11.2994 7.22144 12.0224 7.22144C12.7455 7.22144 13.33 7.80597 13.33 8.52902V13.2829C13.3328 14.0059 12.7455 14.5904 12.0224 14.5904Z" fill="#594AE1"/>
</g>
<defs>
<clipPath id="clip0_192_383">
<rect width="24" height="24" fill="white"/>
</clipPath>
</defs>
</svg>
