<?xml version="1.0" encoding="UTF-8"?>
<svg width="70px" height="70px" viewBox="0 0 70 70" version="1.1" xmlns="http://www.w3.org/2000/svg" xmlns:xlink="http://www.w3.org/1999/xlink">
    <!-- Generator: Sketch 59.1 (86144) - https://sketch.com -->
    <title>外出布防</title>
    <desc>Created with Sketch.</desc>
    <g id="页面-1" stroke="none" stroke-width="1" fill="none" fill-rule="evenodd">
        <g id="1" transform="translate(-87.000000, -804.000000)" stroke="#000000">
            <g id="黑白" transform="translate(75.000000, 58.000000)">
                <g id="外出布防" transform="translate(18.000000, 750.000000)">
                    <g id="编组-6">
                        <path d="M27.8623077,0.314872341 C20.227071,5.4382434 11.3843633,8.43432722 2.23076923,8.9993432 C0.998749402,8.9993432 0,10.0066411 0,11.2492061 L0,26.1657973 C-0.000679519504,43.5545333 11.7335663,58.71198 28.4601538,62.9285575 C28.8259505,63.0238142 29.2097418,63.0238142 29.5755384,62.9285575 L30.6909231,62.6270758 C46.8506599,57.9949612 58,43.1093206 58,26.1657973 L58,11.2492061 C58,10.0066411 57.0012506,8.9993432 55.7692308,8.9993432 C50.6250769,8.9993432 41.9384615,6.08352087 29.9726154,0.224877839 C29.2987738,-0.104177498 28.5062024,-0.0703781267 27.8623077,0.314872341 Z" id="路径" stroke-width="5" fill-rule="nonzero"></path>
                        <rect id="矩形" stroke-width="3" x="19" y="16" width="23" height="31" rx="4"></rect>
                        <polyline id="路径-2" stroke-width="3" stroke-linejoin="bevel" points="41 18 30 23.0690225 30 47"></polyline>
                    </g>
                </g>
            </g>
        </g>
    </g>
</svg>