<svg width="76" height="80" viewBox="0 0 76 80" fill="none" xmlns="http://www.w3.org/2000/svg">
<path fill-rule="evenodd" clip-rule="evenodd" d="M61.2719 43.8933C61.8016 44.5552 62.5962 44.9527 63.3908 44.9527C64.0528 44.9527 64.7152 44.8205 65.1127 44.2904C71.7344 38.8604 75.5751 30.7817 75.5751 22.1733C75.5751 13.8298 72.1319 6.01557 65.9073 0.718217C64.7156 -0.341254 62.9937 -0.20902 61.9342 0.983085C60.8748 2.17479 61.007 3.89663 62.1991 4.9561C67.2316 9.19439 70.0129 15.5512 70.0129 22.1733C70.0129 29.1929 66.9667 35.5497 61.6694 39.9202C60.4773 40.9797 60.3446 42.7012 61.2719 43.8933ZM25.778 0.585983C29.2213 0.585983 31.8704 3.36729 31.8704 6.94321C31.7377 10.3865 29.2217 12.9029 25.778 12.9029C22.2021 12.9029 19.6856 10.2543 19.8183 6.67834C19.686 3.10203 22.3347 0.585983 25.778 0.585983ZM27.1051 35.3417C27.6341 33.2588 28.163 31.176 28.6919 29.0603C28.8242 28.9276 29.089 28.7954 29.3539 28.7954C30.2599 34.7503 34.7094 37.0357 39.2387 39.362L39.5515 39.5227C39.9494 39.7216 40.3473 39.9537 40.7452 40.1858C41.1419 40.4172 41.5386 40.6486 41.9353 40.8471C42.024 40.8914 42.1155 40.9386 42.2091 40.9868C43.2331 41.5144 44.5068 42.1706 45.1137 40.7145C45.3786 40.0525 44.584 38.3306 43.7894 37.8009C37.5648 33.9605 33.4592 28.5305 31.0754 21.6436C30.6783 20.4519 30.1485 19.2598 29.4861 18.2003C27.235 14.2273 22.7318 13.1678 19.0237 16.0813C15.3155 18.9949 11.4747 22.0411 7.89882 25.0872C6.83935 25.8819 6.04475 27.2062 5.64725 28.5305C4.59396 32.74 3.66645 36.9799 2.86594 41.2446C2.78411 41.7363 3.05719 42.2786 3.34003 42.8404C3.51426 43.1864 3.69221 43.5398 3.79317 43.8933C4.06718 43.665 4.38845 43.4682 4.70267 43.2757C5.29967 42.9099 5.87122 42.5598 6.04475 42.0392C7.10422 39.3905 8.16369 36.6092 8.56119 33.6957C9.22316 29.59 12.1371 28.0008 15.5804 26.1467C15.0616 28.222 14.5834 30.2364 14.114 32.2137L14.114 32.2138L14.1139 32.2141C13.3852 35.2838 12.6777 38.2642 11.8722 41.2446C11.3425 43.4958 12.0045 44.8201 13.7263 46.2771C19.1563 50.7802 24.5863 55.4156 29.8836 60.1832C30.546 60.8456 31.0758 62.0373 31.3406 62.9645L34.1219 76.4732C34.6517 78.9896 35.976 80.314 37.6978 79.7842C39.8168 79.1219 39.6846 77.4004 39.5519 75.6786C39.3531 73.4238 39.121 71.1689 38.8889 68.914C38.6574 66.666 38.426 64.4179 38.2276 62.1699C37.9627 59.3886 37.1681 57.0048 35.314 54.8859C32.2679 51.31 29.2217 47.4692 26.3081 43.761C25.911 43.2313 25.3809 42.3045 25.5135 41.6421C26.0441 39.5198 26.5746 37.4307 27.1051 35.3417ZM13.1535 47.7879C12.5176 47.3413 11.8688 46.8857 11.2099 46.4097C10.947 47.7242 10.8148 48.5167 10.6831 49.3058L10.6831 49.3059L10.6801 49.3237C10.2826 55.416 8.82606 60.9782 5.51501 66.1434C4.3676 67.9972 3.33769 69.9688 2.3078 71.9402L2.30772 71.9404L2.30765 71.9405L2.30761 71.9406C1.79243 72.9268 1.27726 73.913 0.747394 74.8844C-0.0472096 76.4736 -0.576945 78.0628 1.1449 79.1223C2.86674 80.314 4.19107 79.2545 5.25055 77.6653C6.02449 76.5655 6.77335 75.4532 7.52025 74.3438L7.52042 74.3435L7.52062 74.3432C9.20211 71.8457 10.8737 69.3627 12.7995 67.0702C16.2428 63.0968 17.6997 58.4614 18.4943 53.4289C18.6266 52.7669 18.3617 51.7075 17.832 51.31C16.3945 50.0641 14.8183 48.9572 13.1538 47.7881L13.1536 47.788L13.1535 47.7879Z" fill="white"/>
<path d="M54.9146 39.5229C54.12 39.5229 53.1928 39.1254 52.6631 38.4635C51.7358 37.2714 52.0007 35.5499 53.1928 34.6227C57.0336 31.8414 59.2852 27.3386 59.2852 22.4384C59.2852 17.5381 57.0336 13.1676 53.1928 10.254C52.0007 9.32681 51.7358 7.60537 52.6631 6.41326C53.5903 5.22116 55.3117 4.95629 56.5039 5.88353C61.669 9.72431 64.8474 15.9489 64.8474 22.4384C64.8474 28.9278 61.8012 35.1524 56.5039 38.9932C56.1068 39.2581 55.4444 39.5229 54.9146 39.5229Z" fill="white"/>
<path d="M46.0414 34.6225C45.1142 34.6225 44.1873 34.0927 43.6576 33.1655C42.863 31.8412 43.3927 30.1193 44.7171 29.3247C47.2335 27.8677 48.8227 25.2191 48.8227 22.1729C48.8227 19.2593 47.3657 16.6107 44.9819 15.1537C43.6576 14.3591 43.2601 12.6372 44.0547 11.3129C44.8493 9.98857 46.5711 9.59107 47.8955 10.3857C51.8685 12.9021 54.3849 17.4049 54.3849 22.1729C54.3849 27.2054 51.7362 31.7085 47.498 34.0923C46.9682 34.4902 46.4385 34.6225 46.0414 34.6225Z" fill="white"/>
</svg>
