<svg width="25" height="27" viewBox="0 0 25 27" fill="none" xmlns="http://www.w3.org/2000/svg">
<path d="M12.42 16.74C13.6132 16.74 14.58 15.8515 14.58 14.7562V1.98499C14.58 0.888492 13.6132 0 12.42 0C11.2269 0 10.26 0.888492 10.26 1.98499V14.7562C10.26 15.8515 11.2268 16.74 12.42 16.74Z" fill="#060606"/>
<path d="M20.6862 5.92363C19.8534 5.20118 18.5751 5.27124 17.8316 6.08148C17.0883 6.89085 17.1612 8.13287 17.9944 8.85533C19.7174 10.3537 20.7953 12.51 20.7961 14.9297C20.7882 19.4252 17.0454 23.0627 12.4201 23.07C7.79492 23.0627 4.05163 19.4252 4.0443 14.9297C4.04489 12.4987 5.13294 10.3344 6.86964 8.83551C7.70579 8.11632 7.78262 6.87386 7.04251 6.06242C6.30164 5.25008 5.02452 5.17489 4.18896 5.89465L4.18837 5.89362C1.62509 8.09823 -0.000723027 11.3382 2.41219e-07 14.9297C0.0011838 21.5971 5.56024 26.9994 12.4201 27.0004C19.2799 26.9994 24.839 21.5971 24.84 14.9297C24.8407 11.3537 23.2302 8.12638 20.6862 5.92363Z" fill="#060606"/>
</svg>
