<?xml version="1.0" encoding="UTF-8"?>
<svg width="48px" height="48px" viewBox="0 0 48 48" version="1.1" xmlns="http://www.w3.org/2000/svg" xmlns:xlink="http://www.w3.org/1999/xlink">
    <title>倒计时</title>
    <g id="免开发面板" stroke="none" stroke-width="1" fill="none" fill-rule="evenodd">
        <g id="切图-插座" transform="translate(-47.000000, -183.000000)" fill="#FFFFFF" fill-rule="nonzero">
            <g id="编组-2" transform="translate(47.000000, 183.000000)">
                <g id="Z-倒计时" transform="translate(3.000000, 3.000000)">
                    <path d="M21.1585524,0.5 C26.5602527,0.5 31.6107863,2.57378026 35.3854636,6.13376953 L38.1734794,3.77846532 L40.13991,14.6798765 L29.8639579,10.8022813 L33.0773824,8.08522166 C29.8789617,5.18317973 25.6634175,3.5 21.1585524,3.5 C11.4032256,3.5 3.5,11.3378201 3.5,21 C3.5,30.6621799 11.4032256,38.5 21.1585524,38.5 C26.2427855,38.5 30.974888,36.361076 34.3046411,32.6844057 C34.8607416,32.0703668 35.809327,32.0233984 36.4233659,32.5794988 C37.0374048,33.1355993 37.0843732,34.0841846 36.5282728,34.6982236 C32.6349067,38.9972279 27.0978358,41.5 21.1585524,41.5 C9.75192654,41.5 0.5,32.3246406 0.5,21 C0.5,9.67535941 9.75192654,0.5 21.1585524,0.5 Z M20.5,10 C21.2796961,10 21.9204487,10.5948881 21.9931334,11.35554 L22,11.5 L22,22.871 L30.7070683,28.6769366 C31.3558084,29.1094435 31.55895,29.9598488 31.1974839,30.6330625 L31.1230634,30.7570683 C30.6905565,31.4058084 29.8401512,31.60895 29.1669375,31.2474839 L29.0429317,31.1730634 L19,24.4775664 L19,11.5 C19,10.6715729 19.6715729,10 20.5,10 Z" id="形状结合"></path>
                </g>
            </g>
        </g>
    </g>
</svg>