<svg xmlns="http://www.w3.org/2000/svg" viewBox="0 0 48 48" class="design-iconfont">
  <g fill="none" fill-rule="evenodd">
    <rect stroke="#FFF" stroke-width="2" x="7" y="14" width="34" height="24" rx="4"/>
    <path d="M25.8479983,23.3567973 L29.0437507,28.4700011 C29.336461,28.9383376 29.1940878,29.555288 28.7257513,29.8479983 C28.5668197,29.9473306 28.3831721,30 28.1957524,30 L21.8042476,30 C21.2519629,30 20.8042476,29.5522847 20.8042476,29 C20.8042476,28.8125803 20.8569171,28.6289327 20.9562493,28.4700011 L24.1520017,23.3567973 C24.444712,22.8884608 25.0616624,22.7460876 25.5299989,23.0387979 C25.6587681,23.1192786 25.7675176,23.2280282 25.8479983,23.3567973 Z" fill="#FFF" transform="rotate(90 25 26)"/>
    <rect stroke="#FFF" fill="#06F" transform="rotate(-30 16.866025 11.196152)" x="16.3660254" y="7.69615242" width="1" height="7" rx=".5"/>
    <rect stroke="#FFF" fill="#06F" transform="scale(-1 1) rotate(-30 0 125.88972775)" x="30.2320508" y="7.69615242" width="1" height="7" rx=".5"/>
  </g>
</svg>
