<svg xmlns="http://www.w3.org/2000/svg" viewBox="0 0 48 48" class="design-iconfont">
  <g fill="none" fill-rule="evenodd">
    <rect stroke="#FFF" stroke-width="2" x="11" y="10" width="26" height="30" rx="4"/>
    <rect fill="#FFF" x="17" y="7" width="14" height="5" rx="1"/>
    <rect fill="#FFF" x="14" y="15" width="8" height="2" rx="1"/>
    <rect fill="#FFF" x="14" y="20" width="8" height="2" rx="1"/>
    <rect fill="#FFF" x="14" y="25" width="15" height="2" rx="1"/>
    <path d="M4,7.18120314 L3.49724487,6.72525627 C1.71160753,5.10432327 0.532742797,4.03467249 0.532742797,2.72578392 C0.532742797,1.65613315 1.37008708,0.818796859 2.43972986,0.818796859 C3.04303282,0.818796859 3.62206423,1.09964645 3.999992,1.54172272 C4.37791977,1.09964645 4.95695118,0.818796859 5.56025414,0.818796859 C6.62990491,0.818796859 7.4672412,1.65614114 7.4672412,2.72578392 C7.4672412,4.03467249 6.28837648,5.10432327 4.50273913,6.72526427 L4,7.18120314 Z" fill="#FFF" transform="translate(26 15)" fill-rule="nonzero"/>
  </g>
</svg>
