<?xml version="1.0" encoding="UTF-8"?>
<svg width="260px" height="260px" viewBox="0 0 260 260" version="1.1" xmlns="http://www.w3.org/2000/svg" xmlns:xlink="http://www.w3.org/1999/xlink">
    <title>3插_disabled@2x</title>
    <g id="排插" stroke="none" stroke-width="1" fill="none" fill-rule="evenodd" opacity="0.106705735">
        <g transform="translate(-70.000000, -866.000000)" id="大按妞2">
            <g transform="translate(40.000000, 256.000000)">
                <g id="3插_disabled@2x" transform="translate(160.000000, 740.000000) rotate(-90.000000) translate(-160.000000, -740.000000) translate(30.000000, 610.000000)">
                    <rect id="矩形" stroke="#000000" stroke-width="6" x="3" y="3" width="254" height="254" rx="32"></rect>
                    <g id="编组-3" transform="translate(65.000000, 73.000000)">
                        <path d="M29.0044843,4.73469388 L29.0044843,40.8367347 L20.1255605,40.8367347 L20.1255605,36.1020408 L13.0224215,36.1020408 C5.80354099,35.9414319 0,30.0412131 0,22.7857143 C0,15.4313102 5.96284436,9.46938776 13.3183857,9.46938776 L20.1255605,9.46938776 L20.1255605,4.73469388 L29.0044843,4.73469388 Z" id="形状结合" fill="#000000"></path>
                        <path d="M132,4.73469388 L132,40.8367347 L123.121076,40.8367347 L123.121076,36.1020408 L116.017937,36.1020408 C108.799057,35.9414319 102.995516,30.0412131 102.995516,22.7857143 C102.995516,15.4313102 108.95836,9.46938776 116.313901,9.46938776 L123.121076,9.46938776 L123.121076,4.73469388 L132,4.73469388 Z" id="形状结合备份" fill="#000000" transform="translate(117.497758, 22.785714) scale(-1, 1) translate(-117.497758, -22.785714) "></path>
                        <rect id="矩形" stroke="#000000" fill="#000000" x="62.6524664" y="0.5" width="6.69506726" height="46.3469388" rx="3.34753363"></rect>
                        <line x1="5.95049748" y1="73.5461177" x2="34.8503538" y2="115.611607" id="路径-4" stroke="#000000" stroke-width="13"></line>
                        <line x1="98.2600897" y1="73.5461177" x2="127.159946" y2="115.611607" id="路径-4备份" stroke="#000000" stroke-width="13" transform="translate(112.710018, 94.578862) scale(-1, 1) translate(-112.710018, -94.578862) "></line>
                    </g>
                </g>
            </g>
        </g>
    </g>
</svg>