<?xml version="1.0" encoding="UTF-8"?>
<svg xmlns="http://www.w3.org/2000/svg" xmlns:xlink="http://www.w3.org/1999/xlink" width="24px" height="24px" viewBox="0 0 24 24" version="1.1">
  <title>icon-制冷</title>
  <g id="页面-1" stroke="none" stroke-width="1" fill="none" fill-rule="evenodd">
    <g id="免开发面板-空调（未开启）" transform="translate(-129.000000, -704.000000)">
      <g id="模式" transform="translate(117.000000, 692.000000)">
        <g id="icon-制冷" transform="translate(12.000000, 12.000000)">
          <rect id="矩形" fill="#000000" opacity="0" x="0" y="0" width="24" height="24"></rect>
          <path d="M12.0372399,0.25 C12.4169357,0.25 12.7307309,0.532153882 12.7803933,0.898229443 L12.7872399,1 L12.787,5.222 L15.0052038,3.00520382 C15.2714704,2.73893726 15.6881341,2.71473121 15.9817456,2.93258567 L16.065864,3.00520382 C16.3321306,3.27147038 16.3563366,3.68813407 16.1384821,3.98174556 L16.065864,4.06586399 L12.787,7.344 L12.787,11.212 L16.726,11.212 L20.0052038,7.93413601 C20.298097,7.64124279 20.7729708,7.64124279 21.065864,7.93413601 C21.3321306,8.20040257 21.3563366,8.61706625 21.1384821,8.91067775 L21.065864,8.99479618 L18.846,11.212 L23,11.2127601 C23.4142136,11.2127601 23.75,11.5485465 23.75,11.9627601 C23.75,12.3424559 23.4678461,12.6562511 23.1017706,12.7059135 L23,12.7127601 L18.772,12.712 L21.065864,15.0052038 C21.3321306,15.2714704 21.3563366,15.6881341 21.1384821,15.9817456 L21.065864,16.065864 C20.7995974,16.3321306 20.3829337,16.3563366 20.0893223,16.1384821 L20.0052038,16.065864 L16.651,12.712 L12.787,12.712 L12.787,16.726 L16.065864,20.0052038 C16.3587572,20.298097 16.3587572,20.7729708 16.065864,21.065864 C15.7995974,21.3321306 15.3829337,21.3563366 15.0893223,21.1384821 L15.0052038,21.065864 L12.787,18.846 L12.7872399,23 C12.7872399,23.4142136 12.4514535,23.75 12.0372399,23.75 C11.6575441,23.75 11.3437489,23.4678461 11.2940865,23.1017706 L11.2872399,23 L11.287,18.772 L8.99479618,21.065864 C8.72852962,21.3321306 8.31186593,21.3563366 8.01825444,21.1384821 L7.93413601,21.065864 C7.66786945,20.7995974 7.64366339,20.3829337 7.86151785,20.0893223 L7.93413601,20.0052038 L11.287,16.651 L11.287,12.712 L7.419,12.712 L4.06586399,16.065864 C3.77297077,16.3587572 3.29809704,16.3587572 3.00520382,16.065864 C2.73893726,15.7995974 2.71473121,15.3829337 2.93258567,15.0893223 L3.00520382,15.0052038 L5.298,12.712 L1,12.7127601 C0.585786438,12.7127601 0.25,12.3769737 0.25,11.9627601 C0.25,11.5830643 0.532153882,11.2692691 0.898229443,11.2196067 L1,11.2127601 L5.222,11.212 L3.00520382,8.99479618 C2.73893726,8.72852962 2.71473121,8.31186593 2.93258567,8.01825444 L3.00520382,7.93413601 C3.27147038,7.66786945 3.68813407,7.64366339 3.98174556,7.86151785 L4.06586399,7.93413601 L7.344,11.212 L11.287,11.212 L11.287,7.419 L7.93413601,4.06586399 C7.64124279,3.77297077 7.64124279,3.29809704 7.93413601,3.00520382 C8.20040257,2.73893726 8.61706625,2.71473121 8.91067775,2.93258567 L8.99479618,3.00520382 L11.287,5.296 L11.2872399,1 C11.2872399,0.585786438 11.6230263,0.25 12.0372399,0.25 Z" id="形状结合" fill="#FFFFFF" fill-rule="nonzero"></path>
        </g>
      </g>
    </g>
  </g>
</svg>
