<?xml version="1.0" encoding="UTF-8"?>
<svg xmlns="http://www.w3.org/2000/svg" xmlns:xlink="http://www.w3.org/1999/xlink" width="24px" height="24px" viewBox="0 0 24 24" version="1.1">
  <title>icon-制热</title>
  <g id="页面-1" stroke="none" stroke-width="1" fill="none" fill-rule="evenodd">
    <g id="免开发面板-空调（制热）" transform="translate(-129.000000, -704.000000)">
      <g id="模式" transform="translate(117.000000, 692.000000)">
        <g id="icon-制热" transform="translate(12.000000, 12.000000)">
          <rect id="矩形" fill="#000000" opacity="0" x="0" y="0" width="24" height="24"></rect>
          <path d="M12.0002321,20.25 C12.3799279,20.25 12.6937231,20.5321539 12.7433855,20.8982294 L12.7502321,21 L12.7502321,23 C12.7502321,23.4142136 12.4144457,23.75 12.0002321,23.75 C11.6205363,23.75 11.3067411,23.4678461 11.2570787,23.1017706 L11.2502321,23 L11.2502321,21 C11.2502321,20.5857864 11.5860185,20.25 12.0002321,20.25 Z M18.8104048,17.7610128 L18.8945232,17.8336309 L20.3087368,19.2478445 C20.60163,19.5407377 20.60163,20.0156115 20.3087368,20.3085047 C20.0424702,20.5747712 19.6258065,20.5989773 19.3321951,20.3811228 L19.2480766,20.3085047 L17.8338631,18.8942911 C17.5409698,18.6013979 17.5409698,18.1265242 17.8338631,17.8336309 C18.1001296,17.5673644 18.5167933,17.5431583 18.8104048,17.7610128 Z M6.16660117,17.8336309 C6.43286773,18.0998975 6.45707378,18.5165612 6.23921932,18.8101727 L6.16660117,18.8942911 L4.7523876,20.3085047 C4.45949438,20.6013979 3.98462065,20.6013979 3.69172743,20.3085047 C3.42546087,20.0422381 3.40125482,19.6255744 3.61910928,19.3319629 L3.69172743,19.2478445 L5.10594099,17.8336309 C5.39883421,17.5407377 5.87370795,17.5407377 6.16660117,17.8336309 Z M12,4.75 C16.0040644,4.75 19.25,7.99593556 19.25,12 C19.25,16.0040644 16.0040644,19.25 12,19.25 C7.99593556,19.25 4.75,16.0040644 4.75,12 C4.75,7.99593556 7.99593556,4.75 12,4.75 Z M12,6.25 C8.82436269,6.25 6.25,8.82436269 6.25,12 C6.25,15.1756373 8.82436269,17.75 12,17.75 C15.1756373,17.75 17.75,15.1756373 17.75,12 C17.75,8.82436269 15.1756373,6.25 12,6.25 Z M3.00023211,11.25 C3.41444567,11.25 3.75023211,11.5857864 3.75023211,12 C3.75023211,12.3796958 3.46807823,12.693491 3.10200267,12.7431534 L3.00023211,12.75 L1.00023211,12.75 C0.586018548,12.75 0.25023211,12.4142136 0.25023211,12 C0.25023211,11.6203042 0.532385992,11.306509 0.898461553,11.2568466 L1.00023211,11.25 L3.00023211,11.25 Z M23.0002321,11.25 C23.4144457,11.25 23.7502321,11.5857864 23.7502321,12 C23.7502321,12.3796958 23.4680782,12.693491 23.1020027,12.7431534 L23.0002321,12.75 L21.0002321,12.75 C20.5860185,12.75 20.2502321,12.4142136 20.2502321,12 C20.2502321,11.6203042 20.532386,11.306509 20.8984616,11.2568466 L21.0002321,11.25 L23.0002321,11.25 Z M4.66826917,3.61887717 L4.7523876,3.69149532 L6.16660117,5.10570888 C6.45949438,5.3986021 6.45949438,5.87347584 6.16660117,6.16636906 C5.9003346,6.43263562 5.48367092,6.45684167 5.19005943,6.23898721 L5.10594099,6.16636906 L3.69172743,4.75215549 C3.39883421,4.45926227 3.39883421,3.98438854 3.69172743,3.69149532 C3.95799399,3.42522876 4.37465768,3.40102271 4.66826917,3.61887717 Z M20.3087368,3.69149532 C20.5750034,3.95776188 20.5992094,4.37442557 20.3813549,4.66803706 L20.3087368,4.75215549 L18.8945232,6.16636906 C18.60163,6.45926227 18.1267563,6.45926227 17.8338631,6.16636906 C17.5675965,5.90010249 17.5433904,5.48343881 17.7612449,5.18982732 L17.8338631,5.10570888 L19.2480766,3.69149532 C19.5409698,3.3986021 20.0158436,3.3986021 20.3087368,3.69149532 Z M12.0002321,0.25 C12.3799279,0.25 12.6937231,0.532153882 12.7433855,0.898229443 L12.7502321,1 L12.7502321,3 C12.7502321,3.41421356 12.4144457,3.75 12.0002321,3.75 C11.6205363,3.75 11.3067411,3.46784612 11.2570787,3.10177056 L11.2502321,3 L11.2502321,1 C11.2502321,0.585786438 11.5860185,0.25 12.0002321,0.25 Z" id="形状结合" fill="#FFFFFF" fill-rule="nonzero"></path>
        </g>
      </g>
    </g>
  </g>
</svg>
