<?xml version="1.0" encoding="UTF-8"?>
<svg xmlns="http://www.w3.org/2000/svg" xmlns:xlink="http://www.w3.org/1999/xlink" width="24px" height="24px" viewBox="0 0 24 24" version="1.1">
  <title>icon-送风</title>
  <g id="页面-1" stroke="none" stroke-width="1" fill="none" fill-rule="evenodd">
    <g id="免开发面板-空调（送风）" transform="translate(-129.000000, -704.000000)">
      <g id="模式" transform="translate(117.000000, 692.000000)">
        <g id="icon-送风" transform="translate(12.000000, 12.004440)">
          <rect id="矩形" fill="#000000" opacity="0" x="0" y="-0.00443971789" width="24" height="24"></rect>
          <path d="M16.3694883,22.4520962 C12.9394407,21.3064001 10.6481721,16.7325096 11.4052252,15.9672299 C11.7048921,15.6643067 12.1893713,15.5275333 12.7824706,15.502056 L12.9840889,15.497596 C13.531908,15.4963463 14.1588613,15.5782042 14.8114367,15.7046584 L15.2787094,15.8015003 L15.7503401,15.9102809 C15.8290713,15.9292352 15.9078065,15.9485591 15.9864566,15.9681884 C16.4485741,16.0849631 16.9540915,16.1231 17.4793286,16.122181 L17.7966477,16.1172596 C18.0095188,16.1112763 18.2247873,16.1003108 18.4409377,16.0868962 L19.7771366,15.9948162 L20.0870191,15.9784831 L20.6184665,15.9646929 L20.9869947,15.9707573 L21.273596,15.9877901 C22.7775105,16.1107679 23.9225446,16.7746702 23.9962291,19.1704032 L24,19.4157934 L23.9963532,19.4019939 C23.9921497,22.4521945 19.799536,23.5977924 16.3694883,22.4520962 Z M10.7716777,12.9398934 C10.9695671,13.6784266 10.4145508,14.6558467 9.59423606,15.6599467 L9.29449134,16.0150973 L9.13784582,16.1928555 L8.8139859,16.5474421 L8.48000409,16.8990613 C7.91483188,17.4840267 7.4863287,18.2921132 7.0816726,19.123462 L6.5617147,20.1973569 L6.42248388,20.4721801 L6.2803327,20.7403593 L6.09702368,21.0635595 L5.90565938,21.3701922 L5.74546439,21.6012602 C5.2506522,22.27848 4.65458627,22.756184 3.83387418,22.8157883 L3.68668555,22.821922 C3.08840224,22.8287407 2.37456787,22.6208261 1.50178287,22.1212979 C-1.12469267,20.6049016 -0.0338368097,16.3902873 2.67597633,13.9916372 C4.11736629,12.7157595 6.23686341,12.2046286 7.94730435,12.1625856 L8.15052422,12.1597731 C9.55834488,12.1555823 10.6468514,12.4740352 10.7716777,12.9398934 Z M12.91,16.987 L12.9368016,17.0577504 C13.056257,17.3550782 13.2274228,17.6913736 13.4393779,18.0363661 L13.5713583,18.2441631 C14.442322,19.5716711 15.6463704,20.6290984 16.844706,21.0293636 C19.622853,21.9573135 22.350633,21.0380816 22.4907177,19.520922 L22.4963546,19.3999267 L22.496,19.171 L22.4934886,19.0568588 C22.4477947,17.8832464 22.1521653,17.5883519 21.3088403,17.4969014 L21.1846074,17.4851481 L20.956089,17.4704389 L20.687163,17.4646872 L20.5870612,17.4646049 L20.1659706,17.4764039 L19.8802599,17.4912672 L18.5338512,17.5840158 C17.4165655,17.6533562 16.611718,17.6374795 15.8505422,17.4763147 L15.4132194,17.3719066 L14.9743041,17.2702881 L14.5260791,17.1772653 C13.9565178,17.0668973 13.4843484,17.0148057 13.1366623,16.9956342 L12.91,16.987 Z M7.72003201,13.672885 C6.13570883,13.7625849 4.61720246,14.2765511 3.67018768,15.1148218 C1.42481142,17.1023655 0.886846999,20.0342137 2.24688374,20.8194436 C3.49634512,21.534558 3.9331911,21.4905377 4.43979578,20.8431989 L4.51273771,20.7466346 L4.63689616,20.5700422 L4.82677793,20.2649681 L4.9550065,20.0378563 L5.08440485,19.794283 L5.21163917,19.5436781 L5.73295794,18.4669799 L6.01863978,17.8960396 C6.43334675,17.0939263 6.79585845,16.5243942 7.24084842,16.0287314 L7.70642394,15.535856 L8.14819165,15.0476279 L8.43260774,14.7109369 C8.63312849,14.465491 8.79618998,14.2432103 8.92533448,14.0521041 L9.09405625,13.789827 L9.13,13.728 L9.06296729,13.7174248 C8.68315233,13.6628772 8.21725695,13.6447335 7.72003201,13.672885 Z M17.2105217,6.47825223 C17.9007464,9.87491744 15.3439757,13.9376752 14.1932484,14.0327337 L14.1202422,14.0332603 C14.0966032,14.031529 14.0736764,14.027875 14.0515098,14.0222506 C13.2091764,13.8085268 12.597414,12.6378475 12.1086005,11.2183776 L11.9581998,10.7626798 L11.8152198,10.2953978 C11.7919663,10.2168275 11.7689907,10.1379809 11.7462772,10.0589614 C11.5407229,9.33789555 11.1117123,8.62078813 10.6401169,7.91058325 L9.93927928,6.87459509 L9.66680524,6.45804489 L9.5036428,6.19530748 L9.31379008,5.86812361 L9.14350874,5.54237874 C8.44346329,4.11236692 8.43325215,2.72612071 10.7164298,1.40974164 L10.7578376,1.39864643 C11.1718709,1.15885141 11.5970636,1.03206268 12.022507,1.00240795 L12.1820387,0.995809582 C14.4150505,0.966308624 16.6173874,3.5593788 17.2105217,6.47825223 Z M11.6226778,2.63820919 L11.509607,2.69666141 L11.3378203,2.79615481 L11.299,2.806 C10.1636357,3.48963334 10.0348176,3.89333338 10.4180804,4.73132668 L10.4762626,4.85407124 L10.6447856,5.17556781 L10.7779204,5.40396896 L10.9221019,5.63692958 L11.1816921,6.03411287 L11.8897125,7.08081773 C12.489861,7.98461873 12.8732278,8.67855413 13.1131438,9.40200568 L13.3826237,10.2925559 L13.5268627,10.7299799 C13.662239,11.1231002 13.797162,11.4551286 13.9199873,11.7241836 L14.0608254,12.0167018 C14.0830822,12.0603768 14.1046688,12.1015028 14.1254919,12.1400647 L14.177,12.232 L14.2483037,12.1455508 C14.4470354,11.8937894 14.6535424,11.5777509 14.847111,11.2218327 L14.9615338,11.0036915 C15.6773504,9.58822155 15.9924001,8.01626744 15.7405641,6.77695728 C15.1748969,3.99325198 13.1236744,2.11716057 11.7427314,2.59032594 L11.6226778,2.63820919 Z" id="形状" fill="#FFFFFF" fill-rule="nonzero"></path>
        </g>
      </g>
    </g>
  </g>
</svg>
