<?xml version="1.0" encoding="UTF-8"?>
<svg width="48px" height="48px" viewBox="0 0 48 48" version="1.1" xmlns="http://www.w3.org/2000/svg" xmlns:xlink="http://www.w3.org/1999/xlink">
    <title>编组</title>
    <g id="免开发-空气净化器" stroke="none" stroke-width="1" fill="none" fill-rule="evenodd">
        <g id="1.1-免开发面板-空气净化器" transform="translate(-446.000000, -1424.000000)">
            <g id="Group-18" transform="translate(0.000000, 1376.000000)">
                <g id="编组-7" transform="translate(422.000000, 24.000000)">
                    <g id="编组" transform="translate(24.000000, 24.000000)">
                        <polygon id="路径" points="0 0 48 0 48 48 0 48"></polygon>
                        <path d="M31.8029703,19.6900683 C30.8030664,18.7427915 30.1598958,17.4800603 29.9816446,16.1142758 L29.052538,9.00649481 L22.7585899,12.4324314 C21.5484384,13.0918399 20.1480288,13.3141142 18.793172,13.0618262 L11.7476389,11.7477052 L13.0617599,18.7932383 C13.3140479,20.1480951 13.0917736,21.5485047 12.4323651,22.7586562 L9.00642848,29.0526043 L16.1142095,29.9817109 C17.4791731,30.1604696 18.7410133,30.8036011 19.6876965,31.8030366 L24.6168031,37.0064948 L27.6969184,30.5350251 C28.2881209,29.2913757 29.2894848,28.2891977 30.5326533,27.6969847 L37.0064285,24.6168694 L31.8029703,19.6900683 L31.8029703,19.6900683 Z M30.448,31.016 L26.022,40.316 C25.8520144,40.6729806 25.5170908,40.9233173 25.1265884,40.9852701 C24.736086,41.0472229 24.340127,40.9128399 24.068,40.626 L16.984,33.148 C16.7947467,32.9484283 16.5426814,32.8199244 16.27,32.784 L6.056,31.448 C5.66424935,31.3963859 5.32301581,31.1552257 5.14359346,30.8031743 C4.96417111,30.4511228 4.96955905,30.0333076 5.158,29.686 L10.082,20.638 C10.2128998,20.3960198 10.2566772,20.1164089 10.206,19.846 L8.32,9.72 C8.24729126,9.3308918 8.37115168,8.93095835 8.65105501,8.65105501 C8.93095835,8.37115168 9.3308918,8.24729126 9.72,8.32 L19.846,10.206 C20.1164089,10.2566772 20.3960198,10.2128998 20.638,10.082 L29.686,5.158 C30.0336008,4.96950427 30.4517499,4.96434882 30.8038924,5.14421728 C31.1560349,5.32408574 31.3969642,5.66588735 31.448,6.058 L32.784,16.27 C32.8199244,16.5426814 32.9484283,16.7947467 33.148,16.984 L40.626,24.068 C40.9128399,24.340127 41.0472229,24.736086 40.9852701,25.1265884 C40.9233173,25.5170908 40.6729806,25.8520144 40.316,26.022 L31.016,30.448 C30.7670376,30.5664604 30.5664604,30.7670376 30.448,31.016 L30.448,31.016 Z M34.179257,32.8568794 L42.665257,41.3408794 L40.526,43.356 L32.042,34.87 L34.179257,32.8568794 Z" id="形状" fill="#FFFFFF" fill-rule="nonzero"></path>
                    </g>
                </g>
            </g>
        </g>
    </g>
</svg>