<?xml version="1.0" encoding="UTF-8"?>
<svg xmlns="http://www.w3.org/2000/svg" xmlns:xlink="http://www.w3.org/1999/xlink" width="24px" height="24px" viewBox="0 0 24 24" version="1.1">
  <title>icon-除湿</title>
  <g id="页面-1" stroke="none" stroke-width="1" fill="none" fill-rule="evenodd">
    <g id="免开发面板-空调（除湿）" transform="translate(-129.000000, -704.000000)" fill="#FFFFFF" fill-rule="nonzero">
      <g id="模式" transform="translate(117.000000, 692.000000)">
        <g id="icon-除湿" transform="translate(12.000000, 12.000000)">
          <path d="M19.8734796,9.00670854 C21.1172401,11.0905363 21.75,12.9163802 21.75,14.5 C21.75,19.6086339 17.6086339,23.75 12.5,23.75 C10.4171495,23.75 8.43754976,23.0587347 6.82704335,21.8066648 C6.50002921,21.5524314 6.44102878,21.0812371 6.6952622,20.754223 C6.94949562,20.4272088 7.42068986,20.3682084 7.74770399,20.6224418 C9.09722448,21.6716112 10.753576,22.25 12.5,22.25 C16.7802068,22.25 20.25,18.7802068 20.25,14.5 C20.25,13.2269316 19.7024068,11.6468382 18.5854613,9.77547955 C18.373171,9.41980311 18.4894085,8.95937514 18.8450849,8.74708489 C19.2007614,8.53479464 19.6611893,8.65103211 19.8734796,9.00670854 Z M22.1458435,1.96966991 C22.41211,2.23593648 22.4363161,2.65260016 22.2184616,2.94621165 L22.1458435,3.03033009 L2.62212696,22.5540466 C2.32923374,22.8469398 1.85436001,22.8469398 1.56146679,22.5540466 C1.29520023,22.28778 1.27099418,21.8711164 1.48884864,21.5775049 L1.56146679,21.4933864 L21.0851833,1.96966991 C21.3780765,1.6767767 21.8529503,1.6767767 22.1458435,1.96966991 Z M18,14.25 C18.4142136,14.25 18.75,14.5857864 18.75,15 C18.75,18.1756373 16.1756373,20.75 13,20.75 C12.5857864,20.75 12.25,20.4142136 12.25,20 C12.25,19.5857864 12.5857864,19.25 13,19.25 C15.3472102,19.25 17.25,17.3472102 17.25,15 C17.25,14.5857864 17.5857864,14.25 18,14.25 Z M13.0439694,0.639556691 L13.9210945,1.56835447 L14.7005771,2.40373545 L15.3825157,3.14581945 L15.9670085,3.7947263 C16.2423041,4.10421815 16.2145825,4.57828205 15.9050907,4.85357765 C15.5955988,5.12887326 15.1215349,5.10115172 14.8462393,4.79165987 L14.057013,3.91881115 L13.0935324,2.87890247 L12.492,2.239 L12.3433262,2.39359461 C11.7664862,2.99462439 11.2226584,3.57996565 10.7117925,4.1494544 L10.114572,4.82522118 C9.92077029,5.04793338 9.73223929,5.26809867 9.5489758,5.48570657 L9.01498467,6.13084758 C8.66952133,6.5558128 8.34511523,6.97050644 8.04174074,7.37484455 L7.60244951,7.97357455 C5.76717914,10.5343247 4.81995292,12.6557793 4.75373335,14.3148773 L4.75,14.5 C4.75,14.9019675 4.78053821,15.299815 4.84088967,15.6913169 C4.9039968,16.1006949 4.62328878,16.4837198 4.21391076,16.546827 C3.80453273,16.6099341 3.42150784,16.3292261 3.35840071,15.919848 C3.28640249,15.4527932 3.25,14.9785467 3.25,14.5 C3.25,11.7593824 5.15743576,8.24010827 8.95180049,3.87497999 L9.56658858,3.17871016 C9.98689721,2.70983103 10.4281017,2.23154037 10.8901781,1.7437598 L11.5989436,1.00496172 C11.7196792,0.880639207 11.8417186,0.75572112 11.9650613,0.630206241 C12.2625549,0.327473532 12.7517674,0.331713335 13.0439694,0.639556691 Z" id="形状结合"></path>
        </g>
      </g>
    </g>
  </g>
</svg>
