<?xml version="1.0" encoding="UTF-8"?>
<svg xmlns="http://www.w3.org/2000/svg" xmlns:xlink="http://www.w3.org/1999/xlink" width="24px" height="24px" viewBox="0 0 24 24" version="1.1">
  <title>icon-ECO</title>
  <g id="页面-1" stroke="none" stroke-width="1" fill="none" fill-rule="evenodd">
    <g id="免开发面板-空调（ECO）" transform="translate(-129.000000, -704.000000)">
      <g id="模式" transform="translate(117.000000, 692.000000)">
        <g id="icon-ECO" transform="translate(12.000000, 12.000000)">
          <rect id="矩形" fill="#000000" opacity="0" x="0" y="0" width="24" height="24"></rect>
          <path d="M6,6.25 L6,7.75 L1.75,7.75 L1.75,11.25 L6,11.25 L6,12.75 L1.75,12.75 L1.75,16.25 L6,16.25 L6,17.75 L0.25,17.75 L0.25,6.25 L6,6.25 Z M14,6.25 L14,7.75 L9.75,7.75 L9.75,16.25 L14,16.25 L14,17.75 L8.25,17.75 L8.25,6.25 L14,6.25 Z M22.75,6.25 L22.75,17.75 L16.25,17.75 L16.25,6.25 L22.75,6.25 Z M21.25,7.75 L17.75,7.75 L17.75,16.25 L21.25,16.25 L21.25,7.75 Z" id="形状结合" fill="#FFFFFF" fill-rule="nonzero"></path>
        </g>
      </g>
    </g>
  </g>
</svg>
