<?xml version="1.0" encoding="UTF-8"?>
<svg width="48px" height="48px" viewBox="0 0 48 48" version="1.1" xmlns="http://www.w3.org/2000/svg" xmlns:xlink="http://www.w3.org/1999/xlink">
    <title>编组</title>
    <g id="免开发-空气净化器" stroke="none" stroke-width="1" fill="none" fill-rule="evenodd">
        <g id="1.1-免开发面板-空气净化器" transform="translate(-632.000000, -1424.000000)">
            <g id="Group-18" transform="translate(0.000000, 1376.000000)">
                <g id="编组-7备份" transform="translate(608.000000, 24.000000)">
                    <g id="编组" transform="translate(24.000000, 24.000000)">
                        <polygon id="路径" points="0 0 48 0 48 48 0 48"></polygon>
                        <path d="M24,6 C21.8,6 20,7.8 20,10 C20,12.2 21.8,14 24,14 C26.2,14 28,12.2 28,10 C28,7.8 26.2,6 24,6 Z M24,34 C21.8,34 20,35.8 20,38 C20,40.2 21.8,42 24,42 C26.2,42 28,40.2 28,38 C28,35.8 26.2,34 24,34 Z M24,20 C21.8,20 20,21.8 20,24 C20,26.2 21.8,28 24,28 C26.2,28 28,26.2 28,24 C28,21.8 26.2,20 24,20 Z" id="形状" fill="#FFFFFF" fill-rule="nonzero"></path>
                    </g>
                </g>
            </g>
        </g>
    </g>
</svg>