<?xml version="1.0" encoding="UTF-8"?>
<svg width="48px" height="48px" viewBox="0 0 48 48" version="1.1" xmlns="http://www.w3.org/2000/svg" xmlns:xlink="http://www.w3.org/1999/xlink">
    <title>自然风-选中</title>
    <g id="免开发面板—风扇——3.22" stroke="none" stroke-width="1" fill="none" fill-rule="evenodd">
        <g id="免开发面板-风扇备份-3" transform="translate(-88.000000, -1412.000000)">
            <g id="编组-7" transform="translate(64.000000, 1388.000000)">
                <g id="自然风-选中" transform="translate(24.000000, 24.000000)">
                    <path d="M7,17 C11.2087907,17 15.060354,18.529472 18.0292011,21.0629269 L17.9713413,21.1686306 C17.4961094,22.0516024 17.0724146,22.9664235 16.7042832,23.9090678 C14.2581736,21.5557366 10.9570295,20.0832737 7.31264503,20.003422 L7,20 L3,20 L3,24 C3,31.0530063 8.21550416,36.8878664 15.0001804,37.8582481 L15.0004624,40.8836479 C6.55389893,39.894 0,32.7123725 0,24 L0,17 L7,17 Z" id="形状结合" fill="#0099CC" fill-rule="nonzero"></path>
                    <path d="M23,9.5 C29.4893458,9.5 35.3643458,12.1303271 39.6170094,16.3829906 C43.8696729,20.6356542 46.5,26.5106542 46.5,33 L46.5,33 L46.5,39.5 L40,39.5 C33.5106542,39.5 27.6356542,36.8696729 23.3829906,32.6170094 C19.1303271,28.3643458 16.5,22.4893458 16.5,16 L16.5,16 L16.5,9.5 Z" id="矩形备份-3" stroke="#0099CC" stroke-width="3" transform="translate(31.500000, 24.500000) scale(-1, 1) translate(-31.500000, -24.500000) "></path>
                    <path d="M16.9906698,21.7863043 C18.7736126,24.0840531 20.9984173,26.5662608 23.665084,29.2329275 C26.3317506,31.8995941 30.3569973,34.81117 35.7408238,37.9676549" id="路径-3备份" stroke="#0099CC" stroke-width="3" stroke-linecap="round" transform="translate(26.365747, 29.876980) scale(-1, 1) rotate(5.000000) translate(-26.365747, -29.876980) "></path>
                </g>
            </g>
        </g>
    </g>
</svg>