<?xml version="1.0" encoding="UTF-8"?>
<svg width="41px" height="36px" viewBox="0 0 41 36" version="1.1" xmlns="http://www.w3.org/2000/svg" xmlns:xlink="http://www.w3.org/1999/xlink">
    <title>正常风-选中</title>
    <g id="免开发面板—风扇——3.22" stroke="none" stroke-width="1" fill="none" fill-rule="evenodd">
        <g id="免开发面板-风扇备份-3" transform="translate(-267.000000, -1418.000000)" fill="#0099CC" fill-rule="nonzero">
            <g id="编组-7" transform="translate(239.333333, 1388.000000)">
                <g id="编组-2" transform="translate(24.000000, 24.000000)">
                    <g id="正常风-选中" transform="translate(24.000000, 24.000000) scale(-1, 1) translate(-24.000000, -24.000000) translate(4.000000, 6.000000)">
                        <path d="M31.61875,14.809375 L1.51875,14.809375 C0.718749984,14.809375 0.01875,14.109375 0.01875,13.309375 C0.01875,12.509375 0.718749984,11.809375 1.51875,11.809375 L31.61875,11.809375 C34.01875,11.809375 36.01875,9.80937497 36.01875,7.40937502 C36.01875,5.009375 34.01875,3.009375 31.61875,3.009375 L27.61875,3.009375 C26.81875,3.009375 26.11875,2.30937502 26.11875,1.509375 C26.11875,0.709374984 26.81875,0.009375 27.61875,0.009375 L31.61875,0.009375 C35.71875,0.009375 39.01875,3.309375 39.01875,7.40937502 C39.01875,11.409375 35.71875,14.809375 31.61875,14.809375 Z M32.81875,35.609375 L29.21875,35.609375 C28.41875,35.609375 27.71875,34.909375 27.71875,34.109375 C27.71875,33.309375 28.41875,32.609375 29.21875,32.609375 L32.81875,32.609375 C34.91875,32.609375 36.61875,30.909375 36.61875,28.809375 C36.61875,26.709375 34.91875,25.009375 32.81875,25.009375 L16.21875,25.009375 C15.41875,25.009375 14.71875,24.309375 14.71875,23.509375 C14.71875,22.709375 15.41875,22.009375 16.21875,22.009375 L32.81875,22.009375 C36.61875,22.009375 39.61875,25.109375 39.61875,28.809375 C39.61875,32.509375 36.61875,35.609375 32.81875,35.609375 Z" id="形状"></path>
                    </g>
                </g>
            </g>
        </g>
    </g>
</svg>