<?xml version="1.0" encoding="UTF-8"?>
<svg width="48px" height="48px" viewBox="0 0 48 48" version="1.1" xmlns="http://www.w3.org/2000/svg" xmlns:xlink="http://www.w3.org/1999/xlink">
    <!-- Generator: Sketch 57.1 (83088) - https://sketch.com -->
    <title>画板</title>
    <desc>Created with Sketch.</desc>
    <g id="画板" stroke="none" stroke-width="1" fill="none" fill-rule="evenodd">
        <g id="编组-2">
            <path d="M40.8136358,29.387077 L39.1239501,29.6689589 C38.9973258,30.0066726 38.857086,30.3430244 38.7045922,30.6780146 L39.7026096,32.0806155 C40.7877663,33.6044121 40.6148493,35.6688228 39.291421,36.9924423 L36.9917601,39.289712 C35.6955628,40.5847348 33.5443111,40.7549534 32.0765583,39.6995983 L30.6850525,38.7055219 C30.3555569,38.8553142 30.0178921,38.9955743 29.6747811,39.1235787 L29.3874936,40.8175938 C29.0784214,42.6600395 27.4962983,44 25.6241647,44 L22.3686945,44 C20.4951993,44 18.9130762,42.6600395 18.6053655,40.8121468 L18.3235243,39.1222169 C18.0062827,39.0037448 17.6972105,38.8771022 17.3935844,38.7395656 L15.9653166,39.7581535 C14.4989254,40.810785 12.3517583,40.6364812 11.0610073,39.3428202 L8.76270797,37.0469122 C7.43655658,35.7328249 7.26091641,33.664329 8.35151934,32.1350854 L9.33592125,30.7665282 C9.18342745,30.4356233 9.04182607,30.1006332 8.91247866,29.7601961 L7.1792233,29.4646967 C5.33840536,29.1528563 4,27.5705045 4,25.7021856 L4,22.4544155 C4,20.5806496 5.33976691,18.9969361 7.18466951,18.6878192 L8.83895487,18.4100225 C8.96557918,18.0655001 9.1030959,17.7264247 9.25286659,17.3941581 L8.23578745,15.9643222 C7.14926916,14.4391639 7.32354778,12.3747532 8.64833762,11.0524954 L10.9548063,8.75250221 C12.2087954,7.47382039 14.3981706,7.2831756 15.8727311,8.34806291 L17.2424522,9.33533056 C17.5733092,9.18281473 17.9096125,9.04119289 18.2486389,8.91182679 L18.5440956,7.17968271 C18.8531679,5.33859876 20.435291,4 22.3074246,4 L25.5560871,4 C27.4254976,4 29.0089823,5.33723701 29.3194161,7.18240621 L29.5985342,8.83829237 C29.9702378,8.97582896 30.3392183,9.12698305 30.7041142,9.29447811 L32.1051509,8.29631647 C33.5483958,7.25185538 35.7091784,7.4125417 37.0067372,8.70756451 L39.3077596,11.0075577 C40.633911,12.3202832 40.8081896,14.3874174 39.7189482,15.9180227 L38.7209308,17.3138149 C38.8707015,17.6460816 39.0109413,17.9824334 39.1389272,18.3255941 L40.8340591,18.612923 C42.6939388,18.9261251 44.0241748,20.5166474 43.9996669,22.397222 L43.9996669,25.6245659 C43.9996669,27.4969701 42.6599,29.0793218 40.8136358,29.387077 Z M40.9999148,22.3694324 C41.0053815,21.9894678 40.7470816,21.684676 40.3862818,21.6259045 C40.3849152,21.6259045 40.3849152,21.6259045 40.3821818,21.6245377 L37.7800499,21.183068 C37.2087836,21.0860267 36.7400172,20.6759929 36.5691839,20.1224473 C36.3259174,19.3365493 36.0115842,18.5752533 35.6330178,17.8590609 C35.3596846,17.3437852 35.4020512,16.7205338 35.7409844,16.2462615 L37.2743835,14.1017849 C37.4875834,13.8024602 37.4561501,13.39516 37.1964836,13.1382055 L34.8827182,10.8256151 C34.621685,10.565927 34.2130519,10.5303907 33.9287854,10.7367744 L31.7653532,12.2771346 C31.2911201,12.6133623 30.6692871,12.6543657 30.1554207,12.3823766 C29.3969212,11.9819103 28.6083549,11.6579836 27.814322,11.4187972 C27.253989,11.2506834 26.8371559,10.7791446 26.7401226,10.2009969 L26.3068895,7.631452 C26.2453895,7.26515517 25.932423,7 25.5620566,7 L22.3011917,7 C21.9294585,7 21.6164921,7.26515517 21.5549921,7.63008522 L21.105359,10.2693359 C21.0083257,10.8406496 20.5983259,11.3080881 20.0461929,11.4803023 C19.2781267,11.7181219 18.5237271,12.0365814 17.8021275,12.4247467 C17.2841611,12.7035697 16.6527614,12.6625663 16.1730617,12.318138 L14.0437962,10.7846117 C13.7636297,10.5823283 13.3303966,10.6151311 13.0898634,10.8611513 L10.7624313,13.1833092 C10.5013981,13.4429973 10.4672314,13.8502975 10.6804313,14.1509889 L12.2302305,16.3269014 C12.5664303,16.7984403 12.608797,17.418958 12.3395638,17.9315002 C11.9650973,18.6476926 11.6548641,19.4089886 11.4197976,20.1935199 C11.2516977,20.7538993 10.7801979,21.170767 10.2034649,21.2678083 L7.63139966,21.7010773 C7.26513319,21.7625824 7,22.0769416 7,22.4487056 L7,25.708474 C7,26.0788712 7.26649986,26.3918636 7.63276632,26.4533687 L10.2690649,26.9044059 C10.8375979,27.0014472 11.3049977,27.4101142 11.4771976,27.9595594 C11.7204641,28.7345232 12.0388973,29.4903521 12.4242971,30.2079112 C12.7030969,30.7245538 12.6620969,31.3560058 12.3190638,31.8343785 L10.7924979,33.9556199 C10.5820314,34.252211 10.6148314,34.6581444 10.8758646,34.9150989 L13.1868966,37.2263226 C13.4506632,37.4887442 13.8579296,37.5229137 14.1476628,37.3151632 L16.3261283,35.7611352 C16.5926281,35.5725197 16.9055946,35.4768452 17.2185611,35.4768452 C17.4631943,35.4768452 17.7091942,35.5342499 17.9333274,35.6531597 C18.6125604,36.009889 19.3491933,36.3119473 20.1227262,36.5525004 C20.6775926,36.7247146 21.0875923,37.1948866 21.183259,37.7675671 L21.6178587,40.368548 C21.6793587,40.7334781 21.9923252,41 22.3626916,41 L25.6303899,41 C26.0007563,41 26.3150895,40.7334781 26.3752228,40.3671812 L26.8180226,37.7634668 C26.9150558,37.1921531 27.3250556,36.721981 27.879922,36.5511336 C28.6671216,36.3092137 29.4269878,35.9934877 30.1362874,35.6162566 C30.6501538,35.3429008 31.2774535,35.3852709 31.7516865,35.7242322 L33.897352,37.2591253 C34.1857186,37.4655089 34.6025517,37.4381733 34.8676848,37.1716514 L37.1759836,34.8658948 C37.4370168,34.60484 37.4725501,34.196173 37.2579835,33.8941148 L35.7232177,31.7414375 C35.3870179,31.2685319 35.3446513,30.6466474 35.6152511,30.1327384 C36.0088509,29.3837434 36.3245507,28.6251809 36.5514173,27.8775527 C36.7208838,27.31854 37.1923836,26.9044059 37.7691166,26.8087313 L40.3712485,26.3740955 C40.7361483,26.3125904 40.9999148,26.0009648 40.9999148,25.6305676 L40.9999148,22.3694324 Z M24,32 C19.5891365,32 16,28.4110066 16,24 C16,19.5889934 19.5891365,16 24,16 C28.4122563,16 32,19.5889934 32,24 C32,28.4110066 28.4122563,32 24,32 Z M24,19 C21.2438466,19 19,21.242268 19,24 C19,26.757732 21.2438466,29 24,29 C26.7575844,29 29,26.757732 29,24 C29,21.242268 26.7575844,19 24,19 Z" id="Shape" fill="#FFFFFF"></path>
            <rect id="矩形" x="0" y="0" width="48" height="48"></rect>
        </g>
    </g>
</svg>