<?xml version="1.0" encoding="UTF-8"?>
<svg width="40px" height="39px" viewBox="0 0 40 39" version="1.1" xmlns="http://www.w3.org/2000/svg" xmlns:xlink="http://www.w3.org/1999/xlink">
    <title>睡眠风-常态</title>
    <g id="免开发面板—风扇——3.22" stroke="none" stroke-width="1" fill="none" fill-rule="evenodd">
        <g id="免开发面板-风扇备份-2" transform="translate(-442.000000, -1416.000000)" fill="#FFFFFF" fill-rule="nonzero" stroke="#FFFFFF" stroke-width="0.5">
            <g id="编组-7备份-2" transform="translate(414.666667, 1388.000000)">
                <g id="睡眠风-常态" transform="translate(28.333333, 29.000000)">
                    <path d="M18.4148801,36.9571403 C10.1741824,36.9571403 2.79511265,31.7210937 0.0555777616,23.9443496 C-0.0769803779,23.5466751 0.0334847384,23.0827217 0.364880087,22.7955124 C0.696275436,22.5083031 1.16022892,22.464117 1.53581032,22.6408612 C4.01022892,23.9001635 6.66139172,24.5408612 9.4009266,24.5408612 C18.9672057,24.5408612 26.7660429,16.742024 26.7660429,7.17574491 C26.7660429,5.25365189 26.4346475,3.30946584 25.7718568,1.43155887 C25.6392987,1.03388445 25.7497638,0.569930959 26.0811592,0.282721657 C26.4125545,-0.00448764535 26.876508,-0.0486736919 27.2520894,0.128070494 C33.8137173,3.46411701 37.9009266,10.114117 37.9009266,17.4710938 C37.8788336,28.2303961 29.1520894,36.9571403 18.4148801,36.9571403 Z M3.06022892,25.5792333 C6.02069404,31.2129542 11.9195312,34.8583031 18.3927871,34.8583031 C27.9590661,34.8583031 35.7579033,27.0594658 35.7579033,17.4931868 C35.7579033,11.7931868 33.0183685,6.57923328 28.4451126,3.35365189 C28.7102289,4.61295422 28.8427871,5.89434956 28.8427871,7.19783794 C28.8427871,17.9350472 20.1160429,26.6617914 9.37883358,26.6617914 C7.2137173,26.6396984 5.09278706,26.28621 3.06022892,25.5792333 Z" id="形状"></path>
                </g>
            </g>
        </g>
    </g>
</svg>