<?xml version="1.0" encoding="UTF-8"?>
<svg xmlns="http://www.w3.org/2000/svg" xmlns:xlink="http://www.w3.org/1999/xlink" width="24px" height="24px" viewBox="0 0 24 24" version="1.1">
  <title>icon-中风</title>
  <g id="页面-1" stroke="none" stroke-width="1" fill="none" fill-rule="evenodd">
    <g id="免开发面板-空调（除湿）" transform="translate(-223.000000, -704.000000)">
      <g id="风速" transform="translate(211.000000, 692.000000)">
        <g id="icon-中风" transform="translate(12.000000, 12.000000)">
          <rect id="矩形" fill="#000000" opacity="0" x="0" y="0" width="24" height="24"></rect>
          <path d="M22.2876959,15.9156097 L22.3894665,15.9224563 C22.755542,15.9721188 23.0376959,16.285914 23.0376959,16.6656097 C23.0376959,17.0798233 22.7019095,17.4156097 22.2876959,17.4156097 L22.2876959,17.4156097 L8.27898067,17.4156097 L8.12558472,17.4207981 C6.95972325,17.4999259 6.03769589,18.4742784 6.03769589,19.6656097 C6.03769589,20.9087381 7.0416425,21.9156097 8.27898067,21.9156097 L8.27898067,21.9156097 L10.1952609,21.9156097 L10.2970314,21.9224563 C10.663107,21.9721188 10.9452609,22.285914 10.9452609,22.6656097 C10.9452609,23.0798233 10.6094744,23.4156097 10.1952609,23.4156097 L10.1952609,23.4156097 L8.27898067,23.4156097 L8.08024061,23.4104102 C6.1059445,23.306853 4.53769589,21.669397 4.53769589,19.6656097 C4.53769589,17.5950296 6.21223691,15.9156097 8.27898067,15.9156097 L8.27898067,15.9156097 L22.2876959,15.9156097 Z M7.01318838,4.91560973 C7.42740194,4.91560973 7.76318838,5.25139616 7.76318838,5.66560973 C7.76318838,6.04530549 7.48103449,6.35910069 7.11495893,6.40876311 L7.01318838,6.41560973 L4.77752813,6.41560973 C3.26484981,6.41560973 2.03769589,7.646339 2.03769589,9.16560973 C2.03769589,10.6286112 3.17563285,11.8240488 4.6106756,11.9105929 L4.77752813,11.9156097 L22.2876959,11.9156097 C22.7019095,11.9156097 23.0376959,12.2513962 23.0376959,12.6656097 C23.0376959,13.0453055 22.755542,13.3591007 22.3894665,13.4087631 L22.2876959,13.4156097 L4.77752813,13.4156097 C2.43544421,13.4156097 0.537695895,11.5123322 0.537695895,9.16560973 C0.537695895,6.89000001 2.32217181,5.03136708 4.56587592,4.92081229 L4.77752813,4.91560973 L7.01318838,4.91560973 Z M16.1952609,1.91560973 C16.6094744,1.91560973 16.9452609,2.25139616 16.9452609,2.66560973 C16.9452609,3.04530549 16.663107,3.35910069 16.2970314,3.40876311 L16.1952609,3.41560973 L14.2789807,3.41560973 C13.0416425,3.41560973 12.0376959,4.42248137 12.0376959,5.66560973 C12.0376959,6.85694106 12.9597232,7.83129359 14.1255847,7.91042135 L14.2789807,7.91560973 L22.2876959,7.91560973 C22.7019095,7.91560973 23.0376959,8.25139616 23.0376959,8.66560973 C23.0376959,9.04530549 22.755542,9.35910069 22.3894665,9.40876311 L22.2876959,9.41560973 L14.2789807,9.41560973 C12.2122369,9.41560973 10.5376959,7.73618987 10.5376959,5.66560973 C10.5376959,3.66182249 12.1059445,2.02436643 14.0802406,1.92080921 L14.2789807,1.91560973 L16.1952609,1.91560973 Z" id="形状结合" fill="#FFFFFF" fill-rule="nonzero"></path>
        </g>
      </g>
    </g>
  </g>
</svg>
