<?xml version="1.0" encoding="UTF-8"?>
<svg xmlns="http://www.w3.org/2000/svg" xmlns:xlink="http://www.w3.org/1999/xlink" width="24px" height="24px" viewBox="0 0 24 24" version="1.1">
  <title>icon-低风</title>
  <g id="页面-1" stroke="none" stroke-width="1" fill="none" fill-rule="evenodd">
    <g id="免开发面板-空调（送风）" transform="translate(-223.000000, -704.000000)" fill="#FFFFFF" fill-rule="nonzero">
      <g id="风速" transform="translate(211.000000, 692.000000)">
        <g id="icon-低风" transform="translate(12.000000, 12.000000)">
          <g id="风" transform="translate(12.000000, 12.000000) scale(-1, 1) translate(-12.000000, -12.000000) translate(2.000000, 3.000000)">
            <path d="M15.809375,7.40468749 L0.759375,7.40468749 C0.359374992,7.40468749 0.009375,7.0546875 0.009375,6.65468749 C0.009375,6.25468748 0.359374992,5.90468749 0.759375,5.90468749 L15.809375,5.90468749 C17.009375,5.90468749 18.009375,4.90468748 18.009375,3.70468751 C18.009375,2.5046875 17.009375,1.5046875 15.809375,1.5046875 L13.809375,1.5046875 C13.409375,1.5046875 13.059375,1.15468751 13.059375,0.7546875 C13.059375,0.354687492 13.409375,0.0046875 13.809375,0.0046875 L15.809375,0.0046875 C17.859375,0.0046875 19.509375,1.6546875 19.509375,3.70468751 C19.509375,5.7046875 17.859375,7.40468749 15.809375,7.40468749 Z M16.409375,17.8046875 L14.609375,17.8046875 C14.209375,17.8046875 13.859375,17.4546875 13.859375,17.0546875 C13.859375,16.6546875 14.209375,16.3046875 14.609375,16.3046875 L16.409375,16.3046875 C17.459375,16.3046875 18.309375,15.4546875 18.309375,14.4046875 C18.309375,13.3546875 17.459375,12.5046875 16.409375,12.5046875 L8.109375,12.5046875 C7.70937499,12.5046875 7.359375,12.1546875 7.359375,11.7546875 C7.359375,11.3546875 7.70937499,11.0046875 8.109375,11.0046875 L16.409375,11.0046875 C18.309375,11.0046875 19.809375,12.5546875 19.809375,14.4046875 C19.809375,16.2546875 18.309375,17.8046875 16.409375,17.8046875 Z" id="形状"></path>
          </g>
        </g>
      </g>
    </g>
  </g>
</svg>
