<?xml version="1.0" encoding="UTF-8"?>
<svg xmlns="http://www.w3.org/2000/svg" xmlns:xlink="http://www.w3.org/1999/xlink" width="24px" height="24px" viewBox="0 0 24 24" version="1.1">
  <title>icon-健康风</title>
  <g id="空调免开发面板-0409" stroke="none" stroke-width="1" fill="none" fill-rule="evenodd">
    <g id="icon集合" transform="translate(-39.000000, -482.000000)" fill="#FFFFFF" fill-rule="nonzero">
      <g id="风速" transform="translate(27.000000, 470.000000)">
        <g id="形状结合" transform="translate(12.000000, 12.000000)">
          <path d="M10.1564804,1.15380434 C8.81176588,2.72760642 8,4.76900417 8,7 C8,11.9705627 12.0294373,16 17,16 C19.2314085,16 21.2731489,15.1879338 22.8458111,13.8432111 C21.9697725,19.0404735 17.4472847,23 12,23 C5.92486775,23 1,18.0751322 1,12 C1,6.55306466 4.95901858,2.03080765 10.1564804,1.15380434 Z M6.951,3.949 L6.76206473,4.0712592 C4.17885963,5.78185927 2.5,8.71522136 2.5,12 C2.5,17.2467051 6.75329488,21.5 12,21.5 C15.2849684,21.5 18.2184726,19.8209454 19.9288339,17.2377453 L20.05,17.048 L20.0166148,17.0598155 C19.1582161,17.316769 18.261558,17.4647164 17.3447234,17.4944213 L17,17.5 C11.2010101,17.5 6.5,12.7989899 6.5,7 C6.5,6.09299612 6.61564317,5.20335699 6.83814475,4.34825386 L6.951,3.949 Z M20,3.25 C20.6330113,3.25 20.9666561,3.97505675 20.598293,4.45310855 L20.5303301,4.53033009 L16.811,8.249 L20,8.25 C20.3796958,8.25 20.693491,8.53215388 20.7431534,8.89822944 L20.75,9 C20.75,9.37969577 20.4678461,9.69349096 20.1017706,9.74315338 L20,9.75 L15,9.75 C14.3669887,9.75 14.0333439,9.02494325 14.401707,8.54689145 L14.4696699,8.46966991 L18.189,4.749 L15,4.75 C14.6203042,4.75 14.306509,4.46784612 14.2568466,4.10177056 L14.25,4 C14.25,3.62030423 14.5321539,3.30650904 14.8982294,3.25684662 L15,3.25 L20,3.25 Z"></path>
        </g>
      </g>
    </g>
  </g>
</svg>
