<?xml version="1.0" encoding="UTF-8"?>
<svg xmlns="http://www.w3.org/2000/svg" xmlns:xlink="http://www.w3.org/1999/xlink" width="24px" height="24px" viewBox="0 0 24 24" version="1.1">
  <title>icon-自动</title>
  <g id="页面-1" stroke="none" stroke-width="1" fill="none" fill-rule="evenodd">
    <g id="免开发面板-空调（自动）" transform="translate(-129.000000, -704.000000)" fill="#FFFFFF" fill-rule="nonzero">
      <g id="模式" transform="translate(117.000000, 692.000000)">
        <g id="icon-自动" transform="translate(12.000000, 12.000000)">
          <path d="M12.0792762,1.75 C14.7803206,1.75 17.3057564,2.78703928 19.193139,4.56726882 L20.5867397,3.38923266 L21.569955,8.83993824 L16.4319789,6.90114063 L18.0391738,5.54304873 C16.4399049,4.09175919 14.3319353,3.25 12.0792762,3.25 C7.20161282,3.25 3.25,7.16891005 3.25,12 C3.25,16.83109 7.20161282,20.75 12.0792762,20.75 C14.6213927,20.75 16.987444,19.680538 18.6523206,17.8422028 C18.9303708,17.5351834 19.4046635,17.5116992 19.7116829,17.7897494 C20.0187024,18.0677996 20.0421866,18.5420923 19.7641364,18.8491118 C17.8174534,20.998614 15.0489179,22.25 12.0792762,22.25 C6.37596327,22.25 1.75,17.6623203 1.75,12 C1.75,6.33767971 6.37596327,1.75 12.0792762,1.75 Z M12.6491682,6.62243001 L12.6929493,6.73247099 L15.7183938,16.2791169 C15.8435294,16.6739764 15.6248751,17.0955156 15.2300157,17.2206512 C14.8680612,17.3353588 14.4836883,17.1611874 14.3257534,16.82722 L14.2884814,16.732273 L13.686,14.833 L10.299,14.833 L9.71918574,16.6850121 C9.60575093,17.0473675 9.24273589,17.2625379 8.87854195,17.2005665 L8.77937373,17.1766963 C8.41701836,17.0632615 8.20184792,16.7002465 8.26381929,16.3360525 L8.2876895,16.2368843 L11.2622449,6.73498515 C11.4691923,6.07391397 12.3637486,6.03563601 12.6491682,6.62243001 Z M11.9824376,9.45504904 L10.768,13.333 L13.211,13.333 L11.9824376,9.45504904 Z" id="形状结合"></path>
        </g>
      </g>
    </g>
  </g>
</svg>
