<?xml version="1.0" encoding="UTF-8"?>
<svg xmlns="http://www.w3.org/2000/svg" xmlns:xlink="http://www.w3.org/1999/xlink" width="24px" height="24px" viewBox="0 0 24 24" version="1.1">
  <title>icon-高风</title>
  <g id="页面-1" stroke="none" stroke-width="1" fill="none" fill-rule="evenodd">
    <g id="免开发面板-空调（制热）" transform="translate(-223.000000, -704.000000)">
      <g id="风速" transform="translate(211.000000, 692.000000)">
        <g id="icon-高风" transform="translate(12.000000, 12.000000)">
          <rect id="矩形" fill="#000000" opacity="0" x="0" y="0" width="24" height="24"></rect>
          <path d="M23,18.25 L23.1017706,18.2568466 C23.4678461,18.306509 23.75,18.6203042 23.75,19 C23.75,19.4142136 23.4142136,19.75 23,19.75 L23,19.75 L14.5836213,19.75 L14.4773183,19.7559971 C14.0604945,19.8034544 13.75,20.1262997 13.75,20.5 C13.75,20.904842 14.1143997,21.25 14.5836213,21.25 L14.5836213,21.25 L15.5981226,21.25 L15.6998932,21.2568466 C16.0659688,21.306509 16.3481226,21.6203042 16.3481226,22 C16.3481226,22.4142136 16.0123362,22.75 15.5981226,22.75 L15.5981226,22.75 L14.5836213,22.75 L14.4248604,22.744856 C13.2176504,22.6663933 12.25,21.6998451 12.25,20.5 C12.25,19.2479877 13.3036231,18.25 14.5836213,18.25 L14.5836213,18.25 L23,18.25 Z M23,14.25 L23.1017706,14.2568466 C23.4678461,14.306509 23.75,14.6203042 23.75,15 C23.75,15.4142136 23.4142136,15.75 23,15.75 L23,15.75 L7.51897665,15.75 L7.37372191,15.7558103 C6.46363703,15.8289288 5.75,16.5830377 5.75,17.5 C5.75,18.4652234 6.54073355,19.25 7.51897665,19.25 L7.51897665,19.25 L9.1326863,19.25 L9.23445686,19.2568466 C9.60053242,19.306509 9.8826863,19.6203042 9.8826863,20 C9.8826863,20.4142136 9.54689986,20.75 9.1326863,20.75 L9.1326863,20.75 L7.51897665,20.75 L7.33359782,20.7448596 C5.61555365,20.6493308 4.25,19.2342624 4.25,17.5 C4.25,15.7037997 5.71483497,14.25 7.51897665,14.25 L7.51897665,14.25 L23,14.25 Z M6.72549248,3.25 C7.13970604,3.25 7.47549248,3.58578644 7.47549248,4 C7.47549248,4.37969577 7.1933386,4.69349096 6.82726304,4.74315338 L6.72549248,4.75 L4.48983223,4.75 C2.97715391,4.75 1.75,5.98072927 1.75,7.5 C1.75,8.96300144 2.88793696,10.1584391 4.3229797,10.2449831 L4.48983223,10.25 L23,10.25 C23.4142136,10.25 23.75,10.5857864 23.75,11 C23.75,11.3796958 23.4678461,11.693491 23.1017706,11.7431534 L23,11.75 L4.48983223,11.75 C2.14774831,11.75 0.25,9.84672252 0.25,7.5 C0.25,5.22439028 2.03447592,3.36575735 4.27818002,3.25520257 L4.48983223,3.25 L6.72549248,3.25 Z M15.907565,0.25 C16.3217785,0.25 16.657565,0.585786438 16.657565,1 C16.657565,1.37969577 16.3754111,1.69349096 16.0093355,1.74315338 L15.907565,1.75 L13.9912848,1.75 C12.7539466,1.75 11.75,2.75687165 11.75,4 C11.75,5.19133134 12.6720274,6.16568386 13.8378888,6.24481162 L13.9912848,6.25 L23,6.25 C23.4142136,6.25 23.75,6.58578644 23.75,7 C23.75,7.37969577 23.4678461,7.69349096 23.1017706,7.74315338 L23,7.75 L13.9912848,7.75 C11.924541,7.75 10.25,6.07058015 10.25,4 C10.25,1.99621276 11.8182486,0.358756703 13.7925447,0.255199483 L13.9912848,0.25 L15.907565,0.25 Z" id="形状结合" fill="#FFFFFF" fill-rule="nonzero"></path>
        </g>
      </g>
    </g>
  </g>
</svg>
