<?xml version="1.0" encoding="UTF-8"?>
<svg xmlns="http://www.w3.org/2000/svg" xmlns:xlink="http://www.w3.org/1999/xlink" width="24px" height="24px" viewBox="0 0 24 24" version="1.1">
  <title>icon-健康风</title>
  <g id="空调免开发面板-0409" stroke="none" stroke-width="1" fill="none" fill-rule="evenodd">
    <g id="icon集合" transform="translate(-107.000000, -482.000000)" fill="#FFFFFF" fill-rule="nonzero">
      <g id="风速" transform="translate(95.000000, 470.000000)">
        <g id="icon-健康风" transform="translate(12.000000, 12.000000)">
          <path d="M11.5640714,1.3896999 C12.0604727,1.0351275 12.75,1.38997058 12.75,2 L12.75,2 L12.75,21 C12.75,21.6100294 12.0604727,21.9648725 11.5640714,21.6103001 L11.5640714,21.6103001 L4.76,16.7496777 L1,16.75 C0.620304234,16.75 0.306509039,16.4678461 0.256846616,16.1017706 L0.25,16 L0.25,7 C0.25,6.58578644 0.585786438,6.25 1,6.25 L1,6.25 L4.76,6.24967774 Z M11.25,3.456 L5.75,7.385 L5.75,15.614 L11.25,19.543 L11.25,3.456 Z M16.6780331,8.52757186 L16.7608714,8.60164702 L19.009,10.9296777 L21.298097,8.64124279 C21.5909903,8.34834957 22.065864,8.34834957 22.3587572,8.64124279 C22.6250238,8.90750935 22.6492298,9.32417303 22.4313754,9.61778453 L22.3587572,9.70190296 L20.051,12.0086777 L22.3181383,14.3563654 C22.6058753,14.6543257 22.5975876,15.1291271 22.2996273,15.4168641 C22.0287543,15.6784431 21.6117316,15.6953736 21.3219669,15.4724281 L21.2391286,15.398353 L18.99,13.0696777 L16.701903,15.3587572 C16.4090097,15.6516504 15.934136,15.6516504 15.6412428,15.3587572 C15.3749762,15.0924906 15.3507702,14.675827 15.5686246,14.3822155 L15.6412428,14.298097 L17.948,11.9906777 L15.6818617,9.64363458 C15.3941247,9.34567428 15.4024124,8.87087287 15.7003727,8.58313595 C15.9712457,8.32155693 16.3882684,8.30462635 16.6780331,8.52757186 Z M4.25,7.75 L1.75,7.75 L1.75,15.25 L4.25,15.25 L4.25,7.75 Z" id="形状结合"></path>
        </g>
      </g>
    </g>
  </g>
</svg>
