<?xml version="1.0" encoding="UTF-8"?>
<svg xmlns="http://www.w3.org/2000/svg" xmlns:xlink="http://www.w3.org/1999/xlink" width="24px" height="24px" viewBox="0 0 24 24" version="1.1">
  <title>icon-健康风</title>
  <g id="页面-1" stroke="none" stroke-width="1" fill="none" fill-rule="evenodd">
    <g id="免开发面板-空调（未开启）" transform="translate(-223.000000, -704.000000)" fill="#FFFFFF" fill-rule="nonzero">
      <g id="风速" transform="translate(211.000000, 692.000000)">
        <g id="形状结合" transform="translate(12.000000, 12.000000)">
          <path d="M24,4 L24,8 C24,14.9035594 18.4035594,20.5 11.5,20.5 L11.5,20.5 L7.5,20.5 L7.50091712,20.4419043 C3.27730429,19.9473888 -7.10542736e-15,16.3564221 -7.10542736e-15,12 L-7.10542736e-15,8.5 L3.5,8.5 C5.60412649,8.5 7.52968497,9.26454059 9.01403161,10.530978 C11.1331264,6.64025988 15.2582304,4 20,4 L20,4 L24,4 Z M22.5,5.5 L20,5.5 L19.7115925,5.5037074 C13.7697636,5.65663482 9,10.5212984 9,16.5 L9,16.5 L9.00166809,18.3554401 C11.2088546,16.7470953 12.851234,15.2982236 13.9255482,14.0179057 C15.1185401,12.5961534 16.1000106,11.287526 16.8697257,10.093608 C17.0941679,9.74547213 17.5583341,9.6451985 17.90647,9.86964061 C18.2546059,10.0940827 18.3548795,10.5582489 18.1304374,10.9063848 C17.3242564,12.1568657 16.3057269,13.514905 15.0746149,14.9820871 C14.0446538,16.2095469 12.5703414,17.5468702 10.649405,19.0003907 L11.5,19 L11.7884075,18.9962926 C17.7302364,18.8433652 22.5,13.9787016 22.5,8 L22.5,8 L22.5,5.5 Z M3.5,10 L1.5,10 L1.5,12 C1.5,15.5266265 4.10793452,18.4441373 7.50044619,18.9291749 L7.5,16.5 C7.5,14.8688787 7.81241962,13.3107269 8.38068338,11.8821201 L8.35189663,11.9551612 L8.35189663,11.9551612 C7.1294117,10.7780132 5.47869411,10.0416408 3.65632251,10.001711 L3.5,10 Z"></path>
        </g>
      </g>
    </g>
  </g>
</svg>
