<svg xmlns="http://www.w3.org/2000/svg" viewBox="0 0 48 48" class="design-iconfont">
  <path d="M31.5,2 C32.3284271,2 33,2.67157288 33,3.5 C33,4.32842712 32.3284271,5 31.5,5 L26,5 L26.0005474,8.55838473 C35.7925166,9.32341231 43.5,17.5116166 43.5,27.5 C43.5,37.9934102 34.9934102,46.5 24.5,46.5 C14.0065898,46.5 5.5,37.9934102 5.5,27.5 C5.5,17.5112767 13.2080079,9.3228551 23.0004522,8.55830666 L23,5 L17.5,5 C16.6715729,5 16,4.32842712 16,3.5 C16,2.67157288 16.6715729,2 17.5,2 L31.5,2 Z M24.5,11.5 C15.663444,11.5 8.5,18.663444 8.5,27.5 C8.5,36.336556 15.663444,43.5 24.5,43.5 C33.336556,43.5 40.5,36.336556 40.5,27.5 C40.5,18.663444 33.336556,11.5 24.5,11.5 Z M24.5,18 C25.3284271,18 26,18.6715729 26,19.5 L26,27 L33.5,27 C34.3284271,27 35,27.6715729 35,28.5 C35,29.3284271 34.3284271,30 33.5,30 L24.5,30 C23.6715729,30 23,29.3284271 23,28.5 L23,19.5 C23,18.6715729 23.6715729,18 24.5,18 Z" fill="#FFF" fill-rule="nonzero" />
</svg>
