<svg width="24" height="24" viewBox="0 0 24 24" fill="none" xmlns="http://www.w3.org/2000/svg">
<path d="M12.0938 1C10.3453 1 8.92969 2.41563 8.92969 4.16406V12.1492C7.17422 13.2203 6 15.1516 6 17.3594C6 20.7156 8.73984 23.4531 12.0938 23.4531H12.1031C15.4641 23.4484 18.1875 20.7227 18.1875 17.3594C18.1875 15.1516 17.0133 13.2203 15.2578 12.1516V4.16406C15.2578 2.41563 13.8422 1 12.0938 1ZM12.6797 15.3648V8.65C12.6797 8.32656 12.4172 8.06406 12.0938 8.06406C11.7703 8.06406 11.5078 8.32656 11.5078 8.65V15.3648C10.6289 15.618 9.98438 16.4289 9.98438 17.3922C9.98438 18.557 10.9289 19.5016 12.0938 19.5016C13.2586 19.5016 14.2031 18.557 14.2031 17.3922C14.2031 16.4313 13.5586 15.618 12.6797 15.3648Z" fill="#30414D"/>
<path d="M12.6797 8.6499V15.3647C13.5586 15.6179 14.2031 16.4312 14.2031 17.3921C14.2031 18.5569 13.2586 19.5015 12.0938 19.5015C10.9289 19.5015 9.98438 18.5569 9.98438 17.3921C9.98438 16.4288 10.6289 15.6179 11.5078 15.3647V8.6499C11.5078 8.32646 11.7703 8.06396 12.0938 8.06396C12.4172 8.06396 12.6797 8.32646 12.6797 8.6499Z" fill="#30414D"/>
<path d="M12.6797 8.6499V15.3647C13.5586 15.6179 14.2031 16.4312 14.2031 17.3921C14.2031 18.5569 13.2586 19.5015 12.0938 19.5015C10.9289 19.5015 9.98438 18.5569 9.98438 17.3921C9.98438 16.4288 10.6289 15.6179 11.5078 15.3647V8.6499C11.5078 8.32646 11.7703 8.06396 12.0938 8.06396C12.4172 8.06396 12.6797 8.32646 12.6797 8.6499Z" fill="#30414D"/>
<path d="M12.6953 8.58594V15.3008C13.5742 15.5539 14.2188 16.3672 14.2188 17.3281C14.2188 18.493 13.2742 19.4375 12.1094 19.4375C10.9445 19.4375 10 18.493 10 17.3281C10 16.3648 10.6445 15.5539 11.5234 15.3008V8.58594C11.5234 8.2625 11.7859 8 12.1094 8C12.4328 8 12.6953 8.2625 12.6953 8.58594Z" fill="white"/>
</svg>
