<svg width="25" height="24" viewBox="0 0 25 24" fill="none" xmlns="http://www.w3.org/2000/svg">
<path fill-rule="evenodd" clip-rule="evenodd" d="M4.16667 2C3.24619 2 2.5 2.74619 2.5 3.66667V9.22222C2.5 10.1427 3.24619 10.8889 4.16667 10.8889H9.72222C10.6427 10.8889 11.3889 10.1427 11.3889 9.22222V3.66667C11.3889 2.74619 10.6427 2 9.72222 2H4.16667ZM15.2778 2C14.3573 2 13.6111 2.74619 13.6111 3.66667V9.22222C13.6111 10.1427 14.3573 10.8889 15.2778 10.8889H20.8333C21.7538 10.8889 22.5 10.1427 22.5 9.22222V3.66667C22.5 2.74619 21.7538 2 20.8333 2H15.2778ZM2.5 14.7778C2.5 13.8573 3.24619 13.1111 4.16667 13.1111H9.72222C10.6427 13.1111 11.3889 13.8573 11.3889 14.7778V20.3333C11.3889 21.2538 10.6427 22 9.72222 22H4.16667C3.24619 22 2.5 21.2538 2.5 20.3333V14.7778ZM15.2778 13.1111C14.3573 13.1111 13.6111 13.8573 13.6111 14.7778V20.3333C13.6111 21.2538 14.3573 22 15.2778 22H20.8333C21.7538 22 22.5 21.2538 22.5 20.3333V14.7778C22.5 13.8573 21.7538 13.1111 20.8333 13.1111H15.2778Z" fill="#30414D"/>
</svg>
