<?xml version="1.0" encoding="UTF-8"?>
<svg width="78px" height="78px" viewBox="0 0 78 78" version="1.1" xmlns="http://www.w3.org/2000/svg" xmlns:xlink="http://www.w3.org/1999/xlink">
    <!-- Generator: Sketch 59.1 (86144) - https://sketch.com -->
    <title>档位莫兰迪</title>
    <desc>Created with Sketch.</desc>
    <g id="页面-1" stroke="none" stroke-width="1" fill="none" fill-rule="evenodd">
        <g id="1备份" transform="translate(-727.000000, -2240.000000)" fill="#B5ABA1">
            <g id="莫兰迪" transform="translate(369.000000, 1993.000000)">
                <path d="M399.817248,276.769718 C401.305142,271.151308 404.808357,263.500942 410.598932,258.981786 C414.929371,255.595195 416.011981,252.086464 412.464352,249.899059 C407.85632,247.067647 393.62694,244.197372 383.861243,252.319639 C382.706459,253.28565 381.068665,256.422411 381.962512,260.408596 C382.756426,263.9895 386.292952,272.455978 391.556101,277.824558 C393.754632,280.045274 398.551427,281.438773 399.817248,276.769718 L399.817248,276.769718 Z M387.767634,283.193986 C382.138205,281.683878 374.499059,278.180652 369.979971,272.401161 C366.571224,268.070707 363.079201,266.982541 360.891829,270.546838 C358.06046,275.13823 355.201332,289.373211 363.33458,299.127837 C364.289473,300.277073 367.426186,301.920425 371.412311,301.048782 C374.998712,300.221554 383.470614,296.718328 388.822458,291.432953 C391.04314,289.234414 392.442169,284.437603 387.767634,283.199537 L387.767634,283.193986 Z M394.199812,295.233603 C392.700863,300.845728 389.197763,308.48399 383.412929,313.024759 C379.065975,316.433112 377.988953,319.913628 381.536466,322.122951 C386.144347,324.926238 400.378815,327.801688 410.13864,319.680484 C411.287835,318.731252 412.925576,315.556044 412.042861,311.603687 C411.23787,307.995497 407.712563,299.535677 402.455137,294.184453 C400.256678,291.964027 395.443385,290.548506 394.199812,295.233603 Z M406.220919,289.548194 C411.861594,291.07491 419.478726,294.589132 424.009031,300.357342 C427.428968,304.693215 430.909975,305.781347 433.097402,302.222711 C435.928843,297.620357 438.810251,283.369158 430.671246,273.620383 C429.688569,272.471183 426.573984,270.833433 422.582207,271.727256 C418.984612,272.532251 410.523599,276.046474 405.177173,281.331687 C402.967538,283.513502 401.551818,288.321269 406.220919,289.548194 L406.220919,289.548194 Z" id="档位莫兰迪"></path>
            </g>
        </g>
    </g>
</svg>