<?xml version="1.0" encoding="UTF-8"?>
<svg width="73px" height="73px" viewBox="0 0 73 73" version="1.1" xmlns="http://www.w3.org/2000/svg" xmlns:xlink="http://www.w3.org/1999/xlink">
    <!-- Generator: Sketch 59.1 (86144) - https://sketch.com -->
    <title>睡眠莫兰迪</title>
    <desc>Created with Sketch.</desc>
    <g id="页面-1" stroke="none" stroke-width="1" fill="none" fill-rule="evenodd">
        <g id="1备份" transform="translate(-951.000000, -2231.000000)" fill="#B5ABA1">
            <g id="莫兰迪" transform="translate(369.000000, 1993.000000)">
                <path d="M654.803195,287.399141 C654.540789,287.137424 653.75357,287.137424 652.966351,287.399141 C645.356565,290.801466 637.484373,291.324901 629.349775,289.492879 C613.867798,285.56712 602.84673,271.95782 602.059511,255.731347 C602.059511,250.235284 603.109136,245.000938 605.470794,240.028309 C605.7332,239.243157 606.258013,238.98144 605.470794,238.196288 C604.683575,237.934571 604.421168,237.934571 603.371543,238.196288 C599.96026,240.028309 596.548976,241.86033 594.187319,244.739221 C587.102346,251.282153 583.166251,259.133672 582.116625,268.555495 C582.116625,269.340647 581.854219,273.266407 582.116625,274.051559 L582.116625,275.098428 C582.116625,278.500753 582.903844,281.64136 583.95347,284.520251 C588.414378,298.914702 601.534698,309.121677 616.229456,310.691981 C621.477584,311.477133 626.463305,310.691981 631.711433,309.121677 C641.945282,305.719352 649.817474,299.17642 654.803195,289.231162 L654.803195,288.969445 C655.065602,288.44601 655.065602,288.184293 654.803195,287.399141 Z" id="睡眠莫兰迪"></path>
            </g>
        </g>
    </g>
</svg>