<?xml version="1.0" encoding="UTF-8"?>
<svg width="203px" height="203px" viewBox="0 0 203 203" version="1.1" xmlns="http://www.w3.org/2000/svg" xmlns:xlink="http://www.w3.org/1999/xlink">
    <!-- Generator: Sketch 59.1 (86144) - https://sketch.com -->
    <title>紧急按钮</title>
    <desc>Created with Sketch.</desc>
    <defs>
        <linearGradient x1="61.5645064%" y1="-28.7259615%" x2="61.5645064%" y2="100%" id="linearGradient-1">
            <stop stop-color="#00F0FF" offset="0%"></stop>
            <stop stop-color="#5A6CF3" offset="100%"></stop>
        </linearGradient>
        <path d="M48.5078867,103.000741 L48.5078867,150.7 L156.5,150.7 L156.5,100.062373 C155.03308,71.4428174 131.52293,48.7 102.5,48.7 C73.4770702,48.7 49.9748065,71.4428174 48.5,100.062373 L48.5,103.000741 L48.5078867,103.000741 Z M158.028306,62.0760642 L182.769209,44.3404648 C184.549858,42.9167114 185.021838,40.4044482 183.879377,38.4312423 C182.455995,36.6501288 179.944386,36.1780257 177.971694,37.3207844 L153.230791,55.0563837 C151.450142,56.4801371 150.978162,58.9924004 152.120623,60.9656063 C153.595561,62.8137255 156.180668,63.1865221 158.028306,62.0760642 L158.028306,62.0760642 Z M30.5,171.779548 L30.5,181.7 L175.5,181.7 L175.5,172.150185 C175.452752,163.646655 168.592902,156.764892 160.116448,156.717494 L46.2451507,156.717494 C42.1386857,156.518936 38.1305441,158.017472 35.1552118,160.863721 C32.1798795,163.70997 30.4973873,167.655184 30.5,171.779548 L30.5,171.779548 Z M102.5,38.7 C104.6875,38.7 106.5,36.8721718 106.5,34.6834847 L106.5,4.71651528 C106.478821,2.50712379 104.700307,0.721266068 102.5,0.7 C100.299693,0.721266068 98.5211786,2.50712379 98.5,4.71651528 L98.5,34.6834847 C98.5,36.8800165 100.320312,38.7 102.5,38.7 Z M47.7446212,63.749993 C49.566965,65.2397376 52.1245033,64.8713062 53.5714287,63.3815616 C54.9352623,61.5804577 54.7812346,59.0224357 53.2116526,57.4065643 L30.2485562,37.6474247 C28.4911816,36.2555208 25.9985637,36.41313 24.4217486,38.0158562 C23.0646157,39.817467 23.2218758,42.3701771 24.7893459,43.982844 L47.7367999,63.7660118 L47.7446212,63.749993 Z M38.5,107.7 C38.4786722,105.49668 36.6884683,103.716945 34.4764706,103.7 L4.51568627,103.7 C2.3067508,103.721179 0.521261679,105.499693 0.5,107.7 C0.5,109.8875 2.32745098,111.7 4.51568627,111.7 L34.4764706,111.7 C36.672549,111.7 38.4921569,109.8875 38.4921569,107.7 L38.5,107.7 Z M21.5,181.7 L186.5,181.7 L186.5,201.7 L21.5078718,201.7 L21.5078718,181.7 L21.5,181.7 Z M198.483485,103.7 L168.516515,103.7 C166.307124,103.721179 164.521266,105.499693 164.5,107.7 C164.5,109.8875 166.327828,111.7 168.516515,111.7 L198.483485,111.7 C200.680017,111.7 202.5,109.8875 202.5,107.7 C202.478734,105.499693 200.692876,103.721179 198.483485,103.7 Z" id="path-2"></path>
        <filter x="-75.7%" y="-73.1%" width="251.5%" height="252.2%" filterUnits="objectBoundingBox" id="filter-3">
            <feOffset dx="0" dy="6" in="SourceAlpha" result="shadowOffsetOuter1"></feOffset>
            <feGaussianBlur stdDeviation="50" in="shadowOffsetOuter1" result="shadowBlurOuter1"></feGaussianBlur>
            <feColorMatrix values="0 0 0 0 0.125490196   0 0 0 0 0.127812629   0 0 0 0 0.129411765  0 0 0 0.1 0" type="matrix" in="shadowBlurOuter1"></feColorMatrix>
        </filter>
    </defs>
    <g id="页面-1" stroke="none" stroke-width="1" fill="none" fill-rule="evenodd">
        <g id="1" transform="translate(-68.000000, -1280.000000)">
            <g id="暗黑" transform="translate(67.000000, 1280.000000)">
                <g id="紧急按钮">
                    <g transform="translate(0.500000, 0.300000)" id="形状">
                        <g>
                            <use fill="black" fill-opacity="1" filter="url(#filter-3)" xlink:href="#path-2"></use>
                            <use fill="url(#linearGradient-1)" fill-rule="evenodd" xlink:href="#path-2"></use>
                        </g>
                    </g>
                </g>
            </g>
        </g>
    </g>
</svg>