<?xml version="1.0" encoding="UTF-8"?>
<svg width="75px" height="82px" viewBox="0 0 75 82" version="1.1" xmlns="http://www.w3.org/2000/svg" xmlns:xlink="http://www.w3.org/1999/xlink">
    <title>智能模式</title>
    <defs>
        <linearGradient x1="8.17221892%" y1="6.80044777%" x2="89.4875931%" y2="98.0740451%" id="linearGradient-1">
            <stop stop-color="#0081FF" offset="0%"></stop>
            <stop stop-color="#005BFF" offset="100%"></stop>
        </linearGradient>
        <linearGradient x1="0%" y1="6.80044777%" x2="97.2025913%" y2="98.0740451%" id="linearGradient-2">
            <stop stop-color="#0081FF" offset="0%"></stop>
            <stop stop-color="#005BFF" offset="100%"></stop>
        </linearGradient>
        <linearGradient x1="0%" y1="44.3667251%" x2="97.2025913%" y2="56.2689148%" id="linearGradient-3">
            <stop stop-color="#0081FF" offset="0%"></stop>
            <stop stop-color="#005BFF" offset="100%"></stop>
        </linearGradient>
    </defs>
    <g id="页面-1" stroke="none" stroke-width="1" fill="none" fill-rule="evenodd">
        <g id="3" transform="translate(-831.000000, -2097.000000)">
            <g id="编组-10" transform="translate(0.000000, 1757.000000)">
                <g id="智能模式" transform="translate(831.000000, 340.000000)">
                    <path d="M58.4205319,48.2888889 L17.020155,48.2888889 C7.36006699,48.2888889 0,55.5777777 0,65.1444444 C0,74.7111111 7.36006699,82 17.020155,82 L57.9605277,82 C67.6206156,82 74.9806826,74.7111111 74.9806826,65.1444444 C75.4406868,55.5777777 67.6206156,48.2888889 58.4205319,48.2888889 Z M58.4205319,75.1666667 L17.020155,75.1666667 C11.0401005,75.1666667 6.90006279,70.6111111 6.90006279,65.1444444 C6.90006279,59.2222222 11.5001047,55.1222223 17.020155,55.1222223 L57.9605277,55.1222223 C63.9405822,55.1222223 68.0806198,59.6777778 68.0806198,65.1444444 C68.540624,70.6111111 63.9405822,75.1666667 58.4205319,75.1666667 Z M5.98005448,19.5888889 C23.4602136,2.27777776 51.5204691,2.27777776 69.0006282,19.5888889 C70.3806407,20.9555556 72.2206575,20.9555556 73.60067,19.5888889 C74.9806826,18.2222222 74.9806826,16.4 73.60067,15.0333333 C53.3604858,-5.01111111 21.1601927,-5.01111111 0.920008394,15.0333333 C1.22124533e-15,16.4 1.22124533e-15,18.2222222 0.920008394,19.5888889 C2.30002098,20.9555556 4.60004189,20.9555556 5.98005448,19.5888889 Z" id="形状" fill="url(#linearGradient-1)"></path>
                    <path d="M20.7008368,62.125 C18.8598326,62.125 17.4790795,63.5 17.4790795,65.3333333 C17.4790795,67.1666667 18.8598327,68.5416667 20.7008368,68.5416667 C22.5418411,69 23.9225941,67.625 23.9225941,65.7916667 C23.9225941,63.5 22.541841,62.125 20.7008368,62.125 Z M54.7594142,62.125 C52.91841,62.125 51.5376569,63.5 51.5376569,65.3333333 C51.5376569,67.1666667 52.9184101,68.5416667 54.7594142,68.5416667 C56.6004184,68.5416667 57.9811715,67.1666666 57.9811715,65.3333333 C58.4414226,63.5 57.0606694,62.125 54.7594142,62.125 Z M37.7301255,62.125 C35.8891213,62.125 34.5083682,63.5 34.5083682,65.3333333 C34.5083682,67.625 35.8891214,69 37.7301255,69 C39.5711297,69 40.9518828,67.625 40.9518828,65.7916667 C40.9518828,63.5 39.5711297,62.125 37.7301255,62.125 Z M63.9644351,29.5833333 C65.3451883,28.2083333 65.3451883,26.375 63.9644351,25 C49.2364017,10.3333333 25.3033473,10.3333333 11.0355649,25 C9.65481171,26.375 9.65481171,28.2083333 11.0355649,29.5833333 C12.416318,30.9583334 14.2573222,30.9583334 15.6380753,29.5833333 C27.6046025,17.6666667 46.9351464,17.6666667 58.9016736,29.5833333 C60.7426778,30.9583334 62.583682,30.9583334 63.9644351,29.5833333 Z" id="形状" fill="url(#linearGradient-2)"></path>
                    <path d="M20.0451613,33.8760535 C18.6516129,35.2626074 18.6516129,37.1113459 20.0451613,38.4978999 C21.4387097,39.8844538 23.2967742,39.8844538 24.6903226,38.4978999 C31.6580645,32.0273149 42.3419355,32.0273149 49.3096774,38.9600845 C50.7032258,40.3466385 52.5612903,40.3466385 53.9548387,38.9600845 C55.3483871,37.5735306 55.3483871,35.7247921 53.9548387,34.3382381 C45.1290322,24.6323606 29.8,24.6323606 20.0451613,33.8760535 Z" id="路径" fill="url(#linearGradient-3)"></path>
                </g>
            </g>
        </g>
    </g>
</svg>