<svg width="32" height="32" viewBox="0 0 32 32" fill="none" xmlns="http://www.w3.org/2000/svg">
<path d="M18.9444 28.3381C22.1309 28.3381 24.7234 25.7456 24.7234 22.559C24.7234 20.2596 23.3622 18.1793 21.2553 17.2587L20.3887 16.8802V5.21806C20.3887 4.42149 19.7406 3.77337 18.9441 3.77337C18.1469 3.77337 17.4981 4.42149 17.4981 5.21806V16.8802L16.6316 17.2587C14.5247 18.1793 13.1634 20.2596 13.1634 22.5587C13.1638 25.7456 15.7569 28.3381 18.9444 28.3381ZM18.9444 29.7831C14.9531 29.7831 11.7188 26.5487 11.7188 22.559C11.7188 19.5959 13.5016 17.0499 16.0531 15.9349V5.21806C16.0531 3.62243 17.3472 2.32837 18.9441 2.32837C20.5397 2.32837 21.8338 3.62243 21.8338 5.21806V15.9343C24.3853 17.049 26.1681 19.5952 26.1681 22.5587C26.1684 26.5487 22.9341 29.7831 18.9444 29.7831Z" fill="#F2A56B"/>
<path d="M18.9387 16.6807C18.5934 16.6807 18.3137 16.401 18.3137 16.0557V5.94067C18.3137 5.59536 18.5934 5.31567 18.9387 5.31567C19.2841 5.31567 19.5637 5.59536 19.5637 5.94067V16.0557C19.5637 16.401 19.2837 16.6807 18.9387 16.6807ZM18.9425 26.5197C18.8719 26.5197 18.8012 26.5179 18.7303 26.5141C17.6737 26.4588 16.7019 25.995 15.9937 25.2088C15.2856 24.4225 14.9263 23.4075 14.9816 22.3507C15.0959 20.1694 16.9634 18.4872 19.145 18.6019C19.4897 18.62 19.7544 18.9141 19.7366 19.2588C19.7184 19.6035 19.425 19.8682 19.0797 19.8504C17.5859 19.771 16.3081 20.9232 16.23 22.4163C16.1922 23.1394 16.4381 23.8344 16.9228 24.3725C17.4075 24.9107 18.0725 25.2282 18.7959 25.266C19.5191 25.3035 20.2141 25.0579 20.7522 24.5732C21.2903 24.0885 21.6078 23.4235 21.6456 22.7C21.6637 22.3554 21.9563 22.0904 22.3025 22.1085C22.6472 22.1266 22.9119 22.4207 22.8941 22.7654C22.8387 23.8219 22.375 24.7938 21.5888 25.5019C20.855 26.1625 19.9222 26.5197 18.9425 26.5197ZM13.8813 6.56567H6.65625C6.31094 6.56567 6.03125 6.28599 6.03125 5.94067C6.03125 5.59536 6.31094 5.31567 6.65625 5.31567H13.8813C14.2266 5.31567 14.5063 5.59536 14.5063 5.94067C14.5063 6.28599 14.2266 6.56567 13.8813 6.56567ZM13.8813 10.9007H10.9913C10.6459 10.9007 10.3663 10.621 10.3663 10.2757C10.3663 9.93036 10.6459 9.65067 10.9913 9.65067H13.8813C14.2266 9.65067 14.5063 9.93036 14.5063 10.2757C14.5063 10.621 14.2266 10.9007 13.8813 10.9007ZM13.8813 15.2357H8.10125C7.75594 15.2357 7.47625 14.956 7.47625 14.6107C7.47625 14.2654 7.75594 13.9857 8.10125 13.9857H13.8813C14.2266 13.9857 14.5063 14.2654 14.5063 14.6107C14.5063 14.956 14.2266 15.2357 13.8813 15.2357Z" fill="#F2A56B"/>
</svg>
