<?xml version="1.0" encoding="UTF-8"?>
<svg width="134px" height="151px" viewBox="0 0 134 151" version="1.1" xmlns="http://www.w3.org/2000/svg" xmlns:xlink="http://www.w3.org/1999/xlink">
    <!-- Generator: Sketch 59.1 (86144) - https://sketch.com -->
    <title>编辑昵称头像</title>
    <desc>Created with Sketch.</desc>
    <defs>
        <linearGradient x1="10.624534%" y1="6.80044777%" x2="87.1724806%" y2="98.0740451%" id="linearGradient-1">
            <stop stop-color="#0081FF" offset="0%"></stop>
            <stop stop-color="#005BFF" offset="100%"></stop>
        </linearGradient>
    </defs>
    <g id="页面-1" stroke="none" stroke-width="1" fill="none" fill-rule="evenodd">
        <g id="5" transform="translate(-496.000000, -426.000000)" fill="url(#linearGradient-1)">
            <g id="身体指标" transform="translate(79.000000, 363.000000)">
                <g id="编辑名称" transform="translate(387.000000, 63.000000)">
                    <path d="M95.4945967,0 C117.333928,0 135,17.2468003 135,38.5 C135,59.7531997 117.312304,77 95.4945967,77 C73.6877006,77 56,59.7531997 56,38.5 C55.9891933,17.2468003 73.6877006,0 95.4945967,0 Z M80.659191,87 L113.340809,87 C141.321426,87 164,109.206044 164,136.60561 L164,139.790115 C164,150.593922 141.321426,151 113.340809,151 L80.659191,151 C52.6893071,151 30,150.978628 30,139.790115 L30,136.60561 C30,109.206044 52.6678414,87 80.659191,87 Z" id="编辑昵称头像"></path>
                </g>
            </g>
        </g>
    </g>
</svg>