<?xml version="1.0" encoding="UTF-8"?>
<svg width="63px" height="63px" viewBox="0 0 63 63" version="1.1" xmlns="http://www.w3.org/2000/svg" xmlns:xlink="http://www.w3.org/1999/xlink">
    <!-- Generator: Sketch 59.1 (86144) - https://sketch.com -->
    <title>基层代谢</title>
    <desc>Created with Sketch.</desc>
    <defs>
        <linearGradient x1="0%" y1="6.80044777%" x2="97.2025913%" y2="98.0740451%" id="linearGradient-1">
            <stop stop-color="#0081FF" offset="0%"></stop>
            <stop stop-color="#005BFF" offset="100%"></stop>
        </linearGradient>
    </defs>
    <g id="页面-1" stroke="none" stroke-width="1" fill="none" fill-rule="evenodd">
        <g id="3" transform="translate(-144.000000, -1717.000000)">
            <g id="编组-2" transform="translate(79.000000, 925.000000)">
                <g id="脂肪量备份-10" transform="translate(65.000000, 792.000000)">
                    <g id="基层代谢">
                        <rect id="矩形" fill="url(#linearGradient-1)" x="0" y="0" width="63" height="63" rx="10"></rect>
                        <path d="M32.2525333,52 C24.8874883,51.854554 18.811104,46.2991004 18.1429101,39.1 C16.959805,26.458 23.4449735,23.706 25.7235462,19.406 C27.7172056,16.3118956 28.5392381,12.6285927 28.0459376,9 C33.2128041,9.80658912 37.4344478,13.4797305 38.8691579,18.417 C40.2774614,22.4763935 40.4900934,26.8433335 39.4826197,31.016 C41.7409346,28.1018112 43.2446114,24.6932162 43.8644903,21.083 C44.5655896,18.417 55.3888099,51.312 32.2525333,52 Z" id="路径" fill="#FFFFFF" fill-rule="nonzero"></path>
                    </g>
                </g>
            </g>
        </g>
    </g>
</svg>