<?xml version="1.0" encoding="UTF-8"?>
<svg width="63px" height="63px" viewBox="0 0 63 63" version="1.1" xmlns="http://www.w3.org/2000/svg" xmlns:xlink="http://www.w3.org/1999/xlink">
    <!-- Generator: Sketch 59.1 (86144) - https://sketch.com -->
    <title>水分</title>
    <desc>Created with Sketch.</desc>
    <defs>
        <linearGradient x1="0%" y1="6.80044777%" x2="97.2025913%" y2="98.0740451%" id="linearGradient-1">
            <stop stop-color="#0081FF" offset="0%"></stop>
            <stop stop-color="#005BFF" offset="100%"></stop>
        </linearGradient>
    </defs>
    <g id="页面-1" stroke="none" stroke-width="1" fill="none" fill-rule="evenodd">
        <g id="2" transform="translate(-144.000000, -1980.000000)">
            <g id="编组-2" transform="translate(79.000000, 925.000000)">
                <g id="脂肪量备份-5" transform="translate(65.000000, 1055.000000)">
                    <g id="水分">
                        <rect id="矩形" fill="url(#linearGradient-1)" x="0" y="0" width="63" height="63" rx="10"></rect>
                        <path d="M40.0108204,31.3717499 L29.4497198,13.0395899 C29.0220971,12.3916193 28.2860885,12 27.4959162,12 C26.7057438,12 25.9697352,12.3916193 25.5421125,13.0395899 L14.9810119,31.3717499 C12.3325816,35.8449329 12.3401584,41.357925 15.0008745,45.8241691 C17.6615906,50.2904133 22.5689268,53.0275314 27.8655547,52.9997911 L27.8655547,52.9997911 C33.0296816,52.7776004 37.6999866,49.9417562 40.1828007,45.5204548 C42.6656148,41.0991535 42.6004054,35.734418 40.0108204,31.3717499 Z" id="形状" fill="#FFFFFF" fill-rule="nonzero"></path>
                        <path d="M54.9025216,17.3946505 L49.0757075,7.55783158 C48.8397777,7.21013823 48.433704,7 47.9977468,7 C47.5617897,7 47.155716,7.21013823 46.9197862,7.55783158 L41.0929721,17.3946505 C39.6317692,19.7949072 39.6359494,22.7531132 41.1039308,25.1496466 C42.5719121,27.5461801 45.2794079,29.0148851 48.2016853,29 L48.2016853,29 C51.0508588,28.8807751 53.6275788,27.3590949 54.9974073,24.9866772 C56.3672358,22.6142595 56.3312582,19.7356062 54.9025216,17.3946505 Z" id="形状备份" fill="#FFFFFF" fill-rule="nonzero"></path>
                    </g>
                </g>
            </g>
        </g>
    </g>
</svg>