<?xml version="1.0" encoding="UTF-8"?>
<svg width="48px" height="68px" viewBox="0 0 48 68" version="1.1" xmlns="http://www.w3.org/2000/svg" xmlns:xlink="http://www.w3.org/1999/xlink">
    <title>时长-倒计时</title>
    <g id="页面-1" stroke="none" stroke-width="1" fill="none" fill-rule="evenodd">
        <g id="2" transform="translate(-375.000000, -901.000000)" fill-rule="nonzero">
            <g id="定时-2" transform="translate(79.000000, 630.000000)">
                <g id="定时">
                    <g id="编组-3" transform="translate(122.000000, 271.000000)">
                        <g id="时长-倒计时" transform="translate(177.000000, 3.000000)">
                            <path d="M15.7216581,42.0093491 C15.418409,42.0099389 15.1183723,42.0721922 14.8393832,42.1924085 C11.0826844,43.8011858 8.24356845,47.0377827 7.11155993,51.0021397 C6.85534857,51.7966916 7.04777267,52.6693309 7.61350448,53.2784478 C8.17923629,53.8875648 9.02827673,54.1362583 9.8282542,53.9271731 C10.6282317,53.7180879 11.2518823,53.0844861 11.4550672,52.2744021 C12.2253904,49.637556 14.1156319,47.4840798 16.612982,46.398197 C17.6114245,45.9743466 18.1729316,44.8942918 17.9523082,43.8220131 C17.7316847,42.7497344 16.790803,41.985945 15.7080846,42.0001961 L15.7216581,42.0093491 Z" id="路径" fill="#B6C4D2"></path>
                            <path d="M42,62 L0.00594173123,62 L0.00594173123,55.1229539 C-0.267216177,43.7286911 8.91203541,34.2742364 20.5083742,34.0058382 C32.104713,33.73744 41.7268415,42.7567352 42,54.1509981 L42,62 L42,62 Z" id="路径" stroke="#B6C4D2" stroke-width="5"></path>
                            <path d="M21,27 C9.40735092,26.9876 0.0128592909,17.9286259 0,6.74999997 L0,0 L42,0 L42,6.74999997 C41.9871407,17.9286259 32.5926491,26.9876 21,27 Z" id="路径" stroke="#B6C4D2" stroke-width="5" fill="#B6C4D2"></path>
                        </g>
                    </g>
                </g>
            </g>
        </g>
    </g>
</svg>