<svg width="29" height="29" viewBox="0 0 29 29" fill="none" xmlns="http://www.w3.org/2000/svg">
<path d="M27.1156 0.99585C27.7594 0.99585 28.2819 1.51366 28.2865 2.15741C28.2903 2.79491 27.7765 3.31522 27.139 3.31897H24.7834V6.50991C24.7834 10.2208 22.4509 13.3955 19.0687 14.9908C22.4509 16.5699 24.7834 19.7608 24.7834 23.4718V26.6627H27.1159C27.7575 26.6627 28.2775 27.1827 28.2775 27.8243C28.2775 28.4659 27.7575 28.9858 27.1159 28.9858H1.4531L1.2431 28.9671C0.61029 28.8702 0.175602 28.2787 0.272477 27.6458C0.361227 27.0652 0.870602 26.6427 1.45779 26.6624H3.80904V23.4721C3.80904 19.7612 6.13935 16.5865 9.52373 14.9912C6.13935 13.4121 3.80904 10.2212 3.80904 6.51022V3.31897H1.45779C0.816227 3.31897 0.296227 2.79897 0.296227 2.15741C0.296227 1.51585 0.816227 0.99585 1.45779 0.99585H27.1156ZM22.4503 3.31897H6.13435V6.49366C6.13435 9.25772 7.87685 11.8002 10.559 13.0784C11.3709 13.5052 11.835 14.2493 11.835 14.9912C11.8584 15.8349 11.3469 16.6015 10.559 16.904C7.8931 18.1821 6.13435 20.7246 6.13654 23.4887V26.6937H7.4356V25.3408C7.4356 22.8449 8.35466 20.109 11.205 18.4459L11.6715 18.1915C12.7353 17.7321 13.6075 16.7593 14.2862 15.2759C14.8228 16.6496 15.7325 17.6224 17.02 18.1915C20.5187 19.9993 21.0715 22.7165 21.0715 25.3405V26.6933H22.45V23.5046C22.45 20.7405 20.71 18.198 18.0275 16.9174C17.2159 16.4905 16.7515 15.7487 16.7515 15.0046C16.7515 14.1534 17.2156 13.4115 18.0275 13.0943C20.6934 11.8183 22.45 9.27585 22.45 6.5096V3.31897H22.4503ZM20.8294 7.99335C20.8294 9.5096 18.9634 11.2077 17.2234 11.9283C16.1831 12.3599 15.2034 13.1715 14.2869 14.3637C13.419 13.1718 12.4675 12.3599 11.4387 11.9287C9.57967 11.1496 7.98904 9.58929 7.98904 7.99366H20.8294V7.99335Z" fill="#F2A56B"/>
</svg>
