<svg width="32" height="32" viewBox="0 0 32 32" fill="none" xmlns="http://www.w3.org/2000/svg">
<path d="M27.648 0C29.504 0 31.168 1.184 31.776 2.976C32.384 4.768 31.776 6.72 30.272 7.84C28.832 5.28 26.72 3.168 24.192 1.728C24.992 0.64 26.272 0 27.648 0ZM3.42399 0.096C5.11999 -0.256 6.87999 0.416 7.87199 1.824C5.34399 3.296 3.29599 5.408 1.85599 7.968C0.447988 6.944 -0.256012 5.216 0.0959882 3.52C0.415988 1.792 1.72799 0.48 3.42399 0.096ZM15.232 7.872C14.848 7.84 14.432 7.936 14.144 8.224C13.856 8.48 13.664 8.864 13.664 9.28V17.664C13.664 18.144 14.048 18.528 14.528 18.528H20.864C21.28 18.528 21.664 18.368 21.92 18.048C22.176 17.76 22.304 17.344 22.272 16.96C22.176 16.256 21.568 15.712 20.832 15.712H16.448V9.312C16.448 8.576 15.936 7.968 15.232 7.872V7.872ZM16.128 1.6C22.112 1.6 27.488 5.376 29.536 11.04C31.584 16.704 29.92 23.04 25.344 26.944L27.648 29.248C28.288 29.888 28.288 30.88 27.648 31.52C27.36 31.808 26.944 32 26.528 32C26.112 32 25.696 31.84 25.408 31.52L22.656 28.768C18.528 30.912 13.632 30.88 9.50399 28.736L6.71999 31.52C6.43199 31.808 6.01599 32 5.59999 32C5.18399 32 4.76799 31.84 4.47999 31.52C3.83999 30.88 3.83999 29.888 4.47999 29.248L6.81599 26.912C2.20799 22.976 0.575988 16.64 2.65599 10.976C4.73599 5.344 10.112 1.6 16.128 1.6Z" fill="#F2A56B"/>
</svg>
