<svg width="24" height="24" viewBox="0 0 24 24" fill="none" xmlns="http://www.w3.org/2000/svg">
<path fill-rule="evenodd" clip-rule="evenodd" d="M13.2058 2.4V1.2C13.2058 0.537258 12.6685 0 12.0058 0C11.3431 0 10.8058 0.537258 10.8058 1.2V2.4C10.8058 3.06274 11.3431 3.6 12.0058 3.6C12.6685 3.6 13.2058 3.06274 13.2058 2.4ZM17.097 8.10883C18.4472 9.45909 19.2058 11.2904 19.2058 13.2V19.2C19.2058 19.5183 19.0794 19.8235 18.8543 20.0485C18.6293 20.2736 18.3241 20.4 18.0058 20.4H6.0058C5.34306 20.4 4.8058 19.8627 4.8058 19.2V13.2C4.8058 9.22355 8.02935 6 12.0058 6C13.9154 6 15.7467 6.75857 17.097 8.10883ZM20.4058 21.6C21.0685 21.6 21.6058 22.1373 21.6058 22.8C21.6058 23.4627 21.0685 24 20.4058 24H3.6058C2.94306 24 2.4058 23.4627 2.4058 22.8C2.4058 22.1373 2.94306 21.6 3.6058 21.6H20.4058ZM19.8914 3.18952C19.9409 3.50391 19.8635 3.82509 19.6762 4.0824L18.9718 5.0544C18.5821 5.59056 17.8316 5.70929 17.2954 5.3196C16.7592 4.92991 16.6405 4.17936 17.0302 3.6432L17.7358 2.6712C17.9231 2.41389 18.2049 2.24151 18.5193 2.192C18.8337 2.1425 19.1549 2.2199 19.4122 2.4072C19.6695 2.5933 19.8419 2.87514 19.8914 3.18952ZM23.1718 10.218C23.802 10.0132 24.1469 9.33626 23.9422 8.706C23.7374 8.07576 23.0605 7.73085 22.4302 7.9356L21.289 8.3064C20.6584 8.51152 20.3135 9.189 20.5186 9.8196C20.7237 10.4502 21.4012 10.7951 22.0318 10.59L23.1718 10.218ZM1.5706 7.9356L2.7118 8.3076C3.13262 8.42935 3.45366 8.77074 3.54934 9.19824C3.64501 9.62574 3.50013 10.0714 3.17136 10.3609C2.84258 10.6504 2.38216 10.7378 1.9702 10.5888L0.830198 10.218C0.527323 10.1199 0.275851 9.90544 0.131136 9.62186C-0.0135786 9.33829 -0.0396727 9.00882 0.0585977 8.706C0.263417 8.07576 0.940334 7.73085 1.5706 7.9356ZM6.2758 2.6724C6.08886 2.41471 5.8072 2.24186 5.49279 2.1919C5.17838 2.14193 4.85701 2.21895 4.5994 2.4048C4.3419 2.59191 4.16928 2.87367 4.11955 3.18807C4.06981 3.50246 4.14703 3.82374 4.3342 4.0812L5.0398 5.052C5.28572 5.41389 5.70912 5.61325 6.14474 5.57226C6.58035 5.53127 6.95913 5.25643 7.13323 4.85502C7.30733 4.45361 7.24915 3.98925 6.9814 3.6432L6.2758 2.6724Z" fill="#6822FF"/>
</svg>
