<svg width="24" height="24" viewBox="0 0 24 24" fill="none" xmlns="http://www.w3.org/2000/svg">
<path d="M20.4293 1.5H3.57225C2.83425 1.5 2.15625 2.0925 2.15625 2.865V21.135C2.15625 21.906 2.77125 22.5 3.57075 22.5H20.4278C21.2273 22.5 21.8423 21.906 21.8423 21.135V2.865C21.8453 2.0925 21.1673 1.5 20.4293 1.5ZM6.71025 12C6.15675 12 5.66325 11.526 5.66325 10.992C5.66325 10.458 6.15525 9.984 6.70875 9.984C7.26225 9.984 7.75425 10.458 7.75425 10.992C7.75331 11.1272 7.72539 11.2608 7.67214 11.385C7.61889 11.5092 7.54137 11.6216 7.44414 11.7155C7.3469 11.8093 7.2319 11.8829 7.10588 11.9317C6.97986 11.9806 6.84536 12.0038 6.71025 12ZM6.71025 7.254C6.15675 7.254 5.66475 6.78 5.66475 6.246C5.66475 5.712 6.15675 5.238 6.71025 5.238C7.26375 5.238 7.75575 5.712 7.75575 6.246C7.7544 6.38117 7.72617 6.51472 7.67268 6.63886C7.61919 6.763 7.54153 6.87526 7.44422 6.96908C7.34691 7.0629 7.23189 7.13641 7.10588 7.18533C6.97987 7.23425 6.84538 7.25759 6.71025 7.254ZM17.2913 12H10.2172C9.66225 12 9.17025 11.526 9.17025 10.992C9.17025 10.458 9.66225 9.984 10.2158 9.984H17.2298C17.7833 9.984 18.2752 10.458 18.2752 10.992C18.2769 11.2557 18.1745 11.5094 17.9903 11.6981C17.8061 11.8868 17.5549 11.9953 17.2913 12ZM17.2913 7.254H10.2172C9.66375 7.254 9.17175 6.78 9.17175 6.246C9.17175 5.712 9.66375 5.238 10.2172 5.238H17.2313C17.7848 5.238 18.2768 5.712 18.2768 6.246C18.2776 6.50972 18.1747 6.7632 17.9904 6.95177C17.806 7.14034 17.5549 7.24888 17.2913 7.254Z" fill="#6822FF"/>
</svg>
