<?xml version="1.0" encoding="UTF-8"?>
<svg width="87px" height="90px" viewBox="0 0 87 90" version="1.1" xmlns="http://www.w3.org/2000/svg" xmlns:xlink="http://www.w3.org/1999/xlink">
    <!-- Generator: Sketch 59.1 (86144) - https://sketch.com -->
    <title>黄油饼干</title>
    <desc>Created with Sketch.</desc>
    <defs>
        <path d="M0,30.0488333 C0,46.5899167 13.4100833,60 29.9511667,60 L29.9511667,60 C46.4896667,60 59.9023333,46.5899167 59.9023333,30.0488333 L59.9023333,30.0488333 C59.9023333,13.50775 46.4896667,0.0976666667 29.9511667,0.0976666667 L29.9511667,0.0976666667 C13.4100833,0.0976666667 0,13.50775 0,30.0488333" id="path-1"></path>
        <linearGradient x1="23.4999819%" y1="7.59391064%" x2="75.2145549%" y2="82.4009274%" id="linearGradient-3">
            <stop stop-color="#5574F4" offset="0%"></stop>
            <stop stop-color="#1CD6FC" offset="49.4747677%"></stop>
            <stop stop-color="#374F6B" offset="100%"></stop>
        </linearGradient>
        <path d="M30.94575,0.211583333 C14.4046667,0.211583333 0.994583333,13.6190833 0.994583333,30.16275 L0.994583333,30.16275 C0.994583333,46.70125 14.4046667,60.1113333 30.94575,60.1113333 L30.94575,60.1113333 C47.4868333,60.1113333 60.8969167,46.70125 60.8969167,30.16275 L60.8969167,30.16275 C60.8969167,24.83075 59.489,19.8345833 57.0451667,15.4971667 L57.0451667,15.4971667 C31.48825,23.6475833 33.78225,2.34283333 34.04575,0.37175 L34.04575,0.37175 C33.0253333,0.265833333 31.992,0.211583333 30.94575,0.211583333 Z" id="path-4"></path>
        <linearGradient x1="23.4666569%" y1="7.61662262%" x2="75.8500812%" y2="84.3009937%" id="linearGradient-6">
            <stop stop-color="#5476F4" offset="0%"></stop>
            <stop stop-color="#14D3FC" offset="48.9634105%"></stop>
            <stop stop-color="#374F6B" offset="100%"></stop>
        </linearGradient>
    </defs>
    <g id="页面-1" stroke="none" stroke-width="1" fill="none" fill-rule="evenodd">
        <g id="2备份" transform="translate(-399.000000, -342.000000)">
            <g id="工作模式未选中" transform="translate(182.000000, 342.000000)">
                <g id="黄油饼干" transform="translate(217.000000, 0.000000)">
                    <g id="编组" transform="translate(0.000000, 30.000000)">
                        <mask id="mask-2" fill="white">
                            <use xlink:href="#path-1"></use>
                        </mask>
                        <g id="Clip-2"></g>
                        <path d="M29.9511667,60 C46.4896667,60 59.9023333,46.5899167 59.9023333,30.0488333 C59.9023333,13.50775 46.4896667,0.0976666667 29.9511667,0.0976666667 C13.4100833,0.0976666667 0,13.50775 0,30.0488333 C0,46.5899167 13.4100833,60 29.9511667,60 Z" id="Fill-1" fill="url(#linearGradient-3)" mask="url(#mask-2)"></path>
                    </g>
                    <g id="编组" transform="translate(12.000000, 44.000000)" fill="#374F6B">
                        <path d="M14.9552286,3.76758462 C14.9552286,5.51204615 13.5640857,6.92696923 11.8489429,6.92696923 C10.1338,6.92696923 8.74008571,5.51204615 8.74008571,3.76758462 C8.74008571,2.02312308 10.1338,0.6082 11.8489429,0.6082 C13.5640857,0.6082 14.9552286,2.02312308 14.9552286,3.76758462" id="Fill-3"></path>
                        <path d="M6.38362857,12.5945077 C6.38362857,14.3389692 4.99248571,15.7538923 3.27734286,15.7538923 C1.5622,15.7538923 0.168485714,14.3389692 0.168485714,12.5945077 C0.168485714,10.8500462 1.5622,9.43512308 3.27734286,9.43512308 C4.99248571,9.43512308 6.38362857,10.8500462 6.38362857,12.5945077" id="Fill-5"></path>
                        <path d="M20.6342286,16.4090462 C20.6342286,18.1535077 19.2430857,19.5684308 17.5279429,19.5684308 C15.8102286,19.5684308 14.4190857,18.1535077 14.4190857,16.4090462 C14.4190857,14.6645846 15.8102286,13.2496615 17.5279429,13.2496615 C19.2430857,13.2496615 20.6342286,14.6645846 20.6342286,16.4090462" id="Fill-7"></path>
                        <path d="M10.5622,24.6906615 C10.5622,26.4351231 9.17105714,27.8500462 7.45591429,27.8500462 C5.74077143,27.8500462 4.34705714,26.4351231 4.34705714,24.6906615 C4.34705714,22.9462 5.74077143,21.5312769 7.45591429,21.5312769 C9.17105714,21.5312769 10.5622,22.9462 10.5622,24.6906615" id="Fill-9"></path>
                        <path d="M22.3480857,29.0492 C22.3480857,30.7936615 20.9569429,32.2085846 19.2418,32.2085846 C17.5266571,32.2085846 16.1329429,30.7936615 16.1329429,29.0492 C16.1329429,27.3047385 17.5266571,25.8898154 19.2418,25.8898154 C20.9569429,25.8898154 22.3480857,27.3047385 22.3480857,29.0492" id="Fill-11"></path>
                        <path d="M32.5270857,22.1838154 C32.5270857,23.9282769 31.1359429,25.3432 29.4208,25.3432 C27.7030857,25.3432 26.3119429,23.9282769 26.3119429,22.1838154 C26.3119429,20.4393538 27.7030857,19.0244308 29.4208,19.0244308 C31.1359429,19.0244308 32.5270857,20.4393538 32.5270857,22.1838154" id="Fill-13"></path>
                    </g>
                    <g id="编组" transform="translate(26.000000, 0.000000)">
                        <mask id="mask-5" fill="white">
                            <use xlink:href="#path-4"></use>
                        </mask>
                        <g id="Clip-16"></g>
                        <path d="M30.94575,0.211583333 C14.4046667,0.211583333 0.994583333,13.6190833 0.994583333,30.16275 L0.994583333,30.16275 C0.994583333,46.70125 14.4046667,60.1113333 30.94575,60.1113333 L30.94575,60.1113333 C47.4868333,60.1113333 60.8969167,46.70125 60.8969167,30.16275 L60.8969167,30.16275 C60.8969167,24.83075 59.489,19.8345833 57.0451667,15.4971667 L57.0451667,15.4971667 C31.48825,23.6475833 33.78225,2.34283333 34.04575,0.37175 L34.04575,0.37175 C33.0253333,0.265833333 31.992,0.211583333 30.94575,0.211583333 Z" id="Fill-15" fill="url(#linearGradient-6)" mask="url(#mask-5)"></path>
                    </g>
                    <g id="编组" transform="translate(39.000000, 15.000000)" fill="#374F6B">
                        <path d="M15.6373846,3.21456923 C15.6373846,4.95903077 14.2224615,6.37395385 12.478,6.37395385 C10.7335385,6.37395385 9.316,4.95903077 9.316,3.21456923 C9.316,1.47010769 10.7335385,0.0551846154 12.478,0.0551846154 C14.2224615,0.0551846154 15.6373846,1.47010769 15.6373846,3.21456923" id="Fill-17"></path>
                        <path d="M6.92030769,12.0414923 C6.92030769,13.7859538 5.50538462,15.2008769 3.76092308,15.2008769 C2.01384615,15.2008769 0.598923077,13.7859538 0.598923077,12.0414923 C0.598923077,10.2970308 2.01384615,8.88210769 3.76092308,8.88210769 C5.50538462,8.88210769 6.92030769,10.2970308 6.92030769,12.0414923" id="Fill-19"></path>
                        <path d="M21.4134615,15.8560308 C21.4134615,17.6004923 19.9985385,19.0154154 18.2540769,19.0154154 C16.5096154,19.0154154 15.0920769,17.6004923 15.0920769,15.8560308 C15.0920769,14.1115692 16.5096154,12.6966462 18.2540769,12.6966462 C19.9985385,12.6966462 21.4134615,14.1115692 21.4134615,15.8560308" id="Fill-21"></path>
                        <path d="M11.1703077,24.1376462 C11.1703077,25.8821077 9.75538462,27.2970308 8.01092308,27.2970308 C6.26384615,27.2970308 4.84892308,25.8821077 4.84892308,24.1376462 C4.84892308,22.3931846 6.26384615,20.9782615 8.01092308,20.9782615 C9.75538462,20.9782615 11.1703077,22.3931846 11.1703077,24.1376462" id="Fill-23"></path>
                        <path d="M23.1566154,28.4961846 C23.1566154,30.2406462 21.7416923,31.6555692 19.9972308,31.6555692 C18.2527692,31.6555692 16.8352308,30.2406462 16.8352308,28.4961846 C16.8352308,26.7517231 18.2527692,25.3368 19.9972308,25.3368 C21.7416923,25.3368 23.1566154,26.7517231 23.1566154,28.4961846" id="Fill-25"></path>
                        <path d="M33.5096154,21.6308 C33.5096154,23.3752615 32.0946923,24.7901846 30.3502308,24.7901846 C28.6057692,24.7901846 27.1882308,23.3752615 27.1882308,21.6308 C27.1882308,19.8863385 28.6057692,18.4714154 30.3502308,18.4714154 C32.0946923,18.4714154 33.5096154,19.8863385 33.5096154,21.6308" id="Fill-27"></path>
                    </g>
                </g>
            </g>
        </g>
    </g>
</svg>