<?xml version="1.0" encoding="UTF-8"?>
<svg width="81px" height="92px" viewBox="0 0 81 92" version="1.1" xmlns="http://www.w3.org/2000/svg" xmlns:xlink="http://www.w3.org/1999/xlink">
    <!-- Generator: Sketch 59.1 (86144) - https://sketch.com -->
    <title>烤薯类</title>
    <desc>Created with Sketch.</desc>
    <defs>
        <path d="M64.126485,0.989448052 L63.204057,2.87081818 L34.0086195,2.87081818 C5.3660475,13.2474773 1.6704225,32.358237 1.6704225,32.358237 L1.6704225,32.358237 C0.5173875,38.5411299 0.0206955,44.3046461 0,49.61675 L0,49.61675 L0,50.3360974 C0.1093905,76.8762305 12.0181725,92 12.0181725,92 L12.0181725,92 C36.0426915,79.2585227 70.1311365,33.4503636 72.416511,28.511039 L72.416511,28.511039 C74.651625,21.8388734 73.5074595,7.39950325 73.0403325,2.58540909 L73.0403325,2.58540909 C72.948681,1.67675974 72.1770345,0.989448052 71.2486935,0.989448052 L71.2486935,0.989448052 L64.126485,0.989448052 Z" id="path-1"></path>
        <path d="M0.2835,31.876709 C6.29811818,54.4069699 21.3935727,61.7225552 21.3935727,61.7225552 L21.3935727,61.7225552 C28.0827,58.9124415 29.7380455,46.4817525 29.7380455,46.4817525 L29.7380455,46.4817525 C29.7380455,46.4817525 30.8425909,26.1926154 29.7380455,15.2772977 L29.7380455,15.2772977 C28.9103727,6.74825418 20.0769545,0.309377926 20.0769545,0.309377926 L20.0769545,0.309377926 C-2.75326364,10.1941271 0.2835,31.876709 0.2835,31.876709" id="path-3"></path>
    </defs>
    <g id="页面-1" stroke="none" stroke-width="1" fill="none" fill-rule="evenodd">
        <g id="2备份" transform="translate(-551.000000, -1647.000000)">
            <g id="工作模式" transform="translate(117.000000, 1348.000000)">
                <g id="烤薯类" transform="translate(434.000000, 299.000000)">
                    <g id="编组">
                        <mask id="mask-2" fill="white">
                            <use xlink:href="#path-1"></use>
                        </mask>
                        <g id="Clip-2"></g>
                        <path d="M71.2486935,0.989448052 L71.4018764,0.99573215 C72.2606742,1.06649916 72.9537727,1.72724026 73.0403325,2.58540909 L73.0403325,2.58540909 L73.0655214,2.84757616 C73.5465656,7.90375717 74.6124125,21.9559289 72.416511,28.511039 L72.416511,28.511039 L72.3384507,28.6714054 C69.450374,34.3632202 35.8024463,79.3859375 12.0181725,92 L12.0181725,92 C11.8035653,91.7250664 2.24203857,79.3683662 0.32996677,57.5837579 C12.8211544,69.746152 27.6960696,67.2488889 27.6960696,67.2488889 C19.2532207,67.0094995 0.604586582,52.1040896 0.0143479067,51.630684 L0.00679782428,51.1288728 L0.00679782428,51.1288728 L0,50.3360974 L0,49.61675 L0.00788754861,48.7272251 C0.07790925,43.662961 0.581445,38.1976358 1.6704225,32.358237 L1.6704225,32.358237 C1.74682969,31.9768952 5.65247322,13.1437107 34.0086195,2.87081818 L34.0086195,2.87081818 L63.204057,2.87081818 L64.126485,0.989448052 L71.2486935,0.989448052 Z M0.228909851,56.3253998 L0.188291157,55.7404332 C0.201209333,55.9361426 0.214752724,56.131132 0.228909851,56.3253998 Z M61.447,29.7504481 L61.4599824,29.7574568 L61.4599824,29.7574568 L61.4642754,29.7595266 L61.447,29.7504481 Z M32.4594289,3.47356844 L27.6390129,5.53095974 C46.5390731,22.3520093 60.599206,29.3368812 61.4258039,29.7408346 L61.447,29.7504481 L61.35653,29.7032641 C57.6217929,27.6431492 32.9648111,3.95916657 32.4670713,3.48091247 L32.4594289,3.47356844 Z" id="形状结合" fill="#FFFFFF" mask="url(#mask-2)"></path>
                    </g>
                    <g id="编组" transform="translate(50.625000, 28.000000)">
                        <mask id="mask-4" fill="white">
                            <use xlink:href="#path-3"></use>
                        </mask>
                        <g id="Clip-4"></g>
                        <path d="M0.2835,31.876709 C6.29811818,54.4069699 21.3935727,61.7225552 21.3935727,61.7225552 L21.3935727,61.7225552 C28.0827,58.9124415 29.7380455,46.4817525 29.7380455,46.4817525 L29.7380455,46.4817525 C29.7380455,46.4817525 30.8425909,26.1926154 29.7380455,15.2772977 L29.7380455,15.2772977 C28.9103727,6.74825418 20.0769545,0.309377926 20.0769545,0.309377926 L20.0769545,0.309377926 C-2.75326364,10.1941271 0.2835,31.876709 0.2835,31.876709" id="Fill-3" fill-opacity="0.85" fill="#FFFFFF" mask="url(#mask-4)"></path>
                    </g>
                    <g id="编组" transform="translate(0.000000, 3.000000)"></g>
                </g>
            </g>
        </g>
    </g>
</svg>