<?xml version="1.0" encoding="UTF-8"?>
<svg width="81px" height="92px" viewBox="0 0 81 92" version="1.1" xmlns="http://www.w3.org/2000/svg" xmlns:xlink="http://www.w3.org/1999/xlink">
    <!-- Generator: Sketch 59.1 (86144) - https://sketch.com -->
    <title>烤薯类</title>
    <desc>Created with Sketch.</desc>
    <defs>
        <path d="M64.126485,0.989448052 L63.204057,2.87081818 L34.0086195,2.87081818 C5.3660475,13.2474773 1.6704225,32.358237 1.6704225,32.358237 L1.6704225,32.358237 C0.5173875,38.5411299 0.0206955,44.3046461 0,49.61675 L0,49.61675 L0,50.3360974 C0.1093905,76.8762305 12.0181725,92 12.0181725,92 L12.0181725,92 C36.0426915,79.2585227 70.1311365,33.4503636 72.416511,28.511039 L72.416511,28.511039 C74.651625,21.8388734 73.5074595,7.39950325 73.0403325,2.58540909 L73.0403325,2.58540909 C72.948681,1.67675974 72.1770345,0.989448052 71.2486935,0.989448052 L71.2486935,0.989448052 L64.126485,0.989448052 Z" id="path-1"></path>
        <linearGradient x1="50.0000134%" y1="0%" x2="50.0000134%" y2="100%" id="linearGradient-3">
            <stop stop-color="#4A84F5" offset="0%"></stop>
            <stop stop-color="#12D5FC" offset="47.9043497%"></stop>
            <stop stop-color="#374F6B" offset="100%"></stop>
        </linearGradient>
        <path d="M0.2835,31.876709 C6.29811818,54.4069699 21.3935727,61.7225552 21.3935727,61.7225552 L21.3935727,61.7225552 C28.0827,58.9124415 29.7380455,46.4817525 29.7380455,46.4817525 L29.7380455,46.4817525 C29.7380455,46.4817525 30.8425909,26.1926154 29.7380455,15.2772977 L29.7380455,15.2772977 C28.9103727,6.74825418 20.0769545,0.309377926 20.0769545,0.309377926 L20.0769545,0.309377926 C-2.75326364,10.1941271 0.2835,31.876709 0.2835,31.876709" id="path-4"></path>
        <linearGradient x1="50.0040388%" y1="-0.00432994564%" x2="50.0040388%" y2="100.001579%" id="linearGradient-6">
            <stop stop-color="#0074FF" offset="0%"></stop>
            <stop stop-color="#12D6FD" offset="45.1013514%"></stop>
            <stop stop-color="#374F6B" offset="100%"></stop>
        </linearGradient>
    </defs>
    <g id="页面-1" stroke="none" stroke-width="1" fill="none" fill-rule="evenodd">
        <g id="2备份" transform="translate(-616.000000, -641.000000)">
            <g id="工作模式未选中" transform="translate(182.000000, 342.000000)">
                <g id="烤薯类" transform="translate(434.000000, 299.000000)">
                    <g id="编组">
                        <mask id="mask-2" fill="white">
                            <use xlink:href="#path-1"></use>
                        </mask>
                        <g id="Clip-2"></g>
                        <path d="M64.126485,0.989448052 L63.204057,2.87081818 L34.0086195,2.87081818 C5.3660475,13.2474773 1.6704225,32.358237 1.6704225,32.358237 L1.6704225,32.358237 C0.5173875,38.5411299 0.0206955,44.3046461 0,49.61675 L0,49.61675 L0,50.3360974 C0.1093905,76.8762305 12.0181725,92 12.0181725,92 L12.0181725,92 C36.0426915,79.2585227 70.1311365,33.4503636 72.416511,28.511039 L72.416511,28.511039 C74.651625,21.8388734 73.5074595,7.39950325 73.0403325,2.58540909 L73.0403325,2.58540909 C72.948681,1.67675974 72.1770345,0.989448052 71.2486935,0.989448052 L71.2486935,0.989448052 L64.126485,0.989448052 Z" id="Fill-1" fill="url(#linearGradient-3)" mask="url(#mask-2)"></path>
                    </g>
                    <g id="编组" transform="translate(50.625000, 28.000000)">
                        <mask id="mask-5" fill="white">
                            <use xlink:href="#path-4"></use>
                        </mask>
                        <g id="Clip-4"></g>
                        <path d="M0.2835,31.876709 C6.29811818,54.4069699 21.3935727,61.7225552 21.3935727,61.7225552 L21.3935727,61.7225552 C28.0827,58.9124415 29.7380455,46.4817525 29.7380455,46.4817525 L29.7380455,46.4817525 C29.7380455,46.4817525 30.8425909,26.1926154 29.7380455,15.2772977 L29.7380455,15.2772977 C28.9103727,6.74825418 20.0769545,0.309377926 20.0769545,0.309377926 L20.0769545,0.309377926 C-2.75326364,10.1941271 0.2835,31.876709 0.2835,31.876709" id="Fill-3" fill="url(#linearGradient-6)" mask="url(#mask-5)"></path>
                    </g>
                    <g id="编组" transform="translate(0.000000, 3.000000)" fill="#0074FF">
                        <path d="M0,48.6191626 C0,48.6191626 19.1169643,64.0056361 27.6960696,64.2488889 C27.6960696,64.2488889 12.7877786,66.7517552 0.288225,54.5422222 L0,48.6191626 Z" id="Fill-5"></path>
                        <path d="M32.4594289,0.473568438 C32.4594289,0.473568438 58.0938075,25.1124412 61.4642754,26.7595266 C61.4642754,26.7595266 47.1236111,19.872248 27.6390129,2.53095974 L32.4594289,0.473568438 Z" id="Fill-7"></path>
                    </g>
                </g>
            </g>
        </g>
    </g>
</svg>