<?xml version="1.0" encoding="UTF-8"?>
<svg width="93px" height="88px" viewBox="0 0 93 88" version="1.1" xmlns="http://www.w3.org/2000/svg" xmlns:xlink="http://www.w3.org/1999/xlink">
    <!-- Generator: Sketch 59.1 (86144) - https://sketch.com -->
    <title>面团发酵</title>
    <desc>Created with Sketch.</desc>
    <defs>
        <polygon id="path-1" points="46.3404255 0.925417228 0 0.925417228 0 7.31685393 13.4042553 44.494382 46.3404255 44.494382 79.2765957 44.494382 92.6808511 7.31685393 92.6808511 0.925417228"></polygon>
        <path d="M20.4084028,23.8462861 C20.0584561,24.6053273 19.2971687,25.0762427 18.4683477,25.0762427 L18.4683477,25.0762427 L11.7518279,25.0762427 C10.5761299,25.0762427 9.45261704,25.5471581 8.62072633,26.3836524 L8.62072633,26.3836524 L1.62179346,33.453579 C0.792972461,34.2869753 0.326376936,35.4208899 0.326376936,36.6012764 L0.326376936,36.6012764 L0.326376936,44.4395386 L81.0995878,44.4395386 L81.0995878,25.376761 C81.0995878,24.2986127 80.9430327,23.2390532 80.6115043,22.213573 L80.6115043,22.213573 C78.8801893,16.8166352 72.1206936,0.421345318 53.8528649,0.0991400749 L53.8528649,0.0991400749 C53.662543,0.0960419476 53.4722212,0.0929438202 53.284969,0.0929438202 L53.284969,0.0929438202 C33.6480508,0.0929438202 22.9716084,18.2262831 20.4084028,23.8462861" id="path-3"></path>
    </defs>
    <g id="页面-1" stroke="none" stroke-width="1" fill="none" fill-rule="evenodd">
        <g id="2备份" transform="translate(-758.000000, -1649.000000)">
            <g id="工作模式" transform="translate(117.000000, 1348.000000)">
                <g id="面团发酵" transform="translate(641.000000, 301.000000)">
                    <g id="编组" transform="translate(0.000000, 43.505618)">
                        <mask id="mask-2" fill="white">
                            <use xlink:href="#path-1"></use>
                        </mask>
                        <g id="Clip-2"></g>
                        <path d="M92.466,7.90941723 L79.2765957,44.494382 L13.4042553,44.494382 L0.214,7.90941723 L92.466,7.90941723 Z M92.6808511,0.925417228 L92.68,1.97741723 L0,1.97752809 L1.63424829e-13,0.925417228 L92.6808511,0.925417228 Z" id="形状结合" fill-opacity="0.85" fill="#FFFFFF" mask="url(#mask-2)"></path>
                    </g>
                    <g id="编组" transform="translate(5.000000, 0.000000)">
                        <mask id="mask-4" fill="white">
                            <use xlink:href="#path-3"></use>
                        </mask>
                        <g id="Clip-6"></g>
                        <path d="M53.284969,0.0929438202 L53.5677658,0.0948801498 L53.5677658,0.0948801498 L53.8528649,0.0991400749 L54.3974537,0.113601086 C72.2553807,0.748151281 78.8975025,16.8706046 80.6115043,22.213573 L80.6115043,22.213573 L80.7276616,22.5996953 C80.9797253,23.5042335 81.0995878,24.4333813 81.0995878,25.376761 L81.0995878,25.376761 L81.0995878,44.4395386 L0.326376936,44.4395386 L0.326376936,36.6012764 L0.332567286,36.365894 C0.390199564,35.2710369 0.848227194,34.2314155 1.62179346,33.453579 L1.62179346,33.453579 L8.62072633,26.3836524 L8.79092183,26.2212592 C9.60265069,25.4864623 10.6545098,25.0762427 11.7518279,25.0762427 L11.7518279,25.0762427 L18.4683477,25.0762427 L18.6331096,25.070018 C19.3968455,25.0121734 20.0817859,24.5547246 20.4084028,23.8462861 C22.9716084,18.2262831 33.6480508,0.0929438202 53.284969,0.0929438202 L53.284969,0.0929438202 Z M68.9871282,27.7732395 C66.9153077,27.7732395 65.2371026,29.4651246 65.2371026,31.5538337 C65.2371026,33.6425428 66.9153077,35.334428 68.9871282,35.334428 C71.0589487,35.334428 72.7371538,33.6425428 72.7371538,31.5538337 C72.7371538,29.4651246 71.0589487,27.7732395 68.9871282,27.7732395 Z M26.2691795,26.7473418 C24.197359,26.7473418 22.5191538,28.439227 22.5191538,30.5279361 C22.5191538,32.6166452 24.197359,34.3085303 26.2691795,34.3085303 C28.341,34.3085303 30.0192051,32.6166452 30.0192051,30.5279361 C30.0192051,28.439227 28.341,26.7473418 26.2691795,26.7473418 Z M35.2948718,20.2105129 C33.2230513,20.2105129 31.5448462,21.902398 31.5448462,23.9911071 C31.5448462,26.0798162 33.2230513,27.7717014 35.2948718,27.7717014 C37.3666923,27.7717014 39.0448974,26.0798162 39.0448974,23.9911071 C39.0448974,21.902398 37.3666923,20.2105129 35.2948718,20.2105129 Z M53.2211538,9.82849039 C51.1493333,9.82849039 49.4711282,11.5203755 49.4711282,13.6090846 C49.4711282,15.6977938 51.1493333,17.3896789 53.2211538,17.3896789 C55.2929744,17.3896789 56.9711795,15.6977938 56.9711795,13.6090846 C56.9711795,11.5203755 55.2929744,9.82849039 53.2211538,9.82849039 Z" id="形状结合" fill="#FFFFFF" mask="url(#mask-4)"></path>
                    </g>
                </g>
            </g>
        </g>
    </g>
</svg>