<?xml version="1.0" encoding="UTF-8"?>
<svg width="87px" height="90px" viewBox="0 0 87 90" version="1.1" xmlns="http://www.w3.org/2000/svg" xmlns:xlink="http://www.w3.org/1999/xlink">
    <!-- Generator: Sketch 59.1 (86144) - https://sketch.com -->
    <title>黄油饼干</title>
    <desc>Created with Sketch.</desc>
    <defs>
        <path d="M0,30.0488333 C0,46.5899167 13.4100833,60 29.9511667,60 L29.9511667,60 C46.4896667,60 59.9023333,46.5899167 59.9023333,30.0488333 L59.9023333,30.0488333 C59.9023333,13.50775 46.4896667,0.0976666667 29.9511667,0.0976666667 L29.9511667,0.0976666667 C13.4100833,0.0976666667 0,13.50775 0,30.0488333" id="path-1"></path>
        <path d="M30.94575,0.211583333 C14.4046667,0.211583333 0.994583333,13.6190833 0.994583333,30.16275 L0.994583333,30.16275 C0.994583333,46.70125 14.4046667,60.1113333 30.94575,60.1113333 L30.94575,60.1113333 C47.4868333,60.1113333 60.8969167,46.70125 60.8969167,30.16275 L60.8969167,30.16275 C60.8969167,24.83075 59.489,19.8345833 57.0451667,15.4971667 L57.0451667,15.4971667 C31.48825,23.6475833 33.78225,2.34283333 34.04575,0.37175 L34.04575,0.37175 C33.0253333,0.265833333 31.992,0.211583333 30.94575,0.211583333 Z" id="path-3"></path>
    </defs>
    <g id="页面-1" stroke="none" stroke-width="1" fill="none" fill-rule="evenodd">
        <g id="2备份" transform="translate(-334.000000, -1348.000000)">
            <g id="工作模式" transform="translate(117.000000, 1348.000000)">
                <g id="黄油饼干" transform="translate(217.000000, 0.000000)">
                    <g id="编组" transform="translate(0.000000, 30.000000)">
                        <mask id="mask-2" fill="white">
                            <use xlink:href="#path-1"></use>
                        </mask>
                        <g id="Clip-2"></g>
                        <path d="M29.9511667,0.0976666667 C46.4896667,0.0976666667 59.9023333,13.50775 59.9023333,30.0488333 C59.9023333,46.5899167 46.4896667,60 29.9511667,60 C13.4100833,60 4.26325641e-14,46.5899167 4.26325641e-14,30.0488333 C4.26325641e-14,13.50775 13.4100833,0.0976666667 29.9511667,0.0976666667 Z M31.2418,39.8898154 C29.5266571,39.8898154 28.1329429,41.3047385 28.1329429,43.0492 C28.1329429,44.7936615 29.5266571,46.2085846 31.2418,46.2085846 C32.9569429,46.2085846 34.3480857,44.7936615 34.3480857,43.0492 C34.3480857,41.3047385 32.9569429,39.8898154 31.2418,39.8898154 Z M19.4559143,35.5312769 C17.7407714,35.5312769 16.3470571,36.9462 16.3470571,38.6906615 C16.3470571,40.4351231 17.7407714,41.8500462 19.4559143,41.8500462 C21.1710571,41.8500462 22.5622,40.4351231 22.5622,38.6906615 C22.5622,36.9462 21.1710571,35.5312769 19.4559143,35.5312769 Z M41.4208,33.0244308 C39.7030857,33.0244308 38.3119429,34.4393538 38.3119429,36.1838154 C38.3119429,37.9282769 39.7030857,39.3432 41.4208,39.3432 C43.1359429,39.3432 44.5270857,37.9282769 44.5270857,36.1838154 C44.5270857,34.4393538 43.1359429,33.0244308 41.4208,33.0244308 Z M29.5279429,27.2496615 C27.8102286,27.2496615 26.4190857,28.6645846 26.4190857,30.4090462 C26.4190857,32.1535077 27.8102286,33.5684308 29.5279429,33.5684308 C31.2430857,33.5684308 32.6342286,32.1535077 32.6342286,30.4090462 C32.6342286,28.6645846 31.2430857,27.2496615 29.5279429,27.2496615 Z M15.2773429,23.4351231 C13.5622,23.4351231 12.1684857,24.8500462 12.1684857,26.5945077 C12.1684857,28.3389692 13.5622,29.7538923 15.2773429,29.7538923 C16.9924857,29.7538923 18.3836286,28.3389692 18.3836286,26.5945077 C18.3836286,24.8500462 16.9924857,23.4351231 15.2773429,23.4351231 Z M23.8489429,14.6082 C22.1338,14.6082 20.7400857,16.0231231 20.7400857,17.7675846 C20.7400857,19.5120462 22.1338,20.9269692 23.8489429,20.9269692 C25.5640857,20.9269692 26.9552286,19.5120462 26.9552286,17.7675846 C26.9552286,16.0231231 25.5640857,14.6082 23.8489429,14.6082 Z" id="形状结合" fill-opacity="0.85" fill="#FFFFFF" mask="url(#mask-2)"></path>
                    </g>
                    <g id="编组" transform="translate(12.000000, 44.000000)"></g>
                    <g id="编组" transform="translate(26.000000, 0.000000)">
                        <mask id="mask-4" fill="white">
                            <use xlink:href="#path-3"></use>
                        </mask>
                        <g id="Clip-16"></g>
                        <path d="M30.94575,0.211583333 C31.992,0.211583333 33.0253333,0.265833333 34.04575,0.37175 L34.04575,0.37175 L34.0372657,0.436633811 C33.7391551,2.76598282 31.7438192,23.5660792 57.0451667,15.4971667 L57.0451667,15.4971667 L57.303025,15.9643959 C59.5877697,20.1918807 60.8969167,25.0211786 60.8969167,30.16275 L60.8969167,30.16275 L60.8929039,30.6579562 C60.6284019,46.9681107 47.3214225,60.1113333 30.94575,60.1113333 L30.94575,60.1113333 L30.4504671,60.1073206 C14.137806,59.8428188 0.994583333,46.535865 0.994583333,30.16275 L0.994583333,30.16275 L0.998596079,29.6673911 C1.2630981,13.3522741 14.5700775,0.211583333 30.94575,0.211583333 Z M32.9972308,40.3368 C31.2527692,40.3368 29.8352308,41.7517231 29.8352308,43.4961846 C29.8352308,45.2406462 31.2527692,46.6555692 32.9972308,46.6555692 C34.7416923,46.6555692 36.1566154,45.2406462 36.1566154,43.4961846 C36.1566154,41.7517231 34.7416923,40.3368 32.9972308,40.3368 Z M21.0109231,35.9782615 C19.2638462,35.9782615 17.8489231,37.3931846 17.8489231,39.1376462 C17.8489231,40.8821077 19.2638462,42.2970308 21.0109231,42.2970308 C22.7553846,42.2970308 24.1703077,40.8821077 24.1703077,39.1376462 C24.1703077,37.3931846 22.7553846,35.9782615 21.0109231,35.9782615 Z M43.3502308,33.4714154 C41.6057692,33.4714154 40.1882308,34.8863385 40.1882308,36.6308 C40.1882308,38.3752615 41.6057692,39.7901846 43.3502308,39.7901846 C45.0946923,39.7901846 46.5096154,38.3752615 46.5096154,36.6308 C46.5096154,34.8863385 45.0946923,33.4714154 43.3502308,33.4714154 Z M31.2540769,27.6966462 C29.5096154,27.6966462 28.0920769,29.1115692 28.0920769,30.8560308 C28.0920769,32.6004923 29.5096154,34.0154154 31.2540769,34.0154154 C32.9985385,34.0154154 34.4134615,32.6004923 34.4134615,30.8560308 C34.4134615,29.1115692 32.9985385,27.6966462 31.2540769,27.6966462 Z M16.7609231,23.8821077 C15.0138462,23.8821077 13.5989231,25.2970308 13.5989231,27.0414923 C13.5989231,28.7859538 15.0138462,30.2008769 16.7609231,30.2008769 C18.5053846,30.2008769 19.9203077,28.7859538 19.9203077,27.0414923 C19.9203077,25.2970308 18.5053846,23.8821077 16.7609231,23.8821077 Z M25.478,15.0551846 C23.7335385,15.0551846 22.316,16.4701077 22.316,18.2145692 C22.316,19.9590308 23.7335385,21.3739538 25.478,21.3739538 C27.2224615,21.3739538 28.6373846,19.9590308 28.6373846,18.2145692 C28.6373846,16.4701077 27.2224615,15.0551846 25.478,15.0551846 Z" id="形状结合" fill="#FFFFFF" mask="url(#mask-4)"></path>
                    </g>
                    <g id="编组" transform="translate(39.000000, 15.000000)"></g>
                </g>
            </g>
        </g>
    </g>
</svg>