<?xml version="1.0" encoding="UTF-8"?>
<svg width="89px" height="90px" viewBox="0 0 89 90" version="1.1" xmlns="http://www.w3.org/2000/svg" xmlns:xlink="http://www.w3.org/1999/xlink">
    <!-- Generator: Sketch 59.1 (86144) - https://sketch.com -->
    <title>烤鱼虾</title>
    <desc>Created with Sketch.</desc>
    <defs>
        <path d="M20.6927536,30.3370787 L36.3913043,30.3370787 L64.2898551,30.3370787 L64.2898551,20.6313585 L52.6956522,5.83406537 L47.5043478,5.83406537 L36.3913043,20.6313585 L29.9884058,20.6313585 C29.9884058,20.6313585 27.5623188,16.811951 27.2463768,14.0783963 L27.2463768,14.0783963 C26.7449275,13.6621042 0,0.832737487 0,0.832737487 L0,0.832737487 C0,20.0724208 20.6927536,30.3370787 20.6927536,30.3370787" id="path-1"></path>
        <path d="M0,28.038418 L27.1425,41.4368899 C27.1425,41.4368899 25.5745875,31.6722013 32.109,24.389911 L32.109,24.389911 C32.109,24.389911 4.4092125,10.4437213 4.868325,0.552409888 L4.868325,0.552409888 C4.868325,0.552409888 0.7594125,9.14215551 0,28.038418" id="path-3"></path>
        <path d="M25.3588889,15.8540562 L65.5837778,15.9127079 L66.0293524,15.9035621 C65.9880274,16.0347341 65.950945,16.1678776 65.9182692,16.3028174 L25.4471154,16.3028174 C19.6747596,16.6343941 11.8829776,20.8814358 11.6248549,21.0229117 L11.6182692,21.0265281 L66.6826923,21.0265281 C67.6834135,22.5912388 69.3755859,23.6506783 71.3149103,23.7362484 L71.5692308,23.7418483 C73.5292067,23.7418483 75.2586989,22.7476051 76.3210245,21.2277168 L76.4557692,21.0265281 L82.5535762,21.0275569 C79.8046572,31.7066747 72.5488889,38.3323146 72.5488889,38.3323146 L72.5488889,38.3323146 L72.2488984,38.6392677 C62.1691542,48.7309138 34.3970956,55.0752593 28.5655556,56.3178539 L28.5655556,56.3178539 L28.3524769,56.3557224 C27.7113689,56.4458026 27.0566889,56.3251854 26.4768889,56.0216629 L26.4768889,56.0216629 L25.7918278,55.6612223 C3.38285747,43.8103635 0.523486667,36.2861919 0.274666667,33.7545506 L0.274666667,33.7545506 L0.263144801,33.5367527 C0.258748299,33.1007638 0.363809524,32.6644671 0.534666667,32.2647978 L0.534666667,32.2647978 L0.71448764,31.8517724 C6.15788996,19.6993382 21.1961284,16.4814337 24.2928889,15.9420337 L24.2928889,15.9420337 L24.5593889,15.9023064 C24.8242639,15.8689024 25.0858889,15.8540562 25.3588889,15.8540562 L25.3588889,15.8540562 Z M76.9573333,0.39347191 L77.1783911,0.400392809 C77.4719022,0.419161348 77.7598667,0.47734382 78.0348889,0.589955056 L78.0348889,0.589955056 L78.1140203,0.622193514 C79.8188109,1.32990635 84.1945868,3.99298999 83.6855556,12.5695618 L83.6855556,12.5695618 L83.4486667,15.9361685 L83.4019188,16.3935873 C83.3901453,16.5011942 83.3778576,16.6084906 83.3650649,16.7154746 C83.3359449,16.4460222 83.289208,16.323425 83.2817782,16.3052252 L83.2807692,16.3028174 L77.2201923,16.3028174 C77.1870215,16.165833 77.1492936,16.0306998 77.1071826,15.8976011 L77.226,15.8980449 L77.3443993,15.6015627 C78.9633772,11.3897934 77.2541667,8.80172421 75.9808889,7.56364045 L75.9808889,7.56364045 L75.816474,7.4157157 C75.2538678,6.94421079 74.5493131,6.68973034 73.8113333,6.68973034 L73.8113333,6.68973034 L11.3477778,6.74838202 L11.1667614,6.74345041 C9.48967261,6.64900891 8.17169349,5.21150562 8.21911111,3.48148315 L8.21911111,3.48148315 L8.22915629,3.29874061 C8.36497052,1.66691296 9.71524603,0.39347191 11.3448889,0.39347191 L11.3448889,0.39347191 L76.9573333,0.39347191 Z" id="path-5"></path>
    </defs>
    <g id="页面-1" stroke="none" stroke-width="1" fill="none" fill-rule="evenodd">
        <g id="2备份" transform="translate(-547.000000, -1348.000000)">
            <g id="工作模式" transform="translate(117.000000, 1348.000000)">
                <g id="烤鱼虾" transform="translate(430.000000, 0.000000)">
                    <g id="编组" transform="translate(0.000000, 59.662921)">
                        <mask id="mask-2" fill="white">
                            <use xlink:href="#path-1"></use>
                        </mask>
                        <g id="Clip-2"></g>
                        <path d="M20.6927536,30.3370787 L36.3913043,30.3370787 L64.2898551,30.3370787 L64.2898551,20.6313585 L52.6956522,5.83406537 L47.5043478,5.83406537 L36.3913043,20.6313585 L29.9884058,20.6313585 C29.9884058,20.6313585 27.5623188,16.811951 27.2463768,14.0783963 L27.2463768,14.0783963 C26.7449275,13.6621042 0,0.832737487 0,0.832737487 L0,0.832737487 C0,20.0724208 20.6927536,30.3370787 20.6927536,30.3370787" id="Fill-1" fill="#FFFFFF" mask="url(#mask-2)"></path>
                    </g>
                    <g id="编组" transform="translate(0.000000, 32.359551)">
                        <mask id="mask-4" fill="white">
                            <use xlink:href="#path-3"></use>
                        </mask>
                        <g id="Clip-4"></g>
                        <path d="M0,28.038418 L27.1425,41.4368899 C27.1425,41.4368899 25.5745875,31.6722013 32.109,24.389911 L32.109,24.389911 C32.109,24.389911 4.4092125,10.4437213 4.868325,0.552409888 L4.868325,0.552409888 C4.868325,0.552409888 0.7594125,9.14215551 0,28.038418" id="Fill-3" fill="#FFFFFF" mask="url(#mask-4)"></path>
                    </g>
                    <g id="编组" transform="translate(5.000000, 0.000000)">
                        <mask id="mask-6" fill="white">
                            <use xlink:href="#path-5"></use>
                        </mask>
                        <g id="形状结合"></g>
                        <path d="M25.3588889,15.8540562 L65.5837778,15.9127079 L66.0293524,15.9035621 C65.9880274,16.0347341 65.950945,16.1678776 65.9182692,16.3028174 L25.4471154,16.3028174 C19.6747596,16.6343941 11.8829776,20.8814358 11.6248549,21.0229117 L11.6182692,21.0265281 L66.6826923,21.0265281 C67.6834135,22.5912388 69.3755859,23.6506783 71.3149103,23.7362484 L71.5692308,23.7418483 C73.5292067,23.7418483 75.2586989,22.7476051 76.3210245,21.2277168 L76.4557692,21.0265281 L82.5535762,21.0275569 C79.8046572,31.7066747 72.5488889,38.3323146 72.5488889,38.3323146 C62.7324444,48.6022247 34.456,55.0627079 28.5655556,56.3178539 C27.8577778,56.4703483 27.1211111,56.3589101 26.4768889,56.0216629 C3.44088889,43.9628764 0.526,36.311764 0.274666667,33.7545506 C0.225555556,33.2472135 0.335333333,32.7310787 0.534666667,32.2647978 C5.81844444,19.7719888 21.1613333,16.4874944 24.2928889,15.9420337 C24.6511111,15.8804494 24.9948889,15.8540562 25.3588889,15.8540562 L25.3588889,15.8540562 Z M76.9573333,0.39347191 C77.3271111,0.39347191 77.6911111,0.449191011 78.0348889,0.589955056 C79.6786667,1.24685393 84.2026667,3.85685393 83.6855556,12.5695618 L83.6855556,12.5695618 L83.4486667,15.9361685 C83.4238204,16.1977352 83.3959109,16.4575132 83.3650649,16.7154746 C83.3359449,16.4460222 83.289208,16.323425 83.2817782,16.3052252 L83.2807692,16.3028174 L77.2201923,16.3028174 C77.1870215,16.165833 77.1492936,16.0306998 77.1071826,15.8976011 L77.226,15.8980449 C79.0431111,11.5108989 77.2837778,8.83051685 75.9808889,7.56364045 C75.3944444,6.99765169 74.6231111,6.68973034 73.8113333,6.68973034 L73.8113333,6.68973034 L11.3477778,6.74838202 C9.58555556,6.75131461 8.17,5.27329213 8.21911111,3.48148315 C8.26533333,1.76298876 9.65488889,0.39347191 11.3448889,0.39347191 L11.3448889,0.39347191 Z" id="形状结合" fill="#FFFFFF" mask="url(#mask-6)"></path>
                    </g>
                    <g id="编组" transform="translate(16.000000, 11.123596)"></g>
                </g>
            </g>
        </g>
    </g>
</svg>