<?xml version="1.0" encoding="UTF-8"?>
<svg width="390px" height="1013px" viewBox="0 0 390 1013" version="1.1" xmlns="http://www.w3.org/2000/svg" xmlns:xlink="http://www.w3.org/1999/xlink">
    <!-- Generator: Sketch 59.1 (86144) - https://sketch.com -->
    <title>人物</title>
    <desc>Created with Sketch.</desc>
    <g id="页面-1" stroke="none" stroke-width="1" fill="none" fill-rule="evenodd">
        <g id="1" transform="translate(-229.000000, -635.000000)" fill-rule="nonzero">
            <g id="编组-2" transform="translate(79.000000, 635.000000)">
                <g id="人物" transform="translate(150.000000, 0.000000)">
                    <path d="M243.655306,51.9239325 C243.655306,51.9239325 234.658453,-17.3680435 283.33679,4.14037186 C327.725236,23.5560765 287.805425,68.0843094 253.545886,66.9798232 L243.655306,51.9239325 Z" id="路径" fill="#2B2C2F"></path>
                    <path d="M162.265153,122.642403 C162.265153,122.642403 149.042471,126.590382 147.103145,92.7334718 C145.163818,58.8765618 170.610134,37.94031 220.209883,38 C282.385871,38 284.5015,123.898578 261.69972,130 L162.265153,122.642403 Z" id="路径" fill="#2B2C2F"></path>
                    <path d="M122.597315,374 L93,581 C93,581 120.181208,564.362397 122.597315,560.83499 C126.711524,550.581586 130.260201,540.121647 133.228188,529.499858 L147,407.510366 L122.597315,374 Z" id="路径" fill="#CDD4E1"></path>
                    <polygon id="路径" fill="#CDD4E1" points="224.771953 944.968961 222 986 260.335518 986 267 942"></polygon>
                    <polygon id="路径" fill="#CDD4E1" points="95.4770889 844 102 897.013879 80 925 58 859.738495"></polygon>
                    <path d="M151.555833,224 C151.555833,224 102.373719,227.986207 113.69153,280.275862 L156,292 L151.555833,224 Z" id="路径" fill="#CDD4E1"></path>
                    <path d="M208.288818,224.343817 L208.288818,224.343817 C221.466751,223.698249 231.612594,228.099846 230.97119,214.836368 L228.81374,144 L181,146.406206 L183.215759,217.183886 C183.857163,230.447365 195.110884,224.989385 208.288818,224.343817 Z" id="路径" fill="#CDD4E1"></path>
                    <path d="M235,170.658188 C229.911467,186.320317 215.078731,196.330357 199.143188,194.856564 C174.76993,192.799702 179.339916,166 179.339916,166 L235,170.658188 Z" id="路径" fill="#B2B8C4"></path>
                    <path d="M199.387931,185.998597 L206.25124,185.998597 C232.059891,186.19551 253.195095,165.646079 253.584403,139.977299 L253.998568,112.435141 C254.198097,86.6593531 233.521723,65.5161914 207.612069,65.0014244 L200.867093,65.0014244 C174.953038,64.8029597 153.69646,85.3690127 153.178931,111.140424 L153.001432,138.56488 C152.801903,164.340668 173.478277,185.48383 199.387931,185.998597 L199.387931,185.998597 Z" id="路径" fill="#CDD4E1"></path>
                    <path d="M239.002607,135.199205 C238.880755,142.281083 243.040044,148.738028 249.538633,151.555497 C256.037223,154.372966 263.593386,152.995266 268.679391,148.065601 C273.765396,143.135936 275.378121,135.626591 272.764637,129.043442 C270.151153,122.460292 263.82692,118.101742 256.744523,118.00266 C252.108839,117.921732 247.631745,119.69006 244.302591,122.916879 C240.973436,126.143698 239.066295,130.563359 239.002607,135.199205 L239.002607,135.199205 Z" id="路径" fill="#CDD4E1"></path>
                    <polygon id="路径" fill="#CDD4E1" points="141 228.441158 200.895142 208 297.255855 214.813719 309 256.694598 264.489689 397.433148 275.705348 494 155.269137 479.491477 155.269137 369.238447"></polygon>
                    <path d="M388.002252,355.107632 L387.35205,353.816047 L323.868752,230 L284.442905,251.017613 L345.620944,358.454012 L278,418.571429 L294.018598,440 L381.973112,378.238748 C389.602279,373.165658 392.194531,363.220344 388.002252,355.107632 L388.002252,355.107632 Z" id="路径" fill="#CDD4E1"></path>
                    <path d="M149,254 L147.990331,292.140463 L147.337017,330.280926 L146.38674,406.797287 L146.38674,407.974461 C146.419293,408.189071 146.419293,408.407298 146.38674,408.621907 L137.537293,478.075219 C136.171271,489.846967 134.924033,501.618715 134.033149,513.03731 C133.617403,518.923184 133.082873,524.809058 132.785912,530.694932 L132.310773,539.464884 L132.310773,543.87929 C132.013812,545.291899 133.082873,546.881085 140.269337,549 L106,541.466081 C113.424033,540.642059 106,542.93755 106,541.466081 L106.53453,537.110535 L107.544199,528.399441 C108.316298,522.513567 108.791436,516.627694 109.385359,510.74182 C110.513812,498.970072 111.285912,487.198324 111.939227,475.72087 L115.027624,405.502394 L115.027624,407.268156 L115.799724,331.104948 L113.483425,293.023344 L112.651934,281.251596 C111.642265,267.007781 117.937845,254.765164 132.370166,254.47087 L149,254 Z" id="路径" fill="#CDD4E1"></path>
                    <path d="M266.809696,943.060595 C285.99425,881.133486 288.870061,815.304212 275.15895,751.940489 C275.15895,751.940489 270.219954,714.433683 289.681948,606.910252 C309.143941,499.386821 268.926408,458 268.926408,458 L154.565147,458 L140.277339,523.548729 C140.277339,523.548729 93.827264,548.945187 29.3263369,652.882544 L5.80731157,681.218407 C-0.436490384,688.849485 -1.76159488,699.380086 2.39705289,708.319721 L56.9023942,860.345741 L94.1800494,845.060836 C94.1800494,845.060836 89.2998516,731.247079 66.486397,708.437297 L200.015664,607.498133 C200.015664,607.498133 206.718586,748.236839 210.070047,759.876882 C214.303471,774.573907 227.709316,868.870016 224.887033,946 L224.887033,946 L266.809696,943.060595 Z" id="路径" fill="#2B2C2F"></path>
                    <path d="M273.139081,214.640546 C273.139081,214.640546 242.197816,290.808771 290,317.409058 L272.251664,376 C272.251664,376 200.015938,351.919123 153.929426,370.492451 C153.929426,370.492451 107.902075,332.701294 143.517069,265.028756 C143.517069,265.028756 149.433181,235.088785 158.011543,224.015097 L170.908667,219.679367 C170.908667,219.679367 154.106909,266.552121 170.908667,269.071531 C187.710425,271.590942 228.058308,280.848311 251.841078,213 L273.139081,214.640546 Z" id="路径" fill="#979CA5"></path>
                    <path d="M157,367.907052 L157,381.535981 C157,381.535981 195.257887,370.17854 269.312969,385 L274,373.245049 C274,373.245049 208.674512,347.406871 157,367.907052 Z" id="路径" fill="#777B83"></path>
                    <path d="M296.066473,477.457864 C284.352262,481.330147 271.459203,477.761916 263.401898,468.417748 C255.344593,459.07358 253.710638,445.794634 259.262274,434.775528 C264.813909,423.756422 276.457249,417.168341 288.760685,418.084621 C301.06412,419.000901 311.603404,427.240999 315.461968,438.960915 C320.725191,454.947312 312.045087,472.175928 296.066473,477.457864 Z" id="路径" fill="#CDD4E1"></path>
                    <path d="M298.015844,215 C298.015844,215 339.229609,215 334.643852,263.280404 C330.580523,306.459929 286,252.366897 286,252.366897 L298.015844,215 Z" id="路径" fill="#CDD4E1"></path>
                    <path d="M269.608377,973.630152 C269.241217,972.479131 268.314346,971.581742 267.134785,971.23524 C265.955225,970.888739 264.676937,971.138352 263.723349,971.901396 C260.074632,974.955531 255.013508,982.331554 244.89126,981.409551 C237.145601,980.916511 230.257657,976.412818 226.824225,969.596389 C226.495584,968.598166 225.754581,967.780588 224.781404,967.342465 C223.808227,966.904342 222.692035,966.885812 221.70425,967.291382 L156.439291,996.103972 C152.577703,997.911594 149.657226,1001.20962 148.376803,1005.20875 L148.376803,1005.20875 C147.673413,1007.03989 147.96687,1009.0954 149.156119,1010.66746 C150.345368,1012.23953 152.267955,1013.1134 154.261831,1012.98815 L266.901264,1010.45264 C269.012458,1010.38021 270.989962,1009.42255 272.330121,1007.82358 C273.670281,1006.2246 274.243741,1004.13865 273.904448,1002.09699 L271.315035,977.779165 C271.376499,977.416686 271.376499,977.046765 271.315035,976.684286 L269.608377,973.630152 Z" id="路径" fill="#47494F"></path>
                    <path d="M100.45012,872.094828 C99.3100004,871.833315 98.1134265,872.119531 97.2139666,872.868905 C96.3145067,873.618279 95.8149952,874.745135 95.8630298,875.916505 C96.5183284,880.813028 100.211829,889.23266 93.8971341,897.353723 C89.3408569,903.759016 81.6800647,907.187113 73.8807419,906.310778 C72.8346359,906.045531 71.7255599,906.229854 70.8208324,906.81932 C69.916105,907.408786 69.2977956,908.349922 69.1149342,909.41589 L59.1067381,981.669466 C58.6030277,985.974222 59.8965737,990.296255 62.6810939,993.612206 L62.6810939,993.612206 C63.8745538,995.206715 65.7830785,996.099137 67.7688316,995.991221 C69.7545847,995.883305 71.5556651,994.789283 72.5701448,993.074782 L131.010861,894.72632 C132.068301,892.871575 132.28932,890.653695 131.618786,888.625935 C130.948251,886.598174 129.449384,884.95172 127.496078,884.097282 L104.918064,873.109961 C104.580373,872.937793 104.218967,872.817039 103.845758,872.751679 L100.45012,872.094828 Z" id="路径" fill="#47494F"></path>
                    <path d="M207.012577,79.2378167 C207.012577,79.2378167 215.137452,97.8269763 243.75374,109.248529 C243.75374,109.248529 239.930269,136.17076 257.434595,119.621163 C274.938921,103.071567 236.465249,63.2126791 236.465249,63.2126791 C236.465249,63.2126791 206.295676,49.343651 207.012577,79.2378167 Z" id="路径" fill="#2B2C2F"></path>
                    <path d="M234,67.2633022 C234,67.2633022 213.976119,94.982142 156,93.973105 L163.043284,58.8942306 L220.437313,51 L234,67.2633022 Z" id="路径" fill="#2B2C2F"></path>
                </g>
            </g>
        </g>
    </g>
</svg>
