<?xml version="1.0" encoding="UTF-8"?>
<svg width="289px" height="752px" viewBox="0 0 289 752" version="1.1" xmlns="http://www.w3.org/2000/svg" xmlns:xlink="http://www.w3.org/1999/xlink">
    <!-- Generator: Sketch 59.1 (86144) - https://sketch.com -->
    <title>人物</title>
    <desc>Created with Sketch.</desc>
    <g id="页面-1" stroke="none" stroke-width="1" fill="none" fill-rule="evenodd">
        <g id="1" transform="translate(-614.000000, -737.000000)" fill-rule="nonzero">
            <g id="编组-5" transform="translate(79.000000, 614.000000)">
                <g id="人物" transform="translate(535.000000, 123.000000)">
                    <path d="M181.480558,37.9742193 C181.480558,37.9742193 174.882866,-12.702002 210.580312,3.02803315 C243.13184,17.2275784 213.857312,49.7930024 188.73365,48.9852438 L181.480558,37.9742193 Z" id="路径" fill="#2B2C2F"></path>
                    <path d="M119.329606,91.5617761 C119.329606,91.5617761 109.515897,94.4798475 108.076553,69.4551748 C106.637209,44.4305022 125.523147,28.9558813 162.33546,29 C208.481701,29 210.051895,92.4902533 193.128698,97 L119.329606,91.5617761 Z" id="路径" fill="#2B2C2F"></path>
                    <path d="M90.3758389,277 L69,432 C69,432 88.6308725,419.541892 90.3758389,416.900596 C93.3472117,409.222927 95.9101454,401.390605 98.0536913,393.437092 L108,302.092303 L90.3758389,277 Z" id="路径" fill="#CDD4E1"></path>
                    <polygon id="路径" fill="#CDD4E1" points="166.094364 701.159244 164 731 192.964613 731 198 699"></polygon>
                    <polygon id="路径" fill="#CDD4E1" points="70.2560647 625 75 664.924032 59 686 43 636.852447"></polygon>
                    <path d="M112.767879,168 C112.767879,168 76.999068,170.931034 85.2302039,209.37931 L116,218 L112.767879,168 Z" id="路径" fill="#CDD4E1"></path>
                    <path d="M154.647949,165.767961 L154.647949,165.767961 C164.136061,165.287722 171.441067,168.562081 170.979257,158.695347 L169.425893,106 L135,107.789983 L136.595346,160.441671 C137.057157,170.308406 145.159837,166.248201 154.647949,165.767961 Z" id="路径" fill="#CDD4E1"></path>
                    <path d="M174,125.694425 C170.274467,138.116113 159.414786,146.05511 147.747691,144.886241 C129.902985,143.254936 133.248867,122 133.248867,122 L174,125.694425 Z" id="路径" fill="#B2B8C4"></path>
                    <path d="M146.90577,138.998933 L152.07024,138.998933 C171.490611,139.148652 187.394329,123.524292 187.687273,104.007533 L187.998922,83.066388 C188.149063,63.4682684 172.590604,47.3924761 153.09423,47.001083 L148.018803,47.001083 C128.519118,46.8501842 112.524069,62.4871832 112.134641,82.0819752 L112.001078,102.933628 C111.850937,122.531747 127.409396,138.60754 146.90577,138.998933 L146.90577,138.998933 Z" id="路径" fill="#CDD4E1"></path>
                    <path d="M176.002011,100.267958 C175.908011,105.731121 179.116605,110.712193 184.129803,112.885669 C189.143001,115.059145 194.972041,113.996348 198.89553,110.193464 C202.81902,106.390579 204.063122,100.597656 202.047006,95.5192265 C200.030889,90.4407968 195.152196,87.0784868 189.688632,87.0020523 C186.112533,86.9396217 182.658775,88.3037606 180.09057,90.7930211 C177.522365,93.2822816 176.051142,96.6917344 176.002011,100.267958 L176.002011,100.267958 Z" id="路径" fill="#CDD4E1"></path>
                    <polygon id="路径" fill="#CDD4E1" points="104 170.152187 148.564837 155 220.261797 160.050729 229 191.095297 195.882209 295.418977 204.227193 367 114.616917 356.24543 114.616917 274.519409"></polygon>
                    <path d="M287.519526,262.532849 L287.03768,261.567235 L239.992022,169 L210.774653,184.713167 L256.111949,265.034666 L206,309.979592 L217.870925,326 L283.051502,279.826111 C288.70526,276.033373 290.626304,268.598067 287.519526,262.532849 L287.519526,262.532849 Z" id="路径" fill="#CDD4E1"></path>
                    <path d="M110,188 L109.272099,216.314445 L108.801105,244.628891 L108.116022,301.432562 L108.116022,302.306464 C108.13949,302.465785 108.13949,302.62779 108.116022,302.787111 L101.736188,354.347366 C100.751381,363.086393 99.8522099,371.825419 99.2099448,380.302275 C98.910221,384.671788 98.5248619,389.041301 98.3107735,393.410814 L97.968232,399.921389 L97.968232,403.198524 C97.7541436,404.247207 98.5248619,405.426975 103.705801,407 L79,401.407023 C84.3522099,400.795291 79,402.499401 79,401.407023 L79.3853591,398.173583 L80.1132597,391.706704 C80.6698895,387.337191 81.0124309,382.967678 81.4406077,378.598164 C82.2541436,369.859138 82.8107735,361.120112 83.281768,352.599561 L85.5082873,300.471269 L85.5082873,301.782123 L86.0649171,245.240623 L84.3950276,216.969872 L83.7955801,208.230846 C83.0676796,197.656624 87.6063536,188.568037 98.0110497,188.349561 L110,188 Z" id="路径" fill="#CDD4E1"></path>
                    <path d="M198.072282,700.825563 C212.314375,655.014731 214.4493,606.317255 204.270542,559.443681 C204.270542,559.443681 200.603966,531.697868 215.052022,452.156969 C229.500078,372.61607 199.643672,342 199.643672,342 L114.744974,342 L104.138092,390.489941 C104.138092,390.489941 69.6548163,409.277075 21.7710772,486.165161 L4.31119062,507.126732 C-0.324038624,512.771853 -1.30776027,520.561908 1.77950706,527.175039 L42.2427943,639.636911 L69.9167146,628.32984 C69.9167146,628.32984 66.2937881,544.135646 49.3576981,527.262017 L148.486204,452.591856 C148.486204,452.591856 153.462272,556.703891 155.950306,565.314661 C159.093086,576.186845 169.045221,645.942778 166.950035,703 L166.950035,703 L198.072282,700.825563 Z" id="路径" fill="#2B2C2F"></path>
                    <path d="M202.565072,159.207764 C202.565072,159.207764 179.745889,215.282531 215,234.865564 L201.910602,278 C201.910602,278 148.636754,260.271747 114.647952,273.945363 C114.647952,273.945363 80.7027806,246.123652 106.968838,196.303379 C106.968838,196.303379 111.331971,174.261682 117.658513,166.109274 L127.170142,162.917326 C127.170142,162.917326 114.778846,197.424874 127.170142,199.279655 C139.561438,201.134436 169.318002,207.949676 186.857795,158 L202.565072,159.207764 Z" id="路径" fill="#979CA5"></path>
                    <path d="M116,272.009359 L116,282.367345 C116,282.367345 144.448172,273.73569 199.514772,285 L203,276.066237 C203,276.066237 154.424637,256.429222 116,272.009359 Z" id="路径" fill="#777B83"></path>
                    <path d="M220.557234,355.862359 C211.915603,358.718961 202.40433,356.086659 196.460416,349.193421 C190.516503,342.300182 189.311127,332.504238 193.406595,324.375389 C197.502064,316.246541 206.091413,311.386481 215.167718,312.062425 C224.244023,312.738369 232.018905,318.81713 234.865386,327.46297 C238.748092,339.256214 232.344736,351.965849 220.557234,355.862359 Z" id="路径" fill="#CDD4E1"></path>
                    <path d="M220.827967,160 C220.827967,160 251.107468,160 247.73834,195.653221 C244.753037,227.53964 212,187.594016 212,187.594016 L220.827967,160 Z" id="路径" fill="#CDD4E1"></path>
                    <path d="M198.758564,722.900547 C198.487565,722.049793 197.803446,721.386505 196.932818,721.130395 C196.06219,720.874285 195.118692,721.058782 194.414853,721.622771 C191.721752,723.880175 187.986161,729.332018 180.514978,728.650538 C174.797944,728.286117 169.713985,724.9573 167.179785,719.91907 C166.937217,719.181253 166.390286,718.576956 165.671988,718.253126 C164.953691,717.929296 164.129835,717.9156 163.400756,718.215369 L115.229001,739.511631 C112.378781,740.8477 110.22319,743.285371 109.278116,746.24125 L109.278116,746.24125 C108.758948,747.594698 108.975547,749.113989 109.853326,750.27595 C110.731105,751.437911 112.150158,752.083814 113.621827,751.991241 L196.760457,750.11717 C198.318719,750.063632 199.778305,749.355798 200.76747,748.173948 C201.756636,746.992098 202.179904,745.450306 201.929473,743.941254 L200.01824,725.967209 C200.063606,725.69929 200.063606,725.425869 200.01824,725.157951 L198.758564,722.900547 Z" id="路径" fill="#47494F"></path>
                    <path d="M75.0939225,646.071121 C74.2661647,645.874986 73.3974192,646.089648 72.7443867,646.651679 C72.0913542,647.213709 71.7286951,648.058851 71.7635696,648.937379 C72.2393343,652.609771 74.9209172,658.924495 70.3362755,665.015292 C67.0282933,669.819262 61.4663483,672.390335 55.8038263,671.733083 C55.0443247,671.534148 54.2391051,671.672391 53.5822482,672.11449 C52.9253913,672.556589 52.4764817,673.262442 52.3437194,674.061918 L45.0774948,728.252099 C44.7117872,731.480667 45.650937,734.722191 47.672575,737.209154 L47.672575,737.209154 C48.5390596,738.405036 49.9247008,739.074353 51.366412,738.993416 C52.8081231,738.912479 54.1157569,738.091962 54.8522969,736.806087 L97.2818583,663.04474 C98.0495884,661.653681 98.2100545,659.990271 97.723228,658.469451 C97.2364015,656.948631 96.1481826,655.71379 94.7300294,655.072961 L78.3377728,646.832471 C78.0925998,646.703345 77.830209,646.612779 77.5592487,646.563759 L75.0939225,646.071121 Z" id="路径" fill="#47494F"></path>
                    <path d="M153.009147,58.2063877 C153.009147,58.2063877 158.918147,71.9337671 179.729992,80.3681444 C179.729992,80.3681444 176.949287,100.249177 189.679706,88.027936 C202.410125,75.8066954 174.429272,46.37244 174.429272,46.37244 C174.429272,46.37244 152.487765,36.1306961 153.009147,58.2063877 Z" id="路径" fill="#2B2C2F"></path>
                    <path d="M174,49.7247062 C174,49.7247062 159.367164,69.7080559 117,68.9806106 L122.147015,43.6911895 L164.088806,38 L174,49.7247062 Z" id="路径" fill="#2B2C2F"></path>
                </g>
            </g>
        </g>
    </g>
</svg>