<svg xmlns="http://www.w3.org/2000/svg" xmlns:xlink="http://www.w3.org/1999/xlink" fill="none" version="1.1" width="396" height="1027" viewBox="0 0 396 1027"><defs><linearGradient x1="0.5" y1="0" x2="0.5" y2="1" id="master_svg_0"><stop offset="0%" stop-color="#3FE83F" stop-opacity="1"/><stop offset="100%" stop-color="#00D8B2" stop-opacity="1"/></linearGradient><linearGradient x1="0.5" y1="0" x2="0.5" y2="1" id="master_svg_1"><stop offset="0%" stop-color="#3FE83F" stop-opacity="1"/><stop offset="100%" stop-color="#00D8B2" stop-opacity="1"/></linearGradient></defs><g style="mix-blend-mode:passthrough"><g><g style="mix-blend-mode:passthrough"><path d="M247.666228,52.6989C247.666228,52.6989,238.51943,-17.6273,288.0091,4.20217C333.1373,23.9077,292.55219999999997,69.1005,257.7217,67.9795L247.666228,52.6989Z" fill="#2A2C2E" fill-opacity="1"/></g><g style="mix-blend-mode:passthrough"><path d="M164.5037,124.5624C164.5037,124.5624,151.07438,128.55329999999998,149.104756,94.3284C147.13513,60.1035,172.97899999999998,38.9396612,223.3538,39.000129229C286.501,39.000129229,288.65,125.8323,265.492,132L164.5037,124.5624Z" fill="#2A2C2E" fill-opacity="1"/></g><g style="mix-blend-mode:passthrough"><path d="M123.6935,379L93,590C93,590,121.1879,573.0409999999999,123.6935,569.4449999999999C127.9601,558.994,131.6402,548.332,134.7181,537.505L149,413.1579L123.6935,379Z" fill="#FFFFFF" fill-opacity="1"/></g><g style="mix-blend-mode:passthrough"><path d="M228.83355,957.03644L226,999L265.1874,999L272,954L228.83355,957.03644L228.83355,957.03644Z" fill="#FFFFFF" fill-opacity="1"/></g><g style="mix-blend-mode:passthrough"><path d="M96.3288,856L103,909.6684L80.5,938L58,871.9328L96.3288,856L96.3288,856Z" fill="#FFFFFF" fill-opacity="1"/></g><g style="mix-blend-mode:passthrough"><path d="M154.4548,226C154.4548,226,104.15494,230.04483,115.72997,283.1034L159,295L154.4548,226Z" fill="#FFFFFF" fill-opacity="1"/></g><g style="mix-blend-mode:passthrough"><path d="M210.8346,228.3034L210.8346,228.3034C224.27609999999999,227.6421,234.6248,232.15109999999999,233.9706,218.5641L231.77,146L183,148.46489L185.26007,220.96890000000002C185.91431,234.5558,197.3931,228.9647,210.8346,228.3034Z" fill="#FFFFFF" fill-opacity="1"/></g><g style="mix-blend-mode:passthrough"><path d="M239,171.81881C233.8206,188.02100000000002,218.723,198.3762,202.5029,196.8516C177.69439,194.7238,182.345986,167,182.345986,167L239,171.81881Z" fill="#B1B7C3" fill-opacity="1"/></g><g style="mix-blend-mode:passthrough"><path d="M201.8472,189.999L208.7785,189.999C234.84269999999998,190.2,256.187,169.14100000000002,256.58,142.83620000000002L256.999,114.6112C257.2,88.1964,236.31900000000002,66.528989,210.1528,66.00145969L203.341,66.00145969C177.1704,65.798074,155.703355,86.874,155.180703,113.2844L155.0014462,141.3888C154.799941,167.804,175.681,189.471,201.8472,189.999L201.8472,189.999Z" fill="#FFFFFF" fill-opacity="1"/></g><g style="mix-blend-mode:passthrough"><path d="M243.00260677,137.1992C242.880755,144.2811,247.04004,150.738,253.5386,153.5555C260.0372,156.373,267.5934,154.9953,272.6794,150.0656C277.7654,145.1359,279.3781,137.6266,276.7646,131.0434C274.1512,124.46029,267.8269,120.101742,260.7445,120.00266034C256.1088,119.9217319,251.63175,121.69006,248.30259,124.91688C244.97344,128.1437,243.0662947,132.5634,243.00260677,137.1992L243.00260677,137.1992Z" fill="#FFFFFF" fill-opacity="1"/></g><g style="mix-blend-mode:passthrough"><path d="M143,232.7985L203.9647,212L302.046,218.93284L314,261.5459L268.695,404.745L280.111,503L157.5239,488.238L157.5239,376.057L143,232.7985L143,232.7985Z" fill="#FFFFFF" fill-opacity="1"/></g><g style="mix-blend-mode:passthrough"><path d="M393.967,360.895L393.305,359.585L328.6878,234L288.55796,255.3179L350.8285,364.289L282,425.265L298.3046,447L387.83,384.356C395.595,379.211,398.234,369.123,393.967,360.895L393.967,360.895Z" fill="#FFFFFF" fill-opacity="1"/></g><g style="mix-blend-mode:passthrough"><path d="M152,257L150.9669,295.6576L150.29829999999998,334.3152L149.326,411.869L149.326,413.062C149.3593,413.28,149.3593,413.501,149.326,413.71799999999996L140.2707,484.11400000000003C138.87290000000002,496.04499999999996,137.5967,507.976,136.6851,519.55C136.2597,525.515,135.7127,531.481,135.40879999999999,537.447L134.9227,546.336L134.9227,550.81C134.6188,552.242,135.7127,553.852,143.0663,556L108,548.364C115.59668,547.529,108,549.855,108,548.364L108.546961,543.9490000000001L109.58011,535.12C110.37017,529.154,110.85635,523.1890000000001,111.46409,517.223C112.61878,505.29200000000003,113.40884,493.36,114.07735,481.727L117.23757,410.557L117.23757,412.346L118.0276,335.1504L115.65746,296.5525L114.80663,284.6211C113.77348,270.1842,120.2155,257.775539,134.9834,257.477255L152,257Z" fill="#FFFFFF" fill-opacity="1"/></g><g style="mix-blend-mode:passthrough"><path d="M270.427,956.018C289.872,893.203,292.787,826.429,278.89,762.1569999999999C278.89,762.1569999999999,273.884,724.1120000000001,293.61,615.046C313.336,505.9805,272.573,464,272.573,464L156.661,464L142.179,530.489C142.179,530.489,95.0995,556.2497,29.724,661.678L5.88605,690.42C-0.442409,698.1610000000001,-1.78548,708.842,2.42956,717.91L57.674,872.117L95.4571,856.613C95.4571,856.613,90.5107,741.1669999999999,67.3879,718.03L202.728,615.643C202.728,615.643,209.522,758.4,212.918,770.207C217.209,785.115,230.797,880.764,227.936,959L227.936,959L270.427,956.018Z" fill="#2B2C2F" fill-opacity="1"/></g><g style="mix-blend-mode:passthrough"><path d="M277.823,217.67074C277.823,217.67074,246.30200000000002,295.2408,295,322.331L276.919,382C276.919,382,203.3287,357.476,156.3781,376.39099999999996C156.3781,376.39099999999996,109.4877,337.904,145.7705,268.9863C145.7705,268.9863,151.7976,238.4953,160.5368,227.2178L173.6757,222.8023C173.6757,222.8023,156.5589,270.5377,173.6757,273.1035C190.7925,275.6693,231.89690000000002,285.0971,256.126,216L277.823,217.67074Z" fill-rule="evenodd" fill="url(#master_svg_0)" fill-opacity="1"/></g><g style="mix-blend-mode:passthrough"><path d="M160,373.90705L160,387.536C160,387.536,198.9119,376.1785,274.233,391L279,379.245C279,379.245,212.5578,353.4069,160,373.90705Z" fill-rule="evenodd" fill="url(#master_svg_1)" fill-opacity="1"/></g><g style="mix-blend-mode:passthrough"><path d="M299.7233,484.4326C287.8171,488.3683,274.7126,484.7416,266.52324,475.2443C258.333848,465.7469,256.67311,452.2503,262.31575,441.0505C267.9584,429.85079,279.7926,423.154707,292.2977,424.086008C304.8029,425.01731,315.5149,433.39249,319.4368,445.3045C324.7863,461.553,315.9639,479.0641,299.7233,484.4326Z" fill="#FFFFFF" fill-opacity="1"/></g><g style="mix-blend-mode:passthrough"><path d="M302.2611,218C302.2611,218,344.3159,218,339.6366,266.2804C335.4903,309.4599,290,255.3669,290,255.3669L302.2611,218Z" fill="#FFFFFF" fill-opacity="1"/></g><g style="mix-blend-mode:passthrough"><path d="M272.574,987.63015C272.203,986.47913,271.269,985.58174,270.08,985.23524C268.891,984.88874,267.603,985.13835,266.642,985.9014C262.964,988.95553,257.863,996.3316,247.6602,995.4096C239.85309999999998,994.9165,232.9105,990.41282,229.44979999999998,983.59639C229.11860000000001,982.59817,228.3717,981.780588,227.3908,981.342465C226.4099,980.9043415,225.28480000000002,980.885812,224.2892,981.291382L158.50627,1010.104C154.61403,1011.9116,151.67038,1015.2096,150.379793,1019.2088L150.379793,1019.2088C149.670822,1021.0399,149.9666068,1023.0954,151.16529,1024.6675C152.36398,1026.2395,154.30183,1027.1134,156.31153,1026.9881L269.845,1024.4526C271.973,1024.3802,273.966,1023.4226,275.317,1021.8235999999999C276.668,1020.2246,277.246,1018.1386,276.904,1016.097L274.294,991.7792C274.356,991.4167,274.356,991.0468,274.294,990.68429L272.574,987.63015Z" fill="#46494E" fill-opacity="1"/></g><g style="mix-blend-mode:passthrough"><path d="M102.0179,885.095593C100.8622,884.831971,99.64920000000001,885.120495,98.73740000000001,885.875912C97.8257,886.63133,97.3193,887.76727,97.368,888.94809C98.03229999999999,893.8841,101.7764,902.3716,95.3752,910.5581999999999C90.7565,917.0151,82.99080000000001,920.4709,75.0846,919.5875C74.02420000000001,919.3201,72.8999,919.5059,71.9828,920.1001C71.0656,920.6943,70.4389,921.6431,70.2535,922.7176L60.1082,995.554C59.59759,999.893,60.908855,1004.25,63.73152,1007.593L63.73152,1007.593C64.94133,1009.2,66.876,1010.1,68.88895,1009.991C70.9019,1009.8820000000001,72.7277,1008.78,73.756,1007.051L132.9973,907.9096C134.0692,906.0399,134.2933,903.8041,133.61360000000002,901.76C132.93380000000002,899.7159,131.4144,898.0562,129.43439999999998,897.1948L106.5471,886.11891C106.2048,885.945356,105.83840000000001,885.823628,105.4601,885.757741L102.0179,885.095593Z" fill="#46494E" fill-opacity="1"/></g><g style="mix-blend-mode:passthrough"><path d="M211.0128057,80.2378C211.0128057,80.2378,219.28541,98.827,248.422,110.2485C248.422,110.2485,244.529,137.17079999999999,262.3516,120.6212C280.1742,104.07159999999999,241.001,64.21268,241.001,64.21268C241.001,64.21268,210.28287,50.3437,211.0128057,80.2378Z" fill="#2A2C2E" fill-opacity="1"/></g><g style="mix-blend-mode:passthrough"><path d="M238,68.64150000000001C238,68.64150000000001,217.7194,97.005,159,95.9725L166.13358,60.07782L224.2634,52L238,68.64150000000001Z" fill="#2B2C2F" fill-opacity="1"/></g></g></g></svg>