<?xml version="1.0" encoding="UTF-8"?>
<svg width="415px" height="1079px" viewBox="0 0 415 1079" version="1.1" xmlns="http://www.w3.org/2000/svg" xmlns:xlink="http://www.w3.org/1999/xlink">
    <!-- Generator: Sketch 59.1 (86144) - https://sketch.com -->
    <title>人物备份</title>
    <desc>Created with Sketch.</desc>
    <g id="页面-1" stroke="none" stroke-width="1" fill="none" fill-rule="evenodd">
        <g id="1" transform="translate(-181.000000, -443.000000)" fill-rule="nonzero">
            <g id="人物备份" transform="translate(181.000000, 443.000000)">
                <path d="M259.698993,55.0238687 C259.698993,55.0238687 250.10235,-18.4049416 302.025909,4.38755824 C349.373585,24.9624095 306.792454,72.1490443 270.248945,70.9786186 L259.698993,55.0238687 Z" id="路径" fill="#7083C1"></path>
                <path d="M173.219225,131.16256 C173.219225,131.16256 159.170126,135.368015 157.109591,99.3030461 C155.049057,63.2380767 182.085768,40.9364171 234.785501,41 C300.847488,41 303.095344,132.500659 278.868452,139 L173.219225,131.16256 Z" id="路径" fill="#7083C1"></path>
                <path d="M130.241611,398 L99,619 C99,619 127.691275,601.237149 130.241611,597.471173 C134.584386,586.524302 138.330212,575.356928 141.463087,564.016757 L156,433.776768 L130.241611,398 Z" id="路径" fill="#E1F3FB"></path>
                <polygon id="路径" fill="#E1F3FB" points="238.95675 1006.17139 236 1050 276.891219 1050 284 1003"></polygon>
                <polygon id="路径" fill="#E1F3FB" points="102.032345 899 109 955.940833 85.5 986 62 915.90431"></polygon>
                <path d="M161.252822,240 C161.252822,240 108.717381,244.27931 120.806862,300.413793 L166,313 L161.252822,240 Z" id="路径" fill="#E1F3FB"></path>
                <path d="M221.926147,239.24283 L221.926147,239.24283 C235.894756,238.557899 246.649349,243.227886 245.969461,229.155658 L243.682565,154 L193,156.552926 L195.348704,231.646318 C196.028592,245.718546 207.957537,239.927762 221.926147,239.24283 Z" id="路径" fill="#E1F3FB"></path>
                <path d="M250,181.979442 C244.638867,198.721718 229.011521,209.422105 212.222288,207.846672 C186.54332,205.647958 191.358126,177 191.358126,177 L250,181.979442 Z" id="路径" fill="#B4CBD5"></path>
                <path d="M211.602937,197.998504 L218.94192,197.998504 C246.539289,198.208436 269.13931,176.300365 269.555599,148.934475 L269.998469,119.571348 C270.211827,92.0913764 248.102437,69.5503197 220.397063,69.0015186 L213.184614,69.0015186 C185.474536,68.7899322 162.744729,90.7157243 162.191333,118.19103 L162.001531,147.428674 C161.788173,174.908646 183.897563,197.449703 211.602937,197.998504 L211.602937,197.998504 Z" id="路径" fill="#E1F3FB"></path>
                <path d="M255.002756,143.182017 C254.873941,150.668573 259.270904,157.494487 266.140841,160.472954 C273.010779,163.451422 280.998723,161.994996 286.375356,156.783635 C291.75199,151.572275 293.456871,143.633825 290.694045,136.674496 C287.931218,129.715166 281.245601,125.107556 273.758496,125.002812 C268.857916,124.917259 264.124988,126.786635 260.605596,130.197844 C257.086204,133.609053 255.070083,138.281266 255.002756,143.182017 L255.002756,143.182017 Z" id="路径" fill="#E1F3FB"></path>
                <polygon id="路径" fill="#E1F3FB" points="150 243.727665 213.816847 222 316.486893 229.242555 329 273.759293 281.575323 423.355514 293.525341 526 165.203425 510.578353 165.203425 393.386322"></polygon>
                <path d="M412.859555,378.448141 L412.162911,377.07045 L344.145091,245 L301.903112,267.418787 L367.451011,382.017613 L295,446.142857 L312.162783,469 L406.399762,403.121331 C414.57387,397.710035 417.351283,387.101701 412.859555,378.448141 L412.859555,378.448141 Z" id="路径" fill="#E1F3FB"></path>
                <path d="M159,270 L157.91989,310.596967 L157.220994,351.193935 L156.20442,432.638468 L156.20442,433.89146 C156.239243,434.119893 156.239243,434.352174 156.20442,434.580607 L146.737569,508.507183 C145.276243,521.037111 143.941989,533.567039 142.98895,545.721069 C142.544199,551.986034 141.972376,558.250998 141.654696,564.515962 L141.146409,573.850758 L141.146409,578.549481 C140.828729,580.053073 141.972376,581.744613 149.660221,584 L113,575.980846 C120.941989,575.103751 113,577.547087 113,575.980846 L113.571823,571.344773 L114.651934,562.072626 C115.477901,555.807662 115.986188,549.542698 116.621547,543.277733 C117.828729,530.747805 118.654696,518.217877 119.353591,506.001197 L122.657459,431.260176 L122.657459,433.139665 L123.483425,352.07103 L121.005525,311.536712 L120.116022,299.006784 C119.035912,283.845571 125.770718,270.814445 141.209945,270.501197 L159,270 Z" id="路径" fill="#E1F3FB"></path>
                <path d="M283.994049,1004.86785 C304.414219,938.879944 307.475251,868.733997 292.881051,801.215275 C292.881051,801.215275 287.623951,761.249006 308.339429,646.674858 C329.054907,532.100711 286.247092,488 286.247092,488 L164.52019,488 L149.312151,557.847006 C149.312151,557.847006 99.8703759,584.908806 31.2151519,695.661728 L6.1813418,725.85568 C-0.464603324,733.987156 -1.87505354,745.208288 2.55143934,754.734128 L60.5672941,916.729069 L100.245883,900.441874 C100.245883,900.441874 95.0513675,779.16492 70.7685717,754.859415 L212.898028,647.301289 C212.898028,647.301289 220.032664,797.268763 223.599982,809.672088 C228.106068,825.332851 242.37534,925.812312 239.371282,1008 L239.371282,1008 L283.994049,1004.86785 Z" id="路径" fill="#5A64C6"></path>
                <path d="M292.085274,226.751258 C292.085274,226.751258 259.210179,308.059669 310,336.455068 L291.142393,399 C291.142393,399 214.391934,373.294033 165.425015,393.120776 C165.425015,393.120776 116.520955,352.779295 154.361886,280.539899 C154.361886,280.539899 160.647755,248.579439 169.762265,236.758447 L183.465459,232.130122 C183.465459,232.130122 165.613591,282.166068 183.465459,284.8555 C201.317327,287.544932 244.186953,297.427031 269.456146,225 L292.085274,226.751258 Z" id="路径" fill="#5A64C6"></path>
                <path d="M165,392.223334 L165,406.39742 C165,406.39742 206.200801,394.585681 285.952429,410 L291,397.774851 C291,397.774851 220.649474,370.903146 165,392.223334 Z" id="路径" fill="#5A64C6"></path>
                <path d="M314.693782,508.356741 C302.211427,512.482944 288.472921,508.68073 279.887268,498.72383 C271.301615,488.76693 269.560516,474.617232 275.476193,462.875562 C281.39187,451.133892 293.798708,444.113806 306.908926,445.09017 C320.019145,446.066533 331.249529,454.846966 335.361114,467.335401 C340.969466,484.370087 331.720174,502.728448 314.693782,508.356741 Z" id="路径" fill="#E1F3FB"></path>
                <path d="M316.751508,229 C316.751508,229 360.488565,229 355.622047,280.251505 C351.309943,326.088233 304,268.666399 304,268.666399 L316.751508,229 Z" id="路径" fill="#E1F3FB"></path>
                <path d="M287.329544,1037.06255 C286.939072,1035.83647 285.953352,1034.88055 284.698898,1034.51145 C283.444445,1034.14235 282.084996,1034.40824 281.070864,1035.22105 C277.190482,1038.47437 271.808017,1046.33144 261.043086,1045.3493 C252.805639,1044.82411 245.480365,1040.0267 241.828937,1032.76572 C241.47943,1031.70239 240.69138,1030.8315 239.656414,1030.3648 C238.621448,1029.8981 237.434386,1029.87836 236.383885,1030.31039 L166.975119,1061.00206 C162.868351,1062.92757 159.762446,1066.44068 158.400727,1070.70063 L158.400727,1070.70063 C157.652678,1072.65118 157.964766,1074.84075 159.229523,1076.51534 C160.49428,1078.18993 162.538937,1079.12079 164.659407,1078.98738 L284.450551,1076.28651 C286.695789,1076.20935 288.798848,1075.18924 290.224097,1073.48598 C291.649346,1071.78273 292.259217,1069.56073 291.898381,1067.38592 L289.144561,1041.48215 C289.209928,1041.09604 289.209928,1040.70199 289.144561,1040.31587 L287.329544,1037.06255 Z" id="路径" fill="#5A64C6"></path>
                <path d="M107.289169,928.100946 C106.070959,927.822561 104.792428,928.127243 103.831362,928.924963 C102.870295,929.722684 102.33657,930.92224 102.387895,932.169183 C103.088077,937.381611 107.034557,946.344444 100.287349,954.989447 C95.4189977,961.807985 87.2334938,965.457249 78.8999708,964.524376 C77.7822137,964.242017 76.5971736,964.438232 75.6304785,965.065727 C74.6637834,965.693223 74.003124,966.695079 73.8077379,967.829818 L63.1140489,1044.74492 C62.5758378,1049.3274 63.9579828,1053.92827 66.9332236,1057.45815 L66.9332236,1057.45815 C68.2084273,1059.15554 70.2476729,1060.10553 72.3694365,1059.99065 C74.4912001,1059.87578 76.4156422,1058.71117 77.4996068,1056.88606 L139.943112,952.192534 C141.072979,950.218128 141.309137,947.857159 140.592675,945.698576 C139.876213,943.539992 138.274684,941.787314 136.18759,940.877752 L112.063137,929.181572 C111.702317,928.998296 111.316157,928.869751 110.917385,928.800174 L107.289169,928.100946 Z" id="路径" fill="#5A64C6"></path>
                <path d="M221.013263,84.4216823 C221.013263,84.4216823 229.581313,104.15479 259.758489,116.279208 C259.758489,116.279208 255.726465,144.858191 274.185573,127.290158 C292.644681,109.722125 252.072444,67.4103825 252.072444,67.4103825 C252.072444,67.4103825 220.257259,52.6878757 221.013263,84.4216823 Z" id="路径" fill="#7083C1"></path>
                <path d="M249,71.3979512 C249,71.3979512 227.692537,101.050664 166,99.9712286 L173.494776,62.4449909 L234.56791,54 L249,71.3979512 Z" id="路径" fill="#7083C1"></path>
            </g>
        </g>
    </g>
</svg>