<?xml version="1.0" encoding="UTF-8"?>
<svg width="411px" height="578px" viewBox="0 0 411 578" version="1.1" xmlns="http://www.w3.org/2000/svg" xmlns:xlink="http://www.w3.org/1999/xlink">
    <!-- Generator: Sketch 61.2 (89653) - https://sketch.com -->
    <title>跳绳</title>
    <desc>Created with Sketch.</desc>
    <g id="页面-1" stroke="none" stroke-width="1" fill="none" fill-rule="evenodd">
        <g id="9" transform="translate(-586.000000, -673.000000)" fill-rule="nonzero">
            <g id="跳绳" transform="translate(586.000000, 673.000000)">
                <path d="M210.852036,1.90215743 C190.447214,-3.23552164 166.420537,1.93180603 153.752544,18.6536172 C147.031706,27.5312556 144.060254,38.6579521 138.58496,48.3742223 C130.092692,63.3239456 116.083537,74.3843713 99.5352332,79.2045322 C89.9832263,81.9322036 79.8233257,82.4912915 70.57314,86.1041853 C59.9116209,90.2761671 51.1800577,98.2346988 43.6430269,106.828558 C26.3031797,126.578762 13.6054295,152.644118 17.8096729,178.569702 C24.7643161,221.594058 74.2502588,248.773355 79.6065244,292.022193 C81.5152254,307.456408 77.3960021,323.204051 79.6065244,338.612852 C82.8245348,360.887423 100.117621,380.222546 121.636205,387.062902 C143.15479,393.903258 167.916891,388.469093 185.346009,374.15729 C192.147616,368.562175 198.026755,361.666758 205.75083,357.418537 C222.457278,348.252883 243.108657,353.538805 261.285952,359.286398 C279.463247,365.033992 299.740538,370.951005 316.97411,362.767991 C322.738472,360.023378 327.703646,355.847161 332.137443,351.264334 C357.158855,325.38534 365.150744,284.521097 351.692064,251.174891 C346.369806,237.977028 337.957068,225.689801 336.256667,211.572831 C334.190678,194.325816 342.454631,177.76919 349.166967,161.737767 C356.062096,145.270087 361.592653,127.548695 359.581928,109.814595 C357.571203,92.0804963 346.403814,74.3887523 329.191497,69.3993162 C320.166615,66.7817683 310.487078,67.8109983 301.211386,66.4344561 C280.215675,63.2789978 271.624395,50.4835085 260.669557,34.8714022 C249.714718,19.2592958 229.348156,6.56122336 210.852036,1.90215743 Z" id="路径" fill="#F3F6FA"></path>
                <path d="M230.08314,539 C207.402763,539 184.986962,535.218175 164.890425,531.409642 C155.573964,529.640191 147.236997,527.859505 139.620579,523.94986 C130.264712,519.147063 121.865823,510.940179 114.660343,499.553899 C104.949831,484.213037 99.337437,466.653338 93.9108092,449.672222 C89.773287,436.718714 85.4950327,423.327056 79.4266667,411.042008 C73.622877,399.296221 66.034605,388.258215 58.6996506,377.585333 C55.1869786,372.473585 51.5560918,367.193317 48.1503762,361.856876 C27.9694004,330.360641 12.927959,293.443706 3.43136029,252.145272 C1.31475027,242.921656 -0.846893998,232.198218 0.335255213,221.592745 C1.63561935,209.953687 7.0172129,200.168339 15.0896032,194.742022 C19.9307857,191.489602 25.3348964,190.281881 29.9283905,191.416577 C38.7156996,193.601709 43.7426484,202.915202 44.8685048,219.109895 L42.0538638,219.306501 C41.0011881,204.499282 36.7285631,196.045237 29.2416181,194.191526 C25.4362235,193.253436 20.853988,194.309489 16.6770607,197.118142 C9.29707209,202.078223 4.37145038,211.122086 3.16678404,221.929783 C2.04092765,232.09149 4.14064982,242.539679 6.2065963,251.532986 C15.6300143,292.53932 30.5476115,329.130451 50.5540796,360.357056 C53.9316487,365.626089 57.551277,370.889505 61.0526904,375.978784 C68.4439376,386.735925 76.0885025,397.858191 81.9823607,409.789349 C88.1407952,422.265386 92.4528252,435.758155 96.6184938,448.812774 C101.988829,465.625371 107.539301,483.005316 117.058417,498.042844 C123.988063,508.990974 132.021048,516.855202 140.915314,521.427689 C148.193975,525.163198 156.317029,526.898945 165.413949,528.617841 C193.171938,533.886874 225.382689,539.094117 256.366257,534.235147 C289.381996,529.039139 317.280717,511.765923 330.999277,488.049657 C339.52201,473.304228 342.944614,456.092803 346.254632,439.443107 C349.159341,424.838112 352.165378,409.750028 358.582759,396.094357 C363.407054,385.820304 370.117158,376.478724 376.596461,367.446096 C380.897233,361.458048 385.344366,355.267776 389.177907,348.8809 C412.443729,310.177661 414.4759,259.043324 394.362475,218.62119 C388.108343,206.049659 380.987301,198.837038 372.599671,196.562029 C367.229336,195.107147 360.45731,196.95524 356.134021,201.055874 C352.897184,204.12854 351.563044,207.886518 352.37929,211.627644 L349.604054,212.234313 C348.590784,207.538245 350.279568,202.712979 354.220066,198.983088 C359.286419,194.157822 367.009794,192.073801 373.359624,193.803932 C382.580388,196.303633 390.286875,204.004959 396.923799,217.340444 C417.459419,258.610791 415.382214,310.806799 391.632273,350.324547 C387.74244,356.806918 383.255902,363.047745 378.921355,369.080732 C372.509603,378.012249 365.878309,387.241482 361.16097,397.279608 C354.88995,410.626328 351.923319,425.545892 349.052385,439.971134 C345.674816,456.823052 342.224066,474.292874 333.464903,489.437131 C319.318517,513.911734 290.671102,531.696125 256.833488,537.015713 C247.982132,538.371457 239.038088,539.034448 230.08314,539 L230.08314,539 Z" id="路径" fill="#979CA5"></path>
                <path d="M351.201152,225.013885 C352.619054,222.494661 353.544863,219.759405 353.935115,216.936525 C354.021628,216.56732 354.021628,216.184996 353.935115,215.815791 C353.675816,215.249027 353.22891,214.774844 352.659986,214.462833 C351.217361,213.478405 349.288458,212.443493 347.77019,213.347148 C346.840859,213.887322 346.462642,214.952523 346.149263,215.936952 C345.392831,218.424105 344.695832,220.928087 344.058268,223.448896 C343.993785,223.629573 343.982587,223.823144 344.025849,224.009263 C344.125964,224.208337 344.292917,224.371418 344.501321,224.473711 C346.507934,225.680454 348.901805,226.196341 351.271392,225.932685 L351.201152,225.013885 Z" id="路径" fill="#2B2C2F"></path>
                <path d="M223.138668,219.229328 C223.138668,219.229328 231.493992,230.99195 241.392011,242.304302 C250.918432,253.199736 261.83553,263.667135 268.118914,262.966714 C285.465783,261.565873 302.671895,257.830295 319.562712,253.816773 C331.273679,251.037326 343.418176,248.085552 354.419729,243.254873 C361.204207,240.269746 361.767234,228.490447 356.300239,223.520795 C353.682163,221.163824 349.476349,221.391738 346.317767,222.964906 C343.159184,224.538073 340.771948,227.261931 338.272107,229.763434 C330.705021,237.284619 320.818263,236.245106 310.83016,236.989998 L271.7617,239.936212 C271.7617,239.936212 261.62721,233.532365 252.905918,209.195522 C244.184626,184.85868 234.849635,168.370997 228.256586,166.069615 C224.816489,164.863334 223.560938,179.544376 223.189341,193.752912 C222.795221,206.677343 223.138668,219.229328 223.138668,219.229328 Z M334.516716,236.017191 C334.60117,235.989397 334.685624,235.933808 334.775708,235.906013 C334.704696,235.969197 334.62735,236.025075 334.544867,236.07278 L334.516716,236.017191 Z" id="形状" fill="#CDD4E1"></path>
                <path d="M41.8058171,225.013022 C40.3820141,222.494901 39.4537626,219.759436 39.0650466,216.936242 C38.9783178,216.567063 38.9783178,216.184768 39.0650466,215.815589 C39.3270568,215.248507 39.7768976,214.774438 40.3487672,214.462728 C41.794984,213.478371 43.7286897,212.443533 45.2236555,213.347123 C46.1553008,213.887258 46.5290423,214.952383 46.8486183,215.936741 C47.6069342,218.423716 48.3056682,220.927518 48.9448203,223.448146 C49.0076655,223.629268 49.0170205,223.822819 48.971903,224.008473 C48.8746813,224.209524 48.7064453,224.373439 48.4952472,224.472888 C46.4865664,225.681555 44.087635,226.197624 41.7137359,225.931756 L41.8058171,225.013022 Z" id="路径" fill="#2B2C2F"></path>
                <path d="M160.23096,191.253775 C161.265834,195.558337 162.080143,199.912341 162.670745,204.298975 C163.563626,210.465489 164.081156,216.660263 164.598686,222.911559 C164.655558,223.623732 164.712429,224.313296 164.769301,225.025469 C164.939915,226.935902 165.116216,254.1963 163.279269,254.1963 C184.816481,259.481076 202.054213,259.678902 214.66261,258.220643 C218.121773,256.738645 221.445901,254.962939 224.59805,252.913258 C225.229323,252.483694 225.200887,247.826309 225.31463,247.091527 C225.883344,242.778924 226.525992,238.471973 227.1857,234.15937 C228.533553,225.539816 227.498493,216.637654 232.383749,208.781143 C233.521178,207.040276 234.85197,205.389843 235.716415,203.53028 C238.184636,198.279418 236.660481,192.084643 234.766662,186.573781 C232.787537,180.836832 232.724978,175.410752 231.433996,169.702064 C230.296568,164.824245 224.711793,164.411637 220.059709,163.654246 C219.371565,163.541203 218.683421,163.411203 218.080583,163.309464 C213.846406,162.639925 209.578404,162.202164 205.295885,161.998162 L201.667487,142.096884 C200.74617,132.652113 181.330262,135.359501 181.330262,135.359501 L182.467691,162.28077 C182.467691,162.653813 179.339762,162.597291 173.993847,163.021204 C173.869944,163.01654 173.745911,163.026023 173.624183,163.049464 C173.16542,163.079609 172.704761,163.119175 172.242207,163.16816 C169.665931,163.422507 166.555064,163.50729 163.825235,164.191202 C160.577876,164.99381 157.876483,166.582068 157.307768,170.075107 C156.124842,177.095098 158.621498,184.544653 160.23096,191.253775 Z" id="路径" fill="#CDD4E1"></path>
                <path d="M193.43262,292.373967 C195.991294,300.488028 201.661407,313.245915 208.340173,327.115625 C223.589643,358.819423 243.996351,396.183411 243.996351,396.183411 C244.28698,419.155469 249.410027,455.705243 254.761018,488.094104 C260.864225,525.020101 267.297951,556.600364 267.297951,556.600364 C278.638177,563.66437 282.684187,552.883057 282.684187,552.883057 C282.684187,552.883057 283.117281,521.718324 282.969118,486.061378 C282.855146,447.742794 282.108628,404.24132 279.487269,388.788104 C273.042146,350.301063 226.991711,247.55852 226.991711,247.55852 C226.188207,246.817304 225.379005,246.137857 224.575502,245.514562 C212.084157,235.704691 202.561787,240.067753 196.891674,250.107851 C196.056517,251.583736 195.334579,253.119116 194.731902,254.701139 C190.378167,265.622834 189.688636,280.621213 193.43262,292.373967 Z" id="路径" fill="#CDD4E1"></path>
                <path d="M71,478.051002 L75.3549652,491 C96.6260034,485.137044 114.280965,478.791586 128.896407,472.485401 C176.845806,451.833207 191.914657,431.685957 191.914657,431.685957 C208.931487,405.277406 210.386874,361.981297 208.226185,327.891992 C207.151699,310.835973 205.044975,293.861077 201.917643,277.061002 C201.917643,277.061002 199.544242,265.666108 194.825431,255.522352 C194.086542,253.934585 193.297274,252.380481 192.424042,250.904923 C186.736838,241.041691 178.457926,234.668181 167.570513,246.11918 C167.010749,246.741944 166.411802,247.39276 165.818452,248.099681 C141.748593,277.089055 176.789829,398.84218 163.982425,408.873727 C151.712395,418.506929 130.614883,434.227507 111.622085,448.231276 C89.931224,464.243599 71,478.051002 71,478.051002 Z" id="路径" fill="#CDD4E1"></path>
                <path d="M265.24789,560.33017 C265.356637,561.165449 265.49257,561.938223 265.628504,562.603037 C266.672472,567.716986 268.760409,568.745459 276.035563,572.046797 C284.30575,575.802709 306.713009,582.894053 308.909693,572.847983 C308.933652,572.73544 308.951802,572.621632 308.964066,572.507053 C309.127186,570.92741 309.154373,564.614524 299.214924,562.318928 C297.48855,561.950426 295.834099,561.279979 294.321322,560.335852 C293.35567,559.713994 292.481943,558.948317 291.727713,558.062986 C291.127109,557.373637 290.593448,556.623705 290.134574,555.824212 C289.688712,555.05712 289.340723,554.363896 288.981859,553.670671 C287.894392,551.397805 287.089666,549.511326 285.083289,549.170396 C280.331058,548.391939 273.577888,550.255689 273.876941,555.278724 C273.876941,555.278724 268.031806,555.165081 267.205331,551.579634 C266.378856,547.994187 264.285482,553.244509 265.24789,560.33017 Z" id="路径" fill="#47494F"></path>
                <path d="M74.9379167,522.931648 C75.3738835,522.843341 75.7988782,522.70788 76.2053525,522.527669 C78.3976738,521.583155 82.4854395,518.595989 81.0467287,509.6288 C80.6380038,507.413991 80.727702,505.136375 81.3093505,502.960306 C81.4660835,502.348779 81.6781931,501.752693 81.9430684,501.179386 C82.3921935,500.198409 82.9535088,499.272415 83.6158552,498.419813 C84.0897163,497.79962 84.5464499,497.281845 85.0260202,496.712861 C86.8244088,494.738486 88.4001397,493.17947 87.9091511,491.02302 C86.7673171,486.112687 82.434057,480.212322 77.8495934,482.346013 C77.8495934,482.346013 75.7143638,476.656172 78.7687698,474.499722 C81.8231758,472.343272 76.0911691,472.286374 69.8053728,475.825455 C68.3021413,476.610566 66.9134236,477.596414 65.6776429,478.755723 C63.3939748,481.111317 63.2284089,483.984687 63.028588,490.624731 C62.7260019,500.058487 64.7013748,524.456525 74.9379167,522.931648 Z" id="路径" fill="#47494F"></path>
                <path d="M163.290464,168.0727 C156.745726,170.396817 151.079214,185.25996 142.425616,209.817188 C133.772018,234.374416 123.675222,240.781136 123.675222,240.781136 C110.734914,239.795487 97.7946059,238.809838 84.854298,237.824189 C74.9420967,237.079351 65.1138023,238.143405 57.6013382,230.543825 C55.1232879,228.034899 52.7459258,225.307563 49.6134017,223.694682 C46.4808776,222.081801 42.3023142,221.86339 39.7012004,224.25471 C34.224877,229.26136 34.8122253,241.133954 41.5527459,244.130104 C52.4830175,249.002348 64.5432354,251.970496 76.2007001,254.770636 C92.9820793,258.808438 110.059929,262.560626 127.288812,263.966296 C140.025879,265.411168 172,219.920093 172,219.920093 C172,219.920093 169.829608,165.748584 163.290464,168.0727 Z M61.2932416,236.894542 L61.0750837,236.732134 L61.3323982,236.821738 L61.2932416,236.894542 Z" id="形状" fill="#CDD4E1"></path>
                <path d="M183,135.367538 L183.33046,143.490728 C190.470574,156.520581 200.124354,158.111299 205,157.994334 L202.38882,142.338627 C201.494952,132.583782 183,135.367538 183,135.367538 Z" id="路径" fill="#B2B8C4"></path>
                <path d="M174.070909,89.1909017 C175.453413,90.9936277 177.242404,92.4561781 179.297092,93.4634544 C181.04178,94.2913539 182.930395,94.785964 184.862638,94.921018 C191.57636,95.5385354 199.228986,92.5343967 200.631684,85.9308549 C202.085287,78.8822555 199.257266,69.4136556 191.774322,66.7989423 C189.89184,66.2133233 187.92196,65.9462046 185.948598,66.0089651 L184.070792,66.0089651 C182.011993,66.0089651 179.896633,66.0979766 178.041451,66.9658389 C176.892231,67.5360156 175.864981,68.3178889 175.015468,69.2690119 C170.043807,74.5818867 169.642228,83.4607854 174.070909,89.1909017 Z" id="路径" fill="#2B2C2F"></path>
                <path d="M219.025262,124.165659 C219.083672,121.655553 219.273149,119.149859 219.592976,116.658064 C219.848447,114.559871 220.631892,112.614672 220.881686,110.500087 C221.409948,106.136403 220.156025,101.745877 217.384569,98.2551656 C214.597094,94.8401384 210.208665,92.4195672 205.916748,91.1901574 C202.350987,90.1746672 198.620538,89.8041384 194.914453,90.0973487 C191.355372,90.3684815 187.836472,91.0040818 184.417423,91.9933718 C179.529407,93.4850556 174.91957,96.0859403 171.876624,100.145725 C167.175953,106.418446 167.10215,114.942354 169.776082,122.001898 C170.382339,123.669704 171.200366,125.25903 172.211575,126.73376 C174.102062,129.400213 177.888714,130.689727 180.960046,131.602223 C185.633561,132.941997 190.462201,133.716563 195.334561,133.908049 C200.109035,134.143003 205.025437,133.973617 209.680691,132.858953 C212.882598,132.088522 216.765761,130.73344 218.372391,127.711824 C218.860023,126.68535 219.082085,125.560473 219.019585,124.433398 C219.019585,124.356901 219.019585,124.258548 219.025262,124.165659 Z" id="路径" fill="#2B2C2F"></path>
                <path d="M173.610054,119.576304 C175.162726,117.149334 177.423234,117.902531 179.261323,119.185757 C179.078656,114.566144 179.449699,110.627199 180.614203,107.703675 C184.901176,96.9468949 207.032458,93.1976436 217.809828,106.587827 C220.270128,109.645252 221.234839,115.514615 221.805674,122.455194 C223.51818,143.427568 213.53998,151.634634 206.501581,151.969389 C199.845642,152.287406 186.311139,150.362567 181.601748,134.958277 C176.407147,132.174235 171.189713,123.375769 173.610054,119.576304 Z" id="路径" fill="#CDD4E1"></path>
                <path d="M180.381415,119.331113 C180.435599,119.412489 180.484722,119.497363 180.528487,119.585219 C180.666858,119.918289 180.830797,120.239307 181.018726,120.545178 C181.215355,120.852662 181.557259,121.02556 181.91205,120.996924 C182.413761,120.768671 182.852068,120.413324 183.18667,119.963556 C185.180308,117.535424 185.338274,114.158627 185.142178,111.143226 C184.597469,102.610884 190.670982,103.237681 194.832564,101.255648 C198.994146,99.2736148 198.607402,97.5287481 198.607402,97.5287481 C200.549157,99.0301495 202.891265,99.8723501 205.312779,99.9399394 C209.294607,100.007701 211.713118,101.707393 211.849295,105.231008 C211.985473,108.754622 217.960938,107.269509 218.718085,110.313144 C219.475231,113.356779 218.467518,104.914786 218.467518,104.914786 L208.891522,94.1293636 L195.709547,93 L183.922029,98.245894 L176.486741,104.886552 C175.767724,108.455341 173.131329,114.932241 177.287464,117.264377 C177.946563,117.637067 178.70371,117.829059 179.34102,118.241277 C179.760223,118.521698 180.115294,118.893642 180.381415,119.331113 L180.381415,119.331113 Z" id="路径" fill="#2B2C2F"></path>
                <path d="M164,253.244168 C185.6188,258.476282 202.921832,258.672136 215.577992,257.228409 C219.379308,255.576895 222.96673,253.488029 226.264655,251.005831 C226.898319,250.580547 227.486314,237.698915 228.148522,233.429286 C229.501481,224.895625 228.462499,216.082172 233.366262,208.303949 C234.508,206.580429 235.843832,204.946443 236.711553,203.10541 C239.189123,197.906872 237.659195,191.773827 235.758202,186.31788 C233.771579,180.638099 233.708783,175.266089 232.412911,169.614287 C231.271174,164.785074 225.665243,164.35979 220.995536,163.626734 C206.695274,172.244333 187.810936,168.058643 174.406937,163 C173.946437,163.029844 173.484033,163.069015 173.019726,163.117513 C170.433691,163.369326 167.311039,163.453263 164.570869,164.13036 C166.976117,170.666607 168.479392,177.488643 169.040771,184.415293 C170.038651,197.144037 168.781306,209.946041 165.324416,222.254387 C165.381502,222.959463 165.438589,223.642156 165.495676,224.347232 C165.581306,225.281738 165.666937,232.483589 165.52422,239.45601 C165.381502,246.428431 164.919099,253.244168 164,253.244168 Z" id="路径" fill="#979CA5"></path>
                <path d="M112,449.28209 C115.836958,459.074973 122.966785,467.309262 129.490181,473.403977 C178.03875,452.840599 193.295901,432.779994 193.295901,432.779994 C210.525372,406.485014 211.998946,363.375102 209.811256,329.432401 C224.977725,361.000901 245.273362,398.144584 245.273362,398.144584 C245.505733,415.948302 248.673916,441.958377 252.544879,467.800862 C253.678397,475.225129 254.811915,482.504151 255.979439,489.587651 C265.914723,490.704923 275.929353,489.392129 284,487.559804 C283.886648,449.438508 283.144194,406.161006 280.537103,390.787353 C274.127059,352.498466 228.32727,250.284904 228.32727,250.284904 C228.32727,250.284904 209.323843,261.116849 166.8736,250 C153.163701,266.250711 158.372216,311.701306 163.297351,350.157783 C166.618558,376.368967 169.7414,399.289787 166.697904,407.51849 C166.381349,408.511146 165.79299,409.398432 164.997628,410.082628 C157.828127,415.652225 115.207856,446.941407 112,449.28209 Z" id="路径" fill="#2B2C2F"></path>
                <path d="M344.702203,259.508311 C344.585205,260.047976 344.278403,260.523725 343.841116,260.843573 C343.413827,261.020771 342.941943,261.048252 342.498037,260.921789 C340.959995,260.653619 339.35155,260.223431 338.273837,259.066949 C336.194231,256.832201 337.060734,253.183976 338.062627,250.256457 C340.012258,244.535503 341.965499,238.81455 343.922351,233.093596 C344.610137,231.076737 348.52023,232.272327 349.646683,233.317071 C351.552989,235.076935 351.016841,236.60215 350.589005,239.032438 C349.354239,245.948981 346.95511,252.887872 344.702203,259.508311 Z" id="路径" fill="#2B2C2F"></path>
                <path d="M49.3005048,259.508299 C49.4161305,260.04711 49.7209219,260.522732 50.1561764,260.843559 C50.5853482,261.020782 51.0589475,261.048252 51.5046715,260.921776 C53.0372984,260.653606 54.6457444,260.223417 55.7234574,259.066936 C57.8084799,256.83219 56.9365614,253.183966 55.9400831,250.256448 C53.9868412,244.535498 52.0335993,238.814547 50.0803574,233.093596 C49.3871551,231.076737 45.4824765,232.272327 44.3506072,233.317071 C42.4497165,235.076933 42.9804495,236.602148 43.4137009,239.032435 C44.6430519,245.948975 47.053013,252.887862 49.3005048,259.508299 Z" id="路径" fill="#2B2C2F"></path>
            </g>
        </g>
    </g>
</svg>
