<svg width="20" height="20" viewBox="0 0 20 20" fill="none" xmlns="http://www.w3.org/2000/svg">
<path fill-rule="evenodd" clip-rule="evenodd" d="M0.0197449 9.9715C0.0197449 4.45426 4.46802 0.00598145 9.98526 0.00598145C15.4565 0.00598145 19.9508 4.44276 19.9508 9.96C19.9508 15.4772 15.5025 19.9255 9.98526 19.9255C4.52549 19.9255 0.0197449 15.4887 0.0197449 9.9715ZM15.7669 13.4428C16.0657 13.4428 16.3301 13.2933 16.4795 12.983C16.6289 12.5692 16.4795 12.1554 16.0772 12.006L10.6634 9.55771V4.50023C10.6634 4.08644 10.3071 3.73012 9.89331 3.73012C9.47952 3.73012 9.12319 4.08644 9.12319 4.50023V10.0175C9.12319 10.3163 9.33009 10.6267 9.58296 10.7301L15.4565 13.3968C15.56 13.4428 15.6634 13.4428 15.7669 13.4428Z" fill="#1FDC5D"/>
</svg>
