<svg width="24" height="24" viewBox="0 0 24 24" fill="none" xmlns="http://www.w3.org/2000/svg">
<path d="M4.50782 3.41779C4.50782 2.36334 5.34775 1.50928 6.38266 1.50928H17.6313C18.6669 1.50928 19.5062 2.36334 19.5062 3.41779V5.47879C19.5062 6.87211 18.9087 8.19588 17.8695 9.10157L14.5417 12.0058L17.8695 14.9095C18.3849 15.3617 18.7976 15.919 19.0799 16.5438C19.3621 17.1686 19.5075 17.8466 19.5062 18.5323V20.5938C19.5062 21.6477 18.6663 22.5025 17.6313 22.5025H6.38266C6.13557 22.5021 5.89104 22.4525 5.66337 22.3565C5.4357 22.2605 5.22946 22.12 5.05673 21.9434C4.70409 21.5828 4.507 21.0982 4.50782 20.5938V18.5329C4.50782 17.1402 5.10597 15.8171 6.14446 14.9101L9.47224 12.0058L6.14446 9.10218C5.62903 8.64988 5.21632 8.09255 4.93403 7.4676C4.65175 6.84265 4.50643 6.16454 4.50782 5.47879V3.41779ZM17.6313 3.37094H6.38266V5.47882C6.38195 5.89026 6.46928 6.29709 6.63877 6.672C6.80827 7.04691 7.05601 7.38122 7.36537 7.65248L10.6925 10.5562C10.8988 10.737 11.0639 10.9599 11.1769 11.2098C11.2899 11.4597 11.3482 11.731 11.3477 12.0053C11.3477 12.5625 11.1082 13.0915 10.6925 13.4544L7.36537 16.3592C7.05602 16.6305 6.80828 16.9648 6.63878 17.3397C6.46929 17.7146 6.38196 18.1215 6.38266 18.5329V20.6173H17.6313V18.5329C17.632 18.1215 17.5447 17.7146 17.3752 17.3397C17.2057 16.9648 16.958 16.6305 16.6487 16.3592L13.3214 13.4543C13.1152 13.2735 12.95 13.0506 12.837 12.8007C12.724 12.5507 12.6658 12.2795 12.6663 12.0052C12.6663 11.448 12.9057 10.919 13.3214 10.5561L16.6487 7.65304C16.9581 7.3817 17.2059 7.0473 17.3753 6.67228C17.5448 6.29726 17.6321 5.89031 17.6313 5.47877V3.37094H17.6313Z" fill="#FFFFFF"/>
<path d="M10.9999 14.4151C11.0903 14.3182 11.1997 14.2409 11.3213 14.188C11.4429 14.1352 11.574 14.1079 11.7066 14.1079C11.8392 14.1079 11.9703 14.1352 12.0919 14.188C12.2135 14.2409 12.3229 14.3182 12.4133 14.4151L14.4134 16.5149C14.699 16.8155 14.7848 17.2673 14.63 17.659C14.4752 18.0513 14.1111 18.3069 13.7061 18.3069H9.70635C9.30203 18.3069 8.93788 18.0513 8.78247 17.659C8.70657 17.4673 8.6867 17.258 8.72515 17.0555C8.76361 16.8529 8.85882 16.6654 8.99969 16.5149L10.9999 14.4151Z" fill="#FFFFFF"/>
</svg>
