<svg width="23" height="25" viewBox="0 0 23 25" fill="none" xmlns="http://www.w3.org/2000/svg">
<path d="M11.5003 15.2372C12.5863 15.2372 13.4664 14.4284 13.4664 13.4314V1.80679C13.4663 0.808728 12.5863 0 11.5003 0C10.4142 0 9.53418 0.808728 9.53418 1.80679V13.4314C9.53418 14.4284 10.4142 15.2372 11.5003 15.2372Z" fill="white"/>
<path d="M19.0244 5.39179C18.2664 4.7342 17.1028 4.79797 16.4261 5.53547C15.7495 6.27218 15.8159 7.4027 16.5743 8.0603C18.1425 9.42413 19.1237 11.3869 19.1244 13.5893C19.1172 17.6812 15.7105 20.9922 11.5004 20.9988C7.29044 20.9922 3.88321 17.6812 3.87654 13.5893C3.87708 11.3765 4.86744 9.4066 6.44823 8.04226C7.20931 7.38763 7.27925 6.25671 6.60558 5.51812C5.93122 4.77871 4.76875 4.71027 4.00821 5.36541L4.00767 5.36447C1.67451 7.37116 0.194654 10.3203 0.195313 13.5893C0.19639 19.6582 5.25638 24.5754 11.5004 24.5764C17.7444 24.5754 22.8044 19.6581 22.8053 13.5893C22.8059 10.3344 21.34 7.39679 19.0244 5.39179Z" fill="white"/>
</svg>
