<svg width="25" height="24" viewBox="0 0 25 24" fill="none" xmlns="http://www.w3.org/2000/svg">
<path fill-rule="evenodd" clip-rule="evenodd" d="M2.51953 11.9714C2.51953 6.45413 6.96781 2.00586 12.485 2.00586C17.9563 2.00586 22.4506 6.44264 22.4506 11.9599C22.4506 17.4771 18.0023 21.9254 12.485 21.9254C7.02528 21.9254 2.51953 17.4886 2.51953 11.9714ZM18.2667 15.4426C18.5655 15.4426 18.8299 15.2932 18.9793 14.9829C19.1287 14.5691 18.9793 14.1553 18.577 14.0059L13.1632 11.5576V6.50011C13.1632 6.08632 12.8069 5.73 12.3931 5.73C11.9793 5.73 11.623 6.08632 11.623 6.50011V12.0174C11.623 12.3162 11.8299 12.6265 12.0827 12.73L17.9563 15.3967C18.0598 15.4426 18.1632 15.4426 18.2667 15.4426Z" fill="white"/>
</svg>
