<svg width="166" height="67" viewBox="0 0 166 67" fill="none" xmlns="http://www.w3.org/2000/svg">
<g filter="url(#filter0_d_0_10320)">
<path d="M10.3458 5.33151H9.12452L9.53505 6.48175L11.1771 11.0827L9.51437 17.2793L9.44551 17.5359L9.53326 17.7867L11.1769 22.4843L9.51588 28.5131L9.44444 28.7724L9.53331 29.0262L11.1784 33.7251L9.51362 40.0141L9.44416 40.2766L9.53778 40.5313L11.1898 45.0274L9.49831 54.5178L9.31795 55.5298H10.3458H155.867H156.897L156.714 54.5163L155.022 45.1152L156.682 40.2688L156.769 40.0149L156.696 39.7565L155.036 33.8618L156.682 29.0143L156.768 28.7625L156.696 28.5063L155.036 22.5486L156.681 17.7837L156.768 17.5313L156.697 17.2739L155.036 11.2508L156.681 6.4727L157.074 5.33151H155.867H10.3458Z" stroke="url(#paint0_linear_0_10320)" stroke-width="1.72174"/>
</g>
<defs>
<filter id="filter0_d_0_10320" x="0.903198" y="0.470703" width="164.378" height="65.9199" filterUnits="userSpaceOnUse" color-interpolation-filters="sRGB">
<feFlood flood-opacity="0" result="BackgroundImageFix"/>
<feColorMatrix in="SourceAlpha" type="matrix" values="0 0 0 0 0 0 0 0 0 0 0 0 0 0 0 0 0 0 127 0" result="hardAlpha"/>
<feOffset dy="3"/>
<feGaussianBlur stdDeviation="3.5"/>
<feColorMatrix type="matrix" values="0 0 0 0 0 0 0 0 0 0 0 0 0 0 0 0 0 0 0.05 0"/>
<feBlend mode="normal" in2="BackgroundImageFix" result="effect1_dropShadow_0_10320"/>
<feBlend mode="normal" in="SourceGraphic" in2="effect1_dropShadow_0_10320" result="shape"/>
</filter>
<linearGradient id="paint0_linear_0_10320" x1="10.3458" y1="6.19238" x2="10.3458" y2="54.6689" gradientUnits="userSpaceOnUse">
<stop stop-color="white" stop-opacity="0.601371"/>
<stop offset="1" stop-color="white" stop-opacity="0.39953"/>
</linearGradient>
</defs>
</svg>
