<svg width="24" height="24" viewBox="0 0 24 24" fill="none" xmlns="http://www.w3.org/2000/svg">
<path d="M22.4552 19.32H21.7544C21.7982 18.9419 21.8203 18.5599 21.8203 18.1786C21.8203 12.7746 17.4239 8.37842 12.0201 8.37842C6.61637 8.37842 2.21996 12.7746 2.21996 18.1786C2.21996 18.5597 2.24199 18.9419 2.28605 19.32H1.66449C1.40176 19.32 1.18848 19.5333 1.18848 19.7962C1.18848 20.0592 1.40176 20.2722 1.66449 20.2722H22.4552C22.7182 20.2722 22.9312 20.0592 22.9312 19.7962C22.9312 19.5333 22.7182 19.32 22.4552 19.32Z" fill="#6822FF"/>
<path d="M12 9C11.4476 9 11 8.78669 11 8.52391V4.47609C11 4.21308 11.4481 4 12 4C12.5524 4 13 4.21331 13 4.47609V8.52368C13 8.78668 12.5524 9 12 9Z" fill="#6822FF"/>
<path d="M13.4147 6H10.5853C10.2619 6 10 5.55194 10 5C10 4.44756 10.2622 4 10.5853 4H13.4147C13.7381 4 14 4.44806 14 5C14.0003 5.55194 13.7381 6 13.4147 6Z" fill="#6822FF"/>
</svg>