<svg width="164" height="128" viewBox="0 0 164 128" fill="none" xmlns="http://www.w3.org/2000/svg">
<path fill-rule="evenodd" clip-rule="evenodd" d="M23.814 8.92871C10.6619 8.92871 0 19.5906 0 32.7427V45.394H163.721V32.7427C163.721 19.5906 153.059 8.92871 139.907 8.92871H23.814ZM163.721 49.1149H0V104.185C0 117.337 10.6619 127.999 23.8139 127.999H139.907C153.059 127.999 163.721 117.337 163.721 104.185V49.1149Z" fill="white"/>
<path fill-rule="evenodd" clip-rule="evenodd" d="M23.814 8.92871C10.6619 8.92871 0 19.5906 0 32.7427V45.394H163.721V32.7427C163.721 19.5906 153.059 8.92871 139.907 8.92871H23.814ZM163.721 49.1149H0V104.185C0 117.337 10.6619 127.999 23.8139 127.999H139.907C153.059 127.999 163.721 117.337 163.721 104.185V49.1149Z" fill="url(#paint0_linear_1703_31574)"/>
<rect x="46.1406" y="75.1631" width="70.6977" height="17.1163" rx="5.95349" fill="white"/>
<rect x="46.1406" y="75.1631" width="70.6977" height="17.1163" rx="5.95349" fill="#FFD8AF"/>
<path d="M71.4414 5.95349C71.4414 2.66547 74.1069 0 77.3949 0H120.558C123.846 0 126.511 2.66547 126.511 5.95349V8.93024H71.4414V5.95349Z" fill="white"/>
<path d="M71.4414 5.95349C71.4414 2.66547 74.1069 0 77.3949 0H120.558C123.846 0 126.511 2.66547 126.511 5.95349V8.93024H71.4414V5.95349Z" fill="#FFD8AF"/>
<path d="M36.4648 8.93001C36.4648 6.05299 38.7971 3.7207 41.6741 3.7207H54.3253C57.2023 3.7207 59.5346 6.05299 59.5346 8.93001H36.4648Z" fill="white"/>
<path d="M36.4648 8.93001C36.4648 6.05299 38.7971 3.7207 41.6741 3.7207H54.3253C57.2023 3.7207 59.5346 6.05299 59.5346 8.93001H36.4648Z" fill="#FFD8AF"/>
<defs>
<linearGradient id="paint0_linear_1703_31574" x1="120.295" y1="91.4838" x2="29.5144" y2="80.5802" gradientUnits="userSpaceOnUse">
<stop stop-color="#EA9238"/>
<stop offset="1" stop-color="#FFC07D"/>
</linearGradient>
</defs>
</svg>
