<svg width="27" height="26" viewBox="0 0 27 26" fill="none" xmlns="http://www.w3.org/2000/svg">
<path d="M25.054 9.91453L24.9847 10.4097L24.9864 10.4099L25.054 9.91453ZM23.429 9.68725L23.3588 10.1823L23.3597 10.1824L23.429 9.68725ZM25.9205 10.9145L25.4205 10.9089V10.9145H25.9205ZM25.0511 15.9742L25.1204 16.4694L25.1215 16.4692L25.0511 15.9742ZM23.4261 16.2015L23.4925 16.697L23.4954 16.6966L23.4261 16.2015ZM22.6307 16.8293L22.1703 16.6342L22.1696 16.6359L22.6307 16.8293ZM21.4119 18.9458L21.811 19.247L21.8111 19.2469L21.4119 18.9458ZM21.2642 19.9486L21.7275 19.7607L21.7274 19.7602L21.2642 19.9486ZM21.8807 21.4685L22.3445 21.2818L22.344 21.2806L21.8807 21.4685ZM21.4489 22.7213L21.6988 23.1544L21.699 23.1542L21.4489 22.7213ZM17.9347 24.7498L17.6847 24.3167L17.6845 24.3168L17.9347 24.7498ZM16.6335 24.4969L17.028 24.1897L17.0275 24.189L16.6335 24.4969ZM15.6278 23.21L15.2325 23.5161L15.2339 23.5179L15.6278 23.21ZM14.6761 22.8321L14.6141 22.336L14.6124 22.3362L14.6761 22.8321ZM12.2443 22.8321L12.3081 22.3362L12.3063 22.336L12.2443 22.8321ZM11.2926 23.21L11.6866 23.5179L11.6879 23.5161L11.2926 23.21ZM10.2869 24.4969L9.89296 24.189L9.89241 24.1897L10.2869 24.4969ZM8.9858 24.7498L9.23598 24.3168L9.23575 24.3167L8.9858 24.7498ZM5.47159 22.7213L5.72155 22.2883L5.71966 22.2872L5.47159 22.7213ZM5.03977 21.4685L5.50264 21.6576L5.50311 21.6564L5.03977 21.4685ZM5.65625 19.9486L5.1931 19.7602L5.19291 19.7607L5.65625 19.9486ZM5.50852 18.9458L5.10936 19.2469L5.10946 19.247L5.50852 18.9458ZM4.28977 16.8293L4.75024 16.6344L4.74955 16.6328L4.28977 16.8293ZM3.49432 16.2015L3.56448 15.7064L3.56357 15.7063L3.49432 16.2015ZM1.86932 15.9742L1.79861 16.4692L1.80006 16.4694L1.86932 15.9742ZM1.87216 9.91168L1.8029 9.4165L1.80184 9.41665L1.87216 9.91168ZM3.49716 9.68441L3.43082 9.18882L3.4279 9.18923L3.49716 9.68441ZM4.29261 9.05657L4.75299 9.25165L4.75369 9.24998L4.29261 9.05657ZM5.51136 6.94009L5.1123 6.63884L5.11221 6.63897L5.51136 6.94009ZM5.65909 5.93725L6.12279 5.75021L6.12243 5.74932L5.65909 5.93725ZM5.04261 4.41737L4.57876 4.60404L4.57928 4.6053L5.04261 4.41737ZM5.47443 3.16453L5.22448 2.73148L5.22425 2.73162L5.47443 3.16453ZM8.98864 1.13612L9.23859 1.56916L9.23882 1.56902L8.98864 1.13612ZM10.2898 1.38896L9.89525 1.69612L9.8958 1.69683L10.2898 1.38896ZM11.2955 2.67589L11.6908 2.36972L11.6894 2.36802L11.2955 2.67589ZM12.2472 3.05373L12.3092 3.54987L12.3109 3.54965L12.2472 3.05373ZM14.679 3.05373L14.6152 3.54965L14.617 3.54987L14.679 3.05373ZM15.6307 2.67589L15.2367 2.36801L15.2354 2.36972L15.6307 2.67589ZM16.6364 1.38896L17.0303 1.69683L17.0309 1.69612L16.6364 1.38896ZM17.9375 1.13612L18.1877 0.703227L18.1877 0.703211L17.9375 1.13612ZM21.4517 3.16737L21.2015 3.60026L21.2036 3.60149L21.4517 3.16737ZM21.8835 4.42021L21.4207 4.23111L21.4202 4.23227L21.8835 4.42021ZM21.267 5.94009L21.7302 6.12849L21.7304 6.12803L21.267 5.94009ZM21.4148 6.94293L21.8139 6.64182L21.8138 6.64168L21.4148 6.94293ZM22.6335 9.05941L22.1731 9.25429L22.1737 9.2559L22.6335 9.05941ZM25.1232 9.41934L23.4982 9.19207L23.3597 10.1824L24.9847 10.4097L25.1232 9.41934ZM26.4204 10.9201C26.429 10.1595 25.8686 9.52099 25.1215 9.41911L24.9864 10.4099C25.2393 10.4444 25.4233 10.6582 25.4205 10.9089L26.4204 10.9201ZM26.4205 14.9742V10.9145H25.4205V14.9742H26.4205ZM25.1215 16.4692C25.8677 16.3632 26.4205 15.7263 26.4205 14.9742H25.4205C25.4205 15.2278 25.2346 15.4431 24.9808 15.4792L25.1215 16.4692ZM23.4954 16.6966L25.1204 16.4694L24.9819 15.479L23.3569 15.7063L23.4954 16.6966ZM23.0911 17.0244C23.1715 16.8345 23.3249 16.7195 23.4925 16.697L23.3598 15.7059C22.8058 15.78 22.3739 16.1536 22.1703 16.6342L23.0911 17.0244ZM21.8111 19.2469C22.3242 18.5668 22.7571 17.8205 23.0918 17.0227L22.1696 16.6359C21.8679 17.3551 21.477 18.0293 21.0128 18.6447L21.8111 19.2469ZM21.7274 19.7602C21.6638 19.6041 21.6875 19.4106 21.811 19.247L21.0129 18.6445C20.6988 19.0605 20.5918 19.6227 20.8011 20.137L21.7274 19.7602ZM22.344 21.2806L21.7275 19.7607L20.8009 20.1365L21.4173 21.6564L22.344 21.2806ZM21.699 23.1542C22.3531 22.7763 22.6245 21.9776 22.3445 21.2818L21.4168 21.6552C21.5118 21.8912 21.4197 22.1607 21.1987 22.2884L21.699 23.1542ZM18.1846 25.1828L21.6988 23.1544L21.1989 22.2883L17.6847 24.3167L18.1846 25.1828ZM16.239 24.8041C16.7023 25.3992 17.5316 25.5602 18.1848 25.1827L17.6845 24.3168C17.4627 24.445 17.184 24.3901 17.028 24.1897L16.239 24.8041ZM15.2339 23.5179L16.2396 24.8048L17.0275 24.189L16.0218 22.9021L15.2339 23.5179ZM14.7382 23.3283C14.9443 23.3025 15.1268 23.3797 15.2325 23.5161L16.0231 22.9038C15.68 22.4607 15.1352 22.2709 14.6141 22.336L14.7382 23.3283ZM13.4602 23.4117C13.8951 23.4117 14.3227 23.3817 14.7399 23.3281L14.6124 22.3362C14.2341 22.3849 13.8492 22.4117 13.4602 22.4117V23.4117ZM12.1806 23.3281C12.5977 23.3817 13.0253 23.4117 13.4602 23.4117V22.4117C13.0713 22.4117 12.6864 22.3849 12.3081 22.3362L12.1806 23.3281ZM11.6879 23.5161C11.7936 23.3797 11.9762 23.3025 12.1823 23.3283L12.3063 22.336C11.7852 22.2709 11.2405 22.4607 10.8973 22.9038L11.6879 23.5161ZM10.6809 24.8048L11.6866 23.5179L10.8986 22.9021L9.89296 24.189L10.6809 24.8048ZM8.73561 25.1827C9.38886 25.5602 10.2181 25.3992 10.6815 24.8041L9.89241 24.1897C9.73641 24.3901 9.45773 24.445 9.23598 24.3168L8.73561 25.1827ZM5.22164 23.1544L8.73584 25.1828L9.23575 24.3167L5.72154 22.2883L5.22164 23.1544ZM4.57691 21.2794C4.29177 21.9774 4.56809 22.7809 5.22352 23.1555L5.71966 22.2872C5.50009 22.1618 5.4071 21.8915 5.50264 21.6576L4.57691 21.2794ZM5.19291 19.7607L4.57644 21.2806L5.50311 21.6564L6.11959 20.1365L5.19291 19.7607ZM5.10946 19.247C5.23294 19.4106 5.25661 19.6041 5.1931 19.7602L6.1194 20.137C6.32861 19.6227 6.22161 19.0605 5.90758 18.6445L5.10946 19.247ZM3.82931 17.0242C4.16611 17.82 4.59567 18.566 5.10936 19.2469L5.90768 18.6447C5.4441 18.0301 5.05548 17.3557 4.75023 16.6344L3.82931 17.0242ZM3.42415 16.6965C3.59558 16.7208 3.74998 16.8385 3.83 17.0258L4.74955 16.6328C4.54547 16.1553 4.11464 15.7844 3.56448 15.7064L3.42415 16.6965ZM1.80006 16.4694L3.42506 16.6966L3.56357 15.7063L1.93857 15.479L1.80006 16.4694ZM0.5 14.9742C0.5 15.7275 1.05673 16.3632 1.79861 16.4692L1.94003 15.4792C1.68759 15.4431 1.5 15.2266 1.5 14.9742H0.5ZM0.5 10.9145V14.9742H1.5V10.9145H0.5ZM1.80184 9.41665C1.05673 9.52249 0.5 10.1585 0.5 10.9145H1.5C1.5 10.6592 1.68759 10.4429 1.94248 10.4067L1.80184 9.41665ZM3.4279 9.18923L1.8029 9.4165L1.94141 10.4069L3.56641 10.1796L3.4279 9.18923ZM3.83224 8.8615C3.75178 9.05137 3.59839 9.1664 3.43082 9.18883L3.5635 10.18C4.11752 10.1058 4.54935 9.73223 4.75299 9.25165L3.83224 8.8615ZM5.11221 6.63897C4.59914 7.31908 4.16619 8.06537 3.83154 8.86316L4.75369 9.24998C5.0554 8.53072 5.44631 7.85656 5.91052 7.24121L5.11221 6.63897ZM5.19539 6.12429C5.25995 6.28434 5.23553 6.47561 5.1123 6.63884L5.91042 7.24134C6.2247 6.82504 6.33096 6.2663 6.12279 5.75021L5.19539 6.12429ZM4.57928 4.6053L5.19575 6.12519L6.12243 5.74932L5.50595 4.22943L4.57928 4.6053ZM5.22425 2.73162C4.57024 3.10958 4.29876 3.90827 4.57877 4.60404L5.50646 4.2307C5.41146 3.99464 5.50362 3.72515 5.72462 3.59743L5.22425 2.73162ZM8.73868 0.703076L5.22448 2.73148L5.72438 3.59757L9.23859 1.56916L8.73868 0.703076ZM10.6843 1.08179C10.221 0.486704 9.3917 0.325681 8.73845 0.703211L9.23882 1.56902C9.46057 1.44087 9.73925 1.49576 9.89525 1.69612L10.6843 1.08179ZM11.6894 2.36802L10.6837 1.08108L9.8958 1.69683L10.9015 2.98376L11.6894 2.36802ZM12.1851 2.55759C11.979 2.58336 11.7965 2.5062 11.6908 2.36972L10.9002 2.98205C11.2433 3.42513 11.7881 3.61501 12.3092 3.54987L12.1851 2.55759ZM13.4631 2.47418C13.0282 2.47418 12.6006 2.50418 12.1834 2.55781L12.3109 3.54965C12.6892 3.50101 13.0741 3.47418 13.4631 3.47418V2.47418ZM14.7427 2.55781C14.3256 2.50418 13.898 2.47418 13.4631 2.47418V3.47418C13.852 3.47418 14.2369 3.50101 14.6152 3.54965L14.7427 2.55781ZM15.2354 2.36972C15.1297 2.5062 14.9471 2.58336 14.741 2.55759L14.617 3.54987C15.1381 3.61501 15.6828 3.42513 16.026 2.98205L15.2354 2.36972ZM16.2424 1.08108L15.2367 2.36802L16.0247 2.98376L17.0303 1.69683L16.2424 1.08108ZM18.1877 0.703211C17.5344 0.325681 16.7052 0.486704 16.2418 1.08179L17.0309 1.69612C17.1869 1.49576 17.4656 1.44087 17.6873 1.56902L18.1877 0.703211ZM21.7019 2.73448L18.1877 0.703227L17.6873 1.569L21.2015 3.60025L21.7019 2.73448ZM22.3464 4.6093C22.6315 3.91134 22.3552 3.10778 21.6998 2.73324L21.2036 3.60149C21.4232 3.72695 21.5162 3.99726 21.4207 4.23111L22.3464 4.6093ZM21.7304 6.12803L22.3469 4.60814L21.4202 4.23227L20.8037 5.75216L21.7304 6.12803ZM21.8138 6.64168C21.6904 6.47812 21.6667 6.28463 21.7302 6.12849L20.8039 5.75169C20.5947 6.26601 20.7017 6.8282 21.0157 7.24418L21.8138 6.64168ZM23.094 8.86454C22.7572 8.06874 22.3276 7.32275 21.8139 6.64182L21.0156 7.24405C21.4792 7.85857 21.8678 8.53304 22.1731 9.25429L23.094 8.86454ZM23.4991 9.1922C23.3277 9.1679 23.1733 9.05016 23.0933 8.86293L22.1737 9.2559C22.3778 9.73344 22.8087 10.1043 23.3588 10.1823L23.4991 9.1922ZM13.4631 16.389C11.5602 16.389 10.017 14.8458 10.017 12.9429H9.01705C9.01705 15.3981 11.0079 17.389 13.4631 17.389V16.389ZM16.9091 12.9429C16.9091 14.8458 15.3659 16.389 13.4631 16.389V17.389C15.9182 17.389 17.9091 15.3981 17.9091 12.9429H16.9091ZM13.4631 9.49691C15.3659 9.49691 16.9091 11.0401 16.9091 12.9429H17.9091C17.9091 10.4878 15.9182 8.49691 13.4631 8.49691V9.49691ZM10.017 12.9429C10.017 11.0401 11.5602 9.49691 13.4631 9.49691V8.49691C11.0079 8.49691 9.01705 10.4878 9.01705 12.9429H10.017Z" fill="#060606"/>
</svg>
