<?xml version="1.0" encoding="UTF-8"?>
<svg width="78px" height="79px" viewBox="0 0 78 79" version="1.1" xmlns="http://www.w3.org/2000/svg" xmlns:xlink="http://www.w3.org/1999/xlink">
    <title>3-1-定时-选中</title>
    <defs>
        <linearGradient x1="12.6872481%" y1="6.20458001%" x2="104.602754%" y2="103.698827%" id="linearGradient-1">
            <stop stop-color="#C8F664" offset="0%"></stop>
            <stop stop-color="#79FD8D" offset="100%"></stop>
        </linearGradient>
        <path d="M196.492665,1295 C196.492665,1314.32827 180.820789,1330 161.473986,1330 C142.127182,1330 126.492665,1314.32739 126.492665,1295 C126.492665,1275.67261 142.127182,1260 161.473986,1260 C180.820789,1260 196.493533,1275.67173 196.492665,1295 L196.492665,1295 Z M161.081092,1276 C159.106947,1276 157.506587,1277.60036 157.506587,1279.57451 L157.506587,1299.30722 L157.506587,1299.30722 L157.492665,1299.33046 L174.841262,1309.24126 C176.546011,1310.21513 178.7171,1309.63323 179.706282,1307.93732 C180.684071,1306.26094 180.11775,1304.10931 178.44137,1303.13152 C178.432301,1303.12623 178.42321,1303.12098 178.414095,1303.11577 L164.655597,1295.25521 L164.655597,1295.25521 L164.655597,1279.57451 C164.655597,1277.60036 163.055237,1276 161.081092,1276 Z M144.127745,1254.57129 C145.530157,1256.36364 145.21405,1258.95351 143.4217,1260.35592 C143.420146,1260.35714 143.418591,1260.35835 143.417035,1260.35956 L129.672143,1271.08236 C127.874445,1272.4848 125.280568,1272.16631 123.87555,1270.37063 C122.473138,1268.57828 122.789245,1265.98842 124.581595,1264.586 C124.583149,1264.58479 124.584704,1264.58357 124.586259,1264.58236 L138.331152,1253.85956 C140.128849,1252.45712 142.722727,1252.77561 144.127745,1254.57129 Z M179.871777,1254.57129 C178.469365,1256.36364 178.785472,1258.95351 180.577822,1260.35592 C180.579376,1260.35714 180.580931,1260.35835 180.582487,1260.35956 L194.327379,1271.08236 C196.125077,1272.4848 198.718954,1272.16631 200.123972,1270.37063 C201.526384,1268.57828 201.210277,1265.98842 199.417927,1264.586 C199.416373,1264.58479 199.414818,1264.58357 199.413263,1264.58236 L185.66837,1253.85956 C183.870672,1252.45712 181.276795,1252.77561 179.871777,1254.57129 Z" id="path-2"></path>
        <filter x="-196.2%" y="-190.9%" width="492.3%" height="497.3%" filterUnits="objectBoundingBox" id="filter-3">
            <feOffset dx="0" dy="6" in="SourceAlpha" result="shadowOffsetOuter1"></feOffset>
            <feGaussianBlur stdDeviation="50" in="shadowOffsetOuter1" result="shadowBlurOuter1"></feGaussianBlur>
            <feColorMatrix values="0 0 0 0 0.125490196   0 0 0 0 0.127812629   0 0 0 0 0.129411765  0 0 0 0.1 0" type="matrix" in="shadowBlurOuter1"></feColorMatrix>
        </filter>
    </defs>
    <g id="页面-1" stroke="none" stroke-width="1" fill="none" fill-rule="evenodd">
        <g id="切图" transform="translate(-227.000000, -1405.000000)">
            <g id="形状" transform="translate(104.000000, 152.000000)">
                <use fill="black" fill-opacity="1" filter="url(#filter-3)" xlink:href="#path-2"></use>
                <use fill="url(#linearGradient-1)" fill-rule="evenodd" xlink:href="#path-2"></use>
            </g>
        </g>
    </g>
</svg>
