<svg width="25" height="24" viewBox="0 0 25 24" fill="none" xmlns="http://www.w3.org/2000/svg">
<path fill-rule="evenodd" clip-rule="evenodd" d="M22.429 8.68725L24.054 8.91453C24.554 8.98271 24.9261 9.40884 24.9205 9.91453V13.9742C24.9205 14.477 24.5511 14.9032 24.0511 14.9742L22.4261 15.2015C22.0653 15.2498 21.7727 15.4941 21.6307 15.8293C21.3125 16.5878 20.9006 17.298 20.4119 17.9458C20.1932 18.2355 20.1278 18.6134 20.2642 18.9486L20.8807 20.4685C21.0682 20.9344 20.8864 21.4685 20.4489 21.7213L16.9347 23.7498C16.4972 24.0026 15.9432 23.8946 15.6335 23.4969L14.6278 22.21C14.4034 21.9202 14.0398 21.7867 13.6761 21.8321C13.2784 21.8833 12.8722 21.9117 12.4602 21.9117C12.0483 21.9117 11.642 21.8833 11.2443 21.8321C10.8807 21.7867 10.517 21.9202 10.2926 22.21L9.28693 23.4969C8.97727 23.8946 8.4233 24.0026 7.9858 23.7498L4.47159 21.7213C4.03409 21.4713 3.84943 20.9344 4.03977 20.4685L4.65625 18.9486C4.79261 18.6134 4.72727 18.2355 4.50852 17.9458C4.01989 17.298 3.6108 16.5878 3.28977 15.8293C3.14773 15.4969 2.85511 15.2526 2.49432 15.2015L0.869318 14.9742C0.372159 14.9032 0 14.477 0 13.9742V9.91453C0 9.40884 0.372159 8.98271 0.872159 8.91168L2.49716 8.68441C2.85795 8.63612 3.15057 8.3918 3.29261 8.05657C3.6108 7.29805 4.02273 6.58782 4.51136 5.94009C4.73011 5.65032 4.79545 5.27532 4.65909 4.93725L4.04261 3.41737C3.85511 2.95146 4.03693 2.41737 4.47443 2.16453L7.98864 0.136116C8.42614 -0.116725 8.98011 -0.00877026 9.28977 0.388957L10.2955 1.67589C10.5199 1.96566 10.8835 2.09918 11.2472 2.05373C11.6449 2.00259 12.0511 1.97418 12.4631 1.97418C12.875 1.97418 13.2812 2.00259 13.679 2.05373C14.0426 2.09918 14.4062 1.96566 14.6307 1.67589L15.6364 0.388957C15.946 -0.00877026 16.5 -0.116725 16.9375 0.136116L20.4517 2.16737C20.8892 2.41737 21.0739 2.9543 20.8835 3.42021L20.267 4.94009C20.1307 5.27532 20.196 5.65316 20.4148 5.94293C20.9034 6.59066 21.3125 7.30089 21.6335 8.05941C21.7756 8.3918 22.0682 8.63612 22.429 8.68725ZM8.51705 11.9429C8.51705 14.1219 10.2841 15.889 12.4631 15.889C14.642 15.889 16.4091 14.1219 16.4091 11.9429C16.4091 9.76396 14.642 7.99691 12.4631 7.99691C10.2841 7.99691 8.51705 9.76396 8.51705 11.9429Z" fill="#342A73"/>
</svg>
