<svg width="60" height="60" viewBox="0 0 60 60" fill="none" xmlns="http://www.w3.org/2000/svg">
<circle cx="30" cy="30" r="30" fill="#30414D"/>
<path d="M30.36 33.42C31.6194 33.42 32.64 32.4821 32.64 31.326V17.8453C32.6399 16.6879 31.6194 15.75 30.36 15.75C29.1005 15.75 28.08 16.6879 28.08 17.8453V31.3259C28.08 32.4821 29.1005 33.42 30.36 33.42Z" fill="white"/>
<path d="M39.0854 22.0023C38.2064 21.2397 36.857 21.3136 36.0722 22.1689C35.2876 23.0232 35.3646 24.3342 36.244 25.0968C38.0627 26.6784 39.2006 28.9546 39.2014 31.5087C39.193 36.2539 35.2424 40.0935 30.3601 40.1012C25.4779 40.0935 21.5267 36.2539 21.519 31.5087C21.5196 28.9426 22.6681 26.6581 24.5013 25.0759C25.3839 24.3168 25.465 23.0053 24.6837 22.1488C23.9017 21.2913 22.5536 21.2119 21.6716 21.9717L21.671 21.9706C18.9653 24.2977 17.2492 27.7177 17.25 31.5087C17.2512 38.5465 23.1191 44.2489 30.3601 44.25C37.601 44.2489 43.4689 38.5464 43.47 31.5087C43.4707 27.734 41.7708 24.3274 39.0854 22.0023Z" fill="white"/>
</svg>
