<?xml version="1.0" encoding="UTF-8"?>
<svg width="73px" height="73px" viewBox="0 0 73 73" version="1.1" xmlns="http://www.w3.org/2000/svg" xmlns:xlink="http://www.w3.org/1999/xlink">
    <!-- Generator: Sketch 59.1 (86144) - https://sketch.com -->
    <title>防拆报警</title>
    <desc>Created with Sketch.</desc>
    <g id="页面-1" stroke="none" stroke-width="1" fill="none" fill-rule="evenodd">
        <g id="切图" transform="translate(-480.000000, -328.000000)" fill="#000000" fill-rule="nonzero">
            <g id="黑白" transform="translate(86.000000, 147.000000)">
                <g id="防拆报警" transform="translate(403.000000, 187.000000)">
                    <path d="M54.7587125,50.2891239 C54.46841,50.7372845 53.9947585,51 53.4752698,51 L1.52640188,51 C1.00797056,51.0005308 0.524787512,50.7346084 0.243661462,50.294036 C-0.0374645881,49.8534636 -0.0780163824,49.2986045 0.136005728,48.8210119 L4.53026881,38.8177601 C5.57215629,36.4470397 6.11038212,33.8814993 6.11012551,31.2871179 L6.11012551,22.2311847 C6.11012551,10.5481036 15.0208843,0.520125709 26.5611725,0.0225130201 C32.5569582,-0.254710734 38.3902918,2.03853502 42.6271239,6.33848554 C46.6608007,10.4337454 48.8915462,15.8580331 48.8915462,21.6377584 L48.8915462,31.2871179 C48.8915462,33.8818128 49.4293697,36.4456001 50.4714029,38.8162146 L54.865666,48.8194665 C55.0795731,49.30008 55.0337359,49.8564172 54.7587125,50.2891239 L54.7587125,50.2891239 Z M34,55.6 C34,57.312 33.37,58.912 32.245,60.128 C31.105,61.328 29.605,62 28,62 C24.685,62 22,59.136 22,55.6 C22,54.72 22.675,54 23.5,54 L32.5,54 C33.325,54 34,54.72 34,55.6 Z" id="形状"></path>
                </g>
            </g>
        </g>
    </g>
</svg>