<?xml version="1.0" encoding="UTF-8"?>
<svg width="73px" height="73px" viewBox="0 0 73 73" version="1.1" xmlns="http://www.w3.org/2000/svg" xmlns:xlink="http://www.w3.org/1999/xlink">
    <!-- Generator: Sketch 59.1 (86144) - https://sketch.com -->
    <title>时间</title>
    <desc>Created with Sketch.</desc>
    <g id="页面-1" stroke="none" stroke-width="1" fill="none" fill-rule="evenodd">
        <g id="切图" transform="translate(-713.000000, -335.000000)" fill="#000000" fill-rule="nonzero">
            <g id="黑白" transform="translate(86.000000, 147.000000)">
                <g id="时间" transform="translate(636.000000, 195.000000)">
                    <path d="M29.5375881,29.8928748 L29.5375881,20.8543527 C29.5374884,20.1855736 29.2690028,19.5442306 28.7912056,19.0714371 C28.3134084,18.5986436 27.665446,18.3333333 26.9898884,18.3333333 C26.3146298,18.3333333 25.6670732,18.5991061 25.1896991,19.0718996 C24.712325,19.5446932 24.4442451,20.1858698 24.4444444,20.8543527 L24.4444444,31.9817513 L35.3759413,42.8031882 C35.8528477,43.2766903 36.5007413,43.5424637 37.1761754,43.5416667 C37.8514793,43.5423646 38.4992191,43.2765988 38.9760336,42.8031882 C39.4537854,42.330685 39.7222222,41.68956 39.7222222,41.0210178 C39.7222222,40.3524757 39.4537854,39.7113507 38.9760336,39.2388474 L29.5375881,29.8928748 L29.5375881,29.8928748 Z" id="路径"></path>
                    <path d="M50.7938202,16.6517457 L45.5049966,17.7931631 C48.3129308,21.555216 50.0002013,26.2056135 50.0002013,31.2544897 C50.0002013,43.6902054 39.906108,53.8075672 27.4994463,53.8075672 C15.0949994,53.8075672 5.00016778,43.6902054 5.00016778,31.2544897 C5.00016778,18.8206239 15.0949994,8.7025221 27.4994463,8.7025221 C28.7577936,8.7025221 29.9903021,8.81536888 31.1899585,9.01886308 L29.8441286,13.9145636 L43.7808136,10.2801572 L33.6704787,0 L32.5272985,4.1564616 C30.8691959,3.8457128 29.1859137,3.68977276 27.4990772,3.69064487 C12.3121657,3.69064487 0,16.0316433 0,31.2544897 C0,46.479556 12.3121657,58.8194444 27.4994463,58.8194444 C42.6889417,58.8194444 55,46.479556 55,31.2544897 C55,25.8829827 53.4515205,20.8840551 50.7938202,16.6517457 L50.7938202,16.6517457 Z" id="路径"></path>
                </g>
            </g>
        </g>
    </g>
</svg>