<?xml version="1.0" encoding="UTF-8"?>
<svg width="274px" height="289px" viewBox="0 0 274 289" version="1.1" xmlns="http://www.w3.org/2000/svg" xmlns:xlink="http://www.w3.org/1999/xlink">
    <!-- Generator: Sketch 59.1 (86144) - https://sketch.com -->
    <title>报警-人体感应</title>
    <desc>Created with Sketch.</desc>
    <g id="页面-1" stroke="none" stroke-width="1" fill="none" fill-rule="evenodd">
        <g id="切图" transform="translate(-86.000000, -1727.000000)" fill="#FEFEFE" fill-rule="nonzero">
            <g id="多彩" transform="translate(86.000000, 1679.000000)">
                <g id="报警-人体感应" transform="translate(0.000000, 48.000000)">
                    <path d="M103.726549,105.065713 C99.8961255,120.387409 96.0657017,135.231025 92.2352785,150.554166 C91.7557534,152.948903 93.6724095,156.299802 95.108096,158.215014 C105.641761,171.621499 116.654951,185.507508 127.668141,198.435912 C134.371383,206.09676 137.2442,214.715214 138.201806,224.7708 C139.638937,241.050102 141.554149,257.330849 142.989836,273.610152 C143.469361,279.835313 143.947442,286.05903 136.286594,288.453767 C130.061434,290.368979 125.273404,285.580949 123.358192,276.48297 L113.302608,227.643618 C112.345002,224.291275 110.42979,219.982769 108.035054,217.588032 C88.8829356,200.351124 69.2512923,183.592296 49.6196493,167.311549 C43.3944886,162.043994 41.0011962,157.255964 42.9164079,149.117034 C47.7044375,131.400601 51.534861,113.684167 56.3228906,94.5320464 C43.8740139,101.235289 33.3389047,106.980925 30.945612,121.82454 C29.5084809,132.358207 25.6780573,142.413792 21.8476335,151.989853 C20.8900275,154.862671 16.5800789,156.299802 13.7072614,158.693095 C12.7496554,155.340752 9.87683785,151.989853 10.3549185,149.117034 C13.249094,133.698303 16.6024459,118.369312 20.4105027,103.150501 C21.8476338,98.3624704 24.7204516,93.5744402 28.5508749,90.7016223 C41.4792768,79.6884309 55.3652846,68.6752393 68.7717672,58.141573 C82.1782499,47.6079067 98.4589945,51.4383308 106.597923,65.8024211 C108.992659,69.6328451 110.907871,73.9427946 112.343558,78.2512997 C120.962011,103.150501 135.805625,122.782147 158.310086,136.666712 C161.182904,138.581924 164.055721,144.807085 163.098115,147.200378 C160.703378,152.946014 155.437268,149.595115 151.606844,147.679903 C148.734027,146.242772 145.861209,144.32756 142.988391,142.891873 C126.229566,134.273419 109.47074,126.133045 106.119842,104.108107 C105.162236,104.108107 104.20463,104.586188 103.726549,105.065713 L103.726549,105.065713 Z M40.5216708,167.791074 C49.1401239,174.016236 57.2804963,179.282347 64.4632627,185.507508 C66.3784745,186.944639 67.3360805,190.775063 66.8579998,193.168356 C63.985182,211.362871 58.7176274,228.121699 46.2687508,242.487233 C36.2131666,254.458031 28.0742385,267.864515 18.9762604,280.792919 C15.1458368,286.538555 10.3578073,290.368979 4.13264663,286.060474 C-2.09251402,282.23005 -0.17730225,276.484414 2.69551554,270.738778 C8.44115085,260.205112 13.7087055,249.19192 19.9324218,239.136334 C31.9032177,220.462295 37.169328,200.352568 38.606459,178.326185 C39.0859841,175.451923 39.5640651,172.579105 40.5216708,167.791074 L40.5216708,167.791074 Z M93.1914398,2.11945366 C105.640316,2.11945366 115.21782,12.1750392 115.21782,25.1034429 C114.738295,37.5523212 105.641761,46.6503005 93.1914398,46.6503005 C80.2630379,46.6503005 71.1650597,37.0742401 71.644585,24.1458367 C71.1665043,11.2159887 80.7425632,2.11945366 93.1914398,2.11945366 Z M229.177256,162.523519 C226.304438,162.523519 223.43162,161.086388 221.516408,158.693095 C218.164066,154.383145 218.643591,148.159429 222.953539,144.329004 C242.105657,128.527783 253.118847,105.545238 253.118847,80.1665117 C253.118847,56.2249166 243.063263,33.2423717 224.868751,17.9192309 C220.558802,14.0888068 220.080722,7.86364536 223.911145,3.55514057 C227.741569,-0.754808883 233.966729,-1.23288964 238.275234,2.59753441 C260.779695,21.7496549 273.228571,50.0011995 273.228571,80.1665117 C273.228571,111.28943 259.342564,140.497136 235.402416,160.128782 C233.965285,162.045438 231.570548,162.523519 229.177256,162.523519 Z" id="形状"></path>
                    <path d="M198.873444,142.871429 C196.011949,142.871429 192.672818,141.441029 190.765154,139.058946 C187.426024,134.769185 188.379856,128.57462 192.672818,125.237979 C206.504099,115.229494 214.612389,99.0264436 214.612389,81.3929936 C214.612388,63.7595437 206.504099,48.0323351 192.672818,37.5480089 C188.379856,34.211368 187.426024,28.0168029 190.765154,23.7270413 C194.104285,19.4372797 200.303473,18.4841592 204.596435,21.8208001 C223.196875,35.6417675 234.642857,58.0408202 234.642857,81.3929936 C234.642857,104.745167 223.673072,127.14422 204.596435,140.965187 C203.166407,141.918308 200.781108,142.871429 198.873444,142.871429 Z" id="路径"></path>
                    <path d="M166.271385,125.142857 C162.961222,125.142857 159.652486,123.237467 157.761372,119.902317 C154.924701,115.138843 156.815815,108.945608 161.5436,106.087523 C170.527104,100.846983 176.200446,91.3200339 176.200446,80.3633246 C176.200446,69.8836811 170.99917,60.3567323 162.489157,55.1161921 C157.761372,52.2581074 156.342323,46.0648725 159.178994,41.3013981 C162.015665,36.5379237 168.162499,35.1081628 172.890284,37.9662475 C187.073638,47.0175672 196.057143,63.21338 196.057143,80.3633246 C196.057143,98.4645271 186.601573,114.661777 171.471235,123.23603 C169.580121,124.667228 167.689007,125.142857 166.271385,125.142857 Z" id="路径"></path>
                </g>
            </g>
        </g>
    </g>
</svg>