<?xml version="1.0" encoding="UTF-8"?>
<svg width="64px" height="73px" viewBox="0 0 64 73" version="1.1" xmlns="http://www.w3.org/2000/svg" xmlns:xlink="http://www.w3.org/1999/xlink">
    <!-- Generator: Sketch 59.1 (86144) - https://sketch.com -->
    <title>编组 3备份</title>
    <desc>Created with Sketch.</desc>
    <defs>
        <linearGradient x1="50%" y1="0%" x2="50%" y2="100%" id="linearGradient-1">
            <stop stop-color="#044DFF" offset="0%"></stop>
            <stop stop-color="#517DF4" offset="100%"></stop>
        </linearGradient>
        <linearGradient x1="50%" y1="0%" x2="50%" y2="100%" id="linearGradient-2">
            <stop stop-color="#044DFF" offset="0%"></stop>
            <stop stop-color="#517DF4" offset="100%"></stop>
        </linearGradient>
    </defs>
    <g id="页面-1" stroke="none" stroke-width="1" fill="none" fill-rule="evenodd" stroke-linecap="round">
        <g id="1备份" transform="translate(-651.000000, -1537.000000)" stroke-width="5">
            <g id="彩色" transform="translate(137.000000, 535.000000)">
                <g id="编组-3备份" transform="translate(517.000000, 1005.000000)">
                    <line x1="29.7798002" y1="0.404761905" x2="29.7798002" y2="16.5952381" id="直线-2" stroke="url(#linearGradient-1)"></line>
                    <line x1="51.0730834" y1="12.5650338" x2="51.0760092" y2="29.3099662" id="直线-2" stroke="url(#linearGradient-2)" transform="translate(51.074546, 20.937500) rotate(60.000000) translate(-51.074546, -20.937500) "></line>
                    <line x1="51.0760092" y1="37.6900338" x2="51.0730834" y2="54.4349662" id="直线-2" stroke="url(#linearGradient-2)" transform="translate(51.074546, 46.062500) rotate(120.000000) translate(-51.074546, -46.062500) "></line>
                    <line x1="29.7798002" y1="50.4047619" x2="29.7798002" y2="66.5952381" id="直线-2" stroke="url(#linearGradient-1)" transform="translate(29.779800, 58.500000) rotate(180.000000) translate(-29.779800, -58.500000) "></line>
                    <line x1="7.57286144" y1="37.6900338" x2="7.57578721" y2="54.4349662" id="直线-2" stroke="url(#linearGradient-2)" transform="translate(7.574324, 46.062500) rotate(240.000000) translate(-7.574324, -46.062500) "></line>
                    <line x1="7.57578721" y1="12.5650338" x2="7.57286144" y2="29.3099662" id="直线-2" stroke="url(#linearGradient-2)" transform="translate(7.574324, 20.937500) rotate(300.000000) translate(-7.574324, -20.937500) "></line>
                </g>
            </g>
        </g>
    </g>
</svg>