<?xml version="1.0" encoding="UTF-8"?>
<svg width="84px" height="84px" viewBox="0 0 84 84" version="1.1" xmlns="http://www.w3.org/2000/svg" xmlns:xlink="http://www.w3.org/1999/xlink">
    <!-- Generator: Sketch 59.1 (86144) - https://sketch.com -->
    <title>已插卡</title>
    <desc>Created with Sketch.</desc>
    <g id="页面-1" stroke="none" stroke-width="1" fill="none" fill-rule="evenodd">
        <g id="1" transform="translate(-816.000000, -2030.000000)" fill="#000000" fill-rule="nonzero">
            <g id="编组-3" transform="translate(-2.000000, 0.000000)">
                <g id="已插卡" transform="translate(818.000000, 2037.000000)">
                    <path d="M79.8,0 L4.20000003,0 C1.68000003,0 0,1.67058827 0,4.17647052 L0,16.7058823 C0,19.2117646 1.68000003,20.8823529 4.20000003,20.8823529 L12.6,20.8823529 L12.6,62.6470589 C12.6,67.2411765 16.38,71 21,71 L25.2,71 L25.2,20.8823529 L37.8,20.8823529 L37.8,71 L63,71 C67.6199999,71 71.3999999,67.2411765 71.4,62.6470589 L71.4,20.8823529 L79.8,20.8823529 C82.32,20.8823529 84,19.2117646 84,16.7058823 L84,4.17647052 C84,1.67058817 82.32,0 79.8,0 Z" id="路径"></path>
                </g>
            </g>
        </g>
    </g>
</svg>