<?xml version="1.0" encoding="UTF-8"?>
<svg width="84px" height="84px" viewBox="0 0 84 84" version="1.1" xmlns="http://www.w3.org/2000/svg" xmlns:xlink="http://www.w3.org/1999/xlink">
    <!-- Generator: Sketch 59.1 (86144) - https://sketch.com -->
    <title>时间</title>
    <desc>Created with Sketch.</desc>
    <g id="页面-1" stroke="none" stroke-width="1" fill="none" fill-rule="evenodd">
        <g id="1" transform="translate(-239.000000, -2031.000000)" fill="#000000" fill-rule="nonzero">
            <g id="编组-3" transform="translate(-2.000000, 0.000000)">
                <g id="时间" transform="translate(248.000000, 2038.000000)">
                    <path d="M70,35 C70,54.3282668 54.3281248,70 34.9813213,70 C15.6345178,70 0,54.3273918 0,35 C0,15.6726082 15.6345178,0 34.9813213,0 C54.3281248,0 70.0008688,15.6717332 70,35 L70,35 Z M34.5884272,16 C32.6142826,16 31.0139221,17.6003605 31.0139221,19.5745051 L31.0139221,39.3072154 L31.0139221,39.3072154 L31,39.3304632 L48.3485976,49.2412562 C50.0533462,50.2151337 52.2244356,49.633231 53.2136176,47.937317 C54.1914064,46.2609362 53.6250857,44.1093066 51.9487049,43.1315178 C51.9396368,43.1262286 51.930545,43.12098 51.9214298,43.1157723 L38.1629323,35.2552092 L38.1629323,35.2552092 L38.1629323,19.5745051 C38.1629323,17.6003605 36.5625719,16 34.5884272,16 Z" id="形状"></path>
                </g>
            </g>
        </g>
    </g>
</svg>