<svg width="16" height="16" viewBox="0 0 16 16" fill="none" xmlns="http://www.w3.org/2000/svg">
<path d="M5.06299 7.97926C5.06299 9.59025 6.36877 10.896 7.97975 10.896C9.59073 10.896 10.8965 9.59025 10.8965 7.97926C10.8965 6.36828 9.59073 5.0625 7.97975 5.0625C6.36877 5.0625 5.06299 6.36828 5.06299 7.97926Z" fill="#D81E06"/>
<path fill-rule="evenodd" clip-rule="evenodd" d="M7.51929 0.455202C7.51929 0.204191 7.72327 0 7.9797 0C8.23374 0 8.44032 0.205491 8.44032 0.455202V1.69249C8.4397 1.94402 8.23564 2.14769 7.98403 2.14769H7.98335H7.9797H7.97794C7.72583 2.14769 7.52126 1.94431 7.51929 1.69267V0.455202ZM12.0996 3.20802L12.9741 2.33345C13.0568 2.25139 13.1707 2.20065 13.2965 2.20065C13.4236 2.20065 13.5386 2.25251 13.6216 2.33624C13.8007 2.51467 13.8024 2.80405 13.6253 2.98439L12.7498 3.85925C12.6674 3.94158 12.5536 3.99249 12.428 3.99249C12.3008 3.99249 12.1859 3.94034 12.1033 3.85627C12.0195 3.77296 11.9676 3.65768 11.9676 3.53029C11.9676 3.40475 12.018 3.29095 12.0996 3.20802ZM0.455202 8.43858H1.69335H1.69348C1.9446 8.4371 2.14769 8.23309 2.14769 7.98165V7.97905C2.14769 7.72283 1.94436 7.51864 1.69249 7.51864H0.455202C0.205708 7.51864 0 7.725 0 7.97905V7.98203V7.98295C0 8.23443 0.203739 8.43833 0.455202 8.43858ZM2.33714 2.33627C2.42036 2.25273 2.53551 2.20103 2.66272 2.20103C2.78842 2.20103 2.90235 2.2515 2.9853 2.33329L3.85988 3.20788C3.94212 3.29055 3.99297 3.40455 3.99297 3.53042C3.99297 3.65715 3.94142 3.77184 3.85816 3.85468L3.85685 3.85578C3.77363 3.93932 3.65847 3.99102 3.53127 3.99102C3.40556 3.99102 3.29164 3.94055 3.20869 3.85876L2.3341 2.98396C2.25197 2.9013 2.20121 2.78739 2.20121 2.66163C2.20121 2.53437 2.2532 2.41924 2.33708 2.33633L2.33714 2.33627ZM2.98526 13.6246L3.8599 12.75L3.85979 12.75C3.94147 12.6671 3.99185 12.5533 3.99185 12.4277C3.99185 12.3007 3.94032 12.1857 3.85701 12.1025C3.77384 12.0184 3.6584 11.9663 3.53082 11.9663C3.40538 11.9663 3.29169 12.0167 3.20892 12.0982L2.33441 12.974C2.25415 13.0568 2.20473 13.1698 2.20473 13.2942C2.20473 13.5484 2.41077 13.7544 2.66492 13.7544C2.78951 13.7544 2.90251 13.7049 2.98526 13.6246ZM8.44032 15.5035C8.4397 15.7551 8.23564 15.9587 7.98403 15.9587H7.98335H7.9797H7.97881C7.72654 15.9587 7.52175 15.7555 7.51929 15.5038V14.2669C7.51967 14.0146 7.72428 13.8102 7.97666 13.8102L7.97986 13.8102C8.23374 13.8102 8.44032 14.0168 8.44032 14.2669V15.5035ZM3.37522 7.97926C3.37543 10.5221 5.43707 12.5831 7.9797 12.5831C10.5223 12.5829 12.5835 10.5215 12.5833 7.9784C12.5833 5.43577 10.5219 3.37478 7.97905 3.37478C5.4362 3.37478 3.37522 5.43642 3.37522 7.97926ZM13.6216 13.6216C13.5386 13.7054 13.4236 13.7573 13.2964 13.7573C13.1709 13.7573 13.0572 13.7068 12.9745 13.625L12.0995 12.75C12.0177 12.6674 11.9672 12.5537 11.9672 12.4282C11.9672 12.3008 12.0193 12.1855 12.1033 12.1026C12.1864 12.0188 12.3015 11.967 12.4288 11.967C12.5538 11.967 12.6672 12.0171 12.7498 12.0983L13.6253 12.9741C13.8028 13.1532 13.8019 13.4423 13.6231 13.6199L13.6216 13.6216ZM14.2667 8.43858H15.5044H15.5046C15.7561 8.43685 15.9594 8.23244 15.9594 7.98056V7.97905C15.9594 7.72283 15.7552 7.51864 15.5044 7.51864H14.2667C14.0172 7.51864 13.8115 7.725 13.8115 7.97905V7.98204V7.98273C13.8115 8.23427 14.0152 8.4382 14.2667 8.43858Z" fill="#6655F8"/>
</svg>
