<?xml version="1.0" encoding="UTF-8"?>
<svg width="797px" height="56px" viewBox="0 0 797 56" version="1.1" xmlns="http://www.w3.org/2000/svg" xmlns:xlink="http://www.w3.org/1999/xlink">
    <!-- Generator: Sketch 59.1 (86144) - https://sketch.com -->
    <title>蓝白</title>
    <desc>Created with Sketch.</desc>
    <g id="页面-1" stroke="none" stroke-width="1" fill="none" fill-rule="evenodd">
        <g id="7" transform="translate(-208.000000, -1372.000000)">
            <g id="编组-7" transform="translate(197.000000, 1066.000000)">
                <g id="蓝白" transform="translate(13.000000, 306.000000)">
                    <line x1="14.237016" y1="33" x2="13" y2="53.7435891" id="直线-4" stroke="#0BE1FE" stroke-width="4" stroke-linecap="round" transform="translate(13.618508, 43.371795) rotate(-3.412715) translate(-13.618508, -43.371795) "></line>
                    <line x1="33.237016" y1="33" x2="32" y2="53.7435891" id="直线-4备份" stroke="#0BE1FE" stroke-width="4" stroke-linecap="round" transform="translate(32.618508, 43.371795) rotate(-3.412715) translate(-32.618508, -43.371795) "></line>
                    <line x1="52.237016" y1="33" x2="51" y2="53.7435891" id="直线-4备份-2" stroke="#0BE1FE" stroke-width="4" stroke-linecap="round" transform="translate(51.618508, 43.371795) rotate(-3.412715) translate(-51.618508, -43.371795) "></line>
                    <line x1="71.237016" y1="33" x2="70" y2="53.7435891" id="直线-4备份-3" stroke="#0BE1FE" stroke-width="4" stroke-linecap="round" transform="translate(70.618508, 43.371795) rotate(-3.412715) translate(-70.618508, -43.371795) "></line>
                    <line x1="90.237016" y1="33" x2="89" y2="53.7435891" id="直线-4备份-4" stroke="#0BE1FE" stroke-width="4" stroke-linecap="round" transform="translate(89.618508, 43.371795) rotate(-3.412715) translate(-89.618508, -43.371795) "></line>
                    <line x1="109.237016" y1="33" x2="108" y2="53.7435891" id="直线-4备份-5" stroke="#0BE1FE" stroke-width="4" stroke-linecap="round" transform="translate(108.618508, 43.371795) rotate(-3.412715) translate(-108.618508, -43.371795) "></line>
                    <line x1="128.237016" y1="33" x2="127" y2="53.7435891" id="直线-4备份-6" stroke="#0BE1FE" stroke-width="4" stroke-linecap="round" transform="translate(127.618508, 43.371795) rotate(-3.412715) translate(-127.618508, -43.371795) "></line>
                    <line x1="147.237016" y1="33" x2="146" y2="53.7435891" id="直线-4备份-7" stroke="#0BE1FE" stroke-width="4" stroke-linecap="round" transform="translate(146.618508, 43.371795) rotate(-3.412715) translate(-146.618508, -43.371795) "></line>
                    <line x1="166.237016" y1="33" x2="165" y2="53.7435891" id="直线-4备份-8" stroke="#0BE1FE" stroke-width="4" stroke-linecap="round" transform="translate(165.618508, 43.371795) rotate(-3.412715) translate(-165.618508, -43.371795) "></line>
                    <line x1="185.237016" y1="33" x2="184" y2="53.7435891" id="直线-4备份-9" stroke="#0BE1FE" stroke-width="4" stroke-linecap="round" transform="translate(184.618508, 43.371795) rotate(-3.412715) translate(-184.618508, -43.371795) "></line>
                    <line x1="409.237016" y1="33" x2="408" y2="53.7435891" id="直线-4" stroke="#0BE1FE" stroke-width="4" stroke-linecap="round" transform="translate(408.618508, 43.371795) rotate(-3.412715) translate(-408.618508, -43.371795) "></line>
                    <line x1="428.237016" y1="33" x2="427" y2="53.7435891" id="直线-4备份" stroke="#0BE1FE" stroke-width="4" stroke-linecap="round" transform="translate(427.618508, 43.371795) rotate(-3.412715) translate(-427.618508, -43.371795) "></line>
                    <line x1="447.237016" y1="33" x2="446" y2="53.7435891" id="直线-4备份-2" stroke="#0BE1FE" stroke-width="4" stroke-linecap="round" transform="translate(446.618508, 43.371795) rotate(-3.412715) translate(-446.618508, -43.371795) "></line>
                    <line x1="466.237016" y1="33" x2="465" y2="53.7435891" id="直线-4备份-3" stroke="#0BE1FE" stroke-width="4" stroke-linecap="round" transform="translate(465.618508, 43.371795) rotate(-3.412715) translate(-465.618508, -43.371795) "></line>
                    <line x1="485.237016" y1="33" x2="484" y2="53.7435891" id="直线-4备份-4" stroke="#0BE1FE" stroke-width="4" stroke-linecap="round" transform="translate(484.618508, 43.371795) rotate(-3.412715) translate(-484.618508, -43.371795) "></line>
                    <line x1="504.237016" y1="33" x2="503" y2="53.7435891" id="直线-4备份-5" stroke="#0BE1FE" stroke-width="4" stroke-linecap="round" transform="translate(503.618508, 43.371795) rotate(-3.412715) translate(-503.618508, -43.371795) "></line>
                    <line x1="523.237016" y1="33" x2="522" y2="53.7435891" id="直线-4备份-6" stroke="#0BE1FE" stroke-width="4" stroke-linecap="round" transform="translate(522.618508, 43.371795) rotate(-3.412715) translate(-522.618508, -43.371795) "></line>
                    <line x1="542.237016" y1="33" x2="541" y2="53.7435891" id="直线-4备份-7" stroke="#0BE1FE" stroke-width="4" stroke-linecap="round" transform="translate(541.618508, 43.371795) rotate(-3.412715) translate(-541.618508, -43.371795) "></line>
                    <line x1="561.237016" y1="33" x2="560" y2="53.7435891" id="直线-4备份-8" stroke="#0BE1FE" stroke-width="4" stroke-linecap="round" transform="translate(560.618508, 43.371795) rotate(-3.412715) translate(-560.618508, -43.371795) "></line>
                    <line x1="580.237016" y1="33" x2="579" y2="53.7435891" id="直线-4备份-9" stroke="#0BE1FE" stroke-width="4" stroke-linecap="round" transform="translate(579.618508, 43.371795) rotate(-3.412715) translate(-579.618508, -43.371795) "></line>
                    <line x1="212.237016" y1="33" x2="211" y2="53.7435891" id="直线-4" stroke="#0BE1FE" stroke-width="4" stroke-linecap="round" transform="translate(211.618508, 43.371795) rotate(-3.412715) translate(-211.618508, -43.371795) "></line>
                    <line x1="231.237016" y1="33" x2="230" y2="53.7435891" id="直线-4备份" stroke="#0BE1FE" stroke-width="4" stroke-linecap="round" transform="translate(230.618508, 43.371795) rotate(-3.412715) translate(-230.618508, -43.371795) "></line>
                    <line x1="250.237016" y1="33" x2="249" y2="53.7435891" id="直线-4备份-2" stroke="#0BE1FE" stroke-width="4" stroke-linecap="round" transform="translate(249.618508, 43.371795) rotate(-3.412715) translate(-249.618508, -43.371795) "></line>
                    <line x1="269.237016" y1="33" x2="268" y2="53.7435891" id="直线-4备份-3" stroke="#0BE1FE" stroke-width="4" stroke-linecap="round" transform="translate(268.618508, 43.371795) rotate(-3.412715) translate(-268.618508, -43.371795) "></line>
                    <line x1="288.237016" y1="33" x2="287" y2="53.7435891" id="直线-4备份-4" stroke="#0BE1FE" stroke-width="4" stroke-linecap="round" transform="translate(287.618508, 43.371795) rotate(-3.412715) translate(-287.618508, -43.371795) "></line>
                    <line x1="307.237016" y1="33" x2="306" y2="53.7435891" id="直线-4备份-5" stroke="#0BE1FE" stroke-width="4" stroke-linecap="round" transform="translate(306.618508, 43.371795) rotate(-3.412715) translate(-306.618508, -43.371795) "></line>
                    <line x1="326.237016" y1="33" x2="325" y2="53.7435891" id="直线-4备份-6" stroke="#0BE1FE" stroke-width="4" stroke-linecap="round" transform="translate(325.618508, 43.371795) rotate(-3.412715) translate(-325.618508, -43.371795) "></line>
                    <line x1="345.237016" y1="33" x2="344" y2="53.7435891" id="直线-4备份-7" stroke="#0BE1FE" stroke-width="4" stroke-linecap="round" transform="translate(344.618508, 43.371795) rotate(-3.412715) translate(-344.618508, -43.371795) "></line>
                    <line x1="364.237016" y1="33" x2="363" y2="53.7435891" id="直线-4备份-8" stroke="#0BE1FE" stroke-width="4" stroke-linecap="round" transform="translate(363.618508, 43.371795) rotate(-3.412715) translate(-363.618508, -43.371795) "></line>
                    <line x1="383.237016" y1="33" x2="382" y2="53.7435891" id="直线-4备份-9" stroke="#0BE1FE" stroke-width="4" stroke-linecap="round" transform="translate(382.618508, 43.371795) rotate(-3.412715) translate(-382.618508, -43.371795) "></line>
                    <line x1="607.237016" y1="33" x2="606" y2="53.7435891" id="直线-4" stroke="#0BE1FE" stroke-width="4" stroke-linecap="round" transform="translate(606.618508, 43.371795) rotate(-3.412715) translate(-606.618508, -43.371795) "></line>
                    <line x1="626.237016" y1="33" x2="625" y2="53.7435891" id="直线-4备份" stroke="#0BE1FE" stroke-width="4" stroke-linecap="round" transform="translate(625.618508, 43.371795) rotate(-3.412715) translate(-625.618508, -43.371795) "></line>
                    <line x1="645.237016" y1="33" x2="644" y2="53.7435891" id="直线-4备份-2" stroke="#0BE1FE" stroke-width="4" stroke-linecap="round" transform="translate(644.618508, 43.371795) rotate(-3.412715) translate(-644.618508, -43.371795) "></line>
                    <line x1="664.237016" y1="33" x2="663" y2="53.7435891" id="直线-4备份-3" stroke="#0BE1FE" stroke-width="4" stroke-linecap="round" transform="translate(663.618508, 43.371795) rotate(-3.412715) translate(-663.618508, -43.371795) "></line>
                    <line x1="683.237016" y1="33" x2="682" y2="53.7435891" id="直线-4备份-4" stroke="#0BE1FE" stroke-width="4" stroke-linecap="round" transform="translate(682.618508, 43.371795) rotate(-3.412715) translate(-682.618508, -43.371795) "></line>
                    <line x1="702.237016" y1="33" x2="701" y2="53.7435891" id="直线-4备份-5" stroke="#0BE1FE" stroke-width="4" stroke-linecap="round" transform="translate(701.618508, 43.371795) rotate(-3.412715) translate(-701.618508, -43.371795) "></line>
                    <line x1="721.237016" y1="33" x2="720" y2="53.7435891" id="直线-4备份-6" stroke="#0BE1FE" stroke-width="4" stroke-linecap="round" transform="translate(720.618508, 43.371795) rotate(-3.412715) translate(-720.618508, -43.371795) "></line>
                    <line x1="740.237016" y1="33" x2="739" y2="53.7435891" id="直线-4备份-7" stroke="#0BE1FE" stroke-width="4" stroke-linecap="round" transform="translate(739.618508, 43.371795) rotate(-3.412715) translate(-739.618508, -43.371795) "></line>
                    <line x1="759.237016" y1="33" x2="758" y2="53.7435891" id="直线-4备份-8" stroke="#0BE1FE" stroke-width="4" stroke-linecap="round" transform="translate(758.618508, 43.371795) rotate(-3.412715) translate(-758.618508, -43.371795) "></line>
                    <line x1="778.237016" y1="33" x2="777" y2="53.7435891" id="直线-4备份-9" stroke="#0BE1FE" stroke-width="4" stroke-linecap="round" transform="translate(777.618508, 43.371795) rotate(-3.412715) translate(-777.618508, -43.371795) "></line>
                    <line x1="197.326998" y1="53.75" x2="197.326998" y2="15.25" id="直线-5" stroke="#0BE1FE" stroke-width="4" stroke-linecap="round"></line>
                    <line x1="0.326997995" y1="53.75" x2="0.326997995" y2="15.25" id="直线-5备份-3" stroke="#0BE1FE" stroke-width="4" stroke-linecap="round"></line>
                    <line x1="593.326998" y1="53.75" x2="593.326998" y2="15.25" id="直线-5备份-2" stroke="#0BE1FE" stroke-width="4" stroke-linecap="round"></line>
                    <line x1="792.326998" y1="53.75" x2="792.326998" y2="15.25" id="直线-5备份-4" stroke="#0BE1FE" stroke-width="4" stroke-linecap="round"></line>
                    <rect id="矩形" fill="#0BE1FE" x="392" y="0" width="8" height="56" rx="4"></rect>
                </g>
            </g>
        </g>
    </g>
</svg>