<svg width="44" height="40" viewBox="0 0 44 40" fill="none" xmlns="http://www.w3.org/2000/svg">
<path fill-rule="evenodd" clip-rule="evenodd" d="M41.113 11.3559C42.2033 11.7878 43.2712 11.0739 43.2751 10.0676C43.3127 8.74921 42.7884 7.6392 41.7722 6.88505C41.3583 6.57796 40.9456 6.26819 40.5326 5.95823C38.5934 4.50285 36.6487 3.04336 34.561 1.8393C32.3049 0.538208 29.7247 -0.454988 27.0743 0.306101C25.3589 0.798541 23.7458 1.80623 22.2337 2.80528C21.3858 3.36544 20.5931 4.00967 19.8005 4.65375C18.963 5.33436 18.1257 6.0148 17.2238 6.59567C16.3999 7.1266 15.2264 7.38744 14.2349 7.33433C11.1937 7.17152 8.60552 5.77309 6.27135 3.89632C5.65563 3.40133 5.06344 2.87715 4.47118 2.3529C4.04349 1.97432 3.61577 1.59571 3.17911 1.22804C2.4208 0.589367 1.571 0.457248 0.755473 1.07992C-0.0257136 1.67625 -0.102893 2.51918 0.2728 3.36797C0.491928 3.86306 0.795103 4.34844 1.1604 4.74681C3.65536 7.4667 6.5715 9.59825 9.99936 11.0148C13.8105 12.5899 17.3394 12.4289 20.5713 9.5745C21.8689 8.42825 23.2851 7.41079 24.6954 6.39754C24.81 6.31518 24.9246 6.23285 25.0391 6.15048C27.1668 4.61942 29.3832 4.3502 31.8843 5.42178C34.5056 6.54495 36.7004 8.22281 38.8862 9.9713C39.5663 10.5154 40.3119 11.0388 41.113 11.3559ZM13.0399 39.5109C13.5005 39.6304 13.9264 39.7409 14.2986 39.8512C16.8826 39.7091 18.4509 38.7498 19.9428 37.6627C21.1899 36.7538 22.4086 35.8056 23.6271 34.8576C23.9482 34.6078 24.2693 34.358 24.5909 34.109C27.0318 32.2184 29.5697 31.9569 32.4093 33.2965C34.8436 34.4447 36.9067 36.0617 38.9784 37.7126C39.63 38.2319 40.3502 38.7451 41.1246 39.012C42.4146 39.4563 43.4817 38.5501 43.1984 37.2492C43.0197 36.4285 42.6774 35.5048 42.1038 34.9333C39.7742 32.6118 37.1459 30.6439 34.1491 29.2586C32.045 28.2859 29.8507 27.5201 27.4549 27.8372C25.3626 28.1145 23.7172 29.2982 22.1055 30.5317C21.5785 30.9349 21.0607 31.3521 20.5429 31.7692C19.4542 32.6463 18.366 33.523 17.194 34.2691C16.3693 34.7941 15.1899 35.0642 14.2089 34.9845C11.2404 34.7437 8.63016 33.4852 6.33316 31.6019C5.75999 31.132 5.20097 30.6449 4.64193 30.1577C4.11925 29.7023 3.59655 29.2468 3.06224 28.8053C2.36315 28.2278 1.57213 28.1642 0.817721 28.6905C0.0489462 29.2268 -0.0984202 30.0359 0.204944 30.8517C0.41689 31.4216 0.773052 31.9733 1.18069 32.4298C3.44033 34.9595 6.11636 36.9802 9.22611 38.3062C10.5148 38.8555 11.8861 39.2114 13.0399 39.5109Z" fill="#1D2C3E"/>
<path d="M43.6804 23.9876C43.5988 24.7606 42.5385 25.1663 42.0828 25.1519C41.266 25.1264 40.3567 24.8503 39.6725 24.3971C37.624 23.0405 35.7209 21.4626 33.6599 20.1267C30.0678 17.7983 26.6769 18.2318 23.5 21.0735C22.3242 22.1254 20.9893 22.9975 19.7527 23.9838C17.2714 25.9628 14.5559 26.3029 11.5585 25.3723C7.47092 24.1033 4.13593 21.7156 1.21948 18.6694C0.868733 18.303 0.576079 17.8586 0.344602 17.4053C-0.140781 16.4546 0.0498691 15.4415 0.752112 14.8993C1.441 14.3676 2.47792 14.456 3.28135 15.1375C4.45946 16.1367 5.5895 17.1969 6.80787 18.1437C8.84107 19.7235 11.1465 20.7409 13.6877 21.2028C15.1037 21.4603 16.4017 21.162 17.5392 20.2927C18.9418 19.2209 20.3808 18.1825 21.6847 16.9983C25.5501 13.4879 29.8219 13.0103 34.2638 15.535C36.9916 17.0854 39.5189 19.0224 41.9882 20.9732C42.7578 21.5813 43.7619 23.2147 43.6804 23.9876Z" fill="#1D2C3E"/>
</svg>
