<svg width="63" height="41" viewBox="0 0 63 41" fill="none" xmlns="http://www.w3.org/2000/svg">
<path fill-rule="evenodd" clip-rule="evenodd" d="M41.1129 11.3559C42.2032 11.7877 43.2711 11.0739 43.2751 10.0675C43.3126 8.74918 42.7883 7.63917 41.7721 6.88501C41.3583 6.57793 40.9455 6.26816 40.5325 5.9582C38.5933 4.50282 36.6487 3.04333 34.561 1.83927C32.3049 0.538177 29.7247 -0.455018 27.0742 0.306071C25.3589 0.79851 23.7458 1.8062 22.2336 2.80525C21.3858 3.36541 20.593 4.00964 19.8005 4.65372C18.9629 5.33433 18.1256 6.01477 17.2238 6.59564C16.3999 7.12657 15.2264 7.38741 14.2348 7.3343C11.1936 7.17149 8.60546 5.77306 6.27129 3.89629C5.65557 3.4013 5.06338 2.87711 4.47112 2.35287C4.04343 1.97429 3.61571 1.59568 3.17905 1.22801C2.42074 0.589337 1.57094 0.457217 0.755412 1.07989C-0.0257746 1.67622 -0.102955 2.51915 0.272739 3.36794C0.491867 3.86303 0.795042 4.34841 1.16034 4.74678C3.6553 7.46667 6.57144 9.59822 9.9993 11.0148C13.8105 12.5899 17.3393 12.4289 20.5713 9.57447C21.8689 8.42822 23.285 7.41076 24.6953 6.39751C24.8099 6.31515 24.9245 6.23282 25.039 6.15045C27.1667 4.61939 29.3832 4.35017 31.8842 5.42175C34.5055 6.54492 36.7003 8.22278 38.8861 9.97127C39.5663 10.5154 40.3119 11.0387 41.1129 11.3559ZM13.0399 39.5108C13.5004 39.6304 13.9264 39.7409 14.2986 39.8512C16.8826 39.7091 18.4509 38.7497 19.9427 37.6627C21.1898 36.7538 22.4085 35.8056 23.6271 34.8576C23.9482 34.6078 24.2693 34.358 24.5908 34.1089C27.0317 32.2184 29.5697 31.9569 32.4093 33.2964C34.8435 34.4447 36.9067 36.0617 38.9784 37.7126C39.63 38.2318 40.3501 38.7451 41.1246 39.012C42.4145 39.4563 43.4816 38.55 43.1983 37.2492C43.0196 36.4284 42.6774 35.5048 42.1038 34.9333C39.7741 32.6118 37.1458 30.6439 34.149 29.2586C32.045 28.2858 29.8506 27.52 27.4548 27.8372C25.3625 28.1145 23.7172 29.2981 22.1055 30.5316C21.5785 30.9349 21.0606 31.3521 20.5428 31.7692C19.4542 32.6462 18.3659 33.5229 17.1939 34.2691C16.3693 34.794 15.1898 35.0641 14.2088 34.9844C11.2403 34.7437 8.6301 33.4851 6.3331 31.6019C5.75993 31.132 5.20091 30.6449 4.64187 30.1577C4.11919 29.7022 3.59649 29.2467 3.06218 28.8053C2.36309 28.2278 1.57207 28.1641 0.81766 28.6905C0.0488852 29.2268 -0.0984812 30.0359 0.204883 30.8516C0.416829 31.4216 0.772991 31.9733 1.18063 32.4297C3.44027 34.9594 6.1163 36.9802 9.22605 38.3061C10.5148 38.8555 11.886 39.2114 13.0399 39.5108Z" fill="#FF5057"/>
<path d="M43.6804 23.9876C43.5988 24.7606 42.5385 25.1663 42.0828 25.1518C41.2661 25.1264 40.3567 24.8502 39.6726 24.397C37.6241 23.0404 35.7209 21.4626 33.66 20.1267C30.0678 17.7982 26.677 18.2318 23.5001 21.0734C22.3242 22.1254 20.9893 22.9975 19.7527 23.9837C17.2714 25.9628 14.5559 26.3029 11.5585 25.3723C7.47096 24.1033 4.13596 21.7155 1.21951 18.6694C0.868763 18.303 0.576109 17.8586 0.344633 17.4052C-0.140751 16.4546 0.0498996 15.4415 0.752143 14.8993C1.44103 14.3676 2.47795 14.456 3.28138 15.1375C4.45949 16.1367 5.58953 17.1969 6.8079 18.1436C8.8411 19.7235 11.1465 20.7409 13.6878 21.2027C15.1037 21.4603 16.4018 21.162 17.5393 20.2926C18.9418 19.2209 20.3808 18.1825 21.6847 16.9982C25.5501 13.4879 29.8219 13.0103 34.2639 15.535C36.9916 17.0854 39.519 19.0224 41.9882 20.9732C42.7578 21.5813 43.762 23.2146 43.6804 23.9876Z" fill="#FF5057"/>
<path fill-rule="evenodd" clip-rule="evenodd" d="M61.7739 37.0399C58.3699 31.1228 54.9023 25.2374 51.4348 19.3521C50.1941 17.2524 47.8081 17.2524 46.5674 19.3521C44.3412 23.0362 42.1394 26.7325 39.9393 30.4258L39.9392 30.4261C38.5867 32.6966 37.2348 34.966 35.8784 37.2308C35.4012 38.0579 35.0194 38.9169 35.5284 39.8713C36.0692 40.8574 37.0236 40.8893 37.978 40.8893H60.7241C61.6784 40.8574 62.4101 40.1894 62.3465 39.235C62.3147 38.5033 62.1556 37.6762 61.7739 37.0399ZM48.7943 37.6444C47.8399 37.6444 47.1082 36.9127 47.1082 35.9583C47.1082 35.0357 47.8399 34.304 48.7943 34.304C49.7805 34.2722 50.4804 35.0039 50.4804 35.9583C50.4804 36.9127 49.7487 37.6444 48.7943 37.6444ZM50.544 30.9955V27.7188V24.3149C50.5122 23.3287 49.7487 22.5652 48.8261 22.5652C47.9036 22.5652 47.1719 23.2968 47.1719 24.283V30.9637C47.1719 31.9817 47.9354 32.7452 48.8579 32.7452C49.8123 32.7452 50.544 32.0135 50.544 30.9955Z" fill="#FF5057"/>
</svg>
