<svg width="60" height="60" viewBox="0 0 60 60" fill="none" xmlns="http://www.w3.org/2000/svg">
<path d="M8.44985 11.865C8.44985 13.989 9.29361 16.026 10.7955 17.5279C12.2974 19.0298 14.3344 19.8735 16.4584 19.8735C18.5823 19.8735 20.6193 19.0298 22.1212 17.5279C23.6231 16.026 24.4669 13.989 24.4669 11.865C24.4669 10.8133 24.2597 9.77191 23.8573 8.80028C23.4548 7.82864 22.8649 6.94579 22.1212 6.20213C21.3776 5.45847 20.4947 4.86857 19.5231 4.46611C18.5514 4.06364 17.5101 3.85649 16.4584 3.85649C15.4067 3.85649 14.3653 4.06364 13.3936 4.46611C12.422 4.86857 11.5391 5.45847 10.7955 6.20213C10.0518 6.94579 9.46193 7.82864 9.05946 8.80028C8.657 9.77191 8.44985 10.8133 8.44985 11.865ZM2.44534 28.881C2.44268 29.8028 2.62194 30.7161 2.97285 31.5685C3.32377 32.4209 3.83944 33.1957 4.49032 33.8484C5.1412 34.5012 5.91449 35.0191 6.76588 35.3725C7.61727 35.7259 8.53002 35.9078 9.45184 35.9078C10.3737 35.9078 11.2864 35.7259 12.1378 35.3725C12.9892 35.0191 13.7625 34.5012 14.4134 33.8484C15.0642 33.1957 15.5799 32.4209 15.9308 31.5685C16.2817 30.7161 16.461 29.8028 16.4583 28.881C16.461 27.9592 16.2817 27.0459 15.9308 26.1935C15.5799 25.3411 15.0642 24.5663 14.4134 23.9135C13.7625 23.2608 12.9892 22.7429 12.1378 22.3895C11.2864 22.0361 10.3737 21.8542 9.45184 21.8542C8.53002 21.8542 7.61727 22.0361 6.76588 22.3895C5.91449 22.7429 5.1412 23.2608 4.49032 23.9135C3.83944 24.5663 3.32377 25.3411 2.97285 26.1935C2.62194 27.0459 2.44268 27.9592 2.44534 28.881ZM8.45132 43.896C8.45132 45.4889 9.08409 47.0165 10.2104 48.1429C11.3368 49.2692 12.8644 49.902 14.4573 49.902C16.0502 49.902 17.5779 49.2692 18.7042 48.1429C19.8306 47.0165 20.4633 45.4889 20.4633 43.896C20.4633 42.3031 19.8306 40.7754 18.7042 39.6491C17.5779 38.5227 16.0502 37.89 14.4573 37.89C12.8644 37.89 11.3368 38.5227 10.2104 39.6491C9.08409 40.7754 8.45132 42.3031 8.45132 43.896ZM25.5003 50.5035C25.5003 51.8959 26.0535 53.2312 27.038 54.2158C28.0226 55.2004 29.358 55.7535 30.7503 55.7535C32.1427 55.7535 33.4781 55.2004 34.4627 54.2158C35.4472 53.2312 36.0003 51.8959 36.0003 50.5035C36.0003 49.1111 35.4472 47.7757 34.4627 46.7912C33.4781 45.8066 32.1427 45.2535 30.7503 45.2535C29.358 45.2535 28.0226 45.8066 27.038 46.7912C26.0535 47.7757 25.5003 49.1111 25.5003 50.5035ZM42.4833 44.898C42.4833 46.2256 43.0107 47.4988 43.9494 48.4375C44.8881 49.3762 46.1613 49.9036 47.4889 49.9036C48.8164 49.9036 50.0896 49.3762 51.0283 48.4375C51.967 47.4988 52.4944 46.2256 52.4944 44.898C52.4944 43.5705 51.967 42.2973 51.0283 41.3586C50.0896 40.4199 48.8164 39.8925 47.4889 39.8925C46.1613 39.8925 44.8881 40.4199 43.9494 41.3586C43.0107 42.2973 42.4833 43.5705 42.4833 44.898ZM50.4933 27.8805C50.4933 28.9423 50.9151 29.9606 51.6659 30.7114C52.4167 31.4622 53.435 31.884 54.4968 31.884C55.5586 31.884 56.5769 31.4622 57.3277 30.7114C58.0785 29.9606 58.5003 28.9423 58.5003 27.8805C58.5003 26.8187 58.0785 25.8004 57.3277 25.0496C56.5769 24.2988 55.5586 23.877 54.4968 23.877C53.435 23.877 52.4167 24.2988 51.6659 25.0496C50.9151 25.8004 50.4933 26.8187 50.4933 27.8805ZM44.4859 12.8655C44.4859 13.2598 44.5636 13.6503 44.7145 14.0147C44.8654 14.379 45.0866 14.7101 45.3654 14.9889C45.6443 15.2678 45.9753 15.489 46.3397 15.6399C46.704 15.7908 47.0945 15.8685 47.4889 15.8685C47.8832 15.8685 48.2737 15.7908 48.6381 15.6399C49.0024 15.489 49.3335 15.2678 49.6123 14.9889C49.8912 14.7101 50.1124 14.379 50.2633 14.0147C50.4142 13.6503 50.4919 13.2598 50.4919 12.8655C50.4919 12.069 50.1755 11.3052 49.6123 10.742C49.0491 10.1789 48.2853 9.86247 47.4889 9.86247C46.6924 9.86247 45.9286 10.1789 45.3654 10.742C44.8022 11.3052 44.4859 12.069 44.4859 12.8655ZM30.0003 5.0025C30.0003 5.26547 30.0521 5.52587 30.1528 5.76882C30.2534 6.01178 30.4009 6.23253 30.5869 6.41848C30.7728 6.60443 30.9936 6.75193 31.2365 6.85257C31.4795 6.9532 31.7399 7.005 32.0028 7.005C32.2658 7.005 32.5262 6.9532 32.7692 6.85257C33.0121 6.75193 33.2329 6.60443 33.4188 6.41848C33.6048 6.23253 33.7523 6.01178 33.8529 5.76882C33.9535 5.52587 34.0053 5.26547 34.0053 5.0025C34.0053 4.73953 33.9535 4.47913 33.8529 4.23618C33.7523 3.99322 33.6048 3.77247 33.4188 3.58652C33.2329 3.40057 33.0121 3.25307 32.7692 3.15243C32.5262 3.0518 32.2658 3 32.0028 3C31.7399 3 31.4795 3.0518 31.2365 3.15243C30.9936 3.25307 30.7728 3.40057 30.5869 3.58652C30.4009 3.77247 30.2534 3.99322 30.1528 4.23618C30.0521 4.47913 30.0003 4.73953 30.0003 5.0025Z" fill="#30414D"/>
</svg>
