<?xml version="1.0" encoding="UTF-8"?>
<svg width="130px" height="130px" viewBox="0 0 130 130" version="1.1" xmlns="http://www.w3.org/2000/svg" xmlns:xlink="http://www.w3.org/1999/xlink">
    <!-- Generator: Sketch 59.1 (86144) - https://sketch.com -->
    <title>灯光</title>
    <desc>Created with Sketch.</desc>
    <g id="页面-1" stroke="none" stroke-width="1" fill="none" fill-rule="evenodd">
        <g id="切图" transform="translate(-83.000000, -4985.000000)">
            <g id="莫兰迪" transform="translate(67.000000, 4594.000000)">
                <g id="功能选择" transform="translate(16.000000, 208.000000)">
                    <g id="灯光" transform="translate(0.000000, 183.000000)">
                        <circle id="椭圆形" fill="#B5ABA1" cx="65" cy="65" r="65"></circle>
                        <g id="照明" transform="translate(30.000000, 39.000000)" fill="#FFFFFF" fill-rule="nonzero">
                            <path d="M11.13,51.24 L58.63,51.24 C58.63,51.24 53.13,34.74 34.88,34.58 C16.63,34.42 11.13,51.24 11.13,51.24 Z" id="路径"></path>
                            <path d="M17.56,31.17 C15.9363318,31.8092525 14.3474638,32.5335894 12.8,33.34 C8.93333333,25.78 5.06,18.2266667 1.18,10.68 C0.54,9.45 1.65,7.61 3.71,6.68 L3.71,6.68 C5.78,5.76 7.88,6.18 8.37,7.47 C11.4566667,15.3766667 14.52,23.2766667 17.56,31.17 Z" id="路径"></path>
                            <path d="M27.72,28.37 C26.0360551,28.6531734 24.3673085,29.0202976 22.72,29.47 C20.5133333,21.31 18.3033333,13.1533333 16.09,5 C15.71,3.67 17.15,2.12 19.33,1.66 L19.33,1.66 C21.5,1.21 23.45,2.05 23.66,3.41 C25.02,11.73 26.3733333,20.05 27.72,28.37 Z" id="路径"></path>
                            <path d="M38.17,27.74 C36.46,27.67 34.75,27.68 33.04,27.74 C32.58,19.34 32.1133333,10.9433333 31.64,2.55 C31.55,1.21 33.26,0 35.47,0 L35.47,0 C37.68,0 39.41,1.22 39.34,2.59 C38.96,10.9833333 38.57,19.3666667 38.17,27.74 Z" id="路径"></path>
                            <path d="M48.56,29.29 C46.89108,28.8724261 45.2022992,28.5386749 43.5,28.29 C44.78,20.0166667 46.0533333,11.74 47.32,3.46 C47.51,2.11 49.45,1.27 51.62,1.74 L51.62,1.74 C53.79,2.2 55.24,3.74 54.89,5.07 C52.79,13.1433333 50.68,21.2166667 48.56,29.29 Z" id="路径"></path>
                            <path d="M58.54,33 C56.96,32.22 55.3533333,31.52 53.72,30.9 C56.6933333,23.1266667 59.6533333,15.34 62.6,7.54 C63.07,6.26 65.15,5.86 67.22,6.79 L67.22,6.79 C69.28,7.71 70.41,9.54 69.78,10.79 C66.04,18.1966667 62.2933333,25.6 58.54,33 Z" id="路径"></path>
                        </g>
                    </g>
                </g>
            </g>
        </g>
    </g>
</svg>