<?xml version="1.0" encoding="UTF-8"?>
<svg width="130px" height="130px" viewBox="0 0 130 130" version="1.1" xmlns="http://www.w3.org/2000/svg" xmlns:xlink="http://www.w3.org/1999/xlink">
    <!-- Generator: Sketch 59.1 (86144) - https://sketch.com -->
    <title>消毒</title>
    <desc>Created with Sketch.</desc>
    <defs>
        <linearGradient x1="50%" y1="1.55458193%" x2="50%" y2="100%" id="linearGradient-1">
            <stop stop-color="#37E64C" offset="0%"></stop>
            <stop stop-color="#0ADBA0" offset="100%"></stop>
        </linearGradient>
    </defs>
    <g id="页面-1" stroke="none" stroke-width="1" fill="none" fill-rule="evenodd">
        <g id="切图" transform="translate(-251.000000, -3924.000000)">
            <g id="多彩" transform="translate(54.000000, 3533.000000)">
                <g id="功能选择" transform="translate(16.000000, 225.000000)">
                    <g id="消毒" transform="translate(181.000000, 166.000000)">
                        <circle id="椭圆形备份-3" fill="url(#linearGradient-1)" cx="65" cy="65" r="65"></circle>
                        <g transform="translate(24.000000, 34.000000)" fill="#FFFFFF" fill-rule="nonzero" id="路径">
                            <path d="M49.2,0 L33.07,0 C31.5180799,0 30.26,1.25807985 30.26,2.81 L30.26,35.61 C30.2603634,36.173112 30.5091949,36.7073677 30.94,37.07 L40,44.56 C40.6570549,45.1090825 41.6129451,45.1090825 42.27,44.56 L51.33,37.07 C51.7570793,36.7054734 52.0021261,36.1714907 52.0000137,35.61 L52.0000137,2.81 C52.0000137,1.26197672 50.7480135,0.0055089796 49.2,0 L49.2,0 Z"></path>
                            <path d="M80.29,39.39 L80,40 C78.87,42 77.13,43 76.29,42.4 L65.81,35.09 C64.96,34.47 64.93,33.09 65.63,31.81 C65.71,31.68 65.78,31.55 65.85,31.42 C66.54,30.16 67.79,29.37 68.76,29.76 L80.42,34.81 C81.38,35.2 81.4,37.34 80.29,39.39 Z"></path>
                            <path d="M72.87,49.46 L72.41,49.93 C70.87,51.45 69,51.86 68.35,51 L60.27,41.08 C59.6736585,40.0474095 59.9296659,38.7332381 60.87,38 L61.16,37.71 C62.1,36.71 63.45,36.43 64.27,37.09 C67.52,39.83 70.79,42.56 74.04,45.29 C74.85,46 74.39,47.92 72.87,49.46 Z"></path>
                            <path d="M63.49,56.69 L62.93,57 C61.11,58 59.24,57.89 58.82,56.93 L53.57,45.24 C53.255425,44.1137393 53.8243825,42.9287676 54.9,42.47 L55.25,42.27 C56.2116759,41.5959719 57.5219331,41.7278485 58.33,42.58 L65.59,53.13 C66.2,54 65.3,55.66 63.49,56.69 Z"></path>
                            <path d="M52.79,61.06 L52.18,61.22 C50.18,61.72 48.41,61.13 48.26,60.09 C47.5933333,55.87 46.8966667,51.6533333 46.17,47.44 C46.139519,46.2630853 47.0026967,45.2531674 48.17,45.1 L48.55,45 C49.6466679,44.6108691 50.8629755,45.0829326 51.41,46.11 C52.85,50.11 54.2866667,54.1333333 55.72,58.18 C56.05,59.16 54.77,60.54 52.79,61.06 Z"></path>
                            <path d="M41.42,62.58 L40.79,62.58 C38.79,62.58 37.18,61.58 37.29,60.52 C37.69,56.2466667 38.0866667,51.98 38.48,47.72 C38.7506014,46.5758531 39.8312157,45.8125621 41,45.94 L41.39,45.94 C42.5474888,45.8263336 43.6076725,46.5946449 43.86,47.73 C44.2333333,51.99 44.6,56.25 44.96,60.51 C45,61.55 43.47,62.56 41.42,62.58 Z"></path>
                            <path d="M30,61.24 L29.4,61.08 C27.4,60.57 26.14,59.19 26.52,58.21 L31,46.09 C31.5541689,45.0884392 32.7471573,44.628949 33.83,45 L34.21,45.1 C35.3596489,45.2769466 36.194014,46.2876466 36.15,47.45 L34,60.1 C33.8,61.14 32,61.73 30,61.24 Z"></path>
                            <path d="M19.26,57 L18.7,56.69 C16.89,55.69 15.99,53.98 16.61,53.12 L24,42.54 C24.8147643,41.6848379 26.1320306,41.5531113 27.1,42.23 L27.44,42.43 C28.5186,42.8898317 29.0786302,44.0874347 28.74,45.21 C26.9666667,49.13 25.1833333,53.06 23.39,57 C23,57.92 21.08,58.05 19.26,57 Z"></path>
                            <path d="M9.76,50 L9.29,49.53 C7.77,48 7.32,46 8.14,45.38 L18.14,37.08 C19.1841453,36.481826 20.5091785,36.74172 21.25,37.69 L21.55,37.98 C22.4830533,38.7286505 22.7257195,40.0484139 22.12,41.08 L13.88,51.08 C13.18,51.9 11.3,51.5 9.76,50 Z"></path>
                            <path d="M2.18,40.08 L1.84,39.45 C0.72,37.4 0.75,35.26 1.73,34.86 L13.63,29.71 C14.63,29.31 15.88,30.1 16.56,31.36 L16.77,31.75 C17.47,32.99 17.42,34.41 16.56,35.04 L5.94,42.46 C5.08,43.08 3.33,42.1 2.18,40.08 Z"></path>
                        </g>
                    </g>
                </g>
            </g>
        </g>
    </g>
</svg>