<svg height="772" viewBox="0 0 772 772" width="772" xmlns="http://www.w3.org/2000/svg"><g fill="#b5aba1" fill-rule="evenodd"><g transform="translate(119 119)"><circle cx="266.351927" cy="2.963007" r="2.802302" transform="matrix(.99862953 .05233596 -.05233596 .99862953 .520098 -13.935722)"/><circle cx="280.069567" cy="3.241395" r="2.802302" transform="matrix(.9945219 .10452846 -.10452846 .9945219 1.873068 -29.257485)"/><circle cx="293.754266" cy="4.231406" r="2.802302" transform="matrix(.98768834 .15643447 -.15643447 .98768834 4.27854 -45.901196)"/><circle cx="307.369135" cy="5.93037" r="2.802302" transform="matrix(.9781476 .20791169 -.20791169 .9781476 7.949746 -63.776044)"/><circle cx="320.877469" cy="8.333708" r="2.802302" transform="matrix(.96592583 .25881905 -.25881905 .96592583 13.090557 -82.765236)"/><circle cx="334.242853" cy="11.434941" r="2.802302" transform="matrix(.95105652 .30901699 -.30901699 .95105652 19.892601 -102.727056)"/><circle cx="347.429255" cy="15.225708" r="2.802302" transform="matrix(.93358043 .35836795 -.35836795 .93358043 28.532509 -123.496225)"/><circle cx="360.401128" cy="19.69579" r="2.802302" transform="matrix(.91354546 .40673664 -.40673664 .91354546 39.169314 -144.885554)"/><circle cx="373.123502" cy="24.833136" r="2.802302" transform="matrix(.89100652 .4539905 -.4539905 .89100652 51.942035 -166.687875)"/><circle cx="385.56208" cy="30.623898" r="2.802302" transform="matrix(.8660254 .5 -.5 .8660254 66.967473 -188.678216)"/><circle cx="397.683328" cy="37.052464" r="2.802302" transform="matrix(.83867057 .54463904 -.54463904 .83867057 84.338244 -210.616211)"/><circle cx="409.454572" cy="44.101503" r="2.802302" transform="matrix(.80901699 .58778525 -.58778525 .80901699 104.121078 -232.248721)"/><circle cx="420.844076" cy="51.752014" r="2.802302" transform="matrix(.77714596 .62932039 -.62932039 .77714596 126.3554 -253.312613)"/><circle cx="431.821138" cy="59.983371" r="2.802302" transform="matrix(.74314483 .66913061 -.66913061 .74314483 151.052203 -273.537701)"/><circle cx="442.356165" cy="68.773385" r="2.802302" transform="matrix(.70710678 .70710678 -.70710678 .70710678 178.193248 -292.649786)"/><circle cx="452.420756" cy="78.098358" r="2.802302" transform="matrix(.66913061 .74314483 -.74314483 .66913061 207.730572 -310.373787)"/><circle cx="461.987779" cy="87.933153" r="2.802302" transform="matrix(.62932039 .77714596 -.77714596 .62932039 239.586344 -326.43691)"/><circle cx="471.031444" cy="98.251257" r="2.802302" transform="matrix(.58778525 .80901699 -.80901699 .58778525 273.653044 -340.571826)"/><circle cx="479.527369" cy="109.024853" r="2.802302" transform="matrix(.54463904 .83867057 -.83867057 .54463904 309.793981 -352.519829)"/><circle cx="487.452652" cy="120.224899" r="2.802302" transform="matrix(.5 .8660254 -.8660254 .5 347.844143 -362.03393)"/><circle cx="494.785927" cy="131.8212" r="2.802302" transform="matrix(.46947156 .88294759 -.88294759 .46947156 378.889216 -366.935148)"/><circle cx="501.507425" cy="143.782495" r="2.802302" transform="matrix(.42261826 .90630779 -.90630779 .42261826 419.872424 -371.502698)"/><circle cx="507.599027" cy="156.076539" r="2.802302" transform="matrix(.37460659 .92718385 -.92718385 .37460659 462.160732 -373.028384)"/><circle cx="513.044309" cy="168.670189" r="2.802302" transform="matrix(.32556815 .94551858 -.94551858 .32556815 505.494217 -371.336377)"/><circle cx="517.828593" cy="181.529495" r="2.802302" transform="matrix(.27563736 .9612617 -.9612617 .27563736 549.593039 -366.275607)"/><circle cx="521.938982" cy="194.619791" r="2.802302" transform="matrix(.22495105 .97437006 -.97437006 .22495105 594.159956 -357.721856)"/><circle cx="525.364393" cy="207.905786" r="2.802302" transform="matrix(.17364818 .98480775 -.98480775 .17364818 638.883053 -345.579602)"/><circle cx="528.095594" cy="221.351666" r="2.802302" transform="matrix(.12186934 .99254615 -.99254615 .12186934 683.438675 -329.783566)"/><circle cx="530.125221" cy="234.921181" r="2.802302" transform="matrix(.06975647 .99756405 -.99756405 .06975647 727.49448 -310.299955)"/><circle cx="531.447802" cy="248.577751" r="2.802302" transform="matrix(.01745241 .9998477 -.9998477 .01745241 770.71265 -287.127389)"/><circle cx="532.059772" cy="262.28456" r="2.802302" transform="matrix(-.0348995 .99939083 -.99939083 -.0348995 812.753174 -260.297496)"/><circle cx="531.959482" cy="276.004657" r="2.802302" transform="matrix(-.08715574 .9961947 -.9961947 -.08715574 853.277182 -229.875168)"/><circle cx="531.147202" cy="289.701056" r="2.802302" transform="matrix(-.1391731 .99026807 -.99026807 -.1391731 891.95031 -195.958464)"/><circle cx="529.625121" cy="303.336832" r="2.802302" transform="matrix(-.190809 .98162718 -.98162718 -.190809 928.446038 -158.678188)"/><circle cx="527.397343" cy="316.875227" r="2.802302" transform="matrix(-.2419219 .97029573 -.97029573 -.2419219 962.448986 -118.197105)"/><circle cx="524.469873" cy="330.279743" r="2.802302" transform="matrix(-.2923717 .95630476 -.95630476 -.2923717 993.658113 -74.708839)"/><circle cx="520.850604" cy="343.514244" r="2.802302" transform="matrix(-.34202014 .93969262 -.93969262 -.34202014 1021.789802 -28.436434)"/><circle cx="516.549292" cy="356.543052" r="2.802302" transform="matrix(-.39073113 .92050485 -.92050485 -.39073113 1046.58079 20.369391)"/><circle cx="511.577533" cy="369.331044" r="2.802302" transform="matrix(-.43837115 .89879405 -.89879405 -.43837115 1067.790906 71.432276)"/><circle cx="505.94873" cy="381.843745" r="2.802302" transform="matrix(-.48480962 .87461971 -.87461971 -.48480962 1085.205606 124.452536)"/><circle cx="499.678057" cy="394.047425" r="2.802302" transform="matrix(-.52991926 .8480481 -.8480481 -.52991926 1098.638254 179.109722)"/><circle cx="492.782419" cy="405.909183" r="2.802302" transform="matrix(-.57357644 .81915204 -.81915204 -.57357644 1107.93214 235.0654)"/><circle cx="485.280405" cy="417.397042" r="2.802302" transform="matrix(-.61566148 .78801075 -.78801075 -.61566148 1112.962213 291.966143)"/><circle cx="477.192239" cy="428.480033" r="2.802302" transform="matrix(-.65605903 .75470958 -.75470958 -.65605903 1113.636502 349.446673)"/><circle cx="468.539726" cy="439.128279" r="2.802302" transform="matrix(-.69465837 .7193398 -.7193398 -.69465837 1109.897217 407.133141)"/><circle cx="459.346191" cy="449.313074" r="2.802302" transform="matrix(-.7313537 .68199836 -.68199836 -.7313537 1101.721508 464.646505)"/><circle cx="449.636418" cy="459.006961" r="2.802302" transform="matrix(-.76604444 .64278761 -.64278761 -.76604444 1089.121885 521.605974)"/><circle cx="439.436584" cy="468.183807" r="2.802302" transform="matrix(-.79863551 .60181502 -.60181502 -.79863551 1072.146293 577.632483)"/><circle cx="428.774184" cy="476.818873" r="2.802302" transform="matrix(-.82903757 .5591929 -.5591929 -.82903757 1050.877823 632.352153)"/><circle cx="417.677964" cy="484.888881" r="2.802302" transform="matrix(-.8571673 .51503807 -.51503807 -.8571673 1025.434093 685.39972)"/><circle cx="406.177836" cy="492.372074" r="2.802302" transform="matrix(-.88294759 .46947156 -.46947156 -.88294759 995.966266 736.421868)"/><circle cx="394.304803" cy="499.248281" r="2.802302" transform="matrix(-.90630779 .42261826 -.42261826 -.90630779 962.657757 785.080475)"/><circle cx="382.090873" cy="505.498963" r="2.802302" transform="matrix(-.92718385 .37460659 -.37460659 -.92718385 925.722606 831.05568)"/><circle cx="369.568971" cy="511.10727" r="2.802302" transform="matrix(-.94551858 .32556815 -.32556815 -.94551858 885.403549 874.0488)"/><circle cx="356.772856" cy="516.058083" r="2.802302" transform="matrix(-.9612617 .27563736 -.27563736 -.9612617 841.969822 913.785024)"/><circle cx="343.737022" cy="520.338056" r="2.802302" transform="matrix(-.97437006 .22495105 -.22495105 -.97437006 795.714681 950.015876)"/><circle cx="330.496613" cy="523.93565" r="2.802302" transform="matrix(-.98480775 .17364818 -.17364818 -.98480775 746.952711 982.521406)"/><circle cx="317.087321" cy="526.841167" r="2.802302" transform="matrix(-.99254615 .12186934 -.12186934 -.99254615 696.016908 1011.112116)"/><circle cx="303.545297" cy="529.046775" r="2.802302" transform="matrix(-.99756405 .06975647 -.06975647 -.99756405 643.25561 1035.630569)"/><circle cx="289.907046" cy="530.546526" r="2.802302" transform="matrix(-.9998477 .01745241 -.01745241 -.9998477 589.029251 1055.952672)"/><circle cx="276.209336" cy="531.336379" r="2.802302" transform="matrix(-.9998477 -.01745241 .01745241 -.9998477 543.103506 1067.41235)"/><circle cx="262.489093" cy="531.414204" r="2.802302" transform="matrix(-.99756405 -.06975647 .06975647 -.99756405 487.269195 1079.844223)"/><circle cx="248.783305" cy="530.779791" r="2.802302" transform="matrix(-.99254615 -.12186934 .12186934 -.99254615 431.026432 1087.922288)"/><circle cx="235.128918" cy="529.43485" r="2.802302" transform="matrix(-.98480775 -.17364818 .17364818 -.98480775 374.750303 1091.656103)"/><circle cx="221.562745" cy="527.383007" r="2.802302" transform="matrix(-.97437006 -.22495105 .22495105 -.97437006 318.811488 1091.089995)"/><circle cx="208.121356" cy="524.629794" r="2.802302" transform="matrix(-.9612617 -.27563736 .27563736 -.9612617 263.572874 1086.30234)"/><circle cx="194.840987" cy="521.182632" r="2.802302" transform="matrix(-.94551858 -.32556815 .32556815 -.94551858 209.386292 1077.404512)"/><circle cx="181.757439" cy="517.050815" r="2.802302" transform="matrix(-.92718385 -.37460659 .37460659 -.92718385 156.589357 1064.539518)"/><circle cx="168.905984" cy="512.245481" r="2.802302" transform="matrix(-.90630779 -.42261826 .42261826 -.90630779 105.502498 1047.880303)"/><circle cx="156.321267" cy="506.779585" r="2.802302" transform="matrix(-.88294759 -.46947156 .46947156 -.88294759 56.42615 1027.627789)"/><circle cx="144.037214" cy="500.667862" r="2.802302" transform="matrix(-.8571673 -.51503807 .51503807 -.8571673 9.638192 1004.008631)"/><circle cx="132.08694" cy="493.926787" r="2.802302" transform="matrix(-.82903757 -.5591929 .5591929 -.82903757 -34.608378 977.272731)"/><circle cx="120.502662" cy="486.574534" r="2.802302" transform="matrix(-.79863551 -.60181502 .60181502 -.79863551 -76.087498 947.690547)"/><circle cx="109.315609" cy="478.630923" r="2.802302" transform="matrix(-.76604444 -.64278761 .64278761 -.76604444 -114.601803 915.550201)"/><circle cx="98.555938" cy="470.117368" r="2.802302" transform="matrix(-.7313537 -.68199836 .68199836 -.7313537 -149.984086 881.154433)"/><circle cx="88.252656" cy="461.056821" r="2.802302" transform="matrix(-.69465837 -.7193398 .7193398 -.69465837 -182.098419 844.817449)"/><circle cx="78.43354" cy="451.473707" r="2.802302" transform="matrix(-.65605903 -.75470958 .75470958 -.65605903 -210.84096 806.861653)"/><circle cx="69.125059" cy="441.39386" r="2.802302" transform="matrix(-.61566148 -.78801075 .78801075 -.61566148 -236.140413 767.614345)"/><circle cx="60.352307" cy="430.844455" r="2.802302" transform="matrix(-.57357644 -.81915204 .81915204 -.57357644 -257.958148 727.404398)"/><circle cx="52.138935" cy="419.85393" r="2.802302" transform="matrix(-.52991926 -.8480481 .8480481 -.52991926 -276.287965 686.55894)"/><circle cx="44.507083" cy="408.451913" r="2.802302" transform="matrix(-.48480962 -.87461971 .87461971 -.48480962 -291.155548 645.400102)"/><circle cx="37.477328" cy="396.669144" r="2.802302" transform="matrix(-.43837115 -.89879405 .89879405 -.43837115 -302.617559 604.24185)"/><circle cx="31.068618" cy="384.537385" r="2.802302" transform="matrix(-.39073113 -.92050485 .92050485 -.39073113 -310.760435 563.386925)"/><circle cx="25.298231" cy="372.089343" r="2.802302" transform="matrix(-.34202014 -.93969262 .93969262 -.34202014 -315.698874 523.123954)"/><circle cx="20.181723" cy="359.358574" r="2.802302" transform="matrix(-.2923717 -.95630476 .95630476 -.2923717 -317.574026 483.724731)"/><ellipse cx="15.732883" cy="346.3794" rx="2.802302" ry="2.802307" transform="matrix(-.2419219 -.97029573 .97029573 -.2419219 -316.55144 445.44171)"/><circle cx="11.963717" cy="333.186807" r="2.802302" transform="matrix(-.190809 -.98162718 .98162718 -.190809 -312.818725 408.505757)"/><circle cx="8.884373" cy="319.816363" r="2.802302" transform="matrix(-.1391731 -.99026807 .99026807 -.1391731 -306.583093 373.124109)"/><circle cx="6.503157" cy="306.304112" r="2.802302" transform="matrix(-.08715574 -.9961947 .9961947 -.08715574 -298.068588 339.478685)"/><circle cx="4.826488" cy="292.686479" r="2.802302" transform="matrix(-.0348995 -.99939083 .99939083 -.0348995 -287.513252 307.724638)"/><circle cx="3.858886" cy="279.000177" r="2.802302" transform="matrix(.01745241 -.9998477 .9998477 .01745241 -275.166145 277.989251)"/><circle cx="3.602959" cy="265.2821" r="2.802302" transform="matrix(.06975647 -.99756405 .99756405 .06975647 -261.284257 250.371139)"/><circle cx="4.059398" cy="251.569231" r="2.802302" transform="matrix(.12186934 -.99254615 .99254615 .12186934 -246.12939 224.939794)"/><circle cx="5.226973" cy="237.898536" r="2.802302" transform="matrix(.17364818 -.98480775 .98480775 .17364818 -229.965004 201.735452)"/><circle cx="7.102534" cy="224.30687" r="2.802302" transform="matrix(.22495105 -.97437006 .97437006 .22495105 -213.053088 180.7693)"/><circle cx="9.681027" cy="210.830872" r="2.802302" transform="matrix(.27563736 -.9612617 .9612617 .27563736 -195.651067 162.024008)"/><circle cx="12.9555" cy="197.506873" r="2.802302" transform="matrix(.32556815 -.94551858 .94551858 .32556815 -178.008815 145.454591)"/><circle cx="16.917126" cy="184.370791" r="2.802302" transform="matrix(.37460659 -.92718385 .92718385 .37460659 -160.365762 130.989563)"/><circle cx="21.555225" cy="171.458039" r="2.802302" transform="matrix(.42261826 -.90630779 .90630779 .42261826 -142.948163 118.532409)"/><circle cx="26.857293" cy="158.803428" r="2.802302" transform="matrix(.46947156 -.88294759 .88294759 .46947156 -125.966547 107.963317)"/><circle cx="32.809037" cy="146.441071" r="2.802302" transform="matrix(.5 -.8660254 .8660254 .5 -110.417169 101.633995)"/><circle cx="39.394412" cy="134.404295" r="2.802302" transform="matrix(.54463904 -.83867057 .83867057 .54463904 -94.782249 94.241403)"/><circle cx="46.595665" cy="122.72555" r="2.802302" transform="matrix(.58778525 -.80901699 .80901699 .58778525 -80.079635 88.285966)"/><circle cx="54.393383" cy="111.43632" r="2.802302" transform="matrix(.62932039 -.77714596 .77714596 .62932039 -66.439768 83.578769)"/><circle cx="62.766545" cy="100.567038" r="2.802302" transform="matrix(.66913061 -.74314483 .74314483 .66913061 -53.968345 79.919188)"/><circle cx="71.692577" cy="90.147006" r="2.802302" transform="matrix(.70710678 -.70710678 .70710678 .70710678 -42.74529 77.097754)"/><circle cx="81.147418" cy="80.204314" r="2.802302" transform="matrix(.74314483 -.66913061 .66913061 .74314483 -32.824027 74.899114)"/><circle cx="91.105577" cy="70.765767" r="2.802302" transform="matrix(.77714596 -.62932039 .62932039 .77714596 -24.231094 73.105034)"/><circle cx="101.540211" cy="61.856808" r="2.802302" transform="matrix(.80901699 -.58778525 .58778525 .80901699 -16.966065 71.497438)"/><circle cx="112.423189" cy="53.501455" r="2.802302" transform="matrix(.83867057 -.54463904 .54463904 .83867057 -11.001812 69.861417)"/><circle cx="123.725172" cy="45.722233" r="2.802302" transform="matrix(.8660254 -.5 .5 .8660254 -6.285087 67.988204)"/><circle cx="135.415692" cy="38.540112" r="2.802302" transform="matrix(.89100652 -.4539905 .4539905 .89100652 -2.737418 65.678058)"/><circle cx="147.463235" cy="31.974455" r="2.802302" transform="matrix(.91354546 -.40673664 .40673664 .91354546 -.256316 62.743038)"/><circle cx="159.83532" cy="26.042961" r="2.802302" transform="matrix(.93358043 -.35836795 .35836795 .93358043 1.283231 59.009618)"/><circle cx="172.498597" cy="20.761621" r="2.802302" transform="matrix(.95105652 -.30901699 .30901699 .95105652 2.026989 54.321144)"/><circle cx="185.418926" cy="16.144672" r="2.802302" transform="matrix(.96592583 -.25881905 .25881905 .96592583 2.139448 48.540066)"/><circle cx="198.561477" cy="12.20456" r="2.802302" transform="matrix(.9781476 -.20791169 .20791169 .9781476 1.801574 41.549951)"/><circle cx="211.89082" cy="8.951908" r="2.802302" transform="matrix(.98768834 -.15643447 .15643447 .98768834 1.208341 33.25724)"/><circle cx="225.371021" cy="6.395484" r="2.802302" transform="matrix(.9945219 -.10452846 .10452846 .9945219 .566096 23.592722)"/><circle cx="238.965741" cy="4.54218" r="2.802302" transform="matrix(.99862953 -.05233596 .05233596 .99862953 .089775 12.512725)"/><circle cx="252.763657" cy="3.010065" r="2.737513"/></g><g opacity=".6" transform="translate(136 135)"><circle cx="256.691213" cy="2.225603" r="2.004978" transform="matrix(.9961947 .08715574 -.08715574 .9961947 1.170762 -22.363644)"/><circle cx="269.51511" cy="2.934176" r="2.004978" transform="matrix(.99026807 .1391731 -.1391731 .99026807 3.031261 -37.480698)"/><circle cx="282.284943" cy="4.307403" r="2.004978" transform="matrix(.98162718 .190809 -.190809 .98162718 6.008261 -53.783367)"/><circle cx="294.966289" cy="6.341582" r="2.004978" transform="matrix(.97029573 .2419219 -.2419219 .97029573 10.295927 -71.170432)"/><circle cx="307.524959" cy="9.031229" r="2.004978" transform="matrix(.95630476 .2923717 -.2923717 .95630476 16.077854 -89.516975)"/><circle cx="319.927099" cy="12.369094" r="2.004978" transform="matrix(.93969262 .34202014 -.34202014 .93969262 23.524444 -108.675565)"/><circle cx="332.139273" cy="16.346179" r="2.004978" transform="matrix(.92050485 .39073113 -.39073113 .92050485 32.790421 -128.477711)"/><circle cx="344.128561" cy="20.951761" r="2.004978" transform="matrix(.89879405 .43837115 -.43837115 .89879405 44.012507 -148.735589)"/><circle cx="355.862641" cy="26.173424" r="2.004978" transform="matrix(.87461971 .48480962 -.48480962 .87461971 57.30729 -169.244)"/><circle cx="367.30988" cy="31.997094" r="2.004978" transform="matrix(.8480481 .52991926 -.52991926 .8480481 72.769312 -189.782562)"/><circle cx="378.439419" cy="38.407068" r="2.004978" transform="matrix(.81915204 .57357644 -.57357644 .81915204 90.469384 -210.118094)"/><circle cx="389.221254" cy="45.386068" r="2.004978" transform="matrix(.78801075 .61566148 -.61566148 .78801075 110.453174 -230.007173)"/><circle cx="399.626319" cy="52.91528" r="2.004978" transform="matrix(.75470958 .65605903 -.65605903 .75470958 132.740055 -249.198844)"/><circle cx="409.626564" cy="60.974405" r="2.004978" transform="matrix(.7193398 .69465837 -.69465837 .7193398 157.322254 -267.437433)"/><circle cx="419.195031" cy="69.541719" r="2.004978" transform="matrix(.68199836 .7313537 -.7313537 .68199836 184.164301 -284.465457)"/><circle cx="428.305923" cy="78.594124" r="2.004978" transform="matrix(.64278761 .76604444 -.76604444 .64278761 213.202774 -300.026577)"/><circle cx="436.934681" cy="88.107218" r="2.004978" transform="matrix(.60181502 .79863551 -.79863551 .60181502 244.346379 -313.868581)"/><circle cx="445.058042" cy="98.055354" r="2.004978" transform="matrix(.5591929 .82903757 -.82903757 .5591929 277.476316 -325.746343)"/><circle cx="452.654107" cy="108.411714" r="2.004978" transform="matrix(.51503807 .8571673 -.8571673 .51503807 312.446983 -335.424746)"/><circle cx="459.702399" cy="119.14838" r="2.004978" transform="matrix(.46947156 .88294759 -.88294759 .46947156 349.086971 -342.681523)"/><circle cx="466.183916" cy="130.236407" r="2.004978" transform="matrix(.43837115 .89879405 -.89879405 .43837115 378.878045 -345.858804)"/><circle cx="472.081186" cy="141.645904" r="2.004978" transform="matrix(.39073113 .92050485 -.92050485 .39073113 418.010114 -348.252583)"/><circle cx="477.37831" cy="153.346112" r="2.004978" transform="matrix(.34202014 .93969262 -.93969262 .34202014 458.203522 -347.690222)"/><circle cx="482.061009" cy="165.305491" r="2.004978" transform="matrix(.2923717 .95630476 -.95630476 .2923717 499.202437 -344.022393)"/><circle cx="486.116658" cy="177.4918" r="2.004978" transform="matrix(.2419219 .97029573 -.97029573 .2419219 540.73393 -337.124268)"/><circle cx="489.534325" cy="189.872186" r="2.004978" transform="matrix(.190809 .98162718 -.98162718 .190809 582.510471 -326.897336)"/><circle cx="492.304796" cy="202.413274" r="2.004978" transform="matrix(.1391731 .99026807 -.99026807 .1391731 624.232613 -313.270929)"/><circle cx="494.420602" cy="215.081256" r="2.004978" transform="matrix(.08715574 .9961947 -.9961947 .08715574 665.591814 -296.203493)"/><circle cx="495.87604" cy="227.841981" r="2.004978" transform="matrix(.0348995 .99939083 -.99939083 .0348995 706.273402 -275.683555)"/><circle cx="496.667185" cy="240.661049" r="2.004978" transform="matrix(-.01745241 .9998477 -.9998477 -.01745241 745.959618 -251.730377)"/><circle cx="496.791906" cy="253.503901" r="2.004978" transform="matrix(-.06975647 .99756405 -.99756405 -.06975647 784.332736 -224.394307)"/><circle cx="496.249865" cy="266.335916" r="2.004978" transform="matrix(-.12186934 .99254615 -.99254615 -.12186934 821.078199 -193.756795)"/><circle cx="495.042524" cy="279.1225" r="2.004978" transform="matrix(-.17364818 .98480775 -.98480775 -.17364818 855.887758 -159.930102)"/><circle cx="493.173138" cy="291.829184" r="2.004978" transform="matrix(-.22495105 .97437006 -.97437006 -.22495105 888.462576 -123.056676)"/><circle cx="490.646747" cy="304.421711" r="2.004978" transform="matrix(-.27563736 .9612617 -.9612617 -.27563736 918.516249 -83.308218)"/><circle cx="487.470161" cy="316.866136" r="2.004978" transform="matrix(-.32556815 .94551858 -.94551858 -.32556815 945.777739 -40.884433)"/><circle cx="483.651943" cy="329.12891" r="2.004978" transform="matrix(-.37460659 .92718385 -.92718385 -.37460659 969.994161 3.988497)"/><circle cx="479.202387" cy="341.176974" r="2.004978" transform="matrix(-.42261826 .90630779 -.90630779 -.42261826 990.933415 51.059739)"/><circle cx="474.133488" cy="352.97785" r="2.004978" transform="matrix(-.46947156 .88294759 -.88294759 -.46947156 1008.386621 100.055891)"/><circle cx="468.458911" cy="364.499724" r="2.004978" transform="matrix(-.51503807 .8571673 -.8571673 -.51503807 1022.170331 150.6833)"/><circle cx="462.193954" cy="375.711536" r="2.004978" transform="matrix(-.5591929 .82903757 -.82903757 -.5591929 1032.128513 202.630607)"/><circle cx="455.355505" cy="386.58306" r="2.004978" transform="matrix(-.60181502 .79863551 -.79863551 -.60181502 1038.134248 255.571477)"/><circle cx="447.962001" cy="397.084988" r="2.004978" transform="matrix(-.64278761 .76604444 -.76604444 -.64278761 1040.091173 309.167497)"/><circle cx="440.033372" cy="407.189009" r="2.004978" transform="matrix(-.68199836 .7313537 -.7313537 -.68199836 1037.934599 363.07121)"/><circle cx="431.590993" cy="416.867885" r="2.004978" transform="matrix(-.7193398 .69465837 -.69465837 -.7193398 1031.632337 416.92925)"/><circle cx="422.657623" cy="426.095524" r="2.004978" transform="matrix(-.75470958 .65605903 -.65605903 -.75470958 1021.185196 470.385548)"/><circle cx="413.257344" cy="434.847048" r="2.004978" transform="matrix(-.78801075 .61566148 -.61566148 -.78801075 1006.62715 523.084572)"/><circle cx="403.415499" cy="443.098865" r="2.004978" transform="matrix(-.81915204 .57357644 -.57357644 -.81915204 988.025198 574.674582)"/><circle cx="393.158619" cy="450.82873" r="2.004978" transform="matrix(-.8480481 .52991926 -.52991926 -.8480481 965.478866 624.81085)"/><circle cx="382.514355" cy="458.015805" r="2.004978" transform="matrix(-.87461971 .48480962 -.48480962 -.87461971 939.119417 673.158815)"/><circle cx="371.511401" cy="464.640715" r="2.004978" transform="matrix(-.89879405 .43837115 -.43837115 -.89879405 909.108719 719.397144)"/><circle cx="360.179421" cy="470.685599" r="2.004978" transform="matrix(-.92050485 .39073113 -.39073113 -.92050485 875.637841 763.220666)"/><circle cx="348.548963" cy="476.134162" r="2.004978" transform="matrix(-.93969262 .34202014 -.34202014 -.93969262 838.925326 804.343154)"/><circle cx="336.65138" cy="480.971716" r="2.004978" transform="matrix(-.95630476 .2923717 -.2923717 -.95630476 799.215216 842.499918)"/><circle cx="324.518746" cy="485.18522" r="2.004978" transform="matrix(-.97029573 .2419219 -.2419219 -.97029573 756.774826 877.450175)"/><circle cx="312.183769" cy="488.763314" r="2.004978" transform="matrix(-.98162718 .190809 -.190809 -.98162718 711.89228 908.979198)"/><circle cx="299.679702" cy="491.696352" r="2.004978" transform="matrix(-.99026807 .1391731 -.1391731 -.99026807 664.873848 936.900195)"/><circle cx="287.040254" cy="493.976429" r="2.004978" transform="matrix(-.9961947 .08715574 -.08715574 -.9961947 616.041116 961.055922)"/><circle cx="274.299497" cy="495.597396" r="2.004978" transform="matrix(-.99939083 .0348995 -.0348995 -.99939083 565.727998 981.319973)"/><circle cx="261.49178" cy="496.554884" r="2.004978" transform="matrix(-.9998477 -.01745241 .01745241 -.9998477 514.277656 997.597801)"/><circle cx="248.651629" cy="496.846313" r="2.004978" transform="matrix(-.99862953 -.05233596 .05233596 -.99862953 470.959563 1006.025136)"/><circle cx="235.813659" cy="496.470896" r="2.004978" transform="matrix(-.9945219 -.10452846 .10452846 -.9945219 418.440166 1014.871312)"/><circle cx="223.01248" cy="495.429645" r="2.004978" transform="matrix(-.98768834 -.15643447 .15643447 -.98768834 365.777035 1019.646567)"/><circle cx="210.2826" cy="493.725367" r="2.004978" transform="matrix(-.9781476 -.20791169 .20791169 -.9781476 313.318745 1020.381861)"/><circle cx="197.658337" cy="491.362658" r="2.004978" transform="matrix(-.96592583 -.25881905 .25881905 -.96592583 261.407616 1017.140281)"/><circle cx="185.173724" cy="488.347885" r="2.004978" transform="matrix(-.95105652 -.30901699 .30901699 -.95105652 210.376605 1010.016151)"/><circle cx="172.862418" cy="484.689178" r="2.004978" transform="matrix(-.93358043 -.35836795 .35836795 -.93358043 160.546321 999.133858)"/><circle cx="160.757607" cy="480.396398" r="2.004978" transform="matrix(-.91354546 -.40673664 .40673664 -.91354546 112.22217 984.646355)"/><circle cx="148.891924" cy="475.481118" r="2.004978" transform="matrix(-.89100652 -.4539905 .4539905 -.89100652 65.691689 966.733415)"/><circle cx="137.297356" cy="469.95659" r="2.004978" transform="matrix(-.8660254 -.5 .5 -.8660254 21.222059 945.599614)"/><circle cx="126.005162" cy="463.837706" r="2.004978" transform="matrix(-.83867057 -.54463904 .54463904 -.83867057 -20.942138 921.472068)"/><circle cx="115.045781" cy="457.140961" r="2.004978" transform="matrix(-.80901699 -.58778525 .58778525 -.80901699 -60.580942 894.597981)"/><circle cx="104.448759" cy="449.88441" r="2.004978" transform="matrix(-.77714596 -.62932039 .62932039 -.77714596 -97.500743 865.241996)"/><circle cx="94.242664" cy="442.087613" r="2.004978" transform="matrix(-.74314483 -.66913061 .66913061 -.74314483 -131.53574 833.683386)"/><circle cx="84.45501" cy="433.771591" r="2.004978" transform="matrix(-.70710678 -.70710678 .70710678 -.70710678 -162.549113 800.213135)"/><circle cx="75.112181" cy="424.958762" r="2.004978" transform="matrix(-.66913061 -.74314483 .74314483 -.66913061 -190.433865 765.130905)"/><circle cx="66.239366" cy="415.672882" r="2.004978" transform="matrix(-.62932039 -.77714596 .77714596 -.62932039 -215.113352 728.741958)"/><circle cx="57.860483" cy="405.938987" r="2.004978" transform="matrix(-.58778525 -.80901699 .80901699 -.58778525 -236.541518 691.354051)"/><circle cx="49.99812" cy="395.783316" r="2.004978" transform="matrix(-.54463904 -.83867057 .83867057 -.54463904 -254.702771 653.274311)"/><circle cx="42.673473" cy="385.233247" r="2.004978" transform="matrix(-.5 -.8660254 .8660254 -.5 -269.611569 614.806182)"/><circle cx="35.906287" cy="374.317221" r="2.004978" transform="matrix(-.4539905 -.89100652 .89100652 -.4539905 -281.311686 576.246419)"/><circle cx="29.714807" cy="363.064667" r="2.004978" transform="matrix(-.40673664 -.91354546 .91354546 -.40673664 -289.87517 537.882198)"/><circle cx="24.115723" cy="351.505919" r="2.004978" transform="matrix(-.35836795 -.93358043 .93358043 -.35836795 -295.401021 499.988341)"/><circle cx="19.124129" cy="339.672137" r="2.004978" transform="matrix(-.30901699 -.95105652 .95105652 -.30901699 -298.013589 462.824727)"/><circle cx="14.753482" cy="327.595223" r="2.004978" transform="matrix(-.25881905 -.96592583 .96592583 -.25881905 -297.860722 426.633875)"/><circle cx="11.015564" cy="315.307734" r="2.004978" transform="matrix(-.20791169 -.9781476 .9781476 -.20791169 -295.111675 391.638746)"/><circle cx="7.920452" cy="302.842796" r="2.004978" transform="matrix(-.15643447 -.98768834 .98768834 -.15643447 -289.954815 358.040785)"/><circle cx="5.47649" cy="290.234011" r="2.004978" transform="matrix(-.10452846 -.9945219 .9945219 -.10452846 -282.59514 326.018215)"/><circle cx="3.690266" cy="277.515371" r="2.004978" transform="matrix(-.05233596 -.99862953 .99862953 -.05233596 -273.251646 295.724612)"/><circle cx="3.013114" cy="265.164562" r="1.826839" transform="matrix(0 -1 1 0 -262.151448 268.177676)"/><circle cx="2.108508" cy="251.885876" r="2.004978" transform="matrix(.05233596 -.99862953 .99862953 .05233596 -249.542518 240.808806)"/><circle cx="2.317239" cy="239.044115" r="2.004978" transform="matrix(.10452846 -.9945219 .9945219 .10452846 -235.659585 216.361746)"/><circle cx="3.192224" cy="226.230497" r="2.004978" transform="matrix(.15643447 -.98768834 .98768834 .15643447 -220.752374 193.993173)"/><circle cx="4.731106" cy="213.479565" r="2.004978" transform="matrix(.20791169 -.9781476 .9781476 .20791169 -205.067071 173.722388)"/><circle cx="6.929736" cy="200.825695" r="2.004978" transform="matrix(.25881905 -.96592583 .96592583 .25881905 -188.846537 155.541791)"/><circle cx="9.782186" cy="188.302998" r="2.004978" transform="matrix(.30901699 -.95105652 .95105652 .30901699 -172.327469 139.417583)"/><circle cx="13.280767" cy="175.945234" r="2.004978" transform="matrix(.35836795 -.93358043 .93358043 .35836795 -155.737661 125.290765)"/><circle cx="17.416048" cy="163.785716" r="2.004978" transform="matrix(.40673664 -.91354546 .91354546 .40673664 -139.293394 113.078415)"/><circle cx="22.17688" cy="151.857226" r="2.004978" transform="matrix(.4539905 -.89100652 .89100652 .4539905 -123.196992 102.675233)"/><circle cx="27.550429" cy="140.191919" r="2.004978" transform="matrix(.5 -.8660254 .8660254 .5 -107.634549 93.955331)"/><circle cx="33.522208" cy="128.821244" r="2.004978" transform="matrix(.52991926 -.8480481 .8480481 .52991926 -93.488466 88.984831)"/><circle cx="40.07612" cy="117.775854" r="2.004978" transform="matrix(.57357644 -.81915204 .81915204 .57357644 -79.38693 83.050835)"/><circle cx="47.194496" cy="107.085525" r="2.004978" transform="matrix(.61566148 -.78801075 .78801075 .61566148 -66.245882 78.346863)"/><circle cx="54.858146" cy="96.779076" r="2.004978" transform="matrix(.65605903 -.75470958 .75470958 .65605903 -54.172132 74.688258)"/><circle cx="63.046409" cy="86.884293" r="2.004978" transform="matrix(.69465837 -.7193398 .7193398 .69465837 -43.248637 71.881183)"/><circle cx="71.737213" cy="77.427848" r="2.004978" transform="matrix(.7313537 -.68199836 .68199836 .7313537 -33.533729 69.725366)"/><circle cx="80.907128" cy="68.435237" r="2.004978" transform="matrix(.76604444 -.64278761 .64278761 .76604444 -25.06065 68.016903)"/><circle cx="90.531434" cy="59.9307" r="2.004978" transform="matrix(.79863551 -.60181502 .60181502 .79863551 -17.837379 66.551092)"/><circle cx="100.584184" cy="51.937164" r="2.004978" transform="matrix(.82903757 -.5591929 .5591929 .82903757 -11.846777 65.125266)"/><circle cx="111.03828" cy="44.476179" r="2.004978" transform="matrix(.8571673 -.51503807 .51503807 .8571673 -7.047028 63.541595)"/><circle cx="121.865538" cy="37.567859" r="2.004978" transform="matrix(.88294759 -.46947156 .46947156 .88294759 -3.372387 61.609813)"/><circle cx="133.03677" cy="31.230826" r="2.004978" transform="matrix(.90630779 -.42261826 .42261826 .90630779 -.734208 59.149854)"/><circle cx="144.52186" cy="25.482165" r="2.004978" transform="matrix(.92718385 -.37460659 .37460659 .92718385 .977738 55.994355)"/><circle cx="156.289847" cy="20.337372" r="2.004978" transform="matrix(.94551858 -.32556815 .32556815 .94551858 1.893693 51.991006)"/><circle cx="168.309006" cy="15.810318" r="2.004978" transform="matrix(.9612617 -.27563736 .27563736 .9612617 2.162091 47.004714)"/><circle cx="180.546936" cy="11.913206" r="2.004978" transform="matrix(.97437006 -.22495105 .22495105 .97437006 1.947518 40.919558)"/><circle cx="192.970645" cy="8.656542" r="2.004978" transform="matrix(.98480775 -.17364818 .17364818 .98480775 1.428465 33.640513)"/><circle cx="205.546641" cy="6.049105" r="2.004978" transform="matrix(.99254615 -.12186934 .12186934 .99254615 .794913 25.094923)"/><circle cx="218.241022" cy="4.097926" r="2.004978" transform="matrix(.99756405 -.06975647 .06975647 .99756405 .245767 15.233706)"/><circle cx="231.019566" cy="2.808263" r="2.004978" transform="matrix(.9998477 -.01745241 .01745241 .9998477 -.013826 4.032275)"/><circle cx="244.353531" cy="2.982146" r="2.004978" transform="matrix(.99939083 .0348995 -.0348995 .99939083 .252929 -8.525999)"/></g><g opacity=".5" transform="translate(158 157)"><ellipse cx="243.702556" cy="2.366973" rx="2.0018" ry="2.005202" transform="matrix(.99254615 .12186934 -.12186934 .99254615 2.104983 -29.682227)"/><ellipse cx="255.415855" cy="3.427113" rx="2.001854" ry="2.005148" transform="matrix(.98480775 .17364818 -.17364818 .98480775 4.475453 -44.300432)"/><ellipse cx="267.058436" cy="5.094855" rx="2.001926" ry="2.005077" transform="matrix(.97437006 .22495105 -.22495105 .97437006 7.990783 -59.944496)"/><ellipse cx="278.598914" cy="7.365701" rx="2.002015" ry="2.004988" transform="matrix(.9612617 .27563736 -.27563736 .9612617 12.822712 -76.506933)"/><ellipse cx="290.006176" cy="10.23353" rx="2.00212" ry="2.004883" transform="matrix(.94551858 .32556815 -.32556815 .94551858 19.131661 -93.859238)"/><ellipse cx="301.249472" cy="13.690611" rx="2.002241" ry="2.004762" transform="matrix(.92718385 .37460659 -.37460659 .92718385 27.064419 -111.853141)"/><ellipse cx="312.29849" cy="17.727624" rx="2.002375" ry="2.004628" transform="matrix(.90630779 .42261826 -.42261826 .90630779 36.751954 -130.322105)"/><ellipse cx="323.123445" cy="22.333686" rx="2.002521" ry="2.004482" transform="matrix(.88294759 .46947156 -.46947156 .88294759 48.307408 -149.083057)"/><ellipse cx="333.695155" cy="27.49638" rx="2.002679" ry="2.004325" transform="matrix(.8571673 .51503807 -.51503807 .8571673 61.824262 -167.938328)"/><ellipse cx="343.98512" cy="33.201788" rx="2.002845" ry="2.004158" transform="matrix(.82903757 .5591929 -.5591929 .82903757 77.374735 -186.67778)"/><ellipse cx="353.965601" cy="39.434529" rx="2.003019" ry="2.003985" transform="matrix(.79863551 .60181502 -.60181502 .79863551 95.008395 -205.081103)"/><ellipse cx="363.609691" cy="46.177802" rx="2.003197" ry="2.003806" transform="matrix(.76604444 .64278761 -.64278761 .76604444 114.751027 -222.920251)"/><ellipse cx="372.891392" cy="53.413427" rx="2.00338" ry="2.003624" transform="matrix(.7313537 .68199836 -.68199836 .7313537 136.603762 -239.961998)"/><ellipse cx="381.785682" cy="61.121899" rx="2.003563" ry="2.003441" transform="matrix(.69465837 .7193398 -.7193398 .69465837 160.542477 -255.970576)"/><ellipse cx="390.268584" cy="69.282436" rx="2.003746" ry="2.003258" transform="matrix(.65605903 .75470958 -.75470958 .65605903 186.517474 -270.710371)"/><ellipse cx="398.317229" cy="77.87304" rx="2.003926" ry="2.003078" transform="matrix(.61566148 .78801075 -.78801075 .61566148 214.453449 -283.94865)"/><ellipse cx="405.90992" cy="86.870551" rx="2.004101" ry="2.002902" transform="matrix(.57357644 .81915204 -.81915204 .57357644 244.249744 -295.458291)"/><ellipse cx="413.026187" cy="96.250715" rx="2.00427" ry="2.002733" transform="matrix(.52991926 .8480481 -.8480481 .52991926 275.780889 -305.020465)"/><ellipse cx="419.646847" cy="105.988243" rx="2.004431" ry="2.002573" transform="matrix(.48480962 .87461971 -.87461971 .48480962 308.897425 -312.427279)"/><ellipse cx="425.754052" cy="116.056885" rx="2.004581" ry="2.002422" transform="matrix(.43837115 .89879405 -.89879405 .43837115 343.426997 -317.484312)"/><ellipse cx="431.331338" cy="126.429498" rx="2.004674" ry="2.002329" transform="matrix(.40673664 .91354546 -.91354546 .40673664 371.392171 -319.034796)"/><ellipse cx="436.363669" cy="137.078118" rx="2.004804" ry="2.002199" transform="matrix(.35836795 .93358043 -.93358043 .35836795 407.958364 -319.426866)"/><ellipse cx="440.837479" cy="147.974041" rx="2.004919" ry="2.002083" transform="matrix(.30901699 .95105652 -.95105652 .30901699 445.342882 -317.013809)"/><ellipse cx="444.740707" cy="159.08789" rx="2.005019" ry="2.001983" transform="matrix(.25881905 .96592583 -.96592583 .25881905 483.300443 -311.673621)"/><ellipse cx="448.062832" cy="170.389707" rx="2.005103" ry="2.0019" transform="matrix(.20791169 .9781476 -.9781476 .20791169 521.571614 -303.307889)"/><ellipse cx="450.794896" cy="181.849023" rx="2.005168" ry="2.001834" transform="matrix(.15643447 .98768834 -.98768834 .15643447 559.885197 -291.843294)"/><ellipse cx="452.929536" cy="193.434945" rx="2.005216" ry="2.001787" transform="matrix(.10452846 .9945219 -.9945219 .10452846 597.960796 -277.232853)"/><ellipse cx="454.460996" cy="205.116241" rx="2.005244" ry="2.001758" transform="matrix(.05233596 .99862953 -.99862953 .05233596 635.511482 -259.456887)"/><ellipse cx="455.262948" cy="216.658683" rx="1.828343" ry="1.824701" transform="matrix(0 1 -1 0 671.921631 -238.604265)"/><ellipse cx="455.6995" cy="228.638817" rx="2.005244" ry="2.001758" transform="matrix(-.05233596 .99862953 -.99862953 -.05233596 707.874445 -214.470132)"/><ellipse cx="455.403206" cy="240.416684" rx="2.005216" ry="2.001787" transform="matrix(-.10452846 .9945219 -.9945219 -.10452846 742.10546 -187.361389)"/><ellipse cx="454.497063" cy="252.16327" rx="2.005168" ry="2.001834" transform="matrix(-.15643447 .98768834 -.98768834 -.15643447 774.65479 -157.291154)"/><ellipse cx="452.983515" cy="263.846909" rx="2.005103" ry="2.0019" transform="matrix(-.20791169 .9781476 -.9781476 -.20791169 805.245305 -124.380972)"/><ellipse cx="450.866642" cy="275.436102" rx="2.005019" ry="2.001983" transform="matrix(-.25881905 .96592583 -.96592583 -.25881905 833.61036 -88.779523)"/><ellipse cx="448.15215" cy="286.899608" rx="2.004919" ry="2.002083" transform="matrix(-.30901699 .95105652 -.95105652 -.30901699 859.496522 -50.66156)"/><ellipse cx="444.847358" cy="298.206522" rx="2.004804" ry="2.002199" transform="matrix(-.35836795 .93358043 -.93358043 -.35836795 882.666166 -10.226604)"/><ellipse cx="440.961174" cy="309.326365" rx="2.004674" ry="2.002329" transform="matrix(-.40673664 .91354546 -.91354546 -.40673664 902.899937 32.302655)"/><ellipse cx="436.504076" cy="320.229157" rx="2.004532" ry="2.002471" transform="matrix(-.4539905 .89100652 -.89100652 -.4539905 919.999048 76.682172)"/><ellipse cx="431.488077" cy="330.885508" rx="2.004378" ry="2.002625" transform="matrix(-.5 .8660254 -.8660254 -.5 933.787371 122.648626)"/><ellipse cx="425.926702" cy="341.26669" rx="2.004215" ry="2.002789" transform="matrix(-.54463904 .83867057 -.83867057 -.54463904 944.113339 169.921662)"/><ellipse cx="419.834942" cy="351.344717" rx="2.004043" ry="2.00296" transform="matrix(-.58778525 .80901699 -.80901699 -.58778525 950.851576 218.206357)"/><ellipse cx="413.229219" cy="361.09242" rx="2.003866" ry="2.003137" transform="matrix(-.62932039 .77714596 -.77714596 -.62932039 953.904309 267.195824)"/><ellipse cx="406.127342" cy="370.483522" rx="2.003685" ry="2.003319" transform="matrix(-.66913061 .74314483 -.74314483 -.66913061 953.202489 316.573953)"/><circle cx="398.548456" cy="379.492705" r="2.003502" transform="matrix(-.70710678 .70710678 -.70710678 -.70710678 948.706637 366.018254)"/><ellipse cx="390.512992" cy="388.095682" rx="2.003319" ry="2.003685" transform="matrix(-.74314483 .66913061 -.66913061 -.74314483 940.4074 415.202785)"/><ellipse cx="382.042612" cy="396.269262" rx="2.003137" ry="2.003866" transform="matrix(-.77714596 .62932039 -.62932039 -.77714596 928.325812 463.801113)"/><ellipse cx="373.160151" cy="403.991409" rx="2.00296" ry="2.004043" transform="matrix(-.80901699 .58778525 -.58778525 -.80901699 912.513247 511.489291)"/><ellipse cx="363.889555" cy="411.241306" rx="2.002789" ry="2.004215" transform="matrix(-.83867057 .54463904 -.54463904 -.83867057 893.051083 557.94883)"/><ellipse cx="354.255816" cy="417.99941" rx="2.002625" ry="2.004378" transform="matrix(-.8660254 .5 -.5 -.8660254 870.050057 602.86961)"/><ellipse cx="344.284903" cy="424.2475" rx="2.002471" ry="2.004532" transform="matrix(-.89100652 .4539905 -.4539905 -.89100652 843.649332 645.952715)"/><ellipse cx="334.003698" cy="429.968734" rx="2.002329" ry="2.004674" transform="matrix(-.91354546 .40673664 -.40673664 -.91354546 814.015299 686.913175)"/><ellipse cx="323.439916" cy="435.147687" rx="2.002199" ry="2.004804" transform="matrix(-.93358043 .35836795 -.35836795 -.93358043 781.340075 725.482551)"/><ellipse cx="312.622036" cy="439.770399" rx="2.002083" ry="2.004919" transform="matrix(-.95105652 .30901699 -.30901699 -.95105652 745.839787 761.411381)"/><ellipse cx="301.57922" cy="443.824408" rx="2.001983" ry="2.005019" transform="matrix(-.96592583 .25881905 -.25881905 -.96592583 707.752587 794.47142)"/><ellipse cx="290.341238" cy="447.298783" rx="2.0019" ry="2.005103" transform="matrix(-.9781476 .20791169 -.20791169 -.9781476 667.33647 824.457677)"/><ellipse cx="278.938386" cy="450.18416" rx="2.001834" ry="2.005168" transform="matrix(-.98768834 .15643447 -.15643447 -.98768834 624.866896 851.190229)"/><ellipse cx="267.401404" cy="452.47276" rx="2.001787" ry="2.005216" transform="matrix(-.9945219 .10452846 -.10452846 -.9945219 580.634237 874.515769)"/><ellipse cx="255.761393" cy="454.158413" rx="2.001758" ry="2.005244" transform="matrix(-.99862953 .05233596 -.05233596 -.99862953 534.941089 894.308901)"/><ellipse cx="243.59761" cy="455.257485" rx="1.824701" ry="1.828343" transform="matrix(-1 0 0 -1 487.19522 910.51497)"/><ellipse cx="232.297997" cy="455.704338" rx="2.001758" ry="2.005244" transform="matrix(-.99862953 -.05233596 .05233596 -.99862953 440.427915 922.941687)"/><ellipse cx="220.537865" cy="455.560443" rx="2.001775" ry="2.005227" transform="matrix(-.9961947 -.08715574 .08715574 -.9961947 400.531808 928.608482)"/><ellipse cx="208.801039" cy="454.805277" rx="2.001816" ry="2.005186" transform="matrix(-.99026807 -.1391731 .1391731 -.99026807 352.27338 934.243908)"/><ellipse cx="197.119162" cy="453.440877" rx="2.001876" ry="2.005126" transform="matrix(-.98162718 -.190809 .190809 -.98162718 304.096092 936.162877)"/><ellipse cx="185.523724" cy="451.470919" rx="2.001954" ry="2.005049" transform="matrix(-.97029573 -.2419219 .2419219 -.97029573 256.3159 934.413473)"/><ellipse cx="174.045986" cy="448.900715" rx="2.002048" ry="2.004955" transform="matrix(-.95630476 -.2923717 .2923717 -.95630476 209.241123 929.072725)"/><ellipse cx="162.716889" cy="445.737194" rx="2.002159" ry="2.004844" transform="matrix(-.93969262 -.34202014 .34202014 -.93969262 163.16965 920.2456)"/><ellipse cx="151.566974" cy="441.988884" rx="2.002284" ry="2.004719" transform="matrix(-.92050485 -.39073113 .39073113 -.92050485 118.386294 908.063732)"/><ellipse cx="140.6263" cy="437.665889" rx="2.002422" ry="2.004581" transform="matrix(-.89879405 -.43837115 .43837115 -.89879405 75.160284 892.683897)"/><ellipse cx="129.92436" cy="432.779865" rx="2.002573" ry="2.004431" transform="matrix(-.87461971 -.48480962 .48480962 -.87461971 33.742924 874.286243)"/><ellipse cx="119.490006" cy="427.343981" rx="2.002733" ry="2.00427" transform="matrix(-.8480481 -.52991926 .52991926 -.8480481 -5.63453 853.072287)"/><ellipse cx="109.351366" cy="421.372894" rx="2.002902" ry="2.004101" transform="matrix(-.81915204 -.57357644 .57357644 -.81915204 -42.762802 829.262728)"/><ellipse cx="99.535772" cy="414.882699" rx="2.003078" ry="2.003926" transform="matrix(-.78801075 -.61566148 .61566148 -.78801075 -77.456264 803.095068)"/><ellipse cx="90.069686" cy="407.890894" rx="2.003258" ry="2.003746" transform="matrix(-.75470958 -.65605903 .65605903 -.75470958 -109.554363 774.82109)"/><ellipse cx="80.978627" cy="400.416326" rx="2.003441" ry="2.003563" transform="matrix(-.7193398 -.69465837 .69465837 -.7193398 -138.922776 744.704207)"/><ellipse cx="72.287102" cy="392.479147" rx="2.003624" ry="2.00338" transform="matrix(-.68199836 -.7313537 .7313537 -.68199836 -165.45429 713.016721)"/><ellipse cx="64.018541" cy="384.100753" rx="2.003806" ry="2.003197" transform="matrix(-.64278761 -.76604444 .76604444 -.64278761 -189.069381 680.037005)"/><ellipse cx="56.195237" cy="375.30373" rx="2.003985" ry="2.003019" transform="matrix(-.60181502 -.79863551 .79863551 -.60181502 -209.716511 646.046665)"/><ellipse cx="48.838278" cy="366.111795" rx="2.004158" ry="2.002845" transform="matrix(-.5591929 -.82903757 .82903757 -.5591929 -227.372137 611.32768)"/><ellipse cx="41.967499" cy="356.549726" rx="2.004325" ry="2.002679" transform="matrix(-.51503807 -.8571673 .8571673 -.51503807 -242.040407 576.159578)"/><ellipse cx="35.601421" cy="346.643302" rx="2.004482" ry="2.002521" transform="matrix(-.46947156 -.88294759 .88294759 -.46947156 -253.752593 540.816664)"/><ellipse cx="29.757206" cy="336.419229" rx="2.004628" ry="2.002375" transform="matrix(-.42261826 -.90630779 .90630779 -.42261826 -262.566222 505.565326)"/><ellipse cx="24.450609" cy="325.905069" rx="2.004762" ry="2.002241" transform="matrix(-.37460659 -.92718385 .92718385 -.37460659 -268.56395 470.661467)"/><ellipse cx="19.695936" cy="315.129165" rx="2.004883" ry="2.00212" transform="matrix(-.32556815 -.94551858 .94551858 -.32556815 -271.852174 436.348059)"/><ellipse cx="15.506005" cy="304.120569" rx="2.004988" ry="2.002015" transform="matrix(-.27563736 -.9612617 .9612617 -.27563736 -272.559416 402.852886)"/><ellipse cx="11.89211" cy="292.908957" rx="2.005077" ry="2.001926" transform="matrix(-.22495105 -.97437006 .97437006 -.22495105 -270.834467 370.386452)"/><ellipse cx="8.863995" cy="281.524554" rx="2.005148" ry="2.001854" transform="matrix(-.17364818 -.98480775 .98480775 -.17364818 -266.844352 339.140111)"/><ellipse cx="6.429822" cy="269.99805" rx="2.005202" ry="2.0018" transform="matrix(-.12186934 -.99254615 .99254615 -.12186934 -260.772105 309.28443)"/><ellipse cx="4.596154" cy="258.360519" rx="2.005237" ry="2.001765" transform="matrix(-.06975647 -.99756405 .99756405 -.06975647 -252.8144 280.967796)"/><ellipse cx="3.367935" cy="246.643333" rx="2.005253" ry="2.001749" transform="matrix(-.01745241 -.9998477 .9998477 -.01745241 -243.179054 254.315275)"/><ellipse cx="2.748474" cy="234.87808" rx="2.00525" ry="2.001753" transform="matrix(.0348995 -.99939083 .99939083 .0348995 -232.082445 229.427753)"/><ellipse cx="2.739442" cy="223.096476" rx="2.005227" ry="2.001775" transform="matrix(.08715574 -.9961947 .9961947 .08715574 -219.746843 206.381355)"/><ellipse cx="3.340863" cy="211.330284" rx="2.005186" ry="2.001816" transform="matrix(.1391731 -.99026807 .99026807 .1391731 -206.397727 185.227143)"/><ellipse cx="4.551116" cy="199.611222" rx="2.005126" ry="2.001876" transform="matrix(.190809 -.98162718 .98162718 .190809 -192.26108 165.991104)"/><ellipse cx="6.366939" cy="187.970883" rx="2.005049" ry="2.001954" transform="matrix(.2419219 -.97029573 .97029573 .2419219 -177.560707 148.674424)"/><ellipse cx="8.783436" cy="176.440647" rx="2.004955" ry="2.002048" transform="matrix(.2923717 -.95630476 .95630476 .2923717 -162.515622 133.254036)"/><ellipse cx="11.794092" cy="165.051599" rx="2.004844" ry="2.002159" transform="matrix(.34202014 -.93969262 .93969262 .34202014 -147.337495 119.683449)"/><ellipse cx="15.390792" cy="153.834439" rx="2.004719" ry="2.002284" transform="matrix(.39073113 -.92050485 .92050485 .39073113 -132.228217 107.893834)"/><ellipse cx="19.56384" cy="142.819409" rx="2.004581" ry="2.002422" transform="matrix(.43837115 -.89879405 .89879405 .43837115 -117.377617 97.795364)"/><ellipse cx="24.301986" cy="132.036203" rx="2.004431" ry="2.002573" transform="matrix(.48480962 -.87461971 .87461971 .48480962 -102.961316 89.278777)"/><ellipse cx="29.592455" cy="121.51389" rx="2.00427" ry="2.002733" transform="matrix(.52991926 -.8480481 .8480481 .52991926 -89.13878 82.217164)"/><ellipse cx="35.420988" cy="111.280837" rx="2.004158" ry="2.002845" transform="matrix(.5591929 -.82903757 .82903757 .5591929 -76.642173 78.418712)"/><ellipse cx="41.771869" cy="101.36463" rx="2.003985" ry="2.003019" transform="matrix(.60181502 -.79863551 .79863551 .60181502 -64.320462 73.722371)"/><ellipse cx="48.62798" cy="91.792002" rx="2.003806" ry="2.003197" transform="matrix(.64278761 -.76604444 .76604444 .64278761 -52.946235 70.040434)"/><ellipse cx="55.970836" cy="82.588758" rx="2.003624" ry="2.00338" transform="matrix(.68199836 -.7313537 .7313537 .68199836 -42.602776 67.197838)"/><ellipse cx="63.780644" cy="73.779708" rx="2.003441" ry="2.003563" transform="matrix(.7193398 -.69465837 .69465837 .7193398 -33.351003 65.012786)"/><ellipse cx="72.036348" cy="65.388602" rx="2.003258" ry="2.003746" transform="matrix(.75470958 -.65605903 .65605903 .75470958 -25.228957 63.299294)"/><ellipse cx="80.715694" cy="57.438059" rx="2.003078" ry="2.003926" transform="matrix(.78801075 -.61566148 .61566148 .78801075 -18.251541 61.869794)"/><ellipse cx="89.795282" cy="49.949512" rx="2.002902" ry="2.004101" transform="matrix(.81915204 -.57357644 .57357644 .81915204 -12.41057 60.537725)"/><ellipse cx="99.250637" cy="42.943151" rx="2.002733" ry="2.00427" transform="matrix(.8480481 -.52991926 .52991926 .8480481 -7.67508 59.120118)"/><ellipse cx="109.056268" cy="36.437861" rx="2.002573" ry="2.004431" transform="matrix(.87461971 -.48480962 .48480962 .87461971 -3.991919 57.440118)"/><ellipse cx="119.185741" cy="30.451182" rx="2.002422" ry="2.004581" transform="matrix(.89879405 -.43837115 .43837115 .89879405 -1.286613 55.329431)"/><ellipse cx="129.611748" cy="24.99925" rx="2.002284" ry="2.004719" transform="matrix(.92050485 -.39073113 .39073113 .92050485 .53552 52.630664)"/><ellipse cx="140.306184" cy="20.096765" rx="2.002159" ry="2.004844" transform="matrix(.93969262 -.34202014 .34202014 .93969262 1.588 49.199524)"/><ellipse cx="151.240217" cy="15.756943" rx="2.002048" ry="2.004955" transform="matrix(.95630476 -.2923717 .2923717 .95630476 2.001594 44.906864)"/><ellipse cx="162.384372" cy="11.991481" rx="2.001954" ry="2.005049" transform="matrix(.97029573 -.2419219 .2419219 .97029573 1.922508 39.640533)"/><ellipse cx="173.708605" cy="8.810533" rx="2.001876" ry="2.005126" transform="matrix(.98162718 -.190809 .190809 .98162718 1.510387 33.307039)"/><ellipse cx="185.182389" cy="6.222672" rx="2.001816" ry="2.005186" transform="matrix(.99026807 -.1391731 .1391731 .99026807 .936154 25.832966)"/><ellipse cx="196.774793" cy="4.234876" rx="2.001775" ry="2.005227" transform="matrix(.9961947 -.08715574 .08715574 .9961947 .379694 17.166168)"/><ellipse cx="208.454564" cy="2.852503" rx="2.001753" ry="2.00525" transform="matrix(.99939083 -.0348995 .0348995 .99939083 .027434 7.276697)"/><ellipse cx="220.190218" cy="2.079272" rx="2.001749" ry="2.005245" transform="matrix(.9998477 .01745241 -.01745241 .9998477 .069824 -3.842532)"/><ellipse cx="232.574245" cy="2.834354" rx="2.001765" ry="2.005237" transform="matrix(.99756405 .06975647 -.06975647 .99756405 .764254 -16.216655)"/></g><g opacity=".553562" transform="translate(181 180)"><ellipse cx="219.220584" cy="2.232896" opacity=".3" rx="1.825822" ry="1.828586" transform="matrix(.99254615 .12186934 -.12186934 .99254615 1.906159 -26.699625)"/><ellipse cx="229.755793" cy="3.186149" opacity=".3" rx="1.825803" ry="1.82848" transform="matrix(.98480775 .17364818 -.17364818 .98480775 4.043776 -39.84827)"/><ellipse cx="240.227382" cy="4.685762" opacity=".3" rx="1.825778" ry="1.828338" transform="matrix(.97437006 .22495105 -.22495105 .97437006 7.211079 -53.919307)"/><ellipse cx="250.607124" cy="6.727692" opacity=".3" rx="1.825748" ry="1.828163" transform="matrix(.9612617 .27563736 -.27563736 .9612617 11.562498 -68.816066)"/><ellipse cx="260.867036" cy="9.306438" opacity=".3" rx="1.825711" ry="1.827956" transform="matrix(.94551858 .32556815 -.32556815 .94551858 17.242288 -84.422971)"/><ellipse cx="270.979461" cy="12.415047" opacity=".3" rx="1.82567" ry="1.827718" transform="matrix(.92718385 .37460659 -.37460659 .92718385 24.382438 -100.606677)"/><ellipse cx="280.917137" cy="16.045142" opacity=".3" rx="1.825623" ry="1.827454" transform="matrix(.90630779 .42261826 -.42261826 .90630779 33.100718 -117.217407)"/><ellipse cx="290.653275" cy="20.186937" opacity=".3" rx="1.825573" ry="1.827165" transform="matrix(.88294759 .46947156 -.46947156 .88294759 43.498858 -134.090518)"/><ellipse cx="300.16163" cy="24.82927" opacity=".3" rx="1.825519" ry="1.826855" transform="matrix(.8571673 .51503807 -.51503807 .8571673 55.660915 -151.048236)"/><ellipse cx="309.416569" cy="29.959628" opacity=".3" rx="1.825461" ry="1.826528" transform="matrix(.82903757 .5591929 -.5591929 .82903757 69.651819 -167.901579)"/><ellipse cx="318.393144" cy="35.564181" opacity=".3" rx="1.825402" ry="1.826186" transform="matrix(.79863551 .60181502 -.60181502 .79863551 85.516131 -184.452414)"/><ellipse cx="327.067156" cy="41.627824" opacity=".3" rx="1.82534" ry="1.825834" transform="matrix(.76604444 .64278761 -.64278761 .76604444 103.277028 -200.495655)"/><ellipse cx="335.415224" cy="48.134212" opacity=".3" rx="1.825277" ry="1.825476" transform="matrix(.7313537 .68199836 -.68199836 .7313537 122.935512 -215.821555)"/><ellipse cx="343.414843" cy="55.065808" opacity=".3" rx="1.825214" ry="1.825115" transform="matrix(.69465837 .7193398 -.7193398 .69465837 144.469875 -230.218081)"/><ellipse cx="351.044449" cy="62.403927" opacity=".3" rx="1.825151" ry="1.824755" transform="matrix(.65605903 .75470958 -.75470958 .65605903 167.835409 -243.473342)"/><ellipse cx="358.283476" cy="70.128789" opacity=".3" rx="1.82509" ry="1.824401" transform="matrix(.61566148 .78801075 -.78801075 .61566148 192.964382 -255.378037)"/><ellipse cx="365.112408" cy="78.219572" opacity=".3" rx="1.825029" ry="1.824056" transform="matrix(.57357644 .81915204 -.81915204 .57357644 219.766256 -265.727907)"/><ellipse cx="371.512838" cy="86.654468" opacity=".3" rx="1.824971" ry="1.823724" transform="matrix(.52991926 .8480481 -.8480481 .52991926 248.128185 -274.326159)"/><ellipse cx="377.467512" cy="95.410738" opacity=".3" rx="1.824916" ry="1.823409" transform="matrix(.48480962 .87461971 -.87461971 .48480962 277.915743 -280.98583)"/><ellipse cx="382.960379" cy="104.46478" opacity=".3" rx="1.824865" ry="1.823114" transform="matrix(.43837115 .89879405 -.89879405 .43837115 308.973921 -285.532074)"/><ellipse cx="387.976665" cy="113.792256" opacity=".3" rx="1.824832" ry="1.82293" transform="matrix(.40673664 .91354546 -.91354546 .40673664 334.126737 -286.925544)"/><ellipse cx="392.502777" cy="123.367879" opacity=".3" rx="1.824788" ry="1.822675" transform="matrix(.35836795 .93358043 -.93358043 .35836795 367.016199 -287.276125)"/><ellipse cx="396.526552" cy="133.16591" opacity=".3" rx="1.824748" ry="1.822448" transform="matrix(.30901699 .95105652 -.95105652 .30901699 400.641415 -285.10378)"/><ellipse cx="400.037142" cy="143.159939" opacity=".3" rx="1.824714" ry="1.822252" transform="matrix(.25881905 .96592583 -.96592583 .25881905 434.781793 -280.298787)"/><ellipse cx="403.025085" cy="153.323022" opacity=".3" rx="1.824686" ry="1.822089" transform="matrix(.20791169 .9781476 -.9781476 .20791169 469.204004 -272.772647)"/><ellipse cx="405.482326" cy="163.627765" opacity=".3" rx="1.824663" ry="1.82196" transform="matrix(.15643447 .98768834 -.98768834 .15643447 503.664151 -262.459423)"/><ellipse cx="407.402241" cy="174.046388" opacity=".3" rx="1.824647" ry="1.821866" transform="matrix(.10452846 .9945219 -.9945219 .10452846 537.910054 -249.316862)"/><ellipse cx="408.779655" cy="184.550804" opacity=".3" rx="1.824637" ry="1.82181" transform="matrix(.05233596 .99862953 -.99862953 .05233596 571.683664 -233.327275)"/><ellipse cx="409.900992" cy="194.59604" opacity=".3" rx="1.824634" ry="1.82584" transform="matrix(0 1 -1 0 604.497032 -215.304952)"/><ellipse cx="409.893598" cy="205.703593" opacity=".3" rx="1.824637" ry="1.82181" transform="matrix(-.05233596 .99862953 -.99862953 -.05233596 636.767455 -192.862566)"/><ellipse cx="409.627125" cy="216.29494" opacity=".3" rx="1.824647" ry="1.821866" transform="matrix(-.10452846 .9945219 -.9945219 -.10452846 667.554873 -168.479227)"/><ellipse cx="408.812153" cy="226.858187" opacity=".3" rx="1.824663" ry="1.82196" transform="matrix(-.15643447 .98768834 -.98768834 -.15643447 696.82965 -141.432371)"/><ellipse cx="407.450878" cy="237.364856" opacity=".3" rx="1.824686" ry="1.822089" transform="matrix(-.20791169 .9781476 -.9781476 -.20791169 724.342543 -111.831314)"/><ellipse cx="405.546969" cy="247.786622" opacity=".3" rx="1.824714" ry="1.822252" transform="matrix(-.25881905 .96592583 -.96592583 -.25881905 749.853746 -79.809772)"/><ellipse cx="403.10556" cy="258.095389" opacity=".3" rx="1.824748" ry="1.822448" transform="matrix(-.30901699 .95105652 -.95105652 -.30901699 773.13533 -45.524919)"/><ellipse cx="400.133231" cy="268.263364" opacity=".3" rx="1.824788" ry="1.822675" transform="matrix(-.35836795 .93358043 -.93358043 -.35836795 793.973582 -9.156197)"/><ellipse cx="396.637994" cy="278.263136" opacity=".3" rx="1.824832" ry="1.82293" transform="matrix(-.40673664 .91354546 -.91354546 -.40673664 812.171224 29.096112)"/><ellipse cx="392.62927" cy="288.067744" opacity=".3" rx="1.824881" ry="1.82321" transform="matrix(-.4539905 .89100652 -.89100652 -.4539905 827.549468 69.012522)"/><ellipse cx="388.117866" cy="297.650757" opacity=".3" rx="1.824934" ry="1.823512" transform="matrix(-.5 .8660254 -.8660254 -.5 839.949916 110.356204)"/><ellipse cx="383.115943" cy="306.986337" opacity=".3" rx="1.82499" ry="1.823833" transform="matrix(-.54463904 .83867057 -.83867057 -.54463904 849.236246 152.875014)"/><ellipse cx="377.636984" cy="316.049316" opacity=".3" rx="1.825049" ry="1.82417" transform="matrix(-.58778525 .80901699 -.80901699 -.58778525 855.295702 196.303705)"/><ellipse cx="371.695758" cy="324.815259" opacity=".3" rx="1.82511" ry="1.824519" transform="matrix(-.62932039 .77714596 -.77714596 -.62932039 858.040345 240.366268)"/><ellipse cx="365.308281" cy="333.260532" opacity=".3" rx="1.825172" ry="1.824875" transform="matrix(-.66913061 .74314483 -.74314483 -.66913061 857.408072 284.778395)"/><circle cx="358.49177" cy="341.362367" opacity=".3" r="1.825235" transform="matrix(-.70710678 .70710678 -.70710678 -.70710678 853.363376 329.25005)"/><ellipse cx="351.264601" cy="349.098919" opacity=".3" rx="1.825298" ry="1.825596" transform="matrix(-.74314483 .66913061 -.66913061 -.74314483 845.897843 373.488079)"/><ellipse cx="343.646257" cy="356.44933" opacity=".3" rx="1.825361" ry="1.825953" transform="matrix(-.77714596 .62932039 -.62932039 -.77714596 835.03039 417.19889)"/><ellipse cx="335.657273" cy="363.393783" opacity=".3" rx="1.825422" ry="1.826301" transform="matrix(-.80901699 .58778525 -.58778525 -.80901699 820.807218 460.091134)"/><ellipse cx="327.319185" cy="369.913554" opacity=".3" rx="1.825481" ry="1.826639" transform="matrix(-.83867057 .54463904 -.54463904 -.83867057 803.301513 501.878359)"/><ellipse cx="318.65447" cy="375.991064" opacity=".3" rx="1.825537" ry="1.826961" transform="matrix(-.8660254 .5 -.5 -.8660254 782.612868 542.281642)"/><ellipse cx="309.686486" cy="381.609928" opacity=".3" rx="1.82559" ry="1.827264" transform="matrix(-.89100652 .4539905 -.4539905 -.89100652 758.866447 581.032141)"/><ellipse cx="300.439408" cy="386.754996" opacity=".3" rx="1.825639" ry="1.827545" transform="matrix(-.91354546 .40673664 -.40673664 -.91354546 732.211893 617.87355)"/><ellipse cx="290.938163" cy="391.412397" opacity=".3" rx="1.825684" ry="1.827801" transform="matrix(-.93358043 .35836795 -.35836795 -.93358043 702.821995 652.564437)"/><ellipse cx="281.208364" cy="395.569572" opacity=".3" rx="1.825724" ry="1.828028" transform="matrix(-.95105652 .30901699 -.30901699 -.95105652 670.891131 684.880428)"/><ellipse cx="271.276241" cy="399.215314" opacity=".3" rx="1.825759" ry="1.828225" transform="matrix(-.96592583 .25881905 -.25881905 -.96592583 636.633495 714.616238)"/><ellipse cx="261.168568" cy="402.339792" opacity=".3" rx="1.825787" ry="1.828389" transform="matrix(-.9781476 .20791169 -.20791169 -.9781476 600.281123 741.587496)"/><ellipse cx="250.912592" cy="404.934583" opacity=".3" rx="1.82581" ry="1.828519" transform="matrix(-.98768834 .15643447 -.15643447 -.98768834 562.081758 765.632372)"/><ellipse cx="240.535963" cy="406.992691" opacity=".3" rx="1.825826" ry="1.828613" transform="matrix(-.9945219 .10452846 -.10452846 -.9945219 522.296565 786.612979)"/><ellipse cx="230.066652" cy="408.508567" opacity=".3" rx="1.825836" ry="1.828669" transform="matrix(-.99862953 .05233596 -.05233596 -.99862953 481.197692 804.416529)"/><ellipse cx="219.100753" cy="408.990484" opacity=".3" rx="1.82584" ry="1.824634" transform="matrix(-1 0 0 -1 438.201506 817.980968)"/><ellipse cx="208.963056" cy="409.898748" opacity=".3" rx="1.825836" ry="1.828669" transform="matrix(-.99862953 -.05233596 .05233596 -.99862953 396.187292 830.172025)"/><ellipse cx="198.38567" cy="409.769323" opacity=".3" rx="1.82583" ry="1.828636" transform="matrix(-.9961947 -.08715574 .08715574 -.9961947 360.302673 835.2698)"/><ellipse cx="187.829228" cy="409.090173" opacity=".3" rx="1.825816" ry="1.828554" transform="matrix(-.99026807 -.1391731 .1391731 -.99026807 316.896167 840.339885)"/><ellipse cx="177.322194" cy="407.863136" opacity=".3" rx="1.825796" ry="1.828437" transform="matrix(-.98162718 -.190809 .190809 -.98162718 273.562525 842.067347)"/><ellipse cx="166.892893" cy="406.091521" opacity=".3" rx="1.825769" ry="1.828284" transform="matrix(-.97029573 -.2419219 .2419219 -.97029573 230.585923 840.495433)"/><ellipse cx="156.569441" cy="403.780107" opacity=".3" rx="1.825736" ry="1.828097" transform="matrix(-.95630476 -.2923717 .2923717 -.95630476 188.243664 835.693418)"/><ellipse cx="146.379668" cy="400.935123" opacity=".3" rx="1.825698" ry="1.82788" transform="matrix(-.93969262 -.34202014 .34202014 -.93969262 146.803674 827.755695)"/><ellipse cx="136.351046" cy="397.564243" opacity=".3" rx="1.825655" ry="1.827633" transform="matrix(-.92050485 -.39073113 .39073113 -.92050485 106.52212 816.800656)"/><ellipse cx="126.51061" cy="393.676555" opacity=".3" rx="1.825607" ry="1.82736" transform="matrix(-.89879405 -.43837115 .43837115 -.89879405 67.64115 802.9693)"/><ellipse cx="116.884889" cy="389.28254" opacity=".3" rx="1.825555" ry="1.827064" transform="matrix(-.87461971 -.48480962 .48480962 -.87461971 30.386796 786.42364)"/><ellipse cx="107.499833" cy="384.394047" opacity=".3" rx="1.8255" ry="1.826748" transform="matrix(-.8480481 -.52991926 .52991926 -.8480481 -5.032949 767.344919)"/><ellipse cx="98.380745" cy="379.024256" opacity=".3" rx="1.825442" ry="1.826415" transform="matrix(-.81915204 -.57357644 .57357644 -.81915204 -38.429849 745.931627)"/><ellipse cx="89.552208" cy="373.187646" opacity=".3" rx="1.825381" ry="1.82607" transform="matrix(-.78801075 -.61566148 .61566148 -.78801075 -69.636946 722.397369)"/><ellipse cx="81.038024" cy="366.899952" opacity=".3" rx="1.825319" ry="1.825715" transform="matrix(-.75470958 -.65605903 .65605903 -.75470958 -98.509829 696.968588)"/><ellipse cx="72.861146" cy="360.178128" opacity=".3" rx="1.825256" ry="1.825356" transform="matrix(-.7193398 -.69465837 .69465837 -.7193398 -124.927683 669.882196)"/><ellipse cx="65.04362" cy="353.040297" opacity=".3" rx="1.825193" ry="1.824995" transform="matrix(-.68199836 -.7313537 .7313537 -.68199836 -148.794068 641.383092)"/><ellipse cx="57.60652" cy="345.505704" opacity=".3" rx="1.825131" ry="1.824637" transform="matrix(-.64278761 -.76604444 .76604444 -.64278761 -170.037447 611.721644)"/><ellipse cx="50.569898" cy="337.594663" opacity=".3" rx="1.825069" ry="1.824285" transform="matrix(-.60181502 -.79863551 .79863551 -.60181502 -188.611464 581.151119)"/><ellipse cx="43.952723" cy="329.328503" opacity=".3" rx="1.82501" ry="1.823944" transform="matrix(-.5591929 -.82903757 .82903757 -.5591929 -204.494929 549.925124)"/><ellipse cx="37.772837" cy="320.72951" opacity=".3" rx="1.824953" ry="1.823617" transform="matrix(-.51503807 -.8571673 .8571673 -.51503807 -217.691562 518.29506)"/><ellipse cx="32.046898" cy="311.820868" opacity=".3" rx="1.824899" ry="1.823308" transform="matrix(-.46947156 -.88294759 .88294759 -.46947156 -228.22948 486.50763)"/><ellipse cx="26.790346" cy="302.626595" opacity=".3" rx="1.824848" ry="1.82302" transform="matrix(-.42261826 -.90630779 .90630779 -.42261826 -236.160404 454.80242)"/><ellipse cx="22.017351" cy="293.171478" opacity=".3" rx="1.824802" ry="1.822757" transform="matrix(-.37460659 -.92718385 .92718385 -.37460659 -241.558665 423.409579)"/><ellipse cx="17.740781" cy="283.48101" opacity=".3" rx="1.824761" ry="1.822521" transform="matrix(-.32556815 -.94551858 .94551858 -.32556815 -244.519946 392.547637)"/><ellipse cx="13.972167" cy="273.581315" opacity=".3" rx="1.824725" ry="1.822314" transform="matrix(-.27563736 -.9612617 .9612617 -.27563736 -245.159821 362.421454)"/><ellipse cx="10.721667" cy="263.499082" opacity=".3" rx="1.824694" ry="1.822139" transform="matrix(-.22495105 -.97437006 .97437006 -.22495105 -243.6121 333.22035)"/><ellipse cx="7.998046" cy="253.261492" opacity=".3" rx="1.82467" ry="1.821999" transform="matrix(-.17364818 -.98480775 .98480775 -.17364818 -240.026989 305.116426)"/><ellipse cx="5.808646" cy="242.896146" opacity=".3" rx="1.824651" ry="1.821893" transform="matrix(-.12186934 -.99254615 .99254615 -.12186934 -234.569093 278.263089)"/><ellipse cx="4.15937" cy="232.430986" opacity=".3" rx="1.824639" ry="1.821825" transform="matrix(-.06975647 -.99756405 .99756405 -.06975647 -227.415283 252.79379)"/><ellipse cx="3.054665" cy="221.894226" opacity=".3" rx="1.824634" ry="1.821793" transform="matrix(-.01745241 -.9998477 .9998477 -.01745241 -218.752454 228.821014)"/><ellipse cx="2.497508" cy="211.314271" opacity=".3" rx="1.824635" ry="1.8218" transform="matrix(.0348995 -.99939083 .99939083 .0348995 -208.775198 206.435496)"/><ellipse cx="2.489401" cy="200.719643" opacity=".3" rx="1.824643" ry="1.821843" transform="matrix(.08715574 -.9961947 .9961947 .08715574 -197.683409 185.705702)"/><ellipse cx="3.030367" cy="190.138902" opacity=".3" rx="1.824657" ry="1.821924" transform="matrix(.1391731 -.99026807 .99026807 .1391731 -185.679862 166.677557)"/><ellipse cx="4.118946" cy="179.600572" opacity=".3" rx="1.824677" ry="1.822042" transform="matrix(.190809 -.98162718 .98162718 .190809 -172.96779 149.374437)"/><ellipse cx="5.752204" cy="169.133061" opacity=".3" rx="1.824704" ry="1.822194" transform="matrix(.2419219 -.97029573 .97029573 .2419219 -159.748466 133.797409)"/><ellipse cx="7.925736" cy="158.764588" opacity=".3" rx="1.824736" ry="1.822379" transform="matrix(.2923717 -.95630476 .95630476 .2923717 -146.218856 119.925734)"/><ellipse cx="10.633684" cy="148.523102" opacity=".3" rx="1.824774" ry="1.822596" transform="matrix(.34202014 -.93969262 .93969262 .34202014 -132.569313 107.717604)"/><ellipse cx="13.868746" cy="138.436212" opacity=".3" rx="1.824817" ry="1.822842" transform="matrix(.39073113 -.92050485 .92050485 .39073113 -118.98141 97.111123)"/><ellipse cx="17.622201" cy="128.531108" opacity=".3" rx="1.824865" ry="1.823114" transform="matrix(.43837115 -.89879405 .89879405 .43837115 -105.625858 88.025508)"/><ellipse cx="21.883928" cy="118.834491" opacity=".3" rx="1.824916" ry="1.823409" transform="matrix(.48480962 -.87461971 .87461971 .48480962 -92.660599 80.362501)"/><ellipse cx="26.642438" cy="109.372499" opacity=".3" rx="1.824971" ry="1.823724" transform="matrix(.52991926 -.8480481 .8480481 .52991926 -80.229043 74.007974)"/><ellipse cx="31.884859" cy="100.17055" opacity=".3" rx="1.82501" ry="1.823944" transform="matrix(.5591929 -.82903757 .82903757 .5591929 -68.990078 70.589635)"/><ellipse cx="37.597141" cy="91.253622" opacity=".3" rx="1.825069" ry="1.824285" transform="matrix(.60181502 -.79863551 .79863551 .60181502 -57.907766 66.362233)"/><ellipse cx="43.763844" cy="82.645667" opacity=".3" rx="1.825131" ry="1.824637" transform="matrix(.64278761 -.76604444 .76604444 .64278761 -47.677267 63.047105)"/><ellipse cx="50.368341" cy="74.369888" opacity=".3" rx="1.825193" ry="1.824995" transform="matrix(.68199836 -.7313537 .7313537 .68199836 -38.373478 60.486819)"/><ellipse cx="57.392827" cy="66.448593" opacity=".3" rx="1.825256" ry="1.825356" transform="matrix(.7193398 -.69465837 .69465837 .7193398 -30.051189 58.517883)"/><ellipse cx="64.818364" cy="58.903134" opacity=".3" rx="1.825319" ry="1.825715" transform="matrix(.75470958 -.65605903 .65605903 .75470958 -22.744609 56.973047)"/><ellipse cx="72.624933" cy="51.753849" opacity=".3" rx="1.825381" ry="1.82607" transform="matrix(.78801075 -.61566148 .61566148 .78801075 -16.467146 55.683633)"/><ellipse cx="80.791488" cy="45.02001" opacity=".3" rx="1.825442" ry="1.826415" transform="matrix(.81915204 -.57357644 .57357644 .81915204 -11.211441 54.481871)"/><ellipse cx="89.296012" cy="38.719768" opacity=".3" rx="1.8255" ry="1.826748" transform="matrix(.8480481 -.52991926 .52991926 .8480481 -6.949652 53.203219)"/><ellipse cx="98.115577" cy="32.870105" opacity=".3" rx="1.825555" ry="1.827064" transform="matrix(.87461971 -.48480962 .48480962 .87461971 -3.633983 51.688639)"/><ellipse cx="107.226406" cy="27.486788" opacity=".3" rx="1.825607" ry="1.82736" transform="matrix(.89879405 -.43837115 .43837115 .89879405 -1.197464 49.786789)"/><ellipse cx="116.603937" cy="22.584328" opacity=".3" rx="1.825655" ry="1.827633" transform="matrix(.92050485 -.39073113 .39073113 .92050485 .445047 47.356132)"/><ellipse cx="126.22289" cy="18.17594" opacity=".3" rx="1.825698" ry="1.82788" transform="matrix(.93969262 -.34202014 .34202014 .93969262 1.395634 44.266914)"/><ellipse cx="136.057332" cy="14.273505" opacity=".3" rx="1.825736" ry="1.828097" transform="matrix(.95630476 -.2923717 .2923717 .95630476 1.771889 40.402998)"/><ellipse cx="146.08075" cy="10.887543" opacity=".3" rx="1.825769" ry="1.828284" transform="matrix(.97029573 -.2419219 .2419219 .97029573 1.705288 35.663539)"/><ellipse cx="156.266123" cy="8.02718" opacity=".3" rx="1.825796" ry="1.828437" transform="matrix(.98162718 -.190809 .190809 .98162718 1.339391 29.964464)"/><ellipse cx="166.585992" cy="5.700127" opacity=".3" rx="1.825816" ry="1.828554" transform="matrix(.99026807 -.1391731 .1391731 .99026807 .827899 23.239762)"/><ellipse cx="177.012537" cy="3.912656" opacity=".3" rx="1.82583" ry="1.828636" transform="matrix(.9961947 -.08715574 .08715574 .9961947 .332576 15.442548)"/><ellipse cx="187.517648" cy="2.669586" opacity=".3" rx="1.825838" ry="1.82868" transform="matrix(.99939083 -.0348995 .0348995 .99939083 .021063 6.545898)"/><ellipse cx="198.073006" cy="1.974266" opacity=".3" rx="1.825839" ry="1.828686" transform="matrix(.9998477 .01745241 -.01745241 .9998477 .064623 -3.45655)"/><ellipse cx="209.205894" cy="2.82002" opacity=".3" rx="1.825834" ry="1.828655" transform="matrix(.99756405 .06975647 -.06975647 .99756405 .70633 -14.586596)"/></g></g></svg>