<?xml version="1.0" encoding="UTF-8"?>
<svg width="412px" height="270px" viewBox="0 0 412 270" version="1.1" xmlns="http://www.w3.org/2000/svg" xmlns:xlink="http://www.w3.org/1999/xlink">
    <!-- Generator: Sketch 59.1 (86144) - https://sketch.com -->
    <title>编组 2</title>
    <desc>Created with Sketch.</desc>
    <defs>
        <linearGradient x1="49.9492365%" y1="-57.2570044%" x2="49.9492365%" y2="102.894886%" id="linearGradient-1">
            <stop stop-color="#595757" offset="0%"></stop>
            <stop stop-color="#676565" offset="22%"></stop>
            <stop stop-color="#8B8A8A" offset="63%"></stop>
            <stop stop-color="#B0B1B1" offset="100%"></stop>
        </linearGradient>
        <linearGradient x1="49.9998339%" y1="-107.661058%" x2="49.9998339%" y2="103.822756%" id="linearGradient-2">
            <stop stop-color="#595757" offset="0%"></stop>
            <stop stop-color="#676565" offset="22%"></stop>
            <stop stop-color="#8B8A8A" offset="63%"></stop>
            <stop stop-color="#B0B1B1" offset="100%"></stop>
        </linearGradient>
        <linearGradient x1="49.9236211%" y1="-57.2570016%" x2="49.9236211%" y2="102.894881%" id="linearGradient-3">
            <stop stop-color="#595757" offset="0%"></stop>
            <stop stop-color="#676565" offset="22%"></stop>
            <stop stop-color="#8B8A8A" offset="63%"></stop>
            <stop stop-color="#B0B1B1" offset="100%"></stop>
        </linearGradient>
        <linearGradient x1="50.0001662%" y1="-107.661056%" x2="50.0001662%" y2="103.822754%" id="linearGradient-4">
            <stop stop-color="#595757" offset="0%"></stop>
            <stop stop-color="#676565" offset="22%"></stop>
            <stop stop-color="#8B8A8A" offset="63%"></stop>
            <stop stop-color="#B0B1B1" offset="100%"></stop>
        </linearGradient>
    </defs>
    <g id="页面-1" stroke="none" stroke-width="1" fill="none" fill-rule="evenodd">
        <g id="3" transform="translate(-353.000000, -510.000000)" fill-rule="nonzero">
            <g id="编组-3" transform="translate(353.000000, 510.000000)">
                <g id="编组-2" transform="translate(0.000000, 0.639307)">
                    <path d="M1.82615006,269.360693 L1.71168689,269.360693 C0.702941214,269.293312 -0.0614503676,268.405764 0.00389633348,267.377749 L5.93288155,1.74893373 C5.97541106,1.08216887 6.36377486,0.489174192 6.95168008,0.193325056 C7.5395853,-0.10252408 8.23771515,-0.0562811532 8.78309087,0.314634573 C9.32846659,0.685550298 9.63823263,1.3247879 9.59570312,1.99155276 L3.65298232,267.606371 C3.59488512,268.591331 2.79444053,269.360693 1.82615006,269.360693 Z" id="路径" fill="url(#linearGradient-1)"></path>
                    <path d="M16.7373117,269.360693 L16.6592079,269.360693 C15.7019665,269.315059 14.9600188,268.43946 15.0016714,267.404577 L18.8587975,21.5890891 C18.9007349,20.552798 19.7118044,19.7494717 20.6703721,19.7948094 C21.6289397,19.8401471 22.3720154,20.7169805 22.3300781,21.7532715 L18.4686129,267.568759 C18.42689,268.570122 17.6645091,269.360693 16.7373117,269.360693 Z" id="路径" fill="url(#linearGradient-2)"></path>
                    <path d="M410.16105,269.360817 C409.194803,269.360817 408.393374,268.598773 408.33057,267.615698 L402.173025,2.53299991 C402.130517,1.86623508 402.440126,1.22699751 402.985224,0.8560818 C403.530323,0.485166092 404.228098,0.438923168 404.815704,0.734772289 C405.40331,1.03062141 405.791476,1.62361606 405.833984,2.29038089 L411.996106,267.368414 C412.061419,268.396428 411.297416,269.283976 410.289183,269.351358 L410.16105,269.360817 Z" id="路径" fill="url(#linearGradient-3)"></path>
                    <path d="M395.262688,269.360717 C394.333812,269.360717 393.568847,268.571934 393.527048,267.568758 L391.190829,19.542454 C391.148891,18.5061629 391.891967,17.6293295 392.850535,17.5839918 C393.809102,17.538654 394.620172,18.3419804 394.662109,19.3782715 L396.998329,267.404576 C397.039981,268.439459 396.298033,269.315058 395.340792,269.360717 L395.262688,269.360717 Z" id="路径" fill="url(#linearGradient-4)"></path>
                </g>
            </g>
        </g>
    </g>
</svg>