<svg width="24" height="24" viewBox="0 0 24 24" fill="none" xmlns="http://www.w3.org/2000/svg">
<path fill-rule="evenodd" clip-rule="evenodd" d="M2 0C0.895431 0 0 0.895432 0 2V8.66667C0 9.77124 0.895432 10.6667 2 10.6667H8.66667C9.77124 10.6667 10.6667 9.77123 10.6667 8.66667V2C10.6667 0.895431 9.77123 0 8.66667 0H2ZM15.3333 0C14.2288 0 13.3333 0.895432 13.3333 2V8.66667C13.3333 9.77124 14.2288 10.6667 15.3333 10.6667H22C23.1046 10.6667 24 9.77123 24 8.66667V2C24 0.895431 23.1046 0 22 0H15.3333ZM0 15.3333C0 14.2288 0.895431 13.3333 2 13.3333H8.66667C9.77123 13.3333 10.6667 14.2288 10.6667 15.3333V22C10.6667 23.1046 9.77124 24 8.66667 24H2C0.895432 24 0 23.1046 0 22V15.3333ZM15.3333 13.3333C14.2288 13.3333 13.3333 14.2288 13.3333 15.3333V22C13.3333 23.1046 14.2288 24 15.3333 24H22C23.1046 24 24 23.1046 24 22V15.3333C24 14.2288 23.1046 13.3333 22 13.3333H15.3333Z" fill="#26313D"/>
</svg>
