<?xml version="1.0" encoding="UTF-8"?>
<svg width="92px" height="92px" viewBox="0 0 92 92" version="1.1" xmlns="http://www.w3.org/2000/svg" xmlns:xlink="http://www.w3.org/1999/xlink">
    <!-- Generator: Sketch 59.1 (86144) - https://sketch.com -->
    <title>工作 </title>
    <desc>Created with Sketch.</desc>
    <defs>
        <linearGradient x1="11.8644068%" y1="4.18229167%" x2="104.602754%" y2="105.080729%" id="linearGradient-1">
            <stop stop-color="#00F0FF" offset="0%"></stop>
            <stop stop-color="#704DF0" offset="100%"></stop>
        </linearGradient>
        <filter x="-329.3%" y="-322.8%" width="758.7%" height="758.7%" filterUnits="objectBoundingBox" id="filter-2">
            <feOffset dx="0" dy="6" in="SourceAlpha" result="shadowOffsetOuter1"></feOffset>
            <feGaussianBlur stdDeviation="50" in="shadowOffsetOuter1" result="shadowBlurOuter1"></feGaussianBlur>
            <feColorMatrix values="0 0 0 0 0.125490196   0 0 0 0 0.127812629   0 0 0 0 0.129411765  0 0 0 0.1 0" type="matrix" in="shadowBlurOuter1" result="shadowMatrixOuter1"></feColorMatrix>
            <feMerge>
                <feMergeNode in="shadowMatrixOuter1"></feMergeNode>
                <feMergeNode in="SourceGraphic"></feMergeNode>
            </feMerge>
        </filter>
        <linearGradient x1="11.8644068%" y1="39.9909094%" x2="104.602754%" y2="62.0326404%" id="linearGradient-3">
            <stop stop-color="#00F0FF" offset="0%"></stop>
            <stop stop-color="#704DF0" offset="100%"></stop>
        </linearGradient>
        <path d="M91.9472501,49.2080857 C89.8315996,50.6840664 87.2198124,52.0160192 84.1412967,53.1831354 C75.8989486,56.3074816 64.2757756,58.2417609 51.7048528,58.6831271 C51.4122093,59.3602217 51.0001844,59.9638744 50.4663104,60.492657 C49.284014,61.6640573 47.7903596,62.2500635 45.9847303,62.2500635 C44.308148,62.2500635 42.873413,61.6451868 41.6806283,60.4373715 C41.1595048,59.9096089 40.7523128,59.3230927 40.4588466,58.6778229 C40.3720612,58.6747628 40.2856871,58.6725188 40.1986961,58.6692547 C22.6813157,58.0157227 8.21314544,54.6215791 0.503745894,49.3569078 C0.352182118,49.2531478 0.201772479,49.1477386 0.0525442237,49.0406991 L0,49 L0,83.7170655 C0,88.2842415 3.74575534,92 8.34980156,92 L83.6501984,92 C88.2542447,92 92,88.2842415 92,83.7170655 L92,49.1679986 L91.9472501,49.2080857 L91.9472501,49.2080857 Z" id="path-4"></path>
        <filter x="-166.3%" y="-341.9%" width="432.6%" height="811.6%" filterUnits="objectBoundingBox" id="filter-5">
            <feOffset dx="0" dy="6" in="SourceAlpha" result="shadowOffsetOuter1"></feOffset>
            <feGaussianBlur stdDeviation="50" in="shadowOffsetOuter1" result="shadowBlurOuter1"></feGaussianBlur>
            <feColorMatrix values="0 0 0 0 0.125490196   0 0 0 0 0.127812629   0 0 0 0 0.129411765  0 0 0 0.1 0" type="matrix" in="shadowBlurOuter1"></feColorMatrix>
        </filter>
        <linearGradient x1="11.8644068%" y1="35.9201489%" x2="104.602754%" y2="66.9263914%" id="linearGradient-6">
            <stop stop-color="#00F0FF" offset="0%"></stop>
            <stop stop-color="#704DF0" offset="100%"></stop>
        </linearGradient>
        <path d="M4.08374529,42.8527695 C10.7338286,47.3449055 24.3234512,50.3817032 40.4360191,50.9762892 C40.5700018,50.9812332 40.7035731,50.9846637 40.8374529,50.989204 C41.0908219,50.5980775 41.3900305,50.2374336 41.7289567,49.914651 C42.9543373,48.7438423 44.4154986,48.158438 46.1139829,48.158438 C47.8329297,48.158438 49.284014,48.7564544 50.4663104,49.9513775 C50.7826311,50.2704697 51.0630414,50.6220341 51.3026993,51 C63.2477185,50.6071071 74.2097186,48.8320263 81.8876534,45.9531324 C85.4330003,44.6239154 88.1418555,43.112882 89.9384361,41.4622072 C90.9026381,40.5763315 91.5674099,39.6837967 91.9471473,38.766744 L92,38.6425398 L92,23.7160402 C92,19.1982764 88.2542447,15.5229016 83.6501984,15.5229016 L70.6804126,15.5229016 L70.6804126,5.58979437 C70.6804126,2.76740275 68.5628084,0.42124495 65.8050079,0 L26.1949921,0 C23.4369859,0.42124495 21.3195874,2.76730186 21.3195874,5.58969347 L21.3195874,15.5229016 L8.34980156,15.5229016 C3.74575534,15.5229016 0,19.1984782 0,23.7160402 L0,37.8148817 L0.0525442237,38.018391 C0.468270831,39.7012519 1.81879105,41.3227675 4.08374529,42.8528704 L4.08374529,42.8527695 Z M30.7426896,10.0846546 C30.7426896,9.27646963 31.410649,8.62134545 32.2341846,8.62134545 L59.7660211,8.62134545 C60.5896595,8.62134545 61.2574133,9.27657053 61.2574133,10.0846546 L61.2574133,15.5229016 L30.7426896,15.5229016 L30.7426896,10.0846546 L30.7426896,10.0846546 Z" id="path-7"></path>
        <filter x="-166.3%" y="-288.2%" width="432.6%" height="700.0%" filterUnits="objectBoundingBox" id="filter-8">
            <feOffset dx="0" dy="6" in="SourceAlpha" result="shadowOffsetOuter1"></feOffset>
            <feGaussianBlur stdDeviation="50" in="shadowOffsetOuter1" result="shadowBlurOuter1"></feGaussianBlur>
            <feColorMatrix values="0 0 0 0 0.125490196   0 0 0 0 0.127812629   0 0 0 0 0.129411765  0 0 0 0.1 0" type="matrix" in="shadowBlurOuter1"></feColorMatrix>
        </filter>
    </defs>
    <g id="页面-1" stroke="none" stroke-width="1" fill="none" fill-rule="evenodd">
        <g id="1备份" transform="translate(-423.000000, -437.000000)">
            <g id="编组" transform="translate(32.000000, 102.000000)">
                <g id="暗色" transform="translate(20.000000, 0.000000)">
                    <g id="工作-" filter="url(#filter-2)" transform="translate(371.000000, 335.000000)">
                        <g id="路径">
                            <use fill="black" fill-opacity="1" filter="url(#filter-5)" xlink:href="#path-4"></use>
                            <use fill="url(#linearGradient-3)" fill-rule="evenodd" xlink:href="#path-4"></use>
                        </g>
                        <g id="形状">
                            <use fill="black" fill-opacity="1" filter="url(#filter-8)" xlink:href="#path-7"></use>
                            <use fill="url(#linearGradient-6)" fill-rule="evenodd" xlink:href="#path-7"></use>
                        </g>
                    </g>
                </g>
            </g>
        </g>
    </g>
</svg>