<svg width="24" height="24" viewBox="0 0 24 24" fill="none" xmlns="http://www.w3.org/2000/svg">
<path d="M22.4542 19.32H21.7534C21.7973 18.9419 21.8193 18.5599 21.8193 18.1786C21.8193 12.7746 17.4229 8.37842 12.0191 8.37842C6.61539 8.37842 2.21898 12.7746 2.21898 18.1786C2.21898 18.5597 2.24102 18.9419 2.28508 19.32H1.66352C1.40078 19.32 1.1875 19.5333 1.1875 19.7962C1.1875 20.0592 1.40078 20.2722 1.66352 20.2722H22.4542C22.7172 20.2722 22.9302 20.0592 22.9302 19.7962C22.9302 19.5333 22.7172 19.32 22.4542 19.32Z" fill="#30414D"/>
<path d="M12 9C11.4476 9 11 8.78669 11 8.52391V4.47609C11 4.21308 11.4481 4 12 4C12.5524 4 13 4.21331 13 4.47609V8.52368C13 8.78668 12.5524 9 12 9Z" fill="#30414D"/>
<path d="M13.4147 6H10.5853C10.2619 6 10 5.55194 10 5C10 4.44756 10.2622 4 10.5853 4H13.4147C13.7381 4 14 4.44806 14 5C14.0003 5.55194 13.7381 6 13.4147 6Z" fill="#30414D"/>
</svg>
