<svg width="24" height="24" viewBox="0 0 24 24" fill="none" xmlns="http://www.w3.org/2000/svg">
<path fill-rule="evenodd" clip-rule="evenodd" d="M23.2106 10.5453C21.6622 5.50526 16.9906 2 11.638 2C6.33056 1.99979 1.64151 5.45566 0.0705977 10.5253C-0.0961889 11.0644 0.0372976 11.6515 0.420774 12.0655C0.804251 12.4795 1.37946 12.6574 1.92972 12.5323C2.47998 12.4072 2.92171 11.998 3.08849 11.4589C4.25132 7.71059 7.72014 5.15677 11.6447 5.15967C15.5693 5.16257 19.0344 7.7215 20.1917 11.4716C20.4503 12.3015 21.3312 12.7662 22.1622 12.5112C22.9933 12.2562 23.4619 11.3774 23.2106 10.5453ZM9.22007 12.5474C8.97399 12.4813 8.71594 12.601 8.60744 12.8316V12.8305C8.55633 12.9389 8.5437 13.0614 8.57165 13.1779C9.52218 17.1937 10.278 19.5484 10.8401 20.2432C11.7548 21.3726 13.5948 21.3979 14.9506 20.3C16.3064 19.2032 16.6632 17.3979 15.7485 16.2684C15.2053 15.5968 13.1811 14.4263 9.67691 12.7547L9.30849 12.5811L9.22007 12.5474Z" fill="white"/>
</svg>
