<?xml version="1.0" encoding="UTF-8"?>
<svg width="66px" height="66px" viewBox="0 0 66 66" version="1.1" xmlns="http://www.w3.org/2000/svg" xmlns:xlink="http://www.w3.org/1999/xlink">
    <!-- Generator: Sketch 59.1 (86144) - https://sketch.com -->
    <title>自启动开关</title>
    <desc>Created with Sketch.</desc>
    <g id="页面-1" stroke="none" stroke-width="1" fill="none" fill-rule="evenodd">
        <g id="7" transform="translate(-146.000000, -681.000000)" fill="#576273" fill-rule="nonzero">
            <g id="编组-3" transform="translate(80.000000, 614.000000)">
                <g id="声音">
                    <path d="M126.180804,100 C126.180804,96.1401786 128.604241,92.8696429 132,91.5658482 C131.189732,88.3837054 129.9375,85.3857143 128.302232,82.6308036 C124.972768,84.1113839 120.950893,83.5073661 118.225446,80.7745536 C115.5,78.0491071 114.895982,74.0198661 116.376563,70.6977679 C113.614286,69.0625 110.616295,67.8102679 107.434152,67 C106.122991,70.3957589 102.852455,72.8191964 99,72.8191964 C95.1401786,72.8191964 91.8696429,70.3957589 90.5658482,67 C87.3837054,67.8102679 84.3857143,69.0625 81.6308036,70.6977679 C83.1113839,74.0272321 82.5073661,78.0491071 79.7819196,80.7745536 C77.0564732,83.5 73.0272321,84.1040179 69.7051339,82.6308036 C68.0625,85.3857143 66.8102679,88.3837054 66,91.5658482 C69.3957589,92.8770089 71.8191964,96.1475446 71.8191964,100 C71.8191964,103.859821 69.3957589,107.130357 66,108.434152 C66.8102679,111.616295 68.0625,114.614286 69.6977679,117.369196 C73.0272321,115.888616 77.0491071,116.492634 79.7745536,119.225446 C82.5,121.950893 83.1040179,125.980134 81.6234375,129.302232 C84.3857143,130.9375 87.3837054,132.189732 90.5658482,133 C91.8770089,129.604241 95.1475446,127.180804 99,127.180804 C102.859821,127.180804 106.130357,129.604241 107.434152,133 C110.616295,132.189732 113.614286,130.9375 116.369196,129.302232 C114.888616,125.972768 115.492634,121.950893 118.21808,119.225446 C120.943527,116.5 124.972768,115.895982 128.294866,117.369196 C129.9375,114.614286 131.189732,111.616295 132,108.434152 C128.604241,107.130357 126.180804,103.859821 126.180804,100 Z M99,109 C94.0317073,109 90,104.968293 90,100 C90,95.0317073 94.0317073,91 99,91 C103.968293,91 108,95.0317073 108,100 C108,104.968293 103.968293,109 99,109 Z" id="自启动开关"></path>
                </g>
            </g>
        </g>
    </g>
</svg>