<?xml version="1.0" encoding="UTF-8"?>
<svg width="180px" height="180px" viewBox="0 0 180 180" version="1.1" xmlns="http://www.w3.org/2000/svg" xmlns:xlink="http://www.w3.org/1999/xlink">
    <!-- Generator: Sketch 59.1 (86144) - https://sketch.com -->
    <title>总开关</title>
    <desc>Created with Sketch.</desc>
    <g id="页面-1" stroke="none" stroke-width="1" fill="none" fill-rule="evenodd">
        <g id="2.2" transform="translate(-473.000000, -1337.000000)">
            <g id="编组-3" transform="translate(80.000000, 1277.000000)">
                <g id="总开关" transform="translate(393.000000, 60.000000)">
                    <circle id="椭圆形" fill="#B5ABA1" cx="90" cy="90" r="90"></circle>
                    <path d="M109.343854,72.0413256 L130.560831,106.195485 C133.766577,111.355953 132.181961,118.138109 127.021493,121.343854 C125.278936,122.426351 123.268393,123 121.216978,123 L78.7830223,123 C72.7078901,123 67.7830223,118.075132 67.7830223,112 C67.7830223,109.948584 68.356671,107.938042 69.4391685,106.195485 L90.6561462,72.0413256 C93.8618915,66.8808576 100.644047,65.2962418 105.804515,68.501987 C107.240606,69.3941037 108.451737,70.6052352 109.343854,72.0413256 Z" id="三角形" fill="#FFFFFF" transform="translate(100.000000, 90.000000) scale(1, -1) rotate(-270.000000) translate(-100.000000, -90.000000) "></path>
                </g>
            </g>
        </g>
    </g>
</svg>