<svg width="20" height="20" viewBox="0 0 20 20" fill="none" xmlns="http://www.w3.org/2000/svg">
<path d="M19.2029 18.3911H0.804683C0.591268 18.3911 0.386594 18.4759 0.235686 18.6268C0.0847789 18.7777 0 18.9824 0 19.1958C0 19.4092 0.0847789 19.6139 0.235686 19.7648C0.386594 19.9157 0.591268 20.0005 0.804683 20.0005H19.2029C19.4163 20.0005 19.621 19.9157 19.7719 19.7648C19.9228 19.6139 20.0076 19.4092 20.0076 19.1958C20.0076 18.9824 19.9228 18.7777 19.7719 18.6268C19.621 18.4759 19.4163 18.3911 19.2029 18.3911ZM19.5362 4.51627C19.838 4.21445 20.0076 3.80511 20.0076 3.37828C20.0076 2.95146 19.838 2.54211 19.5362 2.2403L17.7649 0.469043C17.4631 0.167235 17.0538 -0.00231934 16.6269 -0.00231934C16.2001 -0.00231934 15.7908 0.167235 15.489 0.469043L14.9081 1.04994L18.9553 5.09716L19.5362 4.51627ZM6.67078 9.34437C6.60568 9.40997 6.55393 9.48759 6.51841 9.57292L4.24244 14.82C4.17879 14.9533 4.15802 15.103 4.183 15.2486C4.20797 15.3942 4.27747 15.5284 4.3819 15.6329C4.48634 15.7373 4.62058 15.8068 4.76615 15.8318C4.91172 15.8567 5.06145 15.836 5.19473 15.7723L10.4799 13.5344C10.565 13.4985 10.6426 13.4468 10.7085 13.3821L17.6697 6.38275L13.6225 2.34505L6.67078 9.34437Z" fill="#fff"/>
</svg>
