<?xml version="1.0" encoding="UTF-8"?>
<svg width="77px" height="77px" viewBox="0 0 77 77" version="1.1" xmlns="http://www.w3.org/2000/svg" xmlns:xlink="http://www.w3.org/1999/xlink">
    <title>编组 3</title>
    <g id="页面-1" stroke="none" stroke-width="1" fill="none" fill-rule="evenodd">
        <g id="2" transform="translate(-524.000000, -1361.000000)">
            <g id="编组-4" transform="translate(78.000000, 1277.000000)">
                <g id="档位开关" transform="translate(337.000000, 0.000000)">
                    <g id="编组-3" transform="translate(109.000000, 84.000000)">
                        <circle id="椭圆形" fill="#000000" cx="38.5" cy="38.5" r="38.5"></circle>
                        <path d="M46.6171414,17.3492268 C46.8097634,17.5739524 46.8929377,17.8724631 46.8442787,18.1644171 L43.629,37.449 L57.5199484,37.4496336 C58.0722332,37.4496336 58.5199484,37.8973489 58.5199484,38.4496336 C58.5199484,38.7476037 58.3870705,39.0300519 58.1575161,39.220028 L33.466549,59.6539318 C33.0410719,60.0060507 32.4107059,59.9465822 32.0585869,59.5211052 C31.8666016,59.2891229 31.7893729,58.9829791 31.8483471,58.6876891 L35.69,39.449 L22,39.4496336 C21.4477153,39.4496336 21,39.0019184 21,38.4496336 C21,38.1577087 21.1275627,37.8803592 21.3492086,37.690377 L45.2070934,17.2407615 C45.6264192,16.8813394 46.2577192,16.9299009 46.6171414,17.3492268 Z" id="形状结合" fill="#FFFFFF"></path>
                    </g>
                </g>
            </g>
        </g>
    </g>
</svg>