<svg width="24" height="24" viewBox="0 0 24 24" fill="none" xmlns="http://www.w3.org/2000/svg">
<path fill-rule="evenodd" clip-rule="evenodd" d="M22 12C22 17.5228 17.5228 22 12 22C6.47715 22 2 17.5228 2 12C2 6.47715 6.47715 2 12 2C17.5228 2 22 6.47715 22 12ZM14.3 12C14.3 13.8291 13.5761 15.5405 12.3083 16.8083L13.1569 17.6569C14.6046 16.2091 15.5 14.2091 15.5 12C15.5 9.79086 14.6046 7.79086 13.1569 6.34315L12.3083 7.19167C13.5761 8.45947 14.3 10.1709 14.3 12ZM10.3284 14.8284C11.0745 14.0823 11.5 13.0764 11.5 12C11.5 10.9236 11.0745 9.91766 10.3284 9.17157L11.177 8.32304C12.118 9.26406 12.7 10.5641 12.7 12C12.7 13.4359 12.118 14.7359 11.177 15.677L10.3284 14.8284ZM9.9 12C9.9 12.6627 9.63137 13.2627 9.19706 13.6971L7.5 12L9.19706 10.3029C9.63137 10.7373 9.9 11.3373 9.9 12Z" fill="#26313D"/>
</svg>
