<svg width="21" height="23" viewBox="0 0 21 20" fill="none" xmlns="http://www.w3.org/2000/svg">
<path d="M15.5146 1.9027L15.1214 1.59375L14.7749 2.03471L15.2526 2.32857L15.5146 1.9027ZM18.817 5.24061L18.3889 5.49897L18.6815 5.98374L19.1264 5.63342L18.817 5.24061ZM17.3633 1.00001L17.3623 1.50001H17.3633V1.00001ZM16.8547 16.0023L17.209 16.3551L17.2219 16.3421L17.2339 16.3283L16.8547 16.0023ZM15.9237 16.9376L16.2498 17.3166L16.2644 17.304L16.278 17.2903L15.9237 16.9376ZM18.9251 10.3871H18.4251V10.3873L18.9251 10.3871ZM1.82101 10.3871L2.32101 10.3872V10.3871H1.82101ZM3.9039 16.0166L3.52545 16.3434L3.53745 16.3573L3.55044 16.3703L3.9039 16.0166ZM4.83801 16.9503L4.48455 17.3039L4.49816 17.3175L4.51277 17.33L4.83801 16.9503ZM10.3735 19L10.3745 18.5L10.3724 18.5L10.3735 19ZM14.1348 14.0819L13.7542 13.7577L13.7537 13.7583L14.1348 14.0819ZM14.2909 13.5994L14.7894 13.5613L14.2909 13.5994ZM13.2077 14.1549L13.5346 13.7766L13.534 13.7761L13.2077 14.1549ZM9.74657 11.1732L10.0729 10.7944L10.072 10.7935L9.74657 11.1732ZM9.51635 10.6695H9.01635V10.6697L9.51635 10.6695ZM9.51635 7.06583L9.01635 7.06292V7.06583H9.51635ZM9.71072 6.59555L9.35601 6.24316L9.35601 6.24316L9.71072 6.59555ZM10.1743 6.40348L10.1707 6.90352L10.178 6.90347L10.1743 6.40348ZM10.638 6.59555L10.9927 6.24316L10.9927 6.24316L10.638 6.59555ZM10.8323 7.06583H11.3324L11.3323 7.06292L10.8323 7.06583ZM10.8323 10.3641H10.3323V10.5933L10.506 10.7429L10.8323 10.3641ZM14.0632 13.1475L13.7369 13.5263L13.7376 13.5269L14.0632 13.1475ZM1.93768 5.22633V5.72633H3.36269L2.25009 4.83595L1.93768 5.22633ZM1.9369 5.22633L1.5091 4.96751L1.05 5.72633H1.9369V5.22633ZM1.05334 3.37414H0.553345L0.553345 3.37445L1.05334 3.37414ZM5.24868 1.8908L5.50977 2.31722L5.99111 2.0225L5.6405 1.5802L5.24868 1.8908ZM3.41001 1.00001L3.40971 1.50001H3.41001V1.00001ZM1.74401 1.69567L1.38967 1.34291L1.38918 1.3434L1.74401 1.69567ZM15.2526 2.32857C16.5301 3.11448 17.6057 4.20127 18.3889 5.49897L19.2451 4.98225C18.3802 3.54928 17.1912 2.34711 15.7766 1.47683L15.2526 2.32857ZM17.3644 0.500007C16.4897 0.49811 15.6647 0.902519 15.1214 1.59375L15.9077 2.21165C16.2636 1.75882 16.7994 1.49878 17.3623 1.5L17.3644 0.500007ZM20.22 3.37414C20.22 1.79023 18.9441 0.500005 17.3633 0.500005V1.50001C18.385 1.50001 19.22 2.33563 19.22 3.37414H20.22ZM19.1264 5.63342C19.8176 5.0891 20.22 4.25625 20.22 3.37414H19.22C19.22 3.95157 18.9567 4.49418 18.5077 4.84779L19.1264 5.63342ZM16.5003 15.6496L15.5693 16.5848L16.278 17.2903L17.209 16.3551L16.5003 15.6496ZM18.4251 10.3873C18.4258 12.3347 17.7321 14.2145 16.4755 15.6764L17.2339 16.3283C18.6479 14.6831 19.4259 12.5714 19.4251 10.3869L18.4251 10.3873ZM10.3727 2.2734C14.8166 2.2734 18.4251 5.90208 18.4251 10.3871H19.4251C19.4251 5.3565 15.3756 1.2734 10.3727 1.2734V2.2734ZM2.32101 10.3871C2.32101 5.90282 5.92955 2.2734 10.3727 2.2734V1.2734C5.37047 1.2734 1.32101 5.35735 1.32101 10.3871H2.32101ZM4.28235 15.6899C3.01851 14.2262 2.32034 12.3409 2.32101 10.3872L1.32101 10.3869C1.32026 12.5783 2.10326 14.6963 3.52545 16.3434L4.28235 15.6899ZM5.19147 16.5966L4.25736 15.663L3.55044 16.3703L4.48455 17.3039L5.19147 16.5966ZM10.3724 18.5C8.46871 18.5038 6.62353 17.8212 5.16326 16.5705L4.51277 17.33C6.15312 18.7349 8.22929 19.5043 10.3745 19.5L10.3724 18.5ZM15.5976 16.5586C14.1353 17.8167 12.2845 18.5039 10.3745 18.5L10.3724 19.5C12.5247 19.5044 14.6072 18.7299 16.2498 17.3166L15.5976 16.5586ZM14.5154 14.4062C14.7151 14.1717 14.8129 13.8673 14.7894 13.5613L13.7923 13.6376C13.7958 13.6829 13.7811 13.7261 13.7542 13.7577L14.5154 14.4062ZM12.8808 14.5332C13.3685 14.9547 14.0998 14.8956 14.5159 14.4056L13.7537 13.7583C13.6954 13.8269 13.5997 13.8329 13.5346 13.7766L12.8808 14.5332ZM9.42022 11.552L12.8813 14.5337L13.534 13.7761L10.0729 10.7944L9.42022 11.552ZM9.01635 10.6697C9.01651 11.008 9.16309 11.3316 9.42118 11.5528L10.072 10.7935C10.0383 10.7647 10.0164 10.7196 10.0163 10.6692L9.01635 10.6697ZM9.01635 7.06583V10.6695H10.0163V7.06583H9.01635ZM9.35601 6.24316C9.13922 6.46139 9.01813 6.75649 9.01635 7.06292L10.0163 7.06873C10.0166 7.02145 10.0354 6.97819 10.0654 6.94794L9.35601 6.24316ZM10.178 5.9035C9.86866 5.90124 9.57313 6.02461 9.35601 6.24316L10.0654 6.94794C10.0952 6.91802 10.1332 6.90319 10.1707 6.90347L10.178 5.9035ZM10.9927 6.24316C10.7756 6.02461 10.48 5.90124 10.1707 5.9035L10.178 6.90347C10.2155 6.90319 10.2535 6.91802 10.2833 6.94794L10.9927 6.24316ZM11.3323 7.06292C11.3306 6.75649 11.2095 6.46139 10.9927 6.24316L10.2833 6.94794C10.3133 6.97819 10.3321 7.02145 10.3324 7.06873L11.3323 7.06292ZM11.3323 10.3641V7.06583H10.3323V10.3641H11.3323ZM14.3896 12.7687L11.1587 9.98526L10.506 10.7429L13.7369 13.5263L14.3896 12.7687ZM14.7894 13.5613C14.766 13.2551 14.6229 12.969 14.3889 12.7681L13.7376 13.5269C13.7679 13.553 13.7889 13.5924 13.7923 13.6376L14.7894 13.5613ZM2.25009 4.83595C2.25009 4.83595 2.25009 4.83595 2.25009 4.83595C2.25009 4.83595 2.25009 4.83595 2.25009 4.83595C2.25009 4.83595 2.25009 4.83595 2.25009 4.83595C2.25009 4.83594 2.25009 4.83594 2.25009 4.83594C2.25009 4.83594 2.25009 4.83594 2.25009 4.83594C2.25009 4.83594 2.25008 4.83594 2.25008 4.83594C2.25008 4.83594 2.25008 4.83594 2.25008 4.83594C2.25008 4.83594 2.25008 4.83594 2.25008 4.83594C2.25008 4.83594 2.25008 4.83594 2.25008 4.83594C2.25008 4.83594 2.25008 4.83594 2.25008 4.83594C2.25008 4.83594 2.25008 4.83594 2.25008 4.83594C2.25008 4.83594 2.25008 4.83594 2.25008 4.83594C2.25008 4.83594 2.25008 4.83594 2.25008 4.83594C2.25008 4.83594 2.25008 4.83594 2.25008 4.83594C2.25008 4.83594 2.25008 4.83594 2.25008 4.83594C2.25007 4.83594 2.25007 4.83593 2.25007 4.83593C2.25007 4.83593 2.25007 4.83593 2.25007 4.83593C2.25007 4.83593 2.25007 4.83593 2.25007 4.83593C2.25007 4.83593 2.25007 4.83593 2.25007 4.83593C2.25007 4.83593 2.25007 4.83593 2.25007 4.83593C2.25007 4.83593 2.25007 4.83593 2.25007 4.83593C2.25007 4.83593 2.25007 4.83593 2.25007 4.83593C2.25007 4.83593 2.25007 4.83593 2.25007 4.83593C2.25007 4.83593 2.25007 4.83593 2.25007 4.83593C2.25007 4.83593 2.25007 4.83593 2.25006 4.83593C2.25006 4.83593 2.25006 4.83593 2.25006 4.83593C2.25006 4.83593 2.25006 4.83593 2.25006 4.83593C2.25006 4.83593 2.25006 4.83593 2.25006 4.83592C2.25006 4.83592 2.25006 4.83592 2.25006 4.83592C2.25006 4.83592 2.25006 4.83592 2.25006 4.83592C2.25006 4.83592 2.25006 4.83592 2.25006 4.83592C2.25006 4.83592 2.25006 4.83592 2.25006 4.83592C2.25006 4.83592 2.25006 4.83592 2.25006 4.83592C2.25006 4.83592 2.25006 4.83592 2.25006 4.83592C2.25006 4.83592 2.25006 4.83592 2.25005 4.83592C2.25005 4.83592 2.25005 4.83592 2.25005 4.83592C2.25005 4.83592 2.25005 4.83592 2.25005 4.83592C2.25005 4.83592 2.25005 4.83592 2.25005 4.83592C2.25005 4.83592 2.25005 4.83592 2.25005 4.83592C2.25005 4.83592 2.25005 4.83592 2.25005 4.83592C2.25005 4.83591 2.25005 4.83591 2.25005 4.83591C2.25005 4.83591 2.25005 4.83591 2.25005 4.83591C2.25005 4.83591 2.25005 4.83591 2.25005 4.83591C2.25005 4.83591 2.25005 4.83591 2.25005 4.83591C2.25005 4.83591 2.25004 4.83591 2.25004 4.83591C2.25004 4.83591 2.25004 4.83591 2.25004 4.83591C2.25004 4.83591 2.25004 4.83591 2.25004 4.83591C2.25004 4.83591 2.25004 4.83591 2.25004 4.83591C2.25004 4.83591 2.25004 4.83591 2.25004 4.83591C2.25004 4.83591 2.25004 4.83591 2.25004 4.83591C2.25004 4.83591 2.25004 4.83591 2.25004 4.83591C2.25004 4.83591 2.25004 4.83591 2.25004 4.83591C2.25004 4.8359 2.25004 4.8359 2.25004 4.8359C2.25004 4.8359 2.25004 4.8359 2.25004 4.8359C2.25004 4.8359 2.25003 4.8359 2.25003 4.8359C2.25003 4.8359 2.25003 4.8359 2.25003 4.8359C2.25003 4.8359 2.25003 4.8359 2.25003 4.8359C2.25003 4.8359 2.25003 4.8359 2.25003 4.8359C2.25003 4.8359 2.25003 4.8359 2.25003 4.8359C2.25003 4.8359 2.25003 4.8359 2.25003 4.8359C2.25003 4.8359 2.25003 4.8359 2.25003 4.8359C2.25003 4.8359 2.25003 4.8359 2.25003 4.8359C2.25003 4.8359 2.25003 4.8359 2.25003 4.8359C2.25003 4.8359 2.25003 4.8359 2.25003 4.8359C2.25002 4.8359 2.25002 4.83589 2.25002 4.83589C2.25002 4.83589 2.25002 4.83589 2.25002 4.83589C2.25002 4.83589 2.25002 4.83589 2.25002 4.83589C2.25002 4.83589 2.25002 4.83589 2.25002 4.83589C2.25002 4.83589 2.25002 4.83589 2.25002 4.83589C2.25002 4.83589 2.25002 4.83589 2.25002 4.83589C2.25002 4.83589 2.25002 4.83589 2.25002 4.83589C2.25002 4.83589 2.25002 4.83589 2.25002 4.83589C2.25002 4.83589 2.25002 4.83589 2.25002 4.83589C2.25002 4.83589 2.25002 4.83589 2.25001 4.83589C2.25001 4.83589 2.25001 4.83589 2.25001 4.83589C2.25001 4.83589 2.25001 4.83589 2.25001 4.83589C2.25001 4.83589 2.25001 4.83589 2.25001 4.83588C2.25001 4.83588 2.25001 4.83588 2.25001 4.83588C2.25001 4.83588 2.25001 4.83588 2.25001 4.83588C2.25001 4.83588 2.25001 4.83588 2.25001 4.83588C2.25001 4.83588 2.25001 4.83588 2.25001 4.83588C2.25001 4.83588 2.25001 4.83588 2.25001 4.83588C2.25001 4.83588 2.25001 4.83588 2.25001 4.83588C2.25001 4.83588 2.25001 4.83588 2.25 4.83588C2.25 4.83588 2.25 4.83588 2.25 4.83588C2.25 4.83588 2.25 4.83588 2.25 4.83588C2.25 4.83588 2.25 4.83588 2.25 4.83588C2.25 4.83588 2.25 4.83588 2.25 4.83588C2.25 4.83588 2.25 4.83588 2.25 4.83587C2.25 4.83587 2.25 4.83587 2.25 4.83587C2.25 4.83587 2.25 4.83587 2.25 4.83587C2.25 4.83587 2.25 4.83587 2.25 4.83587C2.25 4.83587 2.25 4.83587 2.25 4.83587C2.25 4.83587 2.24999 4.83587 2.24999 4.83587C2.24999 4.83587 2.24999 4.83587 2.24999 4.83587C2.24999 4.83587 2.24999 4.83587 2.24999 4.83587C2.24999 4.83587 2.24999 4.83587 2.24999 4.83587C2.24999 4.83587 2.24999 4.83587 2.24999 4.83587C2.24999 4.83587 2.24999 4.83587 2.24999 4.83587C2.24999 4.83587 2.24999 4.83587 2.24999 4.83587C2.24999 4.83587 2.24999 4.83587 2.24999 4.83587C2.24999 4.83586 2.24999 4.83586 2.24999 4.83586C2.24999 4.83586 2.24999 4.83586 2.24999 4.83586C2.24998 4.83586 2.24998 4.83586 2.24998 4.83586C2.24998 4.83586 2.24998 4.83586 2.24998 4.83586C2.24998 4.83586 2.24998 4.83586 2.24998 4.83586C2.24998 4.83586 2.24998 4.83586 2.24998 4.83586C2.24998 4.83586 2.24998 4.83586 2.24998 4.83586C2.24998 4.83586 2.24998 4.83586 2.24998 4.83586C2.24998 4.83586 2.24998 4.83586 2.24998 4.83586C2.24998 4.83586 2.24998 4.83586 2.24998 4.83586C2.24998 4.83586 2.24998 4.83586 2.24998 4.83586C2.24998 4.83586 2.24998 4.83586 2.24997 4.83586C2.24997 4.83586 2.24997 4.83585 2.24997 4.83585C2.24997 4.83585 2.24997 4.83585 2.24997 4.83585C2.24997 4.83585 2.24997 4.83585 2.24997 4.83585C2.24997 4.83585 2.24997 4.83585 2.24997 4.83585C2.24997 4.83585 2.24997 4.83585 2.24997 4.83585C2.24997 4.83585 2.24997 4.83585 2.24997 4.83585C2.24997 4.83585 2.24997 4.83585 2.24997 4.83585C2.24997 4.83585 2.24997 4.83585 2.24997 4.83585C2.24997 4.83585 2.24997 4.83585 2.24997 4.83585C2.24997 4.83585 2.24997 4.83585 2.24996 4.83585C2.24996 4.83585 2.24996 4.83585 2.24996 4.83585C2.24996 4.83585 2.24996 4.83585 2.24996 4.83585C2.24996 4.83585 2.24996 4.83584 2.24996 4.83584C2.24996 4.83584 2.24996 4.83584 2.24996 4.83584C2.24996 4.83584 2.24996 4.83584 2.24996 4.83584C2.24996 4.83584 2.24996 4.83584 2.24996 4.83584C2.24996 4.83584 2.24996 4.83584 2.24996 4.83584C2.24996 4.83584 2.24996 4.83584 2.24996 4.83584C2.24996 4.83584 2.24996 4.83584 2.24996 4.83584C2.24996 4.83584 2.24995 4.83584 2.24995 4.83584C2.24995 4.83584 2.24995 4.83584 2.24995 4.83584C2.24995 4.83584 2.24995 4.83584 2.24995 4.83584C2.24995 4.83584 2.24995 4.83584 2.24995 4.83584C2.24995 4.83584 2.24995 4.83584 2.24995 4.83584C2.24995 4.83584 2.24995 4.83583 2.24995 4.83583C2.24995 4.83583 2.24995 4.83583 2.24995 4.83583C2.24995 4.83583 2.24995 4.83583 2.24995 4.83583C2.24995 4.83583 2.24995 4.83583 2.24995 4.83583C2.24995 4.83583 2.24995 4.83583 2.24995 4.83583C2.24994 4.83583 2.24994 4.83583 2.24994 4.83583C2.24994 4.83583 2.24994 4.83583 2.24994 4.83583C2.24994 4.83583 2.24994 4.83583 2.24994 4.83583C2.24994 4.83583 2.24994 4.83583 2.24994 4.83583C2.24994 4.83583 2.24994 4.83583 2.24994 4.83583C2.24994 4.83583 2.24994 4.83583 2.24994 4.83583C2.24994 4.83583 2.24994 4.83583 2.24994 4.83583C2.24994 4.83583 2.24994 4.83583 2.24994 4.83582C2.24994 4.83582 2.24994 4.83582 2.24994 4.83582C2.24994 4.83582 2.24994 4.83582 2.24994 4.83582C2.24993 4.83582 2.24993 4.83582 2.24993 4.83582C2.24993 4.83582 2.24993 4.83582 2.24993 4.83582C2.24993 4.83582 2.24993 4.83582 2.24993 4.83582C2.24993 4.83582 2.24993 4.83582 2.24993 4.83582C2.24993 4.83582 2.24993 4.83582 2.24993 4.83582C2.24993 4.83582 2.24993 4.83582 2.24993 4.83582C2.24993 4.83582 2.24993 4.83582 2.24993 4.83582C2.24993 4.83582 2.24993 4.83582 2.24993 4.83582C2.24993 4.83582 2.24993 4.83582 2.24993 4.83582C2.24993 4.83582 2.24993 4.83582 2.24992 4.83582C2.24992 4.83581 2.24992 4.83581 2.24992 4.83581C2.24992 4.83581 2.24992 4.83581 2.24992 4.83581C2.24992 4.83581 2.24992 4.83581 2.24992 4.83581C2.24992 4.83581 2.24992 4.83581 2.24992 4.83581C2.24992 4.83581 2.24992 4.83581 2.24992 4.83581C2.24992 4.83581 2.24992 4.83581 2.24992 4.83581C2.24992 4.83581 2.24992 4.83581 2.24992 4.83581C2.24992 4.83581 2.24992 4.83581 2.24992 4.83581C2.24992 4.83581 2.24992 4.83581 2.24992 4.83581C2.24992 4.83581 2.24992 4.83581 2.24991 4.83581C2.24991 4.83581 2.24991 4.83581 2.24991 4.83581C2.24991 4.83581 2.24991 4.83581 2.24991 4.83581C2.24991 4.8358 2.24991 4.8358 2.24991 4.8358C2.24991 4.8358 2.24991 4.8358 2.24991 4.8358C2.24991 4.8358 2.24991 4.8358 2.24991 4.8358C2.24991 4.8358 2.24991 4.8358 2.24991 4.8358C2.24991 4.8358 2.24991 4.8358 2.24991 4.8358C2.24991 4.8358 2.24991 4.8358 2.24991 4.8358C2.24991 4.8358 2.24991 4.8358 2.24991 4.8358C2.24991 4.8358 2.2499 4.8358 2.2499 4.8358C2.2499 4.8358 2.2499 4.8358 2.2499 4.8358C2.2499 4.8358 2.2499 4.8358 2.2499 4.8358C2.2499 4.8358 2.2499 4.8358 2.2499 4.8358C2.2499 4.8358 2.2499 4.8358 2.2499 4.8358C2.2499 4.8358 2.2499 4.83579 2.2499 4.83579C2.2499 4.83579 2.2499 4.83579 2.2499 4.83579C2.2499 4.83579 2.2499 4.83579 2.2499 4.83579C2.2499 4.83579 2.2499 4.83579 2.2499 4.83579C2.2499 4.83579 2.2499 4.83579 2.2499 4.83579C2.24989 4.83579 2.24989 4.83579 2.24989 4.83579C2.24989 4.83579 2.24989 4.83579 2.24989 4.83579C2.24989 4.83579 2.24989 4.83579 2.24989 4.83579C2.24989 4.83579 2.24989 4.83579 2.24989 4.83579C2.24989 4.83579 2.24989 4.83579 2.24989 4.83579C2.24989 4.83579 2.24989 4.83579 2.24989 4.83579C2.24989 4.83579 2.24989 4.83579 2.24989 4.83579C2.24989 4.83579 2.24989 4.83579 2.24989 4.83578C2.24989 4.83578 2.24989 4.83578 2.24989 4.83578C2.24989 4.83578 2.24989 4.83578 2.24988 4.83578C2.24988 4.83578 2.24988 4.83578 2.24988 4.83578C2.24988 4.83578 2.24988 4.83578 2.24988 4.83578C2.24988 4.83578 2.24988 4.83578 2.24988 4.83578C2.24988 4.83578 2.24988 4.83578 2.24988 4.83578C2.24988 4.83578 2.24988 4.83578 2.24988 4.83578C2.24988 4.83578 2.24988 4.83578 2.24988 4.83578C2.24988 4.83578 2.24988 4.83578 2.24988 4.83578C2.24988 4.83578 2.24988 4.83578 2.24988 4.83578C2.24988 4.83578 2.24988 4.83578 2.24988 4.83578C2.24988 4.83578 2.24988 4.83578 2.24987 4.83577C2.24987 4.83577 2.24987 4.83577 2.24987 4.83577C2.24987 4.83577 2.24987 4.83577 2.24987 4.83577C2.24987 4.83577 2.24987 4.83577 2.24987 4.83577C2.24987 4.83577 2.24987 4.83577 2.24987 4.83577C2.24987 4.83577 2.24987 4.83577 2.24987 4.83577C2.24987 4.83577 2.24987 4.83577 2.24987 4.83577C2.24987 4.83577 2.24987 4.83577 2.24987 4.83577C2.24987 4.83577 2.24987 4.83577 2.24987 4.83577C2.24987 4.83577 2.24987 4.83577 2.24987 4.83577C2.24987 4.83577 2.24986 4.83577 2.24986 4.83577C2.24986 4.83577 2.24986 4.83577 2.24986 4.83577C2.24986 4.83577 2.24986 4.83577 2.24986 4.83577C2.24986 4.83576 2.24986 4.83576 2.24986 4.83576C2.24986 4.83576 2.24986 4.83576 2.24986 4.83576C2.24986 4.83576 2.24986 4.83576 2.24986 4.83576C2.24986 4.83576 2.24986 4.83576 2.24986 4.83576C2.24986 4.83576 2.24986 4.83576 2.24986 4.83576C2.24986 4.83576 2.24986 4.83576 2.24986 4.83576C2.24986 4.83576 2.24986 4.83576 2.24986 4.83576C2.24985 4.83576 2.24985 4.83576 2.24985 4.83576C2.24985 4.83576 2.24985 4.83576 2.24985 4.83576C2.24985 4.83576 2.24985 4.83576 2.24985 4.83576C2.24985 4.83576 2.24985 4.83576 2.24985 4.83576C2.24985 4.83576 2.24985 4.83576 2.24985 4.83576C2.24985 4.83576 2.24985 4.83575 2.24985 4.83575C2.24985 4.83575 2.24985 4.83575 2.24985 4.83575C2.24985 4.83575 2.24985 4.83575 2.24985 4.83575C2.24985 4.83575 2.24985 4.83575 2.24985 4.83575C2.24985 4.83575 2.24985 4.83575 2.24985 4.83575C2.24984 4.83575 2.24984 4.83575 2.24984 4.83575C2.24984 4.83575 2.24984 4.83575 2.24984 4.83575C2.24984 4.83575 2.24984 4.83575 2.24984 4.83575C2.24984 4.83575 2.24984 4.83575 2.24984 4.83575C2.24984 4.83575 2.24984 4.83575 2.24984 4.83575C2.24984 4.83575 2.24984 4.83575 2.24984 4.83575C2.24984 4.83575 2.24984 4.83575 2.24984 4.83575C2.24984 4.83575 2.24984 4.83574 2.24984 4.83574C2.24984 4.83574 2.24984 4.83574 2.24984 4.83574C2.24984 4.83574 2.24984 4.83574 2.24983 4.83574C2.24983 4.83574 2.24983 4.83574 2.24983 4.83574C2.24983 4.83574 2.24983 4.83574 2.24983 4.83574C2.24983 4.83574 2.24983 4.83574 2.24983 4.83574C2.24983 4.83574 2.24983 4.83574 2.24983 4.83574C2.24983 4.83574 2.24983 4.83574 2.24983 4.83574C2.24983 4.83574 2.24983 4.83574 2.24983 4.83574C2.24983 4.83574 2.24983 4.83574 2.24983 4.83574C2.24983 4.83574 2.24983 4.83574 2.24983 4.83574C2.24983 4.83574 2.24983 4.83574 2.24983 4.83574C2.24983 4.83574 2.24983 4.83574 2.24982 4.83573C2.24982 4.83573 2.24982 4.83573 2.24982 4.83573C2.24982 4.83573 2.24982 4.83573 2.24982 4.83573C2.24982 4.83573 2.24982 4.83573 2.24982 4.83573C2.24982 4.83573 2.24982 4.83573 2.24982 4.83573C2.24982 4.83573 2.24982 4.83573 2.24982 4.83573C2.24982 4.83573 2.24982 4.83573 2.24982 4.83573C2.24982 4.83573 2.24982 4.83573 2.24982 4.83573C2.24982 4.83573 2.24982 4.83573 2.24982 4.83573C2.24982 4.83573 2.24982 4.83573 2.24982 4.83573C2.24982 4.83573 2.24981 4.83573 2.24981 4.83573C2.24981 4.83573 2.24981 4.83573 2.24981 4.83573C2.24981 4.83573 2.24981 4.83573 2.24981 4.83573C2.24981 4.83572 2.24981 4.83572 2.24981 4.83572C2.24981 4.83572 2.24981 4.83572 2.24981 4.83572C2.24981 4.83572 2.24981 4.83572 2.24981 4.83572C2.24981 4.83572 2.24981 4.83572 2.24981 4.83572C2.24981 4.83572 2.24981 4.83572 2.24981 4.83572C2.24981 4.83572 2.24981 4.83572 2.24981 4.83572C2.24981 4.83572 2.24981 4.83572 2.24981 4.83572C2.2498 4.83572 2.2498 4.83572 2.2498 4.83572C2.2498 4.83572 2.2498 4.83572 2.2498 4.83572C2.2498 4.83572 2.2498 4.83572 2.2498 4.83572C2.2498 4.83572 2.2498 4.83572 2.2498 4.83572C2.2498 4.83572 2.2498 4.83572 2.2498 4.83572C2.2498 4.83572 2.2498 4.83571 2.2498 4.83571C2.2498 4.83571 2.2498 4.83571 2.2498 4.83571C2.2498 4.83571 2.2498 4.83571 2.2498 4.83571C2.2498 4.83571 2.2498 4.83571 2.2498 4.83571C2.2498 4.83571 2.2498 4.83571 2.24979 4.83571C2.24979 4.83571 2.24979 4.83571 2.24979 4.83571C2.24979 4.83571 2.24979 4.83571 2.24979 4.83571C2.24979 4.83571 2.24979 4.83571 2.24979 4.83571C2.24979 4.83571 2.24979 4.83571 2.24979 4.83571C2.24979 4.83571 2.24979 4.83571 2.24979 4.83571C2.24979 4.83571 2.24979 4.83571 2.24979 4.83571C2.24979 4.83571 2.24979 4.83571 2.24979 4.83571C2.24979 4.83571 2.24979 4.8357 2.24979 4.8357C2.24979 4.8357 2.24979 4.8357 2.24979 4.8357C2.24979 4.8357 2.24979 4.8357 2.24978 4.8357C2.24978 4.8357 2.24978 4.8357 2.24978 4.8357C2.24978 4.8357 2.24978 4.8357 2.24978 4.8357C2.24978 4.8357 2.24978 4.8357 2.24978 4.8357C2.24978 4.8357 2.24978 4.8357 2.24978 4.8357C2.24978 4.8357 2.24978 4.8357 2.24978 4.8357C2.24978 4.8357 2.24978 4.8357 2.24978 4.8357C2.24978 4.8357 2.24978 4.8357 2.24978 4.8357C2.24978 4.8357 2.24978 4.8357 2.24978 4.8357C2.24978 4.8357 2.24978 4.8357 2.24978 4.8357C2.24978 4.8357 2.24977 4.8357 2.24977 4.83569C2.24977 4.83569 2.24977 4.83569 2.24977 4.83569C2.24977 4.83569 2.24977 4.83569 2.24977 4.83569C2.24977 4.83569 2.24977 4.83569 2.24977 4.83569C2.24977 4.83569 2.24977 4.83569 2.24977 4.83569C2.24977 4.83569 2.24977 4.83569 2.24977 4.83569C2.24977 4.83569 2.24977 4.83569 2.24977 4.83569C2.24977 4.83569 2.24977 4.83569 2.24977 4.83569C2.24977 4.83569 2.24977 4.83569 2.24977 4.83569C2.24977 4.83569 2.24977 4.83569 2.24977 4.83569C2.24976 4.83569 2.24976 4.83569 2.24976 4.83569C2.24976 4.83569 2.24976 4.83569 2.24976 4.83569C2.24976 4.83569 2.24976 4.83569 2.24976 4.83569C2.24976 4.83568 2.24976 4.83568 2.24976 4.83568C2.24976 4.83568 2.24976 4.83568 2.24976 4.83568C2.24976 4.83568 2.24976 4.83568 2.24976 4.83568C2.24976 4.83568 2.24976 4.83568 2.24976 4.83568C2.24976 4.83568 2.24976 4.83568 2.24976 4.83568C2.24976 4.83568 2.24976 4.83568 2.24976 4.83568C2.24976 4.83568 2.24976 4.83568 2.24976 4.83568C2.24975 4.83568 2.24975 4.83568 2.24975 4.83568C2.24975 4.83568 2.24975 4.83568 2.24975 4.83568C2.24975 4.83568 2.24975 4.83568 2.24975 4.83568C2.24975 4.83568 2.24975 4.83568 2.24975 4.83568C2.24975 4.83568 2.24975 4.83568 2.24975 4.83568C2.24975 4.83567 2.24975 4.83567 2.24975 4.83567C2.24975 4.83567 2.24975 4.83567 2.24975 4.83567C2.24975 4.83567 2.24975 4.83567 2.24975 4.83567C2.24975 4.83567 2.24975 4.83567 2.24975 4.83567C2.24975 4.83567 2.24975 4.83567 2.24974 4.83567C2.24974 4.83567 2.24974 4.83567 2.24974 4.83567C2.24974 4.83567 2.24974 4.83567 2.24974 4.83567C2.24974 4.83567 2.24974 4.83567 2.24974 4.83567C2.24974 4.83567 2.24974 4.83567 2.24974 4.83567C2.24974 4.83567 2.24974 4.83567 2.24974 4.83567C2.24974 4.83567 2.24974 4.83567 2.24974 4.83567C2.24974 4.83567 2.24974 4.83567 2.24974 4.83567C2.24974 4.83566 2.24974 4.83566 2.24974 4.83566C2.24974 4.83566 2.24974 4.83566 2.24974 4.83566C2.24974 4.83566 2.24973 4.83566 2.24973 4.83566C2.24973 4.83566 2.24973 4.83566 2.24973 4.83566C2.24973 4.83566 2.24973 4.83566 2.24973 4.83566C2.24973 4.83566 2.24973 4.83566 2.24973 4.83566C2.24973 4.83566 2.24973 4.83566 2.24973 4.83566C2.24973 4.83566 2.24973 4.83566 2.24973 4.83566C2.24973 4.83566 2.24973 4.83566 2.24973 4.83566C2.24973 4.83566 2.24973 4.83566 2.24973 4.83566C2.24973 4.83566 2.24973 4.83566 2.24973 4.83566C2.24973 4.83566 2.24973 4.83566 2.24973 4.83566C2.24972 4.83566 2.24972 4.83565 2.24972 4.83565C2.24972 4.83565 2.24972 4.83565 2.24972 4.83565C2.24972 4.83565 2.24972 4.83565 2.24972 4.83565C2.24972 4.83565 2.24972 4.83565 2.24972 4.83565C2.24972 4.83565 2.24972 4.83565 2.24972 4.83565C2.24972 4.83565 2.24972 4.83565 2.24972 4.83565C2.24972 4.83565 2.24972 4.83565 2.24972 4.83565C2.24972 4.83565 2.24972 4.83565 2.24972 4.83565C2.24972 4.83565 2.24972 4.83565 2.24972 4.83565C2.24972 4.83565 2.24972 4.83565 2.24972 4.83565C2.24971 4.83565 2.24971 4.83565 2.24971 4.83565C2.24971 4.83565 2.24971 4.83565 2.24971 4.83565C2.24971 4.83565 2.24971 4.83565 2.24971 4.83564C2.24971 4.83564 2.24971 4.83564 2.24971 4.83564C2.24971 4.83564 2.24971 4.83564 2.24971 4.83564C2.24971 4.83564 2.24971 4.83564 2.24971 4.83564C2.24971 4.83564 2.24971 4.83564 2.24971 4.83564C2.24971 4.83564 2.24971 4.83564 2.24971 4.83564C2.24971 4.83564 2.24971 4.83564 2.24971 4.83564C2.24971 4.83564 2.24971 4.83564 2.2497 4.83564C2.2497 4.83564 2.2497 4.83564 2.2497 4.83564C2.2497 4.83564 2.2497 4.83564 2.2497 4.83564C2.2497 4.83564 2.2497 4.83564 2.2497 4.83564C2.2497 4.83564 2.2497 4.83564 2.2497 4.83564C2.2497 4.83564 2.2497 4.83564 2.2497 4.83563C2.2497 4.83563 2.2497 4.83563 2.2497 4.83563C2.2497 4.83563 2.2497 4.83563 2.2497 4.83563C2.2497 4.83563 2.2497 4.83563 2.2497 4.83563C2.2497 4.83563 2.2497 4.83563 2.2497 4.83563C2.2497 4.83563 2.2497 4.83563 2.24969 4.83563C2.24969 4.83563 2.24969 4.83563 2.24969 4.83563C2.24969 4.83563 2.24969 4.83563 2.24969 4.83563C2.24969 4.83563 2.24969 4.83563 2.24969 4.83563C2.24969 4.83563 2.24969 4.83563 2.24969 4.83563C2.24969 4.83563 2.24969 4.83563 2.24969 4.83563C2.24969 4.83563 2.24969 4.83563 2.24969 4.83563C2.24969 4.83563 2.24969 4.83563 2.24969 4.83563C2.24969 4.83562 2.24969 4.83562 2.24969 4.83562C2.24969 4.83562 2.24969 4.83562 2.24969 4.83562C2.24969 4.83562 2.24968 4.83562 2.24968 4.83562C2.24968 4.83562 2.24968 4.83562 2.24968 4.83562C2.24968 4.83562 2.24968 4.83562 2.24968 4.83562C2.24968 4.83562 2.24968 4.83562 2.24968 4.83562C2.24968 4.83562 2.24968 4.83562 2.24968 4.83562C2.24968 4.83562 2.24968 4.83562 2.24968 4.83562C2.24968 4.83562 2.24968 4.83562 2.24968 4.83562C2.24968 4.83562 2.24968 4.83562 2.24968 4.83562C2.24968 4.83562 2.24968 4.83562 2.24968 4.83562C2.24968 4.83562 2.24968 4.83562 2.24968 4.83562C2.24967 4.83562 2.24967 4.83561 2.24967 4.83561C2.24967 4.83561 2.24967 4.83561 2.24967 4.83561C2.24967 4.83561 2.24967 4.83561 2.24967 4.83561C2.24967 4.83561 2.24967 4.83561 2.24967 4.83561C2.24967 4.83561 2.24967 4.83561 2.24967 4.83561C2.24967 4.83561 2.24967 4.83561 2.24967 4.83561C2.24967 4.83561 2.24967 4.83561 2.24967 4.83561C2.24967 4.83561 2.24967 4.83561 2.24967 4.83561C2.24967 4.83561 2.24967 4.83561 2.24967 4.83561C2.24967 4.83561 2.24967 4.83561 2.24967 4.83561C2.24966 4.83561 2.24966 4.83561 2.24966 4.83561C2.24966 4.83561 2.24966 4.83561 2.24966 4.83561C2.24966 4.83561 2.24966 4.8356 2.24966 4.8356C2.24966 4.8356 2.24966 4.8356 2.24966 4.8356C2.24966 4.8356 2.24966 4.8356 2.24966 4.8356C2.24966 4.8356 2.24966 4.8356 2.24966 4.8356C2.24966 4.8356 2.24966 4.8356 2.24966 4.8356C2.24966 4.8356 2.24966 4.8356 2.24966 4.8356C2.24966 4.8356 2.24966 4.8356 2.24966 4.8356C2.24966 4.8356 2.24966 4.8356 2.24965 4.8356C2.24965 4.8356 2.24965 4.8356 2.24965 4.8356C2.24965 4.8356 2.24965 4.8356 2.24965 4.8356C2.24965 4.8356 2.24965 4.8356 2.24965 4.8356C2.24965 4.8356 2.24965 4.8356 2.24965 4.8356C2.24965 4.8356 2.24965 4.8356 2.24965 4.83559C2.24965 4.83559 2.24965 4.83559 2.24965 4.83559C2.24965 4.83559 2.24965 4.83559 2.24965 4.83559C2.24965 4.83559 2.24965 4.83559 2.24965 4.83559C2.24965 4.83559 2.24965 4.83559 2.24965 4.83559C2.24965 4.83559 2.24964 4.83559 2.24964 4.83559C2.24964 4.83559 2.24964 4.83559 2.24964 4.83559C2.24964 4.83559 2.24964 4.83559 2.24964 4.83559C2.24964 4.83559 2.24964 4.83559 2.24964 4.83559C2.24964 4.83559 2.24964 4.83559 2.24964 4.83559C2.24964 4.83559 2.24964 4.83559 2.24964 4.83559C2.24964 4.83559 2.24964 4.83559 2.24964 4.83559C2.24964 4.83559 2.24964 4.83559 2.24964 4.83559C2.24964 4.83558 2.24964 4.83558 2.24964 4.83558C2.24964 4.83558 2.24964 4.83558 2.24964 4.83558C2.24963 4.83558 2.24963 4.83558 2.24963 4.83558C2.24963 4.83558 2.24963 4.83558 2.24963 4.83558C2.24963 4.83558 2.24963 4.83558 2.24963 4.83558C2.24963 4.83558 2.24963 4.83558 2.24963 4.83558C2.24963 4.83558 2.24963 4.83558 2.24963 4.83558C2.24963 4.83558 2.24963 4.83558 2.24963 4.83558C2.24963 4.83558 2.24963 4.83558 2.24963 4.83558C2.24963 4.83558 2.24963 4.83558 2.24963 4.83558C2.24963 4.83558 2.24963 4.83558 2.24963 4.83558C2.24963 4.83558 2.24963 4.83558 2.24963 4.83558C2.24962 4.83557 2.24962 4.83557 2.24962 4.83557C2.24962 4.83557 2.24962 4.83557 2.24962 4.83557C2.24962 4.83557 2.24962 4.83557 2.24962 4.83557C2.24962 4.83557 2.24962 4.83557 2.24962 4.83557C2.24962 4.83557 2.24962 4.83557 2.24962 4.83557C2.24962 4.83557 2.24962 4.83557 2.24962 4.83557C2.24962 4.83557 2.24962 4.83557 2.24962 4.83557C2.24962 4.83557 2.24962 4.83557 2.24962 4.83557C2.24962 4.83557 2.24962 4.83557 2.24962 4.83557C2.24962 4.83557 2.24962 4.83557 2.24961 4.83557C2.24961 4.83557 2.24961 4.83557 2.24961 4.83557C2.24961 4.83557 2.24961 4.83557 2.24961 4.83557C2.24961 4.83557 2.24961 4.83556 2.24961 4.83556C2.24961 4.83556 2.24961 4.83556 2.24961 4.83556C2.24961 4.83556 2.24961 4.83556 2.24961 4.83556C2.24961 4.83556 2.24961 4.83556 2.24961 4.83556C2.24961 4.83556 2.24961 4.83556 2.24961 4.83556C2.24961 4.83556 2.24961 4.83556 2.24961 4.83556C2.24961 4.83556 2.24961 4.83556 2.24961 4.83556C2.24961 4.83556 2.24961 4.83556 2.2496 4.83556C2.2496 4.83556 2.2496 4.83556 2.2496 4.83556C2.2496 4.83556 2.2496 4.83556 2.2496 4.83556C2.2496 4.83556 2.2496 4.83556 2.2496 4.83556C2.2496 4.83556 2.2496 4.83556 2.2496 4.83556C2.2496 4.83556 2.2496 4.83556 2.2496 4.83555C2.2496 4.83555 2.2496 4.83555 2.2496 4.83555C2.2496 4.83555 2.2496 4.83555 2.2496 4.83555C2.2496 4.83555 2.2496 4.83555 2.2496 4.83555C2.2496 4.83555 2.2496 4.83555 2.2496 4.83555C2.2496 4.83555 2.24959 4.83555 2.24959 4.83555C2.24959 4.83555 2.24959 4.83555 2.24959 4.83555C2.24959 4.83555 2.24959 4.83555 2.24959 4.83555C2.24959 4.83555 2.24959 4.83555 2.24959 4.83555C2.24959 4.83555 2.24959 4.83555 2.24959 4.83555C2.24959 4.83555 2.24959 4.83555 2.24959 4.83555C2.24959 4.83555 2.24959 4.83555 2.24959 4.83555C2.24959 4.83555 2.24959 4.83555 2.24959 4.83555C2.24959 4.83554 2.24959 4.83554 2.24959 4.83554C2.24959 4.83554 2.24959 4.83554 2.24959 4.83554C2.24958 4.83554 2.24958 4.83554 2.24958 4.83554C2.24958 4.83554 2.24958 4.83554 2.24958 4.83554C2.24958 4.83554 2.24958 4.83554 2.24958 4.83554C2.24958 4.83554 2.24958 4.83554 2.24958 4.83554C2.24958 4.83554 2.24958 4.83554 2.24958 4.83554C2.24958 4.83554 2.24958 4.83554 2.24958 4.83554C2.24958 4.83554 2.24958 4.83554 2.24958 4.83554C2.24958 4.83554 2.24958 4.83554 2.24958 4.83554C2.24958 4.83554 2.24958 4.83554 2.24958 4.83554C2.24958 4.83554 2.24958 4.83554 2.24958 4.83554C2.24957 4.83553 2.24957 4.83553 2.24957 4.83553C2.24957 4.83553 2.24957 4.83553 2.24957 4.83553C2.24957 4.83553 2.24957 4.83553 2.24957 4.83553C2.24957 4.83553 2.24957 4.83553 2.24957 4.83553C2.24957 4.83553 2.24957 4.83553 2.24957 4.83553C2.24957 4.83553 2.24957 4.83553 2.24957 4.83553C2.24957 4.83553 2.24957 4.83553 2.24957 4.83553C2.24957 4.83553 2.24957 4.83553 2.24957 4.83553L1.62474 5.61629C1.62474 5.61629 1.62474 5.61629 1.62474 5.61629C1.62474 5.61629 1.62474 5.61629 1.62474 5.61629C1.62474 5.6163 1.62474 5.6163 1.62474 5.6163C1.62475 5.6163 1.62475 5.6163 1.62475 5.6163C1.62475 5.6163 1.62475 5.6163 1.62475 5.6163C1.62475 5.6163 1.62475 5.6163 1.62475 5.6163C1.62475 5.6163 1.62475 5.6163 1.62475 5.6163C1.62475 5.6163 1.62475 5.6163 1.62475 5.6163C1.62475 5.6163 1.62475 5.6163 1.62475 5.6163C1.62475 5.6163 1.62475 5.6163 1.62475 5.6163C1.62475 5.6163 1.62475 5.6163 1.62475 5.6163C1.62475 5.6163 1.62475 5.6163 1.62475 5.6163C1.62475 5.6163 1.62475 5.6163 1.62476 5.6163C1.62476 5.6163 1.62476 5.6163 1.62476 5.6163C1.62476 5.6163 1.62476 5.61631 1.62476 5.61631C1.62476 5.61631 1.62476 5.61631 1.62476 5.61631C1.62476 5.61631 1.62476 5.61631 1.62476 5.61631C1.62476 5.61631 1.62476 5.61631 1.62476 5.61631C1.62476 5.61631 1.62476 5.61631 1.62476 5.61631C1.62476 5.61631 1.62476 5.61631 1.62476 5.61631C1.62476 5.61631 1.62476 5.61631 1.62476 5.61631C1.62476 5.61631 1.62476 5.61631 1.62476 5.61631C1.62476 5.61631 1.62476 5.61631 1.62477 5.61631C1.62477 5.61631 1.62477 5.61631 1.62477 5.61631C1.62477 5.61631 1.62477 5.61631 1.62477 5.61631C1.62477 5.61631 1.62477 5.61631 1.62477 5.61631C1.62477 5.61631 1.62477 5.61632 1.62477 5.61632C1.62477 5.61632 1.62477 5.61632 1.62477 5.61632C1.62477 5.61632 1.62477 5.61632 1.62477 5.61632C1.62477 5.61632 1.62477 5.61632 1.62477 5.61632C1.62477 5.61632 1.62477 5.61632 1.62477 5.61632C1.62477 5.61632 1.62477 5.61632 1.62477 5.61632C1.62477 5.61632 1.62478 5.61632 1.62478 5.61632C1.62478 5.61632 1.62478 5.61632 1.62478 5.61632C1.62478 5.61632 1.62478 5.61632 1.62478 5.61632C1.62478 5.61632 1.62478 5.61632 1.62478 5.61632C1.62478 5.61632 1.62478 5.61632 1.62478 5.61632C1.62478 5.61632 1.62478 5.61632 1.62478 5.61632C1.62478 5.61632 1.62478 5.61632 1.62478 5.61633C1.62478 5.61633 1.62478 5.61633 1.62478 5.61633C1.62478 5.61633 1.62478 5.61633 1.62478 5.61633C1.62478 5.61633 1.62478 5.61633 1.62478 5.61633C1.62479 5.61633 1.62479 5.61633 1.62479 5.61633C1.62479 5.61633 1.62479 5.61633 1.62479 5.61633C1.62479 5.61633 1.62479 5.61633 1.62479 5.61633C1.62479 5.61633 1.62479 5.61633 1.62479 5.61633C1.62479 5.61633 1.62479 5.61633 1.62479 5.61633C1.62479 5.61633 1.62479 5.61633 1.62479 5.61633C1.62479 5.61633 1.62479 5.61633 1.62479 5.61633C1.62479 5.61633 1.62479 5.61633 1.62479 5.61633C1.62479 5.61633 1.62479 5.61633 1.62479 5.61633C1.62479 5.61634 1.62479 5.61634 1.62479 5.61634C1.6248 5.61634 1.6248 5.61634 1.6248 5.61634C1.6248 5.61634 1.6248 5.61634 1.6248 5.61634C1.6248 5.61634 1.6248 5.61634 1.6248 5.61634C1.6248 5.61634 1.6248 5.61634 1.6248 5.61634C1.6248 5.61634 1.6248 5.61634 1.6248 5.61634C1.6248 5.61634 1.6248 5.61634 1.6248 5.61634C1.6248 5.61634 1.6248 5.61634 1.6248 5.61634C1.6248 5.61634 1.6248 5.61634 1.6248 5.61634C1.6248 5.61634 1.6248 5.61634 1.6248 5.61634C1.6248 5.61634 1.6248 5.61634 1.62481 5.61634C1.62481 5.61634 1.62481 5.61634 1.62481 5.61634C1.62481 5.61635 1.62481 5.61635 1.62481 5.61635C1.62481 5.61635 1.62481 5.61635 1.62481 5.61635C1.62481 5.61635 1.62481 5.61635 1.62481 5.61635C1.62481 5.61635 1.62481 5.61635 1.62481 5.61635C1.62481 5.61635 1.62481 5.61635 1.62481 5.61635C1.62481 5.61635 1.62481 5.61635 1.62481 5.61635C1.62481 5.61635 1.62481 5.61635 1.62481 5.61635C1.62481 5.61635 1.62481 5.61635 1.62481 5.61635C1.62481 5.61635 1.62482 5.61635 1.62482 5.61635C1.62482 5.61635 1.62482 5.61635 1.62482 5.61635C1.62482 5.61635 1.62482 5.61635 1.62482 5.61635C1.62482 5.61635 1.62482 5.61635 1.62482 5.61635C1.62482 5.61635 1.62482 5.61636 1.62482 5.61636C1.62482 5.61636 1.62482 5.61636 1.62482 5.61636C1.62482 5.61636 1.62482 5.61636 1.62482 5.61636C1.62482 5.61636 1.62482 5.61636 1.62482 5.61636C1.62482 5.61636 1.62482 5.61636 1.62482 5.61636C1.62482 5.61636 1.62482 5.61636 1.62482 5.61636C1.62482 5.61636 1.62483 5.61636 1.62483 5.61636C1.62483 5.61636 1.62483 5.61636 1.62483 5.61636C1.62483 5.61636 1.62483 5.61636 1.62483 5.61636C1.62483 5.61636 1.62483 5.61636 1.62483 5.61636C1.62483 5.61636 1.62483 5.61636 1.62483 5.61636C1.62483 5.61636 1.62483 5.61636 1.62483 5.61636C1.62483 5.61636 1.62483 5.61636 1.62483 5.61637C1.62483 5.61637 1.62483 5.61637 1.62483 5.61637C1.62483 5.61637 1.62483 5.61637 1.62483 5.61637C1.62483 5.61637 1.62483 5.61637 1.62483 5.61637C1.62484 5.61637 1.62484 5.61637 1.62484 5.61637C1.62484 5.61637 1.62484 5.61637 1.62484 5.61637C1.62484 5.61637 1.62484 5.61637 1.62484 5.61637C1.62484 5.61637 1.62484 5.61637 1.62484 5.61637C1.62484 5.61637 1.62484 5.61637 1.62484 5.61637C1.62484 5.61637 1.62484 5.61637 1.62484 5.61637C1.62484 5.61637 1.62484 5.61637 1.62484 5.61637C1.62484 5.61637 1.62484 5.61637 1.62484 5.61637C1.62484 5.61637 1.62484 5.61637 1.62484 5.61638C1.62484 5.61638 1.62484 5.61638 1.62485 5.61638C1.62485 5.61638 1.62485 5.61638 1.62485 5.61638C1.62485 5.61638 1.62485 5.61638 1.62485 5.61638C1.62485 5.61638 1.62485 5.61638 1.62485 5.61638C1.62485 5.61638 1.62485 5.61638 1.62485 5.61638C1.62485 5.61638 1.62485 5.61638 1.62485 5.61638C1.62485 5.61638 1.62485 5.61638 1.62485 5.61638C1.62485 5.61638 1.62485 5.61638 1.62485 5.61638C1.62485 5.61638 1.62485 5.61638 1.62485 5.61638C1.62485 5.61638 1.62485 5.61638 1.62485 5.61638C1.62485 5.61638 1.62485 5.61638 1.62486 5.61638C1.62486 5.61638 1.62486 5.61638 1.62486 5.61638C1.62486 5.61639 1.62486 5.61639 1.62486 5.61639C1.62486 5.61639 1.62486 5.61639 1.62486 5.61639C1.62486 5.61639 1.62486 5.61639 1.62486 5.61639C1.62486 5.61639 1.62486 5.61639 1.62486 5.61639C1.62486 5.61639 1.62486 5.61639 1.62486 5.61639C1.62486 5.61639 1.62486 5.61639 1.62486 5.61639C1.62486 5.61639 1.62486 5.61639 1.62486 5.61639C1.62486 5.61639 1.62486 5.61639 1.62486 5.61639C1.62486 5.61639 1.62487 5.61639 1.62487 5.61639C1.62487 5.61639 1.62487 5.61639 1.62487 5.61639C1.62487 5.61639 1.62487 5.61639 1.62487 5.61639C1.62487 5.61639 1.62487 5.61639 1.62487 5.61639C1.62487 5.61639 1.62487 5.6164 1.62487 5.6164C1.62487 5.6164 1.62487 5.6164 1.62487 5.6164C1.62487 5.6164 1.62487 5.6164 1.62487 5.6164C1.62487 5.6164 1.62487 5.6164 1.62487 5.6164C1.62487 5.6164 1.62487 5.6164 1.62487 5.6164C1.62487 5.6164 1.62487 5.6164 1.62487 5.6164C1.62488 5.6164 1.62488 5.6164 1.62488 5.6164C1.62488 5.6164 1.62488 5.6164 1.62488 5.6164C1.62488 5.6164 1.62488 5.6164 1.62488 5.6164C1.62488 5.6164 1.62488 5.6164 1.62488 5.6164C1.62488 5.6164 1.62488 5.6164 1.62488 5.6164C1.62488 5.6164 1.62488 5.6164 1.62488 5.6164C1.62488 5.61641 1.62488 5.61641 1.62488 5.61641C1.62488 5.61641 1.62488 5.61641 1.62488 5.61641C1.62488 5.61641 1.62488 5.61641 1.62488 5.61641C1.62488 5.61641 1.62488 5.61641 1.62488 5.61641C1.62489 5.61641 1.62489 5.61641 1.62489 5.61641C1.62489 5.61641 1.62489 5.61641 1.62489 5.61641C1.62489 5.61641 1.62489 5.61641 1.62489 5.61641C1.62489 5.61641 1.62489 5.61641 1.62489 5.61641C1.62489 5.61641 1.62489 5.61641 1.62489 5.61641C1.62489 5.61641 1.62489 5.61641 1.62489 5.61641C1.62489 5.61641 1.62489 5.61641 1.62489 5.61641C1.62489 5.61641 1.62489 5.61641 1.62489 5.61641C1.62489 5.61641 1.62489 5.61642 1.62489 5.61642C1.62489 5.61642 1.62489 5.61642 1.6249 5.61642C1.6249 5.61642 1.6249 5.61642 1.6249 5.61642C1.6249 5.61642 1.6249 5.61642 1.6249 5.61642C1.6249 5.61642 1.6249 5.61642 1.6249 5.61642C1.6249 5.61642 1.6249 5.61642 1.6249 5.61642C1.6249 5.61642 1.6249 5.61642 1.6249 5.61642C1.6249 5.61642 1.6249 5.61642 1.6249 5.61642C1.6249 5.61642 1.6249 5.61642 1.6249 5.61642C1.6249 5.61642 1.6249 5.61642 1.6249 5.61642C1.6249 5.61642 1.6249 5.61642 1.6249 5.61642C1.6249 5.61642 1.62491 5.61642 1.62491 5.61642C1.62491 5.61642 1.62491 5.61643 1.62491 5.61643C1.62491 5.61643 1.62491 5.61643 1.62491 5.61643C1.62491 5.61643 1.62491 5.61643 1.62491 5.61643C1.62491 5.61643 1.62491 5.61643 1.62491 5.61643C1.62491 5.61643 1.62491 5.61643 1.62491 5.61643C1.62491 5.61643 1.62491 5.61643 1.62491 5.61643C1.62491 5.61643 1.62491 5.61643 1.62491 5.61643C1.62491 5.61643 1.62491 5.61643 1.62491 5.61643C1.62491 5.61643 1.62491 5.61643 1.62491 5.61643C1.62492 5.61643 1.62492 5.61643 1.62492 5.61643C1.62492 5.61643 1.62492 5.61643 1.62492 5.61643C1.62492 5.61643 1.62492 5.61643 1.62492 5.61643C1.62492 5.61643 1.62492 5.61643 1.62492 5.61644C1.62492 5.61644 1.62492 5.61644 1.62492 5.61644C1.62492 5.61644 1.62492 5.61644 1.62492 5.61644C1.62492 5.61644 1.62492 5.61644 1.62492 5.61644C1.62492 5.61644 1.62492 5.61644 1.62492 5.61644C1.62492 5.61644 1.62492 5.61644 1.62492 5.61644C1.62492 5.61644 1.62492 5.61644 1.62492 5.61644C1.62493 5.61644 1.62493 5.61644 1.62493 5.61644C1.62493 5.61644 1.62493 5.61644 1.62493 5.61644C1.62493 5.61644 1.62493 5.61644 1.62493 5.61644C1.62493 5.61644 1.62493 5.61644 1.62493 5.61644C1.62493 5.61644 1.62493 5.61644 1.62493 5.61644C1.62493 5.61644 1.62493 5.61644 1.62493 5.61644C1.62493 5.61645 1.62493 5.61645 1.62493 5.61645C1.62493 5.61645 1.62493 5.61645 1.62493 5.61645C1.62493 5.61645 1.62493 5.61645 1.62493 5.61645C1.62493 5.61645 1.62493 5.61645 1.62494 5.61645C1.62494 5.61645 1.62494 5.61645 1.62494 5.61645C1.62494 5.61645 1.62494 5.61645 1.62494 5.61645C1.62494 5.61645 1.62494 5.61645 1.62494 5.61645C1.62494 5.61645 1.62494 5.61645 1.62494 5.61645C1.62494 5.61645 1.62494 5.61645 1.62494 5.61645C1.62494 5.61645 1.62494 5.61645 1.62494 5.61645C1.62494 5.61645 1.62494 5.61645 1.62494 5.61645C1.62494 5.61645 1.62494 5.61645 1.62494 5.61645C1.62494 5.61646 1.62494 5.61646 1.62494 5.61646C1.62494 5.61646 1.62494 5.61646 1.62495 5.61646C1.62495 5.61646 1.62495 5.61646 1.62495 5.61646C1.62495 5.61646 1.62495 5.61646 1.62495 5.61646C1.62495 5.61646 1.62495 5.61646 1.62495 5.61646C1.62495 5.61646 1.62495 5.61646 1.62495 5.61646C1.62495 5.61646 1.62495 5.61646 1.62495 5.61646C1.62495 5.61646 1.62495 5.61646 1.62495 5.61646C1.62495 5.61646 1.62495 5.61646 1.62495 5.61646C1.62495 5.61646 1.62495 5.61646 1.62495 5.61646C1.62495 5.61646 1.62495 5.61646 1.62495 5.61646C1.62495 5.61646 1.62496 5.61646 1.62496 5.61646C1.62496 5.61646 1.62496 5.61647 1.62496 5.61647C1.62496 5.61647 1.62496 5.61647 1.62496 5.61647C1.62496 5.61647 1.62496 5.61647 1.62496 5.61647C1.62496 5.61647 1.62496 5.61647 1.62496 5.61647C1.62496 5.61647 1.62496 5.61647 1.62496 5.61647C1.62496 5.61647 1.62496 5.61647 1.62496 5.61647C1.62496 5.61647 1.62496 5.61647 1.62496 5.61647C1.62496 5.61647 1.62496 5.61647 1.62496 5.61647C1.62496 5.61647 1.62496 5.61647 1.62496 5.61647C1.62497 5.61647 1.62497 5.61647 1.62497 5.61647C1.62497 5.61647 1.62497 5.61647 1.62497 5.61647C1.62497 5.61647 1.62497 5.61647 1.62497 5.61647C1.62497 5.61647 1.62497 5.61647 1.62497 5.61648C1.62497 5.61648 1.62497 5.61648 1.62497 5.61648C1.62497 5.61648 1.62497 5.61648 1.62497 5.61648C1.62497 5.61648 1.62497 5.61648 1.62497 5.61648C1.62497 5.61648 1.62497 5.61648 1.62497 5.61648C1.62497 5.61648 1.62497 5.61648 1.62497 5.61648C1.62497 5.61648 1.62497 5.61648 1.62497 5.61648C1.62498 5.61648 1.62498 5.61648 1.62498 5.61648C1.62498 5.61648 1.62498 5.61648 1.62498 5.61648C1.62498 5.61648 1.62498 5.61648 1.62498 5.61648C1.62498 5.61648 1.62498 5.61648 1.62498 5.61648C1.62498 5.61648 1.62498 5.61648 1.62498 5.61648C1.62498 5.61648 1.62498 5.61648 1.62498 5.61649C1.62498 5.61649 1.62498 5.61649 1.62498 5.61649C1.62498 5.61649 1.62498 5.61649 1.62498 5.61649C1.62498 5.61649 1.62498 5.61649 1.62498 5.61649C1.62498 5.61649 1.62498 5.61649 1.62499 5.61649C1.62499 5.61649 1.62499 5.61649 1.62499 5.61649C1.62499 5.61649 1.62499 5.61649 1.62499 5.61649C1.62499 5.61649 1.62499 5.61649 1.62499 5.61649C1.62499 5.61649 1.62499 5.61649 1.62499 5.61649C1.62499 5.61649 1.62499 5.61649 1.62499 5.61649C1.62499 5.61649 1.62499 5.61649 1.62499 5.61649C1.62499 5.61649 1.62499 5.61649 1.62499 5.61649C1.62499 5.61649 1.62499 5.61649 1.62499 5.61649C1.62499 5.6165 1.62499 5.6165 1.62499 5.6165C1.62499 5.6165 1.625 5.6165 1.625 5.6165C1.625 5.6165 1.625 5.6165 1.625 5.6165C1.625 5.6165 1.625 5.6165 1.625 5.6165C1.625 5.6165 1.625 5.6165 1.625 5.6165C1.625 5.6165 1.625 5.6165 1.625 5.6165C1.625 5.6165 1.625 5.6165 1.625 5.6165C1.625 5.6165 1.625 5.6165 1.625 5.6165C1.625 5.6165 1.625 5.6165 1.625 5.6165C1.625 5.6165 1.625 5.6165 1.625 5.6165C1.625 5.6165 1.625 5.6165 1.625 5.6165C1.62501 5.6165 1.62501 5.6165 1.62501 5.6165C1.62501 5.6165 1.62501 5.61651 1.62501 5.61651C1.62501 5.61651 1.62501 5.61651 1.62501 5.61651C1.62501 5.61651 1.62501 5.61651 1.62501 5.61651C1.62501 5.61651 1.62501 5.61651 1.62501 5.61651C1.62501 5.61651 1.62501 5.61651 1.62501 5.61651C1.62501 5.61651 1.62501 5.61651 1.62501 5.61651C1.62501 5.61651 1.62501 5.61651 1.62501 5.61651C1.62501 5.61651 1.62501 5.61651 1.62501 5.61651C1.62501 5.61651 1.62501 5.61651 1.62501 5.61651C1.62502 5.61651 1.62502 5.61651 1.62502 5.61651C1.62502 5.61651 1.62502 5.61651 1.62502 5.61651C1.62502 5.61651 1.62502 5.61651 1.62502 5.61651C1.62502 5.61651 1.62502 5.61652 1.62502 5.61652C1.62502 5.61652 1.62502 5.61652 1.62502 5.61652C1.62502 5.61652 1.62502 5.61652 1.62502 5.61652C1.62502 5.61652 1.62502 5.61652 1.62502 5.61652C1.62502 5.61652 1.62502 5.61652 1.62502 5.61652C1.62502 5.61652 1.62502 5.61652 1.62502 5.61652C1.62502 5.61652 1.62502 5.61652 1.62503 5.61652C1.62503 5.61652 1.62503 5.61652 1.62503 5.61652C1.62503 5.61652 1.62503 5.61652 1.62503 5.61652C1.62503 5.61652 1.62503 5.61652 1.62503 5.61652C1.62503 5.61652 1.62503 5.61652 1.62503 5.61652C1.62503 5.61652 1.62503 5.61652 1.62503 5.61652C1.62503 5.61652 1.62503 5.61652 1.62503 5.61653C1.62503 5.61653 1.62503 5.61653 1.62503 5.61653C1.62503 5.61653 1.62503 5.61653 1.62503 5.61653C1.62503 5.61653 1.62503 5.61653 1.62503 5.61653C1.62503 5.61653 1.62503 5.61653 1.62504 5.61653C1.62504 5.61653 1.62504 5.61653 1.62504 5.61653C1.62504 5.61653 1.62504 5.61653 1.62504 5.61653C1.62504 5.61653 1.62504 5.61653 1.62504 5.61653C1.62504 5.61653 1.62504 5.61653 1.62504 5.61653C1.62504 5.61653 1.62504 5.61653 1.62504 5.61653C1.62504 5.61653 1.62504 5.61653 1.62504 5.61653C1.62504 5.61653 1.62504 5.61653 1.62504 5.61653C1.62504 5.61653 1.62504 5.61653 1.62504 5.61653C1.62504 5.61654 1.62504 5.61654 1.62504 5.61654C1.62504 5.61654 1.62505 5.61654 1.62505 5.61654C1.62505 5.61654 1.62505 5.61654 1.62505 5.61654C1.62505 5.61654 1.62505 5.61654 1.62505 5.61654C1.62505 5.61654 1.62505 5.61654 1.62505 5.61654C1.62505 5.61654 1.62505 5.61654 1.62505 5.61654C1.62505 5.61654 1.62505 5.61654 1.62505 5.61654C1.62505 5.61654 1.62505 5.61654 1.62505 5.61654C1.62505 5.61654 1.62505 5.61654 1.62505 5.61654C1.62505 5.61654 1.62505 5.61654 1.62505 5.61654C1.62505 5.61654 1.62505 5.61654 1.62505 5.61654C1.62506 5.61654 1.62506 5.61654 1.62506 5.61654C1.62506 5.61654 1.62506 5.61655 1.62506 5.61655C1.62506 5.61655 1.62506 5.61655 1.62506 5.61655C1.62506 5.61655 1.62506 5.61655 1.62506 5.61655C1.62506 5.61655 1.62506 5.61655 1.62506 5.61655C1.62506 5.61655 1.62506 5.61655 1.62506 5.61655C1.62506 5.61655 1.62506 5.61655 1.62506 5.61655C1.62506 5.61655 1.62506 5.61655 1.62506 5.61655C1.62506 5.61655 1.62506 5.61655 1.62506 5.61655C1.62506 5.61655 1.62506 5.61655 1.62507 5.61655C1.62507 5.61655 1.62507 5.61655 1.62507 5.61655C1.62507 5.61655 1.62507 5.61655 1.62507 5.61655C1.62507 5.61655 1.62507 5.61655 1.62507 5.61655C1.62507 5.61655 1.62507 5.61656 1.62507 5.61656C1.62507 5.61656 1.62507 5.61656 1.62507 5.61656C1.62507 5.61656 1.62507 5.61656 1.62507 5.61656C1.62507 5.61656 1.62507 5.61656 1.62507 5.61656C1.62507 5.61656 1.62507 5.61656 1.62507 5.61656C1.62507 5.61656 1.62507 5.61656 1.62507 5.61656C1.62507 5.61656 1.62507 5.61656 1.62508 5.61656C1.62508 5.61656 1.62508 5.61656 1.62508 5.61656C1.62508 5.61656 1.62508 5.61656 1.62508 5.61656C1.62508 5.61656 1.62508 5.61656 1.62508 5.61656C1.62508 5.61656 1.62508 5.61656 1.62508 5.61656C1.62508 5.61656 1.62508 5.61656 1.62508 5.61656C1.62508 5.61656 1.62508 5.61656 1.62508 5.61657C1.62508 5.61657 1.62508 5.61657 1.62508 5.61657C1.62508 5.61657 1.62508 5.61657 1.62508 5.61657C1.62508 5.61657 1.62508 5.61657 1.62508 5.61657C1.62508 5.61657 1.62509 5.61657 1.62509 5.61657C1.62509 5.61657 1.62509 5.61657 1.62509 5.61657C1.62509 5.61657 1.62509 5.61657 1.62509 5.61657C1.62509 5.61657 1.62509 5.61657 1.62509 5.61657C1.62509 5.61657 1.62509 5.61657 1.62509 5.61657C1.62509 5.61657 1.62509 5.61657 1.62509 5.61657C1.62509 5.61657 1.62509 5.61657 1.62509 5.61657C1.62509 5.61657 1.62509 5.61657 1.62509 5.61657C1.62509 5.61657 1.62509 5.61657 1.62509 5.61657C1.62509 5.61658 1.62509 5.61658 1.62509 5.61658C1.6251 5.61658 1.6251 5.61658 1.6251 5.61658C1.6251 5.61658 1.6251 5.61658 1.6251 5.61658C1.6251 5.61658 1.6251 5.61658 1.6251 5.61658C1.6251 5.61658 1.6251 5.61658 1.6251 5.61658C1.6251 5.61658 1.6251 5.61658 1.6251 5.61658C1.6251 5.61658 1.6251 5.61658 1.6251 5.61658C1.6251 5.61658 1.6251 5.61658 1.6251 5.61658C1.6251 5.61658 1.6251 5.61658 1.6251 5.61658C1.6251 5.61658 1.6251 5.61658 1.6251 5.61658C1.6251 5.61658 1.6251 5.61658 1.6251 5.61658C1.62511 5.61658 1.62511 5.61658 1.62511 5.61658C1.62511 5.61659 1.62511 5.61659 1.62511 5.61659C1.62511 5.61659 1.62511 5.61659 1.62511 5.61659C1.62511 5.61659 1.62511 5.61659 1.62511 5.61659C1.62511 5.61659 1.62511 5.61659 1.62511 5.61659C1.62511 5.61659 1.62511 5.61659 1.62511 5.61659C1.62511 5.61659 1.62511 5.61659 1.62511 5.61659C1.62511 5.61659 1.62511 5.61659 1.62511 5.61659C1.62511 5.61659 1.62511 5.61659 1.62511 5.61659C1.62511 5.61659 1.62511 5.61659 1.62512 5.61659C1.62512 5.61659 1.62512 5.61659 1.62512 5.61659C1.62512 5.61659 1.62512 5.61659 1.62512 5.61659C1.62512 5.61659 1.62512 5.61659 1.62512 5.61659C1.62512 5.61659 1.62512 5.6166 1.62512 5.6166C1.62512 5.6166 1.62512 5.6166 1.62512 5.6166C1.62512 5.6166 1.62512 5.6166 1.62512 5.6166C1.62512 5.6166 1.62512 5.6166 1.62512 5.6166C1.62512 5.6166 1.62512 5.6166 1.62512 5.6166C1.62512 5.6166 1.62512 5.6166 1.62512 5.6166C1.62512 5.6166 1.62512 5.6166 1.62513 5.6166C1.62513 5.6166 1.62513 5.6166 1.62513 5.6166C1.62513 5.6166 1.62513 5.6166 1.62513 5.6166C1.62513 5.6166 1.62513 5.6166 1.62513 5.6166C1.62513 5.6166 1.62513 5.6166 1.62513 5.6166C1.62513 5.6166 1.62513 5.6166 1.62513 5.6166C1.62513 5.6166 1.62513 5.6166 1.62513 5.61661C1.62513 5.61661 1.62513 5.61661 1.62513 5.61661C1.62513 5.61661 1.62513 5.61661 1.62513 5.61661C1.62513 5.61661 1.62513 5.61661 1.62513 5.61661C1.62513 5.61661 1.62514 5.61661 1.62514 5.61661C1.62514 5.61661 1.62514 5.61661 1.62514 5.61661C1.62514 5.61661 1.62514 5.61661 1.62514 5.61661C1.62514 5.61661 1.62514 5.61661 1.62514 5.61661C1.62514 5.61661 1.62514 5.61661 1.62514 5.61661C1.62514 5.61661 1.62514 5.61661 1.62514 5.61661C1.62514 5.61661 1.62514 5.61661 1.62514 5.61661C1.62514 5.61661 1.62514 5.61661 1.62514 5.61661C1.62514 5.61661 1.62514 5.61661 1.62514 5.61662C1.62514 5.61662 1.62514 5.61662 1.62514 5.61662C1.62515 5.61662 1.62515 5.61662 1.62515 5.61662C1.62515 5.61662 1.62515 5.61662 1.62515 5.61662C1.62515 5.61662 1.62515 5.61662 1.62515 5.61662C1.62515 5.61662 1.62515 5.61662 1.62515 5.61662C1.62515 5.61662 1.62515 5.61662 1.62515 5.61662C1.62515 5.61662 1.62515 5.61662 1.62515 5.61662C1.62515 5.61662 1.62515 5.61662 1.62515 5.61662C1.62515 5.61662 1.62515 5.61662 1.62515 5.61662C1.62515 5.61662 1.62515 5.61662 1.62515 5.61662C1.62515 5.61662 1.62515 5.61662 1.62516 5.61662C1.62516 5.61662 1.62516 5.61662 1.62516 5.61662C1.62516 5.61663 1.62516 5.61663 1.62516 5.61663C1.62516 5.61663 1.62516 5.61663 1.62516 5.61663C1.62516 5.61663 1.62516 5.61663 1.62516 5.61663C1.62516 5.61663 1.62516 5.61663 1.62516 5.61663C1.62516 5.61663 1.62516 5.61663 1.62516 5.61663C1.62516 5.61663 1.62516 5.61663 1.62516 5.61663C1.62516 5.61663 1.62516 5.61663 1.62516 5.61663C1.62516 5.61663 1.62516 5.61663 1.62516 5.61663C1.62516 5.61663 1.62516 5.61663 1.62517 5.61663C1.62517 5.61663 1.62517 5.61663 1.62517 5.61663C1.62517 5.61663 1.62517 5.61663 1.62517 5.61663C1.62517 5.61663 1.62517 5.61663 1.62517 5.61663C1.62517 5.61663 1.62517 5.61664 1.62517 5.61664C1.62517 5.61664 1.62517 5.61664 1.62517 5.61664C1.62517 5.61664 1.62517 5.61664 1.62517 5.61664C1.62517 5.61664 1.62517 5.61664 1.62517 5.61664C1.62517 5.61664 1.62517 5.61664 1.62517 5.61664C1.62517 5.61664 1.62517 5.61664 1.62517 5.61664C1.62517 5.61664 1.62518 5.61664 1.62518 5.61664C1.62518 5.61664 1.62518 5.61664 1.62518 5.61664C1.62518 5.61664 1.62518 5.61664 1.62518 5.61664C1.62518 5.61664 1.62518 5.61664 1.62518 5.61664C1.62518 5.61664 1.62518 5.61664 1.62518 5.61664C1.62518 5.61664 1.62518 5.61664 1.62518 5.61664C1.62518 5.61664 1.62518 5.61664 1.62518 5.61665C1.62518 5.61665 1.62518 5.61665 1.62518 5.61665C1.62518 5.61665 1.62518 5.61665 1.62518 5.61665C1.62518 5.61665 1.62518 5.61665 1.62518 5.61665C1.62519 5.61665 1.62519 5.61665 1.62519 5.61665C1.62519 5.61665 1.62519 5.61665 1.62519 5.61665C1.62519 5.61665 1.62519 5.61665 1.62519 5.61665C1.62519 5.61665 1.62519 5.61665 1.62519 5.61665C1.62519 5.61665 1.62519 5.61665 1.62519 5.61665C1.62519 5.61665 1.62519 5.61665 1.62519 5.61665C1.62519 5.61665 1.62519 5.61665 1.62519 5.61665C1.62519 5.61665 1.62519 5.61665 1.62519 5.61665C1.62519 5.61665 1.62519 5.61665 1.62519 5.61666C1.62519 5.61666 1.62519 5.61666 1.62519 5.61666C1.6252 5.61666 1.6252 5.61666 1.6252 5.61666C1.6252 5.61666 1.6252 5.61666 1.6252 5.61666C1.6252 5.61666 1.6252 5.61666 1.6252 5.61666C1.6252 5.61666 1.6252 5.61666 1.6252 5.61666C1.6252 5.61666 1.6252 5.61666 1.6252 5.61666C1.6252 5.61666 1.6252 5.61666 1.6252 5.61666C1.6252 5.61666 1.6252 5.61666 1.6252 5.61666C1.6252 5.61666 1.6252 5.61666 1.6252 5.61666C1.6252 5.61666 1.6252 5.61666 1.6252 5.61666C1.6252 5.61666 1.6252 5.61666 1.62521 5.61666C1.62521 5.61666 1.62521 5.61666 1.62521 5.61666C1.62521 5.61667 1.62521 5.61667 1.62521 5.61667C1.62521 5.61667 1.62521 5.61667 1.62521 5.61667C1.62521 5.61667 1.62521 5.61667 1.62521 5.61667C1.62521 5.61667 1.62521 5.61667 1.62521 5.61667C1.62521 5.61667 1.62521 5.61667 1.62521 5.61667C1.62521 5.61667 1.62521 5.61667 1.62521 5.61667C1.62521 5.61667 1.62521 5.61667 1.62521 5.61667C1.62521 5.61667 1.62521 5.61667 1.62521 5.61667C1.62521 5.61667 1.62522 5.61667 1.62522 5.61667C1.62522 5.61667 1.62522 5.61667 1.62522 5.61667C1.62522 5.61667 1.62522 5.61667 1.62522 5.61667C1.62522 5.61667 1.62522 5.61667 1.62522 5.61667C1.62522 5.61667 1.62522 5.61668 1.62522 5.61668C1.62522 5.61668 1.62522 5.61668 1.62522 5.61668C1.62522 5.61668 1.62522 5.61668 1.62522 5.61668C1.62522 5.61668 1.62522 5.61668 1.62522 5.61668C1.62522 5.61668 1.62522 5.61668 1.62522 5.61668C1.62522 5.61668 1.62522 5.61668 1.62522 5.61668C1.62522 5.61668 1.62523 5.61668 1.62523 5.61668C1.62523 5.61668 1.62523 5.61668 1.62523 5.61668C1.62523 5.61668 1.62523 5.61668 1.62523 5.61668C1.62523 5.61668 1.62523 5.61668 1.62523 5.61668C1.62523 5.61668 1.62523 5.61668 1.62523 5.61668C1.62523 5.61668 1.62523 5.61668 1.62523 5.61668C1.62523 5.61668 1.62523 5.61669 1.62523 5.61669C1.62523 5.61669 1.62523 5.61669 1.62523 5.61669C1.62523 5.61669 1.62523 5.61669 1.62523 5.61669C1.62523 5.61669 1.62523 5.61669 1.62523 5.61669C1.62524 5.61669 1.62524 5.61669 1.62524 5.61669C1.62524 5.61669 1.62524 5.61669 1.62524 5.61669C1.62524 5.61669 1.62524 5.61669 1.62524 5.61669C1.62524 5.61669 1.62524 5.61669 1.62524 5.61669C1.62524 5.61669 1.62524 5.61669 1.62524 5.61669C1.62524 5.61669 1.62524 5.61669 1.62524 5.61669C1.62524 5.61669 1.62524 5.61669 1.62524 5.61669C1.62524 5.61669 1.62524 5.61669 1.62524 5.61669C1.62524 5.61669 1.62524 5.61669 1.62524 5.6167C1.62524 5.6167 1.62524 5.6167 1.62525 5.6167C1.62525 5.6167 1.62525 5.6167 1.62525 5.6167C1.62525 5.6167 1.62525 5.6167 1.62525 5.6167C1.62525 5.6167 1.62525 5.6167 1.62525 5.6167C1.62525 5.6167 1.62525 5.6167 1.62525 5.6167C1.62525 5.6167 1.62525 5.6167 1.62525 5.6167C1.62525 5.6167 1.62525 5.6167 1.62525 5.6167C1.62525 5.6167 1.62525 5.6167 1.62525 5.6167C1.62525 5.6167 1.62525 5.6167 1.62525 5.6167C1.62525 5.6167 1.62525 5.6167 1.62525 5.6167C1.62525 5.6167 1.62525 5.6167 1.62526 5.6167C1.62526 5.6167 1.62526 5.6167 1.62526 5.6167C1.62526 5.61671 1.62526 5.61671 1.62526 5.61671C1.62526 5.61671 1.62526 5.61671 1.62526 5.61671C1.62526 5.61671 1.62526 5.61671 1.62526 5.61671C1.62526 5.61671 1.62526 5.61671 1.62526 5.61671C1.62526 5.61671 1.62526 5.61671 1.62526 5.61671C1.62526 5.61671 1.62526 5.61671 1.62526 5.61671C1.62526 5.61671 1.62526 5.61671 1.62526 5.61671C1.62526 5.61671 1.62526 5.61671 1.62526 5.61671C1.62526 5.61671 1.62527 5.61671 1.62527 5.61671L2.25009 4.83595ZM1.9369 5.72633H1.93768V4.72633H1.9369V5.72633ZM1.50936 4.96709L1.5091 4.96751L2.3647 5.48515L2.36495 5.48474L1.50936 4.96709ZM2.24961 4.83556C1.81219 4.48544 1.5537 3.94711 1.55334 3.37383L0.553345 3.37445C0.553887 4.2469 0.947029 5.07383 1.6247 5.61626L2.24961 4.83556ZM4.98759 1.46438C3.5697 2.33254 2.3773 3.5338 1.50946 4.96692L2.36485 5.48491C3.15074 4.18713 4.22937 3.10118 5.50977 2.31722L4.98759 1.46438ZM3.41001 1.50001C3.97228 1.50001 4.50487 1.75738 4.85685 2.2014L5.6405 1.5802C5.09959 0.897841 4.27885 0.500005 3.41001 0.500005V1.50001ZM2.09835 2.04843C2.44963 1.69558 2.92089 1.49972 3.40971 1.50001L3.41031 0.500006C2.65236 0.499556 1.92667 0.803495 1.38967 1.34291L2.09835 2.04843ZM1.55334 3.37414C1.55334 2.87676 1.75028 2.39904 2.09885 2.04793L1.38918 1.3434C0.854186 1.88229 0.553345 2.61346 0.553345 3.37414H1.55334Z" fill="#2E2E2E"/>
</svg>
