<svg width="24" height="24" viewBox="0 0 24 24" fill="none" xmlns="http://www.w3.org/2000/svg">
<path d="M4.50776 3.41779C4.50776 2.36334 5.34769 1.50928 6.3826 1.50928H17.6313C18.6668 1.50928 19.5061 2.36334 19.5061 3.41779V5.47879C19.5061 6.87211 18.9086 8.19588 17.8695 9.10157L14.5416 12.0058L17.8695 14.9095C18.3848 15.3617 18.7975 15.919 19.0798 16.5438C19.3621 17.1686 19.5074 17.8466 19.5061 18.5323V20.5938C19.5061 21.6477 18.6662 22.5025 17.6313 22.5025H6.3826C6.13551 22.5021 5.89098 22.4525 5.66331 22.3565C5.43564 22.2605 5.2294 22.12 5.05667 21.9434C4.70403 21.5828 4.50694 21.0982 4.50776 20.5938V18.5329C4.50776 17.1402 5.10591 15.8171 6.1444 14.9101L9.47218 12.0058L6.1444 9.10218C5.62897 8.64988 5.21626 8.09255 4.93397 7.4676C4.65169 6.84265 4.50637 6.16454 4.50776 5.47879V3.41779ZM17.6313 3.37094H6.3826V5.47882C6.38189 5.89026 6.46922 6.29709 6.63871 6.672C6.80821 7.04691 7.05595 7.38122 7.36531 7.65248L10.6924 10.5562C10.8987 10.737 11.0639 10.9599 11.1769 11.2098C11.2899 11.4597 11.3481 11.731 11.3476 12.0053C11.3476 12.5625 11.1082 13.0915 10.6924 13.4544L7.36531 16.3592C7.05596 16.6305 6.80822 16.9648 6.63872 17.3397C6.46922 17.7146 6.3819 18.1215 6.3826 18.5329V20.6173H17.6313V18.5329C17.632 18.1215 17.5446 17.7146 17.3752 17.3397C17.2057 16.9648 16.958 16.6305 16.6486 16.3592L13.3214 13.4543C13.1151 13.2735 12.95 13.0506 12.837 12.8007C12.724 12.5507 12.6658 12.2795 12.6663 12.0052C12.6663 11.448 12.9056 10.919 13.3214 10.5561L16.6486 7.65304C16.958 7.3817 17.2058 7.0473 17.3753 6.67228C17.5448 6.29726 17.6321 5.89031 17.6313 5.47877V3.37094H17.6313Z" fill="#30414D"/>
<path d="M11.0004 14.415C11.0908 14.318 11.2002 14.2407 11.3218 14.1879C11.4434 14.1351 11.5745 14.1078 11.7071 14.1078C11.8397 14.1078 11.9708 14.1351 12.0924 14.1879C12.214 14.2407 12.3234 14.318 12.4138 14.415L14.4139 16.5148C14.6995 16.8154 14.7853 17.2672 14.6305 17.6589C14.4757 18.0512 14.1115 18.3068 13.7066 18.3068H9.70684C9.30252 18.3068 8.93837 18.0512 8.78296 17.6589C8.70706 17.4672 8.68718 17.2579 8.72564 17.0553C8.7641 16.8528 8.8593 16.6653 9.00018 16.5148L11.0004 14.415Z" fill="#30414D"/>
</svg>
