<?xml version="1.0" encoding="UTF-8"?>
<svg width="72px" height="57px" viewBox="0 0 72 57" version="1.1" xmlns="http://www.w3.org/2000/svg" xmlns:xlink="http://www.w3.org/1999/xlink">
    <!-- Generator: Sketch 59.1 (86144) - https://sketch.com -->
    <title>声音</title>
    <desc>Created with Sketch.</desc>
    <g id="页面-1" stroke="none" stroke-width="1" fill="none" fill-rule="evenodd">
        <g id="7" transform="translate(-158.000000, -1186.000000)">
            <g id="声音备份-2" transform="translate(80.000000, 1114.000000)">
                <g id="声音" transform="translate(78.000000, 72.000000)">
                    <path d="M30.2798815,0.876985354 L15.4527494,11.1036166 L5.00493908,11.1036166 C3.68116583,11.0932432 2.40964035,11.6128541 1.48066197,12.543818 C0.551683598,13.4747819 0.0445609301,14.7376206 0.0750740863,16.0440181 L0.0750740863,21.861341 L0,21.84899 L0,35.1386702 L0.0750740863,35.1386702 L0.0750740863,40.955993 C0.0616493602,42.2528955 0.575921731,43.5008916 1.5026433,44.4203069 C2.42936486,45.3397221 3.69104377,45.8536755 5.00493908,45.8469906 L15.4902865,45.8469906 L30.2798815,56.1230258 C31.7779695,57.1595573 33.7359552,57.2869484 35.3589093,56.4534792 C36.9818634,55.62001 38,53.9642217 38,52.1583536 L38,4.8293066 C37.9953574,3.02565828 36.9754091,1.37407691 35.3533697,0.543672458 C33.7313303,-0.286731994 31.7761287,-0.158281139 30.2798815,0.876985354 Z" fill="#000000" id="路径"></path>
                    <path d="M60,48 C65.7184513,43.2111472 69,36.2834332 69,29 C69,21.7165668 65.7184513,14.7888528 60,10" id="路径" stroke="#000000" stroke-width="5" stroke-linecap="round"></path>
                    <path d="M51,42 C55.9040304,39.5328499 59,34.5018993 59,29 C59,23.4981007 55.9040304,18.4671501 51,16" id="路径" stroke="#000000" stroke-width="5" stroke-linecap="round"></path>
                </g>
            </g>
        </g>
    </g>
</svg>