<svg width="44" height="89" viewBox="0 0 44 89" fill="none" xmlns="http://www.w3.org/2000/svg">
<path d="M44 2L38.4656 0.35585L39.8089 5.97089L44 2ZM44 87.5C43.7292 87.5 43.4106 87.4923 43.0479 87.4758L43.0025 88.4747C43.3769 88.4918 43.7109 88.5 44 88.5V87.5ZM41.0919 87.3356C40.4921 87.2797 39.8369 87.2087 39.1342 87.1209L39.0103 88.1132C39.7228 88.2022 40.3885 88.2744 40.9992 88.3313L41.0919 87.3356ZM37.1846 86.851C36.5619 86.7566 35.9135 86.6508 35.2435 86.5328L35.07 87.5176C35.748 87.637 36.4042 87.7441 37.0348 87.8397L37.1846 86.851ZM33.3052 86.168C32.675 86.0419 32.0307 85.9054 31.3751 85.7583L31.1561 86.734C31.8194 86.8829 32.4713 87.0209 33.1089 87.1486L33.3052 86.168ZM29.4562 85.3036C28.8275 85.1467 28.1914 84.9801 27.5503 84.8032L27.2843 85.7672C27.9336 85.9463 28.5777 86.1151 29.2141 86.2739L29.4562 85.3036ZM25.6589 84.2552C25.0357 84.0657 24.4101 83.8666 23.784 83.6572L23.4669 84.6056C24.1021 84.818 24.7365 85.02 25.368 85.2119L25.6589 84.2552ZM21.9281 83.0065C21.3146 82.781 20.7027 82.5454 20.0943 82.2994L19.7194 83.2264C20.3381 83.4766 20.96 83.7161 21.5831 83.9451L21.9281 83.0065ZM18.2865 81.5318C17.688 81.2651 17.0951 80.9877 16.5096 80.6992L16.0677 81.5962C16.6652 81.8906 17.2698 82.1735 17.8794 82.4452L18.2865 81.5318ZM14.7697 79.7963C14.1943 79.4816 13.6285 79.1554 13.0744 78.8172L12.5535 79.6709C13.1218 80.0177 13.7013 80.3518 14.2899 80.6737L14.7697 79.7963ZM11.4329 77.7559C10.8925 77.3852 10.3664 77.0019 9.85662 76.6055L9.24274 77.3949C9.76905 77.8042 10.3113 78.1993 10.8673 78.5806L11.4329 77.7559ZM8.35915 75.3594C7.87173 74.9246 7.4039 74.4757 6.95784 74.0123L6.23742 74.7058C6.70194 75.1884 7.18811 75.6548 7.69344 76.1056L8.35915 75.3594ZM5.67255 72.5606C5.26436 72.0573 4.88118 71.5385 4.52529 71.0039L3.69289 71.5581C4.06689 72.1199 4.46878 72.6639 4.89585 73.1905L5.67255 72.5606ZM3.53867 69.3465C3.24006 68.7802 2.97085 68.1974 2.73336 67.5978L1.80362 67.966C2.05473 68.6 2.33911 69.2155 2.6541 69.8129L3.53867 69.3465ZM2.12519 65.7731C1.9588 65.1628 1.82383 64.5359 1.72245 63.892L0.734623 64.0476C0.841713 64.7278 0.984383 65.3905 1.1604 66.0361L2.12519 65.7731ZM1.5246 61.9764C1.50828 61.655 1.5 61.3295 1.5 61H0.5C0.5 61.3463 0.508701 61.6886 0.525887 62.0271L1.5246 61.9764ZM1.5 61C1.5 60.6723 1.50237 60.3455 1.50707 60.0197L0.507172 60.0052C0.502399 60.3359 0.5 60.6675 0.5 61H1.5ZM1.56321 58.0746C1.59158 57.4204 1.6294 56.7702 1.67646 56.1239L0.679104 56.0512C0.631329 56.7073 0.592941 57.3673 0.564152 58.0313L1.56321 58.0746ZM1.84686 54.1807C1.91347 53.5319 1.98943 52.8872 2.07452 52.2469L1.08323 52.1152C0.996834 52.7653 0.919712 53.4198 0.852089 54.0786L1.84686 54.1807ZM2.36053 50.3174C2.46609 49.6725 2.58096 49.0323 2.70491 48.3967L1.7234 48.2053C1.59752 48.8508 1.48086 49.501 1.37366 50.1559L2.36053 50.3174ZM3.10701 46.4901C3.25121 45.8546 3.40453 45.2241 3.56674 44.5987L2.59877 44.3476C2.43399 44.9829 2.27826 45.6233 2.1318 46.2688L3.10701 46.4901ZM4.08603 42.7167C4.26934 42.0903 4.46164 41.4693 4.66266 40.8539L3.71209 40.5434C3.50786 41.1686 3.31251 41.7995 3.12629 42.4358L4.08603 42.7167ZM5.29627 39.0116C5.51774 38.3988 5.74794 37.7918 5.9866 37.1908L5.0572 36.8218C4.8147 37.4324 4.58082 38.0491 4.35581 38.6717L5.29627 39.0116ZM6.73513 35.3888C6.99477 34.7903 7.26289 34.1982 7.53921 33.6125L6.6348 33.1858C6.35402 33.781 6.08158 34.3827 5.81776 34.9907L6.73513 35.3888ZM8.3982 31.8636C8.69456 31.2834 8.99905 30.7101 9.3114 30.1435L8.43568 29.6607C8.11826 30.2364 7.80883 30.8191 7.50768 31.4086L8.3982 31.8636ZM10.2798 28.4511C10.6127 27.8902 10.9533 27.3365 11.3015 26.7901L10.4582 26.2527C10.1043 26.808 9.75812 27.3707 9.41983 27.9407L10.2798 28.4511ZM12.375 25.1635C12.7426 24.6254 13.1175 24.0951 13.4995 23.5727L12.6923 22.9825C12.304 23.5135 11.9229 24.0525 11.5493 24.5994L12.375 25.1635ZM14.674 22.0195C15.0757 21.5056 15.4843 21.0001 15.8996 20.5029L15.1322 19.8618C14.71 20.3673 14.2945 20.8812 13.8861 21.4036L14.674 22.0195ZM17.1737 19.0274C17.6077 18.541 18.0481 18.0635 18.4948 17.5949L17.7709 16.905C17.3167 17.3815 16.8688 17.8671 16.4275 18.3616L17.1737 19.0274ZM19.8619 16.2074C20.3267 15.751 20.7975 15.3041 21.2739 14.8667L20.5976 14.1301C20.113 14.575 19.6341 15.0297 19.1613 15.4938L19.8619 16.2074ZM22.7304 13.5742C23.2255 13.1497 23.7259 12.7353 24.2314 12.3311L23.6069 11.55C23.0924 11.9614 22.5832 12.3831 22.0795 12.8151L22.7304 13.5742ZM25.7739 11.1411C26.2968 10.7521 26.8245 10.3738 27.3567 10.0065L26.7886 9.18353C26.2467 9.55762 25.7094 9.94276 25.177 10.3388L25.7739 11.1411ZM28.9784 8.9296C29.5274 8.57915 30.0806 8.24017 30.6376 7.91284L30.1309 7.0507C29.5633 7.38428 28.9996 7.72967 28.4403 8.08668L28.9784 8.9296ZM32.3328 6.95882C32.9061 6.65032 33.4828 6.35406 34.0625 6.07027L33.6229 5.1721C33.0315 5.46159 32.4434 5.76371 31.8589 6.07825L32.3328 6.95882ZM35.8269 5.24917C36.4227 4.98615 37.0212 4.73623 37.622 4.49964L37.2556 3.56919C36.6421 3.81078 36.0311 4.06591 35.4231 4.33434L35.8269 5.24917ZM39.4456 3.82487C40.0605 3.61192 40.6772 3.41295 41.2953 3.22819L41.0089 2.27007C40.3769 2.45898 39.7466 2.66235 39.1183 2.87995L39.4456 3.82487Z" fill="#182129"/>
</svg>
