<?xml version="1.0" standalone="no"?><!DOCTYPE svg PUBLIC "-//W3C//DTD SVG 1.1//EN" "http://www.w3.org/Graphics/SVG/1.1/DTD/svg11.dtd"><svg t="1711939885355" class="icon" viewBox="0 0 1024 1024" version="1.1" xmlns="http://www.w3.org/2000/svg" p-id="894" xmlns:xlink="http://www.w3.org/1999/xlink" width="24" height="24"><path d="M973.312 555.15591147l-194.51448853 352.7111104a78.71146667 78.71146667 0 0 1-68.8696896 40.88035626h-386.2755552a78.71146667 78.71146667 0 0 1-68.86968854-40.88035626l-194.5144896-352.7111104a80.3612448 80.3612448 0 0 1 0-77.52817814l194.5144896-352.71111146a78.71146667 78.71146667 0 0 1 68.86968854-40.8803552h386.2755552a78.71146667 78.71146667 0 0 1 68.8696896 40.8803552l194.51448853 352.71111146a80.3612448 80.3612448 0 0 1 0 77.52817814z m-59.7219552-33.22311147a11.4915552 11.4915552 0 0 0 0-11.07057813l-194.17315627-352.7111104a11.21848853 11.21848853 0 0 0-9.81902186-5.84817814H323.98222187a11.21848853 11.21848853 0 0 0-9.81902187 5.84817814l-194.1731552 352.7111104a11.4915552 11.4915552 0 0 0 0 11.07057813l194.1731552 352.71111147a11.21848853 11.21848853 0 0 0 9.81902187 5.8368h385.6156448a11.21848853 11.21848853 0 0 0 9.81902186-5.8368l194.17315627-352.71111147zM513.85457813 694.0444448c-100.54542187 0-182.0444448-81.49902187-182.0444448-182.0444448s81.49902187-182.0444448 182.0444448-182.0444448c100.5340448 0 182.0444448 81.49902187 182.04444374 182.0444448s-81.5104 182.0444448-182.04444374 182.0444448z m0-68.26666667c62.83946667 0 113.77777813-50.93831147 113.77777707-113.77777813s-50.93831147-113.77777813-113.77777707-113.77777813-113.77777813 50.93831147-113.77777813 113.77777813 50.93831147 113.77777813 113.77777813 113.77777813z" fill="#30414D" p-id="895"></path></svg>