<svg width="9" height="9" viewBox="0 0 9 9" fill="none" xmlns="http://www.w3.org/2000/svg">
<path d="M5.53248 1.55079L5.53252 1.55083L5.53746 1.54551C5.87267 1.18463 6.29706 1 6.73222 1C7.64928 1 8.49871 1.86605 8.5 3.06171C8.49988 3.76454 8.26472 4.10693 7.94456 4.55825L7.94104 4.56252L5.14402 7.754C5.14376 7.7543 5.14349 7.75461 5.14322 7.75491C4.96545 7.9554 4.84403 8 4.75076 8C4.6575 8 4.53608 7.9554 4.35833 7.75494C4.35805 7.75463 4.35778 7.75432 4.3575 7.754L1.55923 4.56111C1.29161 4.23357 1 3.72525 1 3.05945C1 1.866 1.84764 1 2.76626 1C3.20349 1 3.62802 1.186 3.96325 1.5465L4.37854 2.01382L4.75641 2.43903L5.12963 2.00972C5.21168 1.91535 5.30557 1.8076 5.38388 1.7183C5.42309 1.6736 5.45793 1.63403 5.48525 1.60329L5.51905 1.5655C5.52877 1.55474 5.53257 1.5507 5.53248 1.55079Z" stroke="white"/>
</svg>
