<svg width="25" height="26" viewBox="0 0 25 26" fill="none" xmlns="http://www.w3.org/2000/svg">
<path d="M14.4631 23.1798C15.267 24.0189 13.9486 25.3067 13.0405 24.4967C12.1187 23.6698 11.1939 22.8445 10.2705 22.0176C9.8831 21.6715 9.89382 20.9962 10.2613 20.6456C11.1724 19.7697 12.082 18.8938 12.9931 18.0195C13.8689 17.1819 15.1858 18.4314 14.4493 19.2996C18.991 18.7729 20.6248 13.7886 18.158 10.2086C16.7309 8.14752 20.0261 6.30543 21.4379 8.34964C25.7361 14.5757 21.6829 22.3881 14.4631 23.1798ZM4.01688 17.6443C-0.282867 11.4198 3.76882 3.61349 10.9841 2.81877C10.1817 1.98118 11.5001 0.691863 12.4066 1.50343C13.3299 2.32724 14.2518 3.15258 15.1782 3.98099C15.5625 4.32399 15.5549 4.99927 15.1874 5.35299C14.2763 6.22733 13.3682 7.10014 12.4556 7.97449C11.5828 8.81361 10.2644 7.56258 11.0009 6.69743C6.46076 7.22111 4.82538 12.2069 7.29529 15.7854C8.71935 17.8434 5.42716 19.687 4.01688 17.6443Z" fill="#30414D"/>
</svg>
