<svg xmlns="http://www.w3.org/2000/svg" viewBox="0 0 43 43" class="design-iconfont">
  <defs>
    <linearGradient x1="0%" y1="0%" x2="100%" y2="100%" id="7fr9fe6d0a">
      <stop stop-color="#FFF" offset="0%"/>
      <stop stop-color="#FFF" offset="100%"/>
    </linearGradient>
  </defs>
  <g fill="none" fill-rule="evenodd">
    <rect fill="url(#7fr9fe6d0a)" width="43" height="43" rx="21.5"/>
    <path d="M21.5,11 C22.3284271,11 23,11.6715729 23,12.5 L23,12.5 L23,20 L30.5,20 C31.2796961,20 31.9204487,20.5948881 31.9931334,21.35554 L32,21.5 C32,22.3284271 31.3284271,23 30.5,23 L30.5,23 L23,23 L23,30.5 C23,31.2796961 22.4051119,31.9204487 21.64446,31.9931334 L21.5,32 C20.6715729,32 20,31.3284271 20,30.5 L20,30.5 L20,23 L12.5,23 C11.7203039,23 11.0795513,22.4051119 11.0068666,21.64446 L11,21.5 C11,20.6715729 11.6715729,20 12.5,20 L12.5,20 L20,20 L20,12.5 C20,11.7203039 20.5948881,11.0795513 21.35554,11.0068666 Z" fill="#2B57FF"/>
  </g>
</svg>
