<?xml version="1.0" encoding="utf-8"?>
<!-- Generator: Adobe Illustrator 22.1.0, SVG Export Plug-In . SVG Version: 6.00 Build 0)  -->
<svg version="1.1" id="图层_1" xmlns="http://www.w3.org/2000/svg" xmlns:xlink="http://www.w3.org/1999/xlink" x="0px" y="0px"
	 viewBox="0 0 48 48" enable-background="new 0 0 48 48" xml:space="preserve">
<g>
	<path fill="#0066FF" d="M10,20c-2.2,0-4,1.8-4,4s1.8,4,4,4s4-1.8,4-4S12.2,20,10,20z M38,20c-2.2,0-4,1.8-4,4s1.8,4,4,4
		c2.2,0,4-1.8,4-4S40.2,20,38,20z M24,20c-2.2,0-4,1.8-4,4s1.8,4,4,4s4-1.8,4-4S26.2,20,24,20z"/>
</g>
</svg>
