<?xml version="1.0" encoding="utf-8"?>
<!-- Generator: Adobe Illustrator 22.1.0, SVG Export Plug-In . SVG Version: 6.00 Build 0)  -->
<svg version="1.1" id="图层_1" xmlns="http://www.w3.org/2000/svg" xmlns:xlink="http://www.w3.org/1999/xlink" x="0px" y="0px"
	 viewBox="0 0 48 48" enable-background="new 0 0 48 48" xml:space="preserve">
<g>
	<path fill="#0066FF" d="M4,10l14-6l12,6l12.6-5.4c0.3-0.1,0.7-0.1,0.9,0.1s0.4,0.5,0.4,0.8V38l-14,6l-12-6L5.3,43.4
		c-0.3,0.1-0.7,0.1-0.9-0.1C4.1,43.1,4,42.8,4,42.5C4,42.5,4,10,4,10z M32,38.8l8-3.4V10.1l-8,3.4V38.8z M28,38.5v-25l-8-4v25.1
		L28,38.5z M16,34.5V9.2l-8,3.4v25.3L16,34.5z"/>
</g>
</svg>
