<?xml version="1.0" encoding="utf-8"?>
<!-- Generator: Adobe Illustrator 22.1.0, SVG Export Plug-In . SVG Version: 6.00 Build 0)  -->
<svg version="1.1" id="图层_1" xmlns="http://www.w3.org/2000/svg" xmlns:xlink="http://www.w3.org/1999/xlink" x="0px" y="0px"
	 viewBox="0 0 48 48" enable-background="new 0 0 48 48" xml:space="preserve">
<g transform="translate(16 16)">
	<path fill="#666666" d="M8-12L8-12c1.1,0,2,0.9,2,2v4c0,1.1-0.9,2-2,2l0,0C6.9-4,6-4.9,6-6v-4C6-11.1,6.9-12,8-12z"/>
	<path fill="#666666" d="M8,20L8,20c1.1,0,2,0.9,2,2v4c0,1.1-0.9,2-2,2l0,0c-1.1,0-2-0.9-2-2v-4C6,20.9,6.9,20,8,20z"/>
	<path fill="#666666" d="M22,6h4c1.1,0,2,0.9,2,2l0,0c0,1.1-0.9,2-2,2h-4c-1.1,0-2-0.9-2-2l0,0C20,6.9,20.9,6,22,6z"/>
	<path fill="#666666" d="M-10,6h4c1.1,0,2,0.9,2,2l0,0c0,1.1-0.9,2-2,2h-4c-1.1,0-2-0.9-2-2l0,0C-12,6.9-11.1,6-10,6z"/>
	<path fill="#666666" d="M8,20c6.6,0,12-5.4,12-12S14.6-4,8-4S-4,1.4-4,8S1.4,20,8,20z M8,24C-0.8,24-8,16.8-8,8S-0.8-8,8-8
		S24-0.8,24,8S16.8,24,8,24z"/>
	<path fill="#666666" d="M8,5C6.3,5,5,6.3,5,8s1.3,3,3,3s3-1.3,3-3S9.7,5,8,5z"/>
</g>
</svg>
