<?xml version="1.0" encoding="utf-8"?>
<!-- Generator: Adobe Illustrator 22.1.0, SVG Export Plug-In . SVG Version: 6.00 Build 0)  -->
<svg version="1.1" id="图层_1" xmlns="http://www.w3.org/2000/svg" xmlns:xlink="http://www.w3.org/1999/xlink" x="0px" y="0px"
	 viewBox="0 0 40 47.4" enable-background="new 0 0 40 47.4" xml:space="preserve">
<g transform="translate(12.363636)">
	<g>
		<path id="xh286hp6eb" d="M21.5,5.8c7.7,7.7,7.7,20.1,0,27.8L7.6,47.4L-6.2,33.5c-7.7-7.7-7.7-20.1,0-27.8S13.9-1.9,21.5,5.8z
			 M7.6,10.9c-4.8,0-8.7,3.9-8.7,8.7s3.9,8.7,8.7,8.7s8.7-3.9,8.7-8.7S12.5,10.9,7.6,10.9z"/>
	</g>
	<g>
		<path id="xh286hp6eb_1_" fill="#075DE7" d="M21.5,5.8c7.7,7.7,7.7,20.1,0,27.8L7.6,47.4L-6.2,33.5c-7.7-7.7-7.7-20.1,0-27.8
			S13.9-1.9,21.5,5.8z M7.6,10.9c-4.8,0-8.7,3.9-8.7,8.7s3.9,8.7,8.7,8.7s8.7-3.9,8.7-8.7S12.5,10.9,7.6,10.9z"/>
	</g>
	<g>
		
			<radialGradient id="xh286hp6eb_3_" cx="-287.7225" cy="439.4514" r="0.6036" gradientTransform="matrix(0 39.2729 39.2727 0 -17250.8164 11323.3877)" gradientUnits="userSpaceOnUse">
			<stop  offset="0" style="stop-color:#FFFFFF"/>
			<stop  offset="1" style="stop-color:#FFFFFF;stop-opacity:0"/>
		</radialGradient>
		<path id="xh286hp6eb_2_" fill="url(#xh286hp6eb_3_)" fill-opacity="0.3" d="M21.5,5.8c7.7,7.7,7.7,20.1,0,27.8L7.6,47.4L-6.2,33.5
			c-7.7-7.7-7.7-20.1,0-27.8S13.9-1.9,21.5,5.8z M7.6,10.9c-4.8,0-8.7,3.9-8.7,8.7s3.9,8.7,8.7,8.7s8.7-3.9,8.7-8.7
			S12.5,10.9,7.6,10.9z"/>
	</g>
</g>
</svg>
