<svg width="25" height="24" viewBox="0 0 25 24" fill="none" xmlns="http://www.w3.org/2000/svg">
<g clip-path="url(#clip0_1628_8515)">
<path d="M20.5007 21.8359L17.4499 24.3411C17.2876 24.432 17.1052 24.4297 16.9451 24.3348C16.785 24.2399 16.6945 24.0803 16.6945 23.8931V-0.485484C16.6945 -0.672683 16.785 -0.832185 16.9451 -0.927143C17.1052 -1.02204 17.2876 -1.02434 17.4499 -0.933426L20.5007 1.57177C20.6669 1.66485 20.7622 1.82807 20.7622 2.01974V21.3879C20.7622 21.5796 20.6669 21.7428 20.5007 21.8359ZM13.8907 20.8731L11.3484 22.8236C11.1861 22.9127 11.0037 22.9104 10.8437 22.8175C10.6836 22.7246 10.5931 22.5684 10.5931 22.3852V0.516562C10.5931 0.33335 10.6836 0.1772 10.8437 0.084326C11.0037 -0.00860876 11.1861 -0.0108135 11.3484 0.0781647L13.8907 2.02868C14.057 2.11974 14.1522 2.27957 14.1522 2.4671V20.4347C14.1522 20.6222 14.057 20.782 13.8907 20.8731ZM7.78922 19.8485L5.75538 21.7958C5.59307 21.8847 5.4107 21.8824 5.25063 21.7896C5.09052 21.6969 5 21.541 5 21.3581V1.528C5 1.34509 5.09052 1.18918 5.25063 1.09643C5.4107 1.00368 5.59307 1.00147 5.75538 1.0903L7.78922 3.03764C7.95546 3.12858 8.05078 3.28811 8.05078 3.47534V19.4107C8.05078 19.598 7.95546 19.7575 7.78922 19.8485Z" fill="#FED95D"/>
</g>
<defs>
<clipPath id="clip0_1628_8515">
<rect width="24" height="24" fill="#FED95D" transform="translate(0.5)"/>
</clipPath>
</defs>
</svg>
