<?xml version="1.0" encoding="UTF-8"?>
<svg width="83px" height="83px" viewBox="0 0 83 83" version="1.1" xmlns="http://www.w3.org/2000/svg" xmlns:xlink="http://www.w3.org/1999/xlink">
    <title>4-1-报警-选中</title>
    <defs>
        <linearGradient x1="12.6872481%" y1="5.07753516%" x2="104.602754%" y2="105.080729%" id="linearGradient-1">
            <stop stop-color="#C8F664" offset="0%"></stop>
            <stop stop-color="#79FD8D" offset="100%"></stop>
        </linearGradient>
    </defs>
    <g id="页面-1" stroke="none" stroke-width="1" fill="none" fill-rule="evenodd">
        <g id="切图" transform="translate(-720.000000, -1597.000000)" fill="url(#linearGradient-1)" fill-rule="nonzero">
            <g id="编组" transform="translate(41.000000, 103.000000)">
                <path d="M747.542182,1573.32822 C746.836373,1572.62305 745.927745,1572.12051 744.913651,1571.91787 C744.305195,1571.79629 743.867106,1571.27754 743.867106,1570.66152 L743.867106,1540.86582 C743.867106,1527.97813 733.312418,1517.29512 720.413146,1517.34358 C707.554437,1517.39238 697.137666,1527.82412 697.137666,1540.6875 L697.137666,1570.66152 C697.137666,1571.27754 696.699577,1571.79629 696.091121,1571.91787 C693.722198,1572.4042 691.945505,1574.49541 691.945505,1577 L749.059266,1577 C749.059266,1575.56533 748.475148,1574.26846 747.542182,1573.32822 Z M724.988737,1531.60938 L723.414863,1545.65615 L729.588666,1545.65615 L716.024148,1565.32812 L717.598021,1551.28135 L711.416106,1551.28135 L724.988737,1531.60938 Z M720.502386,1510.85938 C719.066429,1510.85938 717.906306,1509.70029 717.906306,1508.26562 L717.906306,1496.59375 C717.906306,1495.15908 719.066429,1494 720.502386,1494 C721.938343,1494 723.098466,1495.15908 723.098466,1496.59375 L723.098466,1508.26562 C723.098466,1509.70029 721.938343,1510.85938 720.502386,1510.85938 Z M701.680806,1518.00029 C700.439555,1518.71357 698.849456,1518.29209 698.135534,1517.05195 L692.294354,1506.94443 C691.580432,1505.7043 692.002295,1504.11562 693.243545,1503.40234 C694.484796,1502.68906 696.074895,1503.11055 696.788817,1504.35068 L702.629997,1514.4582 C703.343919,1515.69834 702.922056,1517.27891 701.680806,1518.00029 Z M739.323966,1518.00029 C740.565217,1518.71357 742.155316,1518.29209 742.869238,1517.05195 L748.710418,1506.94443 C749.42434,1505.7043 749.002477,1504.11562 747.761226,1503.40234 C746.519975,1502.68906 744.929876,1503.11055 744.215954,1504.35068 L738.374774,1514.4582 C737.660852,1515.69834 738.082715,1517.27891 739.323966,1518.00029 Z M695.393424,1530.06123 C695.020238,1531.44727 693.600506,1532.26592 692.213226,1531.89307 L680.928391,1528.87783 C679.541111,1528.50498 678.721723,1527.08652 679.086797,1525.70049 C679.459983,1524.31445 680.879714,1523.4958 682.266995,1523.86865 L693.55183,1526.89199 C694.93911,1527.25674 695.758498,1528.6752 695.393424,1530.06123 L695.393424,1530.06123 Z M745.611347,1530.06123 C745.984534,1531.44727 747.404265,1532.26592 748.791545,1531.89307 L760.076381,1528.86973 C761.463661,1528.49688 762.283049,1527.07842 761.909862,1525.69238 C761.536676,1524.30635 760.116945,1523.4877 758.729664,1523.86055 L747.444829,1526.88389 C746.065661,1527.25674 745.246274,1528.6752 745.611347,1530.06123 Z" id="4-1-报警-选中"></path>
            </g>
        </g>
    </g>
</svg>