<?xml version="1.0" encoding="UTF-8"?>
<svg width="51px" height="77px" viewBox="0 0 51 77" version="1.1" xmlns="http://www.w3.org/2000/svg" xmlns:xlink="http://www.w3.org/1999/xlink">
    <title>4-1-蓝牙-选中</title>
    <defs>
        <linearGradient x1="33.6312249%" y1="5.07753516%" x2="73.9537466%" y2="105.080729%" id="linearGradient-1">
            <stop stop-color="#C8F664" offset="0%"></stop>
            <stop stop-color="#79FD8D" offset="100%"></stop>
        </linearGradient>
    </defs>
    <g id="页面-1" stroke="none" stroke-width="1" fill="none" fill-rule="evenodd">
        <g id="切图" transform="translate(-619.000000, -1597.000000)" fill="url(#linearGradient-1)" fill-rule="nonzero">
            <g id="编组" transform="translate(41.000000, 103.000000)">
                <path d="M609,1557 L609,1541 L619,1549 L609,1557 Z M609,1508.00436 L619,1516.00218 L609,1524 L609,1508 L609,1508.00436 Z M610.420903,1532.50433 L627.385254,1518.81273 C628.406572,1517.98531 629,1516.74017 629,1515.42462 C629,1514.10908 628.406572,1512.86393 627.385254,1512.03652 L606.225419,1494.96116 C604.92364,1493.91192 603.136197,1493.70366 601.62864,1494.42557 C600.121082,1495.14747 599.160814,1496.6715 599.159111,1498.34491 L599.159111,1523.40559 L585.069927,1512.03652 C583.201374,1510.52923 580.466441,1510.82424 578.961284,1512.69543 C577.456127,1514.56663 577.750718,1517.30544 579.619272,1518.81273 L596.579279,1532.49998 L579.619272,1546.18723 C577.789769,1547.70514 577.517731,1550.41345 579.008704,1552.26583 C580.499678,1554.1182 583.200251,1554.42709 585.069927,1552.9591 L599.159111,1541.59002 L599.159111,1566.6507 C599.161505,1569.05176 601.104599,1570.9976 603.502263,1571 C604.493002,1571 605.454072,1570.66145 606.225419,1570.0388 L627.385254,1552.96344 C628.404977,1552.13598 628.997318,1550.89185 628.997318,1549.57751 C628.997318,1548.26318 628.404977,1547.01904 627.385254,1546.19158 L610.420903,1532.49998 L610.420903,1532.50433 Z" id="4-1-蓝牙-选中"></path>
            </g>
        </g>
    </g>
</svg>