<?xml version="1.0" standalone="no"?><!DOCTYPE svg PUBLIC "-//W3C//DTD SVG 1.1//EN" "http://www.w3.org/Graphics/SVG/1.1/DTD/svg11.dtd"><svg t="1715829492042" class="icon" viewBox="0 0 1024 1024" version="1.1" xmlns="http://www.w3.org/2000/svg" p-id="1332" xmlns:xlink="http://www.w3.org/1999/xlink" width="24" height="24"><path d="M512 123.6385189a388.3614811 388.3614811 0 1 0 0 776.7229622 388.3614811 388.3614811 0 0 0 0-776.7229622zM26.54814777 512C26.54814777 243.88494222 243.88494222 26.54814777 512 26.54814777s485.45185223 217.33679445 485.45185223 485.45185223-217.33679445 485.45185223-485.45185223 485.45185223S26.54814777 780.11505778 26.54814777 512z" fill="#30414D" p-id="1333"></path><path d="M455.05649778 218.39872C430.78390557 291.31358777 414.90963001 395.10319445 414.90963001 512s15.87427555 220.68641223 40.14686777 293.60128c12.23338667 36.70016 25.72894777 62.91456 38.35069667 78.93447111 6.21378333 7.86432 11.26248334 12.03920555 14.66064555 14.07810332 1.60199111 1.01944889 2.66998557 1.45635555 3.20398222 1.60199112L512 900.3614811l0.72817778-0.14563555a14.22373888 14.22373888 0 0 0 3.20398222-1.55344555c3.39816334-2.08744334 8.44686222-6.31087445 14.61210112-14.12664889 12.62174777-16.01991111 26.16585443-42.23431111 38.35069554-78.93447111 24.32113778-72.91486777 40.19541333-176.70447445 40.19541333-293.60128s-15.87427555-220.68641223-40.14686777-293.60128c-12.23338667-36.70016-25.72894777-62.91456-38.35069667-78.93447111a60.00184889 60.00184889 0 0 0-14.66064555-14.07810332 14.36937443 14.36937443 0 0 0-3.20398222-1.60199112L512 123.6385189l-0.72817778 0.14563555a14.36937443 14.36937443 0 0 0-3.20398222 1.55344555c-3.39816334 2.08744334-8.44686222 6.31087445-14.61210112 14.12664889-12.62174777 16.01991111-26.16585443 42.23431111-38.35069554 78.93447111z m-37.86524445-139.03340999C438.9880411 51.69455445 470.63950222 26.54814777 512 26.54814777c41.36049778 0 73.0119589 25.19495111 94.80874667 52.81716224 22.23369443 28.20475221 40.09832334 66.02145223 54.22497223 108.35285333 28.39893333 85.1968 45.14702222 199.86052779 45.14702222 324.28183666 0 124.42131001-16.74808889 239.08503666-45.14702222 324.28183666-14.07810333 42.37994667-32.03982222 80.14810112-54.22497223 108.35285333C585.0119589 972.30544555 553.36049778 997.45185223 512 997.45185223c-41.36049778 0-73.0119589-25.19495111-94.80874667-52.81716224-22.23369443-28.20475221-40.09832334-66.02145223-54.22497223-108.35285333C334.56734777 751.08503666 317.81925888 636.42131001 317.81925888 512c0-124.42131001 16.74808889-239.08503666 45.14702222-324.28183666 14.07810333-42.37994667 32.03982222-80.14810112 54.22497223-108.35285333z" fill="#30414D" p-id="1334"></path><path d="M123.6385189 512l0.14563555 0.72817778a14.36937443 14.36937443 0 0 0 1.55344555 3.20398222c2.08744334 3.39816334 6.31087445 8.44686222 14.12664889 14.61210112 16.01991111 12.62174777 42.23431111 26.16585443 78.93447111 38.35069554C291.31358777 593.26464 395.10319445 609.09036999 512 609.09036999s220.68641223-15.87427555 293.60128-40.14686777c36.70016-12.23338667 62.91456-25.72894777 78.93447111-38.35069667 7.86432-6.21378333 12.03920555-11.26248334 14.07810332-14.66064555a14.22373888 14.22373888 0 0 0 1.60199112-3.20398222L900.3614811 512l-0.14563555-0.72817778a14.22373888 14.22373888 0 0 0-1.55344555-3.20398222 59.95330333 59.95330333 0 0 0-14.12664889-14.61210112c-16.01991111-12.62174777-42.23431111-26.16585443-78.93447111-38.35069554C732.68641223 430.73536 628.89680555 414.90963001 512 414.90963001s-220.68641223 15.87427555-293.60128 40.14686777c-36.70016 12.23338667-62.91456 25.72894777-78.93447111 38.35069667a60.00184889 60.00184889 0 0 0-14.07810332 14.66064555 14.36937443 14.36937443 0 0 0-1.60199112 3.20398222L123.6385189 512z m64.07964444-149.0337189C272.91496334 334.56734777 387.57868999 317.81925888 512 317.81925888c124.42131001 0 239.08503666 16.74808889 324.28183666 45.14702222 42.37994667 14.07810333 80.14810112 32.03982222 108.35285333 54.22497223C972.30544555 438.9880411 997.45185223 470.63950222 997.45185223 512c0 41.36049778-25.19495111 73.0119589-52.81716224 94.80874667-28.20475221 22.23369443-66.02145223 40.09832334-108.35285333 54.22497223-85.1968 28.39893333-199.86052779 45.14702222-324.28183666 45.14702222-124.42131001 0-239.08503666-16.74808889-324.28183666-45.14702222-42.37994667-14.07810333-80.14810112-32.03982222-108.35285333-54.22497223C51.69455445 585.0119589 26.54814777 553.36049778 26.54814777 512c0-41.36049778 25.19495111-73.0119589 52.81716224-94.80874667 28.20475221-22.23369443 66.02145223-40.09832334 108.35285333-54.22497223z" fill="#30414D" p-id="1335"></path></svg>