<?xml version="1.0" standalone="no"?><!DOCTYPE svg PUBLIC "-//W3C//DTD SVG 1.1//EN" "http://www.w3.org/Graphics/SVG/1.1/DTD/svg11.dtd"><svg t="1712471940298" class="icon" viewBox="0 0 1024 1024" version="1.1" xmlns="http://www.w3.org/2000/svg" p-id="1490" xmlns:xlink="http://www.w3.org/1999/xlink" width="24" height="24"><path d="M882.15703703 84.80237037h46.11792594c37.53513718 0 67.96325925 30.42812208 67.96325925 67.96325926v719.68237037c0 37.53513718-30.42812208 67.96325925-67.96325925 67.96325925h-46.11792594c-37.53513718 0-67.96325925-30.42812208-67.96325925-67.96325925V152.76562963c0-37.53513718 30.42812208-67.96325925 67.96325925-67.96325926zM677.43470933 553.49521067l-512.52064711 368.21522963c-39.19295525 28.15742103-93.79172503 19.21175703-121.9503597-19.98119822A87.38133333 87.38133333 0 0 1 26.54814815 850.74466133V172.261376c0-48.25876859 39.12135111-87.38133333 87.38133333-87.38133333a87.38133333 87.38133333 0 0 1 48.4845037 14.68491851l513.07648949 342.19379674c31.22669037 20.82588445 39.65777541 63.02378667 18.83189096 94.25047705a67.96325925 67.96325925 0 0 1-16.8876563 17.4859757z" fill="#30414D" p-id="1491"></path></svg>