<?xml version="1.0" standalone="no"?><!DOCTYPE svg PUBLIC "-//W3C//DTD SVG 1.1//EN" "http://www.w3.org/Graphics/SVG/1.1/DTD/svg11.dtd"><svg t="1712471926849" class="icon" viewBox="0 0 1024 1024" version="1.1" xmlns="http://www.w3.org/2000/svg" p-id="1047" xmlns:xlink="http://www.w3.org/1999/xlink" width="24" height="24"><path d="M512 36.266667c-260.266667 0-469.333333 211.2-469.333333 469.333333 0 260.266667 211.2 469.333333 469.333333 469.333333s469.333333-211.2 469.333333-469.333333c0-260.266667-209.066667-469.333333-469.333333-469.333333z m-51.2 595.2c0 23.466667-19.2 40.533333-40.533333 40.533333-23.466667 0-40.533333-19.2-40.533334-40.533333V369.066667c0-23.466667 19.2-40.533333 40.533334-40.533334s40.533333 19.2 40.533333 40.533334v262.4z m192 0c0 23.466667-19.2 40.533333-40.533333 40.533333-23.466667 0-40.533333-19.2-40.533334-40.533333V369.066667c0-23.466667 19.2-40.533333 40.533334-40.533334s40.533333 19.2 40.533333 40.533334v262.4z" fill="#30414D" p-id="1048"></path></svg>