<?xml version="1.0" standalone="no"?><!DOCTYPE svg PUBLIC "-//W3C//DTD SVG 1.1//EN" "http://www.w3.org/Graphics/SVG/1.1/DTD/svg11.dtd"><svg t="1712471936511" class="icon" viewBox="0 0 1024 1024" version="1.1" xmlns="http://www.w3.org/2000/svg" p-id="1341" xmlns:xlink="http://www.w3.org/1999/xlink" width="24" height="24"><path d="M140.62933333 940.41125925h-46.11792592c-37.53513718 0-67.96325925-30.42812208-67.96325926-67.96325925V152.76562963c0-37.53513718 30.42812208-67.96325925 67.96325926-67.96325926h46.11792592c37.53513718 0 67.96325925 30.42812208 67.96325926 67.96325926v719.68237037c0 37.53513718-30.42812208 67.96325925-67.96325926 67.96325925z m204.7223277-468.69284028l512.52064712-368.21522964c39.19295525-28.15742103 93.79172503-19.21175703 121.9503597 19.98119822A87.38133333 87.38133333 0 0 1 996.23822222 174.4689683v678.48328533c0 48.25876859-39.12135111 87.38133333-87.38133333 87.38133334a87.38133333 87.38133333 0 0 1-48.48450371-14.68491852L347.2958957 583.4548717c-31.22669037-20.82588445-39.65777541-63.02378667-18.83189095-94.25047703a67.96325925 67.96325925 0 0 1 16.88765628-17.4859757z" fill="#30414D" p-id="1342"></path></svg>