<svg width="16" height="16" viewBox="0 0 16 16" fill="none" xmlns="http://www.w3.org/2000/svg">
<path d="M5.06641 7.98512C5.06641 9.59611 6.37219 10.9019 7.98317 10.9019C9.59415 10.9019 10.8999 9.59611 10.8999 7.98512C10.8999 6.37414 9.59415 5.06836 7.98317 5.06836C6.37219 5.06836 5.06641 6.37414 5.06641 7.98512Z" fill="#D81E06"/>
<path fill-rule="evenodd" clip-rule="evenodd" d="M7.5232 0.461062C7.5232 0.21005 7.72717 0.00585938 7.9836 0.00585938C8.23765 0.00585938 8.44422 0.211351 8.44422 0.461062V1.69834C8.44361 1.94988 8.23955 2.15355 7.98794 2.15355H7.98725H7.9836H7.98185C7.72974 2.15355 7.52517 1.95017 7.5232 1.69853V0.461062ZM12.1026 3.21385L12.9772 2.33929C13.0599 2.25722 13.1738 2.20648 13.2995 2.20648C13.4267 2.20648 13.5417 2.25834 13.6246 2.34207C13.8037 2.5205 13.8054 2.80988 13.6283 2.99022L12.7528 3.86508C12.6705 3.94741 12.5567 3.99832 12.4311 3.99832C12.3039 3.99832 12.1889 3.94617 12.1063 3.8621C12.0225 3.77879 11.9707 3.66351 11.9707 3.53612C11.9707 3.41058 12.021 3.29678 12.1026 3.21385ZM0.459109 8.44444H1.69726H1.69739C1.94851 8.44296 2.15159 8.23895 2.15159 7.98751V7.98491C2.15159 7.72869 1.94827 7.5245 1.69639 7.5245H0.459109C0.209614 7.5245 0.00390625 7.73086 0.00390625 7.98491V7.98789V7.98881C0.00390625 8.24029 0.207645 8.44419 0.459109 8.44444ZM2.34104 2.34213C2.42426 2.25859 2.53942 2.20689 2.66662 2.20689C2.79233 2.20689 2.90625 2.25736 2.9892 2.33915L3.86379 3.21374C3.94603 3.29641 3.99688 3.41041 3.99688 3.53628C3.99688 3.66301 3.94533 3.7777 3.86207 3.86054L3.86075 3.86164C3.77753 3.94518 3.66238 3.99688 3.53517 3.99688C3.40947 3.99688 3.29554 3.94641 3.21259 3.86462L2.33801 2.98982C2.25588 2.90716 2.20512 2.79325 2.20512 2.66749C2.20512 2.54023 2.2571 2.4251 2.34099 2.34219L2.34104 2.34213ZM2.98951 13.6305L3.86415 12.7559L3.86404 12.7559C3.94573 12.673 3.99611 12.5592 3.99611 12.4336C3.99611 12.3066 3.94457 12.1916 3.86126 12.1084C3.7781 12.0243 3.66265 11.9722 3.53507 11.9722C3.40963 11.9722 3.29594 12.0226 3.21318 12.1041L2.33866 12.9799C2.25841 13.0627 2.20898 13.1756 2.20898 13.3001C2.20898 13.5543 2.41502 13.7603 2.66917 13.7603C2.79376 13.7603 2.90676 13.7108 2.98951 13.6305ZM8.44422 15.5094C8.44361 15.7609 8.23955 15.9646 7.98794 15.9646H7.98725H7.9836H7.98272C7.73044 15.9646 7.52565 15.7613 7.5232 15.5096V14.2728C7.52358 14.0204 7.72818 13.816 7.98057 13.816L7.98377 13.8161C8.23765 13.8161 8.44422 14.0226 8.44422 14.2728V15.5094ZM3.37912 7.98512C3.37934 10.528 5.44097 12.589 7.9836 12.589C10.5262 12.5887 12.5874 10.5273 12.5872 7.98426C12.5872 5.44163 10.5258 3.38064 7.98295 3.38064C5.44011 3.38064 3.37912 5.44228 3.37912 7.98512ZM13.6251 13.6275C13.5421 13.7113 13.427 13.7632 13.2998 13.7632C13.1743 13.7632 13.0607 13.7127 12.978 13.6309L12.103 12.7559C12.0212 12.6732 11.9707 12.5596 11.9707 12.4341C11.9707 12.3067 12.0228 12.1914 12.1068 12.1084C12.1899 12.0247 12.305 11.9728 12.4322 11.9728C12.5573 11.9728 12.6706 12.0229 12.7533 12.1041L13.6287 12.98C13.8063 13.159 13.8054 13.4482 13.6266 13.6257L13.6251 13.6275ZM14.2697 8.44442H15.5074H15.5075C15.759 8.44268 15.9624 8.23828 15.9624 7.9864V7.98488C15.9624 7.72867 15.7582 7.52448 15.5074 7.52448H14.2697C14.0202 7.52448 13.8145 7.73083 13.8145 7.98488V7.98788V7.98856C13.8145 8.2401 14.0182 8.44404 14.2697 8.44442Z" fill="#30414D"/>
</svg>
