<svg width="200" height="200" viewBox="0 0 200 200" fill="none" xmlns="http://www.w3.org/2000/svg">
<path d="M99.8633 191.895C151.198 191.895 192.812 178.096 192.812 161.074C192.812 144.053 151.198 130.254 99.8633 130.254C48.5288 130.254 6.91406 144.053 6.91406 161.074C6.91406 178.096 48.5288 191.895 99.8633 191.895Z" fill="url(#paint0_linear_4157_7191)"/>
<path d="M37.3027 132.559C37.3027 137.227 33.5332 140.996 28.8652 140.996C24.1973 140.996 20.4277 137.227 20.4277 132.559C20.4277 127.891 24.1973 118.555 28.8652 118.555C33.5332 118.555 37.3027 127.891 37.3027 132.559Z" fill="#E6EAF0"/>
<path d="M32.7139 131.406C32.4404 131.27 32.1279 131.387 31.9912 131.66L29.3936 136.914V126.992C29.3936 126.699 29.1592 126.445 28.8467 126.445C28.5537 126.445 28.2998 126.68 28.2998 126.992V132.07L25.5459 129.297C25.3311 129.082 24.999 129.082 24.7842 129.297C24.5693 129.512 24.5693 129.844 24.7842 130.059L28.124 133.398C28.1826 133.457 28.2412 133.457 28.3193 133.477V148.164C28.3193 148.457 28.5537 148.711 28.8662 148.711C29.1592 148.711 29.4131 148.477 29.4131 148.164V139.336L32.9678 132.129C33.085 131.855 32.9873 131.543 32.7139 131.406Z" fill="#D0D6E0"/>
<path d="M171.875 133.572C171.875 137.381 168.789 140.467 164.98 140.467C161.172 140.467 158.086 137.381 158.086 133.572C158.086 129.764 161.172 122.127 164.98 122.127C168.789 122.146 171.875 129.764 171.875 133.572Z" fill="#E6EAF0"/>
<path d="M168.124 132.635C167.909 132.537 167.636 132.615 167.538 132.83L165.429 137.127V129.021C165.429 128.787 165.233 128.572 164.979 128.572C164.745 128.572 164.53 128.768 164.53 129.021V133.182L162.265 130.916C162.089 130.74 161.815 130.74 161.64 130.916C161.464 131.092 161.464 131.365 161.64 131.541L164.374 134.275C164.413 134.314 164.472 134.314 164.53 134.334V146.326C164.53 146.561 164.726 146.775 164.979 146.775C165.214 146.775 165.429 146.58 165.429 146.326V139.119L168.339 133.221C168.437 133.025 168.358 132.752 168.124 132.635Z" fill="#D0D6E0"/>
<path d="M181.018 150.41C181.018 153.242 178.713 155.547 175.881 155.547C173.049 155.547 170.744 153.242 170.744 150.41C170.744 147.578 173.049 141.875 175.881 141.875C178.713 141.875 181.018 147.559 181.018 150.41Z" fill="#E6EAF0"/>
<path d="M178.224 149.707C178.067 149.629 177.872 149.687 177.774 149.863L176.192 153.066V147.012C176.192 146.836 176.036 146.68 175.86 146.68C175.685 146.68 175.528 146.836 175.528 147.012V150.117L173.829 148.418C173.692 148.281 173.497 148.281 173.36 148.418C173.224 148.555 173.224 148.75 173.36 148.887L175.392 150.918C175.431 150.957 175.47 150.957 175.509 150.957V159.902C175.509 160.078 175.665 160.234 175.841 160.234C176.017 160.234 176.173 160.078 176.173 159.902V154.512L178.341 150.117C178.438 149.98 178.38 149.785 178.224 149.707Z" fill="#D0D6E0"/>
<path d="M99.8633 166.23L28.8672 148.711L58.5352 140.469L99.8633 166.23Z" fill="url(#paint1_linear_4157_7191)"/>
<path d="M99.8652 70.8594L45.1777 86.5625V148.105L99.8652 129.883V70.8594Z" fill="url(#paint2_linear_4157_7191)"/>
<path d="M45.1777 86.543L99.8652 102.07V166.23L45.1777 148.184V86.543Z" fill="url(#paint3_linear_4157_7191)"/>
<path d="M45.1777 86.6016L99.8652 102.148L94.5918 129.766L45.1777 112.344V86.6016Z" fill="url(#paint4_linear_4157_7191)"/>
<path d="M45.1758 86.6016L99.8633 102.148L91.6016 120.84L37.6172 103.73L45.1758 86.6016Z" fill="url(#paint5_linear_4157_7191)"/>
<path d="M99.8652 70.8594L154.553 86.5625V148.008L99.8652 129.883V70.8594Z" fill="url(#paint6_linear_4157_7191)"/>
<path d="M154.553 86.543L99.8652 102.07V166.23L154.553 148.184V86.543Z" fill="url(#paint7_linear_4157_7191)"/>
<path d="M154.553 86.6016L99.8652 102.148L107.58 127.266L154.553 111.172V86.6016Z" fill="url(#paint8_linear_4157_7191)"/>
<path d="M154.553 86.6016L99.8652 102.148L108.107 120.84L162.092 103.73L154.553 86.6016Z" fill="url(#paint9_linear_4157_7191)"/>
<path d="M121.973 34.4903C117.735 40.0958 112.188 44.5685 106.114 48.0841C99.5315 51.8927 92.344 54.5294 85.0588 56.7169C80.7815 58.006 76.4455 59.1192 72.1291 60.2521C72.0705 60.2716 72.0901 60.3692 72.1487 60.3497C79.9612 58.3185 87.7932 56.2872 95.3127 53.338C101.934 50.7403 108.321 47.4005 113.887 42.9083C116.934 40.4474 119.707 37.6739 122.051 34.5489C122.09 34.4903 122.012 34.4513 121.973 34.4903Z" fill="#D3DBEB"/>
<path d="M123.575 43.8858C119.454 48.6514 114.903 53.0069 109.942 56.8936C108.477 58.0459 106.993 59.1397 105.45 60.2139C105.391 60.253 105.45 60.3311 105.509 60.292C110.723 56.6592 115.567 52.5186 119.981 47.9483C121.231 46.6397 122.442 45.3116 123.634 43.9444C123.692 43.9248 123.614 43.8467 123.575 43.8858Z" fill="#D3DBEB"/>
<path d="M139.141 72.3242C139.141 72.3242 145.996 73.9062 149.941 70.8594C153.887 67.8125 153.203 65.8008 153.32 63.7695C153.32 63.7695 156.465 63.2031 158.047 64.1016C158.047 64.2188 158.496 62.9687 156.699 62.8711C154.902 62.7734 150.449 62.5391 148.848 64.2187C147.246 65.8984 146.465 70.1758 144.316 70.7422C144.199 70.9766 145.781 68.2617 146.445 66.1328C147.109 64.0039 148.691 62.0898 151.953 62.1875C151.953 62.1875 150.937 60.957 149.258 60.957C147.578 60.957 145.43 61.6406 144.316 63.6523C143.203 65.6641 142.617 72.6758 139.141 72.3242Z" fill="url(#paint10_linear_4157_7191)"/>
<path opacity="0.8" d="M134.648 59.7863C134.648 59.7863 130.566 58.4778 129.453 55.6653C128.339 52.8528 129.316 51.9934 129.882 50.8996C129.882 50.8996 128.398 49.6301 127.304 49.6106C127.265 49.6692 127.421 48.8879 128.398 49.3762C129.374 49.884 131.777 51.134 132.089 52.5207C132.402 53.9074 131.484 56.3879 132.441 57.3449C132.421 57.5012 132.441 55.5871 132.753 54.259C133.066 52.9309 132.832 51.4465 131.093 50.4895C131.093 50.4895 132.011 50.1574 132.89 50.6848C133.769 51.2121 134.687 52.2278 134.648 53.634C134.589 55.0403 132.714 58.8684 134.648 59.7863Z" fill="url(#paint11_linear_4157_7191)"/>
<path opacity="0.8" d="M138.359 50.0977C138.359 50.0977 136.406 47.7735 136.777 45.6837C137.148 43.5938 138.066 43.4376 138.828 42.9884C138.828 42.9884 138.418 41.6798 137.773 41.2501C137.734 41.2696 138.105 40.8595 138.516 41.5235C138.926 42.1876 139.883 43.8477 139.551 44.7852C139.219 45.7227 137.734 46.8751 137.949 47.8126C137.891 47.8907 138.613 46.7579 139.297 46.0743C139.98 45.3907 140.41 44.4141 139.707 43.1837C139.707 43.1837 140.371 43.3204 140.723 43.9649C141.055 44.6095 141.211 45.5665 140.664 46.3868C140.098 47.2266 137.539 48.8282 138.359 50.0977Z" fill="url(#paint12_linear_4157_7191)"/>
<defs>
<linearGradient id="paint0_linear_4157_7191" x1="99.859" y1="130.242" x2="99.859" y2="191.902" gradientUnits="userSpaceOnUse">
<stop stop-color="#DEE3F0"/>
<stop offset="0.0398184" stop-color="#E1E6F1" stop-opacity="0.9602"/>
<stop offset="0.3162" stop-color="#F2F4F9" stop-opacity="0.6838"/>
<stop offset="0.6198" stop-color="#FCFCFE" stop-opacity="0.3802"/>
<stop offset="1" stop-color="white" stop-opacity="0"/>
</linearGradient>
<linearGradient id="paint1_linear_4157_7191" x1="99.859" y1="153.351" x2="28.8602" y2="153.351" gradientUnits="userSpaceOnUse">
<stop stop-color="#BCC0CC"/>
<stop offset="0.2941" stop-color="#BFC3CE" stop-opacity="0.7028"/>
<stop offset="0.5142" stop-color="#C9CCD6" stop-opacity="0.4803"/>
<stop offset="0.7103" stop-color="#D9DBE2" stop-opacity="0.2822"/>
<stop offset="0.8912" stop-color="#EFF0F3" stop-opacity="0.099242"/>
<stop offset="0.9894" stop-color="white" stop-opacity="0"/>
</linearGradient>
<linearGradient id="paint2_linear_4157_7191" x1="45.1773" y1="109.491" x2="99.861" y2="109.491" gradientUnits="userSpaceOnUse">
<stop stop-color="#DCE0E6"/>
<stop offset="1" stop-color="#DFE3EB"/>
</linearGradient>
<linearGradient id="paint3_linear_4157_7191" x1="99.861" y1="126.383" x2="45.1773" y2="126.383" gradientUnits="userSpaceOnUse">
<stop stop-color="#B3BDC9"/>
<stop offset="1" stop-color="#D7DAE0"/>
</linearGradient>
<linearGradient id="paint4_linear_4157_7191" x1="61.9041" y1="122.009" x2="79.9964" y2="90.6719" gradientUnits="userSpaceOnUse">
<stop stop-color="#C1C8D1" stop-opacity="0"/>
<stop offset="1" stop-color="#8F99AB"/>
</linearGradient>
<linearGradient id="paint5_linear_4157_7191" x1="99.859" y1="103.725" x2="37.6266" y2="103.725" gradientUnits="userSpaceOnUse">
<stop stop-color="#C1C8D1"/>
<stop offset="1" stop-color="#DFE3ED"/>
</linearGradient>
<linearGradient id="paint6_linear_4157_7191" x1="154.545" y1="109.434" x2="99.861" y2="109.434" gradientUnits="userSpaceOnUse">
<stop stop-color="#CCD3DB"/>
<stop offset="1" stop-color="#D6DAE3"/>
</linearGradient>
<linearGradient id="paint7_linear_4157_7191" x1="99.861" y1="126.383" x2="154.545" y2="126.383" gradientUnits="userSpaceOnUse">
<stop stop-color="#DCE0E6"/>
<stop offset="1" stop-color="#D3D8E3"/>
</linearGradient>
<linearGradient id="paint8_linear_4157_7191" x1="138.766" y1="120.28" x2="121.185" y2="89.8292" gradientUnits="userSpaceOnUse">
<stop stop-color="#C1C8D1" stop-opacity="0"/>
<stop offset="1" stop-color="#C7CBD1"/>
</linearGradient>
<linearGradient id="paint9_linear_4157_7191" x1="99.861" y1="103.725" x2="162.093" y2="103.725" gradientUnits="userSpaceOnUse">
<stop stop-color="#E1E9F2"/>
<stop offset="1" stop-color="#DFE3ED"/>
</linearGradient>
<linearGradient id="paint10_linear_4157_7191" x1="139.138" y1="66.8557" x2="158.091" y2="66.8557" gradientUnits="userSpaceOnUse">
<stop stop-color="#DDE3EB"/>
<stop offset="1" stop-color="#B3B9C9"/>
</linearGradient>
<linearGradient id="paint11_linear_4157_7191" x1="136.358" y1="56.8973" x2="126.433" y2="51.0115" gradientUnits="userSpaceOnUse">
<stop stop-color="#DDE3EB"/>
<stop offset="1" stop-color="#B3B9C9"/>
</linearGradient>
<linearGradient id="paint12_linear_4157_7191" x1="140.457" y1="49.008" x2="136.715" y2="41.7542" gradientUnits="userSpaceOnUse">
<stop stop-color="#DDE3EB"/>
<stop offset="1" stop-color="#B3B9C9"/>
</linearGradient>
</defs>
</svg>
