<svg width="24" height="24" viewBox="0 0 24 24" fill="none" xmlns="http://www.w3.org/2000/svg">
<g clip-path="url(#clip0_4157_5351)">
<path d="M16.245 8.13911C16.521 8.13911 16.7925 8.16011 17.0655 8.19011C16.3305 4.76711 12.672 2.22461 8.4945 2.22461C3.825 2.22461 0 5.40611 0 9.44861C0 11.7811 1.272 13.6966 3.399 15.1846L2.55 17.7391L5.52 16.2511C6.582 16.4596 7.434 16.6756 8.4945 16.6756C8.7615 16.6756 9.0255 16.6636 9.2865 16.6441C9.1215 16.0756 9.024 15.4816 9.024 14.8621C9.0255 11.1511 12.2115 8.13911 16.245 8.13911ZM11.679 5.83661C12.321 5.83661 12.7425 6.25811 12.7425 6.89711C12.7425 7.53311 12.321 7.95911 11.679 7.95911C11.0445 7.95911 10.4055 7.53311 10.4055 6.89711C10.4055 6.25661 11.043 5.83661 11.679 5.83661ZM5.7345 7.95911C5.097 7.95911 4.455 7.53311 4.455 6.89711C4.455 6.25811 5.097 5.83661 5.7345 5.83661C6.372 5.83661 6.795 6.25661 6.795 6.89711C6.795 7.53311 6.372 7.95911 5.7345 7.95911ZM24 14.7601C24 11.3641 20.601 8.59661 16.7835 8.59661C12.741 8.59661 9.5595 11.3656 9.5595 14.7601C9.5595 18.1651 12.7425 20.9236 16.7835 20.9236C17.6295 20.9236 18.483 20.7121 19.332 20.4991L21.6615 21.7771L21.0225 19.6531C22.728 18.3721 24 16.6756 24 14.7601ZM14.4405 13.6966C14.019 13.6966 13.5915 13.2766 13.5915 12.8476C13.5915 12.4246 14.019 11.9986 14.4405 11.9986C15.0855 11.9986 15.504 12.4246 15.504 12.8476C15.504 13.2766 15.0855 13.6966 14.4405 13.6966ZM19.113 13.6966C18.6945 13.6966 18.2685 13.2766 18.2685 12.8476C18.2685 12.4246 18.693 11.9986 19.113 11.9986C19.752 11.9986 20.1765 12.4246 20.1765 12.8476C20.1765 13.2766 19.752 13.6966 19.113 13.6966Z" fill="#30414D"/>
</g>
<defs>
<clipPath id="clip0_4157_5351">
<rect width="24" height="24" fill="white"/>
</clipPath>
</defs>
</svg>
