<?xml version="1.0" encoding="UTF-8"?>
<svg width="62px" height="69px" viewBox="0 0 62 69" version="1.1" xmlns="http://www.w3.org/2000/svg" xmlns:xlink="http://www.w3.org/1999/xlink">
    <!-- Generator: Sketch 59.1 (86144) - https://sketch.com -->
    <title>防霜冻</title>
    <desc>Created with Sketch.</desc>
    <g id="页面-1" stroke="none" stroke-width="1" fill-rule="evenodd">
        <g id="7" transform="translate(-158.000000, -2180.000000)" fill-rule="nonzero">
            <g id="定时备份-3" transform="translate(80.000000, 2114.000000)">
                <g id="防霜冻" transform="translate(109.500000, 100.500000) rotate(-22.000000) translate(-109.500000, -100.500000) translate(75.000000, 68.000000)">
                    <polygon id="路径" points="68.0894325 25.7675634 56.9948301 27.1948785 62.5421312 19.856086 59.459351 17.6148474 51.4492321 28.008802 37.6857255 29.8422362 42.8208539 17.2070431 55.1468652 12.1111743 53.499877 8.44262061 45.0775853 11.9072722 49.185688 1.71721979 45.4897581 0.289904691 41.3799522 10.4816422 37.6840223 2.12502402 33.9863893 3.55233912 39.1215176 15.577511 33.9863893 28.4182914 25.5640974 17.6165326 27.2093823 4.57184998 23.1012797 3.96014345 22.074254 13.1323702 15.2955439 4.36794777 12.0083805 6.8114034 18.993177 15.577511 9.74824278 14.354098 9.1316867 18.2265538 22.2803404 19.8611414 30.9070154 30.8668024 17.1452121 32.7002367 6.66716568 24.753108 4.20264476 27.8065849 11.5979108 33.5124751 0.503308452 34.9397902 1.11986453 38.812246 12.2144669 37.3849309 6.46448566 44.7220382 9.75164913 46.9666472 17.7617681 36.5726926 31.3191883 34.7375731 26.1840599 47.5783536 13.8597518 52.6725372 15.5050367 56.1371888 24.1334149 52.6725372 19.8192258 62.8625896 23.5151557 64.2899047 27.831048 54.0998523 31.3225946 62.6603726 35.0185245 61.0257851 29.8850994 49.0006133 35.0202277 36.1598328 43.6469027 47.1688641 42.0016178 60.2118616 45.9036341 60.6196659 47.1367462 51.4474392 53.9171594 60.2101764 56.9999397 57.7667208 50.2212296 49.0039835 59.4644607 50.2257113 59.8749303 46.3532555 46.7279797 44.718668 38.3056879 33.713007 52.0691945 31.8778875 62.5472408 39.8267013 65.0117618 36.7732244 57.6164957 31.0673343 68.5033085 29.6400192"></polygon>
                </g>
            </g>
        </g>
    </g>
</svg>