<?xml version="1.0" encoding="UTF-8"?>
<svg width="60px" height="60px" viewBox="0 0 60 60" version="1.1" xmlns="http://www.w3.org/2000/svg" xmlns:xlink="http://www.w3.org/1999/xlink">
    <!-- Generator: Sketch 59.1 (86144) - https://sketch.com -->
    <title>ECO模式</title>
    <desc>Created with Sketch.</desc>
    <g id="页面-1" stroke="none" stroke-width="1" fill-rule="evenodd">
        <g id="7" transform="translate(-158.000000, -1435.000000)" fill-rule="nonzero">
            <g id="定时备份" transform="translate(82.000000, 1364.000000)">
                <g id="ECO模式" transform="translate(76.000000, 71.000000)">
                    <path d="M57.7777777,7.78986344 C46.5,7.78986344 37.611111,5.34598472 31.3888889,0.458227278 C30.6111111,-0.152742426 29.4444444,-0.152742426 28.6666667,0.458227278 C22.3888889,5.34598472 13.5,7.78986344 2.22222227,7.78986344 C1,7.78986344 0,8.78963201 0,10.0115714 L0,25.0636427 C0,38.0606341 7.61111113,49.9467716 19.3888889,55.3344133 L29.0555556,59.7778292 C29.3333333,59.8889146 29.6666667,60 30,60 C30.3333333,60 30.6111111,59.9444573 30.9444444,59.7778292 L40.6111111,55.3344133 C52.3888889,49.8912289 60,38.0050914 60,25.0636427 L60,10.0115714 C60,8.78963201 59,7.78986344 57.7777777,7.78986344 Z" id="路径"></path>
                    <path d="M27.360425,19.2084593 C27.1401039,19.3783989 26.9197829,19.6049849 26.7545422,19.8315711 L22.8989238,24.5332326 C18.9882252,29.2915408 19.0433054,35.7492447 23.0090843,39.8277945 C24.9919738,41.8670695 27.6909067,43 30.5,43 C33.3090933,43 36.0080262,41.8670695 37.9909157,39.8277945 C41.9566946,35.7492447 42.0117748,29.2915408 38.1010762,24.5332326 L34.2454579,19.8315711 C33.419254,18.8119336 32.2074882,18.1321753 30.8855618,18.0188822 C29.673796,17.9055891 28.40695,18.3021148 27.360425,19.2084593 L27.360425,19.2084593 Z" id="路径" style="fill:#FFFFFF"></path>
                </g>
            </g>
        </g>
    </g>
</svg>