<svg xmlns="http://www.w3.org/2000/svg" xmlns:xlink="http://www.w3.org/1999/xlink" version="1.1" width="75" height="75" viewBox="0 0 75 75"><g style="mix-blend-mode:passthrough"><path d="M75,27.9157C71.1412,29.3973,68.3873,33.1138,68.3873,37.5C68.3873,41.8862,71.1412,45.6027,75,47.0843C74.0792,50.7003,72.6562,54.1071,70.7896,57.2377C67.0145,55.5636,62.4358,56.25,59.3387,59.3471C56.2416,62.4442,55.5552,67.0145,57.2377,70.798C54.1071,72.6562,50.7003,74.0792,47.0843,75C45.6027,71.1412,41.8862,68.3873,37.5,68.3873C33.1222,68.3873,29.4057,71.1412,27.9157,75C24.2997,74.0792,20.8929,72.6562,17.7539,70.798C19.4364,67.0229,18.75,62.4442,15.6529,59.3471C12.5558,56.2416,7.98549,55.5552,4.20201,57.2377C2.34375,54.1071,0.920759,50.7003,0,47.0843C3.85882,45.6027,6.61272,41.8862,6.61272,37.5C6.61272,33.1222,3.85882,29.4057,0,27.9157C0.920759,24.2997,2.34375,20.8929,4.21038,17.7623C7.98549,19.4364,12.5642,18.75,15.6613,15.6529C18.7584,12.5558,19.4448,7.98549,17.7623,4.20201C20.8929,2.34375,24.2997,0.920759,27.9157,0C29.3973,3.85882,33.1138,6.61272,37.5,6.61272C41.8778,6.61272,45.5943,3.85882,47.0843,0C50.7003,0.920759,54.1071,2.34375,57.2461,4.20201C55.5636,7.97712,56.25,12.5558,59.3471,15.6529C62.4442,18.7584,67.0145,19.4448,70.798,17.7623C72.6562,20.8929,74.0792,24.2997,75,27.9157ZM27.3647,37.4999C27.3647,43.0948,31.905,47.635,37.4999,47.635C43.0948,47.635,47.635,43.0948,47.635,37.4999C47.635,31.905,43.0948,27.3647,37.4999,27.3647C31.905,27.3647,27.3647,31.905,27.3647,37.4999Z" fill-rule="evenodd" fill-opacity="1"/></g></svg>