<?xml version="1.0" encoding="UTF-8"?>
<svg width="60px" height="60px" viewBox="0 0 60 60" version="1.1" xmlns="http://www.w3.org/2000/svg" xmlns:xlink="http://www.w3.org/1999/xlink">
    <!-- Generator: Sketch 59.1 (86144) - https://sketch.com -->
    <title>阀门检测</title>
    <desc>Created with Sketch.</desc>
    <g id="页面-1" stroke="none" stroke-width="1" fill-rule="evenodd">
        <g id="8" transform="translate(-158.000000, -1811.000000)">
            <g id="编组-3" transform="translate(0.000000, 359.000000)">
                <g transform="translate(80.000000, -368.000000)" id="定时备份-4">
                    <g transform="translate(0.000000, 1750.000000)">
                        <g id="阀门检测" transform="translate(78.000000, 70.000000)">
                            <path d="M57.7777777,7.78986344 C46.5,7.78986344 37.611111,5.34598472 31.3888889,0.458227278 C30.6111111,-0.152742426 29.4444444,-0.152742426 28.6666667,0.458227278 C22.3888889,5.34598472 13.5,7.78986344 2.22222227,7.78986344 C1,7.78986344 0,8.78963201 0,10.0115714 L0,25.0636427 C0,38.0606341 7.61111113,49.9467716 19.3888889,55.3344133 L29.0555556,59.7778292 C29.3333333,59.8889146 29.6666667,60 30,60 C30.3333333,60 30.6111111,59.9444573 30.9444444,59.7778292 L40.6111111,55.3344133 C52.3888889,49.8912289 60,38.0050914 60,25.0636427 L60,10.0115714 C60,8.78963201 59,7.78986344 57.7777777,7.78986344 Z" id="路径" fill-rule="nonzero"></path>
                            <line x1="15.5" y1="27" x2="29.5" y2="41" id="直线-2备份" style="stroke:#FFFFFF" stroke-width="5" stroke-linecap="round"></line>
                            <line x1="30" y1="41.5" x2="50" y2="18.5" id="直线-3备份" style="stroke:#FFFFFF" stroke-width="5" stroke-linecap="round"></line>
                        </g>
                    </g>
                </g>
            </g>
        </g>
    </g>
</svg>