<?xml version="1.0" encoding="UTF-8"?>
<svg width="83px" height="83px" viewBox="0 0 83 83" version="1.1" xmlns="http://www.w3.org/2000/svg" xmlns:xlink="http://www.w3.org/1999/xlink">
    <title>4-1-报警-未选中</title>
    <g id="页面-1" stroke="none" stroke-width="1" fill="none" fill-rule="evenodd">
        <g id="切图" transform="translate(-142.000000, -1590.000000)" fill="#A2A2A2" fill-rule="nonzero">
            <g id="编组" transform="translate(41.000000, 103.000000)">
                <path d="M169.542182,1566.32822 C168.836373,1565.62305 167.927745,1565.12051 166.913651,1564.91787 C166.305195,1564.79629 165.867106,1564.27754 165.867106,1563.66152 L165.867106,1533.86582 C165.867106,1520.97813 155.312418,1510.29512 142.413146,1510.34358 C129.554437,1510.39238 119.137666,1520.82412 119.137666,1533.6875 L119.137666,1563.66152 C119.137666,1564.27754 118.699577,1564.79629 118.091121,1564.91787 C115.722198,1565.4042 113.945505,1567.49541 113.945505,1570 L171.059266,1570 C171.059266,1568.56533 170.475148,1567.26846 169.542182,1566.32822 Z M146.988737,1524.60938 L145.414863,1538.65615 L151.588666,1538.65615 L138.024148,1558.32812 L139.598021,1544.28135 L133.416106,1544.28135 L146.988737,1524.60938 Z M142.502386,1503.85938 C141.066429,1503.85938 139.906306,1502.70029 139.906306,1501.26562 L139.906306,1489.59375 C139.906306,1488.15908 141.066429,1487 142.502386,1487 C143.938343,1487 145.098466,1488.15908 145.098466,1489.59375 L145.098466,1501.26562 C145.098466,1502.70029 143.938343,1503.85938 142.502386,1503.85938 Z M123.680806,1511.00029 C122.439555,1511.71357 120.849456,1511.29209 120.135534,1510.05195 L114.294354,1499.94443 C113.580432,1498.7043 114.002295,1497.11562 115.243545,1496.40234 C116.484796,1495.68906 118.074895,1496.11055 118.788817,1497.35068 L124.629997,1507.4582 C125.343919,1508.69834 124.922056,1510.27891 123.680806,1511.00029 Z M161.323966,1511.00029 C162.565217,1511.71357 164.155316,1511.29209 164.869238,1510.05195 L170.710418,1499.94443 C171.42434,1498.7043 171.002477,1497.11562 169.761226,1496.40234 C168.519975,1495.68906 166.929876,1496.11055 166.215954,1497.35068 L160.374774,1507.4582 C159.660852,1508.69834 160.082715,1510.27891 161.323966,1511.00029 Z M117.393424,1523.06123 C117.020238,1524.44727 115.600506,1525.26592 114.213226,1524.89307 L102.928391,1521.87783 C101.541111,1521.50498 100.721723,1520.08652 101.086797,1518.70049 C101.459983,1517.31445 102.879714,1516.4958 104.266995,1516.86865 L115.55183,1519.89199 C116.93911,1520.25674 117.758498,1521.6752 117.393424,1523.06123 L117.393424,1523.06123 Z M167.611347,1523.06123 C167.984534,1524.44727 169.404265,1525.26592 170.791545,1524.89307 L182.076381,1521.86973 C183.463661,1521.49688 184.283049,1520.07842 183.909862,1518.69238 C183.536676,1517.30635 182.116945,1516.4877 180.729664,1516.86055 L169.444829,1519.88389 C168.065661,1520.25674 167.246274,1521.6752 167.611347,1523.06123 Z" id="4-1-报警-未选中"></path>
            </g>
        </g>
    </g>
</svg>