<?xml version="1.0" encoding="UTF-8"?>
<svg width="51px" height="77px" viewBox="0 0 51 77" version="1.1" xmlns="http://www.w3.org/2000/svg" xmlns:xlink="http://www.w3.org/1999/xlink">
    <title>4-1-蓝牙-未选中</title>
    <g id="页面-1" stroke="none" stroke-width="1" fill="none" fill-rule="evenodd">
        <g id="切图" transform="translate(-41.000000, -1593.000000)" fill="#A2A2A2" fill-rule="nonzero">
            <g id="编组" transform="translate(41.000000, 103.000000)">
                <path d="M31,1553 L31,1537 L41,1545 L31,1553 Z M31,1504.00436 L41,1512.00218 L31,1520 L31,1504 L31,1504.00436 Z M32.4209034,1528.50433 L49.385254,1514.81273 C50.4065724,1513.98531 51,1512.74017 51,1511.42462 C51,1510.10908 50.4065724,1508.86393 49.385254,1508.03652 L28.2254189,1490.96116 C26.9236404,1489.91192 25.1361968,1489.70366 23.6286395,1490.42557 C22.1210822,1491.14747 21.1608136,1492.6715 21.1591111,1494.34491 L21.1591111,1519.40559 L7.06992698,1508.03652 C5.20137361,1506.52923 2.46644104,1506.82424 0.961284116,1508.69543 C-0.543872805,1510.56663 -0.249281775,1513.30544 1.6192716,1514.81273 L18.579279,1528.49998 L1.6192716,1542.18723 C-0.21023101,1543.70514 -0.48226881,1546.41345 1.00870437,1548.26583 C2.49967754,1550.1182 5.20025101,1550.42709 7.06992698,1548.9591 L21.1591111,1537.59002 L21.1591111,1562.6507 C21.1615052,1565.05176 23.1045987,1566.9976 25.5022628,1567 C26.4930015,1567 27.4540723,1566.66145 28.2254189,1566.0388 L49.385254,1548.96344 C50.4049774,1548.13598 50.9973179,1546.89185 50.9973179,1545.57751 C50.9973179,1544.26318 50.4049774,1543.01904 49.385254,1542.19158 L32.4209034,1528.49998 L32.4209034,1528.50433 Z" id="4-1-蓝牙-未选中"></path>
            </g>
        </g>
    </g>
</svg>