<?xml version="1.0" encoding="UTF-8"?>
<svg width="54px" height="78px" viewBox="0 0 54 78" version="1.1" xmlns="http://www.w3.org/2000/svg" xmlns:xlink="http://www.w3.org/1999/xlink">
    <!-- Generator: Sketch 59.1 (86144) - https://sketch.com -->
    <title>倒计时</title>
    <desc>Created with Sketch.</desc>
    <defs>
        <linearGradient x1="30.0896663%" y1="0%" x2="79.643372%" y2="112.510417%" id="linearGradient-1">
            <stop stop-color="#00F0FF" offset="0%"></stop>
            <stop stop-color="#704DF0" offset="100%"></stop>
        </linearGradient>
        <path d="M54,78 L0.00763936872,78 L0.00763936872,69.0000001 C-0.343563656,54.0883121 11.4583312,41.7152538 26.3679097,41.3640007 C41.2774881,41.0127476 53.6487962,52.8163121 54,67.728 L54,78 L54,78 Z M21.1306507,52.2 C20.7285637,52.2007732 20.3307362,52.2823904 19.9608162,52.44 C14.9796978,54.5491879 11.2152297,58.7925289 9.714266,63.99 C9.37454775,65.0316975 9.62968857,66.1757715 10.3798092,66.9743543 C11.1299298,67.7729372 12.2556977,68.098987 13.3164116,67.8248658 C14.3771254,67.5507445 15.2040423,66.7200608 15.4734511,65.658 C16.4948456,62.2009623 19.0011729,59.3776469 22.3124835,57.954 C23.636348,57.3983108 24.380867,55.9823047 24.0883358,54.5764935 C23.7958046,53.1706823 22.5482616,52.169316 21.1126532,52.188 L21.1306507,52.2 Z M27.0038197,36 C12.1010937,35.9834666 0.0241704037,23.9048345 0.00763936872,9 L0.00763936872,0 L54,0 L54,9 C53.983469,23.9048345 41.9065456,35.9834666 27.0038197,36 Z" id="path-2"></path>
        <filter x="-283.3%" y="-188.5%" width="666.7%" height="492.3%" filterUnits="objectBoundingBox" id="filter-3">
            <feOffset dx="0" dy="6" in="SourceAlpha" result="shadowOffsetOuter1"></feOffset>
            <feGaussianBlur stdDeviation="50" in="shadowOffsetOuter1" result="shadowBlurOuter1"></feGaussianBlur>
            <feColorMatrix values="0 0 0 0 0.125490196   0 0 0 0 0.127812629   0 0 0 0 0.129411765  0 0 0 0.1 0" type="matrix" in="shadowBlurOuter1"></feColorMatrix>
        </filter>
    </defs>
    <g id="页面-1" stroke="none" stroke-width="1" fill="none" fill-rule="evenodd">
        <g id="1备份" transform="translate(-720.000000, -98.000000)">
            <g id="暗色" transform="translate(93.000000, 98.000000)">
                <g id="倒计时" transform="translate(627.000000, 0.000000)">
                    <g id="形状">
                        <use fill="black" fill-opacity="1" filter="url(#filter-3)" xlink:href="#path-2"></use>
                        <use fill="url(#linearGradient-1)" fill-rule="evenodd" xlink:href="#path-2"></use>
                    </g>
                </g>
            </g>
        </g>
    </g>
</svg>