<?xml version="1.0" encoding="UTF-8"?>
<svg width="511px" height="511px" viewBox="0 0 511 511" version="1.1" xmlns="http://www.w3.org/2000/svg" xmlns:xlink="http://www.w3.org/1999/xlink">
    <title>晚安</title>
    <defs>
        <linearGradient x1="11.8644068%" y1="4.18229167%" x2="104.602754%" y2="105.080729%" id="linearGradient-1">
            <stop stop-color="#00F0FF" offset="0%"></stop>
            <stop stop-color="#704DF0" offset="100%"></stop>
        </linearGradient>
        <path d="M310.161558,210.453875 C309.043635,209.338888 305.689865,209.338888 302.336096,210.453875 C269.916326,224.948712 236.378632,227.178687 201.723016,219.373774 C135.765552,202.648963 88.8127808,144.669617 85.4590112,75.5403975 C85.4590112,52.1256619 89.9307037,29.8259135 99.9920118,8.64115231 C101.109935,5.29619019 103.345781,4.18120256 99.9920118,0.836240433 C96.6382425,-0.278746811 95.5203192,-0.278746811 91.0486271,0.836240433 C76.5156265,8.64115231 61.9826259,16.4460642 51.9213178,28.7109258 C21.7373937,56.5856112 4.9685468,90.0352336 0.496854641,130.174781 C0.496854641,133.519743 -0.621068301,150.244555 0.496854641,153.589517 L0.496854641,158.049466 C0.496854641,172.544303 3.85062386,185.924152 8.32231641,198.189014 C27.3270096,259.513321 83.2231653,302.997831 145.826859,309.687755 C168.185322,313.032717 189.425861,309.687755 211.784324,302.997831 C255.383325,288.502994 288.921019,260.628309 310.161558,218.258787 L310.161558,217.143799 C311.279481,214.913825 311.279481,213.798837 310.161558,210.453875 Z" id="path-2"></path>
        <filter x="-49.2%" y="-47.3%" width="198.4%" height="198.4%" filterUnits="objectBoundingBox" id="filter-3">
            <feOffset dx="0" dy="6" in="SourceAlpha" result="shadowOffsetOuter1"></feOffset>
            <feGaussianBlur stdDeviation="50" in="shadowOffsetOuter1" result="shadowBlurOuter1"></feGaussianBlur>
            <feColorMatrix values="0 0 0 0 0.125490196   0 0 0 0 0.127812629   0 0 0 0 0.129411765  0 0 0 0.1 0" type="matrix" in="shadowBlurOuter1"></feColorMatrix>
        </filter>
        <linearGradient x1="28.4303772%" y1="4.18229167%" x2="80.8835058%" y2="105.080729%" id="linearGradient-4">
            <stop stop-color="#00F0FF" offset="0%"></stop>
            <stop stop-color="#704DF0" offset="100%"></stop>
        </linearGradient>
        <polygon id="path-5" points="176.964706 125 194.094118 73.3000002 223 64.5 194.094118 52.3999999 176.964706 4 159.835294 52.3999999 132 64.5 159.835294 73.3000002"></polygon>
        <filter x="-168.1%" y="-121.5%" width="436.3%" height="352.9%" filterUnits="objectBoundingBox" id="filter-6">
            <feOffset dx="0" dy="6" in="SourceAlpha" result="shadowOffsetOuter1"></feOffset>
            <feGaussianBlur stdDeviation="50" in="shadowOffsetOuter1" result="shadowBlurOuter1"></feGaussianBlur>
            <feColorMatrix values="0 0 0 0 0.125490196   0 0 0 0 0.127812629   0 0 0 0 0.129411765  0 0 0 0.1 0" type="matrix" in="shadowBlurOuter1"></feColorMatrix>
        </filter>
    </defs>
    <g id="页面-1" stroke="none" stroke-width="1" fill="none" fill-rule="evenodd">
        <g id="4" transform="translate(-308.000000, -515.000000)">
            <g id="编组-6" transform="translate(163.000000, 364.000000)">
                <g id="温度显示表">
                    <g id="晚安" transform="translate(245.000000, 245.000000)">
                        <g id="路径">
                            <use fill="black" fill-opacity="1" filter="url(#filter-3)" xlink:href="#path-2"></use>
                            <use fill="url(#linearGradient-1)" fill-rule="evenodd" xlink:href="#path-2"></use>
                        </g>
                        <g id="路径">
                            <use fill="black" fill-opacity="1" filter="url(#filter-6)" xlink:href="#path-5"></use>
                            <use fill="url(#linearGradient-4)" fill-rule="evenodd" xlink:href="#path-5"></use>
                        </g>
                    </g>
                </g>
            </g>
        </g>
    </g>
</svg>