<?xml version="1.0" encoding="UTF-8"?>
<svg width="63px" height="63px" viewBox="0 0 63 63" version="1.1" xmlns="http://www.w3.org/2000/svg" xmlns:xlink="http://www.w3.org/1999/xlink">
    <!-- Generator: Sketch 59.1 (86144) - https://sketch.com -->
    <title>身体年龄</title>
    <desc>Created with Sketch.</desc>
    <defs>
        <linearGradient x1="50%" y1="0%" x2="50%" y2="100%" id="linearGradient-1">
            <stop stop-color="#3FE83F" offset="0%"></stop>
            <stop stop-color="#00D8B2" offset="100%"></stop>
        </linearGradient>
    </defs>
    <g id="页面-1" stroke="none" stroke-width="1" fill="none" fill-rule="evenodd">
        <g id="2" transform="translate(-144.000000, -2193.000000)">
            <g id="脂肪量备份-9" transform="translate(144.000000, 2193.000000)">
                <g id="身体年龄">
                    <rect id="矩形" fill="url(#linearGradient-1)" x="0" y="0" width="63" height="63" rx="10"></rect>
                    <g transform="translate(10.000000, 10.000000)" fill="#FFFFFF" fill-rule="nonzero">
                        <path d="M21.2961676,32.99816 C19.6483924,32.99816 18.2770773,32.1701932 17.4550205,31.6182153 C16.9057622,31.0680773 16.9057622,30.2419504 17.1803914,29.6899724 C17.7296497,29.1379945 18.5535373,29.1379945 19.1009649,29.4139834 C19.3755941,29.6899724 21.2961676,31.0699172 22.6674827,29.4139834 C23.2167411,28.8620055 24.0406287,28.8620055 24.5880562,29.4139834 C25.1373146,29.9659613 25.1373146,30.7939282 24.5880562,31.3440663 C23.7641686,32.724011 22.6656518,33 21.2961676,33" id="路径"></path>
                        <path d="M21.4991033,40.3117154 C11.0185595,40.3117154 2.68649117,31.9814406 2.68649117,21.4991033 C2.68649117,15.0500897 5.91279141,9.13729822 11.0185594,5.91458483 C12.8998206,9.94432168 16.1243274,10.2133294 19.0816199,10.4823373 C22.0371189,10.7513451 24.7254036,11.0203528 27.1428869,14.2448597 C29.2931559,16.9313509 35.743963,23.6511657 40.0427076,23.9183801 C38.9666764,33.0556783 31.1744171,40.3117154 21.4991033,40.3117154 M21.4991033,0 C9.6753138,0 0,9.67531386 0,21.5008967 C0,33.3246862 9.6753138,43 21.4991033,43 C33.3246862,43 43,33.3246861 43,21.5008967 C43,9.6753138 33.3246861,0 21.4991033,0" id="形状"></path>
                        <path d="M30.4732165,22.8545715 C30.2030692,22.8545715 29.9329217,22.8545715 29.6627743,22.5654693 C28.5821848,21.4071954 27.7717427,21.9872649 27.2314479,22.5654693 C26.986124,22.8427598 26.6439776,23 26.2859321,23 C25.9278865,23 25.5857401,22.8427598 25.3404162,22.5654693 C24.8001214,21.6962976 25.0702689,20.828991 25.6105636,20.2489215 C26.6911532,19.3816149 29.1224796,17.936104 31.5520518,20.2489215 C32.0923466,20.8271258 32.0923466,21.6962976 31.8239534,22.274502 C31.2819045,22.5654693 31.0117571,22.8527064 30.4732165,22.8527064 M12.3733419,22.8545715 C12.1049487,22.8545715 11.5646539,22.5654693 11.2945066,22.2763672 C10.7542118,21.6981628 11.0243592,20.8289911 11.5646539,20.2489215 C13.9942262,17.936104 16.4255526,19.3816149 17.5061421,20.2489215 C17.7649257,20.514008 17.9111318,20.8796374 17.9111318,21.2617117 C17.9111318,21.643786 17.7649257,22.0094154 17.5061421,22.274502 C17.2608182,22.5517924 16.9186718,22.7090327 16.5606263,22.7090327 C16.2025807,22.7090327 15.8604343,22.5517924 15.6151104,22.274502 C15.3449631,21.9853998 14.2643735,21.4071954 13.1855382,22.5654693 C12.9153909,22.5654693 12.6452435,22.8545715 12.375096,22.8545715" id="形状"></path>
                    </g>
                </g>
            </g>
        </g>
    </g>
</svg>