<?xml version="1.0" encoding="UTF-8"?>
<svg width="798px" height="56px" viewBox="0 0 798 56" version="1.1" xmlns="http://www.w3.org/2000/svg" xmlns:xlink="http://www.w3.org/1999/xlink">
    <!-- Generator: Sketch 59.1 (86144) - https://sketch.com -->
    <title>多彩</title>
    <desc>Created with Sketch.</desc>
    <g id="页面-1" stroke="none" stroke-width="1" fill="none" fill-rule="evenodd">
        <g id="3" transform="translate(-155.000000, -1035.000000)">
            <g id="编组-8" transform="translate(83.000000, 946.000000)">
                <g id="编组-11" transform="translate(74.000000, 0.000000)">
                    <g id="多彩" transform="translate(0.000000, 89.000000)">
                        <g id="编组-2" transform="translate(0.000000, 15.000000)" stroke="#FFC205" stroke-linecap="round" stroke-width="4">
                            <g id="编组-4" transform="translate(13.000000, 17.000000)">
                                <line x1="2.1479776" y1="0.814933849" x2="0.910961555" y2="21.5585229" id="直线-4" transform="translate(1.529470, 11.186728) rotate(-3.412715) translate(-1.529470, -11.186728) "></line>
                                <line x1="21.1458114" y1="0.814933849" x2="19.9087954" y2="21.5585229" id="直线-4备份" transform="translate(20.527303, 11.186728) rotate(-3.412715) translate(-20.527303, -11.186728) "></line>
                                <line x1="40.1436452" y1="0.814933849" x2="38.9066292" y2="21.5585229" id="直线-4备份-2" transform="translate(39.525137, 11.186728) rotate(-3.412715) translate(-39.525137, -11.186728) "></line>
                                <line x1="59.141479" y1="0.814933849" x2="57.904463" y2="21.5585229" id="直线-4备份-3" transform="translate(58.522971, 11.186728) rotate(-3.412715) translate(-58.522971, -11.186728) "></line>
                                <line x1="78.1393128" y1="0.814933849" x2="76.9022968" y2="21.5585229" id="直线-4备份-4" transform="translate(77.520805, 11.186728) rotate(-3.412715) translate(-77.520805, -11.186728) "></line>
                                <line x1="97.1371466" y1="0.814933849" x2="95.9001306" y2="21.5585229" id="直线-4备份-5" transform="translate(96.518639, 11.186728) rotate(-3.412715) translate(-96.518639, -11.186728) "></line>
                                <line x1="116.13498" y1="0.814933849" x2="114.897964" y2="21.5585229" id="直线-4备份-6" transform="translate(115.516472, 11.186728) rotate(-3.412715) translate(-115.516472, -11.186728) "></line>
                                <line x1="135.132814" y1="0.814933848" x2="133.895798" y2="21.5585229" id="直线-4备份-7" transform="translate(134.514306, 11.186728) rotate(-3.412715) translate(-134.514306, -11.186728) "></line>
                                <line x1="154.130648" y1="0.814933849" x2="152.893632" y2="21.5585229" id="直线-4备份-8" transform="translate(153.512140, 11.186728) rotate(-3.412715) translate(-153.512140, -11.186728) "></line>
                                <line x1="173.128482" y1="0.814933848" x2="171.891466" y2="21.5585229" id="直线-4备份-9" transform="translate(172.509974, 11.186728) rotate(-3.412715) translate(-172.509974, -11.186728) "></line>
                            </g>
                            <g id="编组-4备份-2" transform="translate(408.000000, 17.000000)">
                                <line x1="2.1479776" y1="0.814933849" x2="0.910961555" y2="21.5585229" id="直线-4" transform="translate(1.529470, 11.186728) rotate(-3.412715) translate(-1.529470, -11.186728) "></line>
                                <line x1="21.1458114" y1="0.814933849" x2="19.9087954" y2="21.5585229" id="直线-4备份" transform="translate(20.527303, 11.186728) rotate(-3.412715) translate(-20.527303, -11.186728) "></line>
                                <line x1="40.1436452" y1="0.814933849" x2="38.9066292" y2="21.5585229" id="直线-4备份-2" transform="translate(39.525137, 11.186728) rotate(-3.412715) translate(-39.525137, -11.186728) "></line>
                                <line x1="59.141479" y1="0.814933849" x2="57.904463" y2="21.5585229" id="直线-4备份-3" transform="translate(58.522971, 11.186728) rotate(-3.412715) translate(-58.522971, -11.186728) "></line>
                                <line x1="78.1393128" y1="0.814933849" x2="76.9022968" y2="21.5585229" id="直线-4备份-4" transform="translate(77.520805, 11.186728) rotate(-3.412715) translate(-77.520805, -11.186728) "></line>
                                <line x1="97.1371466" y1="0.814933849" x2="95.9001306" y2="21.5585229" id="直线-4备份-5" transform="translate(96.518639, 11.186728) rotate(-3.412715) translate(-96.518639, -11.186728) "></line>
                                <line x1="116.13498" y1="0.814933848" x2="114.897964" y2="21.5585229" id="直线-4备份-6" transform="translate(115.516472, 11.186728) rotate(-3.412715) translate(-115.516472, -11.186728) "></line>
                                <line x1="135.132814" y1="0.814933849" x2="133.895798" y2="21.5585229" id="直线-4备份-7" transform="translate(134.514306, 11.186728) rotate(-3.412715) translate(-134.514306, -11.186728) "></line>
                                <line x1="154.130648" y1="0.814933849" x2="152.893632" y2="21.5585229" id="直线-4备份-8" transform="translate(153.512140, 11.186728) rotate(-3.412715) translate(-153.512140, -11.186728) "></line>
                                <line x1="173.128482" y1="0.814933849" x2="171.891466" y2="21.5585229" id="直线-4备份-9" transform="translate(172.509974, 11.186728) rotate(-3.412715) translate(-172.509974, -11.186728) "></line>
                            </g>
                            <g id="编组-4备份" transform="translate(211.000000, 17.000000)">
                                <line x1="2.1479776" y1="0.814933849" x2="0.910961555" y2="21.5585229" id="直线-4" transform="translate(1.529470, 11.186728) rotate(-3.412715) translate(-1.529470, -11.186728) "></line>
                                <line x1="21.1458114" y1="0.814933849" x2="19.9087954" y2="21.5585229" id="直线-4备份" transform="translate(20.527303, 11.186728) rotate(-3.412715) translate(-20.527303, -11.186728) "></line>
                                <line x1="40.1436452" y1="0.814933849" x2="38.9066292" y2="21.5585229" id="直线-4备份-2" transform="translate(39.525137, 11.186728) rotate(-3.412715) translate(-39.525137, -11.186728) "></line>
                                <line x1="59.141479" y1="0.814933849" x2="57.904463" y2="21.5585229" id="直线-4备份-3" transform="translate(58.522971, 11.186728) rotate(-3.412715) translate(-58.522971, -11.186728) "></line>
                                <line x1="78.1393128" y1="0.814933849" x2="76.9022968" y2="21.5585229" id="直线-4备份-4" transform="translate(77.520805, 11.186728) rotate(-3.412715) translate(-77.520805, -11.186728) "></line>
                                <line x1="97.1371466" y1="0.814933848" x2="95.9001306" y2="21.5585229" id="直线-4备份-5" transform="translate(96.518639, 11.186728) rotate(-3.412715) translate(-96.518639, -11.186728) "></line>
                                <line x1="116.13498" y1="0.814933848" x2="114.897964" y2="21.5585229" id="直线-4备份-6" transform="translate(115.516472, 11.186728) rotate(-3.412715) translate(-115.516472, -11.186728) "></line>
                                <line x1="135.132814" y1="0.814933849" x2="133.895798" y2="21.5585229" id="直线-4备份-7" transform="translate(134.514306, 11.186728) rotate(-3.412715) translate(-134.514306, -11.186728) "></line>
                                <line x1="154.130648" y1="0.814933849" x2="152.893632" y2="21.5585229" id="直线-4备份-8" transform="translate(153.512140, 11.186728) rotate(-3.412715) translate(-153.512140, -11.186728) "></line>
                                <line x1="173.128482" y1="0.814933849" x2="171.891466" y2="21.5585229" id="直线-4备份-9" transform="translate(172.509974, 11.186728) rotate(-3.412715) translate(-172.509974, -11.186728) "></line>
                            </g>
                            <g id="编组-4备份-3" transform="translate(606.000000, 17.000000)">
                                <line x1="2.1479776" y1="0.814933849" x2="0.910961555" y2="21.5585229" id="直线-4" transform="translate(1.529470, 11.186728) rotate(-3.412715) translate(-1.529470, -11.186728) "></line>
                                <line x1="21.1458114" y1="0.814933849" x2="19.9087954" y2="21.5585229" id="直线-4备份" transform="translate(20.527303, 11.186728) rotate(-3.412715) translate(-20.527303, -11.186728) "></line>
                                <line x1="40.1436452" y1="0.814933849" x2="38.9066292" y2="21.5585229" id="直线-4备份-2" transform="translate(39.525137, 11.186728) rotate(-3.412715) translate(-39.525137, -11.186728) "></line>
                                <line x1="59.141479" y1="0.814933848" x2="57.904463" y2="21.5585229" id="直线-4备份-3" transform="translate(58.522971, 11.186728) rotate(-3.412715) translate(-58.522971, -11.186728) "></line>
                                <line x1="78.1393128" y1="0.814933848" x2="76.9022968" y2="21.5585229" id="直线-4备份-4" transform="translate(77.520805, 11.186728) rotate(-3.412715) translate(-77.520805, -11.186728) "></line>
                                <line x1="97.1371466" y1="0.814933848" x2="95.9001306" y2="21.5585229" id="直线-4备份-5" transform="translate(96.518639, 11.186728) rotate(-3.412715) translate(-96.518639, -11.186728) "></line>
                                <line x1="116.13498" y1="0.814933849" x2="114.897964" y2="21.5585229" id="直线-4备份-6" transform="translate(115.516472, 11.186728) rotate(-3.412715) translate(-115.516472, -11.186728) "></line>
                                <line x1="135.132814" y1="0.814933848" x2="133.895798" y2="21.5585229" id="直线-4备份-7" transform="translate(134.514306, 11.186728) rotate(-3.412715) translate(-134.514306, -11.186728) "></line>
                                <line x1="154.130648" y1="0.814933849" x2="152.893632" y2="21.5585229" id="直线-4备份-8" transform="translate(153.512140, 11.186728) rotate(-3.412715) translate(-153.512140, -11.186728) "></line>
                                <line x1="173.128482" y1="0.814933849" x2="171.891466" y2="21.5585229" id="直线-4备份-9" transform="translate(172.509974, 11.186728) rotate(-3.412715) translate(-172.509974, -11.186728) "></line>
                            </g>
                            <g id="编组-9">
                                <line x1="396.334105" y1="38.75" x2="396.334105" y2="0.25" id="直线-5备份"></line>
                                <line x1="198.173321" y1="38.75" x2="198.173321" y2="0.25" id="直线-5"></line>
                                <line x1="0.871569704" y1="38.75" x2="0.871569704" y2="0.25" id="直线-5备份-3"></line>
                                <line x1="594.49489" y1="38.75" x2="594.49489" y2="0.25" id="直线-5备份-2"></line>
                                <line x1="793.12843" y1="38.75" x2="793.12843" y2="0.25" id="直线-5备份-4"></line>
                            </g>
                        </g>
                        <rect id="矩形" fill="#FFC205" x="393" y="0" width="8" height="56" rx="4"></rect>
                    </g>
                </g>
            </g>
        </g>
    </g>
</svg>