<?xml version="1.0" encoding="UTF-8"?>
<svg width="63px" height="63px" viewBox="0 0 63 63" version="1.1" xmlns="http://www.w3.org/2000/svg" xmlns:xlink="http://www.w3.org/1999/xlink">
    <!-- Generator: Sketch 59.1 (86144) - https://sketch.com -->
    <title>得分</title>
    <desc>Created with Sketch.</desc>
    <defs>
        <linearGradient x1="50%" y1="0%" x2="50%" y2="100%" id="linearGradient-1">
            <stop stop-color="#FADA00" offset="0%"></stop>
            <stop stop-color="#FFBE00" offset="100%"></stop>
        </linearGradient>
    </defs>
    <g id="页面-1" stroke="none" stroke-width="1" fill="none" fill-rule="evenodd">
        <g id="3" transform="translate(-144.000000, -2193.000000)">
            <g id="脂肪量备份-11" transform="translate(144.000000, 1071.000000)">
                <g id="得分" transform="translate(0.000000, 1122.000000)">
                    <rect id="矩形" fill="url(#linearGradient-1)" x="0" y="0" width="63" height="63" rx="10"></rect>
                    <path d="M41.874286,49.9961379 C41.4181079,49.9961379 40.9619299,49.8802836 40.467737,49.609957 L32.7963427,45.528024 C32.5643396,45.3960781 32.3018768,45.3294211 32.036046,45.3349335 C31.7699421,45.3349335 31.4658234,45.4121697 31.2757492,45.4894059 L23.6461712,49.609957 C23.2092098,49.8722553 22.7090613,50.005962 22.2016074,49.9961379 C21.2828667,49.9857067 20.411941,49.5784425 19.8066726,48.8762131 C19.2075049,48.1772926 18.9554931,47.2385856 19.1224055,46.3274186 L20.6049842,37.6962737 C20.6774068,37.155299 20.4942213,36.6113364 20.1107913,36.228786 L13.9599906,30.1696064 C13.0902266,29.3411839 12.7779962,28.0724431 13.161679,26.9256862 C13.5418274,25.7671432 14.4921983,24.960025 15.6706583,24.7669345 L24.1745775,23.4925372 C24.7067852,23.415301 25.2009781,23.0677382 25.4290671,22.604321 L29.2305509,14.7378144 C29.7589572,13.6565077 30.8233726,13 31.9980311,13 C33.1764911,13 34.2409066,13.6565077 34.7731143,14.7378144 L38.5707966,22.6081828 C38.8369004,23.1102181 39.2930785,23.4191629 39.8252862,23.4963991 L48.3292055,24.7669345 C49.5076654,24.960025 50.4580364,25.771005 50.8381848,26.8909299 C51.2183331,28.0494728 50.9142144,29.2813901 50.077888,30.1309883 L43.9613006,36.2249242 C43.5621004,36.5971953 43.3760216,37.1497495 43.4671077,37.6924119 L44.9116715,46.2965241 C45.0637309,47.2233585 44.8356419,48.1501928 44.2274045,48.8414568 C43.6575633,49.5735413 42.7892081,50.0003809 41.8704845,50 L41.874286,49.9961379 Z" id="路径" fill="#FFFFFF" fill-rule="nonzero"></path>
                </g>
            </g>
        </g>
    </g>
</svg>