<?xml version="1.0" encoding="UTF-8"?>
<svg width="85px" height="90px" viewBox="0 0 85 90" version="1.1" xmlns="http://www.w3.org/2000/svg" xmlns:xlink="http://www.w3.org/1999/xlink">
    <!-- Generator: Sketch 59.1 (86144) - https://sketch.com -->
    <title>烤鸡翅</title>
    <desc>Created with Sketch.</desc>
    <defs>
        <path d="M21.911546,0 C17.0096944,5.2599106 18.1912218,15.1062894 18.1912218,15.1062894 L18.1912218,15.1062894 C18.531891,32.9226412 49.4543823,43.616254 49.4543823,43.616254 L49.4543823,43.616254 C25.9644283,43.1084567 5.85412928,59.0619801 5.85412928,59.0619801 L5.85412928,59.0619801 C-11.2117765,73.9971935 11.4319119,97.0761714 42.8654069,87.9113813 L42.8654069,87.9113813 C44.0523417,87.5665137 45.1635723,87.1483277 46.2964326,86.7518657 L46.2964326,86.7518657 C40.4077218,84.986795 37.6472196,83.979347 33.3158538,82.3989299 L33.3158538,82.3989299 C33.4429288,80.3595944 33.3158538,77.1363038 33.3158538,77.1363038 L33.3158538,77.1363038 C45.9665783,79.8653746 52.5907021,83.8680118 52.9205564,84.0743893 L52.9205564,84.0743893 C55.2836112,82.9528905 57.4952574,81.722772 59.5771249,80.4057578 L59.5771249,80.4057578 C53.6316358,78.6162476 47.47796,75.4119655 43.1330756,73.8288329 L43.1330756,73.8288329 C43.2601506,71.7894974 43.6792278,68.7644378 43.6792278,68.7644378 L43.6792278,68.7644378 C56.2731741,71.9198411 63.8246752,76.8185911 64.268086,77.1091488 L64.268086,77.1091488 C66.6041035,75.2979148 68.7562678,73.3916385 70.6759118,71.3903199 L70.6759118,71.3903199 C65.2116856,69.2396491 58.3685602,66.7033784 54.0155646,65.1148148 L54.0155646,65.1148148 C54.5779392,63.1922455 55.0564984,59.9390845 55.0564984,59.9390845 L55.0564984,59.9390845 C67.0285882,62.9397046 73.6689343,66.3476487 74.5773855,66.8310066 L74.5773855,66.8310066 C82.5047042,56.5908812 85.6680613,45.2862824 84.8839814,37.5661348 L84.8839814,37.5661348 C83.418563,23.1957441 67.0826626,15.8394726 67.0826626,15.8394726 L67.0826626,15.8394726 L65.6172442,22.2914848 C69.6755339,25.7971867 66.9150318,28.5126801 66.9150318,28.5126801 L66.9150318,28.5126801 C59.7609781,30.6606353 21.911546,0 21.911546,0 Z" id="path-1"></path>
        <linearGradient x1="59.6936638%" y1="67.1965467%" x2="30.2634646%" y2="10.0639911%" id="linearGradient-3">
            <stop stop-color="#FFFFFF" offset="0%"></stop>
            <stop stop-color="#72604F" offset="100%"></stop>
        </linearGradient>
    </defs>
    <g id="页面-1" stroke="none" stroke-width="1" fill="none" fill-rule="evenodd">
        <g id="2备份-2" transform="translate(-840.000000, -1571.000000)">
            <g id="工作模式" transform="translate(195.000000, 1571.000000)">
                <g id="烤鸡翅" transform="translate(645.000000, 0.000000)">
                    <mask id="mask-2" fill="white">
                        <use xlink:href="#path-1"></use>
                    </mask>
                    <g id="Clip-2"></g>
                    <path d="M21.911546,0 C17.0096944,5.2599106 18.1912218,15.1062894 18.1912218,15.1062894 L18.1912218,15.1062894 C18.531891,32.9226412 49.4543823,43.616254 49.4543823,43.616254 L49.4543823,43.616254 C25.9644283,43.1084567 5.85412928,59.0619801 5.85412928,59.0619801 L5.85412928,59.0619801 C-11.2117765,73.9971935 11.4319119,97.0761714 42.8654069,87.9113813 L42.8654069,87.9113813 C44.0523417,87.5665137 45.1635723,87.1483277 46.2964326,86.7518657 L46.2964326,86.7518657 C40.4077218,84.986795 37.6472196,83.979347 33.3158538,82.3989299 L33.3158538,82.3989299 C33.4429288,80.3595944 33.3158538,77.1363038 33.3158538,77.1363038 L33.3158538,77.1363038 C45.9665783,79.8653746 52.5907021,83.8680118 52.9205564,84.0743893 L52.9205564,84.0743893 C55.2836112,82.9528905 57.4952574,81.722772 59.5771249,80.4057578 L59.5771249,80.4057578 C53.6316358,78.6162476 47.47796,75.4119655 43.1330756,73.8288329 L43.1330756,73.8288329 C43.2601506,71.7894974 43.6792278,68.7644378 43.6792278,68.7644378 L43.6792278,68.7644378 C56.2731741,71.9198411 63.8246752,76.8185911 64.268086,77.1091488 L64.268086,77.1091488 C66.6041035,75.2979148 68.7562678,73.3916385 70.6759118,71.3903199 L70.6759118,71.3903199 C65.2116856,69.2396491 58.3685602,66.7033784 54.0155646,65.1148148 L54.0155646,65.1148148 C54.5779392,63.1922455 55.0564984,59.9390845 55.0564984,59.9390845 L55.0564984,59.9390845 C67.0285882,62.9397046 73.6689343,66.3476487 74.5773855,66.8310066 L74.5773855,66.8310066 C82.5047042,56.5908812 85.6680613,45.2862824 84.8839814,37.5661348 L84.8839814,37.5661348 C83.418563,23.1957441 67.0826626,15.8394726 67.0826626,15.8394726 L67.0826626,15.8394726 L65.6172442,22.2914848 C69.6755339,25.7971867 66.9150318,28.5126801 66.9150318,28.5126801 L66.9150318,28.5126801 C59.7609781,30.6606353 21.911546,0 21.911546,0 Z" id="Fill-1" fill="url(#linearGradient-3)" mask="url(#mask-2)"></path>
                </g>
            </g>
        </g>
    </g>
</svg>