<?xml version="1.0" encoding="UTF-8"?>
<svg width="89px" height="90px" viewBox="0 0 89 90" version="1.1" xmlns="http://www.w3.org/2000/svg" xmlns:xlink="http://www.w3.org/1999/xlink">
    <!-- Generator: Sketch 59.1 (86144) - https://sketch.com -->
    <title>披萨</title>
    <desc>Created with Sketch.</desc>
    <defs>
        <path d="M67.0437,6.65723077 L67.0437,10.1416377 L55.8445333,9.75841191 L0.0771333333,25.2024119 C1.06503333,94.6016576 61.8817,89.9321985 61.8817,89.9321985 L61.8817,89.9321985 L88.3354667,0.761449132 L67.0437,6.65723077 Z" id="path-1"></path>
        <linearGradient x1="49.9996602%" y1="-0.000848659101%" x2="49.9996602%" y2="100.002368%" id="linearGradient-3">
            <stop stop-color="#566172" offset="0%"></stop>
            <stop stop-color="#FFFFFF" offset="100%"></stop>
        </linearGradient>
        <path d="M0.0771704345,3.02340659 C-1.21691839,35.4501099 13.979721,52.739011 29.669064,60.9220879 L29.669064,60.9220879 C45.9579618,69.3514286 61.9114651,68.1735165 61.9114651,68.1735165 L61.9114651,68.1735165 L64.2028334,60.4176923 C8.68761007,53.7092308 7.38461696,0.988021978 7.38461696,0.988021978 L7.38461696,0.988021978 L0.0771704345,3.02340659 Z" id="path-4"></path>
        <linearGradient x1="-2.30038245%" y1="39.798338%" x2="100.706744%" y2="60.7611173%" id="linearGradient-6">
            <stop stop-color="#566172" offset="0%"></stop>
            <stop stop-color="#FFFFFF" offset="100%"></stop>
        </linearGradient>
        <path d="M0.343144444,7.96131868 C0.343144444,12.3013187 3.99214444,15.8213187 8.49851111,15.8213187 L8.49851111,15.8213187 C13.0019111,15.8213187 16.6568444,12.3013187 16.6568444,7.96131868 L16.6568444,7.96131868 C16.6568444,3.62417582 13.0019111,0.107032967 8.49851111,0.107032967 L8.49851111,0.107032967 C3.99214444,0.107032967 0.343144444,3.62417582 0.343144444,7.96131868" id="path-7"></path>
        <linearGradient x1="0.889929078%" y1="41.1393032%" x2="99.088858%" y2="58.847096%" id="linearGradient-9">
            <stop stop-color="#566172" offset="0%"></stop>
            <stop stop-color="#FFFFFF" offset="100%"></stop>
        </linearGradient>
    </defs>
    <g id="页面-1" stroke="none" stroke-width="1" fill="none" fill-rule="evenodd">
        <g id="2备份-2" transform="translate(-410.000000, -953.000000)">
            <g id="工作模式未选中" transform="translate(194.000000, 653.000000)">
                <g id="披萨" transform="translate(216.000000, 300.000000)">
                    <g id="编组">
                        <mask id="mask-2" fill="white">
                            <use xlink:href="#path-1"></use>
                        </mask>
                        <g id="Clip-2"></g>
                        <path d="M67.0437,6.65723077 L67.0437,10.1416377 L55.8445333,9.75841191 L0.0771333333,25.2024119 C1.06503333,94.6016576 61.8817,89.9321985 61.8817,89.9321985 L61.8817,89.9321985 L88.3354667,0.761449132 L67.0437,6.65723077 Z" id="Fill-1" fill="url(#linearGradient-3)" mask="url(#mask-2)"></path>
                    </g>
                    <g id="编组" transform="translate(0.000000, 21.758242)">
                        <mask id="mask-5" fill="white">
                            <use xlink:href="#path-4"></use>
                        </mask>
                        <g id="Clip-4"></g>
                        <path d="M0.0771704345,3.02340659 C-1.21691839,35.4501099 13.979721,52.739011 29.669064,60.9220879 L29.669064,60.9220879 C45.9579618,69.3514286 61.9114651,68.1735165 61.9114651,68.1735165 L61.9114651,68.1735165 L64.2028334,60.4176923 C8.68761007,53.7092308 7.38461696,0.988021978 7.38461696,0.988021978 L7.38461696,0.988021978 L0.0771704345,3.02340659 Z" id="Fill-3" fill="url(#linearGradient-6)" mask="url(#mask-5)"></path>
                    </g>
                    <g id="编组" transform="translate(19.777778, 34.615385)">
                        <mask id="mask-8" fill="white">
                            <use xlink:href="#path-7"></use>
                        </mask>
                        <g id="Clip-6"></g>
                        <path d="M0.343144444,7.96131868 C0.343144444,12.3013187 3.99214444,15.8213187 8.49851111,15.8213187 L8.49851111,15.8213187 C13.0019111,15.8213187 16.6568444,12.3013187 16.6568444,7.96131868 L16.6568444,7.96131868 C16.6568444,3.62417582 13.0019111,0.107032967 8.49851111,0.107032967 L8.49851111,0.107032967 C3.99214444,0.107032967 0.343144444,3.62417582 0.343144444,7.96131868" id="Fill-5" fill="url(#linearGradient-9)" mask="url(#mask-8)"></path>
                    </g>
                    <g id="编组" transform="translate(39.555556, 20.769231)" fill="#FFFFFF">
                        <path d="M8.93144667,5.10371566 C8.93144667,7.48588967 7.02091333,9.41503059 4.66834667,9.41503059 C2.31281333,9.41503059 0.40228,7.48588967 0.40228,5.10371566 C0.40228,2.72154165 2.31281333,0.792400739 4.66834667,0.792400739 C7.02091333,0.792400739 8.93144667,2.72154165 8.93144667,5.10371566" id="Fill-7"></path>
                        <path d="M34.6723233,7.79041192 C34.6723233,11.570688 31.6433567,14.6339118 27.9053567,14.6339118 C24.1673567,14.6339118 21.13839,11.570688 21.13839,7.79041192 C21.13839,4.01013578 24.1673567,0.946912025 27.9053567,0.946912025 C31.6433567,0.946912025 34.6723233,4.01013578 34.6723233,7.79041192" id="Fill-9"></path>
                        <path d="M15.2035733,30.7930922 C15.2035733,33.9163203 12.6997067,36.4485053 9.61140667,36.4485053 C6.52014,36.4485053 4.01627333,33.9163203 4.01627333,30.7930922 C4.01627333,27.6668638 6.52014,25.1346788 9.61140667,25.1346788 C12.6997067,25.1346788 15.2035733,27.6668638 15.2035733,30.7930922" id="Fill-11"></path>
                    </g>
                </g>
            </g>
        </g>
    </g>
</svg>