<?xml version="1.0" encoding="UTF-8"?>
<svg width="95px" height="89px" viewBox="0 0 95 89" version="1.1" xmlns="http://www.w3.org/2000/svg" xmlns:xlink="http://www.w3.org/1999/xlink">
    <!-- Generator: Sketch 59.1 (86144) - https://sketch.com -->
    <title>焗饭</title>
    <desc>Created with Sketch.</desc>
    <defs>
        <path d="M43.1339411,0.00096684023 C19.9820543,0.00096684023 1.17902728,18.6677512 0.495760702,41.9462943 L0.495760702,41.9462943 L85.7750539,41.9462943 C85.0917874,18.6677512 66.2858279,0.00096684023 43.1339411,0.00096684023 Z" id="path-1"></path>
        <linearGradient x1="50%" y1="100%" x2="50%" y2="0%" id="linearGradient-3">
            <stop stop-color="#FFFFFF" offset="0%"></stop>
            <stop stop-color="#72604F" offset="100%"></stop>
        </linearGradient>
        <path d="M0,0.146140449 C0.755932148,25.8799101 21.5925988,46.5168539 47.2442885,46.5168539 L47.2442885,46.5168539 C72.8959783,46.5168539 93.7326449,25.8799101 94.4915184,0.146140449 L94.4915184,0.146140449 L0,0.146140449 Z" id="path-4"></path>
        <linearGradient x1="50%" y1="100%" x2="50%" y2="0%" id="linearGradient-6">
            <stop stop-color="#FFFFFF" offset="0%"></stop>
            <stop stop-color="#72604F" offset="100%"></stop>
        </linearGradient>
    </defs>
    <g id="页面-1" stroke="none" stroke-width="1" fill="none" fill-rule="evenodd">
        <g id="2备份-2" transform="translate(-195.000000, -1871.000000)">
            <g id="工作模式" transform="translate(195.000000, 1571.000000)">
                <g id="焗饭" transform="translate(0.000000, 300.000000)">
                    <g id="编组" transform="translate(4.042553, 0.000000)">
                        <mask id="mask-2" fill="white">
                            <use xlink:href="#path-1"></use>
                        </mask>
                        <g id="Clip-2"></g>
                        <path d="M43.1339411,0.000966840229 C66.2858279,0.000966840229 85.0917874,18.6677512 85.7750539,41.9462943 L85.7750539,41.9462943 L0.495760702,41.9462943 L0.521680857,41.2493356 C1.55552271,18.2962822 20.2135731,0.000966840229 43.1339411,0.000966840229 Z M41.8284113,26.1135768 C39.4061451,26.1135768 37.4455411,28.1554775 37.4455411,30.6781835 C37.4455411,33.2008895 39.4061451,35.2427903 41.8284113,35.2427903 C44.2506776,35.2427903 46.2112815,33.2008895 46.2112815,30.6781835 C46.2112815,28.1554775 44.2506776,26.1135768 41.8284113,26.1135768 Z M21.5573446,25.2578652 C19.1350783,25.2578652 17.1744744,27.2997659 17.1744744,29.8224719 C17.1744744,32.3451779 19.1350783,34.3870787 21.5573446,34.3870787 C23.9796108,34.3870787 25.9402148,32.3451779 25.9402148,29.8224719 C25.9402148,27.2997659 23.9796108,25.2578652 21.5573446,25.2578652 Z M62.2818054,25.2578652 C59.8595392,25.2578652 57.8989353,27.2997659 57.8989353,29.8224719 C57.8989353,32.3451779 59.8595392,34.3870787 62.2818054,34.3870787 C64.7040717,34.3870787 66.6646756,32.3451779 66.6646756,29.8224719 C66.6646756,27.2997659 64.7040717,25.2578652 62.2818054,25.2578652 Z M33.0623788,10.708029 C30.6401125,10.708029 28.6795086,12.7499298 28.6795086,15.2726358 C28.6795086,17.7953418 30.6401125,19.8372425 33.0623788,19.8372425 C35.484645,19.8372425 37.445249,17.7953418 37.445249,15.2726358 C37.445249,12.7499298 35.484645,10.708029 33.0623788,10.708029 Z M50.8679349,10.708029 C48.4456687,10.708029 46.4850648,12.7499298 46.4850648,15.2726358 C46.4850648,17.7953418 48.4456687,19.8372425 50.8679349,19.8372425 C53.2902012,19.8372425 55.2508051,17.7953418 55.2508051,15.2726358 C55.2508051,12.7499298 53.2902012,10.708029 50.8679349,10.708029 Z" id="形状结合" fill="url(#linearGradient-3)" mask="url(#mask-2)"></path>
                    </g>
                    <g id="编组" transform="translate(0.000000, 42.471910)">
                        <mask id="mask-5" fill="white">
                            <use xlink:href="#path-4"></use>
                        </mask>
                        <g id="Clip-4"></g>
                        <path d="M0,0.146140449 C0.755932148,25.8799101 21.5925988,46.5168539 47.2442885,46.5168539 L47.2442885,46.5168539 C72.8959783,46.5168539 93.7326449,25.8799101 94.4915184,0.146140449 L94.4915184,0.146140449 L0,0.146140449 Z" id="Fill-3" fill="url(#linearGradient-6)" mask="url(#mask-5)"></path>
                    </g>
                    <g id="编组" transform="translate(20.212766, 10.112360)"></g>
                </g>
            </g>
        </g>
    </g>
</svg>