<?xml version="1.0" encoding="UTF-8"?>
<svg width="89px" height="90px" viewBox="0 0 89 90" version="1.1" xmlns="http://www.w3.org/2000/svg" xmlns:xlink="http://www.w3.org/1999/xlink">
    <!-- Generator: Sketch 59.1 (86144) - https://sketch.com -->
    <title>披萨</title>
    <desc>Created with Sketch.</desc>
    <defs>
        <path d="M67.0437,6.65723077 L67.0437,10.1416377 L55.8445333,9.75841191 L0.0771333333,25.2024119 C1.06503333,94.6016576 61.8817,89.9321985 61.8817,89.9321985 L61.8817,89.9321985 L88.3354667,0.761449132 L67.0437,6.65723077 Z" id="path-1"></path>
        <linearGradient x1="56.3695844%" y1="105.762781%" x2="56.3695844%" y2="10.2860737%" id="linearGradient-3">
            <stop stop-color="#FFFFFF" offset="0%"></stop>
            <stop stop-color="#72604F" offset="100%"></stop>
        </linearGradient>
        <path d="M0.0771704345,3.02340659 C-1.21691839,35.4501099 13.979721,52.739011 29.669064,60.9220879 L29.669064,60.9220879 C45.9579618,69.3514286 61.9114651,68.1735165 61.9114651,68.1735165 L61.9114651,68.1735165 L64.2028334,60.4176923 C8.68761007,53.7092308 7.38461696,0.988021978 7.38461696,0.988021978 L7.38461696,0.988021978 L0.0771704345,3.02340659 Z" id="path-4"></path>
        <linearGradient x1="90.9941528%" y1="100%" x2="4.41720755%" y2="-3.34723359%" id="linearGradient-6">
            <stop stop-color="#FFFFFF" offset="0%"></stop>
            <stop stop-color="#72604F" offset="100%"></stop>
        </linearGradient>
        <path d="M0.343144444,7.96131868 C0.343144444,12.3013187 3.99214444,15.8213187 8.49851111,15.8213187 L8.49851111,15.8213187 C13.0019111,15.8213187 16.6568444,12.3013187 16.6568444,7.96131868 L16.6568444,7.96131868 C16.6568444,3.62417582 13.0019111,0.107032967 8.49851111,0.107032967 L8.49851111,0.107032967 C3.99214444,0.107032967 0.343144444,3.62417582 0.343144444,7.96131868" id="path-7"></path>
        <linearGradient x1="66.3017665%" y1="21.0295971%" x2="17.5782003%" y2="80.1016873%" id="linearGradient-9">
            <stop stop-color="#FFFFFF" offset="0%"></stop>
            <stop stop-color="#72604F" offset="100%"></stop>
        </linearGradient>
    </defs>
    <g id="页面-1" stroke="none" stroke-width="1" fill="none" fill-rule="evenodd">
        <g id="2备份-2" transform="translate(-411.000000, -1871.000000)">
            <g id="工作模式" transform="translate(195.000000, 1571.000000)">
                <g id="披萨" transform="translate(216.000000, 300.000000)">
                    <g id="编组">
                        <mask id="mask-2" fill="white">
                            <use xlink:href="#path-1"></use>
                        </mask>
                        <g id="Clip-2"></g>
                        <path d="M88.3354667,0.761449132 L61.8817,89.9321985 L61.8635756,89.9335206 C60.6713495,90.0181808 1.05515433,93.9076651 0.0771333333,25.2024119 L0.0771333333,25.2024119 L55.8445333,9.75841191 L67.0437,10.1416377 L67.0437,6.65723077 L88.3354667,0.761449132 Z M49.1669622,45.9039096 C46.0756956,45.9039096 43.5718289,48.4360946 43.5718289,51.5623229 C43.5718289,54.6855511 46.0756956,57.217736 49.1669622,57.217736 C52.2552622,57.217736 54.7591289,54.6855511 54.7591289,51.5623229 C54.7591289,48.4360946 52.2552622,45.9039096 49.1669622,45.9039096 Z M67.4609122,21.7161428 C63.7229122,21.7161428 60.6939456,24.7793666 60.6939456,28.5596427 C60.6939456,32.3399188 63.7229122,35.4031426 67.4609122,35.4031426 C71.1989122,35.4031426 74.2278789,32.3399188 74.2278789,28.5596427 C74.2278789,24.7793666 71.1989122,21.7161428 67.4609122,21.7161428 Z M44.2239022,21.5616315 C41.8683689,21.5616315 39.9578356,23.4907724 39.9578356,25.8729464 C39.9578356,28.2551204 41.8683689,30.1842614 44.2239022,30.1842614 C46.5764689,30.1842614 48.4870022,28.2551204 48.4870022,25.8729464 C48.4870022,23.4907724 46.5764689,21.5616315 44.2239022,21.5616315 Z" id="形状结合" fill="url(#linearGradient-3)" mask="url(#mask-2)"></path>
                    </g>
                    <g id="编组" transform="translate(0.000000, 21.758242)">
                        <mask id="mask-5" fill="white">
                            <use xlink:href="#path-4"></use>
                        </mask>
                        <g id="Clip-4"></g>
                        <path d="M0.0771704345,3.02340659 C-1.21691839,35.4501099 13.979721,52.739011 29.669064,60.9220879 L29.669064,60.9220879 C45.9579618,69.3514286 61.9114651,68.1735165 61.9114651,68.1735165 L61.9114651,68.1735165 L64.2028334,60.4176923 C8.68761007,53.7092308 7.38461696,0.988021978 7.38461696,0.988021978 L7.38461696,0.988021978 L0.0771704345,3.02340659 Z" id="Fill-3" fill="url(#linearGradient-6)" mask="url(#mask-5)"></path>
                    </g>
                    <g id="编组" transform="translate(19.777778, 34.615385)">
                        <mask id="mask-8" fill="white">
                            <use xlink:href="#path-7"></use>
                        </mask>
                        <g id="Clip-6"></g>
                        <path d="M0.343144444,7.96131868 C0.343144444,12.3013187 3.99214444,15.8213187 8.49851111,15.8213187 L8.49851111,15.8213187 C13.0019111,15.8213187 16.6568444,12.3013187 16.6568444,7.96131868 L16.6568444,7.96131868 C16.6568444,3.62417582 13.0019111,0.107032967 8.49851111,0.107032967 L8.49851111,0.107032967 C3.99214444,0.107032967 0.343144444,3.62417582 0.343144444,7.96131868" id="Fill-5" fill="url(#linearGradient-9)" mask="url(#mask-8)"></path>
                    </g>
                    <g id="编组" transform="translate(39.555556, 20.769231)"></g>
                </g>
            </g>
        </g>
    </g>
</svg>