<?xml version="1.0" encoding="UTF-8"?>
<svg width="95px" height="95px" viewBox="0 0 95 95" version="1.1" xmlns="http://www.w3.org/2000/svg" xmlns:xlink="http://www.w3.org/1999/xlink">
    <!-- Generator: Sketch 59.1 (86144) - https://sketch.com -->
    <title>面团发酵</title>
    <desc>Created with Sketch.</desc>
    <defs>
        <polygon id="path-1" points="46.3404255 0.925417228 0 0.925417228 0 7.31685393 13.4042553 44.494382 46.3404255 44.494382 79.2765957 44.494382 92.6808511 7.31685393 92.6808511 0.925417228"></polygon>
        <linearGradient x1="50%" y1="0.00355542914%" x2="50%" y2="100%" id="linearGradient-3">
            <stop stop-color="#566172" offset="0%"></stop>
            <stop stop-color="#FFFFFF" offset="100%"></stop>
        </linearGradient>
        <linearGradient x1="50%" y1="0.0242365487%" x2="50%" y2="100%" id="linearGradient-4">
            <stop stop-color="#566172" offset="0%"></stop>
            <stop stop-color="#595757" offset="100%"></stop>
        </linearGradient>
        <path d="M20.4084028,23.8462861 C20.0584561,24.6053273 19.2971687,25.0762427 18.4683477,25.0762427 L18.4683477,25.0762427 L11.7518279,25.0762427 C10.5761299,25.0762427 9.45261704,25.5471581 8.62072633,26.3836524 L8.62072633,26.3836524 L1.62179346,33.453579 C0.792972461,34.2869753 0.326376936,35.4208899 0.326376936,36.6012764 L0.326376936,36.6012764 L0.326376936,44.4395386 L81.0995878,44.4395386 L81.0995878,25.376761 C81.0995878,24.2986127 80.9430327,23.2390532 80.6115043,22.213573 L80.6115043,22.213573 C78.8801893,16.8166352 72.1206936,0.421345318 53.8528649,0.0991400749 L53.8528649,0.0991400749 C53.662543,0.0960419476 53.4722212,0.0929438202 53.284969,0.0929438202 L53.284969,0.0929438202 C33.6480508,0.0929438202 22.9716084,18.2262831 20.4084028,23.8462861" id="path-5"></path>
        <linearGradient x1="49.9990499%" y1="-0.00262051139%" x2="49.9990499%" y2="99.9982535%" id="linearGradient-7">
            <stop stop-color="#566172" offset="0%"></stop>
            <stop stop-color="#FFFFFF" offset="100%"></stop>
        </linearGradient>
    </defs>
    <g id="页面-1" stroke="none" stroke-width="1" fill="none" fill-rule="evenodd">
        <g id="切图" transform="translate(-667.000000, -3419.000000)">
            <g id="莫兰迪" transform="translate(18.000000, 3276.000000)">
                <g id="工作模式" transform="translate(8.000000, 0.000000)">
                    <g id="面团发酵" transform="translate(642.000000, 146.000000)">
                        <g id="编组" transform="translate(0.000000, 43.505618)">
                            <mask id="mask-2" fill="white">
                                <use xlink:href="#path-1"></use>
                            </mask>
                            <g id="Clip-2"></g>
                            <polygon id="Fill-1" fill="url(#linearGradient-3)" mask="url(#mask-2)" points="46.3404255 0.925417228 0 0.925417228 0 7.31685393 13.4042553 44.494382 46.3404255 44.494382 79.2765957 44.494382 92.6808511 7.31685393 92.6808511 0.925417228"></polygon>
                        </g>
                        <polygon id="Fill-3" fill="url(#linearGradient-4)" points="0 51.4157303 93 51.4157303 93 45.4831461 0 45.4831461"></polygon>
                        <g id="编组" transform="translate(5.000000, 0.000000)">
                            <mask id="mask-6" fill="white">
                                <use xlink:href="#path-5"></use>
                            </mask>
                            <g id="Clip-6"></g>
                            <path d="M20.4084028,23.8462861 C20.0584561,24.6053273 19.2971687,25.0762427 18.4683477,25.0762427 L18.4683477,25.0762427 L11.7518279,25.0762427 C10.5761299,25.0762427 9.45261704,25.5471581 8.62072633,26.3836524 L8.62072633,26.3836524 L1.62179346,33.453579 C0.792972461,34.2869753 0.326376936,35.4208899 0.326376936,36.6012764 L0.326376936,36.6012764 L0.326376936,44.4395386 L81.0995878,44.4395386 L81.0995878,25.376761 C81.0995878,24.2986127 80.9430327,23.2390532 80.6115043,22.213573 L80.6115043,22.213573 C78.8801893,16.8166352 72.1206936,0.421345318 53.8528649,0.0991400749 L53.8528649,0.0991400749 C53.662543,0.0960419476 53.4722212,0.0929438202 53.284969,0.0929438202 L53.284969,0.0929438202 C33.6480508,0.0929438202 22.9716084,18.2262831 20.4084028,23.8462861" id="Fill-5" fill="url(#linearGradient-7)" mask="url(#mask-6)"></path>
                        </g>
                        <g id="编组" transform="translate(27.000000, 8.898876)" fill="#FFFFFF">
                            <path d="M34.9711795,4.71020824 C34.9711795,6.79891735 33.2929744,8.4908025 31.2211538,8.4908025 C29.1493333,8.4908025 27.4711282,6.79891735 27.4711282,4.71020824 C27.4711282,2.62149913 29.1493333,0.929613983 31.2211538,0.929613983 C33.2929744,0.929613983 34.9711795,2.62149913 34.9711795,4.71020824" id="Fill-7"></path>
                            <path d="M50.7371538,22.6549573 C50.7371538,24.7436664 49.0589487,26.4355516 46.9871282,26.4355516 C44.9153077,26.4355516 43.2371026,24.7436664 43.2371026,22.6549573 C43.2371026,20.5662482 44.9153077,18.874363 46.9871282,18.874363 C49.0589487,18.874363 50.7371538,20.5662482 50.7371538,22.6549573" id="Fill-9"></path>
                            <path d="M17.0448974,15.0922307 C17.0448974,17.1809398 15.3666923,18.872825 13.2948718,18.872825 C11.2230513,18.872825 9.54484615,17.1809398 9.54484615,15.0922307 C9.54484615,13.0035216 11.2230513,11.3116365 13.2948718,11.3116365 C15.3666923,11.3116365 17.0448974,13.0035216 17.0448974,15.0922307" id="Fill-11"></path>
                            <path d="M8.01920513,21.6290597 C8.01920513,23.7177688 6.341,25.4096539 4.26917949,25.4096539 C2.19735897,25.4096539 0.519153846,23.7177688 0.519153846,21.6290597 C0.519153846,19.5403506 2.19735897,17.8484654 4.26917949,17.8484654 C6.341,17.8484654 8.01920513,19.5403506 8.01920513,21.6290597" id="Fill-13"></path>
                        </g>
                    </g>
                </g>
            </g>
        </g>
    </g>
</svg>