<?xml version="1.0" encoding="UTF-8"?>
<svg width="89px" height="90px" viewBox="0 0 89 90" version="1.1" xmlns="http://www.w3.org/2000/svg" xmlns:xlink="http://www.w3.org/1999/xlink">
    <!-- Generator: Sketch 59.1 (86144) - https://sketch.com -->
    <title>烤鱼虾</title>
    <desc>Created with Sketch.</desc>
    <defs>
        <path d="M20.6927536,30.3370787 L36.3913043,30.3370787 L64.2898551,30.3370787 L64.2898551,20.6313585 L52.6956522,5.83406537 L47.5043478,5.83406537 L36.3913043,20.6313585 L29.9884058,20.6313585 C29.9884058,20.6313585 27.5623188,16.811951 27.2463768,14.0783963 L27.2463768,14.0783963 C26.7449275,13.6621042 0,0.832737487 0,0.832737487 L0,0.832737487 C0,20.0724208 20.6927536,30.3370787 20.6927536,30.3370787" id="path-1"></path>
        <linearGradient x1="69.4745075%" y1="100%" x2="69.4745075%" y2="0%" id="linearGradient-3">
            <stop stop-color="#FFFFFF" offset="0%"></stop>
            <stop stop-color="#72604F" offset="100%"></stop>
        </linearGradient>
        <linearGradient x1="50%" y1="0%" x2="49.999459%" y2="100%" id="linearGradient-4">
            <stop stop-color="#FFFFFF" offset="0%"></stop>
            <stop stop-color="#72604F" offset="100%"></stop>
        </linearGradient>
        <path d="M0,28.038418 L27.1425,41.4368899 C27.1425,41.4368899 25.5745875,31.6722013 32.109,24.389911 L32.109,24.389911 C32.109,24.389911 4.4092125,10.4437213 4.868325,0.552409888 L4.868325,0.552409888 C4.868325,0.552409888 0.7594125,9.14215551 0,28.038418" id="path-5"></path>
        <linearGradient x1="50%" y1="100%" x2="50%" y2="11.5393476%" id="linearGradient-7">
            <stop stop-color="#FFFFFF" offset="0%"></stop>
            <stop stop-color="#72604F" offset="100%"></stop>
        </linearGradient>
        <path d="M11.3448889,0.39347191 C9.65488889,0.39347191 8.26533333,1.76298876 8.21911111,3.48148315 L8.21911111,3.48148315 C8.17,5.27329213 9.58555556,6.75131461 11.3477778,6.74838202 L11.3477778,6.74838202 L73.8113333,6.68973034 C74.6231111,6.68973034 75.3944444,6.99765169 75.9808889,7.56364045 L75.9808889,7.56364045 C77.2837778,8.83051685 79.0431111,11.5108989 77.226,15.8980449 L77.226,15.8980449 L68.1866667,15.8628539 L65.5837778,15.9127079 L25.3588889,15.8540562 C24.9948889,15.8540562 24.6511111,15.8804494 24.2928889,15.9420337 L24.2928889,15.9420337 C21.1613333,16.4874944 5.81844444,19.7719888 0.534666667,32.2647978 L0.534666667,32.2647978 C0.335333333,32.7310787 0.225555556,33.2472135 0.274666667,33.7545506 L0.274666667,33.7545506 C0.526,36.311764 3.44088889,43.9628764 26.4768889,56.0216629 L26.4768889,56.0216629 C27.1211111,56.3589101 27.8577778,56.4703483 28.5655556,56.3178539 L28.5655556,56.3178539 C34.456,55.0627079 62.7324444,48.6022247 72.5488889,38.3323146 L72.5488889,38.3323146 C72.5488889,38.3323146 82.1544444,29.5609551 83.4486667,15.9361685 L83.4486667,15.9361685 L83.6855556,12.5695618 C84.2026667,3.85685393 79.6786667,1.24685393 78.0348889,0.589955056 L78.0348889,0.589955056 C77.6911111,0.449191011 77.3271111,0.39347191 76.9573333,0.39347191 L76.9573333,0.39347191 L11.3448889,0.39347191 Z" id="path-8"></path>
        <linearGradient x1="50%" y1="100%" x2="50%" y2="0%" id="linearGradient-10">
            <stop stop-color="#FFFFFF" offset="0%"></stop>
            <stop stop-color="#72604F" offset="100%"></stop>
        </linearGradient>
        <path d="M54.9182692,5.17922191 L14.4471154,5.17922191 C8.57692308,5.51641854 0.618269231,9.90293258 0.618269231,9.90293258 L0.618269231,9.90293258 L55.6826923,9.90293258 C56.7269231,11.5356742 58.5240385,12.6182528 60.5692308,12.6182528 L60.5692308,12.6182528 C62.6144231,12.6182528 64.4086538,11.5356742 65.4557692,9.90293258 L65.4557692,9.90293258 L71.675,9.90293258 C72.7596154,6.26475843 72.2807692,5.17922191 72.2807692,5.17922191 L72.2807692,5.17922191 L66.2201923,5.17922191 C65.5884615,2.57038483 63.3038462,0.632983146 60.5692308,0.632983146 L60.5692308,0.632983146 C57.8288462,0.632983146 55.55,2.57038483 54.9182692,5.17922191" id="path-11"></path>
    </defs>
    <g id="页面-1" stroke="none" stroke-width="1" fill="none" fill-rule="evenodd">
        <g id="2备份-2" transform="translate(-625.000000, -1571.000000)">
            <g id="工作模式" transform="translate(195.000000, 1571.000000)">
                <g id="烤鱼虾" transform="translate(430.000000, 0.000000)">
                    <g id="编组" transform="translate(0.000000, 59.662921)">
                        <mask id="mask-2" fill="white">
                            <use xlink:href="#path-1"></use>
                        </mask>
                        <g id="Clip-2"></g>
                        <path d="M20.6927536,30.3370787 L36.3913043,30.3370787 L64.2898551,30.3370787 L64.2898551,20.6313585 L52.6956522,5.83406537 L47.5043478,5.83406537 L36.3913043,20.6313585 L29.9884058,20.6313585 C29.9884058,20.6313585 27.5623188,16.811951 27.2463768,14.0783963 L27.2463768,14.0783963 C26.7449275,13.6621042 0,0.832737487 0,0.832737487 L0,0.832737487 C0,20.0724208 20.6927536,30.3370787 20.6927536,30.3370787" id="Fill-1" fill="url(#linearGradient-3)" mask="url(#mask-2)"></path>
                    </g>
                    <g id="编组" transform="translate(0.000000, 32.359551)">
                        <mask id="mask-6" fill="white">
                            <use xlink:href="#path-5"></use>
                        </mask>
                        <g id="Clip-4"></g>
                        <path d="M0,28.038418 L27.1425,41.4368899 C27.1425,41.4368899 25.5745875,31.6722013 32.109,24.389911 L32.109,24.389911 C32.109,24.389911 4.4092125,10.4437213 4.868325,0.552409888 L4.868325,0.552409888 C4.868325,0.552409888 0.7594125,9.14215551 0,28.038418" id="Fill-3" fill="url(#linearGradient-7)" mask="url(#mask-6)"></path>
                    </g>
                    <g id="编组" transform="translate(5.000000, 0.000000)">
                        <mask id="mask-9" fill="white">
                            <use xlink:href="#path-8"></use>
                        </mask>
                        <g id="Clip-6"></g>
                        <path d="M25.3588889,15.8540562 L65.5837778,15.9127079 L66.0293524,15.9035621 C65.9880274,16.0347341 65.950945,16.1678776 65.9182692,16.3028174 L25.4471154,16.3028174 C19.6747596,16.6343941 11.8829776,20.8814358 11.6248549,21.0229117 L11.6182692,21.0265281 L66.6826923,21.0265281 C67.6834135,22.5912388 69.3755859,23.6506783 71.3149103,23.7362484 L71.5692308,23.7418483 C73.5292067,23.7418483 75.2586989,22.7476051 76.3210245,21.2277168 L76.4557692,21.0265281 L82.5535762,21.0275569 C79.8046572,31.7066747 72.5488889,38.3323146 72.5488889,38.3323146 C62.7324444,48.6022247 34.456,55.0627079 28.5655556,56.3178539 C27.8577778,56.4703483 27.1211111,56.3589101 26.4768889,56.0216629 C3.44088889,43.9628764 0.526,36.311764 0.274666667,33.7545506 C0.225555556,33.2472135 0.335333333,32.7310787 0.534666667,32.2647978 C5.81844444,19.7719888 21.1613333,16.4874944 24.2928889,15.9420337 C24.6511111,15.8804494 24.9948889,15.8540562 25.3588889,15.8540562 L25.3588889,15.8540562 Z M76.9573333,0.39347191 C77.3271111,0.39347191 77.6911111,0.449191011 78.0348889,0.589955056 C79.6786667,1.24685393 84.2026667,3.85685393 83.6855556,12.5695618 L83.6855556,12.5695618 L83.4486667,15.9361685 C83.4238204,16.1977352 83.3959109,16.4575132 83.3650649,16.7154746 C83.3359449,16.4460222 83.289208,16.323425 83.2817782,16.3052252 L83.2807692,16.3028174 L77.2201923,16.3028174 C77.1870215,16.165833 77.1492936,16.0306998 77.1071826,15.8976011 L77.226,15.8980449 C79.0431111,11.5108989 77.2837778,8.83051685 75.9808889,7.56364045 C75.3944444,6.99765169 74.6231111,6.68973034 73.8113333,6.68973034 L73.8113333,6.68973034 L11.3477778,6.74838202 C9.58555556,6.75131461 8.17,5.27329213 8.21911111,3.48148315 C8.26533333,1.76298876 9.65488889,0.39347191 11.3448889,0.39347191 L11.3448889,0.39347191 Z" id="形状结合" fill="url(#linearGradient-10)" mask="url(#mask-9)"></path>
                    </g>
                    <g id="编组" transform="translate(16.000000, 11.123596)">
                        <mask id="mask-12" fill="white">
                            <use xlink:href="#path-11"></use>
                        </mask>
                        <g id="Clip-8"></g>
                    </g>
                </g>
            </g>
        </g>
    </g>
</svg>