<svg width="98" height="46" viewBox="0 0 98 46" fill="none" xmlns="http://www.w3.org/2000/svg">
<g filter="url(#filter0_d_1115_130)">
<path d="M15.1906 4.45059C15.5374 3.92571 15.7108 3.66327 15.9407 3.47323C16.1441 3.30499 16.3789 3.17871 16.6315 3.10167C16.9168 3.01465 17.2313 3.01465 17.8604 3.01465H80.8855C81.536 3.01465 81.8612 3.01465 82.1544 3.10692C82.4138 3.18858 82.6539 3.3223 82.8599 3.49991C83.0926 3.70059 83.2638 3.97714 83.6063 4.53023L91.9346 17.9828C92.2876 18.553 92.4641 18.8382 92.5895 19.1436C92.7009 19.4147 92.7821 19.6972 92.8317 19.9861C92.8875 20.3115 92.8893 20.6469 92.8929 21.3175L92.9682 35.4696C92.9742 36.5951 92.9772 37.1578 92.7601 37.588C92.5691 37.9663 92.2628 38.2742 91.8855 38.4672C91.4565 38.6866 90.8938 38.6866 89.7683 38.6866H8.21868C7.09857 38.6866 6.53852 38.6866 6.1107 38.4687C5.73437 38.2769 5.42841 37.971 5.23666 37.5946C5.01868 37.1668 5.01868 36.6068 5.01868 35.4866L5.01868 21.7688C5.01868 21.0538 5.01868 20.6963 5.07989 20.3505C5.13422 20.0435 5.22425 19.7439 5.34815 19.4578C5.48774 19.1355 5.68482 18.8373 6.07898 18.2407L15.1906 4.45059Z" fill="url(#paint0_linear_1115_130)"/>
<path d="M4.79116 37.8216L5.23626 37.5948L4.79116 37.8216C5.03084 38.292 5.4133 38.6745 5.8837 38.9142C6.17985 39.0651 6.49994 39.128 6.86437 39.1577C7.2183 39.1867 7.65537 39.1867 8.19726 39.1866H8.21868H89.7683H89.7896C90.3342 39.1867 90.7734 39.1867 91.1289 39.1576C91.4948 39.1276 91.8162 39.0643 92.1132 38.9123C92.5848 38.6711 92.9677 38.2862 93.2064 37.8133C93.3568 37.5155 93.4183 37.1938 93.4464 36.8277C93.4736 36.472 93.4712 36.0328 93.4683 35.4882L93.4682 35.467L93.3929 21.3149L93.3926 21.2684C93.3893 20.6418 93.3874 20.2679 93.3245 19.9015C93.2687 19.5765 93.1773 19.2587 93.0521 18.9536C92.9109 18.6097 92.714 18.2919 92.3843 17.7592L92.3597 17.7196L84.0314 4.26704L83.9909 4.20166C83.6878 3.71167 83.4783 3.37291 83.1864 3.12122C82.9289 2.89922 82.6288 2.73206 82.3045 2.62998C81.9368 2.51426 81.5385 2.51441 80.9623 2.51463L80.8855 2.51465H17.8604C17.8354 2.51465 17.8106 2.51464 17.7863 2.51463C17.2288 2.51443 16.8434 2.51429 16.4856 2.62342C16.1699 2.71972 15.8764 2.87757 15.6221 3.08787C15.3338 3.32621 15.1214 3.64788 14.8143 4.11306C14.8008 4.13341 14.7872 4.15404 14.7734 4.17495L5.66181 17.9651L5.63444 18.0065C5.26625 18.5637 5.04653 18.8962 4.88934 19.2591C4.74995 19.581 4.64866 19.918 4.58754 20.2634C4.51861 20.6528 4.51863 21.0513 4.51867 21.7192L4.51868 21.7688V35.4866L4.51868 35.5081C4.51867 36.0499 4.51867 36.487 4.54759 36.841C4.57736 37.2054 4.64027 37.5255 4.79116 37.8216Z" stroke="url(#paint1_linear_1115_130)"/>
</g>
<mask id="mask0_1115_130" style="mask-type:alpha" maskUnits="userSpaceOnUse" x="4" y="2" width="90" height="38">
<path d="M4.79116 37.8216L5.23626 37.5948L4.79116 37.8216C5.03084 38.292 5.4133 38.6745 5.8837 38.9142C6.17985 39.0651 6.49994 39.128 6.86437 39.1577C7.2183 39.1867 7.65537 39.1867 8.19726 39.1866H8.21868H89.7683H89.7896C90.3342 39.1867 90.7734 39.1867 91.1289 39.1576C91.4948 39.1276 91.8162 39.0643 92.1132 38.9123C92.5848 38.6711 92.9677 38.2862 93.2064 37.8133C93.3568 37.5155 93.4183 37.1938 93.4464 36.8277C93.4736 36.472 93.4712 36.0328 93.4683 35.4882L93.4682 35.467L93.3929 21.3149L93.3926 21.2684C93.3893 20.6418 93.3874 20.2679 93.3245 19.9015C93.2687 19.5765 93.1773 19.2587 93.0521 18.9536C92.9109 18.6097 92.714 18.2919 92.3843 17.7592L92.3597 17.7196L84.0314 4.26704L83.9909 4.20166C83.6878 3.71167 83.4783 3.37291 83.1864 3.12122C82.9289 2.89922 82.6288 2.73206 82.3045 2.62998C81.9368 2.51426 81.5385 2.51441 80.9623 2.51463L80.8855 2.51465H17.8604C17.8354 2.51465 17.8106 2.51464 17.7863 2.51463C17.2288 2.51443 16.8434 2.51429 16.4856 2.62342C16.1699 2.71972 15.8764 2.87757 15.6221 3.08787C15.3338 3.32621 15.1214 3.64788 14.8143 4.11306C14.8008 4.13341 14.7872 4.15404 14.7734 4.17495L5.66181 17.9651L5.63444 18.0065C5.26625 18.5637 5.04653 18.8962 4.88934 19.2591C4.74995 19.581 4.64866 19.918 4.58754 20.2634C4.51861 20.6528 4.51863 21.0513 4.51867 21.7192L4.51868 21.7688V35.4866L4.51868 35.5081C4.51867 36.0499 4.51867 36.487 4.54759 36.841C4.57736 37.2054 4.64027 37.5255 4.79116 37.8216Z" fill="white" stroke="white"/>
</mask>
<g mask="url(#mask0_1115_130)">
<rect x="12.1833" y="23.8987" width="53.1333" height="10.8907" fill="#F4F4F4" stroke="#E5E5E5"/>
<path fill-rule="evenodd" clip-rule="evenodd" d="M14.2208 32.7413H22.6792V27.9851H21.3779V26.6261H20.0766V25.9467H16.8234V26.6261H15.5221V27.9851H14.2208V32.7413Z" fill="#545252"/>
<path d="M15.8474 30.0234V32.4109" stroke="#A5967C" stroke-width="0.8"/>
<path d="M17.1487 30.0234V32.4109" stroke="#A5967C" stroke-width="0.8"/>
<path d="M18.45 30.0234V32.4109" stroke="#A5967C" stroke-width="0.8"/>
<path d="M19.7512 30.0234V32.4109" stroke="#A5967C" stroke-width="0.8"/>
<path d="M21.0525 30.0234V32.4109" stroke="#A5967C" stroke-width="0.8"/>
<path fill-rule="evenodd" clip-rule="evenodd" d="M27.7542 32.7413H36.2125V27.9851H34.9112V26.6261H33.6099V25.9467H30.3567V26.6261H29.0554V27.9851H27.7542V32.7413Z" fill="#545252"/>
<path d="M29.3807 30.0234V32.4109" stroke="#A5967C" stroke-width="0.8"/>
<path d="M30.682 30.0234V32.4109" stroke="#A5967C" stroke-width="0.8"/>
<path d="M31.9833 30.0234V32.4109" stroke="#A5967C" stroke-width="0.8"/>
<path d="M33.2845 30.0234V32.4109" stroke="#A5967C" stroke-width="0.8"/>
<path d="M34.5858 30.0234V32.4109" stroke="#A5967C" stroke-width="0.8"/>
<path fill-rule="evenodd" clip-rule="evenodd" d="M41.2875 32.7413H49.7458V27.9851H48.4445V26.6261H47.1432V25.9467H43.89V26.6261H42.5887V27.9851H41.2875V32.7413Z" fill="#545252"/>
<path d="M42.9141 30.0234V32.4109" stroke="#A5967C" stroke-width="0.8"/>
<path d="M44.2153 30.0234V32.4109" stroke="#A5967C" stroke-width="0.8"/>
<path d="M45.5166 30.0234V32.4109" stroke="#A5967C" stroke-width="0.8"/>
<path d="M46.8179 30.0234V32.4109" stroke="#A5967C" stroke-width="0.8"/>
<path d="M48.1193 30.0234V32.4109" stroke="#A5967C" stroke-width="0.8"/>
<path fill-rule="evenodd" clip-rule="evenodd" d="M54.8208 32.7413H63.2791V27.9851H61.9779V26.6261H60.6766V25.9467H57.4234V26.6261H56.1221V27.9851H54.8208V32.7413Z" fill="#545252"/>
<path d="M56.4474 30.0234V32.4109" stroke="#A5967C" stroke-width="0.8"/>
<path d="M57.7487 30.0234V32.4109" stroke="#A5967C" stroke-width="0.8"/>
<path d="M59.0499 30.0234V32.4109" stroke="#A5967C" stroke-width="0.8"/>
<path d="M60.3512 30.0234V32.4109" stroke="#A5967C" stroke-width="0.8"/>
<path d="M61.6525 30.0234V32.4109" stroke="#A5967C" stroke-width="0.8"/>
<ellipse cx="75.9666" cy="29.344" rx="2.5375" ry="2.548" fill="#545252"/>
<ellipse cx="83.5791" cy="29.344" rx="0.845833" ry="0.849335" fill="#D2D2D2"/>
<ellipse cx="75.9666" cy="29.344" rx="0.845837" ry="0.849335" fill="#A5967C"/>
<rect opacity="0.3" x="4.91663" y="19.152" width="87.9667" height="0.849335" fill="white"/>
<rect opacity="0.1" x="4.91663" y="-2.93066" width="87.9667" height="22.0827" fill="#D8D8D8"/>
</g>
<defs>
<filter id="filter0_d_1115_130" x="0.0186768" y="0.0145264" width="97.9514" height="45.6721" filterUnits="userSpaceOnUse" color-interpolation-filters="sRGB">
<feFlood flood-opacity="0" result="BackgroundImageFix"/>
<feColorMatrix in="SourceAlpha" type="matrix" values="0 0 0 0 0 0 0 0 0 0 0 0 0 0 0 0 0 0 127 0" result="hardAlpha"/>
<feOffset dy="2"/>
<feGaussianBlur stdDeviation="2"/>
<feColorMatrix type="matrix" values="0 0 0 0 0 0 0 0 0 0 0 0 0 0 0 0 0 0 0.05 0"/>
<feBlend mode="normal" in2="BackgroundImageFix" result="effect1_dropShadow_1115_130"/>
<feBlend mode="normal" in="SourceGraphic" in2="effect1_dropShadow_1115_130" result="shape"/>
</filter>
<linearGradient id="paint0_linear_1115_130" x1="5.01868" y1="36.4332" x2="92.9853" y2="36.4332" gradientUnits="userSpaceOnUse">
<stop stop-color="#EAEAEA"/>
<stop offset="0.11502" stop-color="#F7F7F7"/>
<stop offset="0.889386" stop-color="#F7F7F7"/>
<stop offset="1" stop-color="#EAEAEA"/>
</linearGradient>
<linearGradient id="paint1_linear_1115_130" x1="34.1622" y1="3.01465" x2="34.1622" y2="15.0503" gradientUnits="userSpaceOnUse">
<stop stop-opacity="0.1"/>
<stop offset="1" stop-opacity="0.2"/>
</linearGradient>
</defs>
</svg>
