<?xml version="1.0" encoding="UTF-8"?>
<svg width="84px" height="84px" viewBox="0 0 84 84" version="1.1" xmlns="http://www.w3.org/2000/svg" xmlns:xlink="http://www.w3.org/1999/xlink">
    <!-- Generator: Sketch 59.1 (86144) - https://sketch.com -->
    <title>已插卡</title>
    <desc>Created with Sketch.</desc>
    <g id="页面-1" stroke="none" stroke-width="1" fill="none" fill-rule="evenodd">
        <g id="1" transform="translate(-816.000000, -2036.000000)">
            <g id="编组-3" transform="translate(-1.000000, 0.000000)">
                <g id="已插卡" transform="translate(817.000000, 2043.000000)" fill="#006CFF" fill-rule="nonzero">
                    <path d="M79.8,-1.13686838e-13 L4.20000003,-1.13686838e-13 C1.68000003,-1.13686838e-13 0,1.66990248 0,4.17475605 L0,16.6990244 C0,19.203878 1.68000003,20.8737805 4.20000003,20.8737805 L12.6,20.8737805 L12.6,62.6213417 C12.6,67.2135734 16.38,70.9708539 21,70.9708539 L25.2,70.9708539 L25.2,20.8737805 L37.8,20.8737805 L37.8,70.9708539 L63,70.9708539 C67.6199999,70.9708539 71.3999999,67.2135734 71.4,62.6213417 L71.4,20.8737805 L79.8,20.8737805 C82.32,20.8737805 84,19.203878 84,16.6990244 L84,4.17475605 C84,1.66990238 82.32,-1.13686838e-13 79.8,-1.13686838e-13 Z" id="路径"></path>
                </g>
                <g id="插卡" transform="translate(817.000000, 2036.000000)"></g>
            </g>
        </g>
    </g>
</svg>