<?xml version="1.0" encoding="UTF-8"?>
<svg width="84px" height="84px" viewBox="0 0 84 84" version="1.1" xmlns="http://www.w3.org/2000/svg" xmlns:xlink="http://www.w3.org/1999/xlink">
    <!-- Generator: Sketch 59.1 (86144) - https://sketch.com -->
    <title>时间</title>
    <desc>Created with Sketch.</desc>
    <g id="页面-1" stroke="none" stroke-width="1" fill="none" fill-rule="evenodd">
        <g id="1" transform="translate(-246.000000, -2037.000000)" fill="#006CFF" fill-rule="nonzero">
            <g id="编组-3" transform="translate(-1.000000, 0.000000)">
                <g id="时间" transform="translate(254.000000, 2044.000000)">
                    <path d="M70,34.9856322 C70,54.3059645 54.3281248,69.9712644 34.9813213,69.9712644 C15.6345178,69.9712644 0,54.3050899 0,34.9856322 C0,15.6661744 15.6345178,-2.27373675e-13 34.9813213,-2.27373675e-13 C54.3281248,-2.27373675e-13 70.0008688,15.6652998 70,34.9856322 L70,34.9856322 Z M34.5884272,15.9934319 C32.6142826,15.9934319 31.0139221,17.5937923 31.0139221,19.567937 L31.0139221,39.2910795 L31.0139221,39.2910795 L31,39.3143177 L48.3492297,49.2214031 C50.0538038,50.1947813 52.2243337,49.6130307 53.2136176,47.9176383 C54.1910588,46.2425414 53.6254971,44.0922344 51.9504002,43.1147931 C51.9409795,43.109296 51.9315333,43.1038429 51.9220618,43.0984338 L38.1629323,35.2407366 L38.1629323,35.2407366 L38.1629323,19.567937 C38.1629323,17.5937923 36.5625719,15.9934319 34.5884272,15.9934319 Z" id="形状"></path>
                </g>
            </g>
        </g>
    </g>
</svg>