<svg width="32" height="32" viewBox="0 0 32 32" fill="none" xmlns="http://www.w3.org/2000/svg">
<path d="M29.1154 1.99609C29.7592 1.99609 30.2817 2.51391 30.2864 3.15766C30.2901 3.79516 29.7764 4.31547 29.1389 4.31922H26.7832V7.51016C26.7832 11.2211 24.4507 14.3958 21.0685 15.9911C24.4507 17.5702 26.7832 20.7611 26.7832 24.472V27.663H29.1157C29.7573 27.663 30.2773 28.183 30.2773 28.8245C30.2773 29.4661 29.7573 29.9861 29.1157 29.9861H3.45292L3.24292 29.9673C2.61011 29.8705 2.17542 29.2789 2.27229 28.6461C2.36104 28.0655 2.87042 27.643 3.45761 27.6627H5.80886V24.4723C5.80886 20.7614 8.13917 17.5867 11.5235 15.9914C8.13917 14.4123 5.80886 11.2214 5.80886 7.51047V4.31922H3.45761C2.81604 4.31922 2.29604 3.79922 2.29604 3.15766C2.29604 2.51609 2.81604 1.99609 3.45761 1.99609H29.1154ZM24.4501 4.31922H8.13417V7.49391C8.13417 10.258 9.87667 12.8005 12.5589 14.0786C13.3707 14.5055 13.8348 15.2495 13.8348 15.9914C13.8582 16.8352 13.3467 17.6017 12.5589 17.9042C9.89292 19.1823 8.13417 21.7248 8.13636 24.4889V27.6939H9.43542V26.3411C9.43542 23.8452 10.3545 21.1092 13.2048 19.4461L13.6714 19.1917C14.7351 18.7323 15.6073 17.7595 16.286 16.2761C16.8226 17.6498 17.7323 18.6227 19.0198 19.1917C22.5185 20.9995 23.0714 23.7167 23.0714 26.3408V27.6936H24.4498V24.5048C24.4498 21.7408 22.7098 19.1983 20.0273 17.9177C19.2157 17.4908 18.7514 16.7489 18.7514 16.0048C18.7514 15.1536 19.2154 14.4117 20.0273 14.0945C22.6932 12.8186 24.4498 10.2761 24.4498 7.50984V4.31922H24.4501ZM22.8292 8.99359C22.8292 10.5098 20.9632 12.208 19.2232 12.9286C18.1829 13.3602 17.2032 14.1717 16.2867 15.3639C15.4189 14.172 14.4673 13.3602 13.4385 12.9289C11.5795 12.1498 9.98886 10.5895 9.98886 8.99391H22.8292V8.99359Z" fill="#F2A56B"/>
</svg>
