<?xml version="1.0" encoding="UTF-8"?>
<svg width="52px" height="52px" viewBox="0 0 52 52" version="1.1" xmlns="http://www.w3.org/2000/svg" xmlns:xlink="http://www.w3.org/1999/xlink">
    <!-- Generator: Sketch 59.1 (86144) - https://sketch.com -->
    <title>形状</title>
    <desc>Created with Sketch.</desc>
    <g id="页面-1" stroke="none" stroke-width="1" fill="none" fill-rule="evenodd">
        <g id="切图" transform="translate(-734.000000, -1537.000000)" fill="#4F5A69" fill-rule="nonzero">
            <g id="莫兰迪" transform="translate(30.000000, 1523.000000)">
                <path d="M748.329502,31.6055072 C748.770662,32.0422162 749.489327,32.0422162 749.937603,31.6055072 L755.19595,26.4002178 C755.63711,25.9635088 755.63711,25.2520958 755.19595,24.8083431 L745.6185,15.3275317 C745.17734,14.8908228 744.458675,14.8908228 744.0104,15.3275317 L738.752053,20.5328212 C738.310892,20.9695302 738.310892,21.6809432 738.752053,22.1246959 L748.329502,31.6055072 Z M744.629447,35.2118782 L735.108922,25.7874165 C734.646415,25.3295764 733.906404,25.3295764 733.443897,25.7874165 L704.384236,54.5538603 C704.163656,54.7722148 704.042693,55.0680499 704.042693,55.3709288 L704,64.830609 C704,65.4786288 704.526546,66.0069058 705.181171,65.9999317 L714.737274,65.9575999 C715.050356,65.9575999 715.342091,65.8308135 715.562671,65.6195027 L744.622332,36.8530588 C745.091954,36.4022624 745.091954,35.6626746 744.629447,35.2118782 Z M754.818829,60.7945727 L727.616311,60.7945727 C727.296114,60.7945727 726.990148,60.9213592 726.769568,61.1467573 L724.008758,63.957191 C723.282978,64.6967788 723.809524,65.9364689 724.855501,65.9364689 L754.818829,65.9364689 C755.473454,65.9364689 756,65.4152356 756,64.7672158 L756,61.9567821 C756,61.315806 755.473454,60.7945727 754.818829,60.7945727 Z" id="形状"></path>
            </g>
        </g>
    </g>
</svg>