<?xml version="1.0" encoding="UTF-8"?>
<svg width="95px" height="56px" viewBox="0 0 95 56" version="1.1" xmlns="http://www.w3.org/2000/svg" xmlns:xlink="http://www.w3.org/1999/xlink">
    <!-- Generator: Sketch 59.1 (86144) - https://sketch.com -->
    <title>设置</title>
    <desc>Created with Sketch.</desc>
    <g id="页面-1" stroke="none" stroke-width="1" fill="none" fill-rule="evenodd">
        <g id="切图" transform="translate(-527.000000, -1537.000000)" fill="#B5C4D1" fill-rule="nonzero">
            <g id="莫兰迪" transform="translate(30.000000, 1523.000000)">
                <path d="M567.15067,42.5 C567.15067,39.2834821 569.170201,36.5580357 572,35.4715402 C571.324777,32.8197545 570.28125,30.3214286 568.918527,28.0256696 C566.143973,29.2594866 562.792411,28.7561384 560.521205,26.4787946 C558.25,24.2075893 557.746652,20.8498884 558.980469,18.0814732 C556.678571,16.71875 554.180246,15.6752232 551.52846,15 C550.435826,17.8297991 547.710379,19.8493304 544.5,19.8493304 C541.283482,19.8493304 538.558036,17.8297991 537.47154,15 C534.819754,15.6752232 532.321429,16.71875 530.02567,18.0814732 C531.259487,20.8560268 530.756138,24.2075893 528.484933,26.4787946 C526.213728,28.75 522.856027,29.2533482 520.087612,28.0256696 C518.71875,30.3214286 517.675223,32.8197545 517,35.4715402 C519.829799,36.5641741 521.84933,39.2896205 521.84933,42.5 C521.84933,45.7165179 519.829799,48.4419643 517,49.5284598 C517.675223,52.1802455 518.71875,54.6785714 520.081473,56.9743304 C522.856027,55.7405134 526.207589,56.2438616 528.478795,58.5212054 C530.75,60.7924107 531.253348,64.1501116 530.019531,66.9185268 C532.321429,68.28125 534.819754,69.3247768 537.47154,70 C538.564174,67.1702009 541.289621,65.1506696 544.5,65.1506696 C547.716518,65.1506696 550.441964,67.1702009 551.52846,70 C554.180246,69.3247768 556.678571,68.28125 558.97433,66.9185268 C557.740513,64.1439732 558.243862,60.7924107 560.515067,58.5212054 C562.786272,56.25 566.143973,55.7466518 568.912388,56.9743304 C570.28125,54.6785714 571.324777,52.1802455 572,49.5284598 C569.170201,48.4419643 567.15067,45.7165179 567.15067,42.5 Z M544.5,50.234375 C540.230373,50.234375 536.765625,46.7696265 536.765625,42.5 C536.765625,38.2303735 540.230373,34.765625 544.5,34.765625 C548.769627,34.765625 552.234375,38.2303735 552.234375,42.5 C552.234375,46.7696265 548.769627,50.234375 544.5,50.234375 Z" id="设置"></path>
            </g>
        </g>
    </g>
</svg>