<svg width="25" height="24" viewBox="0 0 25 24" fill="none" xmlns="http://www.w3.org/2000/svg">
<path d="M5.00776 3.41779C5.00776 2.36334 5.84769 1.50928 6.8826 1.50928H18.1313C19.1668 1.50928 20.0061 2.36334 20.0061 3.41779V5.47879C20.0061 6.87211 19.4086 8.19588 18.3695 9.10157L15.0416 12.0058L18.3695 14.9095C18.8848 15.3617 19.2975 15.919 19.5798 16.5438C19.8621 17.1686 20.0074 17.8466 20.0061 18.5323V20.5938C20.0061 21.6477 19.1662 22.5025 18.1313 22.5025H6.8826C6.63551 22.5021 6.39098 22.4525 6.16331 22.3565C5.93564 22.2605 5.7294 22.12 5.55667 21.9434C5.20403 21.5828 5.00694 21.0982 5.00776 20.5938V18.5329C5.00776 17.1402 5.60591 15.8171 6.6444 14.9101L9.97218 12.0058L6.6444 9.10218C6.12897 8.64988 5.71626 8.09255 5.43397 7.4676C5.15169 6.84265 5.00637 6.16454 5.00776 5.47879V3.41779ZM18.1313 3.37094H6.8826V5.47882C6.88189 5.89026 6.96922 6.29709 7.13871 6.672C7.30821 7.04691 7.55595 7.38122 7.86531 7.65248L11.1924 10.5562C11.3987 10.737 11.5639 10.9599 11.6769 11.2098C11.7899 11.4597 11.8481 11.731 11.8476 12.0053C11.8476 12.5625 11.6082 13.0915 11.1924 13.4544L7.86531 16.3592C7.55596 16.6305 7.30822 16.9648 7.13872 17.3397C6.96922 17.7146 6.8819 18.1215 6.8826 18.5329V20.6173H18.1313V18.5329C18.132 18.1215 18.0446 17.7146 17.8752 17.3397C17.7057 16.9648 17.458 16.6305 17.1486 16.3592L13.8214 13.4543C13.6151 13.2735 13.45 13.0506 13.337 12.8007C13.224 12.5507 13.1658 12.2795 13.1663 12.0052C13.1663 11.448 13.4056 10.919 13.8214 10.5561L17.1486 7.65304C17.458 7.3817 17.7058 7.0473 17.8753 6.67228C18.0448 6.29726 18.1321 5.89031 18.1313 5.47877V3.37094H18.1313Z" fill="white"/>
<path d="M11.5004 14.4151C11.5908 14.3182 11.7002 14.2409 11.8218 14.188C11.9434 14.1352 12.0745 14.1079 12.2071 14.1079C12.3397 14.1079 12.4708 14.1352 12.5924 14.188C12.714 14.2409 12.8234 14.3182 12.9138 14.4151L14.9139 16.5149C15.1995 16.8155 15.2853 17.2673 15.1305 17.659C14.9757 18.0513 14.6115 18.3069 14.2066 18.3069H10.2068C9.80252 18.3069 9.43837 18.0513 9.28296 17.659C9.20706 17.4673 9.18718 17.258 9.22564 17.0555C9.2641 16.8529 9.3593 16.6654 9.50018 16.5149L11.5004 14.4151Z" fill="white"/>
</svg>
