<svg width="25" height="24" viewBox="0 0 25 24" fill="none" xmlns="http://www.w3.org/2000/svg">
<path fill-rule="evenodd" clip-rule="evenodd" d="M2.51974 11.9714C2.51974 6.45413 6.96802 2.00586 12.4853 2.00586C17.9565 2.00586 22.4508 6.44264 22.4508 11.9599C22.4508 17.4771 18.0025 21.9254 12.4853 21.9254C7.02549 21.9254 2.51974 17.4886 2.51974 11.9714ZM18.2669 15.4426C18.5657 15.4426 18.8301 15.2932 18.9795 14.9829C19.1289 14.5691 18.9795 14.1553 18.5772 14.0059L13.1634 11.5576V6.50011C13.1634 6.08632 12.8071 5.73 12.3933 5.73C11.9795 5.73 11.6232 6.08632 11.6232 6.50011V12.0174C11.6232 12.3162 11.8301 12.6265 12.083 12.73L17.9565 15.3967C18.06 15.4426 18.1634 15.4426 18.2669 15.4426Z" fill="white"/>
</svg>
