<svg width="40" height="40" viewBox="0 0 40 40" fill="none" xmlns="http://www.w3.org/2000/svg">
<path d="M22.0195 29.9492H17.8516C17.4883 29.9492 17.1953 30.2422 17.1953 30.6055V30.6523C17.1953 31.0156 17.4883 31.3086 17.8516 31.3086H22.0195C22.3828 31.3086 22.6758 31.0156 22.6758 30.6523V30.6055C22.6758 30.2422 22.3828 29.9492 22.0195 29.9492ZM20.7813 32.4141H19.0938C18.7266 32.4141 18.4258 32.7109 18.4258 33.082V33.1055C18.4258 33.4727 18.7227 33.7734 19.0938 33.7734H20.7813C21.1484 33.7734 21.4492 33.4766 21.4492 33.1055V33.082C21.4492 32.7148 21.1484 32.4141 20.7813 32.4141ZM19.9492 11.8281C16.0273 11.8281 12.8359 15.0195 12.8359 18.9414C12.8359 20.3516 13.8242 22.4336 14.9727 24.8477C15.5898 26.1445 16.2266 27.4883 16.6875 28.7031V28.7305H23.1875L23.207 28.7383C23.6367 27.6758 24.2031 26.4805 24.75 25.3242C25.9414 22.8086 27.0703 20.4297 27.0703 18.9414C27.0625 15.0195 23.8711 11.8281 19.9492 11.8281ZM23.5195 24.7461C23.1055 25.625 22.6797 26.5234 22.3047 27.3789H17.6133C17.1875 26.3594 16.6875 25.3008 16.1953 24.2656C15.2109 22.1914 14.1914 20.0469 14.1914 18.9414C14.1914 15.7656 16.7734 13.1836 19.9492 13.1836C23.125 13.1836 25.707 15.7656 25.707 18.9414C25.707 20.125 24.5938 22.4727 23.5195 24.7461Z" fill="white"/>
</svg>
