<?xml version="1.0" encoding="UTF-8"?>
<svg width="76px" height="76px" viewBox="0 0 76 76" version="1.1" xmlns="http://www.w3.org/2000/svg" xmlns:xlink="http://www.w3.org/1999/xlink">
    <!-- Generator: Sketch 59.1 (86144) - https://sketch.com -->
    <title>record</title>
    <desc>Created with Sketch.</desc>
    <g id="页面-1" stroke="none" stroke-width="1" fill-rule="evenodd">
        <g id="黑白" transform="translate(-554.000000, -186.000000)">
            <g transform="translate(88.000000, 186.000000)" id="更多记录">
                <g transform="translate(466.000000, 0.000000)">
                    <path d="M38,0 C58.9868205,0 76,17.0131795 76,38 C76,58.9868205 58.9868205,76 38,76 C17.0131795,76 0,58.9868205 0,38 C0,17.0131795 17.0131795,0 38,0 Z M37.5,13.8888889 C36.1192881,13.8888889 35,15.008177 35,16.3888889 L35,16.3888889 L35,38.6111111 L35.0069353,38.798745 C35.0804747,39.7898435 35.7318391,40.6201031 36.6253416,40.9538368 L36.6253416,40.9538368 L50.0328113,49.4841537 L50.1803133,49.5711823 C51.3250372,50.1953828 52.7737696,49.8335066 53.4841537,48.7171887 L53.4841537,48.7171887 L53.5711823,48.5696867 C54.1953828,47.4249628 53.8335066,45.9762304 52.7171887,45.2658463 L52.7171887,45.2658463 L40,37.172 L40,16.3888889 L39.9946823,16.2245132 C39.9100387,14.9204248 38.8254834,13.8888889 37.5,13.8888889 Z" id="record"></path>
                </g>
            </g>
        </g>
    </g>
</svg>