<svg width="14" height="14" viewBox="0 0 14 14" fill="none" xmlns="http://www.w3.org/2000/svg">
<path fill-rule="evenodd" clip-rule="evenodd" d="M7.00065 1.66663C9.94617 1.66663 12.334 4.05445 12.334 6.99996C12.334 9.94548 9.94617 12.3333 7.00065 12.3333C4.05513 12.3333 1.66732 9.94548 1.66732 6.99996C1.66732 4.05445 4.05513 1.66663 7.00065 1.66663ZM7.00065 0.333298C10.6825 0.333298 13.6673 3.31807 13.6673 6.99996C13.6673 10.6819 10.6825 13.6666 7.00065 13.6666C3.31875 13.6666 0.333984 10.6819 0.333984 6.99996C0.333984 3.31807 3.31875 0.333298 7.00065 0.333298ZM7.66732 3.66663C7.66732 3.29844 7.36884 2.99996 7.00065 2.99996C6.63246 2.99996 6.33398 3.29844 6.33398 3.66663C6.33398 4.03482 6.63246 4.3333 7.00065 4.3333C7.36884 4.3333 7.66732 4.03482 7.66732 3.66663ZM7.00065 11C7.36884 11 7.66732 10.7015 7.66732 10.3333V6.3333C7.66732 5.96511 7.36884 5.66663 7.00065 5.66663C6.63246 5.66663 6.33398 5.96511 6.33398 6.3333V10.3333C6.33398 10.7015 6.63246 11 7.00065 11Z" fill="#182129" fill-opacity="0.5"/>
</svg>
