<svg width="46" height="48" viewBox="0 0 46 48" fill="none" xmlns="http://www.w3.org/2000/svg">
<path fill-rule="evenodd" clip-rule="evenodd" d="M24.5437 7.03828C24.5437 8.05223 23.7246 8.87201 22.7115 8.87201C21.6985 8.87201 20.8794 8.04683 20.8794 7.03828V1.83373C20.8794 0.819785 21.6985 0 22.7115 0C23.7246 0 24.5437 0.819785 24.5437 1.83373V7.03828ZM22.7117 9.54137C18.751 9.54137 15.0274 11.0839 12.2253 13.8884C9.42313 16.6929 7.88196 20.4197 7.88196 24.3838C7.88196 28.3479 9.42313 32.0747 12.2253 34.8792C15.0274 37.6837 18.751 39.2262 22.7117 39.2262C26.6724 39.2262 30.396 37.6837 33.1981 34.8792C36.0002 32.0747 37.5414 28.3479 37.5414 24.3838C37.5414 20.4197 36.0002 16.6929 33.1981 13.8884C30.396 11.0839 26.6724 9.54137 22.7117 9.54137ZM22.7117 35.5534C16.5578 35.5534 11.5463 30.543 11.5463 24.3785C11.5463 18.2139 16.5524 13.2035 22.7117 13.2035C28.8656 13.2035 33.8771 18.2139 33.8771 24.3785C33.8771 30.543 28.871 35.5534 22.7117 35.5534ZM15.9973 39.9431H29.4259C30.439 39.9431 31.2581 40.7629 31.2581 41.7768C31.2581 42.7908 30.439 43.6105 29.4259 43.6105H15.9973C14.9842 43.6105 14.1651 42.7908 14.1651 41.7768C14.1651 40.7629 14.9842 39.9431 15.9973 39.9431ZM26.7423 44.3325H18.6862C17.6731 44.3325 16.854 45.1523 16.854 46.1663C16.854 47.1802 17.6731 48 18.6862 48H26.7423C27.7554 48 28.5745 47.1802 28.5745 46.1663C28.5745 45.1523 27.7554 44.3325 26.7423 44.3325ZM32.8424 11.5367C33.1603 11.7632 33.5268 11.8711 33.8932 11.8711C34.4698 11.8711 35.041 11.596 35.3966 11.0891L38.3766 6.82833C38.9586 5.99776 38.7538 4.85438 37.9293 4.2719C37.0995 3.68942 35.9571 3.89437 35.3751 4.71954L32.3951 8.98027C31.8131 9.81084 32.0125 10.9542 32.8424 11.5367ZM43.2372 14.8152C44.1856 14.4592 45.2418 14.9392 45.5974 15.8884C45.9531 16.8377 45.4735 17.8948 44.5251 18.2507L39.6537 20.0737C39.4435 20.1546 39.228 20.1923 39.0124 20.1923C38.2688 20.1923 37.5683 19.7393 37.2934 19.0004C36.9378 18.0512 37.4174 16.9941 38.3658 16.6381L43.2372 14.8152ZM10.3229 10.2204C10.6786 10.7274 11.2498 11.0024 11.8264 11.0024C12.1874 11.0024 12.5539 10.8946 12.8772 10.6681C13.707 10.0856 13.9064 8.94219 13.3244 8.11162L10.3445 3.8509C9.76251 3.02033 8.62011 2.82078 7.79025 3.40325C6.96039 3.98573 6.76101 5.12912 7.34299 5.95969L10.3229 10.2204ZM7.3484 15.7644C8.29143 16.1204 8.77641 17.1775 8.42076 18.1267C8.14593 18.8656 7.4454 19.3186 6.70176 19.3186C6.48621 19.3186 6.27066 19.2809 6.0605 19.2L1.18912 17.377C0.246092 17.0211 -0.238891 15.964 0.116763 15.0148C0.472418 14.0709 1.5286 13.5855 2.47702 13.9415L7.3484 15.7644Z" fill="white" fill-opacity="0.7"/>
</svg>
