<svg width="28" height="28" viewBox="0 0 28 28" fill="none" xmlns="http://www.w3.org/2000/svg">
<path d="M11.3559 13.9996C11.3559 14.3468 11.4243 14.6907 11.5571 15.0115C11.69 15.3323 11.8848 15.6238 12.1303 15.8693C12.3758 16.1148 12.6673 16.3096 12.9881 16.4425C13.3089 16.5754 13.6528 16.6437 14 16.6437C14.3472 16.6437 14.6911 16.5754 15.0119 16.4425C15.3327 16.3096 15.6242 16.1148 15.8697 15.8693C16.1152 15.6238 16.31 15.3323 16.4429 15.0115C16.5758 14.6907 16.6441 14.3468 16.6441 13.9996C16.6441 13.2983 16.3656 12.6258 15.8697 12.1299C15.3738 11.634 14.7013 11.3555 14 11.3555C13.2987 11.3555 12.6262 11.634 12.1303 12.1299C11.6344 12.6258 11.3559 13.2983 11.3559 13.9996Z" fill="#060606"/>
<path d="M20.9535 13.9996C20.9535 14.3468 21.0219 14.6907 21.1548 15.0115C21.2877 15.3323 21.4824 15.6238 21.728 15.8693C21.9735 16.1148 22.265 16.3096 22.5858 16.4425C22.9066 16.5754 23.2504 16.6437 23.5977 16.6437C23.9449 16.6437 24.2887 16.5754 24.6095 16.4425C24.9303 16.3096 25.2218 16.1148 25.4673 15.8693C25.7129 15.6238 25.9076 15.3323 26.0405 15.0115C26.1734 14.6907 26.2418 14.3468 26.2418 13.9996C26.2418 13.6524 26.1734 13.3085 26.0405 12.9877C25.9076 12.6669 25.7129 12.3755 25.4673 12.1299C25.2218 11.8844 24.9303 11.6896 24.6095 11.5567C24.2887 11.4239 23.9449 11.3555 23.5977 11.3555C23.2504 11.3555 22.9066 11.4239 22.5858 11.5567C22.265 11.6896 21.9735 11.8844 21.728 12.1299C21.4824 12.3755 21.2877 12.6669 21.1548 12.9877C21.0219 13.3085 20.9535 13.6524 20.9535 13.9996Z" fill="#060606"/>
<path d="M1.7582 13.9996C1.7582 14.7009 2.03678 15.3734 2.53265 15.8693C3.02852 16.3652 3.70107 16.6437 4.40234 16.6437C5.10361 16.6437 5.77616 16.3652 6.27203 15.8693C6.7679 15.3734 7.04648 14.7009 7.04648 13.9996C7.04648 13.2983 6.7679 12.6258 6.27203 12.1299C5.77616 11.634 5.10361 11.3555 4.40234 11.3555C3.70107 11.3555 3.02852 11.634 2.53265 12.1299C2.03678 12.6258 1.7582 13.2983 1.7582 13.9996Z" fill="#060606"/>
</svg>
