<svg width="37" height="40" viewBox="0 0 37 40" fill="none" xmlns="http://www.w3.org/2000/svg">
<g opacity="0.502604">
<path d="M18.0392 24.8284C19.7722 24.8284 21.1765 23.5379 21.1765 21.947V3.39772C21.1764 1.80512 19.7722 0.514648 18.0392 0.514648C16.3062 0.514648 14.902 1.80512 14.902 3.39772V21.947C14.902 23.5379 16.3062 24.8284 18.0392 24.8284Z" fill="white"/>
<path d="M30.0453 9.1174C28.8358 8.06808 26.9791 8.16984 25.8992 9.34665C24.8196 10.5222 24.9255 12.3262 26.1356 13.3755C28.6381 15.5517 30.2038 18.6837 30.2049 22.1981C30.1934 28.7275 24.7574 34.0108 18.0394 34.0213C11.3216 34.0107 5.88473 28.7275 5.87408 22.1981C5.87494 18.6672 7.45525 15.5238 9.97769 13.3467C11.1921 12.3021 11.3037 10.4975 10.2288 9.31897C9.1527 8.13911 7.29777 8.0299 6.08418 9.0753L6.08332 9.0738C2.36033 12.2758 -0.00105015 16.9817 3.50354e-07 22.1981C0.0017194 31.8821 8.07587 39.7285 18.0394 39.73C28.0028 39.7285 36.077 31.882 36.0784 22.1981C36.0794 17.0043 33.7404 12.3167 30.0453 9.1174Z" fill="white"/>
</g>
</svg>
