<svg width="320" height="338" viewBox="0 0 320 338" fill="none" xmlns="http://www.w3.org/2000/svg">
<g filter="url(#filter0_f_1628_14503)">
<path d="M160.687 81C118.096 81 81 118.096 81 163.435C81 188.165 105.73 225.261 126.339 254.113C127.713 255.487 129.087 256.861 130.461 256.861H189.539C190.913 256.861 192.287 255.487 193.661 254.113C214.27 225.261 239 188.165 239 163.435C239 118.096 203.278 81 160.687 81Z" fill="#F9D276"/>
</g>
<path d="M160.687 81C118.096 81 81 118.096 81 163.435C81 188.165 105.73 225.261 126.339 254.113C127.713 255.487 129.087 256.861 130.461 256.861H189.539C190.913 256.861 192.287 255.487 193.661 254.113C214.27 225.261 239 188.165 239 163.435C239 118.096 203.278 81 160.687 81Z" fill="#F9D276" fill-opacity="0.15"/>
<path d="M81.6702 163.435C81.6702 118.451 118.48 81.6702 160.687 81.6702C202.879 81.6702 238.33 118.436 238.33 163.435C238.33 175.618 232.223 190.946 223.471 206.906C214.742 222.824 203.441 239.266 193.148 253.678C192.467 254.359 191.827 254.994 191.198 255.466C190.549 255.952 190.007 256.191 189.539 256.191H130.461C129.993 256.191 129.451 255.952 128.802 255.466C128.173 254.994 127.533 254.359 126.852 253.678C116.559 239.266 105.258 222.824 96.5289 206.906C87.7765 190.946 81.6702 175.618 81.6702 163.435Z" stroke="white" stroke-opacity="0.5" stroke-width="1.3404"/>
<g filter="url(#filter1_d_1628_14503)">
<path d="M184.044 266.479H135.957C133.209 266.479 130.461 269.226 130.461 271.974C130.461 274.722 133.209 277.47 135.957 277.47H184.044C186.791 277.47 189.539 274.722 189.539 271.974C189.539 269.226 186.791 266.479 184.044 266.479ZM184.044 284.339H135.957C133.209 284.339 130.461 287.087 130.461 289.835C130.461 292.583 133.209 295.331 135.957 295.331H141.717C147.302 295.331 153.2 298.853 158.583 300.341C158.804 300.402 159.014 300.457 159.21 300.506C160.183 300.749 160.162 300.943 161.144 300.738C166.059 299.714 173.001 295.331 178.022 295.331H184.044C186.791 295.331 189.539 292.583 189.539 289.835C189.539 287.087 186.791 284.339 184.044 284.339Z" fill="white"/>
</g>
<defs>
<filter id="filter0_f_1628_14503" x="0.575821" y="0.575821" width="318.848" height="336.71" filterUnits="userSpaceOnUse" color-interpolation-filters="sRGB">
<feFlood flood-opacity="0" result="BackgroundImageFix"/>
<feBlend mode="normal" in="SourceGraphic" in2="BackgroundImageFix" result="shape"/>
<feGaussianBlur stdDeviation="40.2121" result="effect1_foregroundBlur_1628_14503"/>
</filter>
<filter id="filter1_d_1628_14503" x="110.461" y="250.479" width="99.0781" height="74.3457" filterUnits="userSpaceOnUse" color-interpolation-filters="sRGB">
<feFlood flood-opacity="0" result="BackgroundImageFix"/>
<feColorMatrix in="SourceAlpha" type="matrix" values="0 0 0 0 0 0 0 0 0 0 0 0 0 0 0 0 0 0 127 0" result="hardAlpha"/>
<feOffset dy="4"/>
<feGaussianBlur stdDeviation="10"/>
<feComposite in2="hardAlpha" operator="out"/>
<feColorMatrix type="matrix" values="0 0 0 0 0.964706 0 0 0 0 0.956863 0 0 0 0 0.988235 0 0 0 0.9 0"/>
<feBlend mode="normal" in2="BackgroundImageFix" result="effect1_dropShadow_1628_14503"/>
<feBlend mode="normal" in="SourceGraphic" in2="effect1_dropShadow_1628_14503" result="shape"/>
</filter>
</defs>
</svg>
