<svg width="24" height="24" viewBox="0 0 24 24" fill="none" xmlns="http://www.w3.org/2000/svg">
<path d="M13.4307 6.3746L20.6682 15.8576C20.8719 16.1245 20.9968 16.443 21.029 16.7771C21.0612 17.1113 20.9993 17.4477 20.8503 17.7486C20.7013 18.0494 20.4711 18.3025 20.1858 18.4794C19.9005 18.6563 19.5714 18.7499 19.2357 18.7496H4.76297C4.4274 18.7496 4.09851 18.6558 3.81343 18.4788C3.52834 18.3018 3.29841 18.0486 3.14959 17.7479C3.00077 17.4471 2.93898 17.1108 2.97121 16.7767C3.00344 16.4427 3.12839 16.1244 3.33197 15.8576L10.5695 6.3746C10.7375 6.15459 10.9539 5.97629 11.2021 5.85356C11.4502 5.73084 11.7233 5.66699 12.0001 5.66699C12.2769 5.66699 12.55 5.73084 12.7981 5.85356C13.0462 5.97629 13.2627 6.15459 13.4307 6.3746Z" fill="#594AE1"/>
</svg>
