<svg width="23" height="25" viewBox="0 0 23 25" fill="none" xmlns="http://www.w3.org/2000/svg">
<path d="M11.5003 15.2372C12.5863 15.2372 13.4664 14.4284 13.4664 13.4314V1.80679C13.4663 0.808728 12.5863 0 11.5003 0C10.4142 0 9.53418 0.808728 9.53418 1.80679V13.4314C9.53418 14.4284 10.4142 15.2372 11.5003 15.2372Z" fill="#594AE1"/>
<path d="M19.0244 5.39131C18.2664 4.73371 17.1028 4.79748 16.4261 5.53498C15.7495 6.27169 15.8159 7.40221 16.5743 8.05981C18.1425 9.42364 19.1237 11.3864 19.1244 13.5889C19.1172 17.6807 15.7105 20.9917 11.5004 20.9983C7.29044 20.9917 3.88321 17.6807 3.87654 13.5889C3.87708 11.3761 4.86744 9.40611 6.44823 8.04177C7.20931 7.38714 7.27925 6.25623 6.60558 5.51763C5.93122 4.77823 4.76875 4.70978 4.00821 5.36493L4.00767 5.36399C1.67451 7.37068 0.194654 10.3198 0.195313 13.5889C0.19639 19.6577 5.25638 24.575 11.5004 24.5759C17.7444 24.575 22.8044 19.6577 22.8053 13.5889C22.8059 10.3339 21.34 7.3963 19.0244 5.39131Z" fill="#594AE1"/>
</svg>
