<svg width="25" height="24" viewBox="0 0 25 24" fill="none" xmlns="http://www.w3.org/2000/svg">
<g clip-path="url(#clip0_1628_13548)">
<path d="M23.3987 8.16088C22.9526 8.16088 22.5149 7.93094 22.2711 7.51817C21.2711 5.82828 19.8416 4.42097 18.1378 3.44582C17.5118 3.08568 17.2929 2.28783 17.653 1.65897C18.0132 1.03011 18.811 0.814028 19.4399 1.17417C21.5342 2.37371 23.2934 4.10515 24.5234 6.18288C24.8919 6.8062 24.6869 7.60682 24.0635 7.97527C23.8558 8.1027 23.6258 8.16088 23.3987 8.16088ZM1.8069 7.8977C1.56865 7.8977 1.3304 7.83398 1.11432 7.69824C0.502082 7.31594 0.316471 6.50701 0.698773 5.89477C1.88723 3.99711 3.53557 2.3931 5.46647 1.26005C6.08979 0.894367 6.89318 1.10214 7.25886 1.72546C7.62454 2.34878 7.41677 3.1494 6.79345 3.51785C5.22545 4.44036 3.88463 5.7424 2.91779 7.28546C2.66846 7.67885 2.24183 7.8977 1.8069 7.8977ZM12.5224 23.3117C6.99291 23.3117 2.49393 18.8127 2.49393 13.2832C2.49393 7.75364 6.99291 3.25467 12.5224 3.25467C18.052 3.25467 22.5509 7.75364 22.5509 13.2832C22.5509 18.8127 18.052 23.3117 12.5224 23.3117ZM12.5224 5.86984C8.43624 5.86984 5.11187 9.1942 5.11187 13.2832C5.11187 17.3721 8.43624 20.6937 12.5224 20.6937C16.6086 20.6937 19.933 17.3694 19.933 13.2804C19.933 9.19143 16.6114 5.86984 12.5224 5.86984Z" fill="#594AE1"/>
<path d="M21.0109 23.9599C20.7034 23.9599 20.3932 23.8519 20.1438 23.6303L17.1852 21.0096C16.6449 20.5303 16.5951 19.702 17.0743 19.1618C17.5536 18.6216 18.3792 18.5689 18.9221 19.0509L21.8808 21.6717C22.421 22.1509 22.4709 22.9792 21.9916 23.5195C21.7312 23.8103 21.3711 23.9599 21.0109 23.9599ZM4.12316 23.9987C3.76025 23.9987 3.40288 23.8491 3.14247 23.5582C2.66321 23.018 2.71308 22.1897 3.25606 21.7104L6.19258 19.1119C6.73279 18.6326 7.56111 18.6825 8.04038 19.2255C8.51964 19.7657 8.46977 20.594 7.92679 21.0733L4.99027 23.6718C4.74094 23.8907 4.43067 23.9987 4.12316 23.9987ZM17.1852 14.5908H12.5227C11.7997 14.5908 11.2151 14.0062 11.2151 13.2832C11.2151 12.5601 11.7997 11.9756 12.5227 11.9756H17.1824C17.9054 11.9756 18.49 12.5601 18.49 13.2832C18.4927 14.0062 17.9054 14.5908 17.1852 14.5908Z" fill="#594AE1"/>
<path d="M12.5224 14.5907C11.7994 14.5907 11.2148 14.0062 11.2148 13.2831V8.52926C11.2148 7.80621 11.7994 7.22168 12.5224 7.22168C13.2455 7.22168 13.83 7.80621 13.83 8.52926V13.2831C13.8328 14.0062 13.2455 14.5907 12.5224 14.5907Z" fill="#594AE1"/>
</g>
<defs>
<clipPath id="clip0_1628_13548">
<rect width="24" height="24" fill="white" transform="translate(0.5)"/>
</clipPath>
</defs>
</svg>
