<?xml version="1.0" encoding="UTF-8"?>
<svg width="64px" height="64px" viewBox="0 0 64 64" version="1.1" xmlns="http://www.w3.org/2000/svg" xmlns:xlink="http://www.w3.org/1999/xlink">
    <g id="1" transform="translate(-496.000000, -432.000000)" fill-rule="nonzero">
        <path d="M533.210526,496 L522.789474,496 C520.776316,496 519,493.640553 519,490.543779 L519,437.456221 C519,434.506912 520.657895,432 522.789474,432 L533.210526,432 C535.223684,432 537,434.359447 537,437.456221 L537,490.543779 C537,493.493088 535.223684,496 533.210526,496 L533.210526,496 Z M510.210526,496 L499.789474,496 C497.776316,496 496,493.614907 496,490.484472 L496,453.515528 C496,450.534162 497.657895,448 499.789474,448 L510.210526,448 C512.223684,448 514,450.385093 514,453.515528 L514,490.63354 C514,493.465838 512.342105,496 510.210526,496 Z M556.210526,496 L545.789474,496 C543.776316,496 542,493.465346 542,490.138614 L542,469.861386 C542,466.693069 543.657895,464 545.789474,464 L556.210526,464 C558.223684,464 560,466.534654 560,469.861386 L560,490.138614 C560,493.306931 558.223684,496 556.210526,496 L556.210526,496 Z" id="数据"></path>
    </g>
</svg>