<svg width="61" height="61" viewBox="0 0 61 61" fill="none" xmlns="http://www.w3.org/2000/svg">
<g clip-path="url(#clip0_1466_1565)">
<path d="M16.8552 -0.5H16.3552V0V29.6974C16.3552 37.5094 22.6879 43.8421 30.5 43.8421C38.312 43.8421 44.6447 37.5094 44.6447 29.6974V0V-0.5H44.1447H16.8552ZM20.5658 29.6974V3.71053H40.4342V29.6974C40.4342 35.1841 35.9867 39.6316 30.5 39.6316C25.0132 39.6316 20.5658 35.1841 20.5658 29.6974Z" fill="white" stroke="white"/>
<path d="M28.0922 46.5521H32.908V60.9994H28.0922V46.5521ZM40.8556 46.3161L45.0261 43.9082L52.2498 56.4196L48.0793 58.8275L40.8556 46.3161ZM15.9741 43.9082L20.1445 46.3161L12.9208 58.8275L8.75037 56.4196L15.9741 43.9082Z" fill="white"/>
</g>
<defs>
<clipPath id="clip0_1466_1565">
<rect width="61" height="61" fill="white"/>
</clipPath>
</defs>
</svg>
