<?xml version="1.0" encoding="UTF-8"?>
<svg width="160px" height="180px" viewBox="0 0 160 180" version="1.1" xmlns="http://www.w3.org/2000/svg" xmlns:xlink="http://www.w3.org/1999/xlink">
    <!-- Generator: Sketch 59.1 (86144) - https://sketch.com -->
    <title>昵称</title>
    <desc>Created with Sketch.</desc>
    <g id="页面-1" stroke="none" stroke-width="1" fill="none" fill-rule="evenodd">
        <g id="切图" transform="translate(-30.000000, -55.000000)" fill="#000000" fill-rule="nonzero">
            <g id="黑白" transform="translate(30.000000, 55.000000)">
                <path d="M77.4778071,0 C103.62728,0 124.779874,20.6115999 124.779874,46.0112359 C124.779874,71.410872 103.60139,92.0224719 77.4778071,92.0224719 C51.3671696,92.0224719 30.1886792,71.410872 30.1886792,46.0112359 C30.1757398,20.6115999 51.3671696,0 77.4778071,0 Z M60.4885863,103.146067 L99.5114137,103.146067 C132.921105,103.146067 160,129.812034 160,162.714602 L160,166.538692 C160,179.512365 132.921105,180 99.5114137,180 L60.4885863,180 C27.09171,180 0,179.974335 0,166.538692 L0,162.714602 C0,129.812034 27.0660793,103.146067 60.4885863,103.146067 Z" id="昵称"></path>
            </g>
        </g>
    </g>
</svg>