<?xml version="1.0" encoding="UTF-8"?>
<svg width="52px" height="51px" viewBox="0 0 52 51" version="1.1" xmlns="http://www.w3.org/2000/svg" xmlns:xlink="http://www.w3.org/1999/xlink">
    <!-- Generator: Sketch 59.1 (86144) - https://sketch.com -->
    <title>编辑</title>
    <desc>Created with Sketch.</desc>
    <g id="页面-1" stroke="none" stroke-width="1" fill="none" fill-rule="evenodd">
        <g id="切图" transform="translate(-261.000000, -301.000000)" fill="#000000" fill-rule="nonzero">
            <g id="黑白" transform="translate(30.000000, 55.000000)">
                <path d="M275.329502,262.605507 C275.770662,263.042216 276.489327,263.042216 276.937603,262.605507 L282.19595,257.400218 C282.63711,256.963509 282.63711,256.252096 282.19595,255.808343 L272.6185,246.327532 C272.17734,245.890823 271.458675,245.890823 271.0104,246.327532 L265.752053,251.532821 C265.310892,251.96953 265.310892,252.680943 265.752053,253.124696 L275.329502,262.605507 Z M271.629447,266.211878 L262.108922,256.787416 C261.646415,256.329576 260.906404,256.329576 260.443897,256.787416 L231.384236,285.55386 C231.163656,285.772215 231.042693,286.06805 231.042693,286.370929 L231,295.830609 C231,296.478629 231.526546,297.006906 232.181171,296.999932 L241.737274,296.9576 C242.050356,296.9576 242.342091,296.830813 242.562671,296.619503 L271.622332,267.853059 C272.091954,267.402262 272.091954,266.662675 271.629447,266.211878 Z M281.818829,291.794573 L254.616311,291.794573 C254.296114,291.794573 253.990148,291.921359 253.769568,292.146757 L251.008758,294.957191 C250.282978,295.696779 250.809524,296.936469 251.855501,296.936469 L281.818829,296.936469 C282.473454,296.936469 283,296.415236 283,295.767216 L283,292.956782 C283,292.315806 282.473454,291.794573 281.818829,291.794573 Z" id="编辑"></path>
            </g>
        </g>
    </g>
</svg>