<?xml version="1.0" encoding="UTF-8"?>
<svg width="95px" height="55px" viewBox="0 0 95 55" version="1.1" xmlns="http://www.w3.org/2000/svg" xmlns:xlink="http://www.w3.org/1999/xlink">
    <!-- Generator: Sketch 59.1 (86144) - https://sketch.com -->
    <title>设置</title>
    <desc>Created with Sketch.</desc>
    <g id="页面-1" stroke="none" stroke-width="1" fill="none" fill-rule="evenodd">
        <g id="切图" transform="translate(-644.000000, -162.000000)" fill="#0F0F0F" fill-rule="nonzero">
            <g id="黑白" transform="translate(30.000000, 55.000000)">
                <path d="M684.15067,134.5 C684.15067,131.283482 686.170201,128.558036 689,127.47154 C688.324777,124.819754 687.28125,122.321429 685.918527,120.02567 C683.143973,121.259487 679.792411,120.756138 677.521205,118.478795 C675.25,116.207589 674.746652,112.849888 675.980469,110.081473 C673.678571,108.71875 671.180246,107.675223 668.52846,107 C667.435826,109.829799 664.710379,111.84933 661.5,111.84933 C658.283482,111.84933 655.558036,109.829799 654.47154,107 C651.819754,107.675223 649.321429,108.71875 647.02567,110.081473 C648.259487,112.856027 647.756138,116.207589 645.484933,118.478795 C643.213728,120.75 639.856027,121.253348 637.087612,120.02567 C635.71875,122.321429 634.675223,124.819754 634,127.47154 C636.829799,128.564174 638.84933,131.289621 638.84933,134.5 C638.84933,137.716518 636.829799,140.441964 634,141.52846 C634.675223,144.180246 635.71875,146.678571 637.081473,148.97433 C639.856027,147.740513 643.207589,148.243862 645.478795,150.521205 C647.75,152.792411 648.253348,156.150112 647.019531,158.918527 C649.321429,160.28125 651.819754,161.324777 654.47154,162 C655.564174,159.170201 658.289621,157.15067 661.5,157.15067 C664.716518,157.15067 667.441964,159.170201 668.52846,162 C671.180246,161.324777 673.678571,160.28125 675.97433,158.918527 C674.740513,156.143973 675.243862,152.792411 677.515067,150.521205 C679.786272,148.25 683.143973,147.746652 685.912388,148.97433 C687.28125,146.678571 688.324777,144.180246 689,141.52846 C686.170201,140.441964 684.15067,137.716518 684.15067,134.5 Z M661.5,142.234375 C657.230373,142.234375 653.765625,138.769627 653.765625,134.5 C653.765625,130.230373 657.230373,126.765625 661.5,126.765625 C665.769627,126.765625 669.234375,130.230373 669.234375,134.5 C669.234375,138.769627 665.769627,142.234375 661.5,142.234375 Z" id="设置"></path>
            </g>
        </g>
    </g>
</svg>