<?xml version="1.0" encoding="UTF-8"?>
<svg width="84px" height="85px" viewBox="0 0 84 85" version="1.1" xmlns="http://www.w3.org/2000/svg" xmlns:xlink="http://www.w3.org/1999/xlink">
    <!-- Generator: Sketch 59.1 (86144) - https://sketch.com -->
    <title>时间</title>
    <desc>Created with Sketch.</desc>
    <g id="页面-1" stroke="none" stroke-width="1" fill="none" fill-rule="evenodd">
        <g id="1" transform="translate(-239.000000, -2029.000000)" fill="#566172" fill-rule="nonzero">
            <g id="编组-3" transform="translate(236.000000, 565.767241)">
                <path d="M80,1505.98563 C80,1525.30596 64.3281248,1540.97126 44.9813213,1540.97126 C25.6345178,1540.97126 10,1525.30509 10,1505.98563 C10,1486.66617 25.6345178,1471 44.9813213,1471 C64.3281248,1471 80.0008688,1486.6653 80,1505.98563 L80,1505.98563 Z M44.5884272,1486.99343 C42.6142826,1486.99343 41.0139221,1488.59379 41.0139221,1490.56794 L41.0139221,1510.29108 L41.0139221,1510.29108 L41,1510.31432 L58.3492297,1520.2214 C60.0538038,1521.19478 62.2243337,1520.61303 63.2136176,1518.91764 C64.1910588,1517.24254 63.6254971,1515.09223 61.9504002,1514.11479 C61.9409795,1514.1093 61.9315333,1514.10384 61.9220618,1514.09843 L48.1629323,1506.24074 L48.1629323,1506.24074 L48.1629323,1490.56794 C48.1629323,1488.59379 46.5625719,1486.99343 44.5884272,1486.99343 Z" id="时间"></path>
            </g>
        </g>
    </g>
</svg>