<svg width="24" height="26" viewBox="0 0 24 26" fill="none" xmlns="http://www.w3.org/2000/svg">
<path d="M11.6532 15.7066C12.7727 15.7066 13.6799 14.873 13.6799 13.8452V1.86245C13.6799 0.833643 12.7727 0 11.6532 0C10.5337 0 9.62659 0.833643 9.62659 1.86245V13.8452C9.62659 14.873 10.5337 15.7066 11.6532 15.7066Z" fill="#30414D"/>
<path d="M19.4092 5.55735C18.6278 4.87949 17.4284 4.94523 16.7308 5.70545C16.0334 6.46485 16.1018 7.63021 16.8835 8.30806C18.5001 9.71391 19.5116 11.7372 19.5123 14.0074C19.5049 18.2254 15.9932 21.6384 11.6534 21.6452C7.31372 21.6384 3.80151 18.2254 3.79464 14.0074C3.79519 11.7265 4.81607 9.69584 6.44556 8.28946C7.23009 7.61467 7.30218 6.44891 6.60775 5.68757C5.91262 4.92538 4.71434 4.85483 3.93036 5.53015L3.92981 5.52918C1.52476 7.5977 -0.000678393 10.6377 2.26328e-07 14.0074C0.00111072 20.2632 5.21699 25.332 11.6534 25.333C18.0897 25.332 23.3056 20.2632 23.3066 14.0074C23.3072 10.6522 21.7962 7.62411 19.4092 5.55735Z" fill="#30414D"/>
</svg>
