<?xml version="1.0" encoding="UTF-8"?>
<svg width="48px" height="48px" viewBox="0 0 48 48" version="1.1" xmlns="http://www.w3.org/2000/svg" xmlns:xlink="http://www.w3.org/1999/xlink">
    <title>当前播放列表</title>
    <g id="【小程序】酷狗音乐免开发面板-7.1" stroke="none" stroke-width="1" fill="none" fill-rule="evenodd" opacity="0.602811592">
        <g id="关闭备份" transform="translate(-638.000000, -1441.000000)" fill="#FFFFFF">
            <g id="当前播放列表" transform="translate(638.000000, 1441.000000)">
                <rect id="矩形" x="24" y="8" width="21" height="4" rx="2"></rect>
                <path d="M4.31422565,3.13813444 L14.6230793,9.81679658 C14.8585313,9.96909906 15,10.2257799 15,10.5006817 C15,10.7755835 14.8585313,11.0322644 14.6230793,11.1845669 L4.31211275,17.863229 C4.05309143,18.0301157 3.72073913,18.045376 3.44668574,17.9029658 C3.17263234,17.7605556 3.0010904,17.4834498 3,17.1813976 L3,3.81996588 C3.00057597,3.51722617 3.17241391,3.23933063 3.44718799,3.0967755 C3.72196206,2.95422038 4.05513285,2.9701131 4.31422565,3.13813444 Z" id="路径"></path>
                <rect id="矩形备份" x="3" y="24" width="42" height="4" rx="2"></rect>
                <rect id="矩形备份-2" x="3" y="40" width="42" height="4" rx="2"></rect>
            </g>
        </g>
    </g>
</svg>