<?xml version="1.0" encoding="UTF-8"?>
<svg width="48px" height="48px" viewBox="0 0 48 48" version="1.1" xmlns="http://www.w3.org/2000/svg" xmlns:xlink="http://www.w3.org/1999/xlink">
    <title>编组</title>
    <g id="【小程序】酷狗音乐免开发面板-7.1" stroke="none" stroke-width="1" fill="none" fill-rule="evenodd">
        <g id="为你推荐" transform="translate(-32.000000, -212.000000)" fill="#15161A" fill-rule="nonzero">
            <g id="编组" transform="translate(32.000000, 212.000000)">
                <path d="M24,0 C37.2552,0 48,10.7448 48,24 C48,37.2552 37.2552,48 24,48 C10.7448,48 0,37.2552 0,24 C0,10.7448 10.7448,0 24,0 Z M20.6928,15.396 C20.3985022,15.1996474 20.0200608,15.1810748 19.707951,15.3476672 C19.3958412,15.5142596 19.2006542,15.8390131 19.2,16.1928 L19.2,16.1928 L19.2,31.8072 C19.2012386,32.1601834 19.3960893,32.4840141 19.7073805,32.6504371 C20.0186717,32.8168601 20.3961834,32.7990267 20.6904,32.604 L20.6904,32.604 L32.4024,24.7992 C32.6698448,24.6212167 32.830536,24.321255 32.830536,24 C32.830536,23.678745 32.6698448,23.3787833 32.4024,23.2008 L32.4024,23.2008 Z" id="形状"></path>
            </g>
        </g>
    </g>
</svg>