<?xml version="1.0" encoding="UTF-8"?>
<svg width="32px" height="32px" viewBox="0 0 32 32" version="1.1" xmlns="http://www.w3.org/2000/svg" xmlns:xlink="http://www.w3.org/1999/xlink">
    <title>删除 (1)备份 5</title>
    <g id="【小程序】酷狗音乐免开发面板-7.1" stroke="none" stroke-width="1" fill="none" fill-rule="evenodd">
        <g id="当前歌单列表" transform="translate(-686.000000, -1527.000000)">
            <g id="编组-7备份" transform="translate(0.000000, 767.000000)">
                <g id="删除-(1)备份-5" transform="translate(686.000000, 760.000000)">
                    <rect id="矩形" fill="#C2C5CC" x="9.77777778" y="0" width="12.4444444" height="2.66666667" rx="1.33333333"></rect>
                    <path d="M26.9444444,5.94444444 L26.9444444,28 C26.9444444,28.6903559 26.6646224,29.3153559 26.2122114,29.767767 C25.7598004,30.220178 25.1348004,30.5 24.4444444,30.5 L24.4444444,30.5 L7.55555556,30.5 C6.86519962,30.5 6.24019962,30.220178 5.7877886,29.767767 C5.33537759,29.3153559 5.05555556,28.6903559 5.05555556,28 L5.05555556,28 L5.05555556,5.94444444 L26.9444444,5.94444444 Z" id="矩形" stroke="#C2C5CC" stroke-width="3"></path>
                    <rect id="矩形" fill="#C2C5CC" x="0" y="4.44444444" width="32" height="2.66666667" rx="1.33333333"></rect>
                    <rect id="矩形" fill="#C2C5CC" x="10.6666667" y="11.5555556" width="2.66666667" height="12.4444444" rx="1.33333333"></rect>
                    <rect id="矩形备份" fill="#C2C5CC" x="18.6666667" y="11.5555556" width="2.66666667" height="12.4444444" rx="1.33333333"></rect>
                </g>
            </g>
        </g>
    </g>
</svg>