<svg xmlns="http://www.w3.org/2000/svg" xmlns:xlink="http://www.w3.org/1999/xlink" viewBox="0 0 512 320" class="design-iconfont">
  <defs>
    <linearGradient x1="50%" y1="0%" x2="50%" y2="100%" id="g0m7jdsm9b">
      <stop stop-color="#E2ECFF" offset="0%"/>
      <stop stop-color="#E2ECFF" stop-opacity="0" offset="100%"/>
    </linearGradient>
    <linearGradient x1="50%" y1="0%" x2="50%" y2="100%" id="lpb7g6fjjc">
      <stop stop-color="#E2ECFF" offset="0%"/>
      <stop stop-color="#E2ECFF" stop-opacity="0" offset="100%"/>
    </linearGradient>
    <linearGradient x1="50%" y1="0%" x2="50%" y2="100%" id="mdzm8891gd">
      <stop stop-color="#4288E4" offset="0%"/>
      <stop stop-color="#1F50C4" offset="100%"/>
    </linearGradient>
    <linearGradient x1="50%" y1="0%" x2="50%" y2="100%" id="yl7hcdb3ke">
      <stop stop-color="#BFDAFE" offset="0%"/>
      <stop stop-color="#5380DC" offset="100%"/>
    </linearGradient>
    <linearGradient x1="50%" y1="0%" x2="50%" y2="100%" id="dc74cxvfnf">
      <stop stop-color="#4288E4" offset="0%"/>
      <stop stop-color="#1F50C4" offset="100%"/>
    </linearGradient>
    <linearGradient x1="50%" y1="0%" x2="50%" y2="100%" id="2zk3damerg">
      <stop stop-color="#BFDAFE" offset="0%"/>
      <stop stop-color="#5380DC" offset="100%"/>
    </linearGradient>
    <linearGradient x1="50%" y1="5.38993969%" x2="50%" y2="108.021519%" id="5f44oujmvh">
      <stop stop-color="#BDD2FE" offset="0%"/>
      <stop stop-color="#093798" offset="100%"/>
    </linearGradient>
    <linearGradient x1="50%" y1="0%" x2="50%" y2="100%" id="ooknz4u2ui">
      <stop stop-color="#A1BDF4" offset="0%"/>
      <stop stop-color="#6A93DA" offset="100%"/>
    </linearGradient>
    <linearGradient x1="50%" y1="0%" x2="50%" y2="100%" id="0ayxvi2w7l">
      <stop stop-color="#6F91D7" offset="0%"/>
      <stop stop-color="#315AB0" offset="100%"/>
    </linearGradient>
    <linearGradient x1="50%" y1="0%" x2="50%" y2="100%" id="nvdfcss6km">
      <stop stop-color="#E8F0FB" offset="0%"/>
      <stop stop-color="#CDDDF5" offset="100%"/>
    </linearGradient>
    <radialGradient cx="50%" cy="-13.7511502%" fx="50%" fy="-13.7511502%" r="119.117172%" gradientTransform="matrix(0 1 -.47485 0 .4347022 -.637512)" id="12er4dkfka">
      <stop stop-color="#A1C0F8" offset="0%"/>
      <stop stop-color="#FFF" stop-opacity="0" offset="93.6150342%"/>
      <stop stop-color="#FFF" stop-opacity="0" offset="100%"/>
    </radialGradient>
    <filter x="-90.4%" y="-12.5%" width="280.7%" height="150%" id="gja3c2uscj">
      <feOffset dy="10" in="SourceAlpha" result="shadowOffsetOuter1"/>
      <feGaussianBlur stdDeviation="5" in="shadowOffsetOuter1" result="shadowBlurOuter1"/>
      <feColorMatrix values="0 0 0 0 0 0 0 0 0 0 0 0 0 0 0 0 0 0 0.08 0" in="shadowBlurOuter1"/>
    </filter>
    <path d="M69,101 C73.3018351,101 76.6125016,104.134007 76.3945807,108 C76.1766598,111.865993 72.8659932,115 69,115 C65.1340068,115 61.8233402,111.865993 61.6054193,108 C61.3874984,104.134007 64.6981649,101 69,101 Z M70,35 C76.3253863,35 81.2764652,38.1340068 81.0585443,42 L78.6346915,85 C78.4167706,88.8659932 74.5508875,92 70,92 C65.4491125,92 61.5832294,88.8659932 61.3653085,85 L58.9414557,42 C58.7235348,38.1340068 63.6746137,35 70,35 Z" id="9vs5s1r2nk"/>
  </defs>
  <g fill="none" fill-rule="evenodd">
    <path d="M256.076662,137 C396.999876,137 520.902132,209.875387 592.153323,319.996056 L-80,319.996056 C-8.7488087,209.875387 115.153447,137 256.076662,137 Z" fill="url(#12er4dkfka)"/>
    <path d="M17,78 L16.9999888,77.6195045 C7.31511674,75.751781 0,67.230159 0,57 C0,45.4020203 9.40202025,36 21,36 C23.8565715,36 26.5799289,36.5703569 29.0624046,37.6034027 C29.0206182,36.9075003 29,36.2061579 29,35.5 C29,15.8938914 44.8938914,0 64.5,0 C82.1423524,0 96.7788807,12.8694627 99.5338925,29.7326958 C101.443118,29.2537654 103.441924,29 105.5,29 C119.030976,29 130,39.9690236 130,53.5 C130,65.8422576 120.873612,76.0529331 109.001137,77.7517263 L109,78 L17,78 Z" fill="url(#g0m7jdsm9b)" transform="translate(26 19)"/>
    <path d="M361.6,96 L361.600599,95.6976713 C353.852399,94.2133083 348,87.4395698 348,79.3076923 C348,70.0887853 355.521616,62.6153846 364.8,62.6153846 C367.085617,62.6153846 369.264629,63.068888 371.250862,63.8902721 C371.216507,63.3371373 371.2,62.7794583 371.2,62.2179487 C371.2,46.633606 383.915113,34 399.6,34 C413.713931,34 425.423186,44.229644 427.627137,57.6338209 C429.154841,57.2529493 430.753718,57.0512821 432.4,57.0512821 C443.224781,57.0512821 452,65.7702496 452,76.525641 C452,86.3362975 444.698675,94.4525698 435.200492,95.8027137 L435.2,96 L361.6,96 Z" fill="url(#lpb7g6fjjc)" transform="translate(26 19)"/>
    <path d="M10.5,31.1111111 C11.573887,31.1111111 12.4444444,31.9816685 12.4444444,33.0555556 L12.4444444,40.8333333 C12.4444444,41.9072203 11.573887,42.7777778 10.5,42.7777778 C9.42611299,42.7777778 8.55555556,41.9072203 8.55555556,40.8333333 L8.55555556,33.0555556 C8.55555556,31.9816685 9.42611299,31.1111111 10.5,31.1111111 Z" fill="url(#mdzm8891gd)" transform="translate(111 148)"/>
    <path d="M10.3636576,0.777777778 C15.9403748,0.777777778 23.0239523,22.760348 20.4587087,28.7125451 C17.893465,34.6647421 3.69323796,35.3689295 0.708596191,28.7125451 C-2.27604558,22.0561606 4.78694035,0.777777778 10.3636576,0.777777778 Z" fill="url(#yl7hcdb3ke)" transform="translate(111 148)"/>
    <path d="M10.5,31.1111111 C11.573887,31.1111111 12.4444444,31.9816685 12.4444444,33.0555556 L12.4444444,40.8333333 C12.4444444,41.9072203 11.573887,42.7777778 10.5,42.7777778 C9.42611299,42.7777778 8.55555556,41.9072203 8.55555556,40.8333333 L8.55555556,33.0555556 C8.55555556,31.9816685 9.42611299,31.1111111 10.5,31.1111111 Z" fill="url(#mdzm8891gd)" transform="translate(371 132)"/>
    <path d="M10.3636576,0.777777778 C15.9403748,0.777777778 23.0239523,22.760348 20.4587087,28.7125451 C17.893465,34.6647421 3.69323796,35.3689295 0.708596191,28.7125451 C-2.27604558,22.0561606 4.78694035,0.777777778 10.3636576,0.777777778 Z" fill="url(#yl7hcdb3ke)" transform="translate(371 132)"/>
    <g>
      <path d="M14.1375,41.8888889 C15.5834122,41.8888889 16.7555556,43.0610323 16.7555556,44.5069444 L16.7555556,54.9791667 C16.7555556,56.4250788 15.5834122,57.5972222 14.1375,57.5972222 C12.6915878,57.5972222 11.5194444,56.4250788 11.5194444,54.9791667 L11.5194444,44.5069444 C11.5194444,43.0610323 12.6915878,41.8888889 14.1375,41.8888889 Z" fill="url(#dc74cxvfnf)" transform="translate(406 157)"/>
      <path d="M13.9539247,1.04722222 C21.4625761,1.04722222 31.0001072,30.6451828 27.5461899,38.659391 C24.0922725,46.6735992 4.97268111,47.6217372 0.954074158,38.659391 C-3.06453279,29.6970449 6.44527325,1.04722222 13.9539247,1.04722222 Z" fill="url(#2zk3damerg)" transform="translate(406 157)"/>
    </g>
    <g>
      <path fill="url(#5f44oujmvh)" d="M72.0137931 0A68.5241379 72 0 1 0 72.0137931 144A68.5241379 72 0 1 0 72.0137931 0Z" transform="translate(183 58)"/>
      <path fill="url(#ooknz4u2ui)" d="M65.9862069 6.199999999999989A65.9862069 69.3333333 0 1 0 65.9862069 144.8666666A65.9862069 69.3333333 0 1 0 65.9862069 6.199999999999989Z" transform="translate(183 58)"/>
      <g transform="translate(183 58)">
        <use fill="#000" filter="url(#gja3c2uscj)" xlink:href="#9vs5s1r2nk"/>
        <use fill="url(#0ayxvi2w7l)" xlink:href="#9vs5s1r2nk"/>
      </g>
      <path d="M66,103 C70.3018351,103 73.6125016,106.134007 73.3945807,110 C73.1766598,113.865993 69.8659932,117 66,117 C62.1340068,117 58.8233402,113.865993 58.6054193,110 C58.3874984,106.134007 61.6981649,103 66,103 Z M66,38 C72.3253863,38 77.2764652,41.1340068 77.0585443,45 L74.6346915,88 C74.4167706,91.8659932 70.5508875,95 66,95 C61.4491125,95 57.5832294,91.8659932 57.3653085,88 L54.9414557,45 C54.7235348,41.1340068 59.6746137,38 66,38 Z" fill="url(#nvdfcss6km)" transform="translate(183 58)"/>
    </g>
  </g>
</svg>
