<svg xmlns="http://www.w3.org/2000/svg" viewBox="0 0 40 40" class="design-iconfont">
  <path d="M19.5,6 C20.3284271,6 21,6.67157288 21,7.5 L21,18 L31.5,18 C32.3284271,18 33,18.6715729 33,19.5 C33,20.3284271 32.3284271,21 31.5,21 L21,21 L21,31.5 C21,32.3284271 20.3284271,33 19.5,33 C18.6715729,33 18,32.3284271 18,31.5 L18,21 L7.5,21 C6.67157288,21 6,20.3284271 6,19.5 C6,18.6715729 6.67157288,18 7.5,18 L18,18 L18,7.5 C18,6.67157288 18.6715729,6 19.5,6 Z" transform="rotate(45 18.79289348 20.4999999)" fill="#C2C5CC" fill-rule="evenodd"/>
</svg>
