<?xml version="1.0" encoding="UTF-8"?>
<svg width="48px" height="48px" viewBox="0 0 48 48" version="1.1" xmlns="http://www.w3.org/2000/svg" xmlns:xlink="http://www.w3.org/1999/xlink">
    <title>随机播放</title>
    <g id="随机播放" stroke="none" stroke-width="1" fill="none" fill-rule="evenodd" opacity="0.602811592">
        <g id="编组" fill="#C2C5CC" fill-rule="nonzero">
            <path d="M28.3254772,30.0966351 L28.1954311,29.9771027 L27.4193558,31.0372954 L26.683441,32.0241154 L26.183751,32.6782989 L26.0182566,32.8899792 L26.0502763,32.9208966 C28.8673103,35.5156055 31.7867824,36.9186571 35.2185107,37.0998404 L35.6019427,37.1149421 L35.9897157,37.119978 L39.0942156,37.119978 L39.0932223,41 L44.9990068,35.7013113 L39.0932223,30.4016554 L39.0942156,33.3262967 L35.9897157,33.3262967 C33.2402043,33.3262967 30.8904562,32.3208176 28.6101745,30.3482413 L28.3254772,30.0966351 Z M39.0942156,7 L39.0942156,10.8503839 L35.9897157,10.8503839 C31.205493,10.8503839 28.0015485,12.5932025 23.984415,17.2153613 L23.4669875,17.8211532 C23.3799518,17.9247546 23.292502,18.0296814 23.2046148,18.1359445 L22.67186,18.7896461 L22.1275038,19.4759444 L21.5704396,20.1953647 L20.9995609,20.9484325 L20.4137611,21.7356732 L18.4074913,24.4758304 L17.8439459,25.2255427 L17.5145595,25.6545443 C13.7986045,30.4594612 10.7398414,32.7408775 6.5902235,32.8443912 L6.29194343,32.8480858 L3,32.8474273 L3,36.6413232 L6.29194343,36.6417671 C11.5156876,36.6417671 15.056184,34.3688419 19.55566,28.7909032 L20.1115889,28.0913019 L20.6781815,27.3582431 C20.7735621,27.2332552 20.869432,27.1068556 20.9658136,26.9790356 L21.5504232,26.1950012 L23.4605106,23.5808999 L24.1194748,22.6933351 L24.5247779,22.1559199 L24.9064611,21.6578673 L25.2675973,21.195686 L25.7774983,20.5620357 C25.8323538,20.4952412 25.8866733,20.4295776 25.9405209,20.3649723 L26.2584541,19.9894574 L26.5681322,19.6358488 L26.8726282,19.3006551 C26.9231164,19.2461301 26.9735167,19.1922269 27.0238932,19.1388728 L27.3263779,18.8247555 L27.6313628,18.5203249 L27.941921,18.2220899 L28.2611254,17.9265592 C30.5370533,15.8554637 32.9130937,14.7357251 35.6461993,14.6494598 L35.9897157,14.6440652 L39.0942156,14.6440652 L39.0942156,17.5973775 L45,12.2986887 L39.0942156,7 Z M6.29194343,11.3285948 L3,11.3277299 L3,15.1216258 L6.29194343,15.1222761 C8.87528674,15.1222761 11.1158794,16.0172877 13.2684528,17.7623407 L13.5614639,18.0055671 L13.6633874,18.094462 L14.8281317,16.5013536 L15.6754477,15.3650591 L15.8276498,15.1641778 L15.5223959,14.9020864 C12.927463,12.711976 10.2123151,11.5172393 7.07090286,11.3492039 L6.67598407,11.3335491 L6.29194343,11.3285948 Z" id="Fill-1"></path>
        </g>
    </g>
</svg>
