<?xml version="1.0" standalone="no"?><!DOCTYPE svg PUBLIC "-//W3C//DTD SVG 1.1//EN" "http://www.w3.org/Graphics/SVG/1.1/DTD/svg11.dtd"><svg t="1625047998146" class="icon" viewBox="0 0 1024 1024" version="1.1" xmlns="http://www.w3.org/2000/svg" p-id="2722" xmlns:xlink="http://www.w3.org/1999/xlink" width="200" height="200"><defs><style type="text/css"></style></defs><path d="M768.234813 409.332675c-8.344881 8.272631-34.4994 4.804629-42.880407-3.468003V330.435617h-112.168207L304.570098 751.219925H164.260495c-15.497636 0-28.033021-14.955761-28.03302-30.236647 0-15.389261 12.535384-25.793269 28.03302-25.793269h112.276583l308.616101-420.784308h140.201227v-79.836308c8.344881-8.272631 34.4994-3.468003 42.880407 4.804628l119.031962 89.951316a21.086178 21.086178 0 0 1 0 29.983772l-119.031962 90.023566z m-357.999013 10.042757l-35.330275 45.806534-98.368447-134.746349H164.260495c-15.497636 0-28.033021-10.404008-28.03302-25.793269 0-15.317011 12.535384-30.236647 28.03302-30.236647H304.533973c7.152755 8.959007 105.701827 144.969731 105.701827 144.969731z m202.950399 275.778452h112.168207v-77.307556c8.344881-8.344881 34.4994-10.512383 42.880407-2.203627l119.031962 89.951316c8.344881 8.272631 8.344881 21.711141 0 30.056022l-119.031962 89.951316c-8.344881 8.272631-34.4994 11.921259-42.880407 3.648627v-80.522684h-140.201227l-106.496578-143.59698 35.330275-45.734283 99.199323 135.757849z" fill="#231815" p-id="2723"></path></svg>