<?xml version="1.0" encoding="UTF-8"?>
<svg width="48px" height="48px" viewBox="0 0 48 48" version="1.1" xmlns="http://www.w3.org/2000/svg" xmlns:xlink="http://www.w3.org/1999/xlink">
    <title>列表循环</title>
    <g id="列表循环" stroke="none" stroke-width="1" fill="none" fill-rule="evenodd" opacity="0.602811592">
        <g id="编组备份-2" fill="#FFFFFF" fill-rule="nonzero">
            <path d="M7.25631896,10.1711109 L2,16.2284362 L5.64417511,16.2292916 L5.64417511,34.8605052 C5.64417511,36.4720851 6.7866493,37.7991289 8.24253492,37.97937 L8.41869251,37.9954391 L8.60072382,38.001 L26.8356068,37.999963 L24.201655,34.975967 L8.86967833,34.9777457 L8.86967833,16.2292916 L12.5115848,16.2284362 L7.25631896,10.1711109 Z M21.16334,10 L23.7972919,13.023996 L39.1329314,13.0253219 L39.1329314,31.774465 L35.4905216,31.7725638 L40.7457874,37.8298891 L46,31.7725638 L42.3589514,31.7744651 L42.3589514,13.142495 C42.3589514,11.531425 41.216035,10.2039358 39.7604883,10.0236368 L39.5843752,10.0075627 L39.4023496,10.0020002 L21.16334,10 Z" id="Fill-1"></path>
        </g>
    </g>
</svg>