<?xml version="1.0" standalone="no"?><!DOCTYPE svg PUBLIC "-//W3C//DTD SVG 1.1//EN" "http://www.w3.org/Graphics/SVG/1.1/DTD/svg11.dtd"><svg t="1625047995651" class="icon" viewBox="0 0 1024 1024" version="1.1" xmlns="http://www.w3.org/2000/svg" p-id="2591" xmlns:xlink="http://www.w3.org/1999/xlink" width="200" height="200"><defs><style type="text/css"></style></defs><path d="M880.245529 681.54683c3.287261 74.378806-47.322115 157.716302-134.163616 207.892194-113.067344 65.311744-244.44943 53.824391-293.469361-35.401278-47.141496-85.830035 3.034395-206.483367 116.101739-271.758986 91.356969-52.740678 193.840054-51.765337 255.936783-5.057326V117.907927c0-15.460966 12.643313-28.032032 28.104279-28.032032 15.49709 0 28.032032 12.534942 28.032032 28.032032v561.074117c0 0.86697-0.433485 1.661693-0.541856 2.564786z m-65.022754-43.492997c-39.158147-59.965428-146.517938-61.988359-230.036053-11.667972-83.518115 50.428758-123.579356 146.228948-84.421209 206.194377 39.230395 60.037676 142.869439 61.482626 226.387554 11.126115 83.518115-50.428758 127.300102-145.614845 88.069708-205.65252z m-130.767983-295.709035H179.516986c-15.49709 0-28.104279-12.534942-28.104279-28.032031 0-15.569337 12.643313-28.104279 28.104279-28.104279h504.937806c15.460966 0 28.032032 12.534942 28.032032 28.104279a28.032032 28.032032 0 0 1-28.032032 28.032031z m0-168.300561H179.516986c-15.49709 0-28.104279-12.534942-28.104279-28.032031 0-15.569337 12.643313-28.104279 28.104279-28.104279h504.937806c15.460966 0 28.032032 12.534942 28.032032 28.104279a28.032032 28.032032 0 0 1-28.032032 28.032031zM179.516986 454.509049h308.496843c15.569337 0 28.104279 12.534942 28.104279 28.104279 0 15.460966-12.534942 28.032032-28.104279 28.032031h-308.496843c-15.49709 0-28.104279-12.534942-28.104279-28.032031 0-15.533213 12.643313-28.104279 28.104279-28.104279z m0 168.336684h168.300561c15.460966 0 28.032032 12.534942 28.032031 28.104279a28.032032 28.032032 0 0 1-28.032031 28.032032H179.516986c-15.49709 0-28.104279-12.534942-28.104279-28.032032 0-15.569337 12.643313-28.104279 28.104279-28.104279z" fill="#231815" p-id="2592"></path></svg>