<?xml version="1.0" encoding="UTF-8"?>
<svg width="48px" height="48px" viewBox="0 0 48 48" version="1.1" xmlns="http://www.w3.org/2000/svg" xmlns:xlink="http://www.w3.org/1999/xlink">
    <title>顺序播放</title>
    <g id="顺序播放" stroke="none" stroke-width="1" fill="none" fill-rule="evenodd" opacity="0.602811592">
        <g id="编组备份-3" fill="#FFFFFF" fill-rule="nonzero">
            <path d="M34.1937073,17.3242565 L34.1937073,13.5875865 L41.8990203,13.5881058 L42.0760876,13.5936666 C43.6924529,13.6915778 45,15.2780953 45,17.2290279 L45,34.3590779 L44.9951331,34.5682267 C44.9077934,36.4931341 43.5373406,38 41.8990357,38 L6.10096427,38 L5.92391236,37.9944391 C4.30754705,37.896528 3,36.3100104 3,34.3590779 L3,17.2290279 L3.00486687,17.0198791 C3.09220656,15.0949717 4.46265939,13.5881058 6.10096427,13.5881058 L20.8991449,13.5881058 L20.897122,10 L27.1704878,15.4553891 L20.897122,20.911843 L20.8991449,17.3258018 L6.1335224,17.3258018 L6.1335224,34.262304 L41.8664776,34.262304 L41.8664776,17.3258618 L34.1937073,17.3242565 Z" id="Fill-1"></path>
        </g>
    </g>
</svg>