<?xml version="1.0" encoding="UTF-8"?>
<svg width="123px" height="269px" viewBox="0 0 123 269" version="1.1" xmlns="http://www.w3.org/2000/svg" xmlns:xlink="http://www.w3.org/1999/xlink">
    <title>路径</title>
    <g id="【小程序】酷狗音乐免开发面板-7.1" stroke="none" stroke-width="1" fill="none" fill-rule="evenodd" opacity="0.146847747">
        <g id="关闭备份" transform="translate(-313.000000, -461.000000)" fill="#FFFFFF" fill-rule="nonzero">
            <g id="大按妞2" transform="translate(32.000000, 252.000000)">
                <g id="位图" transform="translate(149.000000, 150.000000)">
                    <path d="M197.642641,80.0945762 C158.339819,85.3626981 145.103174,108.765529 145.103174,108.765529 C141.956308,113.194285 145.103174,118.672249 145.103174,118.672249 L216.556849,222.488487 C206.478073,219.329823 195.188965,218.545679 183.668793,220.68827 C150.142562,226.950377 127.366291,255.775949 132.801787,285.076426 C138.226281,314.376903 169.804976,333.052782 203.331207,326.790674 C236.857438,320.528567 259.633709,291.702995 254.198213,262.402518 C253.394992,258.07316 252.00861,253.986776 250.149098,250.165455 L250.171104,250.187543 L250.08308,250.032923 C249.389889,248.641344 248.641683,247.282898 247.827459,245.957584 L182.93159,129.241625 C264.882155,128.391216 240.290383,59 240.290383,59 C228.737202,77.5654359 197.642641,80.0945762 197.642641,80.0945762" id="路径"></path>
                </g>
            </g>
        </g>
    </g>
</svg>