<?xml version="1.0" standalone="no"?><!DOCTYPE svg PUBLIC "-//W3C//DTD SVG 1.1//EN" "http://www.w3.org/Graphics/SVG/1.1/DTD/svg11.dtd"><svg t="1625042580556" class="icon" viewBox="0 0 1024 1024" version="1.1" xmlns="http://www.w3.org/2000/svg" p-id="3056" xmlns:xlink="http://www.w3.org/1999/xlink" width="200" height="200"><defs><style type="text/css"></style></defs><path d="M711.609937 460.201768c-24.721516-19.235032-29.167832-54.870232-9.9328-79.591747 19.235032-24.721516 54.870232-29.167832 79.591747-9.92741a56.605642 56.605642 0 0 1 21.875874 43.794863l13.473684-17.418779c-32.277558-68.624168-83.5584-126.485558-147.057179-166.912l-60.588463 78.33061-0.005389-0.005389c-19.235032 24.721516-54.870232 29.167832-79.591748 9.9328-24.721516-19.235032-29.167832-54.870232-9.9328-79.586358 19.235032-24.721516 54.870232-29.167832 79.591748-9.9328a56.605642 56.605642 0 0 1 21.865094 43.185853l37.828716-48.613053c-59.413558-35.209432-128.722189-55.490021-202.795116-55.490021-220.046821 0-398.433011 178.3808-398.43301 398.43301 0 220.046821 178.386189 398.433011 398.43301 398.433011s398.433011-178.386189 398.433011-398.433011c0-55.473853-11.361011-108.279916-31.8464-156.267789l-31.329011 40.146189c-19.224253 24.710737-54.859453 29.157053-79.580968 9.922021z m-414.590653 106.19419c0-87.772968 71.151832-158.9248 158.9248-158.9248s158.9248 71.151832 158.9248 158.9248-71.151832 158.9248-158.9248 158.9248-158.9248-71.157221-158.9248-158.9248z m265.582484 310.88101a333.338947 333.338947 0 0 1-9.970526 3.664843 9.205221 9.205221 0 0 1-11.716716-5.642779 9.194442 9.194442 0 0 1 5.642779-11.716716 296.636632 296.636632 0 0 0 9.404632-3.460042 9.199832 9.199832 0 0 1 6.639831 17.154694z m182.385179-176.510652a322.015663 322.015663 0 0 1-74.310063 107.757137 329.118989 329.118989 0 0 1-28.866021 24.608336 328.779453 328.779453 0 0 1-35.619031 23.460379 9.183663 9.183663 0 0 1-12.535916-3.449263 9.189053 9.189053 0 0 1 3.443873-12.535916 310.126484 310.126484 0 0 0 33.614148-22.139957 310.832505 310.832505 0 0 0 27.2384-23.217853 303.750737 303.750737 0 0 0 70.090105-101.634695 9.210611 9.210611 0 0 1 12.045474-4.888252 9.183663 9.183663 0 0 1 4.899031 12.040084z" fill="#0D3F70" p-id="3057"></path><path d="M455.944084 629.129432c-34.648926 0-62.733474-28.089937-62.733473-62.733474 0 34.643537 28.084547 62.733474 62.733473 62.733474s62.733474-28.089937 62.733474-62.733474c0 34.643537-28.089937 62.733474-62.733474 62.733474z" fill="#0D3F70" p-id="3058"></path><path d="M614.868884 566.395958c0-87.772968-71.151832-158.9248-158.9248-158.9248s-158.9248 71.151832-158.9248 158.9248 71.151832 158.9248 158.9248 158.9248 158.9248-71.157221 158.9248-158.9248z m-96.191326 0c0 34.648926-28.084547 62.733474-62.733474 62.733474s-62.733474-28.089937-62.733473-62.733474c0-34.648926 28.084547-62.733474 62.733473-62.733474s62.733474 28.084547 62.733474 62.733474z" fill="#D34D5B" p-id="3059"></path><path d="M455.944084 503.662484c-34.648926 0-62.733474 28.084547-62.733473 62.733474 0 34.643537 28.084547 62.733474 62.733473 62.733474s62.733474-28.089937 62.733474-62.733474c0-34.648926-28.089937-62.733474-62.733474-62.733474z" fill="#FFFFFF" p-id="3060"></path><path d="M740.233432 60.841768l-1.999495-1.557557c0.673684 0.522779 1.3312 1.050947 1.988716 1.579115l0.010779-0.021558zM967.696168 207.888168a28.305516 28.305516 0 0 0-14.104252-19.111073l-0.059284-0.032337-168.884548-88.360421a28.224674 28.224674 0 0 0-35.958568 7.464421l-89.955705 115.60421-37.828716 48.613053a56.605642 56.605642 0 0 0-21.865095-43.185853c-24.721516-19.235032-60.356716-14.788716-79.591747 9.9328-19.235032 24.721516-14.788716 60.351326 9.9328 79.586358 24.721516 19.235032 60.356716 14.788716 79.591747-9.9328l0.005389 0.00539 60.588464-78.330611 70.305684-90.898863 197.858358 101.262821-121.101474 156.548042-13.473684 17.418779a56.594863 56.594863 0 0 0-21.875874-43.794863c-24.721516-19.235032-60.356716-14.788716-79.591747 9.927411-19.235032 24.721516-14.788716 60.356716 9.9328 79.591747 24.721516 19.235032 60.351326 14.788716 79.591747-9.9328l31.329011-40.14619 139.776-179.108378a28.316295 28.316295 0 0 0 5.378694-23.120843z" fill="#D34D5B" p-id="3061"></path></svg>