<?xml version="1.0" encoding="UTF-8"?>
<svg width="128px" height="128px" viewBox="0 0 128 128" version="1.1" xmlns="http://www.w3.org/2000/svg" xmlns:xlink="http://www.w3.org/1999/xlink">
    <title>编组</title>
    <g id="【小程序】酷狗音乐免开发面板-7.1" stroke="none" stroke-width="1" fill="none" fill-rule="evenodd">
        <g id="关闭备份" transform="translate(-311.000000, -1401.000000)">
            <g id="编组" transform="translate(311.000000, 1401.000000)">
                <polygon id="路径" points="0 0 128 0 128 128 0 128"></polygon>
                <path d="M64,11 C93.2719,11 117,34.7281 117,64 C117,93.2719 93.2719,117 64,117 C34.7281,117 11,93.2719 11,64 C11,34.7281 34.7281,11 64,11 Z M56.6966,44.9995 C56.0466923,44.5658879 55.2109676,44.5248736 54.5217251,44.8927651 C53.8324826,45.2606566 53.4014447,45.9778207 53.4,46.7591 L53.4,46.7591 L53.4,81.2409 C53.4027352,82.0204051 53.8330305,82.7355311 54.5204653,83.1030485 C55.2079001,83.470566 56.0415716,83.431184 56.6913,83.0005 L56.6913,83.0005 L82.5553,65.7649 C83.1459072,65.3718535 83.5007669,64.7094381 83.5007669,64 C83.5007669,63.2905619 83.1459072,62.6281465 82.5553,62.2351 L82.5553,62.2351 Z" id="形状" fill="#FFFFFF" fill-rule="nonzero"></path>
            </g>
        </g>
    </g>
</svg>