<?xml version="1.0" standalone="no"?><!DOCTYPE svg PUBLIC "-//W3C//DTD SVG 1.1//EN" "http://www.w3.org/Graphics/SVG/1.1/DTD/svg11.dtd"><svg t="1625047984290" class="icon" viewBox="0 0 1024 1024" version="1.1" xmlns="http://www.w3.org/2000/svg" p-id="2329" xmlns:xlink="http://www.w3.org/1999/xlink" width="200" height="200"><defs><style type="text/css"></style></defs><path d="M304 928c0 17.664 14.32 32 32 32h16c17.664 0 32-14.336 32-32V96c0-17.664-14.336-32-32-32h-16c-17.68 0-32 14.336-32 32v832z m336 0c0 17.664 14.336 32 32 32h16c17.68 0 32-14.336 32-32V96c0-17.664-14.32-32-32-32h-16c-17.664 0-32 14.336-32 32v832z" fill="" p-id="2330"></path></svg>