<?xml version="1.0" standalone="no"?><!DOCTYPE svg PUBLIC "-//W3C//DTD SVG 1.1//EN" "http://www.w3.org/Graphics/SVG/1.1/DTD/svg11.dtd"><svg t="1625048000825" class="icon" viewBox="0 0 1024 1024" version="1.1" xmlns="http://www.w3.org/2000/svg" p-id="2853" xmlns:xlink="http://www.w3.org/1999/xlink" width="200" height="200"><defs><style type="text/css"></style></defs><path d="M128 102.4V928c0 17.673 14.327 32 32 32 17.673 0 32-14.327 32-32V102.4c0-17.673-14.327-32-32-32-17.673 0-32 14.327-32 32zM774.028 143.795l-404.352 331.09c-27.383 22.42-27.435 58.886 0 81.35l404.352 331.09c27.382 22.42 49.676 12.003 49.676-23.366V167.16c0-35.646-22.24-45.83-49.676-23.365z m-40.546-49.518c69.12-56.597 154.222-16.897 154.222 72.883v696.8c0 89.481-85.14 129.447-154.222 72.883L329.13 605.753c-58.7-48.064-58.662-132.353 0-180.386l404.352-331.09z" fill="" p-id="2854"></path></svg>