<?xml version="1.0" encoding="UTF-8"?>
<svg width="48px" height="48px" viewBox="0 0 48 48" version="1.1" xmlns="http://www.w3.org/2000/svg" xmlns:xlink="http://www.w3.org/1999/xlink">
    <title>上一首</title>
    <g id="【小程序】酷狗音乐免开发面板-7.1" stroke="none" stroke-width="1" fill="none" fill-rule="evenodd">
        <g id="关闭备份" transform="translate(-195.000000, -1441.000000)" fill="#FFFFFF">
            <g id="上一首" transform="translate(219.000000, 1465.000000) scale(-1, 1) translate(-219.000000, -1465.000000) translate(195.000000, 1441.000000)">
                <path d="M41.25,2 C37.8467667,2 35.5,3.03480358 35.5,6.4 L35.5,41.6 C35.5,44.9651964 37.8467667,46 41.25,46 C44.6532333,46 47,44.9651964 47,41.6 L47,6.4 C47,3.03480358 44.6532333,2 41.25,2 M32.6372667,22.3246037 L4.7467,5.00358374 C2.6859,3.6662991 1,4.65031013 1,7.18842178 L1,40.8115782 C1,43.3496899 2.6859,44.3329428 4.7467,42.9971744 L32.6372667,25.6761544 C32.6372667,25.6761544 33.6416,24.9779462 33.6416,24.0007581 C33.6416,23.0228119 32.6372667,22.3246037 32.6372667,22.3246037" id="Fill-1"></path>
            </g>
        </g>
    </g>
</svg>