<?xml version="1.0" standalone="no"?><!DOCTYPE svg PUBLIC "-//W3C//DTD SVG 1.1//EN" "http://www.w3.org/Graphics/SVG/1.1/DTD/svg11.dtd"><svg t="1625398310345" class="icon" viewBox="0 0 1024 1024" version="1.1" xmlns="http://www.w3.org/2000/svg" p-id="5803" xmlns:xlink="http://www.w3.org/1999/xlink" width="200" height="200"><defs><style type="text/css"></style></defs><path d="M517.12256 952.32a89.6 89.6 0 0 1-48.64-14.08L256.00256 805.12H94.08256A95.36 95.36 0 0 1 0.00256 709.12V462.72a95.36 95.36 0 0 1 94.08-96H256.00256l211.2-136.96a90.24 90.24 0 0 1 94.08 0 96 96 0 0 1 49.92 84.48v545.28a97.92 97.92 0 0 1-49.28 84.48 93.44 93.44 0 0 1-44.8 8.32zM94.08256 430.72a30.72 30.72 0 0 0-30.08 32v246.4a31.36 31.36 0 0 0 30.08 32h178.56l229.76 142.72a25.6 25.6 0 0 0 28.16 0 32 32 0 0 0 16.64-28.16V311.04a31.36 31.36 0 0 0-16.64-28.16 26.88 26.88 0 0 0-28.8 0L272.64256 430.72zM693.76256 790.4a32 32 0 0 1-32-32 32 32 0 0 1 32-32A128 128 0 0 0 800.00256 588.8a128 128 0 0 0-106.24-137.6 32 32 0 0 1-32-32 32 32 0 0 1 32-32A188.16 188.16 0 0 1 864.00256 588.8a188.16 188.16 0 0 1-170.24 201.6z" p-id="5804"></path><path d="M747.52256 920.32a32 32 0 0 1-32-32 32 32 0 0 1 32-32c117.12 0 212.48-120.32 212.48-267.52S864.64256 320 747.52256 320a32 32 0 0 1-32-32 32 32 0 0 1 32-32C899.84256 256 1024.00256 406.4 1024.00256 588.8s-124.16 331.52-276.48 331.52z" p-id="5805"></path></svg>