<svg width="48" height="48" viewBox="0 0 48 48" fill="none" xmlns="http://www.w3.org/2000/svg">
<g filter="url(#filter0_d_559_298)">
<circle cx="24" cy="24" r="20" fill="white"/>
</g>
<path d="M31.7812 32.7539H16.2188C15.1444 32.7539 14.2734 31.883 14.2734 30.8086V20.1094H33.7266V30.8086C33.7266 31.883 32.8556 32.7539 31.7812 32.7539ZM26.918 23.0273C26.918 22.4903 26.4825 22.0547 25.9453 22.0547C25.8487 22.0547 22.1513 22.0547 22.0547 22.0547C21.5176 22.0547 21.082 22.4903 21.082 23.0273C21.082 23.5645 21.5176 24 22.0547 24C22.1513 24 22.4631 24 22.541 24H24.7295L22.0547 29.3496C22.0547 29.6182 22.2725 29.8359 22.541 29.8359H23.5137C23.7823 29.8359 24 29.6182 24 29.3496L26.918 23.5137C26.918 23.4358 26.918 23.1239 26.918 23.0273ZM14.2734 18.1641C14.2734 17.0897 15.1444 16.2188 16.2188 16.2188H18.2622C18.464 15.6549 18.9897 15.2461 19.623 15.2461C20.2564 15.2461 20.7821 15.6549 20.9839 16.2188H27.0161C27.2179 15.6549 27.7437 15.2461 28.377 15.2461C29.0103 15.2461 29.536 15.6549 29.7378 16.2188H31.7812C32.8556 16.2188 33.7266 17.0897 33.7266 18.1641V19.1367H14.2734V18.1641ZM27.8906 18.1641H28.8633V16.2188H27.8906V18.1641ZM19.1367 18.1641H20.1094V16.2188H19.1367V18.1641Z" fill="#26313D"/>
<defs>
<filter id="filter0_d_559_298" x="0" y="0" width="48" height="48" filterUnits="userSpaceOnUse" color-interpolation-filters="sRGB">
<feFlood flood-opacity="0" result="BackgroundImageFix"/>
<feColorMatrix in="SourceAlpha" type="matrix" values="0 0 0 0 0 0 0 0 0 0 0 0 0 0 0 0 0 0 127 0" result="hardAlpha"/>
<feOffset/>
<feGaussianBlur stdDeviation="2"/>
<feComposite in2="hardAlpha" operator="out"/>
<feColorMatrix type="matrix" values="0 0 0 0 0.14902 0 0 0 0 0.192157 0 0 0 0 0.239216 0 0 0 0.12 0"/>
<feBlend mode="normal" in2="BackgroundImageFix" result="effect1_dropShadow_559_298"/>
<feBlend mode="normal" in="SourceGraphic" in2="effect1_dropShadow_559_298" result="shape"/>
</filter>
</defs>
</svg>
