<?xml version="1.0" encoding="UTF-8"?>
<svg width="72px" height="96px" viewBox="0 0 72 96" version="1.1" xmlns="http://www.w3.org/2000/svg" xmlns:xlink="http://www.w3.org/1999/xlink">
    <title>时长-倒计时</title>
    <defs>
        <filter x="-22.2%" y="-15.4%" width="144.4%" height="130.8%" filterUnits="objectBoundingBox" id="filter-1">
            <feOffset dx="0" dy="2" in="SourceAlpha" result="shadowOffsetOuter1"></feOffset>
            <feGaussianBlur stdDeviation="2" in="shadowOffsetOuter1" result="shadowBlurOuter1"></feGaussianBlur>
            <feColorMatrix values="0 0 0 0 0   0 0 0 0 0   0 0 0 0 0  0 0 0 0.5 0" type="matrix" in="shadowBlurOuter1" result="shadowMatrixOuter1"></feColorMatrix>
            <feMerge>
                <feMergeNode in="shadowMatrixOuter1"></feMergeNode>
                <feMergeNode in="SourceGraphic"></feMergeNode>
            </feMerge>
        </filter>
        <linearGradient x1="26.035503%" y1="6.80044777%" x2="72.6237272%" y2="98.0740451%" id="linearGradient-2">
            <stop stop-color="#0081FF" offset="0%"></stop>
            <stop stop-color="#005BFF" offset="100%"></stop>
        </linearGradient>
    </defs>
    <g id="页面-1" stroke="none" stroke-width="1" fill="none" fill-rule="evenodd">
        <g id="2" transform="translate(-869.000000, -1831.000000)" fill="url(#linearGradient-2)">
            <g id="灯光" transform="translate(750.000000, 1758.000000)">
                <g id="时长-倒计时" filter="url(#filter-1)" transform="translate(128.000000, 82.000000)">
                    <path d="M54,78 L0.00763936872,78 L0.00763936872,69.0000001 C-0.343563656,54.0883121 11.4583312,41.7152538 26.3679097,41.3640007 C41.2774881,41.0127476 53.6487962,52.8163121 54,67.728 L54,78 L54,78 Z M21.1306507,52.2 C20.7285637,52.2007732 20.3307362,52.2823904 19.9608162,52.44 C14.9796978,54.5491879 11.2152297,58.7925289 9.714266,63.99 C9.37454775,65.0316975 9.62968857,66.1757715 10.3798092,66.9743543 C11.1299298,67.7729372 12.2556977,68.098987 13.3164116,67.8248658 C14.3771254,67.5507445 15.2040423,66.7200608 15.4734511,65.658 C16.4948456,62.2009623 19.0011729,59.3776469 22.3124835,57.954 C23.636348,57.3983108 24.380867,55.9823047 24.0883358,54.5764935 C23.7958046,53.1706823 22.5482616,52.169316 21.1126532,52.188 L21.1306507,52.2 Z M27.0038197,36 C12.1010937,35.9834666 0.0241704037,23.9048345 0.00763936872,9 L0.00763936872,0 L54,0 L54,9 C53.983469,23.9048345 41.9065456,35.9834666 27.0038197,36 Z" id="形状"></path>
                </g>
            </g>
        </g>
    </g>
</svg>