<?xml version="1.0" encoding="UTF-8"?>
<svg width="61px" height="74px" viewBox="0 0 61 74" version="1.1" xmlns="http://www.w3.org/2000/svg" xmlns:xlink="http://www.w3.org/1999/xlink">
    <!-- Generator: Sketch 59.1 (86144) - https://sketch.com -->
    <title>间歇多彩</title>
    <desc>Created with Sketch.</desc>
    <defs>
        <linearGradient x1="50%" y1="0%" x2="50%" y2="100%" id="linearGradient-1">
            <stop stop-color="#57C6D6" offset="0%"></stop>
            <stop stop-color="#60A1DF" offset="100%"></stop>
        </linearGradient>
    </defs>
    <g id="页面-1" stroke="none" stroke-width="1" fill="none" fill-rule="evenodd">
        <g id="1备份" transform="translate(-192.000000, -1843.000000)" fill="url(#linearGradient-1)">
            <g id="多彩" transform="translate(45.000000, 1805.000000)">
                <path d="M192.73919,47.6344243 C193.073477,46.3672338 194.085342,45.3911392 195.364266,45.1021471 C196.643191,44.8131551 197.97677,45.2592613 198.823965,46.2594782 C206.997466,55.827714 209.947133,68.7981899 206.714773,80.9574789 C201.416609,100.999964 181.186935,113.13827 161.12305,108.607999 L160.593939,110.610485 C160.205924,112.055941 158.163556,112.479001 156.911327,111.375519 L152.272788,107.292986 L147.637777,103.210454 C147.103527,102.739536 146.880773,102.007686 147.062132,101.319193 C147.243491,100.630699 147.797934,100.103354 148.494936,99.9564147 L154.54091,98.6907591 L160.583357,97.428629 C162.2236,97.0866552 163.793296,98.4686524 163.405281,99.9105831 L162.914972,101.7791 C166.583474,102.582914 170.308415,102.730986 174.008664,102.20216 C182.097036,101.036854 189.416835,96.7785434 194.42529,90.3247404 C196.99239,87.0131581 198.861865,83.2162605 199.920989,79.1629978 C200.995223,75.1126016 201.245907,70.888033 200.658217,66.7391252 C200.084183,62.7347944 198.738944,58.8796461 196.69694,55.3870054 C195.753054,53.766302 194.667052,52.2325619 193.451726,50.8038515 C192.710155,49.9272894 192.444087,48.7437953 192.73919,47.6344243 L192.73919,47.6344243 Z M173.5,52 L174.5,52 C175.880712,52 177,53.1192881 177,54.5 L177,75.5 C177,76.8807119 175.880712,78 174.5,78 L173.5,78 C172.119288,78 171,76.8807119 171,75.5 L171,54.5 C171,53.1192881 172.119288,52 173.5,52 Z M162.282486,88.4246212 L161.575379,87.7175144 C160.599068,86.7412037 160.599068,85.1582912 161.575379,84.1819805 L172.181981,73.5753788 C173.158291,72.5990681 174.741204,72.5990681 175.717514,73.5753788 L176.424621,74.2824856 C177.400932,75.2587963 177.400932,76.8417088 176.424621,77.8180195 L165.818019,88.4246212 C164.841709,89.4009319 163.258796,89.4009319 162.282486,88.4246212 Z M175.698292,38.5527285 C177.085276,39.3225569 177.948999,40.7802053 177.957794,42.365832 C177.966456,43.9514586 177.118834,45.4185175 175.740408,46.2035526 C174.361982,46.9885876 172.667082,46.9695353 171.306671,46.153713 C169.251485,44.9212426 168.564553,42.2694772 169.763097,40.1950472 C170.96164,38.1206171 173.60296,37.3897415 175.698292,38.5527285 L175.698292,38.5527285 Z" id="间歇多彩"></path>
            </g>
        </g>
    </g>
</svg>