<svg width="56" height="45" viewBox="0 0 56 45" fill="none" xmlns="http://www.w3.org/2000/svg">
<g clip-path="url(#clip0_1628_12468)">
<path d="M30.0173 40.762L29.9912 40.7178C29.9561 40.6565 29.8949 40.5784 29.8415 40.5094L29.8232 40.4794C29.7959 40.4403 29.7633 40.3987 29.7425 40.3596L29.6083 40.1655L29.5927 40.1473L23.0222 30.033C22.2495 28.8481 21.9692 27.4086 22.2408 26.0203C22.4898 24.6402 23.275 23.4148 24.4249 22.612C25.1653 22.1001 26.0292 21.7958 26.9269 21.7305C27.8247 21.6652 28.7235 21.8414 29.5302 22.2408V5.33587C29.5224 2.39639 31.7377 0 34.4597 0C37.1778 0 39.3971 2.39639 39.3971 5.33978V10.7707C39.797 10.6379 40.2155 10.5697 40.6369 10.5689C41.9237 10.5689 43.1401 11.1888 43.9971 12.2593C44.665 11.8151 45.4468 11.5728 46.2489 11.5613C47.1723 11.566 48.0671 11.8822 48.7886 12.4586C49.3551 12.9014 49.8305 13.4745 50.1756 14.14C50.5767 14.0137 50.9935 13.9446 51.4116 13.9446C53.9447 13.9446 56.0038 16.341 56.0038 19.2844V33.4908C56.0038 36.6335 54.6141 40.1069 52.4639 42.3444C51.2657 43.5908 49.9763 44.2811 48.8211 44.2811H34.784C32.1532 44.2811 30.9719 42.3301 30.0173 40.762ZM49.1063 41.6555C49.5322 41.6555 50.5911 40.9444 51.6291 39.3698C52.7426 37.6702 53.3808 35.6359 53.3808 33.7956V19.1828C53.3808 17.9885 52.6436 16.9518 51.8036 16.9518C51.6179 16.9527 51.4353 16.9997 51.2722 17.0886V22.1991H51.267C51.2071 23.0561 50.5194 23.7203 49.6898 23.7242C48.8576 23.7242 48.166 23.047 48.11 22.2005H48.1074V17.7645L48.0123 16.5194C47.9303 15.4098 47.2205 14.5047 46.4273 14.5047C46.0757 14.5047 45.7149 14.7 45.4297 15.0256V20.5529C45.4271 21.4568 44.7186 22.1874 43.8434 22.19C42.9708 22.1861 42.2636 21.4555 42.261 20.5529V15.6898L42.1425 15.122C41.9471 14.1765 41.2907 13.4654 40.6226 13.4654C40.1668 13.4654 39.7109 13.7883 39.4023 14.3132L39.3515 19.7962V21.8579C39.3515 22.6576 38.7172 23.3153 37.9436 23.3153H37.6011C36.8236 23.3153 36.1919 22.6576 36.1919 21.8579V5.40099L36.1828 4.82013C36.1828 3.58937 35.318 2.59305 34.2487 2.59305C33.1808 2.59305 32.316 3.59198 32.316 4.82013L32.385 20.8134C32.3889 20.8616 32.3902 20.9111 32.3902 20.9606V27.3058C32.3772 28.1224 31.7872 28.8061 31.0045 28.9103C30.6203 28.9569 30.2324 28.8616 29.9135 28.6425C29.5946 28.4233 29.3666 28.0953 29.2723 27.72L28.6771 25.9266C28.523 25.6845 28.3221 25.4757 28.0861 25.3125C27.8502 25.1492 27.5839 25.0347 27.3031 24.9758C27.0244 24.919 26.737 24.9195 26.4585 24.9773C26.18 25.035 25.9161 25.1489 25.683 25.3118C24.6931 25.9995 24.4314 27.3852 25.0943 28.4089L31.868 38.8189L31.8901 38.8475L31.9735 38.9752L32.0777 39.1354C32.1415 39.2396 32.2105 39.3385 32.2717 39.4154L32.316 39.4727L32.3486 39.5443C33.4035 41.2869 33.8098 41.6633 34.6108 41.6633H49.1063V41.6529V41.6555Z" fill="white"/>
<path d="M13.341 1.30273H15.9458V37.7695H13.341V1.30273ZM19.5013 38.4363L14.9195 43.0194C14.8462 43.0926 14.7469 43.1337 14.6434 43.1337C14.5398 43.1337 14.4405 43.0926 14.3673 43.0194L9.78419 38.4363C9.72961 38.3817 9.69246 38.3121 9.67741 38.2364C9.66236 38.1606 9.6701 38.0821 9.69964 38.0107C9.72919 37.9394 9.77921 37.8784 9.8434 37.8355C9.90759 37.7925 9.98307 37.7696 10.0603 37.7695H19.2252C19.3024 37.7696 19.3779 37.7925 19.4421 37.8355C19.5063 37.8784 19.5563 37.9394 19.5858 38.0107C19.6154 38.0821 19.6231 38.1606 19.6081 38.2364C19.593 38.3121 19.5559 38.3817 19.5013 38.4363Z" fill="white"/>
<path d="M6.512 44.2807H3.90723V7.81396H6.512V44.2807Z" fill="white"/>
<path d="M0.351898 7.14755L4.93369 2.56446C5.00695 2.49129 5.10625 2.4502 5.20979 2.4502C5.31333 2.4502 5.41264 2.49129 5.4859 2.56446L10.069 7.14755C10.1236 7.20227 10.1608 7.27198 10.1758 7.34785C10.1908 7.42372 10.183 7.50233 10.1533 7.57373C10.1236 7.64514 10.0734 7.70612 10.009 7.74896C9.94457 7.7918 9.86892 7.81456 9.79158 7.81437H0.628004C0.550666 7.81456 0.475012 7.7918 0.410623 7.74896C0.346234 7.70612 0.296006 7.64514 0.2663 7.57373C0.236594 7.50233 0.228748 7.42372 0.243754 7.34785C0.25876 7.27198 0.295944 7.20227 0.350596 7.14755H0.351898Z" fill="white"/>
</g>
<defs>
<clipPath id="clip0_1628_12468">
<rect width="56" height="44.2811" fill="white"/>
</clipPath>
</defs>
</svg>
