<svg xmlns="http://www.w3.org/2000/svg" width="20" height="20" viewBox="0 0 20 20" fill="none">
  <g opacity="0.7">
    <path d="M7.61858 17.9878C6.22228 17.5721 4.97941 16.8003 3.99527 15.7777C4.36241 15.3426 4.58366 14.7804 4.58366 14.1665C4.58366 12.7858 3.46437 11.6665 2.08366 11.6665C2.00014 11.6665 1.91757 11.6706 1.83615 11.6786C1.72524 11.1363 1.66699 10.5749 1.66699 9.99984C1.66699 9.12876 1.80065 8.28888 2.04857 7.49959C2.06025 7.49976 2.07194 7.49984 2.08366 7.49984C3.46437 7.49984 4.58366 6.38055 4.58366 4.99984C4.58366 4.60347 4.49141 4.22867 4.32724 3.89568C5.29095 2.99959 6.4672 2.32897 7.77203 1.96777C8.18549 2.77821 9.02812 3.33319 10.0003 3.33319C10.9725 3.33319 11.8152 2.77821 12.2286 1.96777C13.5335 2.32897 14.7097 2.99959 15.6734 3.89568C15.5092 4.22867 15.417 4.60347 15.417 4.99984C15.417 6.38055 16.5363 7.49984 17.917 7.49984C17.9287 7.49984 17.9404 7.49976 17.9521 7.49959C18.2 8.28888 18.3337 9.12876 18.3337 9.99984C18.3337 10.5749 18.2754 11.1363 18.1645 11.6786C18.0831 11.6706 18.0005 11.6665 17.917 11.6665C16.5363 11.6665 15.417 12.7858 15.417 14.1665C15.417 14.7804 15.6382 15.3426 16.0054 15.7777C15.0212 16.8003 13.7784 17.5721 12.3821 17.9878C12.0598 16.9798 11.1153 16.2498 10.0003 16.2498C8.88533 16.2498 7.94083 16.9798 7.61858 17.9878Z" stroke="#132847" style="stroke:#132847;stroke:color(display-p3 0.0745 0.1569 0.2784);stroke-opacity:1;" stroke-width="1.5"/>
    <path d="M9.99967 12.9163C11.6105 12.9163 12.9163 11.6105 12.9163 9.99967C12.9163 8.38884 11.6105 7.08301 9.99967 7.08301C8.38884 7.08301 7.08301 8.38884 7.08301 9.99967C7.08301 11.6105 8.38884 12.9163 9.99967 12.9163Z" stroke="#132847" style="stroke:#132847;stroke:color(display-p3 0.0745 0.1569 0.2784);stroke-opacity:1;" stroke-width="1.5"/>
  </g>
</svg>
