<svg width="16" height="16" viewBox="0 0 16 16" fill="none" xmlns="http://www.w3.org/2000/svg">
<g id="&#229;&#163;&#176;&#233;&#159;&#179;&#229;&#176;&#143;" opacity="0.6">
<path id="Vector" d="M7.99967 2V14C5.66634 14 3.93251 10.9464 3.93251 10.9464H1.99967C1.63148 10.9464 1.33301 10.6479 1.33301 10.2797V5.67027C1.33301 5.30207 1.63148 5.0036 1.99967 5.0036H3.93251C3.93251 5.0036 5.66634 2 7.99967 2Z" stroke="#132847" style="stroke:#132847;stroke:color(display-p3 0.0745 0.1569 0.2784);stroke-opacity:1;"/>
<path id="Vector_2" d="M10 5C10.2077 5.1855 10.396 5.39323 10.5614 5.6196C11.0462 6.28347 11.3333 7.10743 11.3333 8C11.3333 8.88483 11.0512 9.70223 10.5739 10.3631C10.4056 10.5962 10.213 10.8098 10 11" stroke="#132847" style="stroke:#132847;stroke:color(display-p3 0.0745 0.1569 0.2784);stroke-opacity:1;"/>
<path id="Vector_3" d="M11.4121 13.7284C13.3613 12.5649 14.6668 10.4348 14.6668 7.99982C14.6668 5.60265 13.4016 3.50099 11.5025 2.32617" stroke="#132847" style="stroke:#132847;stroke:color(display-p3 0.0745 0.1569 0.2784);stroke-opacity:1;"/>
</g>
</svg>
