<?xml version="1.0" encoding="UTF-8"?>
<svg width="70px" height="70px" viewBox="0 0 70 70" version="1.1" xmlns="http://www.w3.org/2000/svg" xmlns:xlink="http://www.w3.org/1999/xlink">
    <!-- Generator: Sketch 59.1 (86144) - https://sketch.com -->
    <title>温度</title>
    <desc>Created with Sketch.</desc>
    <g id="页面-1" stroke="none" stroke-width="1" fill-rule="evenodd">
        <g id="切图" transform="translate(-129.000000, -176.000000)" fill-rule="nonzero">
            <g id="黑白" transform="translate(124.000000, 176.000000)">
                <g id="温度" transform="translate(20.000000, 1.000000)">
                    <path d="M20.5,69 C9.19653541,69 0,59.9097004 0,48.7368102 C0,42.3696198 3.08808822,36.2973576 8.26113939,32.4904327 C9.3649433,31.6780234 10.9318689,31.9023859 11.7574337,32.9970577 C12.581168,34.0917296 12.3523529,35.6387451 11.2448879,36.4529638 C7.33306545,39.3316793 4.99732119,43.9238729 4.99732119,48.7350008 C4.99732119,57.1829724 11.9514689,64.0567877 20.4981695,64.0567877 C29.0448701,64.0567877 35.9990178,57.1829724 35.9990178,48.7350008 C35.9990178,43.914826 33.6577819,39.3244418 29.7386374,36.4565826 C28.6293419,35.6441732 28.3950353,34.0971577 29.216939,33.0006765 C30.0388428,31.9023859 31.6057684,31.6744047 32.7132333,32.4850046 C37.9027592,36.2810732 41,42.3551448 41,48.7350008 C41,59.9097004 31.8052951,69 20.5,69 L20.5,69 Z" id="路径"></path>
                    <path d="M31.5476088,37 C30.1919627,37 29.091624,35.905707 29.091624,34.5535118 L29.091624,12.9398809 C29.091624,10.8032335 28.2447946,8.78120916 26.7057587,7.2481243 C25.1793084,5.72757636 23.1566269,4.88939445 21.0116855,4.88939445 C16.5456047,4.88939445 12.9119697,8.5000242 12.9119697,12.9380899 L12.9119697,34.5535118 C12.9119697,35.903916 11.8134289,37 10.4559849,37 C9.10033875,37 8,35.905707 8,34.5535118 L8,12.9398809 C8,5.8045888 13.8361104,0 21.0098876,0 C24.4673245,0 27.7233923,1.34682221 30.1757813,3.79151944 C32.6425538,6.24875357 34,9.49760395 34,12.9416719 L34,34.5570938 C34.0017957,35.905707 32.9032549,37 31.5476088,37 Z" id="路径"></path>
                    <path d="M15,49 C15,51.1435732 16.1435192,53.1243426 17.9999507,54.1961468 C19.8563822,55.2679511 22.1436178,55.2679511 24.0000493,54.1961468 C25.8564808,53.1243426 27,51.1435732 27,49 C27,46.8564268 25.8564808,44.8756574 24.0000493,43.8038532 C22.1436178,42.7320489 19.8563822,42.7320489 17.9999507,43.8038532 C16.1435192,44.8756574 15,46.8564268 15,49 L15,49 Z" id="路径"></path>
                    <path d="M30.4434437,31 L19.5565563,31 C18.1453971,31 17,29.8685185 17,28.4703704 C17,27.0722222 18.1435256,25.9407407 19.5565563,25.9407407 L30.4434437,25.9407407 C31.8546029,25.9407407 33,27.0722222 33,28.4703704 C33,29.8685185 31.8546029,31 30.4434437,31 Z M30.4434437,19.0592593 L19.5565563,19.0592593 C18.1453971,19.0592593 17,17.9277778 17,16.5296296 C17,15.1333333 18.1435256,14 19.5565563,14 L30.4434437,14 C31.8546029,14 33,15.1314815 33,16.5296296 C32.9981284,17.9277778 31.8546029,19.0592593 30.4434437,19.0592593 Z" id="形状"></path>
                </g>
            </g>
        </g>
    </g>
</svg>