<?xml version="1.0" encoding="UTF-8"?>
<svg width="56px" height="64px" viewBox="0 0 56 64" version="1.1" xmlns="http://www.w3.org/2000/svg" xmlns:xlink="http://www.w3.org/1999/xlink">
    <!-- Generator: Sketch 59.1 (86144) - https://sketch.com -->
    <title>我的</title>
    <desc>Created with Sketch.</desc>
    <defs>
        <linearGradient x1="11.71875%" y1="6.80044777%" x2="86.139484%" y2="98.0740451%" id="linearGradient-1">
            <stop stop-color="#0081FF" offset="0%"></stop>
            <stop stop-color="#005BFF" offset="100%"></stop>
        </linearGradient>
    </defs>
    <g id="页面-1" stroke="none" stroke-width="1" fill="none" fill-rule="evenodd">
        <g id="5" transform="translate(-826.000000, -2212.000000)" fill="url(#linearGradient-1)">
            <g id="导航" transform="translate(78.000000, 2144.000000)">
                <g id="我的" transform="translate(748.000000, 68.000000)">
                    <path d="M27.9978113,0 C36.8441225,0 44,7.1675014 44,16 C44,24.8324986 36.8353638,32 27.9978113,32 C19.1646382,32 12,24.8324986 12,16 C11.9956226,7.1675014 19.1646382,0 27.9978113,0 Z M21.1710052,36 L34.8289948,36 C46.5223868,36 56,45.7151444 56,57.7024545 L56,59.0956754 C56,63.822341 46.5223869,64 34.8289948,64 L21.1710052,64 C9.48209851,64 0,63.9906495 0,59.0956754 L0,57.7024545 C0,45.7151444 9.47312776,36 21.1710052,36 Z" id="形状"></path>
                </g>
            </g>
        </g>
    </g>
</svg>