<?xml version="1.0" encoding="UTF-8"?>
<svg width="36px" height="55px" viewBox="0 0 36 55" version="1.1" xmlns="http://www.w3.org/2000/svg" xmlns:xlink="http://www.w3.org/1999/xlink">
    <!-- Generator: Sketch 59.1 (86144) - https://sketch.com -->
    <title>蓝牙多彩</title>
    <desc>Created with Sketch.</desc>
    <g id="页面-1" stroke="none" stroke-width="1" fill="none" fill-rule="evenodd">
        <g id="切图" transform="translate(-253.000000, -1143.000000)" fill="#FFD003" fill-rule="nonzero">
            <g id="多彩" transform="translate(30.000000, 1143.000000)">
                <path d="M244.272727,45 L244.272727,33.5454545 L251.636364,39.2727273 L244.272727,45 Z M244.272727,9.8213004 L251.636364,15.5470138 L244.272727,21.2727273 L244.272727,9.81818182 L244.272727,9.8213004 Z M245.885344,27.4121729 L257.860179,17.6647869 C258.58111,17.075731 259,16.1892807 259,15.2527114 C259,14.3161422 258.58111,13.4296919 257.860179,12.8406359 L242.923825,0.684270739 C242.004923,-0.062703222 240.743198,-0.210969965 239.67904,0.302972278 C238.614882,0.816914521 237.937045,1.90190545 237.935843,3.09324988 L237.935843,20.9345581 L227.990537,12.8406359 C226.671558,11.7675605 224.741017,11.9775841 223.678553,13.3097366 C222.61609,14.6418891 222.824036,16.5917116 224.143015,17.6647869 L236.114785,27.4090766 L224.143015,37.1533662 C222.851602,38.2339995 222.659575,40.1621141 223.712027,41.4808662 C224.764478,42.7996183 226.670765,43.0195212 227.990537,41.9744209 L237.935843,33.8804987 L237.935843,51.7218069 C237.937533,53.4311797 239.309128,54.8164743 241.001597,54.8181818 C241.700942,54.8181818 242.379345,54.5771568 242.923825,54.1338824 L257.860179,41.9775172 C258.579984,41.3884268 258.998107,40.502697 258.998107,39.5669899 C258.998107,38.6312828 258.579984,37.745553 257.860179,37.1564626 L245.885344,27.4090766 L245.885344,27.4121729 Z" id="蓝牙"></path>
            </g>
        </g>
    </g>
</svg>