<?xml version="1.0" encoding="UTF-8"?>
<svg width="36px" height="56px" viewBox="0 0 36 56" version="1.1" xmlns="http://www.w3.org/2000/svg" xmlns:xlink="http://www.w3.org/1999/xlink">
    <!-- Generator: Sketch 59.1 (86144) - https://sketch.com -->
    <title>蓝牙莫兰迪</title>
    <desc>Created with Sketch.</desc>
    <g id="页面-1" stroke="none" stroke-width="1" fill="none" fill-rule="evenodd">
        <g id="切图" transform="translate(-227.000000, -1537.000000)" fill="#B5C4D1" fill-rule="nonzero">
            <g id="莫兰迪" transform="translate(30.000000, 1523.000000)">
                <path d="M218.272727,60 L218.272727,48.5454545 L225.636364,54.2727273 L218.272727,60 Z M218.272727,24.8213004 L225.636364,30.5470138 L218.272727,36.2727273 L218.272727,24.8181818 L218.272727,24.8213004 Z M219.885344,42.4121729 L231.860179,32.6647869 C232.58111,32.075731 233,31.1892807 233,30.2527114 C233,29.3161422 232.58111,28.4296919 231.860179,27.8406359 L216.923825,15.6842707 C216.004923,14.9372968 214.743198,14.78903 213.67904,15.3029723 C212.614882,15.8169145 211.937045,16.9019055 211.935843,18.0932499 L211.935843,35.9345581 L201.990537,27.8406359 C200.671558,26.7675605 198.741017,26.9775841 197.678553,28.3097366 C196.61609,29.6418891 196.824036,31.5917116 198.143015,32.6647869 L210.114785,42.4090766 L198.143015,52.1533662 C196.851602,53.2339995 196.659575,55.1621141 197.712027,56.4808662 C198.764478,57.7996183 200.670765,58.0195212 201.990537,56.9744209 L211.935843,48.8804987 L211.935843,66.7218069 C211.937533,68.4311797 213.309128,69.8164743 215.001597,69.8181818 C215.700942,69.8181818 216.379345,69.5771568 216.923825,69.1338824 L231.860179,56.9775172 C232.579984,56.3884268 232.998107,55.502697 232.998107,54.5669899 C232.998107,53.6312828 232.579984,52.745553 231.860179,52.1564626 L219.885344,42.4090766 L219.885344,42.4121729 Z" id="蓝牙"></path>
            </g>
        </g>
    </g>
</svg>