<svg xmlns="http://www.w3.org/2000/svg" viewBox="0 0 71 79" class="design-iconfont">
  <g fill-rule="evenodd">
    <path d="M36 22A18 18 0 1 0 36 58A18 18 0 1 0 36 22Z"/>
    <rect x="34" width="6" height="14" rx="1.5"/>
    <path d="M63.2753419,16.1894458 L64.7447109,16.1845266 C65.5918146,16.1816906 66.2808269,16.8661049 66.2836629,17.7132086 C66.2836743,17.7166253 66.2836743,17.7200421 66.2836629,17.7234588 L66.2483254,28.3195882 C66.2455137,29.1626918 65.5627469,29.8454675 64.7196433,29.84829 L63.2502743,29.8532092 C62.4031706,29.8560452 61.7141583,29.171631 61.7113223,28.3245272 C61.7113109,28.3211105 61.7113109,28.3176938 61.7113223,28.3142771 L61.7466598,17.7181476 C61.7494715,16.875044 62.4322383,16.1922684 63.2753419,16.1894458 Z" transform="rotate(60 63.997493 23.018868)"/>
    <path d="M63.2502743,48.6373568 L64.7196433,48.642276 C65.5627469,48.6450986 66.2455137,49.3278742 66.2483254,50.1709778 L66.2836629,60.7671073 C66.286488,61.614211 65.6020649,62.3032144 64.7549611,62.3060395 C64.7515444,62.3060509 64.7481276,62.3060509 64.7447109,62.3060394 L63.2753419,62.3011202 C62.4322383,62.2982976 61.7494715,61.615522 61.7466598,60.7724184 L61.7113223,50.176289 C61.7084972,49.3291852 62.3929204,48.6401818 63.2400241,48.6373567 C63.2434408,48.6373453 63.2468576,48.6373454 63.2502743,48.6373568 Z" transform="rotate(120 63.997493 55.471698)"/>
    <rect transform="rotate(180 37 72)" x="34" y="65" width="6" height="14" rx="1.5"/>
    <path d="M6.62996196,48.642276 L8.09933099,48.6373568 C8.94643471,48.6345208 9.63544697,49.3189351 9.63828294,50.1660388 C9.63829438,50.1694555 9.6382944,50.1728723 9.63828301,50.176289 L9.60294546,60.7724184 C9.60013376,61.615522 8.91736696,62.2982976 8.07426339,62.3011202 L6.60489436,62.3060394 C5.75779064,62.3088754 5.06877838,61.6244611 5.06594241,60.7773574 C5.06593097,60.7739407 5.06593095,60.770524 5.06594235,60.7671072 L5.10127989,50.1709778 C5.1040916,49.3278742 5.7868584,48.6450986 6.62996196,48.642276 Z" transform="rotate(-120 7.352113 55.471698)"/>
    <path d="M6.60489436,16.1845266 L8.07426339,16.1894458 C8.91736696,16.1922684 9.60013376,16.875044 9.60294546,17.7181476 L9.63828301,28.3142771 C9.64110805,29.1613808 8.95668492,29.8503843 8.10958116,29.8532093 C8.10616445,29.8532207 8.1027477,29.8532207 8.09933099,29.8532092 L6.62996196,29.84829 C5.7868584,29.8454675 5.1040916,29.1626918 5.10127989,28.3195882 L5.06594235,17.7234588 C5.0631173,16.876355 5.74754043,16.1873516 6.59464419,16.1845265 C6.5980609,16.1845151 6.60147765,16.1845152 6.60489436,16.1845266 Z" transform="rotate(-60 7.352113 23.018868)"/>
  </g>
</svg>
