<?xml version="1.0" encoding="UTF-8"?>
<svg width="95px" height="55px" viewBox="0 0 95 55" version="1.1" xmlns="http://www.w3.org/2000/svg" xmlns:xlink="http://www.w3.org/1999/xlink">
    <!-- Generator: Sketch 59.1 (86144) - https://sketch.com -->
    <title>设置</title>
    <desc>Created with Sketch.</desc>
    <g id="页面-1" stroke="none" stroke-width="1" fill="none" fill-rule="evenodd">
        <g id="切图" transform="translate(-535.000000, -1143.000000)" fill="#1C59FE" fill-rule="nonzero">
            <g id="多彩" transform="translate(30.000000, 1143.000000)">
                <path d="M575.15067,27.5 C575.15067,24.2834821 577.170201,21.5580357 580,20.4715402 C579.324777,17.8197545 578.28125,15.3214286 576.918527,13.0256696 C574.143973,14.2594866 570.792411,13.7561384 568.521205,11.4787946 C566.25,9.20758929 565.746652,5.84988839 566.980469,3.08147321 C564.678571,1.71875 562.180246,0.675223214 559.52846,0 C558.435826,2.82979911 555.710379,4.84933036 552.5,4.84933036 C549.283482,4.84933036 546.558036,2.82979911 545.47154,0 C542.819754,0.675223214 540.321429,1.71875 538.02567,3.08147321 C539.259487,5.85602679 538.756138,9.20758929 536.484933,11.4787946 C534.213728,13.75 530.856027,14.2533482 528.087612,13.0256696 C526.71875,15.3214286 525.675223,17.8197545 525,20.4715402 C527.829799,21.5641741 529.84933,24.2896205 529.84933,27.5 C529.84933,30.7165179 527.829799,33.4419643 525,34.5284598 C525.675223,37.1802455 526.71875,39.6785714 528.081473,41.9743304 C530.856027,40.7405134 534.207589,41.2438616 536.478795,43.5212054 C538.75,45.7924107 539.253348,49.1501116 538.019531,51.9185268 C540.321429,53.28125 542.819754,54.3247768 545.47154,55 C546.564174,52.1702009 549.289621,50.1506696 552.5,50.1506696 C555.716518,50.1506696 558.441964,52.1702009 559.52846,55 C562.180246,54.3247768 564.678571,53.28125 566.97433,51.9185268 C565.740513,49.1439732 566.243862,45.7924107 568.515067,43.5212054 C570.786272,41.25 574.143973,40.7466518 576.912388,41.9743304 C578.28125,39.6785714 579.324777,37.1802455 580,34.5284598 C577.170201,33.4419643 575.15067,30.7165179 575.15067,27.5 Z M552.5,35.234375 C548.230373,35.234375 544.765625,31.7696265 544.765625,27.5 C544.765625,23.2303735 548.230373,19.765625 552.5,19.765625 C556.769627,19.765625 560.234375,23.2303735 560.234375,27.5 C560.234375,31.7696265 556.769627,35.234375 552.5,35.234375 Z" id="设置"></path>
            </g>
        </g>
    </g>
</svg>