<svg width="28" height="30" viewBox="0 0 28 30" fill="none" xmlns="http://www.w3.org/2000/svg">
<path d="M14 18.6C15.3257 18.6 16.4 17.6128 16.4 16.3958V2.20555C16.3999 0.987214 15.3257 0 14 0C12.6743 0 11.6 0.987214 11.6 2.20555V16.3957C11.6 17.6128 12.6742 18.6 14 18.6Z" fill="#060606"/>
<path d="M23.1847 6.58138C22.2594 5.77865 20.839 5.8565 20.0129 6.75676C19.187 7.65606 19.268 9.03609 20.1938 9.83882C22.1082 11.5036 23.3059 13.8996 23.3067 16.5881C23.298 21.5831 19.1394 25.6248 14.0001 25.6329C8.86103 25.6248 4.70183 21.5831 4.69368 16.5881C4.69434 13.887 5.90328 11.4823 7.83295 9.8168C8.762 9.0177 8.84737 7.63719 8.02502 6.73559C7.20183 5.83299 5.78281 5.74945 4.85441 6.54918L4.85375 6.54803C2.00566 8.9976 0.199209 12.5976 0.200012 16.5881C0.201328 23.9963 6.37805 29.9989 14.0002 30C21.6221 29.9989 27.7989 23.9963 27.8 16.5881C27.8008 12.6148 26.0114 9.02887 23.1847 6.58138Z" fill="#060606"/>
<path d="M14 18.6C15.3257 18.6 16.4 17.6128 16.4 16.3958V2.20555C16.3999 0.987214 15.3257 0 14 0C12.6743 0 11.6 0.987214 11.6 2.20555V16.3957C11.6 17.6128 12.6742 18.6 14 18.6Z" fill="#060606"/>
<path d="M23.1847 6.58138C22.2594 5.77865 20.839 5.8565 20.0129 6.75676C19.187 7.65606 19.268 9.03609 20.1938 9.83882C22.1082 11.5036 23.3059 13.8996 23.3067 16.5881C23.298 21.5831 19.1394 25.6248 14.0001 25.6329C8.86103 25.6248 4.70183 21.5831 4.69368 16.5881C4.69434 13.887 5.90328 11.4823 7.83295 9.8168C8.762 9.0177 8.84737 7.63719 8.02502 6.73559C7.20183 5.83299 5.78281 5.74945 4.85441 6.54918L4.85375 6.54803C2.00566 8.9976 0.199209 12.5976 0.200012 16.5881C0.201328 23.9963 6.37805 29.9989 14.0002 30C21.6221 29.9989 27.7989 23.9963 27.8 16.5881C27.8008 12.6148 26.0114 9.02887 23.1847 6.58138Z" fill="#060606"/>
</svg>
