<svg width="24" height="21" viewBox="0 0 24 21" fill="none" xmlns="http://www.w3.org/2000/svg">
<path fill-rule="evenodd" clip-rule="evenodd" d="M13.3452 1.08393C13.1773 0.456533 12.6089 0.0202112 11.9594 0.0200195C11.1668 0.0200195 10.5244 0.662416 10.5244 1.45504V1.49099C10.5368 1.99089 10.8084 2.44833 11.2415 2.69836V4.80343H1.43502C0.642396 4.80343 0 5.44583 0 6.23845V8.39145C0 9.18407 0.642396 9.82647 1.43502 9.82647H3.59631C3.62273 9.9366 3.66105 10.0435 3.7106 10.1454L4.42396 11.62C5.52075 13.8874 7.81765 15.3279 10.3364 15.3279H13.5806C16.0991 15.3275 18.3955 13.8871 19.4922 11.62L20.2065 10.1454C20.2553 10.0431 20.294 9.93707 20.3198 9.82647H22.482C23.2747 9.82647 23.9171 9.18407 23.9171 8.39145V6.23845C23.9171 5.44675 23.2747 4.80343 22.482 4.80343H12.6756V2.69836C13.2386 2.3739 13.5133 1.71162 13.3452 1.08393ZM13.0424 17.5168C13.0424 16.879 12.7235 16.5601 12.0857 16.5601C11.4479 16.5601 11.129 16.879 11.129 17.5168V19.4302C11.129 20.0679 11.4479 20.3868 12.0857 20.3868C12.7235 20.3868 13.0424 20.0679 13.0424 19.4302V17.5168ZM4.84977 15.3481C5.40276 15.667 5.51889 16.103 5.2 16.655L4.24332 18.3122C3.92442 18.8652 3.4894 18.9813 2.93641 18.6624C2.38433 18.3435 2.26728 17.9076 2.58617 17.3555L3.54286 15.6984C3.86175 15.1454 4.29862 15.0292 4.84977 15.3481ZM20.635 15.6984C20.3161 15.1454 19.8811 15.0292 19.3281 15.3481C18.7751 15.667 18.659 16.102 18.9779 16.655L19.9346 18.3122C20.2535 18.8652 20.6885 18.9813 21.2415 18.6624C21.7945 18.3435 21.9106 17.9085 21.5917 17.3555L20.635 15.6984Z" fill="white" fill-opacity="0.5"/>
</svg>
