<?xml version="1.0" encoding="UTF-8"?>
<svg width="51px" height="77px" viewBox="0 0 51 77" version="1.1" xmlns="http://www.w3.org/2000/svg" xmlns:xlink="http://www.w3.org/1999/xlink">
    <title>5-1-蓝牙-未选中</title>
    <g id="页面-1" stroke="none" stroke-width="1" fill="none" fill-rule="evenodd">
        <g id="切图" transform="translate(-44.000000, -1956.000000)" fill="#C2C5CB" fill-rule="nonzero">
            <g id="编组" transform="translate(41.000000, 103.000000)">
                <path d="M34,1916 L34,1900 L44,1908 L34,1916 Z M34,1867.00436 L44,1875.00218 L34,1883 L34,1867 L34,1867.00436 Z M35.4209034,1891.50433 L52.385254,1877.81273 C53.4065724,1876.98531 54,1875.74017 54,1874.42462 C54,1873.10908 53.4065724,1871.86393 52.385254,1871.03652 L31.2254189,1853.96116 C29.9236404,1852.91192 28.1361968,1852.70366 26.6286395,1853.42557 C25.1210822,1854.14747 24.1608136,1855.6715 24.1591111,1857.34491 L24.1591111,1882.40559 L10.069927,1871.03652 C8.20137361,1869.52923 5.46644104,1869.82424 3.96128412,1871.69543 C2.45612719,1873.56663 2.75071822,1876.30544 4.6192716,1877.81273 L21.579279,1891.49998 L4.6192716,1905.18723 C2.78976899,1906.70514 2.51773119,1909.41345 4.00870437,1911.26583 C5.49967754,1913.1182 8.20025101,1913.42709 10.069927,1911.9591 L24.1591111,1900.59002 L24.1591111,1925.6507 C24.1615052,1928.05176 26.1045987,1929.9976 28.5022628,1930 C29.4930015,1930 30.4540723,1929.66145 31.2254189,1929.0388 L52.385254,1911.96344 C53.4049774,1911.13598 53.9973179,1909.89185 53.9973179,1908.57751 C53.9973179,1907.26318 53.4049774,1906.01904 52.385254,1905.19158 L35.4209034,1891.49998 L35.4209034,1891.50433 Z" id="蓝牙"></path>
            </g>
        </g>
    </g>
</svg>