<?xml version="1.0" encoding="UTF-8"?>
<svg width="51px" height="77px" viewBox="0 0 51 77" version="1.1" xmlns="http://www.w3.org/2000/svg" xmlns:xlink="http://www.w3.org/1999/xlink">
    <title>5-1-蓝牙-选中</title>
    <g id="页面-1" stroke="none" stroke-width="1" fill="none" fill-rule="evenodd">
        <g id="切图" transform="translate(-578.000000, -1962.000000)" fill="#FFA802" fill-rule="nonzero">
            <g id="编组" transform="translate(41.000000, 103.000000)">
                <path d="M568,1922 L568,1906 L578,1914 L568,1922 Z M568,1873.00436 L578,1881.00218 L568,1889 L568,1873 L568,1873.00436 Z M569.420903,1897.50433 L586.385254,1883.81273 C587.406572,1882.98531 588,1881.74017 588,1880.42462 C588,1879.10908 587.406572,1877.86393 586.385254,1877.03652 L565.225419,1859.96116 C563.92364,1858.91192 562.136197,1858.70366 560.62864,1859.42557 C559.121082,1860.14747 558.160814,1861.6715 558.159111,1863.34491 L558.159111,1888.40559 L544.069927,1877.03652 C542.201374,1875.52923 539.466441,1875.82424 537.961284,1877.69543 C536.456127,1879.56663 536.750718,1882.30544 538.619272,1883.81273 L555.579279,1897.49998 L538.619272,1911.18723 C536.789769,1912.70514 536.517731,1915.41345 538.008704,1917.26583 C539.499678,1919.1182 542.200251,1919.42709 544.069927,1917.9591 L558.159111,1906.59002 L558.159111,1931.6507 C558.161505,1934.05176 560.104599,1935.9976 562.502263,1936 C563.493002,1936 564.454072,1935.66145 565.225419,1935.0388 L586.385254,1917.96344 C587.404977,1917.13598 587.997318,1915.89185 587.997318,1914.57751 C587.997318,1913.26318 587.404977,1912.01904 586.385254,1911.19158 L569.420903,1897.49998 L569.420903,1897.50433 Z" id="蓝牙"></path>
            </g>
        </g>
    </g>
</svg>