<?xml version="1.0" encoding="UTF-8"?>
<svg width="97px" height="70px" viewBox="0 0 97 70" version="1.1" xmlns="http://www.w3.org/2000/svg" xmlns:xlink="http://www.w3.org/1999/xlink">
    <title>5-1-静音-未选中</title>
    <g id="页面-1" stroke="none" stroke-width="1" fill="none" fill-rule="evenodd">
        <g id="切图" transform="translate(-264.000000, -1969.000000)" fill="#C2C5CB" fill-rule="nonzero">
            <g id="编组" transform="translate(41.000000, 103.000000)">
                <g id="静音" transform="translate(223.000000, 1866.000000)">
                    <path d="M67.5697803,31.7173416 C73.7482916,31.7173416 79.0740643,35.4740085 81.3779962,40.7791267 L90,40.7791267 C87.4181297,30.8955707 78.3360492,23.5923753 67.5922519,23.5923753 L50.5102765,23.5923753 C36.032643,22.8609992 16.7366222,18.4445676 2.76637405,0.618008866 C1.86632675,-0.526600601 0,-0.0229724357 0,1.64757041 L0,53.362787 C0,55.0333299 1.75160324,55.5134789 2.67412216,54.3923486 C17.3823854,35.9036773 37.7842462,32.0589635 52.4002576,31.7349509 L67.5697803,31.7173416 Z" id="路径"></path>
                    <path d="M96.2403729,41.0733961 C94.665204,42.1087488 92.2222283,43.3155099 90.1903189,43.3155099 L34.4914095,43.3155099 C27.0723054,43.3155099 21,49.2584344 21,56.5680244 L21,56.7474855 C21,64.0352181 27.0488828,70 34.4914095,70 L66.7923267,70 C77.4296941,70 86.4239671,62.8238554 88.9805424,53.1605636 L80.4652612,53.1605636 C78.1341505,58.5469746 72.7507602,62.0427595 66.7923267,62.0392882 L34.4914095,62.0392882 C31.5182828,62.0342223 29.109372,59.6679665 29.1042147,56.7474855 L29.1042147,56.5680244 C29.109372,53.6475434 31.5182828,51.2812876 34.4914095,51.2762217 L90.6470594,51.2762217 C92.5876206,51.4108176 94.8022261,52.5324497 96.26848,53.4964781 C96.4119882,53.5917615 96.5973105,53.6014806 96.7503311,53.5217483 C96.9033517,53.442016 96.9990928,53.2858472 97,53.1156984 L97,41.5047931 C97.0093324,41.3246319 96.915387,41.1542228 96.7562858,41.0640496 C96.5971847,40.9738765 96.3999761,40.9792694 96.2462285,41.0779977 L96.2403729,41.0733961 Z" id="路径"></path>
                </g>
            </g>
        </g>
    </g>
</svg>