<svg width="262" height="262" viewBox="0 0 262 262" fill="none" xmlns="http://www.w3.org/2000/svg">
<circle cx="131" cy="131" r="130" fill="white" stroke="#A47146" stroke-opacity="0.29835"/>
<g filter="url(#filter0_d_2_2)">
<circle cx="131" cy="131" r="106" fill="url(#paint0_radial_2_2)"/>
<circle cx="131" cy="131" r="109.354" stroke="url(#paint1_linear_2_2)" stroke-width="6.70886"/>
</g>
<g filter="url(#filter1_i_2_2)">
<circle cx="131" cy="131" r="81.8481" fill="#1C1D1C"/>
</g>
<circle cx="131" cy="131" r="61.7215" fill="url(#paint2_radial_2_2)"/>
<path d="M149.841 98.4461L149.469 98.349C149.988 100.885 149.83 103.488 148.99 106.159C147.732 110.154 146.96 110.154 145.624 114.501C145.348 114.116 143.578 111.388 145.089 106.154C146.25 100.097 143.263 94.0137 139.114 87.7722C135.095 81.7159 129.165 77.1493 123.574 76H123.297L123.393 76.2834C125.214 85.5256 120.034 90.3413 113.924 95.718C107.814 101.1 101.135 107.297 100.114 119.352C98.8003 135.209 109.155 146.363 115.412 151.508C115.784 151.791 116.162 151.887 116.578 151.887C117.233 151.887 117.741 151.605 118.118 151.124C118.467 150.601 118.504 149.927 118.213 149.369C113.27 136.408 123.393 128.067 126.613 125.786C123.952 141.565 137.018 153.97 139.931 152.94C151.903 148.735 159.636 140.24 161.553 128.787C163.6 116.505 158.425 102.923 149.841 98.4461V98.4461Z" fill="#353535"/>
<mask id="mask0_2_2" style="mask-type:alpha" maskUnits="userSpaceOnUse" x="24" y="25" width="212" height="212">
<circle cx="130" cy="131" r="106" fill="white"/>
</mask>
<g mask="url(#mask0_2_2)">
<ellipse cx="68.2785" cy="40.4304" rx="139.544" ry="117.405" transform="rotate(-27 68.2785 40.4304)" fill="url(#paint3_radial_2_2)" style="mix-blend-mode:screen"/>
</g>
<defs>
<filter id="filter0_d_2_2" x="2.29114" y="2.29114" width="257.418" height="257.418" filterUnits="userSpaceOnUse" color-interpolation-filters="sRGB">
<feFlood flood-opacity="0" result="BackgroundImageFix"/>
<feColorMatrix in="SourceAlpha" type="matrix" values="0 0 0 0 0 0 0 0 0 0 0 0 0 0 0 0 0 0 127 0" result="hardAlpha"/>
<feMorphology radius="3" operator="dilate" in="SourceAlpha" result="effect1_dropShadow_2_2"/>
<feOffset/>
<feGaussianBlur stdDeviation="6.5"/>
<feColorMatrix type="matrix" values="0 0 0 0 0.917875 0 0 0 0 0.928587 0 0 0 0 0.944548 0 0 0 1 0"/>
<feBlend mode="normal" in2="BackgroundImageFix" result="effect1_dropShadow_2_2"/>
<feBlend mode="normal" in="SourceGraphic" in2="effect1_dropShadow_2_2" result="shape"/>
</filter>
<filter id="filter1_i_2_2" x="49.1519" y="49.1519" width="163.696" height="163.696" filterUnits="userSpaceOnUse" color-interpolation-filters="sRGB">
<feFlood flood-opacity="0" result="BackgroundImageFix"/>
<feBlend mode="normal" in="SourceGraphic" in2="BackgroundImageFix" result="shape"/>
<feColorMatrix in="SourceAlpha" type="matrix" values="0 0 0 0 0 0 0 0 0 0 0 0 0 0 0 0 0 0 127 0" result="hardAlpha"/>
<feOffset/>
<feGaussianBlur stdDeviation="2"/>
<feComposite in2="hardAlpha" operator="arithmetic" k2="-1" k3="1"/>
<feColorMatrix type="matrix" values="0 0 0 0 0 0 0 0 0 0 0 0 0 0 0 0 0 0 1 0"/>
<feBlend mode="normal" in2="shape" result="effect1_innerShadow_2_2"/>
</filter>
<radialGradient id="paint0_radial_2_2" cx="0" cy="0" r="1" gradientUnits="userSpaceOnUse" gradientTransform="translate(131 131) rotate(90) scale(106 106.294)">
<stop/>
<stop offset="1" stop-color="#1E1E1E"/>
</radialGradient>
<linearGradient id="paint1_linear_2_2" x1="-14.087" y1="78.6604" x2="76.1472" y2="278.176" gradientUnits="userSpaceOnUse">
<stop stop-color="#FBD8A8"/>
<stop offset="1" stop-color="#A47146"/>
</linearGradient>
<radialGradient id="paint2_radial_2_2" cx="0" cy="0" r="1" gradientUnits="userSpaceOnUse" gradientTransform="translate(130.906 132.64) rotate(90) scale(60.081)">
<stop/>
<stop offset="1" stop-color="#080906"/>
</radialGradient>
<radialGradient id="paint3_radial_2_2" cx="0" cy="0" r="1" gradientUnits="userSpaceOnUse" gradientTransform="translate(68.3376 42.043) rotate(89.1595) scale(81.3907 130.608)">
<stop stop-color="white" stop-opacity="0.236014"/>
<stop offset="0.456184" stop-color="white" stop-opacity="0.173978"/>
<stop offset="1" stop-color="white" stop-opacity="0.01"/>
<stop offset="1" stop-color="white" stop-opacity="0.01"/>
</radialGradient>
</defs>
</svg>
