<?xml version="1.0" encoding="UTF-8"?>
<svg width="23px" height="3px" viewBox="0 0 23 3" version="1.1" xmlns="http://www.w3.org/2000/svg" xmlns:xlink="http://www.w3.org/1999/xlink">
    <title>Shape Copy 6</title>
    <g id="首页" stroke="none" stroke-width="1" fill="none" fill-rule="evenodd">
        <g id="1.3-首页-设备快捷入口备份" transform="translate(-76.000000, -1292.000000)">
            <rect fill="#F5F5F5" x="0" y="0" width="750" height="1624"></rect>
            <rect id="Rectangle-15" fill="#000000" fill-rule="nonzero" opacity="0.600000024" x="0" y="0" width="750" height="1624"></rect>
            <g id="模态对话框/换行-copy-3" transform="translate(0.000000, 1048.000000)">
                <g id="编组-9" transform="translate(0.000000, 96.000000)">
                    <rect id="Rectangle-" fill="#FFFFFF" x="0" y="0" width="750" height="368"></rect>
                    <g>
                        <rect id="Rectangle-" fill="#FFFFFF" x="0" y="0" width="750" height="300"></rect>
                        <g id="编组-8" transform="translate(76.000000, 65.000000)" fill="#6C7078">
                            <g id="编组-6" transform="translate(0.000000, 55.000000)">
                                <g id="编组-5" transform="translate(0.000000, 28.000000)">
                                    <path d="M21.5,0 L12.8529412,0 L10.1470588,0 L1.5,0 C0.671572875,1.52179594e-16 -1.01453063e-16,0.671572875 0,1.5 C1.01453063e-16,2.32842712 0.671572875,3 1.5,3 L10.1470588,3 L12.8529412,3 L21.5,3 C22.3284271,3 23,2.32842712 23,1.5 C23,0.671572875 22.3284271,-1.49751999e-15 21.5,0 Z" id="Shape-Copy-6"></path>
                                </g>
                            </g>
                        </g>
                    </g>
                </g>
            </g>
        </g>
    </g>
</svg>