<?xml version="1.0" encoding="UTF-8"?>
<svg width="78px" height="78px" viewBox="0 0 78 78" version="1.1" xmlns="http://www.w3.org/2000/svg" xmlns:xlink="http://www.w3.org/1999/xlink">
    <!-- Generator: Sketch 59.1 (86144) - https://sketch.com -->
    <title>定时器2</title>
    <desc>Created with Sketch.</desc>
    <defs>
        <path d="M72.5491181,42.0034951 C72.5491181,61.3298318 57.0788772,77 37.9809896,77 C18.883102,77 3.44973794,61.3289569 3.44973794,42.0034951 C3.44973794,22.6780333 18.883102,7.00699018 37.9809896,7.00699018 C57.0788772,7.00699018 72.5499757,22.6771584 72.5491181,42.0034951 L72.5491181,42.0034951 Z M37.5931505,23.0053924 C35.6444052,23.0053924 34.064635,24.5851626 34.064635,26.533908 L34.064635,46.3102804 L34.064635,46.3102804 L34.050892,46.3335259 L51.1566895,56.2319913 C52.8423314,57.2074073 54.999545,56.6316554 55.974961,54.9460135 C55.9762127,54.9438504 55.9774621,54.941686 55.9787092,54.9395202 C56.9532244,53.2471447 56.3738173,51.0852956 54.6835554,50.1071192 L41.1216661,42.2586788 L41.1216661,42.2586788 L41.1216661,26.533908 C41.1216661,24.5851626 39.5418959,23.0053924 37.5931505,23.0053924 Z M20.858058,1.57871583 C22.2488693,3.3792275 21.9315549,5.96370705 20.1464947,7.37429503 L6.59830134,18.0803311 C4.83848191,19.4709734 2.2845281,19.1716962 0.89388583,17.4118768 C0.884627061,17.40016 0.875432988,17.3883923 0.866304029,17.3765742 C-0.524507251,15.5760625 -0.207192835,12.991583 1.57786734,11.580995 L15.1260607,0.874958904 C16.8858801,-0.515683362 19.4398339,-0.216406142 20.8304762,1.54341329 C20.839735,1.55513 20.8489291,1.5668977 20.858058,1.57871583 Z M56.1419864,1.57871583 C54.7511752,3.3792275 55.0684896,5.96370705 56.8535498,7.37429503 L70.4017431,18.0803311 C72.1615625,19.4709734 74.7155164,19.1716962 76.1061586,17.4118768 C76.1154174,17.40016 76.1246115,17.3883923 76.1337404,17.3765742 C77.5245517,15.5760625 77.2072373,12.991583 75.4221771,11.580995 L61.8739838,0.874958905 C60.1141643,-0.515683362 57.5602105,-0.216406142 56.1695682,1.54341329 C56.1603095,1.55513 56.1511154,1.5668977 56.1419864,1.57871583 Z" id="path-1"></path>
        <filter x="-198.7%" y="-190.9%" width="497.4%" height="497.4%" filterUnits="objectBoundingBox" id="filter-2">
            <feOffset dx="0" dy="6" in="SourceAlpha" result="shadowOffsetOuter1"></feOffset>
            <feGaussianBlur stdDeviation="50" in="shadowOffsetOuter1" result="shadowBlurOuter1"></feGaussianBlur>
            <feColorMatrix values="0 0 0 0 0.125490196   0 0 0 0 0.127812629   0 0 0 0 0.129411765  0 0 0 0.1 0" type="matrix" in="shadowBlurOuter1"></feColorMatrix>
        </filter>
    </defs>
    <g id="页面-1" stroke="none" stroke-width="1" fill="none" fill-rule="evenodd">
        <g id="1备份" transform="translate(-586.000000, -56.000000)">
            <g id="编组" transform="translate(153.000000, 56.000000)">
                <g id="莫兰迪">
                    <g id="定时器2" transform="translate(433.000000, 1.000000)">
                        <g id="形状">
                            <use fill="black" fill-opacity="1" filter="url(#filter-2)" xlink:href="#path-1"></use>
                            <use fill="#B4C3D0" fill-rule="evenodd" xlink:href="#path-1"></use>
                        </g>
                    </g>
                </g>
            </g>
        </g>
    </g>
</svg>