<?xml version="1.0" encoding="UTF-8"?>
<svg width="55px" height="68px" viewBox="0 0 55 68" version="1.1" xmlns="http://www.w3.org/2000/svg" xmlns:xlink="http://www.w3.org/1999/xlink">
    <title>色温</title>
    <g id="页面-1" stroke="none" stroke-width="1" fill="none" fill-rule="evenodd">
        <g id="3" transform="translate(-507.000000, -1412.000000)" fill="#FFFFFF" fill-rule="nonzero">
            <g id="编组-10" transform="translate(148.000000, 1179.000000)">
                <g id="编组-8备份" transform="translate(0.000000, 233.000000)">
                    <g id="编组-7">
                        <g id="编组-3" transform="translate(359.000000, 0.000000)">
                            <g id="色温">
                                <path d="M18.7461964,6.0105296e-07 C21.2326765,-0.000891622919 23.6176207,0.991584355 25.3761416,2.75900132 C27.1346625,4.52641828 28.122642,6.92392902 28.1226418,9.42388043 L28.1226418,32.1421606 C35.47146,36.4070826 39.0545927,45.1031881 36.8585033,53.3437123 C34.6624138,61.5842366 27.2347773,67.3141044 18.749544,67.3134268 C13.7771996,67.3161033 9.00764629,65.331793 5.49103952,61.7973966 C1.97443276,58.2630001 -0.000888227163,53.4683155 3.64619588e-07,48.4690314 C-0.0013185507,41.7330331 3.5716779,35.5079965 9.37309855,32.138795 L9.37309855,9.42388043 C9.37309855,6.92451226 10.3606185,4.5275117 12.1184154,2.76019152 C13.8762122,0.992871342 16.2602963,6.0105296e-07 18.7461964,6.0105296e-07 Z M55,27.9182434 C55,29.2194096 53.9451964,30.2742132 52.6440302,30.2742132 L40.618295,30.2742132 C39.3171289,30.2742132 38.2623253,29.2194096 38.2623253,27.9182434 C38.2623253,26.6170772 39.3171289,25.5622736 40.618295,25.5622736 L52.6440302,25.5622736 C53.9451964,25.5622736 55,26.6170772 55,27.9182434 Z M18.7461964,4.71530647 C17.5032464,4.71530647 16.3112043,5.21174155 15.4323059,6.09540165 C14.5534075,6.97906175 14.0596475,8.17756204 14.0596475,9.42724613 L14.0596475,23.9231917 C15.2480225,25.0439602 16.4196597,25.3199453 17.5678641,24.7444155 C19.3587953,23.8457813 21.8326236,22.2538189 23.4293979,22.0821696 L23.4293979,9.42724613 C23.4293979,8.17756203 22.9356379,6.97906173 22.0567395,6.09540162 C21.177841,5.21174152 19.985799,4.71530647 18.7428489,4.71530647 L18.7461964,4.71530647 Z M54.993305,17.4375434 C54.993305,18.7387096 53.9385014,19.7935132 52.6373352,19.7935132 L40.6115999,19.7935132 C39.3104337,19.7935132 38.2556301,18.7387096 38.2556301,17.4375434 C38.2556301,16.1363773 39.3104337,15.0815736 40.6115999,15.0815736 L52.6373352,15.0815736 C53.9385014,15.0815736 54.993305,16.1363773 54.993305,17.4375434 Z M52.6373352,9.31281328 L40.6115999,9.31281328 C39.3104337,9.31281328 38.2556301,8.25800968 38.2556301,6.9568435 C38.2556301,5.65567731 39.3104337,4.60087371 40.6115999,4.60087371 L52.6373352,4.60087371 C53.9385014,4.60087371 54.993305,5.65567731 54.993305,6.9568435 C54.993305,8.25800968 53.9385014,9.31281328 52.6373352,9.31281328 Z" id="形状"></path>
                            </g>
                        </g>
                    </g>
                </g>
            </g>
        </g>
    </g>
</svg>