<?xml version="1.0" encoding="UTF-8"?>
<svg width="78px" height="78px" viewBox="0 0 78 78" version="1.1" xmlns="http://www.w3.org/2000/svg" xmlns:xlink="http://www.w3.org/1999/xlink">
    <!-- Generator: Sketch 59.1 (86144) - https://sketch.com -->
    <title>定时器</title>
    <desc>Created with Sketch.</desc>
    <defs>
        <linearGradient x1="50%" y1="0%" x2="50%" y2="86.165508%" id="linearGradient-1">
            <stop stop-color="#576273" offset="0%"></stop>
            <stop stop-color="#414B5B" offset="100%"></stop>
        </linearGradient>
        <path d="M73.5619512,42.5376264 C73.5619512,62.1131332 58.0858796,77.9853334 38.980794,77.9853334 C19.8757084,77.9853334 4.43652752,62.1122471 4.43652752,42.5376264 C4.43652752,22.9630058 19.8757084,7.08991944 38.980794,7.08991944 C58.0858796,7.08991944 73.5628091,22.9621196 73.5619512,42.5376264 L73.5619512,42.5376264 Z M38.5928088,23.2945855 C36.643329,23.2945855 35.0629633,24.8749511 35.0629633,26.8244309 L35.0629633,46.8999382 L35.0629633,46.8999382 L35.0492151,46.9234833 L52.1423745,56.9383854 C53.8209987,57.9218933 55.979083,57.3583902 56.9625909,55.679766 C56.970244,55.6667039 56.9778129,55.6535925 56.9852969,55.6404328 C57.9632306,53.9208728 57.3773419,51.7346344 55.6705714,50.7345466 L42.1226542,42.7961002 L42.1226542,42.7961002 L42.1226542,26.8244309 C42.1226542,24.8749511 40.5422886,23.2945855 38.5928088,23.2945855 Z M21.8512762,1.59176944 C23.2474396,3.42182292 22.9270625,6.03180259 21.1297366,7.46985264 L7.59599104,18.298275 C5.85137663,19.6941504 3.30550665,19.4114415 1.9096313,17.6668271 C1.89017502,17.64251 1.87100018,17.617969 1.85211061,17.593209 C0.455947145,15.7631555 0.776324286,13.1531759 2.57365014,11.7151258 L16.1073957,0.886703414 C17.8520102,-0.509171935 20.3978801,-0.226463061 21.7937555,1.51815136 C21.8132118,1.5424685 21.8323866,1.5670095 21.8512762,1.59176944 Z M57.1487238,1.59176944 C55.7525604,3.42182292 56.0729375,6.03180259 57.8702634,7.46985264 L71.404009,18.298275 C73.1486234,19.6941504 75.6944933,19.4114415 77.0903687,17.6668271 C77.109825,17.64251 77.1289998,17.617969 77.1478894,17.593209 C78.5440529,15.7631555 78.2236757,13.1531759 76.4263499,11.7151258 L62.8926043,0.886703414 C61.1479898,-0.509171935 58.6021199,-0.226463061 57.2062445,1.51815136 C57.1867882,1.5424685 57.1676134,1.5670095 57.1487238,1.59176944 Z" id="path-2"></path>
        <filter x="-198.6%" y="-188.5%" width="497.2%" height="492.4%" filterUnits="objectBoundingBox" id="filter-3">
            <feOffset dx="0" dy="6" in="SourceAlpha" result="shadowOffsetOuter1"></feOffset>
            <feGaussianBlur stdDeviation="50" in="shadowOffsetOuter1" result="shadowBlurOuter1"></feGaussianBlur>
            <feColorMatrix values="0 0 0 0 0.125490196   0 0 0 0 0.127812629   0 0 0 0 0.129411765  0 0 0 0.1 0" type="matrix" in="shadowBlurOuter1"></feColorMatrix>
        </filter>
    </defs>
    <g id="页面-1" stroke="none" stroke-width="1" fill="none" fill-rule="evenodd">
        <g id="1备份" transform="translate(-288.000000, -56.000000)">
            <g id="编组" transform="translate(153.000000, 56.000000)">
                <g id="莫兰迪">
                    <g id="定时器" transform="translate(134.000000, 0.000000)">
                        <g id="形状">
                            <g>
                                <use fill="black" fill-opacity="1" filter="url(#filter-3)" xlink:href="#path-2"></use>
                                <use fill="url(#linearGradient-1)" fill-rule="evenodd" xlink:href="#path-2"></use>
                            </g>
                        </g>
                    </g>
                </g>
            </g>
        </g>
    </g>
</svg>