<?xml version="1.0" encoding="UTF-8"?>
<svg width="77px" height="77px" viewBox="0 0 77 77" version="1.1" xmlns="http://www.w3.org/2000/svg" xmlns:xlink="http://www.w3.org/1999/xlink">
    <!-- Generator: Sketch 59.1 (86144) - https://sketch.com -->
    <title>electricity</title>
    <desc>Created with Sketch.</desc>
    <g id="页面-1" stroke="none" stroke-width="1" fill-rule="evenodd">
        <g id="1备份" transform="translate(-548.000000, -303.000000)">
            <g id="黑白" transform="translate(113.000000, 302.000000)">
                <g id="档位开关" transform="translate(435.000000, 1.000000)">
                    <path d="M38.5,0 C59.7629629,0 77,17.2370371 77,38.5 C77,59.7629629 59.7629629,77 38.5,77 C17.2370371,77 0,59.7629629 0,38.5 C0,17.2370371 17.2370371,0 38.5,0 Z M46.3203988,18.8995931 C45.9609766,18.4802673 45.3296766,18.4317057 44.9103508,18.7911279 L44.9103508,18.7911279 L21.052466,39.2407434 C20.8308201,39.4307256 20.7032574,39.7080751 20.7032574,40 C20.7032574,40.5522847 21.1509727,41 21.7032574,41 L21.7032574,41 L35.3932574,40.9993664 L31.5516045,60.2380555 C31.4926303,60.5333455 31.5698591,60.8394893 31.7618444,61.0714716 C32.1139633,61.4969486 32.7443294,61.5564171 33.1698064,61.2042982 L33.1698064,61.2042982 L57.8607735,40.7703943 C58.0903279,40.5804183 58.2232058,40.29797 58.2232058,40 C58.2232058,39.4477153 57.7754906,39 57.2232058,39 L57.2232058,39 L43.3322574,38.9993664 L46.5475361,19.7147835 C46.5961951,19.4228294 46.5130208,19.1243188 46.3203988,18.8995931 Z" id="electricity"></path>
                </g>
            </g>
        </g>
    </g>
</svg>