<?xml version="1.0" encoding="UTF-8"?>
<svg width="77px" height="77px" viewBox="0 0 77 77" version="1.1" xmlns="http://www.w3.org/2000/svg" xmlns:xlink="http://www.w3.org/1999/xlink">
    <title>编组 2</title>
    <g id="页面-1" stroke="none" stroke-width="1" fill="none" fill-rule="evenodd">
        <g id="1" transform="translate(-524.000000, -1676.000000)">
            <g id="编组-4" transform="translate(78.000000, 1591.000000)">
                <g id="档位开关" transform="translate(337.000000, 0.000000)">
                    <g id="编组-2" transform="translate(109.000000, 85.000000)">
                        <circle id="椭圆形" fill="#000000" cx="38.5" cy="38.5" r="38.5"></circle>
                        <path d="M46.3203988,18.8995931 C46.5130208,19.1243188 46.5961951,19.4228294 46.5475361,19.7147835 L43.3322574,38.9993664 L57.2232058,39 C57.7754906,39 58.2232058,39.4477153 58.2232058,40 C58.2232058,40.29797 58.0903279,40.5804183 57.8607735,40.7703943 L33.1698064,61.2042982 C32.7443294,61.5564171 32.1139633,61.4969486 31.7618444,61.0714716 C31.5698591,60.8394893 31.4926303,60.5333455 31.5516045,60.2380555 L35.3932574,40.9993664 L21.7032574,41 C21.1509727,41 20.7032574,40.5522847 20.7032574,40 C20.7032574,39.7080751 20.8308201,39.4307256 21.052466,39.2407434 L44.9103508,18.7911279 C45.3296766,18.4317057 45.9609766,18.4802673 46.3203988,18.8995931 Z" id="形状结合" fill="#FFFFFF"></path>
                    </g>
                </g>
            </g>
        </g>
    </g>
</svg>