<?xml version="1.0" encoding="UTF-8"?>
<svg width="64px" height="64px" viewBox="0 0 64 64" version="1.1" xmlns="http://www.w3.org/2000/svg" xmlns:xlink="http://www.w3.org/1999/xlink">
    <g id="1" transform="translate(-822.000000, -432.000000)" fill-rule="nonzero">
        <path d="M880.357143,464 C880.357143,460.257143 882.707143,457.085714 886,455.821429 C885.214286,452.735714 884,449.828571 882.414286,447.157143 C879.185714,448.592857 875.285714,448.007143 872.642857,445.357143 C870,442.714286 869.414286,438.807143 870.85,435.585714 C868.171429,434 865.264286,432.785714 862.178571,432 C860.907143,435.292857 857.735714,437.642857 854,437.642857 C850.257143,437.642857 847.085714,435.292857 845.821429,432 C842.735714,432.785714 839.828571,434 837.157143,435.585714 C838.592857,438.814286 838.007143,442.714286 835.364286,445.357143 C832.721429,448 828.814286,448.585714 825.592857,447.157143 C824,449.828571 822.785714,452.735714 822,455.821429 C825.292857,457.092857 827.642857,460.264286 827.642857,464 C827.642857,467.742857 825.292857,470.914286 822,472.178571 C822.785714,475.264286 824,478.171429 825.585714,480.842857 C828.814286,479.407143 832.714286,479.992857 835.357143,482.642857 C838,485.285714 838.585714,489.192857 837.15,492.414286 C839.828571,494 842.735714,495.214286 845.821429,496 C847.092857,492.707143 850.264286,490.357143 854,490.357143 C857.742857,490.357143 860.914286,492.707143 862.178571,496 C865.264286,495.214286 868.171429,494 870.842857,492.414286 C869.407143,489.185714 869.992857,485.285714 872.635714,482.642857 C875.278571,480 879.185714,479.414286 882.407143,480.842857 C884,478.171429 885.214286,475.264286 886,472.178571 C882.707143,470.914286 880.357143,467.742857 880.357143,464 Z M854,473 C849.031707,473 845,468.968293 845,464 C845,459.031707 849.031707,455 854,455 C858.968293,455 863,459.031707 863,464 C863,468.968293 858.968293,473 854,473 Z" id="设置"></path>
    </g>
</svg>