<svg width="160" height="174" viewBox="0 0 160 174" fill="none" xmlns="http://www.w3.org/2000/svg">
<path d="M0 62H160V166C160 170.418 156.418 174 152 174H8C3.58172 174 0 170.418 0 166V62Z" fill="white"/>
<path d="M0 62H160V166C160 170.418 156.418 174 152 174H8C3.58172 174 0 170.418 0 166V62Z" fill="url(#paint0_linear_1703_31543)"/>
<mask id="mask0_1703_31543" style="mask-type:alpha" maskUnits="userSpaceOnUse" x="0" y="62" width="160" height="112">
<path d="M0 62H160V166C160 170.418 156.418 174 152 174H8C3.58172 174 0 170.418 0 166V62Z" fill="white"/>
<path d="M0 62H160V166C160 170.418 156.418 174 152 174H8C3.58172 174 0 170.418 0 166V62Z" fill="url(#paint1_linear_1703_31543)"/>
</mask>
<g mask="url(#mask0_1703_31543)">
<path d="M-3 106C-3 88.3269 11.3269 74 29 74H131C148.673 74 163 88.3269 163 106V168C163 172.418 159.418 176 155 176H5C0.581727 176 -3 172.418 -3 168V106Z" fill="url(#paint2_linear_1703_31543)" fill-opacity="0.6"/>
<path d="M-2.5 106C-2.5 88.603 11.603 74.5 29 74.5H131C148.397 74.5 162.5 88.603 162.5 106V168C162.5 172.142 159.142 175.5 155 175.5H5C0.857869 175.5 -2.5 172.142 -2.5 168V106Z" stroke="#090808" stroke-opacity="0.6" style="mix-blend-mode:overlay"/>
</g>
<path d="M0 40C0 17.9086 17.9086 0 40 0H120C142.091 0 160 17.9086 160 40V62H0V40Z" fill="#FFDAB1"/>
<rect x="63" y="97" width="33" height="68" rx="8" fill="white"/>
<rect x="63" y="97" width="33" height="68" rx="8" fill="url(#paint3_linear_1703_31543)"/>
<rect x="32" y="20" width="96" height="34" rx="8" fill="white"/>
<rect x="32" y="20" width="96" height="34" rx="8" fill="#EA9238" fill-opacity="0.6"/>
<rect x="97" y="28" width="23" height="2" rx="1" fill="white"/>
<rect x="97" y="28" width="23" height="2" rx="1" fill="#FFB76C" fill-opacity="0.6"/>
<rect x="40" y="28" width="23" height="2" rx="1" fill="white"/>
<rect x="40" y="28" width="23" height="2" rx="1" fill="#FFB76C" fill-opacity="0.6"/>
<rect x="97" y="33" width="23" height="2" rx="1" fill="white"/>
<rect x="97" y="33" width="23" height="2" rx="1" fill="#FFB76C" fill-opacity="0.6"/>
<rect x="40" y="33" width="23" height="2" rx="1" fill="white"/>
<rect x="40" y="33" width="23" height="2" rx="1" fill="#FFB76C" fill-opacity="0.6"/>
<rect x="97" y="38" width="23" height="2" rx="1" fill="white"/>
<rect x="97" y="38" width="23" height="2" rx="1" fill="#FFB76C" fill-opacity="0.6"/>
<rect x="40" y="38" width="23" height="2" rx="1" fill="white"/>
<rect x="40" y="38" width="23" height="2" rx="1" fill="#FFB76C" fill-opacity="0.6"/>
<rect x="97" y="43" width="23" height="2" rx="1" fill="white"/>
<rect x="97" y="43" width="23" height="2" rx="1" fill="#FFB76C" fill-opacity="0.6"/>
<rect x="40" y="43" width="23" height="2" rx="1" fill="white"/>
<rect x="40" y="43" width="23" height="2" rx="1" fill="#FFB76C" fill-opacity="0.6"/>
<circle cx="80" cy="37" r="12" fill="white"/>
<circle cx="80" cy="37" r="12" fill="#FFB76C" fill-opacity="0.6"/>
<defs>
<linearGradient id="paint0_linear_1703_31543" x1="117.561" y1="139.653" x2="28.9437" y2="128.595" gradientUnits="userSpaceOnUse">
<stop stop-color="#EA9238"/>
<stop offset="1" stop-color="#FFC07D"/>
</linearGradient>
<linearGradient id="paint1_linear_1703_31543" x1="117.561" y1="139.653" x2="28.9437" y2="128.595" gradientUnits="userSpaceOnUse">
<stop stop-color="#EA9238"/>
<stop offset="1" stop-color="#FFC07D"/>
</linearGradient>
<linearGradient id="paint2_linear_1703_31543" x1="118.97" y1="144.72" x2="27.447" y2="131.709" gradientUnits="userSpaceOnUse">
<stop stop-color="#EA9238"/>
<stop offset="1" stop-color="#FFC07D"/>
</linearGradient>
<linearGradient id="paint3_linear_1703_31543" x1="87.2469" y1="144.147" x2="68.7183" y2="143.361" gradientUnits="userSpaceOnUse">
<stop stop-color="#EA9238"/>
<stop offset="1" stop-color="#FFC07D"/>
</linearGradient>
</defs>
</svg>
