<?xml version="1.0" encoding="UTF-8"?>
<svg width="110px" height="104px" viewBox="0 0 110 104" version="1.1" xmlns="http://www.w3.org/2000/svg" xmlns:xlink="http://www.w3.org/1999/xlink">
    <title>休闲</title>
    <g id="页面-1" stroke="none" stroke-width="1" fill="none" fill-rule="evenodd">
        <g id="2" transform="translate(-158.000000, -1101.000000)" fill="#006FFF">
            <g id="编组-2备份" transform="translate(98.000000, 1038.000000)">
                <g id="休闲" transform="translate(60.000000, 63.000000)">
                    <path d="M71.160884,51.2026947 C68.4769461,51.2026947 66.3077965,49.0535099 66.3077965,46.4016932 C66.3077965,43.7542095 68.4813461,41.6050247 71.160884,41.6050247 C73.8404219,41.6050247 76.0139716,43.7542095 76.0139716,46.4016932 C76.0139716,49.05351 73.840422,51.2026947 71.160884,51.2026947 L71.160884,51.2026947 Z M72.542452,67.2999157 C70.0125107,73.9294576 62.9374747,78.3924826 54.9560596,78.3924826 C47.0274434,78.3924826 39.9744068,73.981454 37.4048664,67.4082416 C36.6763754,65.5634033 37.5905122,63.4847261 39.4552188,62.7458971 C40.3517091,62.4022607 41.350429,62.4254401 42.2294861,62.8102852 C43.1085431,63.1951304 43.7951327,63.909768 44.1367104,64.7954222 C45.6062764,68.5564956 50.0545733,71.1823142 54.9604595,71.1823141 C59.8883453,71.1823141 64.3410421,68.5348304 65.7842087,64.7347596 C66.1190366,63.8448725 66.8010371,63.1236257 67.6785456,62.7314115 C68.5560541,62.3391973 69.5563193,62.3085328 70.4569004,62.6462373 C72.3324884,63.3695401 73.2638891,65.4478579 72.542452,67.2999157 L72.542452,67.2999157 Z M33.9861456,46.4016932 C33.9861456,43.7542095 36.1596952,41.6050247 38.8392331,41.6050247 C41.523171,41.6050247 43.6923206,43.7542095 43.6923206,46.4016932 C43.5815831,48.9621459 41.441554,50.9818015 38.8392331,50.9818015 C36.2369123,50.9818015 34.0968831,48.9621459 33.9861456,46.4016932 L33.9861456,46.4016932 Z M108.630416,43.962195 C111.314353,41.3840398 109.827188,36.8906837 106.135673,36.3533876 L75.9435732,32.0030215 C74.4712868,31.7932371 73.1996387,30.8799497 72.5468518,29.5635234 L59.0479647,2.48206142 C58.2932608,0.963084111 56.7260154,0 55.0088584,0 C53.2917013,0 51.724456,0.963084111 50.969752,2.48206142 L37.462065,29.5721894 C36.8103899,30.8902873 35.5385472,31.8053371 34.0653438,32.0160206 L3.86884361,36.3490545 C0.168529446,36.8950168 -1.30983629,41.3840399 1.36530167,43.9665281 L23.2107954,65.0554042 C24.2755706,66.0823332 24.7551596,67.5598978 24.5087653,68.998465 L19.3476849,98.7750741 C18.7184995,102.414823 22.58161,105.200963 25.8815335,103.476416 L52.8881076,89.4200538 C54.2022314,88.7344458 55.7758863,88.7344458 57.0900101,89.4200538 L84.0965842,103.476416 C87.4097074,105.200963 91.2728178,102.414823 90.6304327,98.7750741 L85.482552,69.0027981 C85.2331538,67.5584066 85.7180623,66.0853188 86.780522,65.0597372 L108.626016,43.9665281 L108.630416,43.962195 Z" id="形状"></path>
                </g>
            </g>
        </g>
    </g>
</svg>