<?xml version="1.0" encoding="UTF-8"?>
<svg width="88px" height="88px" viewBox="0 0 88 88" version="1.1" xmlns="http://www.w3.org/2000/svg" xmlns:xlink="http://www.w3.org/1999/xlink">
    <!-- Generator: Sketch 59.1 (86144) - https://sketch.com -->
    <title>布防</title>
    <desc>Created with Sketch.</desc>
    <g id="页面-1" stroke="none" stroke-width="1" fill="none" fill-rule="evenodd">
        <g id="切图蓝白" transform="translate(-363.000000, -764.000000)" stroke="#FFFFFF" stroke-width="5">
            <g id="编组" transform="translate(74.000000, 96.000000)">
                <g id="布防" transform="translate(301.000000, 677.000000)">
                    <path d="M30.9581196,0.349858156 C22.4745233,6.04249267 12.6492925,9.37147469 2.47863247,9.99927022 C1.10972156,9.99927022 0,11.1184902 0,12.4991179 L0,29.0731081 C-0.000755021672,48.3939259 13.0372959,65.2355334 31.6223931,69.9206194 C32.0288338,70.0264602 32.4552687,70.0264602 32.8617094,69.9206194 L34.1010256,69.5856398 C52.0562887,64.4388458 64.4444444,47.8992451 64.4444444,29.0731081 L64.4444444,12.4991179 C64.4444444,11.1184902 63.3347229,9.99927022 61.965812,9.99927022 C56.2500855,9.99927022 46.5982906,6.75946763 33.302906,0.249864265 C32.5541931,-0.115752776 31.6735582,-0.0781979185 30.9581196,0.349858156 Z" id="路径" fill-rule="nonzero"></path>
                    <polyline id="路径-3" stroke-linecap="round" points="19.4444444 37.2222222 30.7899306 46.1425781 47.8269886 26.031901"></polyline>
                </g>
            </g>
        </g>
    </g>
</svg>