<?xml version="1.0" encoding="UTF-8"?>
<svg width="254px" height="276px" viewBox="0 0 254 276" version="1.1" xmlns="http://www.w3.org/2000/svg" xmlns:xlink="http://www.w3.org/1999/xlink">
    <!-- Generator: Sketch 59.1 (86144) - https://sketch.com -->
    <title>主机撤防</title>
    <desc>Created with Sketch.</desc>
    <g id="页面-1" stroke="none" stroke-width="1" fill="none" fill-rule="evenodd">
        <g id="切图蓝白" transform="translate(-112.000000, -248.000000)">
            <g id="编组" transform="translate(74.000000, 96.000000)">
                <g id="主机撤防" transform="translate(38.000000, 152.000000)">
                    <path d="M122.017692,1.37944073 C88.5806213,23.8246854 49.8556599,36.9503859 9.76923075,39.425694 C4.37383359,39.425694 0,43.8386183 0,49.2822363 L0,114.631112 C-0.0029758268,190.810336 51.3849285,257.214389 124.635846,275.687014 C126.237783,276.104329 127.918525,276.104329 129.520461,275.687014 L134.405077,274.366237 C205.173579,254.073163 254,188.859881 254,114.631112 L254,49.2822363 C254,43.8386183 249.626166,39.425694 244.230769,39.425694 C221.702923,39.425694 183.661538,26.6516152 131.259385,0.985179102 C128.308423,-0.456396659 124.837507,-0.308323222 122.017692,1.37944073 Z" id="路径" fill="#FFFFFF" fill-rule="nonzero"></path>
                    <path d="M149.777778,101 L149.777778,111.014925 C149.777778,123.709232 139.704185,134 127.277778,134 C114.851371,134 104.777778,123.709232 104.777778,111.014925 L104.777778,101" id="矩形" stroke="#2C8DFF" stroke-width="6" transform="translate(127.277778, 117.500000) scale(1, -1) translate(-127.277778, -117.500000) "></path>
                    <path d="M149.509206,131.5 L104.046349,131.5 C99.1883951,131.5 95.2777778,135.304163 95.2777778,139.961821 L95.2777532,167.0718 C95.2983291,171.715421 99.2030677,175.497492 104.046349,175.497449 L149.318783,175.497999 C151.685251,175.547642 153.969226,174.671778 155.654472,173.07391 C157.32585,171.489192 158.268346,169.327584 158.277778,167.082877 L158.277778,139.961821 C158.277778,137.73225 157.365405,135.589549 155.734082,134.002632 C154.089306,132.402631 151.849183,131.5 149.509206,131.5 Z" id="路径" stroke="#0076FF" stroke-width="5" fill="#0076FF" fill-rule="nonzero"></path>
                    <path d="M133.777267,149.621907 C133.815721,146.517282 131.679257,143.813416 128.664404,143.151172 C125.649551,142.488927 122.587489,144.050881 121.336453,146.889149 C120.085418,149.727418 120.990313,153.059505 123.501997,154.863308 L123.501997,160.200882 C123.501916,161.216777 123.906251,162.190379 124.624677,162.904193 C125.343103,163.618008 126.315756,164.012555 127.325353,163.999695 L127.420937,163.999695 C128.422279,163.999695 129.382608,163.599464 130.090664,162.887048 C130.79872,162.174633 131.196501,161.20839 131.196501,160.200882 L131.196501,154.863308 C132.840759,153.632326 133.800132,151.683889 133.777267,149.621907 L133.777267,149.621907 Z" id="路径" fill="#FFFFFF" fill-rule="nonzero"></path>
                </g>
            </g>
        </g>
    </g>
</svg>