<?xml version="1.0" encoding="UTF-8"?>
<svg width="83px" height="83px" viewBox="0 0 83 83" version="1.1" xmlns="http://www.w3.org/2000/svg" xmlns:xlink="http://www.w3.org/1999/xlink">
    <title>3-1-报警-未选中</title>
    <g id="页面-1" stroke="none" stroke-width="1" fill="none" fill-rule="evenodd">
        <g id="切图" transform="translate(-188.000000, -1135.000000)" fill="#6B6F86" fill-rule="nonzero">
            <g id="编组" transform="translate(41.000000, 103.000000)">
                <path d="M215.542182,1111.32822 C214.836373,1110.62305 213.927745,1110.12051 212.913651,1109.91787 C212.305195,1109.79629 211.867106,1109.27754 211.867106,1108.66152 L211.867106,1078.86582 C211.867106,1065.97813 201.312418,1055.29512 188.413146,1055.34358 C175.554437,1055.39238 165.137666,1065.82412 165.137666,1078.6875 L165.137666,1108.66152 C165.137666,1109.27754 164.699577,1109.79629 164.091121,1109.91787 C161.722198,1110.4042 159.945505,1112.49541 159.945505,1115 L217.059266,1115 C217.059266,1113.56533 216.475148,1112.26846 215.542182,1111.32822 Z M192.988737,1069.60938 L191.414863,1083.65615 L197.588666,1083.65615 L184.024148,1103.32812 L185.598021,1089.28135 L179.416106,1089.28135 L192.988737,1069.60938 Z M188.502386,1048.85938 C187.066429,1048.85938 185.906306,1047.70029 185.906306,1046.26562 L185.906306,1034.59375 C185.906306,1033.15908 187.066429,1032 188.502386,1032 C189.938343,1032 191.098466,1033.15908 191.098466,1034.59375 L191.098466,1046.26562 C191.098466,1047.70029 189.938343,1048.85938 188.502386,1048.85938 Z M169.680806,1056.00029 C168.439555,1056.71357 166.849456,1056.29209 166.135534,1055.05195 L160.294354,1044.94443 C159.580432,1043.7043 160.002295,1042.11562 161.243545,1041.40234 C162.484796,1040.68906 164.074895,1041.11055 164.788817,1042.35068 L170.629997,1052.4582 C171.343919,1053.69834 170.922056,1055.27891 169.680806,1056.00029 Z M207.323966,1056.00029 C208.565217,1056.71357 210.155316,1056.29209 210.869238,1055.05195 L216.710418,1044.94443 C217.42434,1043.7043 217.002477,1042.11562 215.761226,1041.40234 C214.519975,1040.68906 212.929876,1041.11055 212.215954,1042.35068 L206.374774,1052.4582 C205.660852,1053.69834 206.082715,1055.27891 207.323966,1056.00029 Z M163.393424,1068.06123 C163.020238,1069.44727 161.600506,1070.26592 160.213226,1069.89307 L148.928391,1066.87783 C147.541111,1066.50498 146.721723,1065.08652 147.086797,1063.70049 C147.459983,1062.31445 148.879714,1061.4958 150.266995,1061.86865 L161.55183,1064.89199 C162.93911,1065.25674 163.758498,1066.6752 163.393424,1068.06123 L163.393424,1068.06123 Z M213.611347,1068.06123 C213.984534,1069.44727 215.404265,1070.26592 216.791545,1069.89307 L228.076381,1066.86973 C229.463661,1066.49688 230.283049,1065.07842 229.909862,1063.69238 C229.536676,1062.30635 228.116945,1061.4877 226.729664,1061.86055 L215.444829,1064.88389 C214.065661,1065.25674 213.246274,1066.6752 213.611347,1068.06123 Z" id="形状"></path>
            </g>
        </g>
    </g>
</svg>