<?xml version="1.0" encoding="UTF-8"?>
<svg width="83px" height="83px" viewBox="0 0 83 83" version="1.1" xmlns="http://www.w3.org/2000/svg" xmlns:xlink="http://www.w3.org/1999/xlink">
    <title>3-1-报警-选中</title>
    <g id="页面-1" stroke="none" stroke-width="1" fill="none" fill-rule="evenodd">
        <g id="切图" transform="translate(-725.000000, -1144.000000)" fill="#9C63FF" fill-rule="nonzero">
            <g id="编组" transform="translate(41.000000, 103.000000)">
                <path d="M752.542182,1120.32822 C751.836373,1119.62305 750.927745,1119.12051 749.913651,1118.91787 C749.305195,1118.79629 748.867106,1118.27754 748.867106,1117.66152 L748.867106,1087.86582 C748.867106,1074.97813 738.312418,1064.29512 725.413146,1064.34358 C712.554437,1064.39238 702.137666,1074.82412 702.137666,1087.6875 L702.137666,1117.66152 C702.137666,1118.27754 701.699577,1118.79629 701.091121,1118.91787 C698.722198,1119.4042 696.945505,1121.49541 696.945505,1124 L754.059266,1124 C754.059266,1122.56533 753.475148,1121.26846 752.542182,1120.32822 Z M729.988737,1078.60938 L728.414863,1092.65615 L734.588666,1092.65615 L721.024148,1112.32812 L722.598021,1098.28135 L716.416106,1098.28135 L729.988737,1078.60938 Z M725.502386,1057.85938 C724.066429,1057.85938 722.906306,1056.70029 722.906306,1055.26562 L722.906306,1043.59375 C722.906306,1042.15908 724.066429,1041 725.502386,1041 C726.938343,1041 728.098466,1042.15908 728.098466,1043.59375 L728.098466,1055.26562 C728.098466,1056.70029 726.938343,1057.85938 725.502386,1057.85938 Z M706.680806,1065.00029 C705.439555,1065.71357 703.849456,1065.29209 703.135534,1064.05195 L697.294354,1053.94443 C696.580432,1052.7043 697.002295,1051.11562 698.243545,1050.40234 C699.484796,1049.68906 701.074895,1050.11055 701.788817,1051.35068 L707.629997,1061.4582 C708.343919,1062.69834 707.922056,1064.27891 706.680806,1065.00029 Z M744.323966,1065.00029 C745.565217,1065.71357 747.155316,1065.29209 747.869238,1064.05195 L753.710418,1053.94443 C754.42434,1052.7043 754.002477,1051.11562 752.761226,1050.40234 C751.519975,1049.68906 749.929876,1050.11055 749.215954,1051.35068 L743.374774,1061.4582 C742.660852,1062.69834 743.082715,1064.27891 744.323966,1065.00029 Z M700.393424,1077.06123 C700.020238,1078.44727 698.600506,1079.26592 697.213226,1078.89307 L685.928391,1075.87783 C684.541111,1075.50498 683.721723,1074.08652 684.086797,1072.70049 C684.459983,1071.31445 685.879714,1070.4958 687.266995,1070.86865 L698.55183,1073.89199 C699.93911,1074.25674 700.758498,1075.6752 700.393424,1077.06123 L700.393424,1077.06123 Z M750.611347,1077.06123 C750.984534,1078.44727 752.404265,1079.26592 753.791545,1078.89307 L765.076381,1075.86973 C766.463661,1075.49688 767.283049,1074.07842 766.909862,1072.69238 C766.536676,1071.30635 765.116945,1070.4877 763.729664,1070.86055 L752.444829,1073.88389 C751.065661,1074.25674 750.246274,1075.6752 750.611347,1077.06123 Z" id="形状"></path>
            </g>
        </g>
    </g>
</svg>