<?xml version="1.0" encoding="UTF-8"?>
<svg width="51px" height="77px" viewBox="0 0 51 77" version="1.1" xmlns="http://www.w3.org/2000/svg" xmlns:xlink="http://www.w3.org/1999/xlink">
    <title>3-1-蓝牙-选中</title>
    <g id="页面-1" stroke="none" stroke-width="1" fill="none" fill-rule="evenodd">
        <g id="切图" transform="translate(-632.000000, -1150.000000)" fill="#9C63FF" fill-rule="nonzero">
            <g id="编组" transform="translate(41.000000, 103.000000)">
                <path d="M622,1110 L622,1094 L632,1102 L622,1110 Z M622,1061.00436 L632,1069.00218 L622,1077 L622,1061 L622,1061.00436 Z M623.420903,1085.50433 L640.385254,1071.81273 C641.406572,1070.98531 642,1069.74017 642,1068.42462 C642,1067.10908 641.406572,1065.86393 640.385254,1065.03652 L619.225419,1047.96116 C617.92364,1046.91192 616.136197,1046.70366 614.62864,1047.42557 C613.121082,1048.14747 612.160814,1049.6715 612.159111,1051.34491 L612.159111,1076.40559 L598.069927,1065.03652 C596.201374,1063.52923 593.466441,1063.82424 591.961284,1065.69543 C590.456127,1067.56663 590.750718,1070.30544 592.619272,1071.81273 L609.579279,1085.49998 L592.619272,1099.18723 C590.789769,1100.70514 590.517731,1103.41345 592.008704,1105.26583 C593.499678,1107.1182 596.200251,1107.42709 598.069927,1105.9591 L612.159111,1094.59002 L612.159111,1119.6507 C612.161505,1122.05176 614.104599,1123.9976 616.502263,1124 C617.493002,1124 618.454072,1123.66145 619.225419,1123.0388 L640.385254,1105.96344 C641.404977,1105.13598 641.997318,1103.89185 641.997318,1102.57751 C641.997318,1101.26318 641.404977,1100.01904 640.385254,1099.19158 L623.420903,1085.49998 L623.420903,1085.50433 Z" id="蓝牙"></path>
            </g>
        </g>
    </g>
</svg>