<?xml version="1.0" encoding="UTF-8"?>
<svg width="63px" height="63px" viewBox="0 0 63 63" version="1.1" xmlns="http://www.w3.org/2000/svg" xmlns:xlink="http://www.w3.org/1999/xlink">
    <!-- Generator: Sketch 59.1 (86144) - https://sketch.com -->
    <title>Wi-Fi管理</title>
    <desc>Created with Sketch.</desc>
    <defs>
        <linearGradient x1="50%" y1="0%" x2="50%" y2="100%" id="linearGradient-1">
            <stop stop-color="#3FE83F" offset="0%"></stop>
            <stop stop-color="#00D8B2" offset="100%"></stop>
        </linearGradient>
    </defs>
    <g id="页面-1" stroke="none" stroke-width="1" fill="none" fill-rule="evenodd">
        <g id="路由器连接中-多彩" transform="translate(-141.000000, -1185.000000)">
            <g id="Wi-Fi管理" transform="translate(141.000000, 1185.000000)">
                <rect id="矩形" fill="url(#linearGradient-1)" x="0" y="0" width="63" height="63" rx="11"></rect>
                <g id="wifi-(1)" transform="translate(10.000000, 17.000000)" fill="#FFFFFF" fill-rule="nonzero">
                    <path d="M21.5,30 C21.2188755,30 20.5652611,29.4958848 19.5391566,28.4876543 C18.5130522,27.4794239 18,26.8381344 18,26.563786 C18,26.1248286 18.439257,25.7544582 19.3177711,25.4526749 C20.1962852,25.1508916 20.9236948,25 21.5,25 C22.0763052,25 22.8037148,25.1508916 23.6822289,25.4526749 C24.560743,25.7544582 25,26.1248286 25,26.563786 C25,26.8381344 24.4869478,27.4794239 23.4608434,28.4876543 C22.4347389,29.4958848 21.7811245,30 21.5,30 Z M28.1503416,24 C28.1199696,24 27.816249,23.8127341 27.2391799,23.4382023 C26.6621108,23.0636704 25.8914198,22.6891386 24.927107,22.3146067 C23.9627942,21.9400749 22.9870918,21.752809 22,21.752809 C21.0129081,21.752809 20.0372057,21.9400749 19.0728929,22.3146067 C18.1085801,22.6891385 17.3416856,23.0636704 16.7722095,23.4382023 C16.2027334,23.8127341 15.8952164,24 15.8496583,24 C15.5763098,24 14.8663629,23.4382022 13.7198178,22.3146067 C12.5732726,21.1910112 12,20.494382 12,20.2247191 C12,20.0299625 12.0759301,19.8576779 12.2277904,19.7078652 C13.4123007,18.5543071 14.9005315,17.6479401 16.6924829,16.988764 C18.4844343,16.329588 20.2536067,16 22,16 C23.7463933,16 25.5155657,16.329588 27.3075171,16.988764 C29.0994685,17.6479401 30.5876993,18.5543071 31.7722096,19.7078652 C31.9240699,19.8576779 32,20.0299625 32,20.2247191 C32,20.494382 31.4267274,21.1910112 30.2801822,22.3146067 C29.1336371,23.4382022 28.4236902,24 28.1503417,24 L28.1503416,24 Z M34.2366197,18 C34.0713615,18 33.8985915,17.9430199 33.7183098,17.8290598 C31.6751174,16.3333333 29.7821596,15.232906 28.0394366,14.5277778 C26.2967136,13.8226496 24.2835681,13.4700855 22,13.4700855 C20.7230047,13.4700855 19.4422535,13.6267806 18.1577465,13.940171 C16.8732395,14.2535613 15.7539907,14.6310542 14.8,15.0726496 C13.8460094,15.514245 12.9934272,15.9558404 12.2422535,16.3974359 C11.4910799,16.8390313 10.8976526,17.2165242 10.4619719,17.5299145 C10.0262911,17.8433048 9.79342725,18 9.7633803,18 C9.50798123,18 8.81690142,17.465812 7.69014085,16.3974359 C6.56338028,15.3290598 6,14.6666667 6,14.4102564 C6,14.2393162 6.07511737,14.0826211 6.22535212,13.9401709 C8.2084507,12.0598291 10.6122066,10.5997151 13.4366197,9.55982907 C16.2610329,8.51994302 19.115493,8 22,8 C24.884507,8 27.7389671,8.51994302 30.5633803,9.55982907 C33.3877934,10.5997151 35.7915493,12.0598291 37.7746479,13.9401709 C37.9248826,14.0826211 38,14.2393162 38,14.4102564 C38,14.6666667 37.4366197,15.3290598 36.3098592,16.3974359 C35.1830986,17.465812 34.4920188,18 34.2366197,18 Z M40.2362525,12 C40.071962,12 39.9076714,11.9380379 39.7433808,11.8141136 C37.0699253,9.65232358 34.2956551,8.02409639 31.4205703,6.92943202 C28.5454854,5.83476766 25.4052953,5.28743548 22,5.28743548 C18.5947047,5.28743548 15.4545146,5.83476766 12.5794297,6.92943202 C9.70434488,8.02409639 6.93007469,9.65232358 4.25661916,11.8141136 C4.09232861,11.9380379 3.92803804,12 3.76374746,12 C3.50984385,12 2.81907671,11.4836489 1.69144602,10.4509466 C0.563815341,9.4182444 0,8.77796901 0,8.53012048 C0,8.35111877 0.0746775326,8.1927711 0.224032598,8.05507746 C3.01697218,5.49397592 6.34012221,3.51118761 10.1934827,2.10671255 C14.0468432,0.702237494 17.9823489,0 22,0 C26.0176511,0 29.9531568,0.702237542 33.8065173,2.10671255 C37.6598778,3.51118757 40.9830278,5.49397587 43.7759674,8.05507746 C43.9253225,8.1927711 44,8.35111877 44,8.53012048 C44,8.77796901 43.4361847,9.4182444 42.308554,10.4509466 C41.1809233,11.4836489 40.4901562,12 40.2362525,12 Z" id="形状"></path>
                </g>
            </g>
        </g>
    </g>
</svg>