<svg width="23" height="24" viewBox="0 0 23 24" fill="none" xmlns="http://www.w3.org/2000/svg">
<path fill-rule="evenodd" clip-rule="evenodd" d="M5.14779 13.0668C5.49402 13.0658 5.83972 13.0397 6.18219 12.9888C6.14019 12.7596 6.11859 12.5256 6.11619 12.2856C6.12173 10.6024 7.19889 9.1097 8.79459 8.574C8.50539 7.0332 8.48139 4.98 9.58659 3.0192C10.6426 1.146 9.44499 0 7.55619 0C5.55219 0 2.77899 1.2792 1.06419 4.3548C-1.52061 8.9724 0.923792 13.0668 5.14779 13.0668ZM16.1722 5.0088C14.179 5.0088 12.3166 6.2604 11.3926 8.5944C13.2188 9.24685 14.2964 11.1336 13.9306 13.038C15.415 13.5588 17.2138 14.5644 18.3718 16.4928C18.8686 17.3364 19.4626 17.6952 20.0566 17.6952C22.1734 17.6952 24.2326 13.074 21.475 8.4912C20.0446 6.126 18.0538 5.0088 16.1722 5.0088ZM7.47099 15.234C8.94161 16.5119 11.124 16.5277 12.613 15.2712C15.6682 19.08 13.381 23.9064 7.65699 24H7.48659C0.740192 24 -2.16141 17.3856 2.23419 17.3232C4.49499 17.2944 6.26979 16.2516 7.47099 15.2352V15.234ZM8.69139 9.9276C7.84419 10.4136 7.32099 11.3136 7.32099 12.2856C7.32695 13.7946 8.554 15.0136 10.063 15.0096C10.7874 15.0115 11.4828 14.7256 11.9964 14.2147C12.5099 13.7039 12.7995 13.01 12.8014 12.2856C12.7998 11.3109 12.2771 10.4115 11.431 9.9276C10.5826 9.44092 9.53975 9.44092 8.69139 9.9276Z" fill="#1D2C3E"/>
</svg>
