<svg width="35" height="38" viewBox="0 0 35 38" fill="none" xmlns="http://www.w3.org/2000/svg">
<path d="M17.48 23.56C19.1592 23.56 20.52 22.3095 20.52 20.768V2.79369C20.5199 1.25047 19.1592 0 17.48 0C15.8007 0 14.44 1.25047 14.44 2.79369V20.7679C14.44 22.3095 15.8007 23.56 17.48 23.56Z" fill="#1D2C3E"/>
<path d="M29.1139 8.33651C27.9418 7.31972 26.1427 7.41833 25.0963 8.55866C24.0501 9.69778 24.1528 11.4458 25.3254 12.4626C27.7503 14.5714 29.2675 17.6063 29.2685 21.0117C29.2574 27.3387 23.9899 32.4582 17.4801 32.4684C10.9706 32.4582 5.70227 27.3387 5.69195 21.0117C5.69278 17.5902 7.22411 14.5443 9.66835 12.4347C10.8452 11.4225 10.9533 9.67387 9.91165 8.53184C8.86894 7.38855 7.07151 7.28273 5.89554 8.29572L5.89471 8.29427C2.28713 11.3971 -0.00104811 15.957 -3.01781e-05 21.0117C0.00163558 30.3955 7.82549 37.9986 17.4802 38.0001C27.1346 37.9986 34.9585 30.3954 34.96 21.0117C34.9609 15.9789 32.6944 11.4367 29.1139 8.33651Z" fill="#1D2C3E"/>
</svg>
