<?xml version="1.0" encoding="UTF-8"?>
<svg width="83px" height="83px" viewBox="0 0 83 83" version="1.1" xmlns="http://www.w3.org/2000/svg" xmlns:xlink="http://www.w3.org/1999/xlink">
    <title>2-1-报警-选中</title>
    <defs>
        <linearGradient x1="14.0176603%" y1="6.52501091%" x2="104.602754%" y2="105.080729%" id="linearGradient-1">
            <stop stop-color="#C6F5B3" offset="0%"></stop>
            <stop stop-color="#1E99F5" offset="100%"></stop>
        </linearGradient>
    </defs>
    <g id="页面-1" stroke="none" stroke-width="1" fill="none" fill-rule="evenodd">
        <g id="切图" transform="translate(-751.000000, -564.000000)" fill="url(#linearGradient-1)" fill-rule="nonzero">
            <g id="编组" transform="translate(41.000000, 103.000000)">
                <path d="M778.542182,540.328223 C777.836373,539.623047 776.927745,539.120508 775.913651,538.917871 C775.305195,538.796289 774.867106,538.277539 774.867106,537.661523 L774.867106,507.86582 C774.867106,494.978125 764.312418,484.295117 751.413146,484.343585 C738.554437,484.392383 728.137666,494.824121 728.137666,507.6875 L728.137666,537.661523 C728.137666,538.277539 727.699577,538.796289 727.091121,538.917871 C724.722198,539.404199 722.945505,541.49541 722.945505,544 L780.059266,544 C780.059266,542.565332 779.475148,541.268457 778.542182,540.328223 Z M755.988737,498.609375 L754.414863,512.656152 L760.588666,512.656152 L747.024148,532.328125 L748.598021,518.281348 L742.416106,518.281348 L755.988737,498.609375 Z M751.502386,477.859375 C750.066429,477.859375 748.906306,476.700293 748.906306,475.265625 L748.906306,463.59375 C748.906306,462.159082 750.066429,461 751.502386,461 C752.938343,461 754.098466,462.159082 754.098466,463.59375 L754.098466,475.265625 C754.098466,476.700293 752.938343,477.859375 751.502386,477.859375 Z M732.680806,485.000293 C731.439555,485.713574 729.849456,485.29209 729.135534,484.051953 L723.294354,473.944434 C722.580432,472.704297 723.002295,471.115625 724.243545,470.402344 C725.484796,469.689062 727.074895,470.110547 727.788817,471.350684 L733.629997,481.458203 C734.343919,482.69834 733.922056,484.278906 732.680806,485.000293 Z M770.323966,485.000293 C771.565217,485.713574 773.155316,485.29209 773.869238,484.051953 L779.710418,473.944434 C780.42434,472.704297 780.002477,471.115625 778.761226,470.402344 C777.519975,469.689062 775.929876,470.110547 775.215954,471.350684 L769.374774,481.458203 C768.660852,482.69834 769.082715,484.278906 770.323966,485.000293 Z M726.393424,497.06123 C726.020238,498.447266 724.600506,499.265918 723.213226,498.893066 L711.928391,495.877832 C710.541111,495.50498 709.721723,494.086523 710.086797,492.700488 C710.459983,491.314453 711.879714,490.495801 713.266995,490.868652 L724.55183,493.891992 C725.93911,494.256738 726.758498,495.675195 726.393424,497.06123 L726.393424,497.06123 Z M776.611347,497.06123 C776.984534,498.447266 778.404265,499.265918 779.791545,498.893066 L791.076381,495.869727 C792.463661,495.496875 793.283049,494.078418 792.909862,492.692383 C792.536676,491.306348 791.116945,490.487695 789.729664,490.860547 L778.444829,493.883887 C777.065661,494.256738 776.246274,495.675195 776.611347,497.06123 Z" id="2-1-报警-选中"></path>
            </g>
        </g>
    </g>
</svg>