<svg width="24" height="24" viewBox="0 0 24 24" fill="none" xmlns="http://www.w3.org/2000/svg">
<circle cx="12" cy="12" r="12" fill="#30414D"/>
<path d="M12.1386 13.3679C12.6423 13.3679 13.0506 12.9928 13.0506 12.5303V7.13803C13.0505 6.67507 12.6423 6.29993 12.1386 6.29993C11.6348 6.29993 11.2266 6.67507 11.2266 7.13803V12.5303C11.2266 12.9928 11.6348 13.3679 12.1386 13.3679Z" fill="white"/>
<path d="M15.6326 8.80082C15.281 8.49578 14.7413 8.52536 14.4273 8.86746C14.1135 9.2092 14.1443 9.73361 14.4961 10.0386C15.2235 10.6713 15.6787 11.5817 15.679 12.6034C15.6757 14.5015 14.0954 16.0373 12.1425 16.0404C10.1896 16.0373 8.60913 14.5015 8.60603 12.6034C8.60628 11.5769 9.06568 10.6632 9.79895 10.0303C10.152 9.72662 10.1844 9.20203 9.87194 8.85942C9.55913 8.51643 9.0199 8.48468 8.66711 8.78858L8.66686 8.78815C7.58458 9.71898 6.89813 11.087 6.89844 12.6034C6.89894 15.4185 9.24609 17.6995 12.1425 17.6999C15.0388 17.6995 17.386 15.4185 17.3864 12.6034C17.3867 11.0935 16.7068 9.73087 15.6326 8.80082Z" fill="white"/>
</svg>
