<svg width="76" height="80" viewBox="0 0 76 80" fill="none" xmlns="http://www.w3.org/2000/svg">
<path fill-rule="evenodd" clip-rule="evenodd" d="M61.2719 43.8934C61.8016 44.5554 62.5962 44.9529 63.3908 44.9529C64.0528 44.9529 64.7152 44.8206 65.1127 44.2905C71.7344 38.8605 75.5751 30.7818 75.5751 22.1734C75.5751 13.8299 72.1319 6.0157 65.9073 0.71834C64.7156 -0.341132 62.9937 -0.208897 61.9342 0.983207C60.8748 2.17491 61.007 3.89675 62.1991 4.95622C67.2316 9.19451 70.0129 15.5513 70.0129 22.1734C70.0129 29.193 66.9667 35.5499 61.6694 39.9204C60.4773 40.9798 60.3446 42.7013 61.2719 43.8934ZM25.778 0.586105C29.2213 0.586105 31.8704 3.36742 31.8704 6.94333C31.7377 10.3866 29.2217 12.9031 25.778 12.9031C22.2021 12.9031 19.6856 10.2544 19.8183 6.67846C19.686 3.10215 22.3347 0.586105 25.778 0.586105ZM27.1051 35.3418C27.6341 33.259 28.163 31.1762 28.6919 29.0604C28.8242 28.9278 29.089 28.7955 29.3539 28.7955C30.2599 34.7504 34.7094 37.0358 39.2387 39.3621L39.5515 39.5229C39.9494 39.7217 40.3473 39.9538 40.7452 40.1859C41.1419 40.4174 41.5386 40.6488 41.9353 40.8472C42.024 40.8916 42.1155 40.9387 42.2091 40.9869C43.2331 41.5145 44.5068 42.1707 45.1137 40.7146C45.3786 40.0526 44.584 38.3308 43.7894 37.801C37.5648 33.9606 33.4592 28.5307 31.0754 21.6437C30.6782 20.452 30.1485 19.2599 29.4861 18.2004C27.235 14.2274 22.7318 13.1679 19.0237 16.0815C15.3155 18.995 11.4747 22.0412 7.89882 25.0874C6.83935 25.882 6.04475 27.2063 5.64725 28.5307C4.59396 32.7401 3.66645 36.98 2.86593 41.2447C2.78411 41.7364 3.05718 42.2788 3.34003 42.8405C3.51426 43.1865 3.69221 43.5399 3.79317 43.8934C4.06718 43.6651 4.38845 43.4683 4.70267 43.2758C5.29967 42.91 5.87121 42.5599 6.04475 42.0393C7.10422 39.3906 8.16369 36.6093 8.56119 33.6958C9.22316 29.5901 12.1371 28.0009 15.5804 26.1468C15.0616 28.2222 14.5834 30.2365 14.114 32.2139L14.114 32.214L14.1139 32.2142C13.3852 35.2839 12.6777 38.2643 11.8722 41.2447C11.3425 43.4959 12.0045 44.8202 13.7263 46.2772C19.1563 50.7803 24.5863 55.4157 29.8836 60.1834C30.546 60.8457 31.0758 62.0374 31.3406 62.9647L34.1219 76.4733C34.6517 78.9898 35.976 80.3141 37.6978 79.7844C39.8168 79.122 39.6846 77.4006 39.5519 75.6787C39.3531 73.4239 39.121 71.1691 38.8888 68.9142C38.6574 66.6661 38.426 64.418 38.2276 62.1701C37.9627 59.3887 37.1681 57.0049 35.314 54.886C32.2679 51.3101 29.2217 47.4693 26.3081 43.7612C25.911 43.2314 25.3809 42.3046 25.5135 41.6422C26.0441 39.5199 26.5746 37.4308 27.1051 35.3418ZM13.1535 47.7881C12.5176 47.3414 11.8688 46.8858 11.2099 46.4098C10.947 47.7243 10.8147 48.5169 10.6831 49.306L10.6831 49.306L10.6801 49.3238C10.2826 55.4161 8.82606 60.9784 5.51501 66.1435C4.3676 67.9973 3.33769 69.9689 2.3078 71.9404L2.30772 71.9405L2.30765 71.9406L2.30761 71.9407C1.79243 72.9269 1.27726 73.9131 0.747392 74.8845C-0.0472115 76.4737 -0.576947 78.0629 1.14489 79.1224C2.86673 80.3141 4.19107 79.2546 5.25054 77.6654C6.02448 76.5657 6.77332 75.4534 7.5202 74.344L7.52025 74.3439L7.52042 74.3437L7.52062 74.3434C9.2021 71.8458 10.8737 69.3629 12.7995 67.0703C16.2428 63.0969 17.6997 58.4615 18.4943 53.429C18.6266 52.7671 18.3617 51.7076 17.832 51.3101C16.3945 50.0642 14.8183 48.9573 13.1538 47.7882L13.1536 47.7881L13.1535 47.7881ZM54.9147 39.5229C54.12 39.5229 53.1928 39.1254 52.6631 38.4634C51.7358 37.2713 52.0007 35.5499 53.1928 34.6226C57.0336 31.8413 59.2852 27.3386 59.2852 22.4383C59.2852 17.538 57.0336 13.1675 53.1928 10.254C52.0007 9.32674 51.7358 7.6053 52.6631 6.4132C53.5903 5.22109 55.3118 4.95622 56.5039 5.88346C61.669 9.72424 64.8474 15.9488 64.8474 22.4383C64.8474 28.9278 61.8012 35.1523 56.5039 38.9931C56.1068 39.258 55.4444 39.5229 54.9147 39.5229ZM43.6576 33.1656C44.1873 34.0929 45.1141 34.6226 46.0414 34.6226C46.4385 34.6226 46.9682 34.4904 47.498 34.0925C51.7362 31.7087 54.3849 27.2055 54.3849 22.173C54.3849 17.405 51.8685 12.9023 47.8955 10.3858C46.5711 9.59121 44.8493 9.98871 44.0547 11.3131C43.2601 12.6374 43.6576 14.3592 44.9819 15.1538C47.3657 16.6108 48.8227 19.2595 48.8227 22.173C48.8227 25.2192 47.2335 27.8679 44.717 29.3249C43.3927 30.1195 42.863 31.8413 43.6576 33.1656Z" fill="#1D2C3E"/>
</svg>
