<?xml version="1.0" encoding="UTF-8"?>
<svg width="51px" height="77px" viewBox="0 0 51 77" version="1.1" xmlns="http://www.w3.org/2000/svg" xmlns:xlink="http://www.w3.org/1999/xlink">
    <title>2-1-蓝牙-选中</title>
    <defs>
        <linearGradient x1="34.214865%" y1="6.52501091%" x2="73.9537466%" y2="105.080729%" id="linearGradient-1">
            <stop stop-color="#C6F5B3" offset="0%"></stop>
            <stop stop-color="#1E99F5" offset="100%"></stop>
        </linearGradient>
    </defs>
    <g id="页面-1" stroke="none" stroke-width="1" fill="none" fill-rule="evenodd">
        <g id="切图" transform="translate(-619.000000, -576.000000)" fill="url(#linearGradient-1)" fill-rule="nonzero">
            <g id="编组" transform="translate(41.000000, 103.000000)">
                <path d="M609,536 L609,520 L619,528 L609,536 Z M609,487.004356 L619,495.002178 L609,503 L609,487 L609,487.004356 Z M610.420903,511.504329 L627.385254,497.812727 C628.406572,496.985314 629,495.740167 629,494.424621 C629,493.109075 628.406572,491.863929 627.385254,491.036515 L606.225419,473.961156 C604.92364,472.911924 603.136197,472.703662 601.62864,473.425568 C600.121082,474.147474 599.160814,475.671499 599.159111,477.344913 L599.159111,502.40559 L585.069927,491.036515 C583.201374,489.529227 580.466441,489.824235 578.961284,491.695434 C577.456127,493.566634 577.750718,496.305439 579.619272,497.812727 L596.579279,511.49998 L579.619272,525.187232 C577.789769,526.705137 577.517731,529.41345 579.008704,531.265827 C580.499678,533.118203 583.200251,533.427089 585.069927,531.959095 L599.159111,520.590021 L599.159111,545.650697 C599.161505,548.051757 601.104599,549.997602 603.502263,550 C604.493002,550 605.454072,549.661446 606.225419,549.038803 L627.385254,531.963445 C628.404977,531.135983 628.997318,529.891848 628.997318,528.577513 C628.997318,527.263178 628.404977,526.019044 627.385254,525.191582 L610.420903,511.49998 L610.420903,511.504329 Z" id="2-1-蓝牙-选中"></path>
            </g>
        </g>
    </g>
</svg>