<svg width="32" height="32" viewBox="0 0 32 32" fill="none" xmlns="http://www.w3.org/2000/svg">
<path d="M16 29.3332C15.2733 29.3332 14.7866 28.8478 14.7866 28.1198V3.87984C14.7866 3.15184 15.2733 2.6665 16 2.6665C16.7266 2.6665 17.2133 3.15184 17.2133 3.87984V28.1198C17.2133 28.8478 16.7266 29.3332 16 29.3332ZM22.06 24.4852C21.3333 24.4852 20.848 23.9998 20.848 23.2718V8.72784C20.848 8.00117 21.3333 7.51584 22.0613 7.51584C22.788 7.51584 23.2733 8.00117 23.2733 8.72917V23.2745C23.2733 24.0012 22.788 24.4865 22.06 24.4865V24.4852ZM3.87997 20.8478C3.1533 20.8478 2.66797 20.3638 2.66797 19.6358V12.3638C2.66797 11.6358 3.1533 11.1505 3.8813 11.1505C4.60797 11.1505 5.09197 11.6358 5.09197 12.3638V19.6358C5.09197 20.3638 4.60797 20.8492 3.87997 20.8492V20.8478ZM28.1226 20.8478C27.3946 20.8478 26.9093 20.3638 26.9093 19.6358V12.3638C26.9093 11.6358 27.3946 11.1505 28.1226 11.1505C28.8493 11.1505 29.3346 11.6358 29.3346 12.3638V19.6358C29.3346 20.3638 28.8493 20.8492 28.1213 20.8492L28.1226 20.8478ZM9.93997 24.4852C9.21197 24.4852 8.72663 23.9998 8.72663 23.2718V8.72784C8.72663 8.00117 9.21197 7.51584 9.93997 7.51584C10.6666 7.51584 11.152 8.00117 11.152 8.72917V23.2745C11.152 24.0012 10.6666 24.4865 9.93863 24.4865L9.93997 24.4852Z" fill="white"/>
</svg>
