<?xml version="1.0" encoding="UTF-8"?>
<svg width="70px" height="70px" viewBox="0 0 70 70" version="1.1" xmlns="http://www.w3.org/2000/svg" xmlns:xlink="http://www.w3.org/1999/xlink">
    <!-- Generator: Sketch 59.1 (86144) - https://sketch.com -->
    <title>报警</title>
    <desc>Created with Sketch.</desc>
    <g id="页面-1" stroke="none" stroke-width="1" fill="none" fill-rule="evenodd">
        <g id="切图" transform="translate(-983.000000, -2061.000000)" fill-rule="nonzero" stroke="#FFFFFF" stroke-width="5">
            <g id="多彩" transform="translate(57.000000, 2061.000000)">
                <g id="报警" transform="translate(940.000000, 10.000000)">
                    <path d="M41.8157441,38.4563889 C41.5940585,38.7990999 41.232361,39 40.8356606,39 L1.16561598,39 C0.769722972,39.0004059 0.400746828,38.7970534 0.186068753,38.4601452 C-0.0286093218,38.1232369 -0.0595761466,37.6989328 0.10385892,37.333715 L3.459478,29.6841695 C4.25510117,27.8712656 4.66610999,25.9093818 4.66591403,23.9254431 L4.66591403,17.0003177 C4.66591403,8.0661969 11.4704934,0.397743189 20.2830772,0.0172158389 C24.8616772,-0.194778796 29.3162228,1.55887972 32.5516219,4.84707718 C35.6318841,7.9787465 37.3353626,12.1267312 37.3353626,16.5465211 L37.3353626,23.9254431 C37.3353626,25.9096216 37.7460642,27.8701648 38.5417986,29.6829877 L41.8974177,37.3325332 C42.0607649,37.7000612 42.0257619,38.1254955 41.8157441,38.4563889 L41.8157441,38.4563889 Z" id="路径"></path>
                    <path d="M18.9383257,46.5 C18.6608764,46.1275257 18.5,45.6781404 18.5,45.2 C18.5,45.9440596 17.9208954,46.5 17.25,46.5 L18.9383257,46.5 Z M23.0616347,46.5 L24.75,46.5 C24.0791046,46.5 23.5,45.9440596 23.5,45.2 C23.5,45.6669333 23.3508912,46.1116943 23.0616347,46.5 Z" id="路径"></path>
                </g>
            </g>
        </g>
    </g>
</svg>