<?xml version="1.0" encoding="UTF-8"?>
<svg width="36px" height="55px" viewBox="0 0 36 55" version="1.1" xmlns="http://www.w3.org/2000/svg" xmlns:xlink="http://www.w3.org/1999/xlink">
    <!-- Generator: Sketch 59.1 (86144) - https://sketch.com -->
    <title>蓝牙暗色</title>
    <desc>Created with Sketch.</desc>
    <g id="页面-1" stroke="none" stroke-width="1" fill="none" fill-rule="evenodd">
        <g id="切图" transform="translate(-328.000000, -631.000000)" fill="#FFFFFF" fill-rule="nonzero">
            <g id="蓝白" transform="translate(30.000000, 506.000000)">
                <path d="M319.272727,170 L319.272727,158.545455 L326.636364,164.272727 L319.272727,170 Z M319.272727,134.8213 L326.636364,140.547014 L319.272727,146.272727 L319.272727,134.818182 L319.272727,134.8213 Z M320.885344,152.412173 L332.860179,142.664787 C333.58111,142.075731 334,141.189281 334,140.252711 C334,139.316142 333.58111,138.429692 332.860179,137.840636 L317.923825,125.684271 C317.004923,124.937297 315.743198,124.78903 314.67904,125.302972 C313.614882,125.816915 312.937045,126.901905 312.935843,128.09325 L312.935843,145.934558 L302.990537,137.840636 C301.671558,136.767561 299.741017,136.977584 298.678553,138.309737 C297.61609,139.641889 297.824036,141.591712 299.143015,142.664787 L311.114785,152.409077 L299.143015,162.153366 C297.851602,163.234 297.659575,165.162114 298.712027,166.480866 C299.764478,167.799618 301.670765,168.019521 302.990537,166.974421 L312.935843,158.880499 L312.935843,176.721807 C312.937533,178.43118 314.309128,179.816474 316.001597,179.818182 C316.700942,179.818182 317.379345,179.577157 317.923825,179.133882 L332.860179,166.977517 C333.579984,166.388427 333.998107,165.502697 333.998107,164.56699 C333.998107,163.631283 333.579984,162.745553 332.860179,162.156463 L320.885344,152.409077 L320.885344,152.412173 Z" id="蓝牙"></path>
            </g>
        </g>
    </g>
</svg>