<?xml version="1.0" encoding="UTF-8"?>
<svg width="95px" height="55px" viewBox="0 0 95 55" version="1.1" xmlns="http://www.w3.org/2000/svg" xmlns:xlink="http://www.w3.org/1999/xlink">
    <!-- Generator: Sketch 59.1 (86144) - https://sketch.com -->
    <title>设置</title>
    <desc>Created with Sketch.</desc>
    <g id="页面-1" stroke="none" stroke-width="1" fill="none" fill-rule="evenodd">
        <g id="切图" transform="translate(-662.000000, -631.000000)" fill="#FFFFFF" fill-rule="nonzero">
            <g id="蓝白" transform="translate(30.000000, 506.000000)">
                <path d="M702.15067,152.5 C702.15067,149.283482 704.170201,146.558036 707,145.47154 C706.324777,142.819754 705.28125,140.321429 703.918527,138.02567 C701.143973,139.259487 697.792411,138.756138 695.521205,136.478795 C693.25,134.207589 692.746652,130.849888 693.980469,128.081473 C691.678571,126.71875 689.180246,125.675223 686.52846,125 C685.435826,127.829799 682.710379,129.84933 679.5,129.84933 C676.283482,129.84933 673.558036,127.829799 672.47154,125 C669.819754,125.675223 667.321429,126.71875 665.02567,128.081473 C666.259487,130.856027 665.756138,134.207589 663.484933,136.478795 C661.213728,138.75 657.856027,139.253348 655.087612,138.02567 C653.71875,140.321429 652.675223,142.819754 652,145.47154 C654.829799,146.564174 656.84933,149.289621 656.84933,152.5 C656.84933,155.716518 654.829799,158.441964 652,159.52846 C652.675223,162.180246 653.71875,164.678571 655.081473,166.97433 C657.856027,165.740513 661.207589,166.243862 663.478795,168.521205 C665.75,170.792411 666.253348,174.150112 665.019531,176.918527 C667.321429,178.28125 669.819754,179.324777 672.47154,180 C673.564174,177.170201 676.289621,175.15067 679.5,175.15067 C682.716518,175.15067 685.441964,177.170201 686.52846,180 C689.180246,179.324777 691.678571,178.28125 693.97433,176.918527 C692.740513,174.143973 693.243862,170.792411 695.515067,168.521205 C697.786272,166.25 701.143973,165.746652 703.912388,166.97433 C705.28125,164.678571 706.324777,162.180246 707,159.52846 C704.170201,158.441964 702.15067,155.716518 702.15067,152.5 Z M679.5,160.234375 C675.230373,160.234375 671.765625,156.769627 671.765625,152.5 C671.765625,148.230373 675.230373,144.765625 679.5,144.765625 C683.769627,144.765625 687.234375,148.230373 687.234375,152.5 C687.234375,156.769627 683.769627,160.234375 679.5,160.234375 Z" id="设置"></path>
            </g>
        </g>
    </g>
</svg>