<?xml version="1.0" encoding="UTF-8"?>
<svg width="78px" height="78px" viewBox="0 0 78 78" version="1.1" xmlns="http://www.w3.org/2000/svg" xmlns:xlink="http://www.w3.org/1999/xlink">
  <!-- Generator: Sketch 59.1 (86144) - https://sketch.com -->
  <title>档位</title>
  <desc>Created with Sketch.</desc>
  <defs>
    <linearGradient x1="8.45868644%" y1="0%" x2="111.848517%" y2="112.510417%" id="linearGradient-1">
      <stop stop-color="#00F0FF" offset="0%"></stop>
      <stop stop-color="#704DF0" offset="100%"></stop>
    </linearGradient>
    <path d="M41.8172475,29.7697181 C43.3051422,24.1513076 46.8083567,16.5009422 52.5989317,11.9817859 C56.9293713,8.59519457 58.0119812,5.08646388 54.4643518,2.89905898 C49.85632,0.0676465509 35.6269397,-2.8026284 25.8612433,5.31963902 C24.7064594,6.28565032 23.0686649,9.42241115 23.9625121,13.4085957 C24.756426,16.9894997 28.2929517,25.455978 33.5561013,30.824558 C35.7546321,33.0452737 40.5514267,34.4387727 41.8172475,29.7697181 L41.8172475,29.7697181 Z M29.7676335,36.1939856 C24.1382046,34.6838784 16.4990585,31.1806519 11.9799706,25.4011609 C8.57122374,21.0707066 5.07920127,19.9825412 2.89182949,23.5468382 C0.0604599268,28.1382302 -2.79866816,42.3732108 5.33457971,52.1278368 C6.28947297,53.2770727 9.42618631,54.9204246 13.4123105,54.0487819 C16.998712,53.2215541 25.4706139,49.7183276 30.8224575,44.4329525 C33.0431395,42.2344142 34.4421692,37.4376032 29.7676335,36.1995374 L29.7676335,36.1939856 Z M36.1998123,48.2336034 C34.7008629,53.8457278 31.1977628,61.4839901 25.4129286,66.0247594 C21.0659754,69.433112 19.9889525,72.9136283 23.536466,75.1229513 C28.1443474,77.926238 42.3788146,80.8016885 52.1386405,72.6804837 C53.287835,71.7312519 54.925576,68.5560441 54.0428613,64.6036874 C53.23787,60.9954966 49.7125632,52.535677 44.4551371,47.1844525 C42.256678,44.9640274 37.4433851,43.5485064 36.1998123,48.2336034 Z M48.2209195,42.5481938 C53.8615942,44.0749096 61.4787257,47.589132 66.0090314,53.3573422 C69.428968,57.6932153 72.9099749,58.7813473 75.0974019,55.2227114 C77.928843,50.620357 80.8102506,36.3691582 72.6712456,26.6203834 C71.688569,25.4711827 68.5739839,23.833433 64.5822072,24.7272557 C60.9846115,25.5322514 52.5235995,29.0464737 47.1771726,34.3316865 C44.9675382,36.5135023 43.5518177,41.3212694 48.2209195,42.5481938 L48.2209195,42.5481938 Z" id="path-2"></path>
    <filter x="-196.2%" y="-188.5%" width="492.3%" height="492.3%" filterUnits="objectBoundingBox" id="filter-3">
      <feOffset dx="0" dy="6" in="SourceAlpha" result="shadowOffsetOuter1"></feOffset>
      <feGaussianBlur stdDeviation="50" in="shadowOffsetOuter1" result="shadowBlurOuter1"></feGaussianBlur>
      <feColorMatrix values="0 0 0 0 0.125490196   0 0 0 0 0.127812629   0 0 0 0 0.129411765  0 0 0 0.1 0" type="matrix" in="shadowBlurOuter1"></feColorMatrix>
    </filter>
  </defs>
  <g id="页面-1" stroke="none" stroke-width="1" fill="none" fill-rule="evenodd">
    <g id="3.2" >
      <g id="编组-4" >
        <g id="档位开关" >
          <g id="档位" >
            <g id="形状">
              <use fill="black" fill-opacity="1" filter="url(#filter-3)" xlink:href="#path-2"></use>
              <use fill="url(#linearGradient-1)" fill-rule="evenodd" xlink:href="#path-2"></use>
            </g>
          </g>
        </g>
      </g>
    </g>
  </g>
</svg>
