<?xml version="1.0" encoding="UTF-8"?>
<svg width="178px" height="176px" viewBox="0 0 178 176" version="1.1" xmlns="http://www.w3.org/2000/svg" xmlns:xlink="http://www.w3.org/1999/xlink">
    <title>总开关</title>
    <g id="页面-1" stroke="none" stroke-width="1" fill="none" fill-rule="evenodd">
        <g id="2" transform="translate(-475.000000, -1199.000000)">
            <g id="总开关" transform="translate(475.500000, 1199.000000)">
                <circle id="椭圆形" fill="#B5ABA1" cx="88.5" cy="88" r="88"></circle>
                <g id="开关" transform="translate(53.500000, 52.000000)" fill="#FFFFFF" fill-rule="nonzero">
                    <path d="M53.4005131,11.2971226 L53.4005131,11.2971226 C53.3854982,12.5529423 53.9053495,13.7540252 54.826255,14.5912074 C64.361421,23.1889074 66.9057336,37.2860387 60.9940794,48.7649288 C55.0824251,60.2438189 42.2364925,66.1497458 29.8534656,63.0818487 C17.4704387,60.0139517 8.73776862,48.7619222 8.68406403,35.8051134 C8.67102479,27.7411431 12.0706441,20.0610883 18.0161925,14.7229708 C18.9304388,13.8259878 19.44533,12.5887802 19.4419344,11.2971226 L19.4419344,11.2971226 C19.2996195,9.80784132 18.4140646,8.49756928 17.0975829,7.82840712 C15.7811012,7.15924496 14.2186584,7.22520994 12.9612896,8.00303784 C4.76723246,14.9465777 0.0207978928,25.2242237 0,36.0686402 C0.135469837,46.0284874 4.18510224,55.519238 11.2461188,62.4251332 C18.3071354,69.3310285 27.7925306,73.0779587 37.5877398,72.8306264 C52.4954847,72.2921193 65.585447,62.5980733 70.6603819,48.337988 C75.7353167,34.0779027 71.7767619,18.1135604 60.6588353,8.00303784 C59.3661894,6.88673975 57.5580739,6.62366509 56.0093126,7.32654807 C54.4605513,8.02943105 53.4460362,9.57351583 53.4005131,11.2971226 Z" id="路径"></path>
                    <rect id="矩形" x="31.7077541" y="0" width="9.4266296" height="45.092752" rx="4.7133148"></rect>
                </g>
            </g>
        </g>
    </g>
</svg>