<svg width="180" height="180" viewBox="0 0 180 180" fill="none" xmlns="http://www.w3.org/2000/svg">
<path d="M166.263 70.106H117.947C117.947 66.7902 116.526 64.4218 113.684 62.5271L83.3682 41.2113C77.684 36.9481 69.6313 36.4745 61.5787 39.7902L35.5261 49.2639C34.105 50.2113 30.7892 50.2113 27.9471 49.2639L15.1576 45.4745H14.6839H14.2103C9.94711 45.4745 6.63132 49.2639 6.63132 53.0534V82.8955C6.15763 90.0008 9.47342 91.8955 12.7892 93.3166C12.7892 93.3166 23.2103 97.5797 26.0524 99.0008C28.8945 100.422 37.8945 106.106 37.8945 106.106C42.1576 108.948 46.8945 110.843 52.105 110.843H67.2629V135.001C67.2629 139.264 70.5787 142.58 74.8419 142.58H165.789C170.052 142.58 173.368 139.264 173.368 135.001V77.685C173.842 73.4218 170.526 70.106 166.263 70.106ZM14.6839 87.1587C12.7892 86.2113 12.3155 86.2113 12.7892 82.8955V53.0534C12.7892 52.5797 13.2629 52.106 13.7366 52.106L25.105 55.8955C26.9997 56.3692 29.3682 56.8429 31.2629 56.8429C33.6313 56.8429 35.5261 56.3692 37.4208 55.4218L63.4734 45.9481C69.1576 43.5797 75.3155 43.5797 79.105 46.4218L109.421 67.7376C110.368 68.2113 110.842 69.1587 110.842 70.106H80.0524C73.8945 70.106 69.1576 74.8429 69.1576 81.0008C69.1576 85.2639 72.4734 89.0534 77.684 90.4745C84.3155 92.3692 86.684 92.8429 93.3155 93.7902C98.0524 94.2639 103.263 97.106 103.263 103.264C103.263 105.632 102.316 106.58 101.842 107.053C100.894 108.001 98.0524 109.422 90.4734 108.001C89.0524 107.527 84.3155 105.632 82.4208 105.159C80.5261 104.685 75.7892 104.685 74.8419 104.685H52.105C48.3155 104.685 44.5261 103.264 41.2103 100.896C40.7366 100.896 32.2103 95.2113 28.8945 93.3166C25.5787 91.8955 15.6313 87.6323 14.6839 87.1587ZM167.21 135.474C167.21 135.948 166.737 136.422 166.263 136.422H74.8419C74.3682 136.422 73.8945 135.948 73.8945 135.474V111.317H74.8419C77.2103 111.317 80.0524 111.317 80.9997 111.79C82.4208 112.264 86.2103 113.685 88.5787 114.159H89.5261C91.8945 114.632 94.2629 114.632 96.6313 114.632C100.894 114.632 104.684 113.685 107.052 111.79C108.947 110.369 110.842 107.527 110.842 102.79C110.842 94.7376 104.684 88.106 95.2103 86.685C88.5787 85.7376 86.684 85.2639 80.5261 83.3692C79.5787 82.8955 76.7366 82.4218 76.7366 80.5271C76.7366 78.1587 78.6313 76.2639 80.9997 76.2639H165.789C166.263 76.2639 166.737 76.7376 166.737 77.2113V135.474H167.21Z" fill="#26313D"/>
<path d="M120.789 97.5781C116.052 97.5781 111.789 101.368 111.789 106.578C111.789 111.315 115.579 115.578 120.789 115.578C125.526 115.578 129.789 111.789 129.789 106.578C129.789 101.841 126 97.5781 120.789 97.5781ZM120.789 108.947C119.368 108.947 118.421 107.999 118.421 106.578C118.421 105.157 119.368 104.21 120.789 104.21C122.21 104.21 123.157 105.157 123.157 106.578C123.157 107.999 122.21 108.947 120.789 108.947ZM137.368 99.9465C136.421 98.5255 134.052 98.0518 132.631 98.9992C131.21 99.9465 130.736 102.315 131.684 103.736C132.157 104.683 132.631 105.631 132.631 106.578C132.631 107.525 132.157 108.473 131.684 109.42C130.736 110.841 131.21 113.21 132.631 114.157C133.105 114.631 134.052 114.631 134.526 114.631C135.473 114.631 136.421 114.157 137.368 113.21C138.789 111.315 139.263 108.947 139.263 106.578C139.263 104.21 138.315 101.841 137.368 99.9465Z" fill="#26313D"/>
<path d="M144.948 95.2108C144 93.7897 141.632 93.316 140.211 94.2634C138.79 95.2108 138.316 97.5792 139.263 99.0002C140.684 101.369 141.632 104.211 141.632 107.053C141.632 109.895 140.684 112.737 139.263 115.105C138.316 116.527 138.79 118.895 140.211 119.842C140.684 120.316 141.632 120.316 142.105 120.316C143.053 120.316 144 119.842 144.948 118.895C147.316 115.579 148.737 111.316 148.737 107.053C148.263 102.316 147.316 98.5265 144.948 95.2108Z" fill="#26313D"/>
<path d="M147.316 89.0524C145.895 89.9998 145.421 92.3682 146.369 93.7893C148.737 97.5788 150.158 101.842 150.158 106.579C150.158 111.316 148.737 115.579 146.369 119.368C145.421 120.789 145.895 123.158 147.316 124.105C147.79 124.579 148.737 124.579 149.211 124.579C150.158 124.579 151.106 124.105 152.053 123.158C155.369 118.421 157.264 112.737 157.264 106.579C157.264 100.895 155.369 94.7367 152.053 89.9998C151.106 88.5788 149.211 88.1051 147.316 89.0524Z" fill="#26313D"/>
</svg>
