<svg width="12" height="12" viewBox="0 0 12 12" fill="none" xmlns="http://www.w3.org/2000/svg">
<path d="M10 1.33268H7.33333C7.33333 0.932682 7.06667 0.666016 6.66667 0.666016H6C5.6 0.666016 5.33333 0.932682 5.33333 1.33268H2.66667C2.26667 1.33268 2 1.59935 2 1.99935C2 2.39935 2.26667 2.66602 2.66667 2.66602H10C10.4 2.66602 10.6667 2.39935 10.6667 1.99935C10.6667 1.59935 10.4 1.33268 10 1.33268ZM3.26667 10.7327C3.26667 11.066 3.6 11.3327 3.93333 11.3327H8.73333C9.06667 11.3327 9.4 11.066 9.4 10.7327L10 3.33268H2.66667L3.26667 10.7327ZM7.33333 5.33268H8V9.33268H7.33333V5.33268ZM6 5.33268H6.66667V9.33268H6V5.33268ZM4.66667 5.33268H5.33333V9.33268H4.66667V5.33268Z" fill="#26313D"/>
</svg>
