<svg width="12" height="12" viewBox="0 0 12 12" fill="none" xmlns="http://www.w3.org/2000/svg">
<g clip-path="url(#clip0_521_1314)">
<path d="M11.5217 11.0341H0.48281C0.354761 11.0341 0.231956 11.085 0.141412 11.1755C0.0508673 11.2661 0 11.3889 0 11.5169C0 11.645 0.0508673 11.7678 0.141412 11.8583C0.231956 11.9489 0.354761 11.9997 0.48281 11.9997H11.5217C11.6498 11.9997 11.7726 11.9489 11.8631 11.8583C11.9537 11.7678 12.0045 11.645 12.0045 11.5169C12.0045 11.3889 11.9537 11.2661 11.8631 11.1755C11.7726 11.085 11.6498 11.0341 11.5217 11.0341ZM11.7217 2.7092C11.9028 2.52811 12.0045 2.2825 12.0045 2.02641C12.0045 1.77031 11.9028 1.52471 11.7217 1.34362L10.659 0.280864C10.4779 0.0997792 10.2323 -0.00195313 9.97617 -0.00195312C9.72007 -0.00195312 9.47447 0.0997792 9.29338 0.280864L8.94484 0.629402L11.3732 3.05774L11.7217 2.7092ZM4.00247 5.60606C3.96341 5.64542 3.93236 5.69199 3.91105 5.74319L2.54547 8.89145C2.50727 8.97142 2.49481 9.06126 2.5098 9.1486C2.52478 9.23594 2.56648 9.31649 2.62914 9.37915C2.6918 9.44181 2.77235 9.48351 2.85969 9.49849C2.94703 9.51348 3.03687 9.50102 3.11684 9.46282L6.28796 8.1201C6.33902 8.09854 6.38554 8.06752 6.42509 8.02868L10.6018 3.82909L8.17349 1.40647L4.00247 5.60606Z" fill="#26313D"/>
</g>
<defs>
<clipPath id="clip0_521_1314">
<rect width="12" height="12" fill="white"/>
</clipPath>
</defs>
</svg>
