<svg width="66" height="66" viewBox="0 0 66 66" fill="none" xmlns="http://www.w3.org/2000/svg">
<path d="M52.8 23.1H49.5V16.5C49.5 12.1239 47.7616 7.92709 44.6672 4.83274C41.5729 1.73839 37.376 0 33 0C28.6239 0 24.4271 1.73839 21.3327 4.83274C18.2384 7.92709 16.5 12.1239 16.5 16.5V23.1H13.2C11.4495 23.1 9.77081 23.7954 8.53307 25.0331C7.29533 26.2708 6.59998 27.9496 6.59998 29.7V59.4C6.59998 61.1504 7.29533 62.8292 8.53307 64.0669C9.77081 65.3046 11.4495 66 13.2 66H52.8C54.5504 66 56.2291 65.3046 57.4669 64.0669C58.7046 62.8292 59.4 61.1504 59.4 59.4V29.7C59.4 27.9496 58.7046 26.2708 57.4669 25.0331C56.2291 23.7954 54.5504 23.1 52.8 23.1ZM23.1 16.5C23.1 13.8744 24.143 11.3563 25.9996 9.49964C27.8562 7.64303 30.3743 6.6 33 6.6C35.6256 6.6 38.1437 7.64303 40.0003 9.49964C41.8569 11.3563 42.9 13.8744 42.9 16.5V23.1H23.1V16.5ZM52.8 59.4H13.2V29.7H52.8V59.4Z" fill="#26313D"/>
<path d="M33 52.7998C33.8752 52.7998 34.7145 52.4521 35.3334 51.8333C35.9523 51.2144 36.3 50.375 36.3 49.4998V39.5998C36.3 38.7246 35.9523 37.8852 35.3334 37.2663C34.7145 36.6475 33.8752 36.2998 33 36.2998C32.1247 36.2998 31.2854 36.6475 30.6665 37.2663C30.0476 37.8852 29.7 38.7246 29.7 39.5998V49.4998C29.7 50.375 30.0476 51.2144 30.6665 51.8333C31.2854 52.4521 32.1247 52.7998 33 52.7998Z" fill="#26313D"/>
</svg>
