<svg width="24" height="24" viewBox="0 0 24 24" fill="none" xmlns="http://www.w3.org/2000/svg">
<path fill-rule="evenodd" clip-rule="evenodd" d="M2.01978 11.9714C2.01978 6.45413 6.46805 2.00586 11.9853 2.00586C17.4566 2.00586 21.9508 6.44264 21.9508 11.9599C21.9508 17.4771 17.5025 21.9254 11.9853 21.9254C6.52552 21.9254 2.01978 17.4886 2.01978 11.9714ZM17.7669 15.4426C18.0658 15.4426 18.3301 15.2932 18.4795 14.9829C18.629 14.5691 18.4795 14.1553 18.0772 14.0059L12.6635 11.5576V6.50011C12.6635 6.08632 12.3071 5.73 11.8933 5.73C11.4795 5.73 11.1232 6.08632 11.1232 6.50011V12.0174C11.1232 12.3162 11.3301 12.6265 11.583 12.73L17.4566 15.3967C17.56 15.4426 17.6635 15.4426 17.7669 15.4426Z" fill="#26313D"/>
</svg>
