<svg width="66" height="66" viewBox="0 0 66 66" fill="none" xmlns="http://www.w3.org/2000/svg">
<g clip-path="url(#clip0_697_2069)">
<path d="M59.8001 23.0996C37.6894 23.0996 23.5001 23.0996 23.5001 23.0996H20.2001C18.4497 23.0996 16.7709 23.795 15.5332 25.0327C14.2955 26.2704 13.6001 27.9492 13.6001 29.6996V59.3996C13.6001 61.15 14.2955 62.8288 15.5332 64.0665C16.7709 65.3043 18.4497 65.9996 20.2001 65.9996H59.8001C61.5505 65.9996 63.2293 65.3043 64.467 64.0665C65.7047 62.8288 66.4001 61.15 66.4001 59.3996V29.6996C66.4001 27.9492 65.7047 26.2704 64.467 25.0327C63.2293 23.795 61.5505 23.0996 59.8001 23.0996ZM59.8001 59.3996H20.2001V29.6996H59.8001V59.3996Z" fill="#26313D"/>
<path d="M26.2778 23.1V16.5C26.2778 13.8744 25.2348 11.3563 23.3782 9.49964C21.5216 7.64303 19.0034 6.6 16.3778 6.6C13.7522 6.6 11.2341 7.64303 9.37745 9.49964C7.52084 11.3563 6.47781 13.8744 6.47781 16.5H-0.122192C-0.122192 12.1239 1.6162 7.92709 4.71054 4.83274C7.80489 1.73839 12.0017 0 16.3778 0C20.7539 0 24.9507 1.73839 28.0451 4.83274C31.1394 7.92709 32.8778 12.1239 32.8778 16.5V23.1C80.8459 23.1 -59.1547 23.1 26.2778 23.1Z" fill="#26313D"/>
<path d="M40 52.8008C40.8752 52.8008 41.7145 52.4531 42.3334 51.8342C42.9523 51.2154 43.3 50.376 43.3 49.5008V39.6008C43.3 38.7256 42.9523 37.8862 42.3334 37.2673C41.7145 36.6485 40.8752 36.3008 40 36.3008C39.1247 36.3008 38.2854 36.6485 37.6665 37.2673C37.0476 37.8862 36.7 38.7256 36.7 39.6008V49.5008C36.7 50.376 37.0476 51.2154 37.6665 51.8342C38.2854 52.4531 39.1247 52.8008 40 52.8008Z" fill="#26313D"/>
</g>
<defs>
<clipPath id="clip0_697_2069">
<rect width="66" height="66" fill="white"/>
</clipPath>
</defs>
</svg>
