<svg width="28" height="28" viewBox="0 0 28 28" fill="none" xmlns="http://www.w3.org/2000/svg">
<path d="M24.6203 11.6175C25.1527 11.6175 25.6329 11.2968 25.8368 10.8046C26.0408 10.313 25.9279 9.74639 25.5516 9.36959L19.5226 3.34111C19.323 3.1415 18.9998 3.1415 18.8002 3.34111L17.6602 4.48107C17.4606 4.68068 17.4606 5.00416 17.6602 5.2035L21.4413 8.98432H2.36031C2.08168 8.98432 1.85555 9.21018 1.85555 9.48908V11.113C1.85555 11.3917 2.0814 11.6178 2.36031 11.6178H24.6203V11.6175ZM25.6389 16.3712H3.38515C2.85277 16.3712 2.37262 16.692 2.16863 17.1842C1.96465 17.6758 2.07758 18.2424 2.45383 18.6192L8.48285 24.6479C8.68246 24.8475 9.00566 24.8475 9.20527 24.6479L10.3452 23.5079C10.5448 23.3083 10.5448 22.9849 10.3452 22.7855L6.56414 19.0044H25.6389C25.9211 19.0044 26.1496 18.7756 26.1496 18.4937V16.8823C26.1496 16.6001 25.9211 16.3712 25.6389 16.3712Z" fill="#342A73"/>
</svg>
