<svg width="24" height="25" viewBox="0 0 24 25" fill="none" xmlns="http://www.w3.org/2000/svg">
<path fill-rule="evenodd" clip-rule="evenodd" d="M2.01953 12.2595C2.01953 6.74222 6.46781 2.29395 11.985 2.29395C17.4563 2.29395 21.9506 6.73073 21.9506 12.248C21.9506 17.7652 17.5023 22.2135 11.985 22.2135C6.52528 22.2135 2.01953 17.7767 2.01953 12.2595ZM17.7667 15.7307C18.0655 15.7307 18.3299 15.5813 18.4793 15.271C18.6287 14.8572 18.4793 14.4434 18.077 14.2939L12.6632 11.8457V6.7882C12.6632 6.37441 12.3069 6.01808 11.8931 6.01808C11.4793 6.01808 11.123 6.37441 11.123 6.7882V12.3054C11.123 12.6043 11.3299 12.9146 11.5827 13.0181L17.4563 15.6848C17.5598 15.7307 17.6632 15.7307 17.7667 15.7307Z" fill="white"/>
</svg>
