<?xml version="1.0" encoding="UTF-8"?>
<svg width="198px" height="224px" viewBox="0 0 198 224" version="1.1" xmlns="http://www.w3.org/2000/svg" xmlns:xlink="http://www.w3.org/1999/xlink">
    <!-- Generator: Sketch 59.1 (86144) - https://sketch.com -->
    <title>积水点监测黑</title>
    <desc>Created with Sketch.</desc>
    <g id="页面-1" stroke="none" stroke-width="1" fill-rule="nonzero">
        <g id="切图" transform="translate(-65.000000, -72.000000)">
            <g id="黑白" transform="translate(65.000000, 72.000000)">
                <g id="积水点监测黑">
                    <path d="M197.381288,99.4256342 L176.977534,78.5874266 C176.561063,78.21127 176.325114,77.6773931 176.328397,77.1186331 L176.328397,28.9731288 C176.328397,27.7821042 175.355224,26.8165881 174.154755,26.8165881 L150.190956,26.8165881 C148.990487,26.8165881 148.017314,27.7821042 148.017314,28.9731288 L148.017314,45.5422389 C148.015721,46.1289626 147.657099,46.6566268 147.109446,46.8780431 C146.561794,47.0994593 145.933583,46.9707728 145.519104,46.5522676 L100.551852,0.655536774 C100.147125,0.236766474 99.5876742,0 99.0028967,0 C98.4181193,0 97.8586684,0.236766474 97.4539417,0.655536774 L0.624236885,99.4256342 C-0.71836991,100.801129 0.249962067,103.094153 2.1484731,103.094153 L19.4489437,103.094153 C20.0256015,103.093515 20.5788218,103.320525 20.9865555,103.725101 C21.3942892,104.129677 21.623031,104.678572 21.622317,105.250693 L21.622317,130.221782 C29.1940036,127.948144 37.0003879,126.530604 44.8929142,125.996135 C64.8288922,124.664091 83.5214071,128.982504 98.9725356,137.378618 C114.47337,145.780863 133.116179,150.093678 153.052426,148.761634 C161.196194,148.210104 168.965957,146.741577 176.323023,144.535987 L176.323023,105.245362 C176.322309,104.673241 176.551051,104.124345 176.958784,103.719769 C177.366518,103.315194 177.919738,103.088183 178.496396,103.088821 L195.796867,103.088821 C196.676641,103.100642 197.476825,102.585095 197.823794,101.782904 C198.170762,100.980712 197.996071,100.050116 197.381288,99.4256342 L197.381288,99.4256342 Z M198,157.891388 L198,173.48727 C184.678613,180.546152 169.502839,184.750803 153.545762,185.77679 C151.00357,185.957434 148.505441,186 146.001938,186 C128.052912,186 110.797334,181.891121 95.6712653,173.891124 C80.7262824,166.024273 63.3825794,162.452137 45.3841181,163.611011 C28.6844263,164.684755 13.140032,169.686732 0,178.13289 L0,162.537268 C13.3213868,155.430369 28.4971606,151.231169 44.4598801,150.247748 C65.0443271,148.908488 85.0787988,153.017107 102.334377,162.133414 C117.279091,170.000264 134.622794,173.572141 152.621255,172.413526 C169.321216,171.344974 184.859968,166.337805 198,157.891388 L198,157.891388 Z M198,195.890924 L198,211.485888 C184.678613,218.544355 169.502839,222.748759 153.545762,223.774686 C151.020179,223.939411 148.489154,224.013861 145.957875,223.997882 C128.052912,223.997882 110.797334,219.883795 95.6709967,211.889719 C80.7262824,203.980768 63.3825794,200.451405 45.3841181,201.610211 C28.6844263,202.683891 13.0959695,207.685574 0,216.179249 L0,200.536531 C13.3213868,193.43005 28.4971606,189.231097 44.4598801,188.247733 C65.0940318,186.908553 85.0787988,191.01693 102.334377,200.132441 C117.279091,207.998828 134.578732,211.570755 152.621255,210.412208 C169.321216,209.338528 184.859968,204.336845 198,195.890924 Z" id="形状"></path>
                </g>
            </g>
        </g>
    </g>
</svg>