<svg width="20" height="18" viewBox="0 0 20 18" fill="none" xmlns="http://www.w3.org/2000/svg">
<path d="M17.7812 17.7539H2.21875C1.14435 17.7539 0.273438 16.883 0.273438 15.8086V5.10938H19.7266V15.8086C19.7266 16.883 18.8556 17.7539 17.7812 17.7539ZM12.918 8.02734C12.918 7.49025 12.4825 7.05469 11.9453 7.05469C11.8487 7.05469 8.15127 7.05469 8.05469 7.05469C7.51759 7.05469 7.08203 7.49025 7.08203 8.02734C7.08203 8.56453 7.51759 9 8.05469 9C8.15127 9 8.46311 9 8.54102 9H10.7295L8.05469 14.3496C8.05469 14.6182 8.27247 14.8359 8.54102 14.8359H9.51367C9.78231 14.8359 10 14.6182 10 14.3496L12.918 8.51367C12.918 8.43577 12.918 8.12393 12.918 8.02734ZM0.273438 3.16406C0.273438 2.08966 1.14435 1.21875 2.21875 1.21875H4.2622C4.46402 0.654891 4.98974 0.246094 5.62305 0.246094C6.25635 0.246094 6.78205 0.654891 6.9839 1.21875H13.0161C13.2179 0.654891 13.7437 0.246094 14.377 0.246094C15.0103 0.246094 15.536 0.654891 15.7378 1.21875H17.7812C18.8556 1.21875 19.7266 2.08966 19.7266 3.16406V4.13672H0.273438V3.16406ZM13.8906 3.16406H14.8633V1.21875H13.8906V3.16406ZM5.13672 3.16406H6.10938V1.21875H5.13672V3.16406Z" fill="#26313D"/>
</svg>
