<?xml version="1.0" encoding="UTF-8"?>
<svg width="78px" height="78px" viewBox="0 0 78 78" version="1.1" xmlns="http://www.w3.org/2000/svg" xmlns:xlink="http://www.w3.org/1999/xlink">
    <!-- Generator: Sketch 59.1 (86144) - https://sketch.com -->
    <title>定时器2</title>
    <desc>Created with Sketch.</desc>
    <defs>
        <linearGradient x1="50%" y1="0%" x2="50%" y2="100%" id="linearGradient-1">
            <stop stop-color="#2CE74F" offset="0%"></stop>
            <stop stop-color="#00E1AD" offset="100%"></stop>
        </linearGradient>
        <path d="M72.6051948,42.5455571 C72.6051948,62.1247837 57.3366508,78 38.4877563,78 C19.6388619,78 4.40671389,62.1238974 4.40671389,42.5455571 C4.40671389,22.9672169 19.6388619,7.09111428 38.4877563,7.09111428 C57.3366508,7.09111428 72.6060412,22.9663306 72.6051948,42.5455571 L72.6051948,42.5455571 Z M38.1049738,23.2988596 C36.1816357,23.2988596 34.6224621,24.8580332 34.6224621,26.7813713 L34.6224621,46.9086978 L34.6224621,46.9086978 L34.6088983,46.9322475 L51.4519834,56.9366609 C53.0998196,57.9154385 55.2291107,57.3730594 56.2078883,55.7252232 C56.2225072,55.7006113 56.236821,55.6758195 56.2508265,55.6508534 C57.2189265,53.9251195 56.6340821,51.7422145 54.9328706,50.7316433 L41.5874855,42.80408 L41.5874855,42.80408 L41.5874855,26.7813713 C41.5874855,24.8580332 40.0283119,23.2988596 38.1049738,23.2988596 Z M21.5879381,1.59191951 C22.9705578,3.42920169 22.6512929,6.03117868 20.865503,7.47969426 L7.53438144,18.2930251 C5.8302454,19.6753085 3.32820815,19.4143953 1.94592483,17.7102592 C1.91557975,17.6728486 1.88591754,17.6348891 1.85695292,17.5963997 C0.474333253,15.7591175 0.793598094,13.1571405 2.57938801,11.708625 L15.9105096,0.895294084 C17.6146456,-0.486989231 20.1166829,-0.226076041 21.4989662,1.47806 C21.5293113,1.51547067 21.5589735,1.55343012 21.5879381,1.59191951 Z M56.4120619,1.59191951 C55.0294422,3.42920169 55.3487071,6.03117868 57.134497,7.47969426 L70.4656186,18.2930251 C72.1697546,19.6753085 74.6717919,19.4143953 76.0540752,17.7102592 C76.0844202,17.6728486 76.1140825,17.6348891 76.1430471,17.5963997 C77.5256667,15.7591175 77.2064019,13.1571405 75.420612,11.708625 L62.0894904,0.895294084 C60.3853544,-0.486989231 57.8833171,-0.226076041 56.5010338,1.47806 C56.4706887,1.51547067 56.4410265,1.55343012 56.4120619,1.59191951 Z" id="path-2"></path>
        <filter x="-201.3%" y="-188.5%" width="502.6%" height="492.3%" filterUnits="objectBoundingBox" id="filter-3">
            <feOffset dx="0" dy="6" in="SourceAlpha" result="shadowOffsetOuter1"></feOffset>
            <feGaussianBlur stdDeviation="50" in="shadowOffsetOuter1" result="shadowBlurOuter1"></feGaussianBlur>
            <feColorMatrix values="0 0 0 0 0.125490196   0 0 0 0 0.127812629   0 0 0 0 0.129411765  0 0 0 0.1 0" type="matrix" in="shadowBlurOuter1"></feColorMatrix>
        </filter>
    </defs>
    <g id="页面-1" stroke="none" stroke-width="1" fill="none" fill-rule="evenodd">
        <g id="1备份" transform="translate(-326.000000, -574.000000)">
            <g id="编组" transform="translate(153.000000, 56.000000)">
                <g id="多彩" transform="translate(0.000000, 321.000000)">
                    <g id="定时器2" transform="translate(173.000000, 197.000000)">
                        <g id="形状">
                            <use fill="black" fill-opacity="1" filter="url(#filter-3)" xlink:href="#path-2"></use>
                            <use fill="url(#linearGradient-1)" fill-rule="evenodd" xlink:href="#path-2"></use>
                        </g>
                    </g>
                </g>
            </g>
        </g>
    </g>
</svg>