<?xml version="1.0" encoding="UTF-8"?>
<svg width="311px" height="311px" viewBox="0 0 311 311" version="1.1" xmlns="http://www.w3.org/2000/svg" xmlns:xlink="http://www.w3.org/1999/xlink">
    <title>晚安</title>
    <defs>
        <linearGradient x1="50%" y1="-19.9794671%" x2="50%" y2="100%" id="linearGradient-1">
            <stop stop-color="#EEF0F3" offset="0%"></stop>
            <stop stop-color="#A9ABAE" offset="100%"></stop>
        </linearGradient>
        <linearGradient x1="50%" y1="-19.9794671%" x2="50%" y2="100%" id="linearGradient-2">
            <stop stop-color="#EEF0F3" offset="0%"></stop>
            <stop stop-color="#A9ABAE" offset="100%"></stop>
        </linearGradient>
    </defs>
    <g id="页面-1" stroke="none" stroke-width="1" fill="none" fill-rule="evenodd">
        <g id="4" transform="translate(-410.000000, -889.000000)" fill-rule="nonzero">
            <g id="编组-6" transform="translate(213.000000, 694.000000)">
                <g id="温度显示表">
                    <g id="晚安" transform="translate(197.000000, 195.000000)">
                        <path d="M310.161558,210.453875 C309.043635,209.338888 305.689865,209.338888 302.336096,210.453875 C269.916326,224.948712 236.378632,227.178687 201.723016,219.373774 C135.765552,202.648963 88.8127808,144.669617 85.4590112,75.5403975 C85.4590112,52.1256619 89.9307037,29.8259135 99.9920118,8.64115231 C101.109935,5.29619019 103.345781,4.18120256 99.9920118,0.836240433 C96.6382425,-0.278746811 95.5203192,-0.278746811 91.0486271,0.836240433 C76.5156265,8.64115231 61.9826259,16.4460642 51.9213178,28.7109258 C21.7373937,56.5856112 4.9685468,90.0352336 0.496854641,130.174781 C0.496854641,133.519743 -0.621068301,150.244555 0.496854641,153.589517 L0.496854641,158.049466 C0.496854641,172.544303 3.85062386,185.924152 8.32231641,198.189014 C27.3270096,259.513321 83.2231653,302.997831 145.826859,309.687755 C168.185322,313.032717 189.425861,309.687755 211.784324,302.997831 C255.383325,288.502994 288.921019,260.628309 310.161558,218.258787 L310.161558,217.143799 C311.279481,214.913825 311.279481,213.798837 310.161558,210.453875 Z" id="路径" fill="url(#linearGradient-1)"></path>
                        <polygon id="路径" fill="url(#linearGradient-2)" points="176.964706 125 194.094118 73.3000002 223 64.5 194.094118 52.3999999 176.964706 4 159.835294 52.3999999 132 64.5 159.835294 73.3000002"></polygon>
                    </g>
                </g>
            </g>
        </g>
    </g>
</svg>