<?xml version="1.0" encoding="UTF-8"?>
<svg width="66px" height="66px" viewBox="0 0 66 66" version="1.1" xmlns="http://www.w3.org/2000/svg" xmlns:xlink="http://www.w3.org/1999/xlink">
    <!-- Generator: Sketch 59.1 (86144) - https://sketch.com -->
    <title>倒计时</title>
    <desc>Created with Sketch.</desc>
    <g id="页面-1" stroke="none" stroke-width="1" fill-rule="evenodd">
        <g id="4" transform="translate(-146.000000, -926.000000)">
            <g id="倒计时" transform="translate(80.000000, 864.000000)">
                <path d="M100.297071,98.1842254 C100.514644,97.971831 100.698745,97.7104225 100.8159,97.416338 C100.933054,97.1222535 101,96.828169 101,96.5177465 L101,82.336338 C101,81.0456338 99.9456067,80 98.623431,80 C97.3179916,80 96.2468619,81.0456338 96.2468619,82.336338 L96.2468619,95.5374648 L86.6903766,104.997183 C85.7698745,105.912113 85.7698745,107.398873 86.6903766,108.313803 C87.1589958,108.771268 87.7615063,109 88.3640167,109 C88.9665272,109 89.5690377,108.771268 90.0376569,108.313803 L100.297071,98.1842254 L100.297071,98.1842254 Z M99,68 C114.465882,68 127,80.7157779 127,96.4002199 C127,103.557999 124.364706,110.072567 120.065882,115.069819 L124.842353,119.918637 C126.670588,121.765805 126.670588,124.767455 124.842353,126.614623 C123.936471,127.538208 122.734118,128 121.548235,128 C120.362353,128 119.16,127.538208 118.254118,126.614623 L112.802353,121.08961 C108.734118,123.431556 104.023529,124.80044 99,124.80044 C93.9764706,124.80044 89.2823529,123.448048 85.1976471,121.08961 L79.7458824,126.614623 C78.84,127.538208 77.6376471,128 76.4517647,128 C75.2494118,128 74.0635294,127.538208 73.1576471,126.614623 C71.3294118,124.767455 71.3294118,121.765805 73.1576471,119.918637 L77.9341176,115.069819 C73.6352941,110.072567 71,103.557999 71,96.4002199 C71,80.7157779 83.5341176,68 99,68 Z M113,66.5460123 C114.891703,63.8150745 118.011354,62 121.562445,62 C127.320524,62 132,66.745837 132,72.607362 C132,76.0376862 130.373799,79.0683611 127.884716,81 C124.582533,74.7055215 119.355459,69.6432954 113,66.5460123 L113,66.5460123 Z M76.4741455,62 C80.0043821,62 83.1016652,63.784899 85,66.4872695 C78.6389132,69.5899912 73.3935145,74.6944688 70.0964067,81 C67.6319018,79.0649693 66,76.0623354 66,72.6259877 C66,66.7541703 70.6958808,62 76.4741455,62 Z"></path>
            </g>
        </g>
    </g>
</svg>