<?xml version="1.0" encoding="UTF-8"?>
<svg width="60px" height="72px" viewBox="0 0 60 72" version="1.1" xmlns="http://www.w3.org/2000/svg" xmlns:xlink="http://www.w3.org/1999/xlink">
    <!-- Generator: Sketch 59.1 (86144) - https://sketch.com -->
    <title>灯光</title>
    <desc>Created with Sketch.</desc>
    <g id="页面-1" stroke="none" stroke-width="1" fill-rule="evenodd">
        <g id="7" transform="translate(-158.000000, -928.000000)">
            <g id="声音备份" transform="translate(80.000000, 864.000000)">
                <g id="灯光" transform="translate(78.000000, 64.000000)">
                    <path d="M28.066508,0.066930395 C15.3242297,0.84132154 4.47650071,9.785525 1.07863452,22.3190564 C-2.31923167,34.8525877 2.48528597,48.1996619 13.0317092,55.5250066 C14.5593515,56.6565755 15.4514891,58.4740782 15.423609,60.397892 L15.423609,65.9669038 C15.423609,69.2988908 18.0753367,72 21.3464085,72 L38.8870071,72 C42.1135129,71.9367847 44.6965035,69.2541027 44.6959067,65.9669038 L44.6959067,60.397892 C44.6941233,58.4527979 45.6309317,56.6310402 47.2017065,55.5250066 C58.221934,47.6798845 62.7609138,33.3167035 58.3028875,20.396348 C53.8448611,7.47599255 41.4820039,-0.836169559 28.066508,0.066930395 Z M44.5897868,50.3476695 C41.595928,52.5115655 39.8076086,56.064656 39.8016123,59.8609686 L39.8016123,62.9933964 C39.8320036,63.7209696 39.5756495,64.4298725 39.0920136,64.955669 C38.6083777,65.4814655 37.9394868,65.7784653 37.2404957,65.7777778 L24.6576186,65.7777778 C23.2253135,65.7155446 22.0952571,64.4869763 22.096502,62.9933964 L22.096502,59.9769845 C22.1159711,56.2019853 20.3713383,52.653162 17.4196804,50.4636854 C8.8202541,44.3563995 5.0466854,33.1218417 8.11449841,22.7605708 C11.1823114,12.3992999 20.3747678,5.33203747 30.7820278,5.33333333 L30.7820278,5.33333333 C41.1886836,5.29138455 50.417946,12.2900491 53.5785658,22.6204212 C56.7391857,32.9507933 53.1000454,44.2232414 44.5897868,50.4636854 L44.5897868,50.3476695 Z" id="形状" fill-rule="nonzero"></path>
                    <rect id="矩形" fill-rule="nonzero" x="19" y="52" width="25" height="5"></rect>
                    <circle id="椭圆形" cx="30" cy="30" r="26"></circle>
                </g>
            </g>
        </g>
    </g>
</svg>