<svg width="49" height="60" viewBox="0 0 49 60" fill="none" xmlns="http://www.w3.org/2000/svg">
<path d="M38.84 17.4283L38.5501 17.353C38.9542 19.3208 38.8309 21.3412 38.1765 23.4133C37.1964 26.5142 36.5952 26.5142 35.5542 29.8867C35.3389 29.5884 33.96 27.4715 35.1372 23.4095C36.042 18.7098 33.7142 13.9888 30.4817 9.14531C27.3503 4.44563 22.7305 0.901852 18.3741 0.0100098H18.1579L18.2333 0.229927C19.6517 7.40195 15.6156 11.139 10.855 15.3113C6.09448 19.4875 0.890293 24.2967 0.0950926 33.6512C-0.928396 45.9566 7.13928 54.6125 12.0147 58.6045C12.3047 58.8244 12.5992 58.899 12.9233 58.899C13.4332 58.899 13.8289 58.6799 14.1226 58.307C14.3948 57.9008 14.4234 57.3784 14.1972 56.9449C10.346 46.8873 18.2333 40.4146 20.7414 38.6446C18.6686 50.8892 28.8486 60.5153 31.1186 59.7163C40.4464 56.4533 46.4717 49.8611 47.9654 40.9731C49.5604 31.4421 45.5281 20.9021 38.84 17.4283Z" fill="white"/>
</svg>
