<svg width="25" height="27" viewBox="0 0 25 27" fill="none" xmlns="http://www.w3.org/2000/svg">
<path d="M12.42 16.74C13.6132 16.74 14.58 15.8515 14.58 14.7562V1.98499C14.58 0.888492 13.6132 0 12.42 0C11.2269 0 10.26 0.888492 10.26 1.98499V14.7562C10.26 15.8515 11.2268 16.74 12.42 16.74Z" fill="white"/>
<path d="M20.6862 5.92314C19.8534 5.20069 18.5751 5.27075 17.8316 6.08099C17.0883 6.89036 17.1612 8.13239 17.9944 8.85484C19.7174 10.3532 20.7953 12.5096 20.7961 14.9292C20.7882 19.4247 17.0454 23.0622 12.4201 23.0695C7.79492 23.0622 4.05163 19.4247 4.0443 14.9292C4.04489 12.4982 5.13294 10.3339 6.86964 8.83502C7.70579 8.11583 7.78262 6.87337 7.04251 6.06193C6.30164 5.24959 5.02452 5.1744 4.18896 5.89416L4.18837 5.89313C1.62509 8.09774 -0.000723027 11.3377 2.41219e-07 14.9292C0.0011838 21.5966 5.56024 26.9989 12.4201 26.9999C19.2799 26.9989 24.839 21.5966 24.84 14.9292C24.8407 11.3533 23.2302 8.12589 20.6862 5.92314Z" fill="white"/>
</svg>
