<svg width="60" height="60" viewBox="0 0 60 60" fill="none" xmlns="http://www.w3.org/2000/svg">
<g opacity="0.7">
<mask id="path-1-outside-1_1156_25610" maskUnits="userSpaceOnUse" x="7" y="17" width="46" height="26" fill="black">
<rect fill="white" x="7" y="17" width="46" height="26"/>
<path fill-rule="evenodd" clip-rule="evenodd" d="M8 20C8 18.8954 8.89543 18 10 18H50C51.1046 18 52 18.8954 52 20C52 21.1046 51.1046 22 50 22H10C8.89543 22 8 21.1046 8 20ZM8 40C8 38.8954 8.89543 38 10 38H50C51.1046 38 52 38.8954 52 40C52 41.1046 51.1046 42 50 42H10C8.89543 42 8 41.1046 8 40ZM14 26C12.8954 26 12 26.8954 12 28V32C12 33.1046 12.8954 34 14 34C15.1046 34 16 33.1046 16 32V28C16 26.8954 15.1046 26 14 26ZM20 28C20 26.8954 20.8954 26 22 26C23.1046 26 24 26.8954 24 28V32C24 33.1046 23.1046 34 22 34C20.8954 34 20 33.1046 20 32V28ZM30 26C28.8954 26 28 26.8954 28 28V32C28 33.1046 28.8954 34 30 34C31.1046 34 32 33.1046 32 32V28C32 26.8954 31.1046 26 30 26ZM36 28C36 26.8954 36.8954 26 38 26C39.1046 26 40 26.8954 40 28V32C40 33.1046 39.1046 34 38 34C36.8954 34 36 33.1046 36 32V28ZM46 26C44.8954 26 44 26.8954 44 28V32C44 33.1046 44.8954 34 46 34C47.1046 34 48 33.1046 48 32V28C48 26.8954 47.1046 26 46 26Z"/>
</mask>
<path fill-rule="evenodd" clip-rule="evenodd" d="M8 20C8 18.8954 8.89543 18 10 18H50C51.1046 18 52 18.8954 52 20C52 21.1046 51.1046 22 50 22H10C8.89543 22 8 21.1046 8 20ZM8 40C8 38.8954 8.89543 38 10 38H50C51.1046 38 52 38.8954 52 40C52 41.1046 51.1046 42 50 42H10C8.89543 42 8 41.1046 8 40ZM14 26C12.8954 26 12 26.8954 12 28V32C12 33.1046 12.8954 34 14 34C15.1046 34 16 33.1046 16 32V28C16 26.8954 15.1046 26 14 26ZM20 28C20 26.8954 20.8954 26 22 26C23.1046 26 24 26.8954 24 28V32C24 33.1046 23.1046 34 22 34C20.8954 34 20 33.1046 20 32V28ZM30 26C28.8954 26 28 26.8954 28 28V32C28 33.1046 28.8954 34 30 34C31.1046 34 32 33.1046 32 32V28C32 26.8954 31.1046 26 30 26ZM36 28C36 26.8954 36.8954 26 38 26C39.1046 26 40 26.8954 40 28V32C40 33.1046 39.1046 34 38 34C36.8954 34 36 33.1046 36 32V28ZM46 26C44.8954 26 44 26.8954 44 28V32C44 33.1046 44.8954 34 46 34C47.1046 34 48 33.1046 48 32V28C48 26.8954 47.1046 26 46 26Z" fill="#30414D"/>
<path d="M10 17.1667C8.43519 17.1667 7.16667 18.4352 7.16667 20H8.83333C8.83333 19.3557 9.35567 18.8333 10 18.8333V17.1667ZM50 17.1667H10V18.8333H50V17.1667ZM52.8333 20C52.8333 18.4352 51.5648 17.1667 50 17.1667V18.8333C50.6443 18.8333 51.1667 19.3557 51.1667 20H52.8333ZM50 22.8333C51.5648 22.8333 52.8333 21.5648 52.8333 20H51.1667C51.1667 20.6443 50.6443 21.1667 50 21.1667V22.8333ZM10 22.8333H50V21.1667H10V22.8333ZM7.16667 20C7.16667 21.5648 8.43519 22.8333 10 22.8333V21.1667C9.35567 21.1667 8.83333 20.6443 8.83333 20H7.16667ZM10 37.1667C8.43519 37.1667 7.16667 38.4352 7.16667 40H8.83333C8.83333 39.3557 9.35567 38.8333 10 38.8333V37.1667ZM50 37.1667H10V38.8333H50V37.1667ZM52.8333 40C52.8333 38.4352 51.5648 37.1667 50 37.1667V38.8333C50.6443 38.8333 51.1667 39.3557 51.1667 40H52.8333ZM50 42.8333C51.5648 42.8333 52.8333 41.5648 52.8333 40H51.1667C51.1667 40.6443 50.6443 41.1667 50 41.1667V42.8333ZM10 42.8333H50V41.1667H10V42.8333ZM7.16667 40C7.16667 41.5648 8.43519 42.8333 10 42.8333V41.1667C9.35567 41.1667 8.83333 40.6443 8.83333 40H7.16667ZM12.8333 28C12.8333 27.3557 13.3557 26.8333 14 26.8333V25.1667C12.4352 25.1667 11.1667 26.4352 11.1667 28H12.8333ZM12.8333 32V28H11.1667V32H12.8333ZM14 33.1667C13.3557 33.1667 12.8333 32.6443 12.8333 32H11.1667C11.1667 33.5648 12.4352 34.8333 14 34.8333V33.1667ZM15.1667 32C15.1667 32.6443 14.6443 33.1667 14 33.1667V34.8333C15.5648 34.8333 16.8333 33.5648 16.8333 32H15.1667ZM15.1667 28V32H16.8333V28H15.1667ZM14 26.8333C14.6443 26.8333 15.1667 27.3557 15.1667 28H16.8333C16.8333 26.4352 15.5648 25.1667 14 25.1667V26.8333ZM22 25.1667C20.4352 25.1667 19.1667 26.4352 19.1667 28H20.8333C20.8333 27.3557 21.3557 26.8333 22 26.8333V25.1667ZM24.8333 28C24.8333 26.4352 23.5648 25.1667 22 25.1667V26.8333C22.6443 26.8333 23.1667 27.3557 23.1667 28H24.8333ZM24.8333 32V28H23.1667V32H24.8333ZM22 34.8333C23.5648 34.8333 24.8333 33.5648 24.8333 32H23.1667C23.1667 32.6443 22.6443 33.1667 22 33.1667V34.8333ZM19.1667 32C19.1667 33.5648 20.4352 34.8333 22 34.8333V33.1667C21.3557 33.1667 20.8333 32.6443 20.8333 32H19.1667ZM19.1667 28V32H20.8333V28H19.1667ZM28.8333 28C28.8333 27.3557 29.3557 26.8333 30 26.8333V25.1667C28.4352 25.1667 27.1667 26.4352 27.1667 28H28.8333ZM28.8333 32V28H27.1667V32H28.8333ZM30 33.1667C29.3557 33.1667 28.8333 32.6443 28.8333 32H27.1667C27.1667 33.5648 28.4352 34.8333 30 34.8333V33.1667ZM31.1667 32C31.1667 32.6443 30.6443 33.1667 30 33.1667V34.8333C31.5648 34.8333 32.8333 33.5648 32.8333 32H31.1667ZM31.1667 28V32H32.8333V28H31.1667ZM30 26.8333C30.6443 26.8333 31.1667 27.3557 31.1667 28H32.8333C32.8333 26.4352 31.5648 25.1667 30 25.1667V26.8333ZM38 25.1667C36.4352 25.1667 35.1667 26.4352 35.1667 28H36.8333C36.8333 27.3557 37.3557 26.8333 38 26.8333V25.1667ZM40.8333 28C40.8333 26.4352 39.5648 25.1667 38 25.1667V26.8333C38.6443 26.8333 39.1667 27.3557 39.1667 28H40.8333ZM40.8333 32V28H39.1667V32H40.8333ZM38 34.8333C39.5648 34.8333 40.8333 33.5648 40.8333 32H39.1667C39.1667 32.6443 38.6443 33.1667 38 33.1667V34.8333ZM35.1667 32C35.1667 33.5648 36.4352 34.8333 38 34.8333V33.1667C37.3557 33.1667 36.8333 32.6443 36.8333 32H35.1667ZM35.1667 28V32H36.8333V28H35.1667ZM44.8333 28C44.8333 27.3557 45.3557 26.8333 46 26.8333V25.1667C44.4352 25.1667 43.1667 26.4352 43.1667 28H44.8333ZM44.8333 32V28H43.1667V32H44.8333ZM46 33.1667C45.3557 33.1667 44.8333 32.6443 44.8333 32H43.1667C43.1667 33.5648 44.4352 34.8333 46 34.8333V33.1667ZM47.1667 32C47.1667 32.6443 46.6443 33.1667 46 33.1667V34.8333C47.5648 34.8333 48.8333 33.5648 48.8333 32H47.1667ZM47.1667 28V32H48.8333V28H47.1667ZM46 26.8333C46.6443 26.8333 47.1667 27.3557 47.1667 28H48.8333C48.8333 26.4352 47.5648 25.1667 46 25.1667V26.8333Z" fill="#30414D" mask="url(#path-1-outside-1_1156_25610)"/>
</g>
</svg>
