<svg width="24" height="24" viewBox="0 0 24 24" fill="none" xmlns="http://www.w3.org/2000/svg">
<path fill-rule="evenodd" clip-rule="evenodd" d="M2.01953 11.9714C2.01953 6.4542 6.46781 2.00592 11.985 2.00592C17.4563 2.00592 21.9506 6.4427 21.9506 11.9599C21.9506 17.4772 17.5023 21.9255 11.985 21.9255C6.52528 21.9255 2.01953 17.4887 2.01953 11.9714ZM17.7667 15.4427C18.0655 15.4427 18.3299 15.2933 18.4793 14.9829C18.6287 14.5691 18.4793 14.1553 18.077 14.0059L12.6632 11.5576V6.50017C12.6632 6.08638 12.3069 5.73006 11.8931 5.73006C11.4793 5.73006 11.123 6.08638 11.123 6.50017V12.0174C11.123 12.3163 11.3299 12.6266 11.5827 12.7301L17.4563 15.3967C17.5598 15.4427 17.6632 15.4427 17.7667 15.4427Z" fill="#30414D"/>
</svg>
