<?xml version="1.0" encoding="UTF-8"?>
<svg width="95px" height="95px" viewBox="0 0 95 95" version="1.1" xmlns="http://www.w3.org/2000/svg" xmlns:xlink="http://www.w3.org/1999/xlink">
    <!-- Generator: Sketch 59.1 (86144) - https://sketch.com -->
    <title>烤鱼虾</title>
    <desc>Created with Sketch.</desc>
    <defs>
        <path d="M20.6927536,30.3370787 L36.3913043,30.3370787 L64.2898551,30.3370787 L64.2898551,20.6313585 L52.6956522,5.83406537 L47.5043478,5.83406537 L36.3913043,20.6313585 L29.9884058,20.6313585 C29.9884058,20.6313585 27.5623188,16.811951 27.2463768,14.0783963 L27.2463768,14.0783963 C26.7449275,13.6621042 0,0.832737487 0,0.832737487 L0,0.832737487 C0,20.0724208 20.6927536,30.3370787 20.6927536,30.3370787" id="path-1"></path>
        <linearGradient x1="50.0006713%" y1="-0.00370991613%" x2="50.0006713%" y2="100%" id="linearGradient-3">
            <stop stop-color="#1854FE" offset="0%"></stop>
            <stop stop-color="#FFFFFF" offset="100%"></stop>
        </linearGradient>
        <path d="M0,28.038418 L27.1425,41.4368899 C27.1425,41.4368899 25.5745875,31.6722013 32.109,24.389911 L32.109,24.389911 C32.109,24.389911 4.4092125,10.4437213 4.868325,0.552409888 L4.868325,0.552409888 C4.868325,0.552409888 0.7594125,9.14215551 0,28.038418" id="path-4"></path>
        <linearGradient x1="50.0043345%" y1="-0.00144122731%" x2="50.0043345%" y2="99.995116%" id="linearGradient-6">
            <stop stop-color="#1A55FD" offset="0%"></stop>
            <stop stop-color="#FFFFFF" offset="100%"></stop>
        </linearGradient>
        <path d="M11.3448889,0.39347191 C9.65488889,0.39347191 8.26533333,1.76298876 8.21911111,3.48148315 L8.21911111,3.48148315 C8.17,5.27329213 9.58555556,6.75131461 11.3477778,6.74838202 L11.3477778,6.74838202 L73.8113333,6.68973034 C74.6231111,6.68973034 75.3944444,6.99765169 75.9808889,7.56364045 L75.9808889,7.56364045 C77.2837778,8.83051685 79.0431111,11.5108989 77.226,15.8980449 L77.226,15.8980449 L68.1866667,15.8628539 L65.5837778,15.9127079 L25.3588889,15.8540562 C24.9948889,15.8540562 24.6511111,15.8804494 24.2928889,15.9420337 L24.2928889,15.9420337 C21.1613333,16.4874944 5.81844444,19.7719888 0.534666667,32.2647978 L0.534666667,32.2647978 C0.335333333,32.7310787 0.225555556,33.2472135 0.274666667,33.7545506 L0.274666667,33.7545506 C0.526,36.311764 3.44088889,43.9628764 26.4768889,56.0216629 L26.4768889,56.0216629 C27.1211111,56.3589101 27.8577778,56.4703483 28.5655556,56.3178539 L28.5655556,56.3178539 C34.456,55.0627079 62.7324444,48.6022247 72.5488889,38.3323146 L72.5488889,38.3323146 C72.5488889,38.3323146 82.1544444,29.5609551 83.4486667,15.9361685 L83.4486667,15.9361685 L83.6855556,12.5695618 C84.2026667,3.85685393 79.6786667,1.24685393 78.0348889,0.589955056 L78.0348889,0.589955056 C77.6911111,0.449191011 77.3271111,0.39347191 76.9573333,0.39347191 L76.9573333,0.39347191 L11.3448889,0.39347191 Z" id="path-7"></path>
        <linearGradient x1="50.0001911%" y1="0.000979423876%" x2="50.0001911%" y2="99.9996329%" id="linearGradient-9">
            <stop stop-color="#205AFA" offset="0%"></stop>
            <stop stop-color="#FFFFFF" offset="100%"></stop>
        </linearGradient>
        <path d="M54.9182692,5.17922191 L14.4471154,5.17922191 C8.57692308,5.51641854 0.618269231,9.90293258 0.618269231,9.90293258 L0.618269231,9.90293258 L55.6826923,9.90293258 C56.7269231,11.5356742 58.5240385,12.6182528 60.5692308,12.6182528 L60.5692308,12.6182528 C62.6144231,12.6182528 64.4086538,11.5356742 65.4557692,9.90293258 L65.4557692,9.90293258 L71.675,9.90293258 C72.7596154,6.26475843 72.2807692,5.17922191 72.2807692,5.17922191 L72.2807692,5.17922191 L66.2201923,5.17922191 C65.5884615,2.57038483 63.3038462,0.632983146 60.5692308,0.632983146 L60.5692308,0.632983146 C57.8288462,0.632983146 55.55,2.57038483 54.9182692,5.17922191" id="path-10"></path>
    </defs>
    <g id="页面-1" stroke="none" stroke-width="1" fill="none" fill-rule="evenodd">
        <g id="切图" transform="translate(-456.000000, -2561.000000)">
            <g id="多彩" transform="translate(18.000000, 2561.000000)">
                <g id="工作模式" transform="translate(8.000000, 0.000000)">
                    <g id="烤鱼虾" transform="translate(433.000000, 2.000000)">
                        <g id="编组">
                            <g transform="translate(0.000000, 59.662921)">
                                <mask id="mask-2" fill="white">
                                    <use xlink:href="#path-1"></use>
                                </mask>
                                <g id="Clip-2"></g>
                                <path d="M20.6927536,30.3370787 L36.3913043,30.3370787 L64.2898551,30.3370787 L64.2898551,20.6313585 L52.6956522,5.83406537 L47.5043478,5.83406537 L36.3913043,20.6313585 L29.9884058,20.6313585 C29.9884058,20.6313585 27.5623188,16.811951 27.2463768,14.0783963 L27.2463768,14.0783963 C26.7449275,13.6621042 0,0.832737487 0,0.832737487 L0,0.832737487 C0,20.0724208 20.6927536,30.3370787 20.6927536,30.3370787" id="Fill-1" fill="url(#linearGradient-3)" mask="url(#mask-2)"></path>
                            </g>
                            <g transform="translate(0.000000, 32.359551)">
                                <mask id="mask-5" fill="white">
                                    <use xlink:href="#path-4"></use>
                                </mask>
                                <g id="Clip-4"></g>
                                <path d="M0,28.038418 L27.1425,41.4368899 C27.1425,41.4368899 25.5745875,31.6722013 32.109,24.389911 L32.109,24.389911 C32.109,24.389911 4.4092125,10.4437213 4.868325,0.552409888 L4.868325,0.552409888 C4.868325,0.552409888 0.7594125,9.14215551 0,28.038418" id="Fill-3" fill="url(#linearGradient-6)" mask="url(#mask-5)"></path>
                            </g>
                            <g transform="translate(5.000000, 0.000000)">
                                <mask id="mask-8" fill="white">
                                    <use xlink:href="#path-7"></use>
                                </mask>
                                <g id="Clip-6"></g>
                                <path d="M11.3448889,0.39347191 C9.65488889,0.39347191 8.26533333,1.76298876 8.21911111,3.48148315 L8.21911111,3.48148315 C8.17,5.27329213 9.58555556,6.75131461 11.3477778,6.74838202 L11.3477778,6.74838202 L73.8113333,6.68973034 C74.6231111,6.68973034 75.3944444,6.99765169 75.9808889,7.56364045 L75.9808889,7.56364045 C77.2837778,8.83051685 79.0431111,11.5108989 77.226,15.8980449 L77.226,15.8980449 L68.1866667,15.8628539 L65.5837778,15.9127079 L25.3588889,15.8540562 C24.9948889,15.8540562 24.6511111,15.8804494 24.2928889,15.9420337 L24.2928889,15.9420337 C21.1613333,16.4874944 5.81844444,19.7719888 0.534666667,32.2647978 L0.534666667,32.2647978 C0.335333333,32.7310787 0.225555556,33.2472135 0.274666667,33.7545506 L0.274666667,33.7545506 C0.526,36.311764 3.44088889,43.9628764 26.4768889,56.0216629 L26.4768889,56.0216629 C27.1211111,56.3589101 27.8577778,56.4703483 28.5655556,56.3178539 L28.5655556,56.3178539 C34.456,55.0627079 62.7324444,48.6022247 72.5488889,38.3323146 L72.5488889,38.3323146 C72.5488889,38.3323146 82.1544444,29.5609551 83.4486667,15.9361685 L83.4486667,15.9361685 L83.6855556,12.5695618 C84.2026667,3.85685393 79.6786667,1.24685393 78.0348889,0.589955056 L78.0348889,0.589955056 C77.6911111,0.449191011 77.3271111,0.39347191 76.9573333,0.39347191 L76.9573333,0.39347191 L11.3448889,0.39347191 Z" id="Fill-5" fill="url(#linearGradient-9)" mask="url(#mask-8)"></path>
                            </g>
                            <g transform="translate(16.000000, 11.123596)">
                                <mask id="mask-11" fill="white">
                                    <use xlink:href="#path-10"></use>
                                </mask>
                                <g id="Clip-8"></g>
                                <path d="M54.9182692,5.17922191 L14.4471154,5.17922191 C8.57692308,5.51641854 0.618269231,9.90293258 0.618269231,9.90293258 L0.618269231,9.90293258 L55.6826923,9.90293258 C56.7269231,11.5356742 58.5240385,12.6182528 60.5692308,12.6182528 L60.5692308,12.6182528 C62.6144231,12.6182528 64.4086538,11.5356742 65.4557692,9.90293258 L65.4557692,9.90293258 L71.675,9.90293258 C72.7596154,6.26475843 72.2807692,5.17922191 72.2807692,5.17922191 L72.2807692,5.17922191 L66.2201923,5.17922191 C65.5884615,2.57038483 63.3038462,0.632983146 60.5692308,0.632983146 L60.5692308,0.632983146 C57.8288462,0.632983146 55.55,2.57038483 54.9182692,5.17922191" id="Fill-7" fill="#275EF4" mask="url(#mask-11)"></path>
                            </g>
                        </g>
                    </g>
                </g>
            </g>
        </g>
    </g>
</svg>