<?xml version="1.0" encoding="UTF-8"?>
<svg width="95px" height="95px" viewBox="0 0 95 95" version="1.1" xmlns="http://www.w3.org/2000/svg" xmlns:xlink="http://www.w3.org/1999/xlink">
    <!-- Generator: Sketch 59.1 (86144) - https://sketch.com -->
    <title>焗饭</title>
    <desc>Created with Sketch.</desc>
    <defs>
        <path d="M43.1339411,0.00096684023 C19.9820543,0.00096684023 1.17902728,18.6677512 0.495760702,41.9462943 L0.495760702,41.9462943 L85.7750539,41.9462943 C85.0917874,18.6677512 66.2858279,0.00096684023 43.1339411,0.00096684023 Z" id="path-1"></path>
        <linearGradient x1="50%" y1="0.00137699115%" x2="50%" y2="100.001377%" id="linearGradient-3">
            <stop stop-color="#F173B6" offset="0%"></stop>
            <stop stop-color="#FFFFFF" offset="100%"></stop>
        </linearGradient>
        <path d="M0,0.146140449 C0.755932148,25.8799101 21.5925988,46.5168539 47.2442885,46.5168539 L47.2442885,46.5168539 C72.8959783,46.5168539 93.7326449,25.8799101 94.4915184,0.146140449 L94.4915184,0.146140449 L0,0.146140449 Z" id="path-4"></path>
        <linearGradient x1="50%" y1="-0.00390950458%" x2="50%" y2="100%" id="linearGradient-6">
            <stop stop-color="#EC74BA" offset="0%"></stop>
            <stop stop-color="#FFFFFF" offset="100%"></stop>
        </linearGradient>
    </defs>
    <g id="页面-1" stroke="none" stroke-width="1" fill="none" fill-rule="evenodd">
        <g id="切图" transform="translate(-26.000000, -2722.000000)">
            <g id="多彩" transform="translate(18.000000, 2561.000000)">
                <g id="工作模式" transform="translate(8.000000, 0.000000)">
                    <g id="焗饭" transform="translate(0.000000, 164.000000)">
                        <g id="编组">
                            <g transform="translate(4.042553, 0.000000)">
                                <mask id="mask-2" fill="white">
                                    <use xlink:href="#path-1"></use>
                                </mask>
                                <g id="Clip-2"></g>
                                <path d="M43.1339411,0.00096684023 C19.9820543,0.00096684023 1.17902728,18.6677512 0.495760702,41.9462943 L0.495760702,41.9462943 L85.7750539,41.9462943 C85.0917874,18.6677512 66.2858279,0.00096684023 43.1339411,0.00096684023 Z" id="Fill-1" fill="url(#linearGradient-3)" mask="url(#mask-2)"></path>
                            </g>
                            <g transform="translate(0.000000, 42.471910)">
                                <mask id="mask-5" fill="white">
                                    <use xlink:href="#path-4"></use>
                                </mask>
                                <g id="Clip-4"></g>
                                <path d="M0,0.146140449 C0.755932148,25.8799101 21.5925988,46.5168539 47.2442885,46.5168539 L47.2442885,46.5168539 C72.8959783,46.5168539 93.7326449,25.8799101 94.4915184,0.146140449 L94.4915184,0.146140449 L0,0.146140449 Z" id="Fill-3" fill="url(#linearGradient-6)" mask="url(#mask-5)"></path>
                            </g>
                            <g transform="translate(20.212766, 10.112360)" fill="#FFFFFF">
                                <path d="M21.2750362,5.16027622 C21.2750362,7.68298221 19.3144323,9.72488296 16.892166,9.72488296 C14.4698998,9.72488296 12.5092958,7.68298221 12.5092958,5.16027622 C12.5092958,2.63757022 14.4698998,0.595669476 16.892166,0.595669476 C19.3144323,0.595669476 21.2750362,2.63757022 21.2750362,5.16027622" id="Fill-5"></path>
                                <path d="M39.0805923,5.16027622 C39.0805923,7.68298221 37.1199884,9.72488296 34.6977222,9.72488296 C32.2754559,9.72488296 30.314852,7.68298221 30.314852,5.16027622 C30.314852,2.63757022 32.2754559,0.595669476 34.6977222,0.595669476 C37.1199884,0.595669476 39.0805923,2.63757022 39.0805923,5.16027622" id="Fill-7"></path>
                                <path d="M9.77000199,19.7101124 C9.77000199,22.2328184 7.80939807,24.2747191 5.38713182,24.2747191 C2.96486557,24.2747191 1.00426165,22.2328184 1.00426165,19.7101124 C1.00426165,17.1874064 2.96486557,15.1455056 5.38713182,15.1455056 C7.80939807,15.1455056 9.77000199,17.1874064 9.77000199,19.7101124" id="Fill-9"></path>
                                <path d="M30.0410687,20.565824 C30.0410687,23.08853 28.0804648,25.1304307 25.6581985,25.1304307 C23.2359323,25.1304307 21.2753284,23.08853 21.2753284,20.565824 C21.2753284,18.043118 23.2359323,16.0012172 25.6581985,16.0012172 C28.0804648,16.0012172 30.0410687,18.043118 30.0410687,20.565824" id="Fill-11"></path>
                                <path d="M50.4944628,19.7101124 C50.4944628,22.2328184 48.5338589,24.2747191 46.1115927,24.2747191 C43.6893264,24.2747191 41.7287225,22.2328184 41.7287225,19.7101124 C41.7287225,17.1874064 43.6893264,15.1455056 46.1115927,15.1455056 C48.5338589,15.1455056 50.4944628,17.1874064 50.4944628,19.7101124" id="Fill-13"></path>
                            </g>
                        </g>
                    </g>
                </g>
            </g>
        </g>
    </g>
</svg>