<?xml version="1.0" encoding="UTF-8"?>
<svg width="84px" height="84px" viewBox="0 0 84 84" version="1.1" xmlns="http://www.w3.org/2000/svg" xmlns:xlink="http://www.w3.org/1999/xlink">
    <!-- Generator: Sketch 59.1 (86144) - https://sketch.com -->
    <title>超声波</title>
    <desc>Created with Sketch.</desc>
    <g id="页面-1" stroke="none" stroke-width="1" fill="none" fill-rule="evenodd">
        <g id="1" transform="translate(-184.000000, -1361.000000)" fill="#C9D4DD" fill-rule="nonzero">
            <g id="编组-4" transform="translate(78.000000, 1277.000000)">
                <g id="模式开关">
                    <g id="超声波" transform="translate(106.000000, 84.000000)">
                        <path d="M41.9958,84 C39.7068,84 38.1738,82.4712 38.1738,80.178 L38.1738,3.82200003 C38.1738,1.52880003 39.7067999,0 41.9958,0 C44.2848001,0 45.8178001,1.52880003 45.8178001,3.82200003 L45.8178001,80.178 C45.8178001,82.4712 44.2848001,84 41.9958,84 Z M61.0848,68.7288 C58.7958001,68.7288 57.267,67.2 57.267,64.9068 L57.267,19.0932 C57.267,16.8042001 58.7958001,15.2754 61.0890001,15.2754 C63.378,15.2754 64.9068001,16.8042001 64.9068001,19.0974001 L64.9068001,64.9151999 C64.9068001,67.2041999 63.378,68.7329999 61.0848,68.7329999 L61.0848,68.7288 Z M3.8178,57.2712 C1.52880003,57.2712 0,55.7466 0,53.4534 L0,30.5466 C0,28.2534 1.52880003,26.7246 3.82200003,26.7246 C6.111,26.7246 7.6356,28.2534 7.6356,30.5466 L7.6356,53.4534 C7.6356,55.7466 6.111,57.2754 3.8178,57.2754 L3.8178,57.2712 Z M80.1822,57.2712 C77.889,57.2712 76.3602001,55.7466 76.3602001,53.4534 L76.3602001,30.5466 C76.3602001,28.2534 77.8890001,26.7246 80.1822,26.7246 C82.4712,26.7246 84,28.2534 84,30.5466 L84,53.4534 C84,55.7466 82.4712,57.2754 80.1780001,57.2754 L80.1822,57.2712 Z M22.9068,68.7288 C20.6136,68.7288 19.0848,67.2 19.0848,64.9068 L19.0848,19.0932 C19.0848,16.8042001 20.6136,15.2754 22.9068,15.2754 C25.1958,15.2754 26.7246,16.8042001 26.7246,19.0974001 L26.7246,64.9151999 C26.7246,67.2041999 25.1958,68.7329999 22.9026,68.7329999 L22.9068,68.7288 Z" id="形状"></path>
                    </g>
                </g>
            </g>
        </g>
    </g>
</svg>
