<?xml version="1.0" encoding="UTF-8"?>
<svg width="114px" height="40px" viewBox="0 0 114 40" version="1.1" xmlns="http://www.w3.org/2000/svg" xmlns:xlink="http://www.w3.org/1999/xlink">
    <!-- Generator: Sketch 59.1 (86144) - https://sketch.com -->
    <title>高压</title>
    <desc>Created with Sketch.</desc>
    <defs>
        <linearGradient x1="50%" y1="0%" x2="50%" y2="100%" id="linearGradient-1">
            <stop stop-color="#16D0FC" offset="0%"></stop>
            <stop stop-color="#596EF3" offset="100%"></stop>
        </linearGradient>
    </defs>
    <g id="页面-1" stroke="none" stroke-width="1" fill="none" fill-rule="evenodd">
        <g id="切图" transform="translate(-261.000000, -833.000000)" fill="url(#linearGradient-1)" fill-rule="nonzero">
            <g id="暗色" transform="translate(30.000000, 817.000000)">
                <path d="M292.472136,24.9442719 L304.381966,48.763932 C305.616912,51.2338245 304.615791,54.2371897 302.145898,55.472136 C301.451621,55.8192745 300.686056,56 299.90983,56 L276.09017,56 C273.328746,56 271.09017,53.7614237 271.09017,51 C271.09017,50.2237745 271.270895,49.4582092 271.618034,48.763932 L283.527864,24.9442719 C284.76281,22.4743794 287.766175,21.4732577 290.236068,22.7082039 C291.203705,23.1920224 291.988317,23.9766349 292.472136,24.9442719 Z" id="高压" transform="translate(288.000000, 36.000000) scale(1, -1) rotate(-270.000000) translate(-288.000000, -36.000000) "></path>
            </g>
        </g>
    </g>
</svg>