<?xml version="1.0" encoding="UTF-8"?>
<svg width="52px" height="51px" viewBox="0 0 52 51" version="1.1" xmlns="http://www.w3.org/2000/svg" xmlns:xlink="http://www.w3.org/1999/xlink">
    <!-- Generator: Sketch 59.1 (86144) - https://sketch.com -->
    <title>编辑</title>
    <desc>Created with Sketch.</desc>
    <g id="页面-1" stroke="none" stroke-width="1" fill="none" fill-rule="evenodd">
        <g id="切图" transform="translate(-398.000000, -827.000000)" fill="#FDFDFD" fill-rule="nonzero">
            <g id="暗色" transform="translate(30.000000, 817.000000)">
                <path d="M412.329502,26.6055072 C412.770662,27.0422162 413.489327,27.0422162 413.937603,26.6055072 L419.19595,21.4002178 C419.63711,20.9635088 419.63711,20.2520958 419.19595,19.8083431 L409.6185,10.3275317 C409.17734,9.89082275 408.458675,9.89082275 408.0104,10.3275317 L402.752053,15.5328212 C402.310892,15.9695302 402.310892,16.6809432 402.752053,17.1246959 L412.329502,26.6055072 Z M408.629447,30.2118782 L399.108922,20.7874165 C398.646415,20.3295764 397.906404,20.3295764 397.443897,20.7874165 L368.384236,49.5538603 C368.163656,49.7722148 368.042693,50.0680499 368.042693,50.3709288 L368,59.830609 C368,60.4786288 368.526546,61.0069058 369.181171,60.9999317 L378.737274,60.9575999 C379.050356,60.9575999 379.342091,60.8308135 379.562671,60.6195027 L408.622332,31.8530588 C409.091954,31.4022624 409.091954,30.6626746 408.629447,30.2118782 Z M418.818829,55.7945727 L391.616311,55.7945727 C391.296114,55.7945727 390.990148,55.9213592 390.769568,56.1467573 L388.008758,58.957191 C387.282978,59.6967788 387.809524,60.9364689 388.855501,60.9364689 L418.818829,60.9364689 C419.473454,60.9364689 420,60.4152356 420,59.7672158 L420,56.9567821 C420,56.315806 419.473454,55.7945727 418.818829,55.7945727 Z" id="编辑"></path>
            </g>
        </g>
    </g>
</svg>