<svg width="65" height="55" viewBox="0 0 65 55" fill="none" xmlns="http://www.w3.org/2000/svg">
<g clip-path="url(#clip0_1628_12480)">
<path d="M38.5592 50.8376L38.5327 50.7924C38.4969 50.73 38.4345 50.6504 38.38 50.58L38.3615 50.5495C38.3336 50.5097 38.3004 50.4672 38.2792 50.4274L38.1424 50.2296L38.1265 50.211L31.4298 39.9024C30.6423 38.6947 30.3566 37.2276 30.6333 35.8127C30.8871 34.4061 31.6874 33.1571 32.8594 32.3389C33.614 31.8171 34.4945 31.5069 35.4095 31.4404C36.3245 31.3739 37.2406 31.5535 38.0628 31.9606V14.7309C38.0548 11.7349 40.3127 9.29248 43.087 9.29248C45.8573 9.29248 48.1192 11.7349 48.1192 14.7348V20.2701C48.5268 20.1347 48.9534 20.0653 49.3829 20.0644C50.6944 20.0644 51.9342 20.6962 52.8076 21.7873C53.4884 21.3346 54.2852 21.0875 55.1027 21.0758C56.0438 21.0807 56.9558 21.4029 57.6911 21.9904C58.2685 22.4417 58.753 23.0258 59.1048 23.7041C59.5136 23.5753 59.9384 23.505 60.3645 23.505C62.9463 23.505 65.0449 25.9474 65.0449 28.9473V43.4267C65.0449 46.6297 63.6286 50.1699 61.4371 52.4504C60.2158 53.7207 58.9017 54.4242 57.7243 54.4242H43.4175C40.7362 54.4242 39.5322 52.4358 38.5592 50.8376ZM58.015 51.7482C58.4491 51.7482 59.5282 51.0234 60.5862 49.4186C61.7211 47.6863 62.3715 45.6129 62.3715 43.7373V28.8438C62.3715 27.6266 61.6202 26.57 60.7641 26.57C60.5748 26.5708 60.3887 26.6187 60.2225 26.7093V31.9181H60.2172C60.1561 32.7915 59.4552 33.4685 58.6097 33.4725C57.7615 33.4725 57.0566 32.7822 56.9995 31.9194H56.9969V27.3983L56.9 26.1293C56.8164 24.9983 56.0929 24.0758 55.2845 24.0758C54.9261 24.0758 54.5584 24.2749 54.2677 24.6067V30.2402C54.2651 31.1615 53.543 31.9061 52.651 31.9088C51.7616 31.9048 51.0408 31.1601 51.0382 30.2402V25.2837L50.9174 24.705C50.7183 23.7413 50.0493 23.0165 49.3683 23.0165C48.9037 23.0165 48.4391 23.3457 48.1245 23.8806L48.0727 29.469V31.5703C48.0727 32.3853 47.4263 33.0557 46.6378 33.0557H46.2887C45.4963 33.0557 44.8525 32.3853 44.8525 31.5703V14.7972L44.8432 14.2052C44.8432 12.9508 43.9618 11.9353 42.872 11.9353C41.7835 11.9353 40.9021 12.9535 40.9021 14.2052L40.9725 30.5057C40.9764 30.5548 40.9778 30.6053 40.9778 30.6557V37.1228C40.9645 37.9551 40.3632 38.652 39.5654 38.7582C39.1739 38.8056 38.7785 38.7085 38.4534 38.4852C38.1284 38.2618 37.896 37.9275 37.8 37.5449L37.1933 35.7171C37.0363 35.4704 36.8315 35.2576 36.591 35.0912C36.3505 34.9248 36.0792 34.8081 35.7929 34.7481C35.5089 34.6902 35.216 34.6907 34.9321 34.7496C34.6482 34.8084 34.3793 34.9245 34.1416 35.0906C33.1328 35.7914 32.866 37.2038 33.5417 38.2471L40.4455 48.8571L40.4681 48.8863L40.553 49.0164L40.6592 49.1796C40.7242 49.2858 40.7946 49.3867 40.857 49.465L40.9021 49.5234L40.9353 49.5964C42.0105 51.3725 42.4246 51.7561 43.241 51.7561H58.015V51.7455V51.7482Z" fill="#30414D"/>
<path d="M31.1945 14.2602V16.915H7.30121V14.2602H31.1945ZM6.62158 20.5388L1.95045 15.869C1.87587 15.7943 1.83398 15.6931 1.83398 15.5876C1.83398 15.482 1.87587 15.3808 1.95045 15.3061L6.62158 10.635C6.67727 10.5794 6.74819 10.5415 6.8254 10.5262C6.9026 10.5109 6.98261 10.5187 7.05533 10.5488C7.12806 10.579 7.19022 10.6299 7.23399 10.6954C7.27775 10.7608 7.30114 10.8377 7.30121 10.9164V20.2574C7.30114 20.3361 7.27775 20.413 7.23399 20.4784C7.19022 20.5438 7.12806 20.5948 7.05533 20.6249C6.98261 20.6551 6.9026 20.6629 6.8254 20.6476C6.74819 20.6323 6.67727 20.5944 6.62158 20.5388Z" fill="#30414D"/>
<path d="M0.664062 7.3008V4.646H24.5573V7.3008H0.664062Z" fill="#30414D"/>
<path d="M25.2373 1.02209L29.9084 5.69189C29.983 5.76656 30.0248 5.86777 30.0248 5.9733C30.0248 6.07883 29.983 6.18005 29.9084 6.25471L25.2373 10.9258C25.1815 10.9815 25.1104 11.0194 25.0331 11.0347C24.9558 11.05 24.8757 11.042 24.8029 11.0118C24.7301 10.9815 24.6679 10.9303 24.6243 10.8647C24.5806 10.799 24.5574 10.7219 24.5576 10.6431V1.3035C24.5574 1.22467 24.5806 1.14757 24.6243 1.08194C24.6679 1.01631 24.7301 0.965121 24.8029 0.934844C24.8757 0.904568 24.9558 0.896571 25.0331 0.911865C25.1104 0.92716 25.1815 0.965057 25.2373 1.02076V1.02209Z" fill="#30414D"/>
</g>
<defs>
<clipPath id="clip0_1628_12480">
<rect width="65" height="54.4235" fill="#30414D"/>
</clipPath>
</defs>
</svg>
