<?xml version="1.0" encoding="UTF-8"?>
<svg width="80px" height="80px" viewBox="0 0 80 80" version="1.1" xmlns="http://www.w3.org/2000/svg" xmlns:xlink="http://www.w3.org/1999/xlink">
    <title>晚安</title>
    <defs>
        <linearGradient x1="50%" y1="0%" x2="50%" y2="100%" id="linearGradient-1">
            <stop stop-color="#4F7BF5" offset="0%"></stop>
            <stop stop-color="#1E5DFC" offset="100%"></stop>
        </linearGradient>
    </defs>
    <g id="页面-1" stroke="none" stroke-width="1" fill="none" fill-rule="evenodd">
        <g id="3" transform="translate(-248.000000, -2099.000000)" fill-rule="nonzero" stroke="url(#linearGradient-1)" stroke-width="7">
            <g id="编组-10" transform="translate(79.000000, 1662.000000)">
                <g id="晚安" transform="translate(173.000000, 441.000000)">
                    <path d="M71.8058912,48.7224406 C71.5470795,48.4643085 70.770644,48.4643085 69.9942087,48.7224406 C62.488667,52.0781583 54.7243136,52.5944226 46.7011483,50.7874976 C31.4312531,46.9155155 20.5611583,33.4926445 19.7847228,17.4884522 C19.7847228,12.0676773 20.81997,6.90503463 23.149276,2.00052401 C23.4080878,1.22612763 23.9257114,0.967995447 23.149276,0.193599071 C22.3728407,-0.0645330238 22.1140289,-0.0645330238 21.0787818,0.193599071 C17.7142286,2.00052401 14.3496754,3.80744895 12.0203694,6.64690244 C5.03245127,13.1002058 1.1502745,20.8441698 0.115027441,30.1369268 C0.115027441,30.9113232 -0.143784301,34.7833052 0.115027441,35.5577016 L0.115027441,36.5902302 C0.115027441,39.945948 0.891462758,43.0435336 1.92670991,45.8829871 C6.32651025,60.0802545 19.2670994,70.1474078 33.7605591,71.6962005 C38.9367948,72.4705969 43.8542186,71.6962005 49.0304543,70.1474078 C59.1241138,66.79169 66.8884674,60.3383866 71.8058912,50.5293655 L71.8058912,50.2712333 C72.0647029,49.754969 72.0647029,49.4968369 71.8058912,48.7224406 Z" id="路径"></path>
                </g>
            </g>
        </g>
    </g>
</svg>