<?xml version="1.0" encoding="UTF-8"?>
<svg width="51px" height="77px" viewBox="0 0 51 77" version="1.1" xmlns="http://www.w3.org/2000/svg" xmlns:xlink="http://www.w3.org/1999/xlink">
    <title>1-1-蓝牙-未选中</title>
    <g id="页面-1" stroke="none" stroke-width="1" fill="none" fill-rule="evenodd">
        <g id="切图" transform="translate(-74.000000, -249.000000)" fill="#B5C4D1" fill-rule="nonzero">
            <g id="编组" transform="translate(41.000000, 103.000000)">
                <path d="M64,209 L64,193 L74,201 L64,209 Z M64,160.004356 L74,168.002178 L64,176 L64,160 L64,160.004356 Z M65.4209034,184.504329 L82.385254,170.812727 C83.4065724,169.985314 84,168.740167 84,167.424621 C84,166.109075 83.4065724,164.863929 82.385254,164.036515 L61.2254189,146.961156 C59.9236404,145.911924 58.1361968,145.703662 56.6286395,146.425568 C55.1210822,147.147474 54.1608136,148.671499 54.1591111,150.344913 L54.1591111,175.40559 L40.069927,164.036515 C38.2013736,162.529227 35.466441,162.824235 33.9612841,164.695434 C32.4561272,166.566634 32.7507182,169.305439 34.6192716,170.812727 L51.579279,184.49998 L34.6192716,198.187232 C32.789769,199.705137 32.5177312,202.41345 34.0087044,204.265827 C35.4996775,206.118203 38.200251,206.427089 40.069927,204.959095 L54.1591111,193.590021 L54.1591111,218.650697 C54.1615052,221.051757 56.1045987,222.997602 58.5022628,223 C59.4930015,223 60.4540723,222.661446 61.2254189,222.038803 L82.385254,204.963445 C83.4049774,204.135983 83.9973179,202.891848 83.9973179,201.577513 C83.9973179,200.263178 83.4049774,199.019044 82.385254,198.191582 L65.4209034,184.49998 L65.4209034,184.504329 Z" id="蓝牙"></path>
            </g>
        </g>
    </g>
</svg>