<?xml version="1.0" encoding="UTF-8"?>
<svg width="51px" height="77px" viewBox="0 0 51 77" version="1.1" xmlns="http://www.w3.org/2000/svg" xmlns:xlink="http://www.w3.org/1999/xlink">
    <title>1-1-蓝牙-选中</title>
    <g id="页面-1" stroke="none" stroke-width="1" fill="none" fill-rule="evenodd">
        <g id="切图" transform="translate(-703.000000, -273.000000)" fill="#FF9269" fill-rule="nonzero">
            <g id="编组" transform="translate(41.000000, 103.000000)">
                <path d="M693,233 L693,217 L703,225 L693,233 Z M693,184.004356 L703,192.002178 L693,200 L693,184 L693,184.004356 Z M694.420903,208.504329 L711.385254,194.812727 C712.406572,193.985314 713,192.740167 713,191.424621 C713,190.109075 712.406572,188.863929 711.385254,188.036515 L690.225419,170.961156 C688.92364,169.911924 687.136197,169.703662 685.62864,170.425568 C684.121082,171.147474 683.160814,172.671499 683.159111,174.344913 L683.159111,199.40559 L669.069927,188.036515 C667.201374,186.529227 664.466441,186.824235 662.961284,188.695434 C661.456127,190.566634 661.750718,193.305439 663.619272,194.812727 L680.579279,208.49998 L663.619272,222.187232 C661.789769,223.705137 661.517731,226.41345 663.008704,228.265827 C664.499678,230.118203 667.200251,230.427089 669.069927,228.959095 L683.159111,217.590021 L683.159111,242.650697 C683.161505,245.051757 685.104599,246.997602 687.502263,247 C688.493002,247 689.454072,246.661446 690.225419,246.038803 L711.385254,228.963445 C712.404977,228.135983 712.997318,226.891848 712.997318,225.577513 C712.997318,224.263178 712.404977,223.019044 711.385254,222.191582 L694.420903,208.49998 L694.420903,208.504329 Z" id="蓝牙"></path>
            </g>
        </g>
    </g>
</svg>