<?xml version="1.0" encoding="UTF-8"?>
<svg width="108px" height="56px" viewBox="0 0 108 56" version="1.1" xmlns="http://www.w3.org/2000/svg" xmlns:xlink="http://www.w3.org/1999/xlink">
    <!-- Generator: Sketch 59.1 (86144) - https://sketch.com -->
    <title>鸣笛中-01</title>
    <desc>Created with Sketch.</desc>
    <g id="页面-1" stroke="none" stroke-width="1" fill="none" fill-rule="evenodd">
        <g id="1-2" transform="translate(-843.000000, -1645.000000)">
            <g id="编组-4" transform="translate(78.000000, 1553.000000)">
                <g id="定时开关" transform="translate(674.000000, 0.000000)">
                    <rect id="矩形备份-4" x="0" y="0" width="295" height="300"></rect>
                    <g id="鸣笛中-01" transform="translate(91.000000, 92.000000)" fill="#FF9269" fill-rule="nonzero">
                        <path d="M70.8034982,24.2205154 C75.5403569,24.2205154 79.6234493,27.0892429 81.3897971,31.140424 L88,31.140424 C86.0205661,23.5929812 79.0576377,18.0159957 70.8207265,18.0159957 L57.7245453,18.0159957 C46.6250263,17.4574903 31.8314103,14.0849425 21.1208868,0.471934043 C20.4308505,-0.402131368 19,-0.0175425872 19,1.25814467 L19,40.7497646 C19,42.0254519 20.3428958,42.3921111 21.0501603,41.5359753 C32.3264955,27.4173536 47.9679221,24.4813903 59.1735308,24.2339625 L70.8034982,24.2205154 Z" id="路径"></path>
                        <path d="M93.4202846,31.0582107 C92.218182,31.8793525 90.3538058,32.8364389 88.8031381,32.8364389 L46.2960757,32.8364389 C40.6341278,32.8364389 36,37.5497928 36,43.3470538 L36,43.4893851 C36,49.2693109 40.6162527,54 46.2960757,54 L70.9467756,54 C79.0647666,54 85.928817,48.308575 87.8798876,40.644585 L81.3813836,40.644585 C79.602378,44.916566 75.4940012,47.6890852 70.9467756,47.686332 L46.2960757,47.686332 C44.0271106,47.6823142 42.1887312,45.8056286 42.1847955,43.4893851 L42.1847955,43.3470538 C42.1887312,41.0308103 44.0271106,39.1541247 46.2960757,39.1501069 L89.1517032,39.1501069 C90.6326578,39.2568553 92.3227515,40.1464256 93.4417347,40.9109998 C93.5512541,40.9865695 93.6926843,40.9942777 93.8094632,40.9310417 C93.9262421,40.8678058 93.9993077,40.7439477 94,40.6090021 L94,31.4003531 C94.0071221,31.2574667 93.9354269,31.1223146 93.8140076,31.050798 C93.6925883,30.9792813 93.542087,30.9835585 93.4247534,31.0618603 L93.4202846,31.0582107 Z" id="路径"></path>
                        <path d="M0.636869083,0.630827954 C1.47140121,-0.199881844 2.82615127,-0.211650663 3.67529853,0.604432882 L3.6990131,0.627895168 L12.3637246,9.24441976 C13.2007492,10.0780557 13.2125909,11.4201561 12.3904035,12.2681219 L12.3637246,12.294517 L5.23453159,19.3830602 L12.3637246,26.4745362 C13.2016039,27.305522 13.2134632,28.6470143 12.3904035,29.4923727 L12.3637246,29.5187678 L5.22860295,36.6131766 L12.3637246,43.7046525 C13.2007492,44.5382885 13.2125909,45.8803889 12.3904035,46.7283547 L12.3637246,46.751817 L3.6990131,55.3683415 C3.29428863,55.7725784 2.74304316,56 2.16794109,56 C1.59283903,56 1.04159355,55.7725784 0.636869083,55.3683415 C-0.198593704,54.5340613 -0.210424266,53.1932224 0.610190191,52.3446394 L0.636869083,52.3211771 L7.77199072,45.2297011 L0.636869083,38.1382252 C-0.196312646,37.3052991 -0.208138396,35.9676057 0.610190191,35.1203886 L0.636869083,35.0910607 L7.77199072,27.9995848 L0.636869083,20.905176 C-0.200630545,20.0733403 -0.213791598,18.7321731 0.607225869,17.8844066 L0.633904762,17.8580116 L7.7690264,10.7665356 L0.636869083,3.67505958 C-0.195125751,2.84049878 -0.20693735,1.50310755 0.610190191,0.65429024 L0.636869083,0.630827954 L0.636869083,0.630827954 Z M107.362363,0.632044212 C106.528701,-0.200281293 105.172944,-0.212062027 104.324641,0.605648204 L104.300932,0.626178432 L95.6352748,9.24300837 C94.799894,10.0745216 94.7867449,11.4135289 95.6056385,12.2609519 L102.771699,19.3820081 L95.6382384,26.4766682 C94.803218,27.307182 94.7900654,28.6452467 95.6086021,29.4916789 L102.771699,36.612735 L95.6382384,43.7044623 C94.803689,44.5386151 94.7905592,45.8782561 95.6086021,46.7282716 L95.6382384,46.7576005 L104.303896,55.3685647 C104.708018,55.7726407 105.258645,56 105.83313,56 C106.407614,56 106.958242,55.7726407 107.362363,55.3685647 C108.200881,54.5383522 108.214055,53.196804 107.392,52.3506212 L107.362363,52.3212923 L100.231867,45.229565 L107.362363,38.1378377 C108.200881,37.3076252 108.214055,35.966077 107.392,35.1198942 L107.362363,35.0905653 L100.231867,27.998838 L107.362363,20.9071107 C108.200881,20.0768982 108.214055,18.73535 107.392,17.8891672 L107.362363,17.8627712 L100.231867,10.7710439 L107.362363,3.67931661 C108.199668,2.84745145 108.212826,1.50623675 107.392,0.658440219 L107.362363,0.632044212 Z" id="形状"></path>
                    </g>
                </g>
            </g>
        </g>
    </g>
</svg>