<?xml version="1.0" encoding="UTF-8"?>
<svg width="400px" height="400px" viewBox="0 0 400 400" version="1.1" xmlns="http://www.w3.org/2000/svg" xmlns:xlink="http://www.w3.org/1999/xlink">
    <title>模式开关</title>
    <defs>
        <linearGradient x1="50%" y1="0%" x2="50%" y2="100%" id="linearGradient-1">
            <stop stop-color="#2CE74F" offset="0%"></stop>
            <stop stop-color="#00E1AD" offset="100%"></stop>
        </linearGradient>
        <rect id="path-2" x="0" y="0" width="200" height="200" rx="100"></rect>
        <filter x="-76.5%" y="-73.5%" width="253.0%" height="253.0%" filterUnits="objectBoundingBox" id="filter-3">
            <feOffset dx="0" dy="6" in="SourceAlpha" result="shadowOffsetOuter1"></feOffset>
            <feGaussianBlur stdDeviation="50" in="shadowOffsetOuter1" result="shadowBlurOuter1"></feGaussianBlur>
            <feColorMatrix values="0 0 0 0 0.125490196   0 0 0 0 0.127812629   0 0 0 0 0.129411765  0 0 0 0.1 0" type="matrix" in="shadowBlurOuter1"></feColorMatrix>
        </filter>
    </defs>
    <g id="页面-1" stroke="none" stroke-width="1" fill="none" fill-rule="evenodd">
        <g id="2" transform="translate(-618.000000, -1881.000000)">
            <g id="模式开关" transform="translate(718.000000, 1975.000000)">
                <g id="矩形备份-2">
                    <use fill="black" fill-opacity="1" filter="url(#filter-3)" xlink:href="#path-2"></use>
                    <use fill="url(#linearGradient-1)" fill-rule="evenodd" xlink:href="#path-2"></use>
                </g>
                <g id="定时器" transform="translate(51.000000, 52.000000)" fill="#FFFFFF" fill-rule="nonzero">
                    <path d="M91.4530648,52.8265107 C91.4530648,76.6684741 72.1644848,96 48.3528884,96 C24.5412919,96 5.29869058,76.6673948 5.29869058,52.8265107 C5.29869058,28.9856266 24.5412919,9.65302145 48.3528884,9.65302145 C72.1644848,9.65302145 91.454134,28.9845473 91.4530648,52.8265107 L91.4530648,52.8265107 Z M47.8693235,29.3894737 C45.4395921,29.3894737 43.4699056,31.3591602 43.4699056,33.7888916 L43.4699056,58.1395827 L43.4699056,58.1395827 L43.4527706,58.1682595 L64.8007876,70.3910786 C66.9001192,71.593052 69.5759956,70.8758417 70.7927752,68.785057 C71.9985444,66.7131912 71.2964344,64.056143 69.2245686,62.8503738 C69.2157793,62.8452586 69.206972,62.8401743 69.1981469,62.8351211 L52.2687413,53.1413185 L52.2687413,53.1413185 L52.2687413,33.7888916 C52.2687413,31.3591602 50.2990549,29.3894737 47.8693235,29.3894737 Z M26.6429262,2.49464716 L27.3641498,3.41846623 C28.8901462,5.37846449 28.5431293,8.20469086 26.5882951,9.73729698 L8.75243655,23.6826874 C6.79659007,25.2160819 3.96845889,24.8698792 2.43765192,22.9120096 C2.43697729,22.9111467 2.43630297,22.9102837 2.43821802,22.9073991 L1.71699441,21.98358 C0.190997985,20.0235817 0.538014854,17.1973553 2.49284905,15.6647492 L20.3287076,1.71935882 C22.2845541,0.185964277 25.1126853,0.532166981 26.6434923,2.49003663 C26.6441669,2.49089947 26.6448412,2.49176255 26.6429262,2.49464716 Z M71.3570738,2.49464716 L70.6358502,3.41846623 C69.1098538,5.37846449 69.4568707,8.20469086 71.4117049,9.73729698 L89.2475634,23.6826874 C91.2034099,25.2160819 94.0315411,24.8698792 95.5623481,22.9120096 C95.5630227,22.9111467 95.563697,22.9102837 95.561782,22.9073991 L96.2830056,21.98358 C97.809002,20.0235817 97.4619851,17.1973553 95.5071509,15.6647492 L77.6712924,1.71935882 C75.7154459,0.185964277 72.8873147,0.532166981 71.3565077,2.49003663 C71.3558331,2.49089947 71.3551588,2.49176255 71.3570738,2.49464716 Z" id="形状"></path>
                </g>
            </g>
        </g>
    </g>
</svg>