<?xml version="1.0" encoding="UTF-8"?>
<svg width="74px" height="74px" viewBox="0 0 74 74" version="1.1" xmlns="http://www.w3.org/2000/svg" xmlns:xlink="http://www.w3.org/1999/xlink">
    <!-- Generator: Sketch 59.1 (86144) - https://sketch.com -->
    <title>设置</title>
    <desc>Created with Sketch.</desc>
    <g id="页面-1" stroke="none" stroke-width="1" fill="none" fill-rule="evenodd">
        <g id="1备份" transform="translate(-686.000000, -685.000000)" fill="#2885FE">
            <g id="编组" transform="translate(75.000000, 187.000000)">
                <path d="M678.475446,535 C678.475446,530.672321 681.192634,527.005357 685,525.543527 C684.091518,521.97567 682.6875,518.614286 680.854018,515.525446 C677.120982,517.185491 672.611607,516.508259 669.555804,513.444196 C666.5,510.388393 665.822768,505.870759 667.482813,502.145982 C664.385714,500.3125 661.02433,498.908482 657.456473,498 C655.986384,501.807366 652.31942,504.524554 648,504.524554 C643.672321,504.524554 640.005357,501.807366 638.543527,498 C634.97567,498.908482 631.614286,500.3125 628.525446,502.145982 C630.185491,505.879018 629.508259,510.388393 626.452455,513.444196 C623.396652,516.5 618.879018,517.177232 615.154241,515.525446 C613.3125,518.614286 611.908482,521.97567 611,525.543527 C614.807366,527.013616 617.524554,530.68058 617.524554,535 C617.524554,539.327679 614.807366,542.994643 611,544.456473 C611.908482,548.02433 613.3125,551.385714 615.145982,554.474554 C618.879018,552.814509 623.388393,553.491741 626.444196,556.555804 C629.5,559.611607 630.177232,564.129241 628.517187,567.854018 C631.614286,569.6875 634.97567,571.091518 638.543527,572 C640.013616,568.192634 643.68058,565.475446 648,565.475446 C652.327679,565.475446 655.994643,568.192634 657.456473,572 C661.02433,571.091518 664.385714,569.6875 667.474554,567.854018 C665.814509,564.120982 666.491741,559.611607 669.547545,556.555804 C672.603348,553.5 677.120982,552.822768 680.845759,554.474554 C682.6875,551.385714 684.091518,548.02433 685,544.456473 C681.192634,542.994643 678.475446,539.327679 678.475446,535 Z M648,545 C642.479675,545 638,540.520325 638,535 C638,529.479675 642.479675,525 648,525 C653.520325,525 658,529.479675 658,535 C658,540.520325 653.520325,545 648,545 Z" id="形状"></path>
            </g>
        </g>
    </g>
</svg>