<?xml version="1.0" encoding="UTF-8"?>
<svg width="235px" height="336px" viewBox="0 0 235 336" version="1.1" xmlns="http://www.w3.org/2000/svg" xmlns:xlink="http://www.w3.org/1999/xlink">
    <title>灯</title>
    <g id="免开发面板" stroke="none" stroke-width="1" fill="none" fill-rule="evenodd" opacity="0.300000012">
        <g id="2.4-免开发面板-智能五彩灯-关灯" transform="translate(-258.000000, -501.000000)" fill="#FFFFFF" fill-rule="nonzero">
            <g id="大按妞2" transform="translate(32.000000, 326.000000)">
                <g id="编组" transform="translate(226.000000, 175.000000)">
                    <path d="M165.646296,281.365854 C169.209231,281.365854 172.097561,284.254183 172.097561,287.817118 L172.097561,308.682927 C172.097561,323.76973 159.867291,336 144.780488,336 L90.1463415,336 C75.0595385,336 62.8292683,323.76973 62.8292683,308.682927 L62.8292683,287.817118 C62.8292683,284.254183 65.7175978,281.365854 69.2805328,281.365854 L165.646296,281.365854 Z M123.40009,0.12349579 C138.173195,0.628913747 152.713652,4.01132623 166.168422,10.0763417 C174.776372,14.0808071 182.841479,19.1738649 190.16987,25.2388804 C201.181843,34.2197687 210.642834,44.9501807 218.126322,57.0024551 C225.028193,67.9661369 229.875012,80.1350462 232.434132,92.8093734 C234.683056,103.073246 235.419773,113.648145 234.605507,124.145287 C233.830016,133.165053 231.658641,141.990428 228.207706,150.310386 C223.12824,163.295739 216.226369,175.503527 207.734742,186.583843 C204.128709,191.288118 200.251254,195.798002 196.141151,200.074615 C191.682077,204.856647 188.114819,210.377366 185.555698,216.403503 C182.570058,222.390762 180.437457,228.766804 179.157897,235.298359 C178.773383,237.634297 178.613168,239.930547 178.477143,242.217977 L178.361807,244.177192 C178.302433,245.156439 178.237001,246.135686 178.149759,247.117363 C177.99466,250.033236 177.56814,252.910231 176.947747,255.748347 C175.086569,261.657849 170.976466,266.595394 165.548029,269.511267 C161.476701,271.882843 156.862529,273.088071 152.132034,272.971436 L117.545133,273.165827 L82.5317115,273.165827 C72.7605242,273.360219 63.7648279,267.761743 59.5771763,258.89749 C57.9098705,255.709469 57.1343794,252.132665 57.3282522,248.555861 C57.4833504,234.909576 53.7222188,221.535439 46.5489265,209.949704 C43.7959333,205.711969 40.5776454,201.78526 37.0103866,198.247335 C29.7207706,190.160647 23.2841949,181.335272 17.7782084,171.926723 C12.6599674,163.801157 8.35599207,155.170174 4.94383143,146.189285 C1.91941632,137.674937 0.2908851,128.732927 0.0582377834,119.674282 C-0.251958639,109.954706 0.678630627,100.23513 2.81123103,90.7488233 C5.8744207,76.6359988 11.8457018,63.3007404 20.3373289,51.5983708 C32.1635675,34.5307951 48.0999086,20.6901188 66.6341449,11.3204474 C74.6604773,7.43261701 83.0745552,4.55562249 91.760055,2.68946388 C102.151635,0.512278834 112.775863,-0.343043862 123.40009,0.12349579 Z" id="形状结合"></path>
                </g>
            </g>
        </g>
    </g>
</svg>