<?xml version="1.0" encoding="UTF-8"?>
<svg width="752px" height="32px" viewBox="0 0 752 32" version="1.1" xmlns="http://www.w3.org/2000/svg" xmlns:xlink="http://www.w3.org/1999/xlink">
    <title>矩形</title>
    <g id="免开发面板" stroke="none" stroke-width="1" fill="none" fill-rule="evenodd">
        <g id="2.3-免开发面板-智能五彩灯-场景" transform="translate(1.000000, -1143.000000)">
            <g id="编组-3" transform="translate(-0.300000, 1060.000000)">
                <rect id="矩形" fill="#FFFFFF" x="373" y="83" width="4" height="32" rx="2"></rect>
                <rect id="矩形备份-2" fill="#FFFFFF" opacity="0.400000006" x="735.3" y="105" width="2" height="10" rx="1"></rect>
                <rect id="矩形备份-2" fill="#FFFFFF" opacity="0.400000006" x="705.3" y="105" width="2" height="10" rx="1"></rect>
                <rect id="矩形备份-11" fill="#FFFFFF" opacity="0.400000006" x="675.3" y="91" width="2" height="24" rx="1"></rect>
                <rect id="矩形备份-2" fill="#FFFFFF" opacity="0.400000006" x="645.3" y="105" width="2" height="10" rx="1"></rect>
                <rect id="矩形备份-2" fill="#FFFFFF" opacity="0.400000006" x="615.3" y="105" width="2" height="10" rx="1"></rect>
                <rect id="矩形备份-2" fill="#FFFFFF" opacity="0.400000006" x="585.3" y="105" width="2" height="10" rx="1"></rect>
                <rect id="矩形备份-2" fill="#FFFFFF" opacity="0.400000006" x="555.3" y="105" width="2" height="10" rx="1"></rect>
                <rect id="矩形备份-2" fill="#FFFFFF" opacity="0.400000006" x="525.3" y="91" width="2" height="24" rx="1"></rect>
                <rect id="矩形备份-4" fill="#FFFFFF" opacity="0.400000006" x="495.3" y="105" width="2" height="10" rx="1"></rect>
                <rect id="矩形备份-2" fill="#FFFFFF" opacity="0.400000006" x="465.3" y="105" width="2" height="10" rx="1"></rect>
                <rect id="矩形备份-3" fill="#FFFFFF" opacity="0.400000006" x="435.3" y="105" width="2" height="10" rx="1"></rect>
                <rect id="矩形备份-2" fill="#FFFFFF" opacity="0.400000006" x="405.3" y="105" width="2" height="10" rx="1"></rect>
                <rect id="矩形备份-4" fill="#FFFFFF" opacity="0.400000006" x="375.3" y="83" width="4" height="32" rx="2"></rect>
                <rect id="矩形备份-2" fill="#FFFFFF" opacity="0.400000006" x="345.3" y="105" width="2" height="10" rx="1"></rect>
                <rect id="矩形备份-3" fill="#FFFFFF" opacity="0.400000006" x="315.3" y="105" width="2" height="10" rx="1"></rect>
                <rect id="矩形备份-2" fill="#FFFFFF" opacity="0.400000006" x="285.3" y="105" width="2" height="10" rx="1"></rect>
                <rect id="矩形备份-4" fill="#FFFFFF" opacity="0.400000006" x="255.3" y="105" width="2" height="10" rx="1"></rect>
                <rect id="矩形备份-2" fill="#FFFFFF" opacity="0.400000006" x="225.3" y="91" width="2" height="24" rx="1"></rect>
                <rect id="矩形备份-3" fill="#FFFFFF" opacity="0.400000006" x="195.3" y="105" width="2" height="10" rx="1"></rect>
                <rect id="矩形备份-2" fill="#FFFFFF" opacity="0.400000006" x="165.3" y="105" width="2" height="10" rx="1"></rect>
                <rect id="矩形备份-4" fill="#FFFFFF" opacity="0.400000006" x="135.3" y="105" width="2" height="10" rx="1"></rect>
                <rect id="矩形备份-2" fill="#FFFFFF" opacity="0.400000006" x="105.3" y="105" width="2" height="10" rx="1"></rect>
                <rect id="矩形备份-3" fill="#FFFFFF" opacity="0.400000006" x="75.3" y="91" width="2" height="24" rx="1"></rect>
                <rect id="矩形备份-2" fill="#FFFFFF" opacity="0.400000006" x="45.3" y="105" width="2" height="10" rx="1"></rect>
                <rect id="矩形备份-2" fill="#FFFFFF" opacity="0.400000006" x="15.3" y="105" width="2" height="10" rx="1"></rect>
                <rect id="矩形" x="0.3" y="83" width="750" height="32"></rect>
            </g>
        </g>
    </g>
</svg>
