<svg width="76" height="80" viewBox="0 0 76 80" fill="none" xmlns="http://www.w3.org/2000/svg">
<path fill-rule="evenodd" clip-rule="evenodd" d="M61.2719 43.8933C61.8016 44.5553 62.5962 44.9528 63.3908 44.9528C64.0528 44.9528 64.7152 44.8206 65.1127 44.2904C71.7344 38.8605 75.5751 30.7818 75.5751 22.1734C75.5751 13.8299 72.1319 6.01566 65.9073 0.718299C64.7156 -0.341172 62.9937 -0.208938 61.9342 0.983167C60.8748 2.17487 61.007 3.89671 62.1991 4.95618C67.2316 9.19447 70.0129 15.5513 70.0129 22.1734C70.0129 29.193 66.9667 35.5498 61.6694 39.9203C60.4773 40.9798 60.3446 42.7012 61.2719 43.8933ZM25.778 0.586065C29.2213 0.586065 31.8704 3.36738 31.8704 6.94329C31.7377 10.3866 29.2217 12.903 25.778 12.903C22.2021 12.903 19.6856 10.2543 19.8183 6.67842C19.686 3.10211 22.3347 0.586065 25.778 0.586065ZM27.1051 35.3417C27.6341 33.2589 28.163 31.1761 28.6919 29.0604C28.8242 28.9277 29.089 28.7955 29.3539 28.7955C30.2599 34.7504 34.7094 37.0358 39.2387 39.3621L39.5515 39.5228C39.9494 39.7217 40.3473 39.9538 40.7452 40.1859C41.1419 40.4173 41.5386 40.6487 41.9353 40.8472C42.024 40.8915 42.1155 40.9387 42.2091 40.9869C43.2331 41.5145 44.5068 42.1707 45.1137 40.7145C45.3786 40.0526 44.584 38.3307 43.7894 37.801C37.5648 33.9606 33.4592 28.5306 31.0754 21.6437C30.6783 20.4519 30.1485 19.2598 29.4861 18.2004C27.235 14.2274 22.7318 13.1679 19.0237 16.0814C15.3155 18.995 11.4747 22.0412 7.89882 25.0873C6.83935 25.8819 6.04475 27.2063 5.64725 28.5306C4.59396 32.74 3.66645 36.9799 2.86594 41.2447C2.78411 41.7364 3.05719 42.2787 3.34003 42.8404C3.51426 43.1865 3.69221 43.5399 3.79317 43.8933C4.06718 43.6651 4.38845 43.4683 4.70267 43.2758C5.29967 42.91 5.87122 42.5599 6.04475 42.0393C7.10422 39.3906 8.16369 36.6093 8.56119 33.6957C9.22316 29.5901 12.1371 28.0009 15.5804 26.1468C15.0616 28.2221 14.5834 30.2365 14.114 32.2138L14.114 32.2139L14.1139 32.2142C13.3852 35.2839 12.6777 38.2643 11.8722 41.2447C11.3425 43.4958 12.0045 44.8202 13.7263 46.2772C19.1563 50.7803 24.5863 55.4157 29.8836 60.1833C30.546 60.8457 31.0758 62.0374 31.3406 62.9646L34.1219 76.4733C34.6517 78.9897 35.976 80.3141 37.6978 79.7843C39.8168 79.122 39.6846 77.4005 39.5519 75.6787C39.3531 73.4239 39.121 71.169 38.8889 68.9141C38.6574 66.6661 38.426 64.418 38.2276 62.17C37.9627 59.3887 37.1681 57.0049 35.314 54.886C32.2679 51.31 29.2217 47.4693 26.3081 43.7611C25.911 43.2314 25.3809 42.3045 25.5135 41.6422C26.0441 39.5199 26.5746 37.4308 27.1051 35.3417ZM13.1535 47.788C12.5176 47.3414 11.8688 46.8857 11.2099 46.4098C10.947 47.7242 10.8148 48.5168 10.6831 49.3059L10.6831 49.306L10.6801 49.3237C10.2826 55.4161 8.82606 60.9783 5.51501 66.1434C4.3676 67.9973 3.33769 69.9688 2.3078 71.9403L2.30772 71.9405L2.30765 71.9406L2.30761 71.9407C1.79243 72.9269 1.27726 73.913 0.747394 74.8845C-0.0472096 76.4737 -0.576945 78.0629 1.1449 79.1224C2.86674 80.3141 4.19107 79.2546 5.25055 77.6654C6.02449 76.5656 6.77335 75.4533 7.52025 74.3439L7.52042 74.3436L7.52062 74.3433C9.20211 71.8457 10.8737 69.3628 12.7995 67.0703C16.2428 63.0969 17.6997 58.4615 18.4943 53.429C18.6266 52.767 18.3617 51.7075 17.832 51.31C16.3945 50.0642 14.8183 48.9573 13.1538 47.7882L13.1536 47.7881L13.1535 47.788Z" fill="white"/>
<path d="M54.9146 39.5228C54.12 39.5228 53.1928 39.1253 52.6631 38.4634C51.7358 37.2712 52.0007 35.5498 53.1928 34.6226C57.0336 31.8413 59.2852 27.3385 59.2852 22.4383C59.2852 17.538 57.0336 13.1675 53.1928 10.2539C52.0007 9.3267 51.7358 7.60526 52.6631 6.41316C53.5903 5.22105 55.3117 4.95618 56.5039 5.88342C61.669 9.7242 64.8474 15.9488 64.8474 22.4383C64.8474 28.9277 61.8012 35.1523 56.5039 38.9931C56.1068 39.258 55.4444 39.5228 54.9146 39.5228Z" fill="white"/>
<path d="M46.0413 34.6226C45.1141 34.6226 44.1873 34.0928 43.6575 33.1656C42.8629 31.8413 43.3927 30.1194 44.717 29.3248C47.2334 27.8678 48.8226 25.2192 48.8226 22.173C48.8226 19.2594 47.3657 16.6108 44.9819 15.1538C43.6575 14.3592 43.26 12.6373 44.0546 11.313C44.8492 9.98867 46.5711 9.59117 47.8954 10.3858C51.8684 12.9022 54.3849 17.405 54.3849 22.173C54.3849 27.2055 51.7362 31.7086 47.4979 34.0924C46.9682 34.4903 46.4384 34.6226 46.0413 34.6226Z" fill="white"/>
</svg>
