<svg width="24" height="24" viewBox="0 0 24 24" fill="none" xmlns="http://www.w3.org/2000/svg">
<path d="M6.44079 19.6789C3.1864 16.4246 3.1864 11.1476 6.44079 7.89318L12.334 2L18.2272 7.89318C21.4816 11.1476 21.4816 16.4246 18.2272 19.6789C14.9722 22.9333 9.69518 22.9333 6.44079 19.6789Z" fill="#6822FF"/>
<path d="M14.7813 15.9284C14.7812 16.1958 14.8339 16.4606 14.9362 16.7076C15.0385 16.9546 15.1885 17.1791 15.3776 17.3682C15.5667 17.5572 15.7911 17.7072 16.0382 17.8096C16.2852 17.9119 16.55 17.9645 16.8173 17.9645C17.0847 17.9645 17.3495 17.9119 17.5965 17.8096C17.8436 17.7072 18.068 17.5572 18.2571 17.3682C18.4462 17.1791 18.5961 16.9546 18.6985 16.7076C18.8008 16.4606 18.8534 16.1958 18.8534 15.9284C18.8534 15.661 18.8008 15.3963 18.6985 15.1492C18.5961 14.9022 18.4462 14.6777 18.2571 14.4886C18.068 14.2996 17.8436 14.1496 17.5965 14.0473C17.3495 13.9449 17.0847 13.8923 16.8173 13.8923C16.55 13.8923 16.2852 13.9449 16.0382 14.0473C15.7911 14.1496 15.5667 14.2996 15.3776 14.4886C15.1885 14.6777 15.0385 14.9022 14.9362 15.1492C14.8339 15.3963 14.7812 15.661 14.7813 15.9284Z" fill="white"/>
</svg>
