<svg width="24" height="24" viewBox="0 0 24 24" fill="none" xmlns="http://www.w3.org/2000/svg">
<path d="M22.192 2.82998L20.5571 3.58554C20.3018 3.31219 20.0337 3.04917 19.7526 2.80419C17.4575 0.787641 14.5204 -0.194846 11.5085 0.0320805C8.48622 0.259007 5.73216 1.66956 3.75171 4.00587C1.77642 6.3396 0.809408 9.32058 1.03118 12.3996C1.25552 15.476 2.64287 18.2816 4.93792 20.2981C7.07566 22.1754 9.71368 23.0935 12.3362 23.0935C15.5235 23.096 18.6953 21.7396 20.9362 19.0965C21.4339 18.5085 21.372 17.6189 20.7944 17.1109C20.2168 16.6028 19.3451 16.6673 18.8449 17.2553C15.7556 20.9041 10.3248 21.309 6.74301 18.1655C5.00754 16.639 3.95801 14.5167 3.79039 12.1933C3.62278 9.86469 4.35255 7.6109 5.84562 5.84706C7.34385 4.08065 9.42744 3.01307 11.7122 2.84029C13.9453 2.67525 16.114 3.38698 17.834 4.84652L16.4467 5.48862C16.0496 5.67171 15.998 6.22355 16.3513 6.48142L21.2457 10.0504C21.7047 10.3856 22.3468 10.0865 22.4009 9.51398L22.9863 3.41019C23.0301 2.96923 22.5866 2.64689 22.192 2.82998ZM11.6529 5.75681C11.0856 5.75681 10.624 6.22613 10.624 6.80376V13.3073C10.624 13.6064 10.8689 13.9055 11.3537 14.1918C11.4388 14.3052 11.5961 14.3929 11.7251 14.4651L15.5467 16.822C15.704 16.9149 15.8716 16.9613 16.0392 16.9613C16.1218 16.9613 16.2069 16.9484 16.2868 16.9252C16.5215 16.853 16.7278 16.6802 16.8644 16.4378C17.1352 15.9582 16.9263 15.3161 16.4028 15.0066L12.6792 12.8121V6.80376C12.6818 6.22613 12.2202 5.75681 11.6529 5.75681Z" fill="#594AE1"/>
</svg>
