<svg width="23" height="25" viewBox="0 0 23 25" fill="none" xmlns="http://www.w3.org/2000/svg">
<path d="M11.5 15.2372C12.586 15.2372 13.4661 14.4284 13.4661 13.4314V1.80679C13.466 0.808728 12.586 0 11.5 0C10.414 0 9.53391 0.808728 9.53391 1.80679V13.4314C9.53391 14.4284 10.4139 15.2372 11.5 15.2372Z" fill="#594AE1"/>
<path d="M19.0241 5.39179C18.2661 4.7342 17.1025 4.79797 16.4258 5.53547C15.7492 6.27218 15.8155 7.4027 16.5739 8.0603C18.1422 9.42413 19.1234 11.3869 19.1241 13.5893C19.1169 17.6812 15.7102 20.9922 11.5001 20.9988C7.29011 20.9922 3.88287 17.6812 3.8762 13.5893C3.87674 11.3765 4.86711 9.4066 6.4479 8.04226C7.20898 7.38763 7.27891 6.25671 6.60524 5.51812C5.93088 4.77871 4.76841 4.71027 4.00787 5.36541L4.00733 5.36447C1.67417 7.37116 0.194319 10.3203 0.194977 13.5893C0.196054 19.6582 5.25604 24.5754 11.5001 24.5764C17.744 24.5754 22.804 19.6581 22.805 13.5893C22.8056 10.3344 21.3397 7.39679 19.0241 5.39179Z" fill="#594AE1"/>
</svg>
