<svg width="24" height="24" viewBox="0 0 24 24" fill="none" xmlns="http://www.w3.org/2000/svg">
<path d="M6.44079 19.6789C3.1864 16.4246 3.1864 11.1476 6.44079 7.89318L12.334 2L18.2272 7.89318C21.4816 11.1476 21.4816 16.4246 18.2272 19.6789C14.9722 22.9333 9.69518 22.9333 6.44079 19.6789Z" fill="#4597e8" style="fill:#4597e8;fill-opacity:1;"/>
<path d="M14.7813 15.9285C14.7812 16.1959 14.8339 16.4606 14.9362 16.7077C15.0385 16.9547 15.1885 17.1792 15.3776 17.3682C15.5667 17.5573 15.7911 17.7073 16.0382 17.8096C16.2852 17.9119 16.55 17.9646 16.8173 17.9646C17.0847 17.9646 17.3495 17.9119 17.5965 17.8096C17.8436 17.7073 18.068 17.5573 18.2571 17.3682C18.4462 17.1792 18.5961 16.9547 18.6985 16.7077C18.8008 16.4606 18.8534 16.1959 18.8534 15.9285C18.8534 15.6611 18.8008 15.3963 18.6985 15.1493C18.5961 14.9022 18.4462 14.6778 18.2571 14.4887C18.068 14.2996 17.8436 14.1497 17.5965 14.0473C17.3495 13.945 17.0847 13.8923 16.8173 13.8923C16.55 13.8923 16.2852 13.945 16.0382 14.0473C15.7911 14.1497 15.5667 14.2996 15.3776 14.4887C15.1885 14.6778 15.0385 14.9022 14.9362 15.1493C14.8339 15.3963 14.7812 15.6611 14.7813 15.9285Z" fill="white" style="fill:white;fill:white;fill-opacity:1;"/>
</svg>
