<?xml version="1.0" encoding="UTF-8"?>
<svg width="78px" height="79px" viewBox="0 0 78 79" version="1.1" xmlns="http://www.w3.org/2000/svg" xmlns:xlink="http://www.w3.org/1999/xlink">
    <title>1-1-定时-选中</title>
    <g id="页面-1" stroke="none" stroke-width="1" fill="none" fill-rule="evenodd">
        <g id="切图" transform="translate(-219.000000, -418.000000)" fill="#FF9269" fill-rule="nonzero">
            <g id="编组" transform="translate(104.000000, 152.000000)">
                <g id="1-1-定时-选中" transform="translate(115.000000, 266.985145)">
                    <path d="M73.4926647,42.0148546 C73.4926647,61.3431214 57.8207895,77.0148546 38.473986,77.0148546 C19.1271825,77.0148546 3.49266469,61.3422464 3.49266469,42.0148546 C3.49266469,22.6874628 19.1271825,7.01485462 38.473986,7.01485462 C57.8207895,7.01485462 73.4935335,22.6865878 73.4926647,42.0148546 L73.4926647,42.0148546 Z M38.0810919,23.0148546 C36.1069473,23.0148546 34.5065868,24.6152151 34.5065868,26.5893597 L34.5065868,46.32207 L34.5065868,46.32207 L34.4926647,46.3453179 L51.8412623,56.2561108 C53.5460109,57.2299883 55.7171003,56.6480856 56.7062823,54.9521716 C57.6840711,53.2757908 57.1177504,51.1241612 55.4413696,50.1463724 C55.4323015,50.1410832 55.4232097,50.1358346 55.4140945,50.1306269 L41.655597,42.2700638 L41.655597,42.2700638 L41.655597,26.5893597 C41.655597,24.6152151 40.0552366,23.0148546 38.0810919,23.0148546 Z M21.1277451,1.58614663 C22.530157,3.37849638 22.2140499,5.96836241 20.4217002,7.3707743 C20.4201461,7.37199026 20.4185912,7.37320509 20.4170354,7.37441881 L6.67214306,18.0972183 C4.87444535,19.4996558 2.28056822,19.1811681 0.875549685,17.3854869 C-0.52686221,15.5931372 -0.210755116,13.0032711 1.58159464,11.6008592 C1.58314868,11.5996433 1.5847036,11.5984285 1.58625939,11.5972147 L15.3311517,0.874415212 C17.1288495,-0.528022264 19.7227266,-0.209534539 21.1277451,1.58614663 Z M56.8717768,1.58614663 C55.4693649,3.37849638 55.785472,5.96836241 57.5778218,7.3707743 C57.5793758,7.37199026 57.5809307,7.37320509 57.5824865,7.37441881 L71.3273789,18.0972183 C73.1250766,19.4996558 75.7189537,19.1811681 77.1239723,17.3854869 C78.5263842,15.5931372 78.2102771,13.0032711 76.4179273,11.6008592 C76.4163733,11.5996433 76.4148183,11.5984285 76.4132626,11.5972147 L62.6683702,0.874415212 C60.8706725,-0.528022264 58.2767954,-0.209534539 56.8717768,1.58614663 Z" id="形状"></path>
                </g>
            </g>
        </g>
    </g>
</svg>