<svg width="32" height="32" viewBox="0 0 32 32" fill="none" xmlns="http://www.w3.org/2000/svg">
<path fill-rule="evenodd" clip-rule="evenodd" d="M2 0C0.895431 0 0 0.895431 0 2V30C0 31.1046 0.895431 32 2 32H30C31.1046 32 32 31.1046 32 30V2C32 0.895431 31.1046 0 30 0H2ZM25 7.79529C25 7.67486 24.9824 7.55502 24.9476 7.43923C24.8486 7.10907 24.6159 6.82988 24.3006 6.66307C23.9854 6.49626 23.6135 6.45549 23.2667 6.54972L16.4666 8.39995C16.2396 8.46153 16.0333 8.57832 15.868 8.73882C15.7028 8.89932 15.5843 9.09801 15.5241 9.31535H15.4799L15.4806 17.2497C14.8675 16.8432 14.1625 16.5797 13.4226 16.4807C12.6827 16.3817 11.9287 16.4499 11.2216 16.6798C10.5146 16.9097 9.87426 17.2948 9.35255 17.804C8.83084 18.3132 8.44236 18.9322 8.21856 19.6109C7.99475 20.2896 7.94191 21.0089 8.06429 21.7106C8.18667 22.4123 8.48085 23.0767 8.92302 23.6501C9.36519 24.2235 9.94293 24.6898 10.6095 25.0111C11.2761 25.3325 12.0127 25.5 12.7599 25.5L12.9231 25.4974C14.1566 25.4571 15.3254 24.9623 16.183 24.1173C17.0406 23.2724 17.52 22.1433 17.5199 20.9683V13.2916L24.014 11.5255C24.298 11.4482 24.5478 11.2849 24.7257 11.0605C24.9036 10.836 24.9999 10.5625 25 10.2812V7.79529Z" fill="white"/>
</svg>
