<svg width="16" height="16" viewBox="0 0 16 16" fill="none" xmlns="http://www.w3.org/2000/svg">
<g opacity="0.6">
<path d="M8 2V14C5.66667 14 3.93283 10.9464 3.93283 10.9464H2C1.63181 10.9464 1.33333 10.6479 1.33333 10.2797V5.67027C1.33333 5.30207 1.63181 5.0036 2 5.0036H3.93283C3.93283 5.0036 5.66667 2 8 2Z" stroke="#132847"/>
<path d="M10 5C10.2077 5.1855 10.396 5.39323 10.5614 5.6196C11.0462 6.28347 11.3333 7.10743 11.3333 8C11.3333 8.88483 11.0512 9.70223 10.5739 10.3631C10.4056 10.5962 10.213 10.8098 10 11" stroke="#132847"/>
<path d="M11.412 13.7285C13.3612 12.565 14.6667 10.4349 14.6667 7.99994C14.6667 5.60277 13.4014 3.50111 11.5023 2.32629" stroke="#132847"/>
</g>
</svg>
