<?xml version="1.0" encoding="UTF-8"?>
<svg width="70px" height="70px" viewBox="0 0 70 70" version="1.1" xmlns="http://www.w3.org/2000/svg" xmlns:xlink="http://www.w3.org/1999/xlink">
    <!-- Generator: Sketch 59.1 (86144) - https://sketch.com -->
    <title>模式未选</title>
    <desc>Created with Sketch.</desc>
    <g id="页面-1" stroke="none" stroke-width="1" fill="none" fill-rule="evenodd">
        <g id="1备份" transform="translate(-96.000000, -363.000000)" fill="#B5C4D1">
            <g id="黑白" transform="translate(96.000000, 34.000000)">
                <g id="模式未选" transform="translate(0.000000, 329.000000)">
                    <path d="M54,38 C62.836556,38 70,45.163444 70,54 C70,62.836556 62.836556,70 54,70 C45.163444,70 38,62.836556 38,54 C38,45.163444 45.163444,38 54,38 Z M24,38 C28.418278,38 32,41.581722 32,46 L32,62 C32,66.418278 28.418278,70 24,70 L8,70 C3.581722,70 5.41083001e-16,66.418278 0,62 L0,46 C-5.41083001e-16,41.581722 3.581722,38 8,38 L24,38 Z M24,0 C28.418278,-8.11624501e-16 32,3.581722 32,8 L32,24 C32,28.418278 28.418278,32 24,32 L8,32 C3.581722,32 5.41083001e-16,28.418278 0,24 L0,8 C-5.41083001e-16,3.581722 3.581722,8.11624501e-16 8,0 L24,0 Z M62,0 C66.418278,-8.11624501e-16 70,3.581722 70,8 L70,24 C70,28.418278 66.418278,32 62,32 L46,32 C41.581722,32 38,28.418278 38,24 L38,8 C38,3.581722 41.581722,8.11624501e-16 46,0 L62,0 Z" id="形状结合"></path>
                </g>
            </g>
        </g>
    </g>
</svg>