<?xml version="1.0" encoding="UTF-8"?>
<svg width="764px" height="588px" viewBox="0 0 764 588" version="1.1" xmlns="http://www.w3.org/2000/svg" xmlns:xlink="http://www.w3.org/1999/xlink">
    <title>家居</title>
    <g id="页面-1" stroke="none" stroke-width="1" fill="none" fill-rule="evenodd" opacity="0.530877976">
        <g id="智能网关2" transform="translate(-181.000000, -379.000000)">
            <g id="家居" transform="translate(181.000000, 379.000000)">
                <path d="M257.625889,474.393198 L242.859711,563.046343 C242.859711,563.046343 239.701467,565.633762 245.491581,566.66873 C249.358074,567.244354 253.301883,567.068538 257.099515,566.151246 L284,472.840747 C284,472.840747 270.28657,465.514266 257.625889,474.393198 Z" id="路径" fill="#616161" fill-rule="nonzero"></path>
                <polygon id="路径" fill="#383838" fill-rule="nonzero" points="279.457239 458 257 566 274.869201 561.336364 305 462.172727"></polygon>
                <path d="M674.374111,469.370302 L689.140289,558.043922 C689.140289,558.043922 692.298533,560.76815 686.508419,561.667146 C682.64204,562.245034 678.697807,562.069159 674.900485,561.149542 L648,467.817492 C648,467.817492 661.71343,460.543803 674.374111,469.370302 Z" id="路径" fill="#5B5B5B" fill-rule="nonzero"></path>
                <polygon id="路径" fill="#3C3C3C" fill-rule="nonzero" points="655.515931 459 678 567 660.130799 562.309091 630 463.172727"></polygon>
                <path d="M521.643836,579.956343 C521.643836,579.956343 522.164384,586.747125 526.356164,587.787648 C530.547945,588.828171 539.39726,585.706602 539.39726,585.706602 L542,484.584188 C542,484.584188 522.821918,481.845969 518,488.226018 L521.643836,579.956343 Z" id="路径" fill="#606060" fill-rule="nonzero"></path>
                <polygon id="路径" fill="#3B3B3B" fill-rule="nonzero" points="539.191406 585.757812 547.50469 579.719267 550 466.036209 536 465"></polygon>
                <path d="M405.711409,544.186773 C405.711409,544.186773 406.466443,550.944351 410.744966,551.847186 C415.02349,552.75002 424,549.357551 424,549.357551 L423.356823,448.294819 C423.356823,448.294819 403.58613,446.29764 399,452.699556 L405.711409,544.186773 Z" id="路径" fill="#626262" fill-rule="nonzero"></path>
                <polygon id="路径" fill="#3E3E3E" fill-rule="nonzero" points="423.575195 549.518555 432 542.462055 431.003497 428.573539 417 428"></polygon>
                <path d="M403.76559,281.461165 C403.76559,281.461165 311.258503,280.423544 282.907802,281.461165 C254.557101,282.498786 232.137736,282.143811 216.275492,290.827063 C200.413247,299.510316 194.862822,326.160801 199.678632,379.871359 C204.494442,433.581917 204.167947,427.356189 205.555553,440.517597 C206.943159,453.679005 207.623358,470.035194 222.832612,475.496359 C238.041865,480.957524 258.71992,479.319175 270.827465,480.00182 C282.93501,480.684466 369.23868,486.9375 383.740526,487.620146 C398.242373,488.302791 555.694875,501 555.694875,501 L565,291.127427 L403.76559,281.461165 Z" id="路径" fill="#CECECE" fill-rule="nonzero"></path>
                <path d="M404.872928,284.023091 C404.872928,284.023091 321.422544,283.667706 294.760993,285.745342 C268.099441,287.822979 257.702255,286.100727 248.696818,292.689021 C239.691381,299.277315 226.865455,311.087037 234.151672,353.049822 C241.43789,395.012607 236.607701,402.749068 249.024288,412.72719 C294.406233,425.220345 525,432 525,432 L441.576906,323.90824 L404.872928,284.023091 Z" id="路径" fill="#B2B2B2" fill-rule="nonzero"></path>
                <path d="M420.307402,184.374415 C415.731299,187.099936 414.85966,211.357071 410.63766,231.416904 C406.41566,251.476737 402.466046,291.596403 396.800395,302.662017 C391.134743,313.727632 386.422446,353.847297 390.589968,358.698724 C394.757491,363.550151 647.777879,385 647.777879,385 L674.744203,292.986418 C674.744203,292.986418 671.284887,288.489309 671.611751,287.099293 C672.606672,283.573787 673.415868,279.998431 674.035996,276.387997 C674.744203,271.890887 674.3901,268.429476 676.106138,265.322382 C677.822177,262.215289 676.106138,258.726622 677.495313,254.583831 C678.884487,250.441039 677.849416,247.661008 680.219184,243.872534 C682.588952,240.08406 682.289326,233.842617 682.289326,229.672571 C682.289326,225.502524 681.581119,223.104065 683.6785,220.351289 C686.745455,216.843047 687.776323,211.995031 686.402371,207.541342 C684.686332,201.327154 672.238241,186.445811 669.133028,185.055795 C666.027815,183.66578 635.248072,189.552905 622.827219,188.517207 C610.406367,187.481509 555.765513,185.410113 546.776738,187.127191 C537.787963,188.844269 493.198193,188.871524 479.034063,188.190144 C464.869934,187.508764 423.085751,182.630082 420.307402,184.374415 Z" id="路径" fill="#EEEEEE" fill-rule="nonzero"></path>
                <path d="M644,319.981157 C644,319.981157 656.142687,275.599407 656.498216,261.148904 C656.833357,249.487995 659.182895,237.970384 663.444709,227.096688 C666.562426,218.963197 673.508918,201.964201 668.914388,188.218601 C664.319857,174.473001 713,209.203008 713,209.203008 L705.014269,352 L644,319.981157 Z" id="路径" fill="#DBDBDB" fill-rule="nonzero"></path>
                <path d="M596.813913,499.637176 C617.470114,498.409849 690.350403,495.491536 700.176349,494.455125 C710.002295,493.418715 723.926909,484.581954 729.627043,433.170553 C735.327178,381.759151 741.515895,336.102554 742.547348,324.674767 C743.578801,313.246981 747.188886,298.191759 736.847213,293.009708 C726.505541,287.827656 637.122006,290.909613 637.122006,290.909613 L571.000448,297.155348 L552,322.601947 L552,485.618365 L556.668681,500.155382 C556.668681,500.155382 552.895735,502.364572 596.813913,499.637176 Z" id="路径" fill="#B6B6B6" fill-rule="nonzero"></path>
                <path d="M247.128331,357.456747 C247.647191,364.164616 244.534031,371.415633 248.684911,378.639492 C252.83579,385.863351 245.052891,387.954468 244.534031,397.269444 C244.015171,406.58442 241.803189,410.71234 252.726557,414.840259 C263.649924,418.968179 331.238258,420.000159 348.306019,422.091276 C365.373781,424.182393 500.632374,429.315135 509.425685,429.315135 C518.218996,429.315135 520.349052,434.475034 530.753559,426.735185 C541.158067,418.995336 535.423299,360.552687 535.423299,360.552687 C535.423299,360.552687 479.277192,349.689741 469.883096,353.844818 C460.489,357.999894 442.328902,355.908777 433.999835,355.392787 C425.670767,354.876797 402.813621,356.424767 386.182795,356.940757 C369.551968,357.456747 359.912097,348.549131 335.00682,350.205731 C319.441022,351.264868 266.899626,350.748878 260.154446,352.296848 C255.602792,353.438632 251.222834,355.173619 247.128331,357.456747 Z" id="路径" fill="#EEEEEE" fill-rule="nonzero"></path>
                <g id="编组" transform="translate(246.000000, 333.000000)" fill-rule="nonzero">
                    <path d="M0.609227281,24.3529255 C31.1378385,19.5281628 62.2780574,20.2053214 92.5701901,26.3526596 C109.887868,29.8590426 148.232208,35.1460106 162.822693,35.1460106 C180.794898,35.1460106 230.811626,33.9954787 240.165899,36.7896277 C249.520173,39.5837766 270.574106,41.6656915 272.292238,44.4324468 C274.01037,47.1992021 313.391043,20.7917553 313.391043,20.7917553 L281.891959,0 L4.67274551,10.0260638 L0.609227281,24.3529255 Z" id="路径" fill="#DCDCDC"></path>
                    <path d="M271.010309,43.2453733 C273.706059,62.4688313 274.45532,81.9172227 273.246608,101.292448 C273.246608,101.292448 291.927883,104.442714 298.854954,101.292448 C305.782026,98.1421818 317.945308,41.1634584 315.218115,35.9586712 C312.490922,30.7538839 320.072519,33.7945754 316.308992,33.4110648 C300.560528,31.9091297 284.735573,35.3447151 271.010309,43.2453733 L271.010309,43.2453733 Z" id="路径" fill="#C4C4C4"></path>
                </g>
                <polygon id="路径" fill="#3C3C3C" fill-rule="nonzero" points="164 555 155.430825 555 118 451 140.609223 451"></polygon>
                <polygon id="路径" fill="#666666" fill-rule="nonzero" points="139.145455 451 162 555 158.563636 555 126 451"></polygon>
                <polygon id="路径" fill="#393939" fill-rule="nonzero" points="66.3907767 451 43 555 51.5970874 555 89 451"></polygon>
                <polygon id="路径" fill="#606060" fill-rule="nonzero" points="66.7650514 451 44 555 48.5638767 555 81 451"></polygon>
                <polygon id="路径" fill="#686868" fill-rule="nonzero" points="108 454.505937 102.07776 566 95.4416796 566 91 453"></polygon>
                <ellipse id="椭圆形" fill="#B9B9B9" fill-rule="nonzero" cx="108" cy="447" rx="108" ry="10"></ellipse>
                <rect id="矩形" fill="#B8B8B8" fill-rule="nonzero" transform="translate(108.000000, 443.500000) rotate(180.000000) translate(-108.000000, -443.500000) " x="0" y="440" width="216" height="7"></rect>
                <path d="M0,440 C0,445.509642 48.3569898,450 108.013614,450 C167.670238,450 216,445.509642 216,440 C216,434.490358 167.64301,430 108.013614,430 C48.3842178,430 0,434.46281 0,440 Z" id="路径" fill="#F4F4F4" fill-rule="nonzero"></path>
                <polygon id="路径" fill="#DADADA" fill-rule="nonzero" points="113 437.784343 100.311396 448 66.3386838 447.77548 45 437.784343 62.1910112 429 96.1910112 429.22452"></polygon>
                <polygon id="路径" fill="#FFFFFF" fill-rule="nonzero" points="108 437.29845 93.336773 444 64.336773 443.810078 50 437.29845 64.663227 430 93.663227 430.189922"></polygon>
                <rect id="矩形" fill="#FFFFFF" fill-rule="nonzero" x="50" y="393" width="58" height="44"></rect>
                <polygon id="路径" fill="#8C8C8C" fill-rule="nonzero" points="108 393.770083 93.336773 401 64.336773 400.806094 50 393.770083 64.663227 391 93.663227 391.193906"></polygon>
                <path d="M99.7936998,358.451544 C94.3055274,340.216123 79.3228167,340 78.4995908,340 L78.4995908,340 C77.7038058,340 62.6936543,340.189108 57.178041,358.451544 C52.0312025,373.759555 56.1708833,390.616837 67.8525364,401.919383 C71.3774059,402.547736 74.946037,402.909001 78.5270317,403 C82.1081584,402.91103 85.6769475,402.549749 89.201527,401.919383 C100.865866,390.605775 104.974783,373.743726 99.7936998,358.451544 L99.7936998,358.451544 Z" id="路径" fill="#FFFFFF" fill-rule="nonzero"></path>
                <path d="M79,340 C79,340 63.6789791,339.703112 58.1611709,358.451742 C53.0913317,373.686932 57.0919458,390.376668 68.5805855,401.919387 C72.0180401,402.548634 75.5024282,402.910005 79,403 L79,340 Z" id="路径" fill="#ECECEC" fill-rule="nonzero"></path>
                <path d="M78,340 C78,340 93.3023858,339.703112 98.8414577,358.451742 C103.90513,373.686932 99.9093824,390.376668 88.4347164,401.919387 C84.9921895,402.549728 81.5026533,402.911102 78,403 L78,340 Z" id="路径" fill="#ECECEC" fill-rule="nonzero"></path>
                <path d="M77,340 C77,340 90.3850762,339.703112 95.2105972,358.451742 C100.036118,377.200372 94.4637904,392.247904 86.1052986,401.919387 C83.113176,402.5486 80.0645192,402.910413 77,403 L77,340 Z" id="路径" fill="#CFCFCF" fill-rule="nonzero"></path>
                <path d="M77,340 C77,340 65.6327211,339.703112 61.5234231,358.451742 C57.4141251,377.200372 62.1638332,392.247904 69.2617116,401.919387 C71.7980808,402.545351 74.3909616,402.907434 77,403 L77,340 Z" id="路径" fill="#FFFFFF" fill-rule="nonzero"></path>
                <path d="M79,340 C79,340 90.3764053,339.703112 94.4793711,358.451742 C98.582337,377.200372 93.8399479,392.247904 86.7263642,401.919387 C84.1943601,402.547782 81.6052272,402.909899 79,403 L79,340 Z" id="路径" fill="#FFFFFF" fill-rule="nonzero"></path>
                <path d="M77,340 C77,340 66.1849678,339.703112 62.3997066,358.451742 C58.6144453,377.200372 62.9945333,392.247904 69.6998533,401.919387 C72.0865936,402.544126 74.5344957,402.90648 77,403 L77,340 Z" id="路径" fill="#EBEBEB" fill-rule="nonzero"></path>
                <path d="M78,340 C78,340 88.789057,339.703112 92.5921995,358.451742 C96.3953421,377.200372 91.9988014,392.247904 85.3095861,401.919387 C82.9197238,402.545649 80.4685972,402.908011 78,403 L78,340 Z" id="路径" fill="#DFDFDF" fill-rule="nonzero"></path>
                <path d="M79,340 C79,340 87.0297433,339.703112 89.9248208,358.451742 C92.8198983,377.200372 89.4878279,392.247904 84.4624104,401.919387 C82.7039818,402.53885 80.8640366,402.902841 79,403 L79,340 Z" id="路径" fill="#D3D3D3" fill-rule="nonzero"></path>
                <path d="M79,340 C79,340 69.6430865,339.703112 66.2557172,358.451742 C62.8683479,377.200372 66.7832583,392.247904 72.6417413,401.919387 C74.7051083,402.542015 76.8418822,402.905168 79,403 L79,340 Z" id="路径" fill="#DEDEDE" fill-rule="nonzero"></path>
                <path d="M79,340 C79,340 72.3011609,339.703112 69.8919292,358.451742 C67.4826976,377.200372 70.2738806,392.247904 74.4459646,401.919387 C75.8817524,402.526403 77.4240537,402.892371 79,403 L79,340 Z" id="路径" fill="#FFFFFF" fill-rule="nonzero"></path>
                <path d="M78,340 C78,340 84.6709079,339.703112 87.0993525,358.451742 C89.527797,377.200372 86.7189937,392.247904 82.5643054,401.919387 C81.1251955,402.528968 79.5792265,402.894981 78,403 L78,340 Z" id="路径" fill="#FFFFFF" fill-rule="nonzero"></path>
                <path d="M78,340 C78,340 72.7288271,339.703112 70.8268575,358.451742 C68.9943613,373.031829 70.215476,387.831195 74.4134287,401.919387 C75.5221417,402.519445 76.7427778,402.887215 78,403 L78,340 Z" id="路径" fill="#BBBBBB" fill-rule="nonzero"></path>
                <path d="M77.120982,340 C77.120982,340 82.988608,339.703112 85.1057927,358.451742 C87.121442,373.039015 85.7206902,387.841264 80.9924054,401.919387 C79.7606199,402.524514 78.4006504,402.892613 77,403 L77.120982,340 Z" id="路径" fill="#DCDCDC" fill-rule="nonzero"></path>
                <polygon id="路径" fill="#F4F4F4" fill-rule="nonzero" points="63 443.808889 93 444 93 401.191111 63 401"></polygon>
                <path d="M395.01084,240.778753 C406.974384,239.454066 418.996637,238.732974 431.032216,238.618199 C449.424371,238.618199 497.707184,232.327977 514.546224,239.247221 C531.385264,246.166465 517.597959,267.662614 519.151075,290.717645 C520.70419,313.772676 521.439876,356.026558 513.701547,362.180036 C505.963218,368.333514 460.105445,362.945802 435.609819,359.882737 C411.114193,356.819673 403.484855,359.116971 381.278031,358.323856 C359.071206,357.530741 370.569709,332.205761 374.384378,312.241144 C378.199048,292.276526 372.74952,242.447029 395.01084,240.778753 Z" id="路径" fill="#FFFFFF" fill-rule="nonzero"></path>
                <path d="M528.065012,239 C524.505728,241.895391 514.582875,232.499027 510.241627,257.055222 C505.900379,281.611418 505.253237,298.24626 506.682343,308.380129 C508.11145,318.513998 509.37877,363.283301 517.468053,370.521779 C525.557335,377.760257 556,300.43146 556,300.43146 L528.065012,239 Z" id="路径" fill="#E2E2E2" fill-rule="nonzero" opacity="0.36"></path>
                <path d="M520.562095,441.997536 L556.455739,499.915876 C558.117862,500.270514 559.813925,499.480776 560.60782,497.982542 C561.454626,496.321508 562.68386,373.568391 567.354951,348.680115 C572.026041,323.791839 576.205438,306.173989 587.131966,301.000278 C598.058494,295.826566 667.715109,290.108253 696.397245,291.142996 C725.079381,292.177738 738,292.722339 738,292.722339 C738,292.722339 732.290889,284.934542 678.204576,286.486655 C624.118263,288.038769 571.670929,279.76083 548.206211,298.930793 C524.741492,318.100756 517.830463,432.657625 520.562095,441.997536 Z" id="路径" fill="#CDCDCD" fill-rule="nonzero"></path>
                <path d="M763.979112,572.095238 L763.979112,572.095238 L763.979112,566.611367 L737.086382,566.611367 C719.511033,565.018433 694.845782,564 667.491258,564 C640.136734,564 615.471482,565.018433 597.923297,566.611367 L571.030568,566.611367 L571.030568,572.095238 L571.030568,572.095238 C570.989811,572.231755 570.989811,572.376539 571.030568,572.513057 C571.030568,577.187404 614.221921,581 667.491258,581 C720.760594,581 763.979112,577.187404 763.979112,572.513057 C764.006963,572.375071 764.006963,572.233224 763.979112,572.095238 Z" id="路径" fill="#B0B0B0" fill-rule="nonzero"></path>
                <path d="M764,566.486943 C764,571.187404 720.797128,575 667.486414,575 C614.1757,575 571,571.187404 571,566.486943 C571,561.786482 614.202872,558 667.486414,558 C720.769956,558 764,561.812596 764,566.486943 Z" id="路径" fill="#FFFFFF" fill-rule="nonzero"></path>
                <path d="M530.866663,43.6720311 C529.402415,66.0672 510.611241,75.3191531 488.322142,73.8497252 C466.033043,72.3802974 448.597653,60.7065095 450.089016,38.4746104 C450.862476,23.8447253 459.425004,10.7658753 472.498262,4.24556434 C485.57152,-2.27474657 501.130379,-1.22648167 513.217813,6.98900949 C525.305247,15.2045007 532.048837,29.3145874 530.866663,43.9169358 L530.866663,43.6720311 Z" id="路径" fill="#FFFFFF" fill-rule="nonzero"></path>
                <path d="M513.836311,67.8379704 C512.091486,74.9105613 496.881167,77.1074969 479.850162,72.7907112 C462.819156,68.4739255 450.434695,59.3007558 452.160554,52.1703508 C453.886413,45.0399458 469.115697,42.9008243 486.146703,47.2368814 C503.177708,51.5729385 515.581135,60.7268368 513.836311,67.8379704 Z" id="路径" fill="#E2E2E2" fill-rule="nonzero"></path>
                <path d="M523,29 L705.968824,141.444343 C725.656544,153.595879 737.140676,175.541574 735.910167,198.660995 L716.14888,567" id="路径" stroke="#9D9999" stroke-width="5" stroke-linecap="round"></path>
            </g>
        </g>
    </g>
</svg>