<svg width="24" height="24" viewBox="0 0 24 24" fill="none" xmlns="http://www.w3.org/2000/svg">
<path fill-rule="evenodd" clip-rule="evenodd" d="M5.12132 3L4.06066 4.06066L8 8L13 13L21.0312 21.0312L22.0919 19.9706L19.0575 16.9362C20.1525 15.5031 20.7 13.82 20.7 12C20.7 9.8 19.8 7.7 18.3 6.2L18.2 6.1L17.1 7.2L17.2 7.3C18.4 8.6 19.1 10.2 19.1 12C19.1 13.4131 18.7302 14.7028 17.9423 15.821L17.0237 14.9024C17.5822 14.0377 17.9 13.0189 17.9 12C17.9 10.6 17.3 9.2 16.3 8.2L16.2 8.1L15.1 9.2L15.2 9.3C15.9 10 16.3 11 16.3 12C16.3 12.6082 16.152 13.2165 15.8785 13.7572L13 10.8787V5.4C13 5.1 12.9 4.9 12.7 4.7C12.3 4.3 11.7 4.3 11.3 4.7L9.06066 6.93934L5.12132 3ZM3 8.5H6.37868L13 15.1213V18.6C13 19.2 12.6 19.6 12 19.6C11.7 19.6 11.5 19.5 11.3 19.3L7.5 15.5H3C2.4 15.5 2 15.1 2 14.5V9.5C2 8.9 2.4 8.5 3 8.5Z" fill="#26313D"/>
</svg>
