<svg width="32" height="32" viewBox="0 0 32 32" fill="none" xmlns="http://www.w3.org/2000/svg">
<path d="M29.1156 1.99609C29.7594 1.99609 30.2819 2.51391 30.2865 3.15766C30.2903 3.79516 29.7765 4.31547 29.139 4.31922H26.7834V7.51016C26.7834 11.2211 24.4509 14.3958 21.0687 15.9911C24.4509 17.5702 26.7834 20.7611 26.7834 24.472V27.663H29.1159C29.7575 27.663 30.2775 28.183 30.2775 28.8245C30.2775 29.4661 29.7575 29.9861 29.1159 29.9861H3.4531L3.2431 29.9673C2.61029 29.8705 2.1756 29.2789 2.27248 28.6461C2.36123 28.0655 2.8706 27.643 3.45779 27.6627H5.80904V24.4723C5.80904 20.7614 8.13935 17.5867 11.5237 15.9914C8.13935 14.4123 5.80904 11.2214 5.80904 7.51047V4.31922H3.45779C2.81623 4.31922 2.29623 3.79922 2.29623 3.15766C2.29623 2.51609 2.81623 1.99609 3.45779 1.99609H29.1156ZM24.4503 4.31922H8.13435V7.49391C8.13435 10.258 9.87685 12.8005 12.559 14.0786C13.3709 14.5055 13.835 15.2495 13.835 15.9914C13.8584 16.8352 13.3469 17.6017 12.559 17.9042C9.8931 19.1823 8.13435 21.7248 8.13654 24.4889V27.6939H9.4356V26.3411C9.4356 23.8452 10.3547 21.1092 13.205 19.4461L13.6715 19.1917C14.7353 18.7323 15.6075 17.7595 16.2862 16.2761C16.8228 17.6498 17.7325 18.6227 19.02 19.1917C22.5187 20.9995 23.0715 23.7167 23.0715 26.3408V27.6936H24.45V24.5048C24.45 21.7408 22.71 19.1983 20.0275 17.9177C19.2159 17.4908 18.7515 16.7489 18.7515 16.0048C18.7515 15.1536 19.2156 14.4117 20.0275 14.0945C22.6934 12.8186 24.45 10.2761 24.45 7.50984V4.31922H24.4503ZM22.8294 8.99359C22.8294 10.5098 20.9634 12.208 19.2234 12.9286C18.1831 13.3602 17.2034 14.1717 16.2869 15.3639C15.419 14.172 14.4675 13.3602 13.4387 12.9289C11.5797 12.1498 9.98904 10.5895 9.98904 8.99391H22.8294V8.99359Z" fill="#F2A56B"/>
</svg>
