<svg width="102" height="182" viewBox="0 0 102 182" fill="none" xmlns="http://www.w3.org/2000/svg">
<path d="M0 16C0 7.16344 7.16344 0 16 0H86C94.8366 0 102 7.16344 102 16V130H0V16Z" fill="url(#paint0_linear_1703_31183)"/>
<path d="M0.5 16C0.5 7.43959 7.43959 0.5 16 0.5H86C94.5604 0.5 101.5 7.43959 101.5 16V129.5H0.5V16Z" stroke="white" stroke-opacity="0.17"/>
<path d="M0 130H102V174C102 178.418 98.4183 182 94 182H8C3.58172 182 0 178.418 0 174V130Z" fill="white"/>
<path d="M0 130H102V174C102 178.418 98.4183 182 94 182H8C3.58172 182 0 178.418 0 174V130Z" fill="url(#paint1_linear_1703_31183)"/>
<circle cx="51" cy="156" r="13" fill="black" style="mix-blend-mode:soft-light"/>
<circle cx="51" cy="156" r="10.5" stroke="black" stroke-opacity="0.48" style="mix-blend-mode:overlay"/>
<circle cx="51" cy="156" r="9" fill="black" fill-opacity="0.59" style="mix-blend-mode:soft-light"/>
<rect x="50" y="148" width="2" height="6" rx="1" fill="#ECECEC"/>
<path d="M8 120H16" stroke="white" stroke-opacity="0.2" stroke-linecap="round"/>
<path d="M8 117H16" stroke="white" stroke-opacity="0.2" stroke-linecap="round"/>
<path d="M8 114H16" stroke="white" stroke-opacity="0.2" stroke-linecap="round"/>
<path d="M8 111H16" stroke="white" stroke-opacity="0.2" stroke-linecap="round"/>
<path d="M8 108H20" stroke="white" stroke-opacity="0.2" stroke-linecap="round"/>
<path d="M8 90H16" stroke="white" stroke-opacity="0.2" stroke-linecap="round"/>
<path d="M8 87H16" stroke="white" stroke-opacity="0.2" stroke-linecap="round"/>
<path d="M8 84H16" stroke="white" stroke-opacity="0.2" stroke-linecap="round"/>
<path d="M8 81H16" stroke="white" stroke-opacity="0.2" stroke-linecap="round"/>
<path d="M8 78H20" stroke="white" stroke-opacity="0.2" stroke-linecap="round"/>
<path d="M8 60H16" stroke="white" stroke-opacity="0.2" stroke-linecap="round"/>
<path d="M8 57H16" stroke="white" stroke-opacity="0.2" stroke-linecap="round"/>
<path d="M8 54H16" stroke="white" stroke-opacity="0.2" stroke-linecap="round"/>
<path d="M8 51H16" stroke="white" stroke-opacity="0.2" stroke-linecap="round"/>
<path d="M8 48H20" stroke="white" stroke-opacity="0.2" stroke-linecap="round"/>
<path d="M8 30H16" stroke="white" stroke-opacity="0.2" stroke-linecap="round"/>
<path d="M8 27H16" stroke="white" stroke-opacity="0.2" stroke-linecap="round"/>
<path d="M8 24H16" stroke="white" stroke-opacity="0.2" stroke-linecap="round"/>
<path d="M8 21H16" stroke="white" stroke-opacity="0.2" stroke-linecap="round"/>
<path d="M8 18H20" stroke="white" stroke-opacity="0.2" stroke-linecap="round"/>
<path d="M8 105H16" stroke="white" stroke-opacity="0.2" stroke-linecap="round"/>
<path d="M8 102H16" stroke="white" stroke-opacity="0.2" stroke-linecap="round"/>
<path d="M8 99H16" stroke="white" stroke-opacity="0.2" stroke-linecap="round"/>
<path d="M8 96H16" stroke="white" stroke-opacity="0.2" stroke-linecap="round"/>
<path d="M8 93H20" stroke="white" stroke-opacity="0.2" stroke-linecap="round"/>
<path d="M8 75H16" stroke="white" stroke-opacity="0.2" stroke-linecap="round"/>
<path d="M8 72H16" stroke="white" stroke-opacity="0.2" stroke-linecap="round"/>
<path d="M8 69H16" stroke="white" stroke-opacity="0.2" stroke-linecap="round"/>
<path d="M8 66H16" stroke="white" stroke-opacity="0.2" stroke-linecap="round"/>
<path d="M8 63H20" stroke="white" stroke-opacity="0.2" stroke-linecap="round"/>
<path d="M8 45H16" stroke="white" stroke-opacity="0.2" stroke-linecap="round"/>
<path d="M8 42H16" stroke="white" stroke-opacity="0.2" stroke-linecap="round"/>
<path d="M8 39H16" stroke="white" stroke-opacity="0.2" stroke-linecap="round"/>
<path d="M8 36H16" stroke="white" stroke-opacity="0.2" stroke-linecap="round"/>
<path d="M8 33H20" stroke="white" stroke-opacity="0.2" stroke-linecap="round"/>
<defs>
<linearGradient id="paint0_linear_1703_31183" x1="61" y1="130" x2="61" y2="-6.29336e-07" gradientUnits="userSpaceOnUse">
<stop stop-color="white" stop-opacity="0.17"/>
<stop offset="1" stop-color="white" stop-opacity="0.04"/>
</linearGradient>
<linearGradient id="paint1_linear_1703_31183" x1="74.9451" y1="166.053" x2="19.2083" y2="156.503" gradientUnits="userSpaceOnUse">
<stop stop-color="#EA9238"/>
<stop offset="1" stop-color="#FFC07D"/>
</linearGradient>
</defs>
</svg>
