<svg width="32" height="32" viewBox="0 0 32 32" fill="none" xmlns="http://www.w3.org/2000/svg">
<path fill-rule="evenodd" clip-rule="evenodd" d="M1.66667 0C0.746192 0 0 0.746191 0 1.66667V12.5556C0 13.476 0.746191 14.2222 1.66667 14.2222H12.5556C13.476 14.2222 14.2222 13.476 14.2222 12.5556V1.66667C14.2222 0.746192 13.476 0 12.5556 0H1.66667ZM19.4444 0C18.524 0 17.7778 0.746191 17.7778 1.66667V12.5556C17.7778 13.476 18.524 14.2222 19.4444 14.2222H30.3333C31.2538 14.2222 32 13.476 32 12.5556V1.66667C32 0.746192 31.2538 0 30.3333 0H19.4444ZM0 19.4444C0 18.5239 0.746192 17.7777 1.66667 17.7777H12.5556C13.476 17.7777 14.2222 18.5239 14.2222 19.4444V30.3333C14.2222 31.2538 13.476 31.9999 12.5556 31.9999H1.66667C0.746191 31.9999 0 31.2538 0 30.3333V19.4444ZM19.4444 17.7777C18.524 17.7777 17.7778 18.5239 17.7778 19.4444V30.3333C17.7778 31.2538 18.524 31.9999 19.4444 31.9999H30.3333C31.2538 31.9999 32 31.2538 32 30.3333V19.4444C32 18.5239 31.2538 17.7777 30.3333 17.7777H19.4444Z" fill="#F2A56B"/>
</svg>
