<?xml version="1.0" encoding="UTF-8"?>
<svg width="60px" height="60px" viewBox="0 0 60 60" version="1.1" xmlns="http://www.w3.org/2000/svg" xmlns:xlink="http://www.w3.org/1999/xlink">
    <!-- Generator: Sketch 59.1 (86144) - https://sketch.com -->
    <title>关机</title>
    <desc>Created with Sketch.</desc>
    <g id="页面-1" stroke="none" stroke-width="1" fill="none" fill-rule="evenodd">
        <g id="1备份" transform="translate(-564.000000, -402.000000)" fill="#B5C4D1" fill-rule="nonzero">
            <g id="黑白" transform="translate(26.000000, 73.000000)">
                <g id="关机" transform="translate(543.000000, 334.000000)">
                    <path d="M36.5118301,7.6514297 L36.5118301,7.6514297 C36.5015639,8.50518025 36.8570047,9.32171877 37.4866606,9.89086478 C44.0061927,15.7358846 45.7458297,25.319612 41.7038215,33.1233666 C37.6618132,40.9271212 28.8785922,44.9421787 20.4118763,42.856514 C11.9451603,40.7708493 5.97432319,33.1213226 5.93760345,24.3128267 C5.92868806,18.8306552 8.25312868,13.6094828 12.3183116,9.98044219 C12.9434144,9.3706415 13.2954637,8.52954407 13.293142,7.6514297 L13.293142,7.6514297 C13.1958363,6.63896371 12.5903509,5.74819453 11.6902255,5.29327448 C10.7901002,4.83835443 9.7218025,4.88319975 8.8620947,5.41199461 C3.25952639,10.1324581 0.014220259,17.1195645 3.55271368e-14,24.4919815 C0.0926255462,31.2630372 2.86150326,37.7151843 7.68937142,42.4100556 C12.5172396,47.1049269 19.0027417,49.6522223 25.7000746,49.4840771 C35.89303,49.117981 44.8431028,42.5276264 48.3130163,32.8331172 C51.7829298,23.1386079 49.076325,12.2854846 41.4746032,5.41199461 C40.5907752,4.65309578 39.3545023,4.47424834 38.2955591,4.95209299 C37.2366159,5.42993764 36.5429559,6.47966098 36.5118301,7.6514297 Z" id="路径"></path>
                    <rect id="矩形" x="21.5789474" y="0" width="6.44532194" height="30.6556441" rx="3.22266097"></rect>
                </g>
            </g>
        </g>
    </g>
</svg>