<?xml version="1.0" encoding="UTF-8"?>
<svg width="130px" height="130px" viewBox="0 0 130 130" version="1.1" xmlns="http://www.w3.org/2000/svg" xmlns:xlink="http://www.w3.org/1999/xlink">
    <!-- Generator: Sketch 59.1 (86144) - https://sketch.com -->
    <title>热风置灰</title>
    <desc>Created with Sketch.</desc>
    <defs>
        <polygon id="path-1" points="0.00020609973 0.805012336 31.7823098 0.805012336 31.7823098 25 0.00020609973 25"></polygon>
        <polygon id="path-3" points="0.134930737 0.805012336 31.9167536 0.805012336 31.9167536 25 0.134930737 25"></polygon>
    </defs>
    <g id="页面-1" stroke="none" stroke-width="1" fill="none" fill-rule="evenodd">
        <g id="1备份" transform="translate(-751.000000, -528.000000)">
            <g id="黑白" transform="translate(26.000000, 73.000000)">
                <g id="热风置灰" transform="translate(725.000000, 455.000000)">
                    <circle id="椭圆形备份-4" fill="#B5C4D1" cx="65" cy="65" r="65"></circle>
                    <path d="M75.6521739,52.5 C75.6521739,62.1648837 71.1100074,70 65.5072464,70 C59.9044853,70 55.3623188,62.1648837 55.3623188,52.5 C55.3623188,42.8351163 59.9044853,35 65.5072464,35 C71.1100074,35 75.6521739,42.8351163 75.6521739,52.5" id="Fill-1" fill="#FFFFFF"></path>
                    <g id="编组" transform="translate(30.000000, 70.000000)">
                        <mask id="mask-2" fill="white">
                            <use xlink:href="#path-1"></use>
                        </mask>
                        <g id="Clip-4"></g>
                        <path d="M20.7936928,21.34 C12.447258,26.1279032 3.48725797,26.2319355 0.77977971,21.5722581 C-1.92769855,16.9117742 2.6432,9.25290323 10.9888232,4.465 C19.3344464,-0.322903226 28.295258,-0.426935484 31.0027362,4.23354839 C33.7102145,8.89322581 29.1393159,16.5520968 20.7936928,21.34" id="Fill-3" fill="#FFFFFF" mask="url(#mask-2)"></path>
                    </g>
                    <g id="编组" transform="translate(67.536232, 70.000000)">
                        <mask id="mask-4" fill="white">
                            <use xlink:href="#path-3"></use>
                        </mask>
                        <g id="Clip-6"></g>
                        <path d="M11.1235478,21.34 C19.469171,26.1279032 28.4299826,26.2319355 31.1374609,21.5722581 C33.8449391,16.9117742 29.2740406,9.25290323 20.9284174,4.465 C12.5819826,-0.322903226 3.62198261,-0.426935484 0.914504348,4.23354839 C-1.79297391,8.89322581 2.77792464,16.5520968 11.1235478,21.34" id="Fill-5" fill="#FFFFFF" mask="url(#mask-4)"></path>
                    </g>
                    <path d="M94.7746467,50 C93.4561022,50 91.9540448,49.477399 90.2870683,48.4372301 L90.207034,48.3801886 C88.4390041,46.9507952 86.9539237,46.4072231 85.9086275,46.8090302 C85.0339095,47.1470851 84.5496617,48.094981 84.3119842,48.7459254 C84.1745516,49.1225672 83.7889319,49.3339564 83.4081627,49.2567825 C82.9134054,49.156121 82.6272222,48.6192597 82.8083099,48.1310514 C83.1591672,47.1865109 83.8996864,45.7998986 85.3346443,45.2412273 C86.9458394,44.6129317 88.9054665,45.2135454 91.1609779,47.0246136 C93.0696741,48.2073863 94.6226624,48.584867 95.7803299,48.1478283 C96.4852783,47.8819141 97.0463266,47.3106601 97.4529654,46.44581 C97.6300109,46.070007 98.0520098,45.890494 98.432779,46.026387 L98.4360127,46.0272259 C98.8895402,46.1891231 99.1175167,46.7326953 98.9057088,47.180639 C98.1708486,48.7375369 97.1312115,49.4237129 96.333294,49.7248585 C95.8466209,49.9085658 95.3268023,50 94.7746467,50" id="Fill-7" fill="#FFFFFF"></path>
                    <path d="M94.7746467,59 C93.4561022,59 91.9540448,58.477399 90.2870683,57.4372301 L90.207034,57.3801886 C88.4390041,55.9507952 86.9539237,55.4072231 85.9086275,55.8090302 C85.0339095,56.1470851 84.5496617,57.094981 84.3119842,57.7459254 C84.1745516,58.123406 83.7889319,58.3339564 83.4081627,58.2567825 C82.9134054,58.1569599 82.6272222,57.6192597 82.8083099,57.1310514 C83.1591672,56.1865109 83.8996864,54.7998986 85.3346443,54.2412273 C86.9458394,53.6129317 88.9054665,54.2135454 91.1609779,56.0246136 C93.0696741,57.2073863 94.6226624,57.584867 95.7803299,57.1478283 C96.4852783,56.882753 97.0463266,56.3106601 97.4529654,55.4466488 C97.6300109,55.070007 98.0520098,54.890494 98.432779,55.026387 L98.4360127,55.0272259 C98.8895402,55.1891231 99.1175167,55.7326953 98.9057088,56.180639 C98.1708486,57.7383758 97.1312115,58.4237129 96.333294,58.7248585 C95.8466209,58.9085658 95.3268023,59 94.7746467,59" id="Fill-9" fill="#FFFFFF"></path>
                </g>
            </g>
        </g>
    </g>
</svg>