<?xml version="1.0" encoding="UTF-8"?>
<svg width="254px" height="276px" viewBox="0 0 254 276" version="1.1" xmlns="http://www.w3.org/2000/svg" xmlns:xlink="http://www.w3.org/1999/xlink">
    <!-- Generator: Sketch 59.1 (86144) - https://sketch.com -->
    <title>主机布防</title>
    <desc>Created with Sketch.</desc>
    <g id="页面-1" stroke="none" stroke-width="1" fill="none" fill-rule="evenodd">
        <g id="切图黑白" transform="translate(-402.000000, -248.000000)">
            <g id="编组" transform="translate(52.000000, 96.000000)">
                <g id="主机布防" transform="translate(350.000000, 152.000000)">
                    <path d="M122.017692,1.37944073 C88.5806213,23.8246854 49.8556599,36.9503859 9.76923075,39.425694 C4.37383359,39.425694 0,43.8386183 0,49.2822363 L0,114.631112 C-0.0029758268,190.810336 51.3849285,257.214389 124.635846,275.687014 C126.237783,276.104329 127.918525,276.104329 129.520461,275.687014 L134.405077,274.366237 C205.173579,254.073163 254,188.859881 254,114.631112 L254,49.2822363 C254,43.8386183 249.626166,39.425694 244.230769,39.425694 C221.702923,39.425694 183.661538,26.6516152 131.259385,0.985179102 C128.308423,-0.456396659 124.837507,-0.308323222 122.017692,1.37944073 Z" id="路径" fill="#000000" fill-rule="nonzero"></path>
                    <path d="M125.626923,103.380018 C116.411982,109.563397 105.739749,113.17936 94.6923077,113.861276 C93.2053872,113.861276 92,115.076981 92,116.576628 L92,134.579411 C91.9991799,155.565816 106.161201,173.859286 126.348462,178.948259 C126.78994,179.063224 127.253137,179.063224 127.694615,178.948259 L129.040769,178.584402 C148.5439,172.993919 162,155.02849 162,134.579411 L162,116.576628 C162,115.076981 160.794613,113.861276 159.307692,113.861276 C153.099231,113.861276 142.615385,110.34218 128.173846,103.271404 C127.360589,102.874269 126.404037,102.915061 125.626923,103.380018 Z" id="路径" fill="#FFFFFF" fill-rule="nonzero"></path>
                    <polyline id="路径-3" stroke="#000000" stroke-width="5" stroke-linecap="round" points="114.444444 140.222222 125.789931 149.142578 142.826989 129.031901"></polyline>
                </g>
            </g>
        </g>
    </g>
</svg>