<?xml version="1.0" encoding="UTF-8"?>
<svg width="88px" height="88px" viewBox="0 0 88 88" version="1.1" xmlns="http://www.w3.org/2000/svg" xmlns:xlink="http://www.w3.org/1999/xlink">
    <!-- Generator: Sketch 59.1 (86144) - https://sketch.com -->
    <title>撤防未选中</title>
    <desc>Created with Sketch.</desc>
    <g id="页面-1" stroke="none" stroke-width="1" fill="none" fill-rule="evenodd">
        <g id="切图黑白" transform="translate(-275.000000, -785.000000)">
            <g id="编组" transform="translate(52.000000, 96.000000)">
                <g id="撤防未选中" transform="translate(237.000000, 698.000000)">
                    <path d="M36.9995285,44.9775504 C37.035025,42.1686042 35.062904,39.7222494 32.2799629,39.1230758 C29.4970218,38.5239021 26.6705024,39.9370985 25.5157004,42.5050556 C24.3608984,45.0730126 25.1961865,48.0877584 27.5146635,49.7197704 L27.5146635,54.5490037 C27.5145889,55.4681469 27.8878214,56.3490254 28.5509839,56.9948574 C29.2141464,57.6406894 30.1119801,57.9976604 31.0439156,57.9860256 L31.1321469,57.9860256 C32.0564625,57.9860256 32.9429206,57.6239119 33.5965105,56.9793452 C34.2501004,56.3347786 34.6172833,55.4605586 34.6172833,54.5490037 L34.6172833,49.7197704 C36.1350594,48.6060246 37.0206345,46.843153 36.9995285,44.9775504 L36.9995285,44.9775504 Z" id="路径" fill="#B5C4D1" fill-rule="nonzero"></path>
                    <path d="M51,0.98630137 L51,10.090779 C51,21.6310573 42.045695,30.9863014 31,30.9863014 C19.954305,30.9863014 11,21.6310573 11,10.090779 L11,0.98630137" id="矩形" stroke="#B5C4D1" stroke-width="6" transform="translate(31.000000, 15.986301) scale(1, -1) translate(-31.000000, -15.986301) "></path>
                    <path d="M50.8914286,28.5 L10.1085714,28.5 C5.90417125,28.5 2.5,31.8901643 2.5,36.0669782 L2.49997658,60.9632505 C2.51799962,65.1273525 5.91691846,68.4976957 10.1085714,68.497657 L50.7272498,68.4982333 C52.7699907,68.5421039 54.7441926,67.7670485 56.2058664,66.3482411 C57.6654898,64.931424 58.4917183,62.9914627 58.5,60.9740709 L58.5,36.0669782 C58.5,34.0622634 57.7000752,32.1390202 56.2751491,30.7199572 C54.8482363,29.2989156 52.9115144,28.5 50.8914286,28.5 Z" id="路径" stroke="#B5C4D1" stroke-width="5" fill-rule="nonzero"></path>
                </g>
            </g>
        </g>
    </g>
</svg>