<?xml version="1.0" encoding="UTF-8"?>
<svg width="254px" height="276px" viewBox="0 0 254 276" version="1.1" xmlns="http://www.w3.org/2000/svg" xmlns:xlink="http://www.w3.org/1999/xlink">
    <!-- Generator: Sketch 59.1 (86144) - https://sketch.com -->
    <title>主机在家</title>
    <desc>Created with Sketch.</desc>
    <g id="页面-1" stroke="none" stroke-width="1" fill="none" fill-rule="evenodd">
        <g id="切图黑白" transform="translate(-695.000000, -248.000000)" fill-rule="nonzero">
            <g id="编组" transform="translate(52.000000, 96.000000)">
                <g id="主机在家" transform="translate(643.000000, 152.000000)">
                    <path d="M122.017692,1.37944073 C88.5806213,23.8246854 49.8556599,36.9503859 9.76923075,39.425694 C4.37383359,39.425694 0,43.8386183 0,49.2822363 L0,114.631112 C-0.0029758268,190.810336 51.3849285,257.214389 124.635846,275.687014 C126.237783,276.104329 127.918525,276.104329 129.520461,275.687014 L134.405077,274.366237 C205.173579,254.073163 254,188.859881 254,114.631112 L254,49.2822363 C254,43.8386183 249.626166,39.425694 244.230769,39.425694 C221.702923,39.425694 183.661538,26.6516152 131.259385,0.985179102 C128.308423,-0.456396659 124.837507,-0.308323222 122.017692,1.37944073 Z" id="路径" fill="#000000"></path>
                    <polygon id="路径" fill="#FFFFFF" points="167.84375 136.620384 158.316351 136.620384 158.316351 171 97.6827375 171 97.6827375 136.620384 88 136.620384 88 136.206795 127.921875 101 167.84375 136.206795"></polygon>
                    <polygon id="路径" fill="#000000" points="123.899078 126.15625 132.300717 126.15625 127.280225 138.257348 137.21875 138.257348 120.056865 162.25 125.79457 146.534289 115.34375 146.534289"></polygon>
                </g>
            </g>
        </g>
    </g>
</svg>