<?xml version="1.0" encoding="UTF-8"?>
<svg width="372px" height="251px" viewBox="0 0 372 251" version="1.1" xmlns="http://www.w3.org/2000/svg" xmlns:xlink="http://www.w3.org/1999/xlink">
    <!-- Generator: Sketch 59.1 (86144) - https://sketch.com -->
    <title>步骤3</title>
    <desc>Created with Sketch.</desc>
    <g id="页面-1" stroke="none" stroke-width="1" fill="none" fill-rule="evenodd">
        <g id="切图黑白" transform="translate(-598.000000, -1666.000000)">
            <g id="编组" transform="translate(52.000000, 96.000000)">
                <g id="步骤3" transform="translate(556.000000, 1580.000000)">
                    <circle id="椭圆形" fill="#FFDF61" cx="176" cy="117.894804" r="59"></circle>
                    <path d="M270.840717,197.095456 C286.613267,176.721572 296,151.154383 296,123.394804 C296,93.4545347 285.080566,66.0646361 267.006849,44.9902597" id="椭圆形" stroke="#B5C4D1" stroke-width="20" stroke-linecap="round"></path>
                    <path d="M59.8338682,197.095456 C75.6064178,176.721572 84.9931511,151.154383 84.9931511,123.394804 C84.9931511,93.4545347 74.0737168,66.0646361 56,44.9902597" id="椭圆形备份-2" stroke="#B5C4D1" stroke-width="20" stroke-linecap="round" transform="translate(70.496576, 121.042858) scale(-1, 1) translate(-70.496576, -121.042858) "></path>
                    <path d="M313.818278,231 C337.754695,200.058472 352,161.229945 352,119.071867 C352,73.6020058 335.428669,32.005356 308,0" id="椭圆形备份" stroke="#B5C4D1" stroke-width="20" stroke-linecap="round"></path>
                    <path d="M5.8182775,231 C29.7546955,200.058472 44,161.229945 44,119.071867 C44,73.6020058 27.4286689,32.005356 0,0" id="椭圆形备份-3" stroke="#B5C4D1" stroke-width="20" stroke-linecap="round" transform="translate(22.000000, 115.500000) scale(-1, 1) translate(-22.000000, -115.500000) "></path>
                </g>
            </g>
        </g>
    </g>
</svg>