<?xml version="1.0" encoding="UTF-8"?>
<svg width="353px" height="368px" viewBox="0 0 353 368" version="1.1" xmlns="http://www.w3.org/2000/svg" xmlns:xlink="http://www.w3.org/1999/xlink">
    <!-- Generator: Sketch 59.1 (86144) - https://sketch.com -->
    <title>步骤2</title>
    <desc>Created with Sketch.</desc>
    <defs>
        <circle id="path-1" cx="166" cy="166" r="166"></circle>
    </defs>
    <g id="页面-1" stroke="none" stroke-width="1" fill="none" fill-rule="evenodd">
        <g id="切图黑白" transform="translate(-158.000000, -1627.000000)">
            <g id="编组" transform="translate(52.000000, 96.000000)">
                <g id="步骤2" transform="translate(108.000000, 1533.000000)">
                    <circle id="椭圆形" stroke="#B5C4D1" stroke-width="3" cx="166" cy="166" r="166"></circle>
                    <g id="路径">
                        <mask id="mask-2" fill="white">
                            <use xlink:href="#path-1"></use>
                        </mask>
                        <g id="蒙版"></g>
                        <circle id="椭圆形" fill="#FFE46E" mask="url(#mask-2)" cx="122.5" cy="204.5" r="11.5"></circle>
                        <path d="M74,-25 L438,-25 L438,287 L142.25,287 C104.542631,286.952449 74,256.370621 74,218.662478 L74,-25 Z" stroke="#B5C4D1" stroke-width="3" fill-rule="nonzero" mask="url(#mask-2)"></path>
                    </g>
                    <path d="M200.043324,226.995649 C190.736935,227.013043 182.337237,221.420922 178.763776,212.828734 C175.190316,204.236546 177.147444,194.337867 183.721907,187.75171 C190.296371,181.165553 200.192301,179.190093 208.791967,182.747136 C217.391632,186.30418 223,194.692612 223,203.998143 C222.994669,207.146595 222.351195,210.261302 221.108439,213.15416 L219.732758,212.552356 C220.927336,209.84379 221.542355,206.915404 221.538339,203.955157 C221.538339,192.084903 211.914693,182.462161 200.043324,182.462161 C188.171955,182.462161 178.548309,192.084903 178.548309,203.955157 C178.548309,215.825411 188.171955,225.448154 200.043324,225.448154 C201.797813,225.514259 203.552079,225.311305 205.245117,224.84635 L205.632028,226.307874 C203.811702,226.803679 201.929559,227.035306 200.043324,226.995649 Z" id="路径" fill="#B5C4D1" fill-rule="nonzero"></path>
                    <path d="M199.91862,233.967624 C186.371877,233.93046 174.531006,224.823268 171.024843,211.744497 C167.51868,198.665726 173.217351,184.861143 184.930589,178.058923 C196.643826,171.256703 211.464748,173.144957 221.096207,182.66659 C230.727665,192.188222 232.779415,206.980244 226.102832,218.761686 L224.817191,218.033514 C231.251806,206.759867 229.315271,192.572925 220.094339,183.43418 C210.873407,174.295434 196.663614,172.479961 185.439275,179.006575 C174.214936,185.533189 168.77033,198.777101 172.160887,211.306033 C175.551443,223.834966 186.933089,232.529862 199.91862,232.511281 C203.216943,232.676853 206.510764,232.106205 209.560924,230.840769 L210.118035,232.168612 C206.90002,233.538006 203.411207,234.153376 199.91862,233.967624 L199.91862,233.967624 Z" id="路径" fill="#B5C4D1" fill-rule="nonzero"></path>
                    <path d="M350.008152,319 C346.196728,316.016927 340.19401,313.370443 332,311.060547 C323.80599,308.750651 317.964027,307.138505 314.474112,306.224108 C311.586423,293.320796 307.208333,282.361979 301.339844,273.347656 C295.471354,264.333333 290.335937,258.050781 285.933594,254.5 L272.73024,250.286416 L272.73024,244.027955 L250,244.027955 L212.686523,205.525391 L200,192.341797 C195.561849,190.425781 192.895182,191.897461 192,196.756836 C190.657227,204.045898 192.71875,208.526367 194.024414,210.404297 C194.894857,211.65625 204.553385,225.669922 223,252.445313 L220.774194,274.869058 C211.393481,275.459608 205.851888,279.964193 204.149414,288.382813 C201.595703,301.010742 209.609375,318.875977 243.25293,332 C265.681966,340.749349 277.873642,344.472359 279.827957,343.16903 L311.910156,364.31543" id="路径-2" stroke="#B5C4D1" stroke-width="3" fill="#FFFFFF"></path>
                </g>
            </g>
        </g>
    </g>
</svg>