<?xml version="1.0" encoding="UTF-8"?>
<svg width="737px" height="256px" viewBox="0 0 737 256" version="1.1" xmlns="http://www.w3.org/2000/svg" xmlns:xlink="http://www.w3.org/1999/xlink">
    <!-- Generator: Sketch 59.1 (86144) - https://sketch.com -->
    <title>步骤1</title>
    <desc>Created with Sketch.</desc>
    <g id="页面-1" stroke="none" stroke-width="1" fill="none" fill-rule="evenodd">
        <g id="切图黑白" transform="translate(-185.000000, -1293.000000)" stroke="#B5C4D1" stroke-width="3">
            <g id="编组" transform="translate(52.000000, 96.000000)">
                <g id="步骤1" transform="translate(135.000000, 1199.000000)">
                    <path d="M127.313951,209 L220,208.117267 L220,0 L14.7032693,0 C12.6580101,0 11,1.65059543 11,3.68670807 L11,208.117267 L111.144747,209" id="路径"></path>
                    <path d="M167.831384,145.49779 C167.831384,145.49779 168.299693,157.374889 162.107614,158 L62.7741877,158 C62.7741877,158 52.3673331,150.029841 59.4960285,127.89051 L82.9114512,47.1470669 C82.9114512,47.1470669 84.0562052,41 95.1395052,41 L139.212534,41 C142.773071,40.9801484 146.029848,43.005257 147.590052,46.2094011 C155.60333,63.2436629 180.163507,116.325965 178.810616,128.828176 C178.810616,128.828176 181.620466,146.383363 165.59391,147.060566 L83.4838282,147.060566 C83.4838282,147.060566 74.1696934,142.736885 79.7893948,121.014294 L101.903961,42.2503678" id="路径"></path>
                    <rect id="矩形" x="104" y="158" width="31" height="16"></rect>
                    <rect id="矩形" x="109" y="174" width="20" height="78"></rect>
                    <polyline id="路径" points="130 228 205.354876 228 220 209"></polyline>
                    <path d="M11.4749765,1 C11.4749765,1 1.57976228,3.29240303 0.486080701,18.0367225 C-0.607600876,32.781042 0.486080701,216.016984 0.486080701,216.016984 C0.486080701,216.016984 1.37144198,227.7395 16.5788239,228 C23.8179543,228 67.4089772,228 111,228" id="路径"></path>
                    <path d="M655,0 L449.805687,0 C447.703864,0 446,1.69709107 446,3.79055901 L446,208.117267 L546.146919,209 L562.36019,209 L654.42654,208.117267" id="路径"></path>
                    <path d="M721.878675,143.514476 C721.878675,143.514476 722.347183,155.375724 716.152463,156 L616.776651,156 C616.776651,156 606.365356,148.040478 613.497094,125.930696 L636.922507,45.2950185 C636.922507,45.2950185 638.06775,39 649.155779,39 L693.247614,39 C696.798105,38.9749762 700.043534,41.0020655 701.57665,44.2025351 C709.645403,61.1620388 734.164003,114.173494 732.810535,126.711041 C732.810535,126.711041 735.621585,144.242798 719.58819,144.919097 L637.338959,144.919097 C637.338959,144.919097 628.02085,140.601187 633.642949,118.907588 L655.766951,39.9886707" id="路径"></path>
                    <rect id="矩形" x="658" y="156" width="31" height="16"></rect>
                    <rect id="矩形" x="663" y="172" width="20" height="78"></rect>
                    <polyline id="路径" points="565 228 640.688436 228 652 209"></polyline>
                    <path d="M446.381054,1 C446.381054,1 436.573976,3.29240303 435.4843,18.0367225 C434.394625,32.781042 435.4843,216.016984 435.4843,216.016984 C435.4843,216.016984 436.366418,227.7395 451.466205,228 C458.730708,228 502.162054,228 545.541511,228 L565,228" id="路径"></path>
                    <rect id="矩形" x="552" y="57" width="13" height="32"></rect>
                    <polygon id="矩形" transform="translate(530.348762, 127.442080) rotate(-34.810000) translate(-530.348762, -127.442080) " points="523.713228 111.491341 536.983884 111.491513 536.984296 143.39282 523.713641 143.392648"></polygon>
                    <polygon id="矩形" transform="translate(585.607902, 127.410818) rotate(-145.190000) translate(-585.607902, -127.410818) " points="578.972781 111.46025 592.243437 111.460078 592.243024 143.361386 578.972368 143.361557"></polygon>
                    <polyline id="路径" points="628.157895 83 608 83 608 61 632 61"></polyline>
                    <path d="M615,115 C615,115 598.439622,115 610.246558,139" id="路径"></path>
                    <line x1="651.5" y1="209" x2="651.5" y2="158" id="路径"></line>
                    <line x1="652.5" y1="1.5" x2="652.5" y2="38" id="路径"></line>
                </g>
            </g>
        </g>
    </g>
</svg>