<?xml version="1.0" encoding="UTF-8"?>
<svg width="88px" height="88px" viewBox="0 0 88 88" version="1.1" xmlns="http://www.w3.org/2000/svg" xmlns:xlink="http://www.w3.org/1999/xlink">
    <!-- Generator: Sketch 59.1 (86144) - https://sketch.com -->
    <title>工作未选中</title>
    <desc>Created with Sketch.</desc>
    <g id="页面-1" stroke="none" stroke-width="1" fill="none" fill-rule="evenodd">
        <g id="切图黑白" transform="translate(-470.000000, -937.000000)" fill-rule="nonzero">
            <g id="编组" transform="translate(52.000000, 96.000000)">
                <g id="工作未选中" transform="translate(425.000000, 848.000000)">
                    <path d="M0,23.2692308 L0,67.1643802 C4.01713235e-15,69.925804 2.23857625,72.1643802 5,72.1643802 L69.9632533,72.1643802 C72.7246771,72.1643802 74.9632533,69.925804 74.9632533,67.1643802 L74.9632533,23.2692308 C74.9632533,20.507807 72.7246771,18.2692308 69.9632533,18.2692308 L5,18.2692308 C2.23857625,18.2692308 -3.38176876e-16,20.507807 0,23.2692308 Z" id="路径" stroke="#B5C4D1" stroke-width="5" stroke-linejoin="round"></path>
                    <path d="M40.1735801,0 L33.9165921,0 C25.8259875,0 19.2592573,6.72529829 19.2307692,15.0405594 L19.2307692,73.0769231 L54.8076923,73.0769231 L54.8076923,15.0405594 C54.8076923,6.73388783 48.2557771,0 40.1735801,0 Z M49.0384615,70.1923077 L25,70.1923077 L25,15.0866179 C24.9862519,12.6296017 25.9309308,10.2675973 27.626361,8.52023938 C29.3217913,6.77288149 31.6290859,5.78331098 34.0406462,5.76923077 L39.8934522,5.76923077 C44.9441014,5.76923077 49.0384615,9.94076709 49.0384615,15.0866179 L49.0384615,70.1923077 Z" id="形状" fill="#B5C4D1"></path>
                </g>
            </g>
        </g>
    </g>
</svg>