<?xml version="1.0" encoding="UTF-8"?>
<svg width="254px" height="276px" viewBox="0 0 254 276" version="1.1" xmlns="http://www.w3.org/2000/svg" xmlns:xlink="http://www.w3.org/1999/xlink">
    <!-- Generator: Sketch 59.1 (86144) - https://sketch.com -->
    <title>主机工作</title>
    <desc>Created with Sketch.</desc>
    <g id="页面-1" stroke="none" stroke-width="1" fill="none" fill-rule="evenodd">
        <g id="切图黑白" transform="translate(-361.000000, -2082.000000)">
            <g id="编组" transform="translate(52.000000, 96.000000)">
                <g id="主机工作" transform="translate(309.000000, 1986.000000)">
                    <path d="M122.017692,1.37944073 C88.5806213,23.8246854 49.8556599,36.9503859 9.76923075,39.425694 C4.37383359,39.425694 0,43.8386183 0,49.2822363 L0,114.631112 C-0.0029758268,190.810336 51.3849285,257.214389 124.635846,275.687014 C126.237783,276.104329 127.918525,276.104329 129.520461,275.687014 L134.405077,274.366237 C205.173579,254.073163 254,188.859881 254,114.631112 L254,49.2822363 C254,43.8386183 249.626166,39.425694 244.230769,39.425694 C221.702923,39.425694 183.661538,26.6516152 131.259385,0.985179102 C128.308423,-0.456396659 124.837507,-0.308323222 122.017692,1.37944073 Z" id="路径" fill="#000000" fill-rule="nonzero"></path>
                    <path d="M92,124 L92,167.895149 C92,170.656573 94.2385763,172.895149 97,172.895149 L161.963253,172.895149 C164.724677,172.895149 166.963253,170.656573 166.963253,167.895149 L166.963253,124 C166.963253,121.238576 164.724677,119 161.963253,119 L97,119 C94.2385763,119 92,121.238576 92,124 Z" id="路径" fill="#FFFFFF" fill-rule="nonzero"></path>
                    <path d="M132.19186,101 L125.860465,101 C117.673648,101 111.028827,107.534158 111,115.613091 L111,172 L147,172 L147,115.613091 C147,107.542504 140.37017,101 132.19186,101 Z M141,169 L117,169 L117,115.11157 C116.986274,112.708828 117.929441,110.399 119.622159,108.69024 C121.314876,106.981481 123.618479,106.013769 126.026181,106 L131.869623,106 C136.912191,106 141,110.079389 141,115.11157 L141,169 Z" id="形状" fill="#FFFFFF" fill-rule="nonzero"></path>
                    <rect id="矩形" fill="#000000" x="111" y="121" width="5.44444444" height="50"></rect>
                    <rect id="矩形备份" fill="#000000" x="141" y="121" width="6" height="50"></rect>
                </g>
            </g>
        </g>
    </g>
</svg>