<?xml version="1.0" encoding="UTF-8"?>
<svg width="63px" height="63px" viewBox="0 0 63 63" version="1.1" xmlns="http://www.w3.org/2000/svg" xmlns:xlink="http://www.w3.org/1999/xlink">
    <!-- Generator: Sketch 59.1 (86144) - https://sketch.com -->
    <title>肥胖等级</title>
    <desc>Created with Sketch.</desc>
    <defs>
        <rect id="path-1" x="0" y="0" width="63" height="63" rx="10"></rect>
        <filter x="-242.9%" y="-233.3%" width="585.7%" height="585.7%" filterUnits="objectBoundingBox" id="filter-2">
            <feOffset dx="0" dy="6" in="SourceAlpha" result="shadowOffsetOuter1"></feOffset>
            <feGaussianBlur stdDeviation="50" in="shadowOffsetOuter1" result="shadowBlurOuter1"></feGaussianBlur>
            <feColorMatrix values="0 0 0 0 0.125490196   0 0 0 0 0.127812629   0 0 0 0 0.129411765  0 0 0 0.1 0" type="matrix" in="shadowBlurOuter1"></feColorMatrix>
        </filter>
    </defs>
    <g id="页面-1" stroke="none" stroke-width="1" fill="none" fill-rule="evenodd">
        <g id="1备份" transform="translate(-452.000000, -1422.000000)">
            <rect fill="#FFFFFF" x="0" y="0" width="1125" height="2866"></rect>
            <rect id="矩形" fill="#222532" x="-1" y="-6" width="1128" height="2872"></rect>
            <g id="莫兰迪" transform="translate(33.000000, 1257.000000)">
                <g id="肥胖等级" transform="translate(419.000000, 165.000000)">
                    <g id="矩形">
                        <use fill="black" fill-opacity="1" filter="url(#filter-2)" xlink:href="#path-1"></use>
                        <use fill="#566172" fill-rule="evenodd" xlink:href="#path-1"></use>
                    </g>
                    <g transform="translate(11.000000, 5.000000)" fill="#FFFFFF" fill-rule="nonzero">
                        <path d="M8.88480555,38 C5.34423035,37.9098124 2.42742249,35.1956662 2.08720259,31.6746988 C1.43277497,25.560241 4.64158134,24.189759 5.71822032,22.0813253 C6.69531997,20.5782349 7.10675386,18.7776465 6.87930157,17 C9.33295252,17.3665255 11.3463686,19.1301963 12.0302802,21.5120482 C12.7082651,23.5098627 12.8106715,25.6577249 12.3258282,27.7108434 C13.4138181,26.2819192 14.1382455,24.6105711 14.436885,22.8403614 C14.8379858,21.6385542 20.0522961,37.6626506 8.88480555,38 Z" id="路径"></path>
                        <path d="M31.9020374,38 C28.360242,37.9021094 25.4413389,35.2057668 25.082025,31.7 C24.4485873,25.61 27.6580049,24.245 28.734849,22.145 C29.7580241,20.6345115 30.2002411,18.8081523 29.9806098,17 C32.4106308,17.4374266 34.3774083,19.2142208 35.0481112,21.578 C35.7272226,23.5683229 35.8224318,25.7098299 35.3226009,27.752 C36.4213356,26.3349468 37.1470875,24.6675583 37.4340599,22.901 C37.8352371,21.704 43.0505407,37.664 31.9020374,38 Z" id="路径"></path>
                        <path d="M20.8805333,21 C17.3249943,20.9289682 14.3915674,18.2158397 14.0689911,14.7 C13.4978369,8.526 16.6286079,7.182 17.7286085,5.082 C18.6910648,3.57092574 19.0879081,1.77210344 18.849763,0 C21.3441123,0.393915615 23.3821472,2.18777535 24.0747659,4.599 C24.7546365,6.58149451 24.8572865,8.71418615 24.3709199,10.752 C25.4611408,9.32879154 26.1870538,7.66412886 26.4863057,5.901 C26.8247674,4.599 32.0497703,20.664 20.8805333,21 Z" id="路径"></path>
                        <rect id="矩形" x="0" y="41" width="41" height="6" rx="3"></rect>
                    </g>
                </g>
            </g>
        </g>
    </g>
</svg>