<?xml version="1.0" encoding="UTF-8"?>
<svg width="63px" height="63px" viewBox="0 0 63 63" version="1.1" xmlns="http://www.w3.org/2000/svg" xmlns:xlink="http://www.w3.org/1999/xlink">
    <!-- Generator: Sketch 59.1 (86144) - https://sketch.com -->
    <title>蛋白率</title>
    <desc>Created with Sketch.</desc>
    <defs>
        <rect id="path-1" x="0" y="0" width="63" height="63" rx="10"></rect>
        <filter x="-242.9%" y="-233.3%" width="585.7%" height="585.7%" filterUnits="objectBoundingBox" id="filter-2">
            <feOffset dx="0" dy="6" in="SourceAlpha" result="shadowOffsetOuter1"></feOffset>
            <feGaussianBlur stdDeviation="50" in="shadowOffsetOuter1" result="shadowBlurOuter1"></feGaussianBlur>
            <feColorMatrix values="0 0 0 0 0.125490196   0 0 0 0 0.127812629   0 0 0 0 0.129411765  0 0 0 0.1 0" type="matrix" in="shadowBlurOuter1"></feColorMatrix>
        </filter>
    </defs>
    <g id="页面-1" stroke="none" stroke-width="1" fill="none" fill-rule="evenodd">
        <g id="1备份" transform="translate(-322.000000, -1522.000000)">
            <rect fill="#FFFFFF" x="0" y="0" width="1125" height="2866"></rect>
            <rect id="矩形" fill="#222532" x="-1" y="-6" width="1128" height="2872"></rect>
            <g id="莫兰迪" transform="translate(33.000000, 1257.000000)">
                <g id="蛋白率" transform="translate(289.000000, 265.000000)">
                    <g id="矩形">
                        <use fill="black" fill-opacity="1" filter="url(#filter-2)" xlink:href="#path-1"></use>
                        <use fill="#566172" fill-rule="evenodd" xlink:href="#path-1"></use>
                    </g>
                    <g id="蛋白质" transform="translate(6.000000, 5.000000)" fill="#FFFFFF" fill-rule="nonzero">
                        <polygon id="路径" points="22 8 25 8 25 20 22 20"></polygon>
                        <path d="M13,26 C13,31.5228475 17.4771525,36 23,36 C28.5228475,36 33,31.5228475 33,26 C33,20.4771525 28.5228475,16 23,16 C17.4771525,16 13,20.4771525 13,26 L13,26 Z" id="路径"></path>
                        <path d="M18,5 C18,6.78631739 18.952956,8.43695628 20.4999744,9.33012412 C22.0469928,10.223292 23.9530072,10.223292 25.5000256,9.33012412 C27.047044,8.43695628 28,6.78631739 28,5 C28,3.21368261 27.047044,1.56304372 25.5000256,0.66987588 C23.9530072,-0.22329196 22.0469928,-0.22329196 20.4999744,0.66987588 C18.952956,1.56304372 18,3.21368261 18,5 L18,5 Z" id="路径"></path>
                        <path d="M43,28 C43,29.7863219 43.9529723,31.4369591 45.4999852,32.3301253 C47.0469981,33.2232916 48.9530019,33.2232916 50.5000148,32.3301253 C52.0470277,31.4369591 53,29.7863219 53,28 C53,26.2136781 52.0470277,24.5630409 50.5000148,23.6698747 C48.9530019,22.7767084 47.0469981,22.7767084 45.4999852,23.6698747 C43.9529723,24.5630409 43,26.2136781 43,28 L43,28 Z" id="路径"></path>
                        <path d="M33,43 C33,44.7863193 33.9529631,46.4369575 35.4999791,47.3301247 C37.0469951,48.2232918 38.9530049,48.2232918 40.5000209,47.3301247 C42.0470369,46.4369575 43,44.7863193 43,43 C43,41.2136807 42.0470369,39.5630425 40.5000209,38.6698753 C38.9530049,37.7767082 37.0469951,37.7767082 35.4999791,38.6698753 C33.9529631,39.5630425 33,41.2136807 33,43 L33,43 Z" id="路径"></path>
                        <path d="M0,45 C0,46.7863279 0.95299457,48.436963 2.5,49.330127 C4.04700537,50.223291 5.95299463,50.223291 7.5,49.330127 C9.04700543,48.436963 10,46.7863279 10,45 C10,42.2385762 7.76142375,40 5,40 C2.23857625,40 0,42.2385762 0,45 L0,45 Z" id="路径"></path>
                        <path d="M46,26.7947799 L45.3323102,29.446164 L25.5957852,24.6513841 L26.263475,22 L46,26.7947799 Z M38.574701,41.6356353 L36.4349913,43.3804828 L23.4467436,28.0156755 L25.5864534,26.2708279 L38.574701,41.6356353 Z M6.06153244,46 L4,44.1668964 L17.6449988,29.3632494 L19.7065313,31.196353 L6.06153244,46 Z" id="形状"></path>
                    </g>
                </g>
            </g>
        </g>
    </g>
</svg>