<?xml version="1.0" encoding="UTF-8"?>
<svg width="63px" height="63px" viewBox="0 0 63 63" version="1.1" xmlns="http://www.w3.org/2000/svg" xmlns:xlink="http://www.w3.org/1999/xlink">
    <!-- Generator: Sketch 59.1 (86144) - https://sketch.com -->
    <title>水分</title>
    <desc>Created with Sketch.</desc>
    <defs>
        <rect id="path-1" x="0" y="0" width="63" height="63" rx="10"></rect>
        <filter x="-242.9%" y="-233.3%" width="585.7%" height="585.7%" filterUnits="objectBoundingBox" id="filter-2">
            <feOffset dx="0" dy="6" in="SourceAlpha" result="shadowOffsetOuter1"></feOffset>
            <feGaussianBlur stdDeviation="50" in="shadowOffsetOuter1" result="shadowBlurOuter1"></feGaussianBlur>
            <feColorMatrix values="0 0 0 0 0.125490196   0 0 0 0 0.127812629   0 0 0 0 0.129411765  0 0 0 0.1 0" type="matrix" in="shadowBlurOuter1"></feColorMatrix>
        </filter>
    </defs>
    <g id="页面-1" stroke="none" stroke-width="1" fill="none" fill-rule="evenodd">
        <g id="1备份" transform="translate(-80.000000, -1528.000000)">
            <rect fill="#FFFFFF" x="0" y="0" width="1125" height="2866"></rect>
            <rect id="矩形" fill="#222532" x="-1" y="-6" width="1128" height="2872"></rect>
            <g id="莫兰迪" transform="translate(33.000000, 1257.000000)">
                <g id="水分" transform="translate(47.000000, 271.000000)">
                    <g id="矩形">
                        <use fill="black" fill-opacity="1" filter="url(#filter-2)" xlink:href="#path-1"></use>
                        <use fill="#566172" fill-rule="evenodd" xlink:href="#path-1"></use>
                    </g>
                    <path d="M40.0108204,31.3717499 L29.4497198,13.0395899 C29.0220971,12.3916193 28.2860885,12 27.4959162,12 C26.7057438,12 25.9697352,12.3916193 25.5421125,13.0395899 L14.9810119,31.3717499 C12.3325816,35.8449329 12.3401584,41.357925 15.0008745,45.8241691 C17.6615906,50.2904133 22.5689268,53.0275314 27.8655547,52.9997911 L27.8655547,52.9997911 C33.0296816,52.7776004 37.6999866,49.9417562 40.1828007,45.5204548 C42.6656148,41.0991535 42.6004054,35.734418 40.0108204,31.3717499 Z" id="形状" fill="#FFFFFF" fill-rule="nonzero"></path>
                    <path d="M54.9025216,17.3946505 L49.0757075,7.55783158 C48.8397777,7.21013823 48.433704,7 47.9977468,7 C47.5617897,7 47.155716,7.21013823 46.9197862,7.55783158 L41.0929721,17.3946505 C39.6317692,19.7949072 39.6359494,22.7531132 41.1039308,25.1496466 C42.5719121,27.5461801 45.2794079,29.0148851 48.2016853,29 L48.2016853,29 C51.0508588,28.8807751 53.6275788,27.3590949 54.9974073,24.9866772 C56.3672358,22.6142595 56.3312582,19.7356062 54.9025216,17.3946505 Z" id="形状备份" fill="#FFFFFF" fill-rule="nonzero"></path>
                </g>
            </g>
        </g>
    </g>
</svg>