<?xml version="1.0" encoding="UTF-8"?>
<svg width="63px" height="63px" viewBox="0 0 63 63" version="1.1" xmlns="http://www.w3.org/2000/svg" xmlns:xlink="http://www.w3.org/1999/xlink">
    <!-- Generator: Sketch 59.1 (86144) - https://sketch.com -->
    <title>去脂体重</title>
    <desc>Created with Sketch.</desc>
    <defs>
        <rect id="path-1" x="0" y="1" width="63" height="63" rx="10"></rect>
        <filter x="-242.9%" y="-233.3%" width="585.7%" height="585.7%" filterUnits="objectBoundingBox" id="filter-2">
            <feOffset dx="0" dy="6" in="SourceAlpha" result="shadowOffsetOuter1"></feOffset>
            <feGaussianBlur stdDeviation="50" in="shadowOffsetOuter1" result="shadowBlurOuter1"></feGaussianBlur>
            <feColorMatrix values="0 0 0 0 0.125490196   0 0 0 0 0.127812629   0 0 0 0 0.129411765  0 0 0 0.1 0" type="matrix" in="shadowBlurOuter1"></feColorMatrix>
        </filter>
        <ellipse id="path-3" cx="28.5" cy="28" rx="28.5" ry="28"></ellipse>
    </defs>
    <g id="页面-1" stroke="none" stroke-width="1" fill="none" fill-rule="evenodd">
        <g id="1备份" transform="translate(-676.000000, -1529.000000)">
            <rect fill="#FFFFFF" x="0" y="0" width="1125" height="2866"></rect>
            <rect id="矩形" fill="#222532" x="-1" y="-6" width="1128" height="2872"></rect>
            <g id="莫兰迪" transform="translate(33.000000, 1257.000000)">
                <g id="去脂体重" transform="translate(643.000000, 271.000000)">
                    <g id="矩形">
                        <use fill="black" fill-opacity="1" filter="url(#filter-2)" xlink:href="#path-1"></use>
                        <use fill="#566172" fill-rule="evenodd" xlink:href="#path-1"></use>
                    </g>
                    <g id="身体-(1)" transform="translate(3.000000, 0.000000)">
                        <mask id="mask-4" fill="white">
                            <use xlink:href="#path-3"></use>
                        </mask>
                        <g id="蒙版"></g>
                        <g mask="url(#mask-4)" fill="#FFFFFF">
                            <g transform="translate(14.000000, 11.000000)">
                                <path d="M14.8815789,16.1803279 C10.4583158,16.1803279 6.86842105,12.5559344 6.86842105,8.09016393 C6.86842105,3.62439344 10.4583158,0 14.8815789,0 C19.3048421,0 22.8947368,3.62439344 22.8947368,8.09016393 C22.8947368,12.5559344 19.3048421,16.1803279 14.8815789,16.1803279 Z" id="形状" fill-rule="nonzero"></path>
                                <path d="M22.0202171,47 C21.1402635,47 20.4105458,46.2732522 20.4105458,45.39688 L20.4105458,35.7781597 C20.4105458,35.2224114 20.7110178,34.6880381 21.183188,34.410164 L25.4756449,31.8451719 L21.7197452,19.6828345 C20.6251687,18.9560867 17.4916752,17.0750925 14.5084177,17.0750925 C11.503698,17.0750925 8.37020445,18.9774616 7.27562796,19.6828345 L3.49826598,30.9474247 L7.98388334,34.5170386 C8.37020445,34.8162877 8.58482731,35.2865362 8.58482731,35.7781597 L8.58482731,45.39688 C8.58482731,46.2732522 7.85510963,47 6.975156,47 C6.09520237,47 5.3654847,46.2732522 5.3654847,45.39688 L5.3654847,36.5476573 L0.600857631,32.764294 C0.0741915644,32.3473672 -0.132074552,31.6454929 0.0857628138,31.0115495 L4.37821961,18.1865891 C4.49507779,17.8751225 4.69551627,17.6015655 4.95770128,17.3957166 C5.15086184,17.246092 9.74379065,13.8688525 14.5084177,13.8688525 C19.2730448,13.8688525 23.8659736,17.246092 24.0591341,17.3957166 C24.3381438,17.588091 24.5313044,17.88734 24.6386158,18.207964 L28.9310726,32.1016711 C29.1456955,32.8070439 28.8452235,33.5765415 28.2228172,33.9399154 L23.6298884,36.6759069 L23.6298884,45.39688 C23.6298884,46.2732522 22.9001707,47 22.0202171,47 L22.0202171,47 Z" id="路径" fill-rule="nonzero"></path>
                                <path d="M14.8550709,14.6393443 L5.95709927,19.8517688 C3.29945771,24.665577 2.13405332,28.1774538 2.4608861,30.3873991 C2.78771889,32.5973445 4.72977189,34.3319543 8.28704513,35.5912285 L8.25849573,45.299354 C9.67241594,45.9862861 12.2071326,46.2927363 15.8626456,46.2187048 C19.5181586,46.1446732 21.6497226,45.5804975 22.2573374,44.5261777 L23.2582809,35.4131222 L28.2368421,31.5265802 L24.1078119,19.1613114 L14.8550709,14.6393443 Z" id="路径-2" fill-rule="evenodd"></path>
                            </g>
                        </g>
                    </g>
                </g>
            </g>
        </g>
    </g>
</svg>