<svg width="32" height="32" viewBox="0 0 32 32" fill="none" xmlns="http://www.w3.org/2000/svg">
<path d="M16.0032 28.6536C13.3277 28.65 10.7629 27.5852 8.8715 25.6929C6.98007 23.8007 5.91648 21.2354 5.91406 18.5599C5.91406 12.2468 13.9506 3.34619 16.0032 3.34619C18.0558 3.34619 26.0924 12.2468 26.0924 18.5599C26.0899 21.2354 25.0263 23.8007 23.1349 25.6929C21.2435 27.5852 18.6787 28.65 16.0032 28.6536ZM16.0032 4.72676C14.7232 5.08791 7.28549 12.6353 7.28549 18.5599C7.28549 20.872 8.20396 23.0894 9.83885 24.7243C11.4737 26.3591 13.6911 27.2776 16.0032 27.2776C18.3153 27.2776 20.5327 26.3591 22.1676 24.7243C23.8024 23.0894 24.7209 20.872 24.7209 18.5599C24.7209 12.6353 17.2832 5.08791 16.0032 4.72676Z" fill="#F2A56B"/>
<path d="M14.0351 25.0149C13.9556 25.0146 13.8767 25.0007 13.802 24.9737C12.8355 24.6225 11.9556 24.0683 11.2214 23.3483C10.4873 22.6284 9.91595 21.7594 9.54596 20.8C9.48049 20.6303 9.48513 20.4415 9.55886 20.2752C9.63258 20.1088 9.76936 19.9786 9.9391 19.9131C10.1088 19.8477 10.2976 19.8523 10.464 19.926C10.6303 19.9998 10.7605 20.1365 10.826 20.3063C11.1254 21.0824 11.5875 21.7855 12.1813 22.3682C12.775 22.9509 13.4866 23.3997 14.2682 23.6846C14.4198 23.7396 14.5471 23.8462 14.6278 23.9857C14.7085 24.1252 14.7375 24.2887 14.7097 24.4475C14.6819 24.6063 14.599 24.7502 14.4756 24.8539C14.3523 24.9577 14.1963 25.0147 14.0351 25.0149Z" fill="#F2A56B"/>
</svg>
