<?xml version="1.0" encoding="UTF-8"?>
<svg width="73px" height="61px" viewBox="0 0 73 61" version="1.1" xmlns="http://www.w3.org/2000/svg" xmlns:xlink="http://www.w3.org/1999/xlink">
    <!-- Generator: Sketch 59.1 (86144) - https://sketch.com -->
    <title>下降</title>
    <desc>Created with Sketch.</desc>
    <defs>
        <linearGradient x1="8.45868644%" y1="17.6085663%" x2="111.419678%" y2="106.040502%" id="linearGradient-1">
            <stop stop-color="#00F0FF" offset="0%"></stop>
            <stop stop-color="#704DF0" offset="100%"></stop>
        </linearGradient>
        <path d="M190.747206,6.83696617 L222.254923,57.5567059 C223.71208,59.9023732 222.9918,62.9851713 220.646133,64.4423282 C219.854062,64.9343726 218.940179,65.195122 218.007717,65.195122 L154.992283,65.195122 C152.230859,65.195122 149.992283,62.9565457 149.992283,60.195122 C149.992283,59.2626603 150.253032,58.3487773 150.745077,57.5567059 L182.252794,6.83696617 C183.709951,4.49129892 186.792749,3.77101899 189.138416,5.22817592 C189.791184,5.63368352 190.341699,6.18419783 190.747206,6.83696617 Z" id="path-2"></path>
        <filter x="-184.0%" y="-218.6%" width="467.9%" height="562.5%" filterUnits="objectBoundingBox" id="filter-3">
            <feOffset dx="0" dy="6" in="SourceAlpha" result="shadowOffsetOuter1"></feOffset>
            <feGaussianBlur stdDeviation="50" in="shadowOffsetOuter1" result="shadowBlurOuter1"></feGaussianBlur>
            <feColorMatrix values="0 0 0 0 0.125490196   0 0 0 0 0.127812629   0 0 0 0 0.129411765  0 0 0 0.1 0" type="matrix" in="shadowBlurOuter1"></feColorMatrix>
        </filter>
    </defs>
    <g id="页面-1" stroke="none" stroke-width="1" fill="none" fill-rule="evenodd">
        <g id="切图" transform="translate(-204.000000, -2523.000000)">
            <g id="暗色" transform="translate(54.000000, 2523.000000)">
                <g id="编组-2">
                    <g id="下降" transform="translate(186.500000, 32.597561) rotate(-180.000000) translate(-186.500000, -32.597561) ">
                        <use fill="black" fill-opacity="1" filter="url(#filter-3)" xlink:href="#path-2"></use>
                        <use fill="url(#linearGradient-1)" fill-rule="evenodd" xlink:href="#path-2"></use>
                    </g>
                </g>
            </g>
        </g>
    </g>
</svg>