<?xml version="1.0" encoding="UTF-8"?>
<svg width="130px" height="130px" viewBox="0 0 130 130" version="1.1" xmlns="http://www.w3.org/2000/svg" xmlns:xlink="http://www.w3.org/1999/xlink">
    <!-- Generator: Sketch 59.1 (86144) - https://sketch.com -->
    <title>烘干置灰</title>
    <desc>Created with Sketch.</desc>
    <g id="页面-1" stroke="none" stroke-width="1" fill="none" fill-rule="evenodd">
        <g id="切图" transform="translate(-614.000000, -2731.000000)">
            <g id="暗色" transform="translate(54.000000, 2523.000000)">
                <g id="功能选择" transform="translate(16.000000, 208.000000)">
                    <g id="烘干置灰" transform="translate(544.000000, 0.000000)">
                        <circle id="椭圆形备份-5" fill="#374F6B" cx="65" cy="65" r="65"></circle>
                        <g id="烘干" transform="translate(37.000000, 33.000000)" fill="#FFFFFF" fill-rule="nonzero">
                            <path d="M31.94,1.75 C31.94,1.75 42.19,5.92 42.19,16.34 C42.19,26.76 37,29.25 34.77,28.25 C34.77,28.25 38.77,17.34 30.77,15.42 C23.61,13.09 20.52,-2.58 31.94,1.75 Z" id="路径"></path>
                            <path d="M3.58,14.58 C3.58,14.58 11.58,6.97 21.09,11.28 C30.6,15.59 30.72,21.28 28.88,22.96 C28.88,22.96 20.59,14.81 15.54,21.3 C10.45,26.86 -5.09,23.19 3.58,14.58 Z" id="路径"></path>
                            <path d="M1.16,44.58 C1.16,44.58 -0.7,33.68 8.16,28.18 C17.02,22.68 21.86,25.76 22.16,28.18 C22.16,28.18 10.77,30.54 13.36,38.35 C15.19,45.69 3.5,56.57 1.16,44.58 Z" id="路径"></path>
                            <path d="M28,64 C28,64 17,62.17 14.72,52 C12.44,41.83 16.88,38.26 19.3,38.74 C19.3,38.74 17.82,50.27 26.05,50.36 C33.56,51.05 40,65.65 28,64 Z" id="路径"></path>
                            <path d="M56,18.53 C56,18.53 59.24,29.1 51.18,35.7 C43.12,42.3 37.91,39.89 37.26,37.51 C37.26,37.51 48.26,33.69 44.66,26.29 C41.92,19.27 52.09,7 56,18.53 Z" id="路径"></path>
                            <path d="M52.39,49.7 C52.39,49.7 44.19,57.14 34.8,52.62 C25.41,48.1 25.4,42.37 27.27,40.78 C27.27,40.78 35.38,49.11 40.57,42.73 C45.78,37.28 61.24,41.29 52.39,49.7 Z" id="路径"></path>
                            <circle id="椭圆形" cx="29.8" cy="33.23" r="6.74"></circle>
                        </g>
                    </g>
                </g>
            </g>
        </g>
    </g>
</svg>