<svg width="25" height="24" viewBox="0 0 25 24" fill="none" xmlns="http://www.w3.org/2000/svg">
<path fill-rule="evenodd" clip-rule="evenodd" d="M13.217 2.4V1.2C13.217 0.537258 12.6797 0 12.017 0C11.3543 0 10.817 0.537258 10.817 1.2V2.4C10.817 3.06274 11.3543 3.6 12.017 3.6C12.6797 3.6 13.217 3.06274 13.217 2.4ZM17.1082 8.10883C18.4584 9.45909 19.217 11.2904 19.217 13.2V19.2C19.217 19.5183 19.0906 19.8235 18.8655 20.0485C18.6405 20.2736 18.3353 20.4 18.017 20.4H6.017C5.35426 20.4 4.81701 19.8627 4.81701 19.2V13.2C4.81701 9.22355 8.04056 6 12.017 6C13.9266 6 15.7579 6.75857 17.1082 8.10883ZM20.417 21.6C21.0797 21.6 21.617 22.1373 21.617 22.8C21.617 23.4627 21.0797 24 20.417 24H3.61701C2.95426 24 2.41701 23.4627 2.41701 22.8C2.41701 22.1373 2.95426 21.6 3.61701 21.6H20.417ZM19.9026 3.18952C19.9521 3.50391 19.8747 3.82509 19.6874 4.0824L18.983 5.0544C18.5933 5.59056 17.8428 5.70929 17.3066 5.3196C16.7704 4.92991 16.6517 4.17936 17.0414 3.6432L17.747 2.6712C17.9343 2.41389 18.2161 2.24151 18.5305 2.192C18.8449 2.1425 19.1661 2.2199 19.4234 2.4072C19.6807 2.5933 19.8531 2.87514 19.9026 3.18952ZM23.183 10.218C23.8132 10.0132 24.1582 9.33626 23.9534 8.706C23.7486 8.07576 23.0717 7.73085 22.4414 7.9356L21.3002 8.3064C20.6696 8.51152 20.3247 9.189 20.5298 9.8196C20.7349 10.4502 21.4124 10.7951 22.043 10.59L23.183 10.218ZM1.58181 7.9356L2.72301 8.3076C3.14383 8.42935 3.46486 8.77074 3.56054 9.19824C3.65622 9.62574 3.51134 10.0714 3.18256 10.3609C2.85379 10.6504 2.39337 10.7378 1.98141 10.5888L0.841405 10.218C0.538531 10.1199 0.287058 9.90544 0.142344 9.62186C-0.00237101 9.33829 -0.0284652 9.00882 0.0698053 8.706C0.274625 8.07576 0.951541 7.73085 1.58181 7.9356ZM6.28701 2.6724C6.10007 2.41471 5.8184 2.24186 5.504 2.1919C5.18959 2.14193 4.86821 2.21895 4.61061 2.4048C4.3531 2.59191 4.18049 2.87367 4.13076 3.18807C4.08102 3.50246 4.15823 3.82374 4.34541 4.0812L5.05101 5.052C5.29693 5.41389 5.72033 5.61325 6.15594 5.57226C6.59156 5.53127 6.97034 5.25643 7.14444 4.85502C7.31854 4.45361 7.26036 3.98925 6.99261 3.6432L6.28701 2.6724Z" fill="#1D2C3E"/>
</svg>
