<svg width="28" height="28" viewBox="0 0 28 28" fill="none" xmlns="http://www.w3.org/2000/svg">
<path d="M8.88269 13.9992C8.88269 16.8256 11.1736 19.1165 14 19.1165C16.8264 19.1165 19.1173 16.8256 19.1173 13.9992C19.1173 11.1728 16.8264 8.88184 14 8.88184C11.1736 8.88184 8.88269 11.1728 8.88269 13.9992Z" fill="#342A73"/>
<path fill-rule="evenodd" clip-rule="evenodd" d="M13.1923 0.798632C13.1923 0.358244 13.5501 0 14 0C14.4457 0 14.8082 0.360525 14.8082 0.798632V2.96939C14.8071 3.4107 14.4491 3.76802 14.0076 3.76802H14.0064H14H13.9969C13.5546 3.76802 13.1957 3.41121 13.1923 2.96971V0.798632ZM21.2282 5.62847L22.7626 4.09408C22.9076 3.95011 23.1074 3.86109 23.3281 3.86109C23.5511 3.86109 23.753 3.95207 23.8985 4.09896C24.2126 4.41201 24.2157 4.91972 23.905 5.23613L22.3689 6.77102C22.2244 6.91547 22.0248 7.00478 21.8044 7.00478C21.5813 7.00478 21.3796 6.91329 21.2347 6.76579C21.0876 6.61963 20.9967 6.41737 20.9967 6.19388C20.9967 5.97363 21.085 5.77397 21.2282 5.62847ZM0.798632 14.8049H2.97091H2.97113C3.41171 14.8023 3.76802 14.4444 3.76802 14.0032V13.9987C3.76802 13.5492 3.4113 13.1909 2.96939 13.1909H0.798632C0.360906 13.1909 0 13.553 0 13.9987V14.0039V14.0055C0 14.4467 0.357451 14.8045 0.798632 14.8049ZM4.10042 4.09879C4.24642 3.95221 4.44846 3.86151 4.67163 3.86151C4.89218 3.86151 5.09206 3.95006 5.23758 4.09356L6.772 5.62798C6.9163 5.77303 7.00551 5.97304 7.00551 6.19387C7.00551 6.41622 6.91506 6.61743 6.76899 6.76277L6.76668 6.7647C6.62068 6.91127 6.41864 7.00198 6.19547 7.00198C5.97492 7.00198 5.77504 6.91343 5.62952 6.76993L4.0951 5.23513C3.95099 5.09011 3.86194 4.89026 3.86194 4.66962C3.86194 4.44635 3.95315 4.24435 4.10033 4.09888L4.10042 4.09879ZM5.23748 23.9037L6.772 22.3692L6.77181 22.3692C6.91512 22.2237 7.00351 22.024 7.00351 21.8036C7.00351 21.5808 6.91309 21.3791 6.76693 21.2331C6.62102 21.0856 6.41848 20.9943 6.19464 20.9943C5.97457 20.9943 5.7751 21.0826 5.62989 21.2256L4.0956 22.7622C3.95479 22.9075 3.86808 23.1056 3.86808 23.324C3.86808 23.7699 4.22956 24.1314 4.67546 24.1314C4.89404 24.1314 5.0923 24.0445 5.23748 23.9037ZM14.8082 27.2004C14.8071 27.6417 14.4491 27.999 14.0076 27.999H14.0064H14H13.9985C13.5559 27.999 13.1966 27.6423 13.1923 27.2008V25.0308C13.1929 24.5881 13.5519 24.2295 13.9947 24.2295L14.0003 24.2295C14.4457 24.2295 14.8082 24.5919 14.8082 25.0308V27.2004ZM5.92172 13.9991C5.9221 18.4604 9.53914 22.0763 14.0001 22.0763C18.461 22.0759 22.0773 18.4593 22.0769 13.9976C22.0769 9.53666 18.4602 5.92076 13.9989 5.92076C9.53762 5.92076 5.92172 9.5378 5.92172 13.9991ZM23.8985 23.8985C23.7529 24.0456 23.551 24.1366 23.3279 24.1366C23.1077 24.1366 22.9083 24.048 22.7632 23.9045L21.228 22.3693C21.0846 22.2244 20.996 22.0249 20.996 21.8048C20.996 21.5812 21.0873 21.379 21.2348 21.2335C21.3806 21.0865 21.5825 20.9955 21.8057 20.9955C22.0251 20.9955 22.224 21.0834 22.369 21.2259L23.9049 22.7626C24.2164 23.0767 24.2149 23.584 23.9011 23.8955L23.8985 23.8985ZM25.0302 14.8049H27.2017H27.202C27.6432 14.8019 28 14.4433 28 14.0013V13.9987C28 13.5492 27.6418 13.1909 27.2017 13.1909H25.0302C24.5925 13.1909 24.2316 13.553 24.2316 13.9987V14.0039V14.0051C24.2316 14.4465 24.589 14.8043 25.0302 14.8049Z" fill="#342A73"/>
</svg>
