<svg width="66" height="66" viewBox="0 0 66 66" fill="none" xmlns="http://www.w3.org/2000/svg">
<path d="M62.25 29C63.7636 29 65 27.7636 65 26.25C65 24.7364 63.7636 23.5 62.25 23.5H3.75C2.23636 23.5 1 24.7364 1 26.25C1 27.7636 2.23636 29 3.75 29H62.25ZM3.75 59.5C2.23636 59.5 1 60.7364 1 62.25C1 63.7636 2.23636 65 3.75 65H62.25C63.7636 65 65 63.7636 65 62.25C65 60.7364 63.7636 59.5 62.25 59.5H3.75ZM10 38.625V49.875C10 51.3886 11.2364 52.625 12.75 52.625C14.2636 52.625 15.5 51.3886 15.5 49.875V38.625C15.5 37.1114 14.2636 35.875 12.75 35.875C11.2364 35.875 10 37.1114 10 38.625ZM23.5 38.625V49.875C23.5 51.3886 24.7364 52.625 26.25 52.625C27.7636 52.625 29 51.3886 29 49.875V38.625C29 37.1114 27.7636 35.875 26.25 35.875C24.7364 35.875 23.5 37.1114 23.5 38.625ZM37 38.625V49.875C37 51.3886 38.2364 52.625 39.75 52.625C41.2636 52.625 42.5 51.3886 42.5 49.875V38.625C42.5 37.1114 41.2636 35.875 39.75 35.875C38.2364 35.875 37 37.1114 37 38.625ZM50.5 38.625V49.875C50.5 51.3886 51.7364 52.625 53.25 52.625C54.7636 52.625 56 51.3886 56 49.875V38.625C56 37.1114 54.7636 35.875 53.25 35.875C51.7364 35.875 50.5 37.1114 50.5 38.625ZM33 17.75C34.5136 17.75 35.75 16.5136 35.75 15V3.75C35.75 2.23636 34.5136 1 33 1C31.4864 1 30.25 2.23636 30.25 3.75V15C30.25 16.5136 31.4864 17.75 33 17.75ZM18.6964 16.9286C19.7917 18.0238 21.4583 18.0238 22.5536 16.9286C23.6488 15.8333 23.6488 14.1667 22.5536 13.0714L14.5661 5.08395C13.4708 3.98868 11.8042 3.98868 10.7089 5.08395C9.61368 6.17921 9.61368 7.84579 10.7089 8.94105L18.6964 16.9286ZM47.3036 16.9286L55.2911 8.94105C56.3863 7.84579 56.3863 6.17921 55.2911 5.08395C54.1958 3.98868 52.5292 3.98868 51.4339 5.08395L43.4464 13.0714C42.3512 14.1667 42.3512 15.8333 43.4464 16.9286C44.5417 18.0238 46.2083 18.0238 47.3036 16.9286Z" fill="#222E39" stroke="white"/>
</svg>
