<svg width="28" height="30" viewBox="0 0 28 30" fill="none" xmlns="http://www.w3.org/2000/svg">
<path d="M13.8 18.6C15.1257 18.6 16.2 17.6128 16.2 16.3958V2.20555C16.2 0.987214 15.1257 0 13.8 0C12.4743 0 11.4 0.987214 11.4 2.20555V16.3957C11.4 17.6128 12.4742 18.6 13.8 18.6Z" fill="#EBEDEE"/>
<path d="M22.9846 6.58138C22.0593 5.77865 20.639 5.8565 19.8129 6.75676C18.987 7.65606 19.068 9.03609 19.9938 9.83882C21.9082 11.5036 23.1059 13.8996 23.1067 16.5881C23.098 21.5831 18.9394 25.6248 13.8001 25.6329C8.66101 25.6248 4.5018 21.5831 4.49365 16.5881C4.49431 13.887 5.70325 11.4823 7.63292 9.8168C8.56197 9.0177 8.64734 7.63719 7.82499 6.73559C7.0018 5.83299 5.58278 5.74945 4.65438 6.54918L4.65373 6.54803C1.80564 8.9976 -0.000818623 12.5976 -1.49908e-05 16.5881C0.00130008 23.9963 6.17803 29.9989 13.8001 30C21.4221 29.9989 27.5989 23.9963 27.6 16.5881C27.6008 12.6148 25.8114 9.02887 22.9846 6.58138Z" fill="#EBEDEE"/>
</svg>
