<?xml version="1.0" encoding="UTF-8"?>
<svg width="59px" height="66px" viewBox="0 0 59 66" version="1.1" xmlns="http://www.w3.org/2000/svg" xmlns:xlink="http://www.w3.org/1999/xlink">
    <!-- Generator: Sketch 59.1 (86144) - https://sketch.com -->
    <title>取水开关</title>
    <desc>Created with Sketch.</desc>
    <defs>
        <linearGradient x1="50%" y1="0%" x2="50%" y2="100%" id="linearGradient-1">
            <stop stop-color="#57C6D6" offset="0%"></stop>
            <stop stop-color="#60A1DF" offset="100%"></stop>
        </linearGradient>
    </defs>
    <g id="页面-1" stroke="none" stroke-width="1" fill="none" fill-rule="evenodd">
        <g id="2" transform="translate(-422.000000, -2208.000000)" fill="url(#linearGradient-1)">
            <g id="导航" transform="translate(79.000000, 2144.000000)">
                <g id="取水开关" transform="translate(343.000000, 64.000000)">
                    <path d="M24.0697048,0 C25.3820674,0 26.5940626,0.676733214 27.2465439,1.77382928 L27.2465439,1.77382928 L40.109,23.262 L42.5421125,19.0395899 C42.9368411,18.4414632 43.5943365,18.061766 44.3146459,18.0068903 L44.4959162,18 C45.2860885,18 46.0220971,18.3916193 46.4497198,19.0395899 L46.4497198,19.0395899 L57.0108204,37.3717499 C59.6004054,41.734418 59.6656148,47.0991535 57.1828007,51.5204548 C54.6999866,55.9417562 50.0296816,58.7776004 44.8655547,58.9997911 L44.8655547,58.9997911 L44.5130433,58.9975558 C43.5182729,58.9797216 42.5387951,58.8645047 41.587042,58.6588378 C37.0968699,63.3462347 30.7642025,66.0157961 24.1235495,66 C15.5052337,66 7.54140128,61.5706093 3.23207162,54.3795153 C-1.07725805,47.1884212 -1.07736385,38.3284864 3.23179407,31.1372968 L3.23179407,31.1372968 L20.8928657,1.77382928 C21.5453469,0.676733214 22.7573421,0 24.0697048,0 Z M44.5747694,28.0407652 L37.7225244,40.1754863 C35.5149635,43.9980067 36.7539048,48.92786 40.4897773,51.186622 C44.2256499,53.445384 49.0437547,52.1777075 51.2513159,48.3551872 C52.7447995,45.7460117 52.7447995,42.5150014 51.2513159,39.9058258 L51.2513159,39.9058258 L44.5747694,28.0407652 Z" id="形状结合"></path>
                </g>
            </g>
        </g>
    </g>
</svg>