<svg width="25" height="24" viewBox="0 0 25 24" fill="none" xmlns="http://www.w3.org/2000/svg">
<path fill-rule="evenodd" clip-rule="evenodd" d="M13.217 2.4V1.2C13.217 0.537258 12.6798 0 12.017 0C11.3543 0 10.817 0.537258 10.817 1.2V2.4C10.817 3.06274 11.3543 3.6 12.017 3.6C12.6798 3.6 13.217 3.06274 13.217 2.4ZM17.1082 8.10883C18.4585 9.45909 19.217 11.2904 19.217 13.2V19.2C19.217 19.5183 19.0906 19.8235 18.8656 20.0485C18.6405 20.2736 18.3353 20.4 18.017 20.4H6.01703C5.35429 20.4 4.81703 19.8627 4.81703 19.2V13.2C4.81703 9.22355 8.04058 6 12.017 6C13.9266 6 15.7579 6.75857 17.1082 8.10883ZM20.417 21.6C21.0798 21.6 21.617 22.1373 21.617 22.8C21.617 23.4627 21.0798 24 20.417 24H3.61703C2.95429 24 2.41703 23.4627 2.41703 22.8C2.41703 22.1373 2.95429 21.6 3.61703 21.6H20.417ZM19.9026 3.18952C19.9521 3.50391 19.8747 3.82509 19.6874 4.0824L18.983 5.0544C18.5933 5.59056 17.8428 5.70929 17.3066 5.3196C16.7705 4.92991 16.6517 4.17936 17.0414 3.6432L17.747 2.6712C17.9343 2.41389 18.2162 2.24151 18.5306 2.192C18.8449 2.1425 19.1661 2.2199 19.4234 2.4072C19.6807 2.5933 19.8531 2.87514 19.9026 3.18952ZM23.183 10.218C23.8133 10.0132 24.1582 9.33626 23.9534 8.706C23.7486 8.07576 23.0717 7.73085 22.4414 7.9356L21.3002 8.3064C20.6696 8.51152 20.3247 9.189 20.5298 9.8196C20.7349 10.4502 21.4124 10.7951 22.043 10.59L23.183 10.218ZM1.58183 7.9356L2.72303 8.3076C3.14385 8.42935 3.46489 8.77074 3.56057 9.19824C3.65625 9.62574 3.51136 10.0714 3.18259 10.3609C2.85381 10.6504 2.39339 10.7378 1.98143 10.5888L0.841428 10.218C0.538554 10.1199 0.287081 9.90544 0.142367 9.62186C-0.00234812 9.33829 -0.0284423 9.00882 0.0698282 8.706C0.274648 8.07576 0.951564 7.73085 1.58183 7.9356ZM6.28703 2.6724C6.1001 2.41471 5.81843 2.24186 5.50402 2.1919C5.18961 2.14193 4.86824 2.21895 4.61063 2.4048C4.35313 2.59191 4.18052 2.87367 4.13078 3.18807C4.08104 3.50246 4.15826 3.82374 4.34543 4.0812L5.05103 5.052C5.29695 5.41389 5.72035 5.61325 6.15597 5.57226C6.59158 5.53127 6.97036 5.25643 7.14446 4.85502C7.31856 4.45361 7.26038 3.98925 6.99263 3.6432L6.28703 2.6724Z" fill="#26313D"/>
</svg>
