<svg width="24" height="24" viewBox="0 0 24 24" fill="none" xmlns="http://www.w3.org/2000/svg">
<path fill-rule="evenodd" clip-rule="evenodd" d="M2.01978 11.9714C2.01978 6.4542 6.46805 2.00592 11.9853 2.00592C17.4566 2.00592 21.9508 6.4427 21.9508 11.9599C21.9508 17.4772 17.5025 21.9255 11.9853 21.9255C6.52552 21.9255 2.01978 17.4887 2.01978 11.9714ZM17.7669 15.4427C18.0658 15.4427 18.3301 15.2933 18.4795 14.9829C18.629 14.5691 18.4795 14.1553 18.0772 14.0059L12.6635 11.5576V6.50017C12.6635 6.08638 12.3071 5.73006 11.8933 5.73006C11.4795 5.73006 11.1232 6.08638 11.1232 6.50017V12.0174C11.1232 12.3163 11.3301 12.6266 11.583 12.7301L17.4566 15.3967C17.56 15.4427 17.6635 15.4427 17.7669 15.4427Z" fill="#26313D"/>
</svg>
