<svg width="185" height="128" viewBox="0 0 185 128" fill="none" xmlns="http://www.w3.org/2000/svg">
<path fill-rule="evenodd" clip-rule="evenodd" d="M11 32.7427C11 19.5906 21.6619 8.92871 34.814 8.92871H150.907C164.059 8.92871 174.721 19.5906 174.721 32.7427V45.394H11V32.7427ZM174.721 56H181.5C183.433 56 185 54.433 185 52.5C185 50.567 183.433 49 181.5 49H3.5C1.567 49 0 50.567 0 52.5C0 54.433 1.56701 56 3.5 56H11V104.185C11 117.337 21.6619 127.999 34.8139 127.999H150.907C164.059 127.999 174.721 117.337 174.721 104.185V56Z" fill="white"/>
<path fill-rule="evenodd" clip-rule="evenodd" d="M11 32.7427C11 19.5906 21.6619 8.92871 34.814 8.92871H150.907C164.059 8.92871 174.721 19.5906 174.721 32.7427V45.394H11V32.7427ZM174.721 56H181.5C183.433 56 185 54.433 185 52.5C185 50.567 183.433 49 181.5 49H3.5C1.567 49 0 50.567 0 52.5C0 54.433 1.56701 56 3.5 56H11V104.185C11 117.337 21.6619 127.999 34.8139 127.999H150.907C164.059 127.999 174.721 117.337 174.721 104.185V56Z" fill="url(#paint0_linear_1703_31654)"/>
<rect x="57" y="64" width="72" height="45" rx="5.95349" fill="white"/>
<rect x="57" y="64" width="72" height="45" rx="5.95349" fill="#FFD8AF"/>
<path d="M82.4414 5.95349C82.4414 2.66547 85.1069 0 88.3949 0H131.558C134.846 0 137.511 2.66547 137.511 5.95349V8.93024H82.4414V5.95349Z" fill="white"/>
<path d="M82.4414 5.95349C82.4414 2.66547 85.1069 0 88.3949 0H131.558C134.846 0 137.511 2.66547 137.511 5.95349V8.93024H82.4414V5.95349Z" fill="#FFD8AF"/>
<path d="M47.4648 8.93001C47.4648 6.05299 49.7971 3.7207 52.6741 3.7207H65.3253C68.2023 3.7207 70.5346 6.05299 70.5346 8.93001H47.4648Z" fill="white"/>
<path d="M47.4648 8.93001C47.4648 6.05299 49.7971 3.7207 52.6741 3.7207H65.3253C68.2023 3.7207 70.5346 6.05299 70.5346 8.93001H47.4648Z" fill="#FFD8AF"/>
<defs>
<linearGradient id="paint0_linear_1703_31654" x1="135.93" y1="91.4838" x2="33.7527" y2="77.6162" gradientUnits="userSpaceOnUse">
<stop stop-color="#EA9238"/>
<stop offset="1" stop-color="#FFC07D"/>
</linearGradient>
</defs>
</svg>
