<?xml version="1.0" encoding="UTF-8"?>
<svg width="78px" height="78px" viewBox="0 0 78 78" version="1.1" xmlns="http://www.w3.org/2000/svg" xmlns:xlink="http://www.w3.org/1999/xlink">
    <title>形状</title>
    <g id="页面-1" stroke="none" stroke-width="1" fill="none" fill-rule="evenodd">
        <g id="1" transform="translate(-830.000000, -2106.000000)" fill="#B5C4D1" fill-rule="nonzero">
            <path d="M871.817248,2135.76972 C873.305142,2130.15131 876.808357,2122.50094 882.598932,2117.98179 C886.929371,2114.59519 888.011981,2111.08646 884.464352,2108.89906 C879.85632,2106.06765 865.62694,2103.19737 855.861243,2111.31964 C854.706459,2112.28565 853.068665,2115.42241 853.962512,2119.4086 C854.756426,2122.9895 858.292952,2131.45598 863.556101,2136.82456 C865.754632,2139.04527 870.551427,2140.43877 871.817248,2135.76972 L871.817248,2135.76972 Z M859.767634,2142.19399 C854.138205,2140.68388 846.499059,2137.18065 841.979971,2131.40116 C838.571224,2127.07071 835.079201,2125.98254 832.891829,2129.54684 C830.06046,2134.13823 827.201332,2148.37321 835.33458,2158.12784 C836.289473,2159.27707 839.426186,2160.92042 843.412311,2160.04878 C846.998712,2159.22155 855.470614,2155.71833 860.822458,2150.43295 C863.04314,2148.23441 864.442169,2143.4376 859.767634,2142.19954 L859.767634,2142.19399 Z M866.199812,2154.2336 C864.700863,2159.84573 861.197763,2167.48399 855.412929,2172.02476 C851.065975,2175.43311 849.988953,2178.91363 853.536466,2181.12295 C858.144347,2183.92624 872.378815,2186.80169 882.13864,2178.68048 C883.287835,2177.73125 884.925576,2174.55604 884.042861,2170.60369 C883.23787,2166.9955 879.712563,2158.53568 874.455137,2153.18445 C872.256678,2150.96403 867.443385,2149.54851 866.199812,2154.2336 Z M878.220919,2148.54819 C883.861594,2150.07491 891.478726,2153.58913 896.009031,2159.35734 C899.428968,2163.69322 902.909975,2164.78135 905.097402,2161.22271 C907.928843,2156.62036 910.810251,2142.36916 902.671246,2132.62038 C901.688569,2131.47118 898.573984,2129.83343 894.582207,2130.72726 C890.984612,2131.53225 882.523599,2135.04647 877.177173,2140.33169 C874.967538,2142.5135 873.551818,2147.32127 878.220919,2148.54819 L878.220919,2148.54819 Z" id="形状"></path>
        </g>
    </g>
</svg>