<?xml version="1.0" encoding="UTF-8"?>
<svg width="61px" height="74px" viewBox="0 0 61 74" version="1.1" xmlns="http://www.w3.org/2000/svg" xmlns:xlink="http://www.w3.org/1999/xlink">
    <!-- Generator: Sketch 59.1 (86144) - https://sketch.com -->
    <title>间歇黑白</title>
    <desc>Created with Sketch.</desc>
    <g id="页面-1" stroke="none" stroke-width="1" fill="none" fill-rule="evenodd">
        <g id="1备份" transform="translate(-534.000000, -488.000000)" fill="#0F0F0F" fill-rule="nonzero">
            <g id="黑白" transform="translate(62.000000, 390.000000)">
                <path d="M517.73919,107.634424 C518.073477,106.367234 519.085342,105.391139 520.364266,105.102147 C521.643191,104.813155 522.97677,105.259261 523.823965,106.259478 C531.997466,115.827714 534.947133,128.79819 531.714773,140.957479 C526.416609,160.999964 506.186935,173.13827 486.12305,168.607999 L485.593939,170.610485 C485.205924,172.055941 483.163556,172.479001 481.911327,171.375519 L477.272788,167.292986 L472.637777,163.210454 C472.103527,162.739536 471.880773,162.007686 472.062132,161.319193 C472.243491,160.630699 472.797934,160.103354 473.494936,159.956415 L479.54091,158.690759 L485.583357,157.428629 C487.2236,157.086655 488.793296,158.468652 488.405281,159.910583 L487.914972,161.7791 C491.583474,162.582914 495.308415,162.730986 499.008664,162.20216 C507.097036,161.036854 514.416835,156.778543 519.42529,150.32474 C521.99239,147.013158 523.861865,143.216261 524.920989,139.162998 C525.995223,135.112602 526.245907,130.888033 525.658217,126.739125 C525.084183,122.734794 523.738944,118.879646 521.69694,115.387005 C520.753054,113.766302 519.667052,112.232562 518.451726,110.803851 C517.710155,109.927289 517.444087,108.743795 517.73919,107.634424 L517.73919,107.634424 Z M498.5,112 L499.5,112 C500.880712,112 502,113.119288 502,114.5 L502,135.5 C502,136.880712 500.880712,138 499.5,138 L498.5,138 C497.119288,138 496,136.880712 496,135.5 L496,114.5 C496,113.119288 497.119288,112 498.5,112 Z M487.282486,148.424621 L486.575379,147.717514 C485.599068,146.741204 485.599068,145.158291 486.575379,144.181981 L497.181981,133.575379 C498.158291,132.599068 499.741204,132.599068 500.717514,133.575379 L501.424621,134.282486 C502.400932,135.258796 502.400932,136.841709 501.424621,137.818019 L490.818019,148.424621 C489.841709,149.400932 488.258796,149.400932 487.282486,148.424621 Z M500.698292,98.5527285 C502.085276,99.3225569 502.948999,100.780205 502.957794,102.365832 C502.966456,103.951459 502.118834,105.418517 500.740408,106.203553 C499.361982,106.988588 497.667082,106.969535 496.306671,106.153713 C494.251485,104.921243 493.564553,102.269477 494.763097,100.195047 C495.96164,98.1206171 498.60296,97.3897415 500.698292,98.5527285 L500.698292,98.5527285 Z" id="间歇黑白"></path>
            </g>
        </g>
    </g>
</svg>