<?xml version="1.0" encoding="UTF-8"?>
<svg width="61px" height="74px" viewBox="0 0 61 74" version="1.1" xmlns="http://www.w3.org/2000/svg" xmlns:xlink="http://www.w3.org/1999/xlink">
    <title>间歇</title>
    <g id="页面-1" stroke="none" stroke-width="1" fill="none" fill-rule="evenodd">
        <g id="1" transform="translate(-258.000000, -2112.000000)" fill="#B5C4D1" fill-rule="nonzero">
            <g id="间歇" transform="translate(258.000000, 2112.000000)">
                <path d="M45.73919,9.63442432 C46.0734772,8.36723383 47.0853423,7.39113921 48.3642665,7.10214713 C49.6431906,6.81315506 50.9767704,7.25926127 51.8239654,8.25947816 C59.9974662,17.827714 62.9471326,30.7981899 59.7147727,42.9574789 C54.4166089,62.9999635 34.1869353,75.1382704 14.1230498,70.607999 L13.5939388,72.6104848 C13.2059242,74.055941 11.1635561,74.4790014 9.91132699,73.3755189 L5.27278804,69.2929865 L0.637776536,65.2104539 C0.103526744,64.7395358 -0.119226755,64.0076864 0.0621321047,63.3191929 C0.243490964,62.6306994 0.797934123,62.1033537 1.49493617,61.9564147 L7.54091009,60.6907591 L13.5833566,59.428629 C15.2236004,59.0866552 16.7932962,60.4686524 16.4052815,61.9105831 L15.914972,63.7790997 C19.5834743,64.5829144 23.3084151,64.7309856 27.008664,64.2021601 C35.0970361,63.0368537 42.4168355,58.7785434 47.4252901,52.3247404 C49.9923899,49.0131581 51.8618655,45.2162605 52.9209887,41.1629978 C53.9952232,37.1126016 54.2459074,32.888033 53.6582165,28.7391252 C53.0841829,24.7347944 51.7389443,20.8796461 49.6969396,17.3870054 C48.7530542,15.766302 47.6670522,14.2325619 46.451726,12.8038515 C45.7101547,11.9272894 45.4440871,10.7437953 45.73919,9.63442432 L45.73919,9.63442432 Z M26.5,14 L27.5,14 C28.8807119,14 30,15.1192881 30,16.5 L30,37.5 C30,38.8807119 28.8807119,40 27.5,40 L26.5,40 C25.1192881,40 24,38.8807119 24,37.5 L24,16.5 C24,15.1192881 25.1192881,14 26.5,14 Z M15.2824856,50.4246212 L14.5753788,49.7175144 C13.5990681,48.7412037 13.5990681,47.1582912 14.5753788,46.1819805 L25.1819805,35.5753788 C26.1582912,34.5990681 27.7412037,34.5990681 28.7175144,35.5753788 L29.4246212,36.2824856 C30.4009319,37.2587963 30.4009319,38.8417088 29.4246212,39.8180195 L18.8180195,50.4246212 C17.8417088,51.4009319 16.2587963,51.4009319 15.2824856,50.4246212 Z M28.6982915,0.552728529 C30.0852765,1.32255692 30.9489991,2.78020529 30.9577944,4.36583195 C30.9664563,5.95145861 30.1188337,7.41851749 28.740408,8.20355257 C27.3619822,8.98858764 25.6670821,8.96953532 24.306671,8.15371304 C22.251485,6.92124257 21.5645532,4.26947723 22.7630965,2.19504715 C23.9616399,0.120617077 26.6029601,-0.610258541 28.6982915,0.552728529 L28.6982915,0.552728529 Z" id="形状"></path>
            </g>
        </g>
    </g>
</svg>