<?xml version="1.0" encoding="UTF-8"?>
<svg width="73px" height="73px" viewBox="0 0 73 73" version="1.1" xmlns="http://www.w3.org/2000/svg" xmlns:xlink="http://www.w3.org/1999/xlink">
    <title>路径</title>
    <g id="页面-1" stroke="none" stroke-width="1" fill="none" fill-rule="evenodd">
        <g id="1" transform="translate(-830.000000, -1784.000000)" fill="#B5C4D1" fill-rule="nonzero">
            <path d="M902.803195,1833.39914 C902.540789,1833.13742 901.75357,1833.13742 900.966351,1833.39914 C893.356565,1836.80147 885.484373,1837.3249 877.349775,1835.49288 C861.867798,1831.56712 850.84673,1817.95782 850.059511,1801.73135 C850.059511,1796.23528 851.109136,1791.00094 853.470794,1786.02831 C853.7332,1785.24316 854.258013,1784.98144 853.470794,1784.19629 C852.683575,1783.93457 852.421168,1783.93457 851.371543,1784.19629 C847.96026,1786.02831 844.548976,1787.86033 842.187319,1790.73922 C835.102346,1797.28215 831.166251,1805.13367 830.116625,1814.5555 C830.116625,1815.34065 829.854219,1819.26641 830.116625,1820.05156 L830.116625,1821.09843 C830.116625,1824.50075 830.903844,1827.64136 831.95347,1830.52025 C836.414378,1844.9147 849.534698,1855.12168 864.229456,1856.69198 C869.477584,1857.47713 874.463305,1856.69198 879.711433,1855.12168 C889.945282,1851.71935 897.817474,1845.17642 902.803195,1835.23116 L902.803195,1834.96944 C903.065602,1834.44601 903.065602,1834.18429 902.803195,1833.39914 Z" id="路径"></path>
        </g>
    </g>
</svg>