<?xml version="1.0" encoding="UTF-8"?>
<svg width="73px" height="73px" viewBox="0 0 73 73" version="1.1" xmlns="http://www.w3.org/2000/svg" xmlns:xlink="http://www.w3.org/1999/xlink">
    <!-- Generator: Sketch 59.1 (86144) - https://sketch.com -->
    <title>睡眠黑白</title>
    <desc>Created with Sketch.</desc>
    <g id="页面-1" stroke="none" stroke-width="1" fill="none" fill-rule="evenodd">
        <g id="1备份" transform="translate(-969.000000, -489.000000)" fill="#0F0F0F" fill-rule="nonzero">
            <g id="黑白" transform="translate(62.000000, 390.000000)">
                <path d="M979.803195,148.399141 C979.540789,148.137424 978.75357,148.137424 977.966351,148.399141 C970.356565,151.801466 962.484373,152.324901 954.349775,150.492879 C938.867798,146.56712 927.84673,132.95782 927.059511,116.731347 C927.059511,111.235284 928.109136,106.000938 930.470794,101.028309 C930.7332,100.243157 931.258013,99.9814398 930.470794,99.1962879 C929.683575,98.9345707 929.421168,98.9345707 928.371543,99.1962879 C924.96026,101.028309 921.548976,102.86033 919.187319,105.739221 C912.102346,112.282153 908.166251,120.133672 907.116625,129.555495 C907.116625,130.340647 906.854219,134.266407 907.116625,135.051559 L907.116625,136.098428 C907.116625,139.500753 907.903844,142.64136 908.95347,145.520251 C913.414378,159.914702 926.534698,170.121677 941.229456,171.691981 C946.477584,172.477133 951.463305,171.691981 956.711433,170.121677 C966.945282,166.719352 974.817474,160.17642 979.803195,150.231162 L979.803195,149.969445 C980.065602,149.44601 980.065602,149.184293 979.803195,148.399141 Z" id="睡眠黑白"></path>
            </g>
        </g>
    </g>
</svg>