<svg width="19" height="18" viewBox="0 0 19 18" fill="none" xmlns="http://www.w3.org/2000/svg">
<path fill-rule="evenodd" clip-rule="evenodd" d="M17.7637 4.24061C16.9396 2.87528 15.8073 1.73079 14.4612 0.9027C14.9108 0.330672 15.5912 -0.00155286 16.31 5.45764e-06C17.6112 5.45764e-06 18.6667 1.06293 18.6667 2.37414C18.6667 3.10391 18.3338 3.79164 17.7637 4.24061ZM14.8703 15.9376L15.8013 15.0023C17.1367 13.4488 17.8725 11.453 17.8718 9.38708C17.8718 4.62929 14.0428 0.773404 9.31933 0.773404C4.59667 0.773404 0.767667 4.63008 0.767667 9.38708C0.766958 11.4596 1.50754 13.4612 2.85056 15.0166L3.78467 15.9503C5.33498 17.278 7.29566 18.004 9.32011 18C11.3512 18.0041 13.3179 17.2733 14.8703 15.9376ZM13.2375 12.5994C13.251 12.7751 13.1948 12.9489 13.0814 13.0819C12.8442 13.3613 12.4308 13.3938 12.1543 13.1549L8.69322 10.1732C8.54736 10.0481 8.46309 9.86379 8.463 9.66947V6.06583C8.46403 5.88897 8.53396 5.71979 8.65738 5.59555C8.7808 5.47131 8.94759 5.40222 9.121 5.40348C9.29441 5.40222 9.4612 5.47131 9.58462 5.59555C9.70804 5.71979 9.77797 5.88897 9.779 6.06583V9.36407L13.0099 12.1475C13.1421 12.261 13.2241 12.4238 13.2375 12.5994ZM0.88381 4.22591C0.883984 4.22605 0.884159 4.22619 0.884333 4.22633H0.883556C0.88364 4.22619 0.883725 4.22605 0.88381 4.22591ZM0 2.37414C0.000448914 3.097 0.326264 3.77963 0.88381 4.22591C1.71067 2.86047 2.84619 1.71686 4.19533 0.890802C3.74889 0.327609 3.07222 5.45764e-06 2.35667 5.45764e-06C1.73328 -0.000364042 1.1348 0.249538 0.690667 0.695667C0.248889 1.14067 0 1.74511 0 2.37414Z" fill="#6822FF"/>
</svg>
