<svg width="20" height="20" viewBox="0 0 20 20" fill="none" xmlns="http://www.w3.org/2000/svg">
<path fill-rule="evenodd" clip-rule="evenodd" d="M0.0197754 9.97138C0.0197754 4.45413 4.46805 0.00585938 9.98529 0.00585938C15.4566 0.00585938 19.9508 4.44264 19.9508 9.95988C19.9508 15.4771 15.5025 19.9254 9.98529 19.9254C4.52552 19.9254 0.0197754 15.4886 0.0197754 9.97138ZM15.7669 13.4426C16.0658 13.4426 16.3301 13.2932 16.4795 12.9829C16.629 12.5691 16.4795 12.1553 16.0772 12.0059L10.6635 9.55758V4.50011C10.6635 4.08632 10.3071 3.73 9.89334 3.73C9.47955 3.73 9.12322 4.08632 9.12322 4.50011V10.0174C9.12322 10.3162 9.33012 10.6265 9.58299 10.73L15.4566 13.3967C15.56 13.4426 15.6635 13.4426 15.7669 13.4426Z" fill="#26313D"/>
</svg>
