<svg width="40" height="40" viewBox="0 0 40 40" fill="none" xmlns="http://www.w3.org/2000/svg">
<path d="M22.0211 29.9492H17.8532C17.4899 29.9492 17.1969 30.2422 17.1969 30.6055V30.6523C17.1969 31.0156 17.4899 31.3086 17.8532 31.3086H22.0211C22.3844 31.3086 22.6774 31.0156 22.6774 30.6523V30.6055C22.6774 30.2422 22.3844 29.9492 22.0211 29.9492ZM20.7828 32.4141H19.0953C18.7282 32.4141 18.4274 32.7109 18.4274 33.082V33.1055C18.4274 33.4727 18.7243 33.7734 19.0953 33.7734H20.7828C21.15 33.7734 21.4508 33.4766 21.4508 33.1055V33.082C21.4508 32.7148 21.15 32.4141 20.7828 32.4141ZM19.9391 9.86719H19.9625C20.3297 9.86719 20.6305 9.57031 20.6305 9.19922V7.51172C20.6305 7.14453 20.3336 6.84375 19.9625 6.84375H19.9391C19.5719 6.84375 19.2711 7.14063 19.2711 7.51172V9.19922C19.2711 9.56641 19.5719 9.86719 19.9391 9.86719ZM10.6696 19.082L8.99378 18.8711C8.62659 18.8242 8.29456 19.082 8.24769 19.4492L8.24378 19.4688C8.19691 19.8359 8.45472 20.168 8.82191 20.2148L10.4977 20.4258C10.8649 20.4727 11.1969 20.2148 11.2438 19.8477L11.2477 19.8242C11.2946 19.4609 11.0368 19.125 10.6696 19.082ZM31.7516 19.4492C31.7047 19.082 31.3727 18.8242 31.0055 18.8711L29.3297 19.082C28.9625 19.1289 28.7047 19.4609 28.7516 19.8281L28.7555 19.8516C28.8024 20.2188 29.1344 20.4766 29.5016 20.4297L31.1774 20.2188C31.5446 20.1719 31.8024 19.8398 31.7555 19.4727L31.7516 19.4492ZM13.2477 13.4609C13.4821 13.1758 13.443 12.7578 13.1618 12.5234L11.861 11.4453C11.5758 11.2109 11.1578 11.25 10.9235 11.5313L10.9078 11.5469C10.6735 11.832 10.7125 12.25 10.9938 12.4844L12.2946 13.5625C12.5797 13.7969 12.9977 13.7578 13.2321 13.4766L13.2477 13.4609ZM29.4821 11.5469L29.4664 11.5313C29.2321 11.2461 28.8102 11.207 28.5289 11.4453L27.2282 12.5234C26.943 12.7578 26.9039 13.1797 27.1422 13.4609L27.1578 13.4766C27.3922 13.7617 27.8141 13.8008 28.0953 13.5625L29.3961 12.4844C29.6774 12.2539 29.7164 11.832 29.4821 11.5469ZM19.9508 11.8281C16.0289 11.8281 12.8375 15.0195 12.8375 18.9414C12.8375 20.3516 13.8258 22.4336 14.9743 24.8477C15.5914 26.1445 16.2282 27.4883 16.6891 28.7031V28.7305H23.1891L23.2086 28.7383C23.6383 27.6758 24.2047 26.4805 24.7516 25.3242C25.943 22.8086 27.0719 20.4297 27.0719 18.9414C27.0641 15.0195 23.8727 11.8281 19.9508 11.8281ZM23.5211 24.7461C23.1071 25.625 22.6813 26.5234 22.3063 27.3789H17.6149C17.1891 26.3594 16.6891 25.3008 16.1969 24.2656C15.2125 22.1914 14.193 20.0469 14.193 18.9414C14.193 15.7656 16.775 13.1836 19.9508 13.1836C23.1266 13.1836 25.7086 15.7656 25.7086 18.9414C25.7086 20.125 24.5953 22.4727 23.5211 24.7461Z" fill="white"/>
</svg>
