<svg t="1699257011580" class="icon" viewBox="0 0 1024 1024" version="1.1" xmlns="http://www.w3.org/2000/svg" p-id="8679" width="200" height="200"><path d="M208 576c-53.019 0-96 42.981-96 96s42.981 96 96 96h144v136a8 8 0 0 0 8 8h48a8 8 0 0 0 8-8V768h192v184a8 8 0 0 0 8 8h48a8 8 0 0 0 8-8V768h144c53.019 0 96-42.981 96-96s-42.981-96-96-96h-48V320c0-141.385-114.615-256-256-256S256 178.615 256 320v256h-48z m496-256v256H320V320c0-106.039 85.961-192 192-192s192 85.961 192 192zM208 640h607c17.673 0 32 14.327 32 32 0 17.673-14.327 32-32 32H208c-17.673 0-32-14.327-32-32 0-17.673 14.327-32 32-32z" fill="#000000" p-id="8680"></path></svg>
