<svg t="1699256984420" class="icon" viewBox="0 0 1024 1024" version="1.1" xmlns="http://www.w3.org/2000/svg" p-id="5702" width="200" height="200"><path d="M648.895886 483.188721h-94.288357v-170.65766a42.664415 42.664415 0 1 0-85.32883 0v213.322075a42.664415 42.664415 0 0 0 42.664415 42.664414h136.952772a42.664415 42.664415 0 1 0 0-85.328829z m374.963321-270.890592a213.322075 213.322075 0 0 0-408.241565-85.32883 436.855166 436.855166 0 0 0-103.674528-14.079257c-34.98482 0.540416-69.798983 5.261945-103.646085 14.079257A213.322075 213.322075 0 0 0 0.027021 212.298129a213.322075 213.322075 0 0 0 110.07419 186.016849 422.349265 422.349265 0 0 0 98.526356 440.66652l-110.074191 105.807749a42.664415 42.664415 0 0 0 0 60.128382 42.664415 42.664415 0 0 0 60.156825 0l110.500835-105.807749a42.664415 42.664415 0 0 0 3.839797-4.266441 426.615706 426.615706 0 0 0 479.917783 0 27.305226 27.305226 0 0 0 5.546373 8.134682l107.087682 108.367614a42.664415 42.664415 0 1 0 60.583469-60.156826l-107.087681-111.780767h-2.559865a426.615706 426.615706 0 0 0 122.020227-298.622461 419.7894 419.7894 0 0 0-24.745361-141.219214 213.322075 213.322075 0 0 0 110.07419-187.268338zM85.355851 212.298129a127.993245 127.993245 0 0 1 127.993244-127.993245 127.993245 127.993245 0 0 1 114.31219 71.249573 426.615706 426.615706 0 0 0-181.323764 165.111286A127.993245 127.993245 0 0 1 85.355851 212.298129z m426.587263 668.92114C323.451729 881.219269 170.684681 728.423778 170.684681 539.932392c0-188.491385 152.795491-341.286877 341.315319-341.286876 188.462942 0 341.258434 152.795491 341.258434 341.286876a341.286877 341.286877 0 0 1-341.286877 341.286877z m365.605593-560.553526a426.615706 426.615706 0 0 0-181.29532-165.111286 127.993245 127.993245 0 0 1 114.340632-71.22113 127.993245 127.993245 0 0 1 66.954688 236.332416z" fill="#000000" p-id="5703"></path></svg>
