<svg xmlns="http://www.w3.org/2000/svg" width="46" height="48" fill="none"><path fill-rule="evenodd" clip-rule="evenodd" d="M24.544 7.038a1.831 1.831 0 11-3.665 0V1.834a1.831 1.831 0 113.665 0v5.204zm-1.832 2.503a14.727 14.727 0 00-10.487 4.347 14.75 14.75 0 00-4.343 10.496 14.75 14.75 0 004.343 10.495 14.725 14.725 0 0010.487 4.347c3.96 0 7.684-1.542 10.486-4.347a14.75 14.75 0 004.343-10.495 14.75 14.75 0 00-4.343-10.496 14.725 14.725 0 00-10.486-4.347zm0 26.012c-6.154 0-11.166-5.01-11.166-11.174 0-6.165 5.006-11.176 11.166-11.176 6.154 0 11.165 5.01 11.165 11.175 0 6.165-5.006 11.175-11.165 11.175zm-6.715 4.39h13.429c1.013 0 1.832.82 1.832 1.834a1.832 1.832 0 01-1.832 1.834H15.997a1.831 1.831 0 01-1.832-1.834c0-1.014.82-1.834 1.832-1.834zm10.745 4.39h-8.056c-1.013 0-1.832.82-1.832 1.833 0 1.014.82 1.834 1.832 1.834h8.056c1.013 0 1.832-.82 1.832-1.834a1.83 1.83 0 00-1.832-1.833zm6.1-32.796c.318.226.685.334 1.051.334.577 0 1.148-.275 1.504-.782l2.98-4.26a1.84 1.84 0 00-.448-2.557 1.836 1.836 0 00-2.554.448l-2.98 4.26a1.835 1.835 0 00.447 2.557zm10.395 3.278a1.834 1.834 0 011.288 3.435l-4.871 1.824A1.832 1.832 0 0137.294 19a1.835 1.835 0 011.072-2.363l4.871-1.823zM10.323 10.22c.356.507.927.782 1.503.782a1.835 1.835 0 001.498-2.89l-2.98-4.261A1.835 1.835 0 007.343 5.96l2.98 4.26zm-2.975 5.544a1.839 1.839 0 011.073 2.363A1.832 1.832 0 016.06 19.2l-4.872-1.823a1.839 1.839 0 01-1.072-2.362 1.836 1.836 0 012.36-1.074l4.871 1.823z" fill="#30414D"/></svg>
