<svg xmlns="http://www.w3.org/2000/svg" xmlns:xlink="http://www.w3.org/1999/xlink" width="200" height="200"><defs><linearGradient x1="11.864%" y1="4.204%" x2="104.603%" y2="105.055%" id="c"><stop stop-color="#FF3A5F" offset="0%"/><stop stop-color="#EA0D40" offset="100%"/></linearGradient><ellipse id="b" cx="100" cy="99.976" rx="100" ry="99.976"/><filter x="-76.5%" y="-73.5%" width="253%" height="253%" filterUnits="objectBoundingBox" id="a"><feOffset dy="6" in="SourceAlpha" result="shadowOffsetOuter1"/><feGaussianBlur stdDeviation="50" in="shadowOffsetOuter1" result="shadowBlurOuter1"/><feColorMatrix values="0 0 0 0 0.125490196 0 0 0 0 0.127812629 0 0 0 0 0.129411765 0 0 0 0.1 0" in="shadowBlurOuter1"/></filter></defs><g fill="none" fill-rule="evenodd"><g><use fill="#000" filter="url(#a)" xlink:href="#b"/><use fill="url(#c)" xlink:href="#b"/></g><g transform="translate(53 51.741)" fill="#FFF" fill-rule="nonzero"><path d="M69.372 14.673a5.69 5.69 0 001.853 4.278c12.387 11.167 15.692 29.476 8.012 44.384-7.68 14.91-24.368 22.58-40.454 18.595C22.696 77.946 11.35 63.331 11.28 46.503c-.016-10.473 4.4-20.448 12.124-27.381a6.21 6.21 0 001.852-4.45 5.648 5.648 0 00-3.046-4.505 5.479 5.479 0 00-5.373.227C6.193 19.412.027 32.761 0 46.846.176 59.78 5.437 72.108 14.61 81.077c9.173 8.97 21.495 13.836 34.22 13.515 19.367-.7 36.372-13.29 42.965-31.811 6.593-18.521 1.45-39.255-12.993-52.387a5.652 5.652 0 00-6.04-.878c-2.012.913-3.33 2.918-3.39 5.157z"/><rect x="41.191" width="12.246" height="58.566" rx="6.123"/></g></g></svg>

