<svg xmlns="http://www.w3.org/2000/svg" width="20" height="20" fill="none"><path fill-rule="evenodd" clip-rule="evenodd" d="M1.667 0C.747 0 0 .746 0 1.667v5.555c0 .92.746 1.667 1.667 1.667h5.555c.92 0 1.667-.746 1.667-1.667V1.667C8.889.747 8.143 0 7.222 0H1.667zm11.11 0c-.92 0-1.666.746-1.666 1.667v5.555c0 .92.746 1.667 1.667 1.667h5.555c.92 0 1.667-.746 1.667-1.667V1.667C20 .747 19.254 0 18.333 0h-5.555zM0 12.778c0-.92.746-1.667 1.667-1.667h5.555c.92 0 1.667.746 1.667 1.667v5.555c0 .92-.746 1.667-1.667 1.667H1.667C.747 20 0 19.254 0 18.333v-5.555zm12.778-1.667c-.92 0-1.667.746-1.667 1.667v5.555c0 .92.746 1.667 1.667 1.667h5.555c.92 0 1.667-.746 1.667-1.667v-5.555c0-.92-.746-1.667-1.667-1.667h-5.555z" fill="#30414D"/></svg>
