<svg width="320" height="108" viewBox="0 0 320 108" fill="none" xmlns="http://www.w3.org/2000/svg">
<g filter="url(#filter0_d_60_308)">
<path d="M13 12.6C13 9.50721 15.5072 7 18.6 7H301.4C304.493 7 307 9.50721 307 12.6V75.2004C307 80.734 303.913 85.8054 298.997 88.3468C296.896 89.4331 294.566 90 292.2 90H27.7996C25.4343 90 23.1036 89.4331 21.0025 88.3468C16.0871 85.8054 13 80.734 13 75.2004L13 12.6Z" fill="url(#paint0_linear_60_308)"/>
<path d="M18.6 6.5C15.2311 6.5 12.5 9.23107 12.5 12.6V75.2004C12.5 80.921 15.6913 86.1637 20.7729 88.791C22.9449 89.914 25.3544 90.5 27.7996 90.5H292.2C294.646 90.5 297.055 89.914 299.227 88.791C304.309 86.1637 307.5 80.921 307.5 75.2004V12.6C307.5 9.23106 304.769 6.5 301.4 6.5H18.6Z" stroke="url(#paint1_linear_60_308)"/>
</g>
<mask id="mask0_60_308" style="mask-type:alpha" maskUnits="userSpaceOnUse" x="10" y="4" width="300" height="89">
<path d="M18.6 5.6C14.734 5.6 11.6 8.73401 11.6 12.6V75.2004C11.6 81.2575 14.9791 86.8086 20.3595 89.5904C22.6593 90.7795 25.2106 91.4 27.7996 91.4H292.2C294.789 91.4 297.341 90.7795 299.64 89.5904C305.021 86.8086 308.4 81.2575 308.4 75.2004V12.6C308.4 8.73401 305.266 5.6 301.4 5.6H18.6Z" fill="white" stroke="white" stroke-width="2.8"/>
</mask>
<g mask="url(#mask0_60_308)">
<rect x="262.2" y="62.4004" width="22.4" height="5.6" rx="2.8" fill="#DA695C"/>
<path d="M18.1147 86.8082C16.3116 85.0563 17.5519 82 20.0659 82H299.936C302.45 82 303.69 85.0563 301.887 86.8082L300.232 88.4164C299.186 89.4319 297.786 90 296.329 90H23.6723C22.215 90 20.8151 89.4319 19.7699 88.4164L18.1147 86.8082Z" fill="url(#paint2_linear_60_308)"/>
<path d="M19.0903 85.8041C18.1888 84.9281 18.8089 83.4 20.0659 83.4H299.936C301.193 83.4 301.813 84.9281 300.911 85.8041L299.256 87.4123L300.232 88.4164L299.256 87.4123C298.472 88.1739 297.422 88.6 296.329 88.6H23.6723C22.5793 88.6 21.5294 88.1739 20.7455 87.4123L19.0903 85.8041Z" stroke="#979797" stroke-opacity="0.1" stroke-width="2.8"/>
</g>
<defs>
<filter id="filter0_d_60_308" x="0.8" y="0.4" width="318.4" height="107.4" filterUnits="userSpaceOnUse" color-interpolation-filters="sRGB">
<feFlood flood-opacity="0" result="BackgroundImageFix"/>
<feColorMatrix in="SourceAlpha" type="matrix" values="0 0 0 0 0 0 0 0 0 0 0 0 0 0 0 0 0 0 127 0" result="hardAlpha"/>
<feOffset dy="5.6"/>
<feGaussianBlur stdDeviation="5.6"/>
<feColorMatrix type="matrix" values="0 0 0 0 0 0 0 0 0 0 0 0 0 0 0 0 0 0 0.05 0"/>
<feBlend mode="normal" in2="BackgroundImageFix" result="effect1_dropShadow_60_308"/>
<feBlend mode="normal" in="SourceGraphic" in2="effect1_dropShadow_60_308" result="shape"/>
</filter>
<linearGradient id="paint0_linear_60_308" x1="13" y1="84.7567" x2="307" y2="84.7567" gradientUnits="userSpaceOnUse">
<stop stop-color="#EAEAEA"/>
<stop offset="0.11502" stop-color="#F7F7F7"/>
<stop offset="0.889386" stop-color="#F7F7F7"/>
<stop offset="1" stop-color="#EAEAEA"/>
</linearGradient>
<linearGradient id="paint1_linear_60_308" x1="13" y1="7" x2="13" y2="90" gradientUnits="userSpaceOnUse">
<stop stop-opacity="0.1"/>
<stop offset="1" stop-opacity="0.2"/>
</linearGradient>
<linearGradient id="paint2_linear_60_308" x1="304" y1="90" x2="304" y2="82" gradientUnits="userSpaceOnUse">
<stop stop-color="#DDDDDD"/>
<stop offset="1" stop-color="#B9B9B9"/>
</linearGradient>
</defs>
</svg>
