<?xml version="1.0" encoding="UTF-8"?>
<svg width="512px" height="494px" viewBox="0 0 512 494" version="1.1" xmlns="http://www.w3.org/2000/svg" xmlns:xlink="http://www.w3.org/1999/xlink">
    <title>形状</title>
    <defs>
        <linearGradient x1="50%" y1="-8.88769671%" x2="50%" y2="138.087893%" id="linearGradient-1">
            <stop stop-color="#B5ABA1" offset="0%"></stop>
            <stop stop-color="#8E755C" offset="100%"></stop>
        </linearGradient>
        <path d="M424.5,373 C416.480961,373 410,366.506095 410,358.493454 C410,350.493905 416.494107,344 424.5,344 C432.505893,344 439,350.493905 439,358.493454 C439,366.506095 432.505893,373 424.5,373 L424.5,373 Z M428.266962,420.678775 C420.669783,440.593413 399.424105,454 375.456655,454 C351.647754,454 330.468139,440.749607 322.752047,421.004178 C320.564456,415.462424 323.309524,409.218237 328.909065,406.99885 C331.601143,405.966593 334.600206,406.036222 337.239933,407.192268 C339.87966,408.348313 341.941425,410.49503 342.967151,413.155468 C347.380122,424.453445 360.737945,432.341204 375.469867,432.341204 C390.267852,432.341204 403.638888,424.388365 407.972583,412.973242 C408.978041,410.300089 411.026025,408.133518 413.661102,406.955337 C416.296178,405.777155 419.299882,405.685042 422.004244,406.69948 C427.636461,408.872227 430.433371,415.115335 428.266962,420.678775 L428.266962,420.678775 Z M313,358.323335 C313,350.417682 319.494107,344 327.5,344 C335.519039,344 342,350.417682 342,358.323335 C341.66914,365.969105 335.275185,372 327.5,372 C319.724815,372 313.33086,365.969105 313,358.323335 L313,358.323335 Z M536.891247,350.886585 C544.94306,343.15212 540.481563,329.672051 529.40702,328.060163 L438.830719,315.009064 C434.41386,314.379711 430.598916,311.639849 428.640556,307.69057 L388.143894,226.446184 C385.879782,221.889252 381.178046,219 376.026575,219 C370.875104,219 366.173368,221.889252 363.909256,226.446184 L323.386195,307.716568 C321.43117,311.670862 317.615641,314.416011 313.196031,315.048062 L222.606531,328.047163 C211.505588,329.68505 207.070491,343.15212 215.095905,350.899584 L280.632386,414.166213 C283.826712,417.247 285.265479,421.679693 284.526296,425.995395 L269.043055,515.325222 C267.155499,526.244468 278.74483,534.60289 288.6446,529.429248 L369.664323,487.260161 C373.606694,485.203338 378.327659,485.203338 382.27003,487.260161 L463.289752,529.429248 C473.229122,534.60289 484.818453,526.244468 482.891298,515.325222 L467.447656,426.008394 C466.699461,421.67522 468.154187,417.255956 471.341566,414.179211 L536.878047,350.899584 L536.891247,350.886585 Z" id="path-2"></path>
        <filter x="-46.4%" y="-47.1%" width="192.7%" height="198.1%" filterUnits="objectBoundingBox" id="filter-3">
            <feOffset dx="0" dy="6" in="SourceAlpha" result="shadowOffsetOuter1"></feOffset>
            <feGaussianBlur stdDeviation="50" in="shadowOffsetOuter1" result="shadowBlurOuter1"></feGaussianBlur>
            <feColorMatrix values="0 0 0 0 0.125490196   0 0 0 0 0.127812629   0 0 0 0 0.129411765  0 0 0 0.1 0" type="matrix" in="shadowBlurOuter1"></feColorMatrix>
        </filter>
    </defs>
    <g id="页面-1" stroke="none" stroke-width="1" fill="none" fill-rule="evenodd">
        <g id="3" transform="translate(-307.000000, -496.000000)">
            <g id="编组-8" transform="translate(-24.000000, 362.000000)">
                <g id="编组-6" transform="translate(211.000000, 0.000000)">
                    <g id="形状">
                        <use fill="black" fill-opacity="1" filter="url(#filter-3)" xlink:href="#path-2"></use>
                        <use fill="url(#linearGradient-1)" fill-rule="evenodd" xlink:href="#path-2"></use>
                    </g>
                </g>
            </g>
        </g>
    </g>
</svg>