<svg width="60" height="60" viewBox="0 0 60 60" fill="none" xmlns="http://www.w3.org/2000/svg">
<path d="M48.9978 39.2421L48.9978 39.2421C49.0242 38.8387 48.9507 38.4352 48.7838 38.067C48.6169 37.6989 48.3618 37.3777 48.0411 37.1317C48.0411 37.1317 48.0411 37.1317 48.0411 37.1317L33.6126 26.0635L28.2031 16.6942C26.5703 13.8641 23.4803 12.2199 20.2462 12.4199V8.21241H26.9697C27.7635 8.21241 28.4065 7.56941 28.4065 6.77562C28.4065 6.12672 27.9765 5.57875 27.3864 5.4002V5.33767H26.9697H8.60996C7.81617 5.33767 7.17318 5.98066 7.17318 6.77445C7.17318 7.5684 7.81691 8.21123 8.60996 8.21123H17.3732V13.1074C15.1768 14.0568 13.4722 15.8833 12.6797 18.1506C11.8557 20.5081 12.1002 23.1071 13.3492 25.2694L18.7587 34.6364L21.1326 52.6691L21.1326 52.6694C21.1856 53.0696 21.3365 53.4507 21.5718 53.7788C21.8071 54.1068 22.1197 54.3719 22.4818 54.5504C22.844 54.7289 23.2445 54.8154 23.6481 54.8023C24.0516 54.7892 24.4457 54.6768 24.7955 54.475L24.7956 54.4749L47.7735 41.2095C48.1237 41.0076 48.4187 40.7225 48.6323 40.3793C48.8458 40.0361 48.9714 39.6455 48.9978 39.2421ZM34.3137 33.4225L34.3136 33.4224C33.663 32.9675 32.767 33.1271 32.3124 33.7771C31.8576 34.4276 32.017 35.3235 32.6669 35.7781C32.667 35.7781 32.667 35.7782 32.6671 35.7782L37.679 39.2867L37.6791 39.2868C38.3299 39.7421 39.2259 39.5837 39.6813 38.9336L39.6814 38.9334C40.1368 38.2826 39.9784 37.3866 39.3283 36.9312L39.3281 36.9311L34.3137 33.4225ZM30.607 26.6024L20.7291 32.3036L15.8374 23.8331C15.8374 23.8331 15.8374 23.8331 15.8374 23.8331C14.2626 21.1056 15.1975 17.6175 17.9249 16.0427C20.6524 14.4679 24.1405 15.4022 25.7153 18.1302L25.7153 18.1303L30.607 26.6024ZM23.8983 51.6754L21.711 35.0567L32.4981 28.8294L45.7963 39.0334L23.8983 51.6754Z" fill="white" stroke="white" stroke-width="0.833333"/>
</svg>
