<svg width="9" height="9" viewBox="0 0 9 9" fill="none" xmlns="http://www.w3.org/2000/svg">
<path d="M6.73222 0.5C6.1489 0.5 5.59452 0.749409 5.17112 1.20522C5.12999 1.24823 4.91677 1.49247 4.75228 1.68168L4.33345 1.21038C3.91005 0.752849 3.35415 0.5 2.76626 0.5C1.51586 0.5 0.5 1.649 0.5 3.05945C0.5 3.88336 0.864003 4.50258 1.17775 4.88443L3.98316 8.08547C4.20552 8.33659 4.45225 8.5 4.75076 8.5C5.04927 8.5 5.296 8.33659 5.51837 8.08547L8.32225 4.88615L8.34205 4.86207C8.68017 4.38562 9 3.93496 9 3.06117C8.99848 1.649 7.9811 0.5 6.73222 0.5Z" fill="#DA695C"/>
</svg>
