<?xml version="1.0" encoding="UTF-8"?>
<svg width="51px" height="77px" viewBox="0 0 51 77" version="1.1" xmlns="http://www.w3.org/2000/svg" xmlns:xlink="http://www.w3.org/1999/xlink">
    <title>3-1-蓝牙-未选中</title>
    <g id="页面-1" stroke="none" stroke-width="1" fill="none" fill-rule="evenodd">
        <g id="切图" transform="translate(-56.000000, -1154.000000)" fill="#6B6F86" fill-rule="nonzero">
            <g id="编组" transform="translate(41.000000, 103.000000)">
                <path d="M46,1114 L46,1098 L56,1106 L46,1114 Z M46,1065.00436 L56,1073.00218 L46,1081 L46,1065 L46,1065.00436 Z M47.4209034,1089.50433 L64.385254,1075.81273 C65.4065724,1074.98531 66,1073.74017 66,1072.42462 C66,1071.10908 65.4065724,1069.86393 64.385254,1069.03652 L43.2254189,1051.96116 C41.9236404,1050.91192 40.1361968,1050.70366 38.6286395,1051.42557 C37.1210822,1052.14747 36.1608136,1053.6715 36.1591111,1055.34491 L36.1591111,1080.40559 L22.069927,1069.03652 C20.2013736,1067.52923 17.466441,1067.82424 15.9612841,1069.69543 C14.4561272,1071.56663 14.7507182,1074.30544 16.6192716,1075.81273 L33.579279,1089.49998 L16.6192716,1103.18723 C14.789769,1104.70514 14.5177312,1107.41345 16.0087044,1109.26583 C17.4996775,1111.1182 20.200251,1111.42709 22.069927,1109.9591 L36.1591111,1098.59002 L36.1591111,1123.6507 C36.1615052,1126.05176 38.1045987,1127.9976 40.5022628,1128 C41.4930015,1128 42.4540723,1127.66145 43.2254189,1127.0388 L64.385254,1109.96344 C65.4049774,1109.13598 65.9973179,1107.89185 65.9973179,1106.57751 C65.9973179,1105.26318 65.4049774,1104.01904 64.385254,1103.19158 L47.4209034,1089.49998 L47.4209034,1089.50433 Z" id="蓝牙"></path>
            </g>
        </g>
    </g>
</svg>