<svg width="162" height="231" viewBox="0 0 162 231" fill="none" xmlns="http://www.w3.org/2000/svg">
<path d="M8.24807 165.015C9.24893 157.009 16.0553 151 24.1245 151H135.875C143.945 151 150.751 157.009 151.752 165.015L157.752 213.015C158.946 222.565 151.499 231 141.875 231H18.1245C8.50055 231 1.05436 222.565 2.24807 213.015L8.24807 165.015Z" fill="white"/>
<path d="M8.24807 165.015C9.24893 157.009 16.0553 151 24.1245 151H135.875C143.945 151 150.751 157.009 151.752 165.015L157.752 213.015C158.946 222.565 151.499 231 141.875 231H18.1245C8.50055 231 1.05436 222.565 2.24807 213.015L8.24807 165.015Z" fill="url(#paint0_linear_1703_31711)"/>
<path d="M7.87752 36.2852C5.84764 24.0954 15.2482 13 27.6059 13H126.394C138.752 13 148.152 24.0954 146.122 36.2852L127.02 151H26.9801L7.87752 36.2852Z" fill="url(#paint1_linear_1703_31711)"/>
<path d="M8.37072 36.2031C6.39159 24.318 15.5571 13.5 27.6059 13.5H126.394C138.443 13.5 147.608 24.318 145.629 36.2031L126.596 150.5H27.4038L8.37072 36.2031Z" stroke="white" stroke-opacity="0.17"/>
<path d="M71.6575 8.84919C69.5415 4.82887 72.4569 0 77 0C81.5431 0 84.4585 4.82887 82.3425 8.84918L77 19L71.6575 8.84919Z" fill="#F2A56B"/>
<path d="M7.10201 31.6282C5.47811 21.8763 12.9986 13 22.8847 13H131.115C141.001 13 148.522 21.8763 146.898 31.6282L144.255 47.5H9.74503L7.10201 31.6282Z" fill="white"/>
<path d="M7.10201 31.6282C5.47811 21.8763 12.9986 13 22.8847 13H131.115C141.001 13 148.522 21.8763 146.898 31.6282L144.255 47.5H9.74503L7.10201 31.6282Z" fill="url(#paint2_linear_1703_31711)"/>
<path fill-rule="evenodd" clip-rule="evenodd" d="M143.356 52H153.029C157.809 52 161.522 56.1639 160.977 60.9125L155.121 111.912C154.658 115.951 151.239 119 147.174 119H132.5L134 109H139.206C143.271 109 146.69 105.951 147.154 101.912L150.713 70.9125C151.258 66.1639 147.545 62 142.765 62H142L143.356 52Z" fill="#FFD8AF" fill-opacity="0.26"/>
<circle cx="80" cy="191" r="13" fill="black" style="mix-blend-mode:soft-light"/>
<circle cx="80" cy="191" r="10.5" stroke="black" stroke-opacity="0.48" style="mix-blend-mode:overlay"/>
<circle cx="80" cy="191" r="9" fill="black" fill-opacity="0.59" style="mix-blend-mode:soft-light"/>
<rect x="79" y="183" width="2" height="6" rx="1" fill="#ECECEC"/>
<defs>
<linearGradient id="paint0_linear_1703_31711" x1="117.561" y1="206.467" x2="30.2292" y2="191.209" gradientUnits="userSpaceOnUse">
<stop stop-color="#EA9238"/>
<stop offset="1" stop-color="#FFC07D"/>
</linearGradient>
<linearGradient id="paint1_linear_1703_31711" x1="93.2745" y1="151" x2="93.2745" y2="13" gradientUnits="userSpaceOnUse">
<stop stop-color="white" stop-opacity="0.17"/>
<stop offset="1" stop-color="white" stop-opacity="0.04"/>
</linearGradient>
<linearGradient id="paint2_linear_1703_31711" x1="111.274" y1="108.68" x2="29.8473" y2="101.155" gradientUnits="userSpaceOnUse">
<stop stop-color="#EA9238"/>
<stop offset="1" stop-color="#FFC07D"/>
</linearGradient>
</defs>
</svg>
