<svg width="24" height="26" viewBox="0 0 24 26" fill="none" xmlns="http://www.w3.org/2000/svg">
<path d="M12.0003 15.9491C13.0863 15.9491 13.9664 15.1404 13.9664 14.1434V2.5187C13.9663 1.52064 13.0863 0.711914 12.0003 0.711914C10.9142 0.711914 10.0342 1.52064 10.0342 2.5187V14.1433C10.0342 15.1404 10.9142 15.9491 12.0003 15.9491Z" fill="white"/>
<path d="M19.5244 6.10371C18.7664 5.44611 17.6028 5.50988 16.9261 6.24738C16.2495 6.98409 16.3159 8.11462 17.0743 8.77221C18.6425 10.136 19.6237 12.0988 19.6244 14.3013C19.6172 18.3931 16.2105 21.7041 12.0004 21.7107C7.79044 21.7041 4.38321 18.3931 4.37654 14.3013C4.37708 12.0885 5.36744 10.1185 6.94823 8.75417C7.70931 8.09954 7.77925 6.96863 7.10558 6.23004C6.43122 5.49063 5.26875 5.42219 4.50821 6.07733L4.50767 6.07639C2.17451 8.08308 0.694654 11.0322 0.695313 14.3013C0.69639 20.3701 5.75638 25.2874 12.0004 25.2883C18.2444 25.2874 23.3044 20.3701 23.3053 14.3013C23.3059 11.0463 21.84 8.1087 19.5244 6.10371Z" fill="white"/>
</svg>
