<svg width="17" height="17" viewBox="0 0 17 17" fill="none" xmlns="http://www.w3.org/2000/svg">
<path d="M5.08057 8.00438C5.08057 9.61953 6.38972 10.9287 8.00487 10.9287C9.62002 10.9287 10.9292 9.61953 10.9292 8.00438C10.9292 6.38923 9.62002 5.08008 8.00487 5.08008C6.38972 5.08008 5.08057 6.38923 5.08057 8.00438Z" fill="#A29DDF"/>
<path fill-rule="evenodd" clip-rule="evenodd" d="M7.54312 0.461262C7.54312 0.209601 7.74762 0.00488281 8.00472 0.00488281C8.25942 0.00488281 8.46653 0.210905 8.46653 0.461262V1.70174C8.46591 1.95393 8.26132 2.15812 8.00906 2.15812H8.00837H8.00472H8.00296C7.75019 2.15812 7.54509 1.95422 7.54312 1.70193V0.461262ZM12.1353 3.22074L13.0121 2.34391C13.095 2.26164 13.2091 2.21077 13.3352 2.21077C13.4627 2.21077 13.578 2.26276 13.6612 2.3467C13.8407 2.5256 13.8425 2.81572 13.6649 2.99654L12.7871 3.87365C12.7046 3.9562 12.5905 4.00723 12.4645 4.00723C12.337 4.00723 12.2218 3.95495 12.139 3.87066C12.0549 3.78714 12.003 3.67156 12.003 3.54385C12.003 3.41798 12.0535 3.30388 12.1353 3.22074ZM0.460774 8.4652H1.70212H1.70225C1.95402 8.46371 2.15763 8.25917 2.15763 8.00708V8.00447C2.15763 7.74759 1.95379 7.54287 1.70126 7.54287H0.460774C0.210634 7.54287 0.00439453 7.74977 0.00439453 8.00447V8.00746V8.00838C0.00439453 8.26051 0.20866 8.46494 0.460774 8.4652ZM2.34754 2.34734C2.43097 2.26358 2.54642 2.21175 2.67396 2.21175C2.79999 2.21175 2.91421 2.26235 2.99737 2.34435L3.87422 3.22119C3.95667 3.30409 4.00765 3.41838 4.00765 3.54457C4.00765 3.67163 3.95597 3.78662 3.87249 3.86967L3.87117 3.87077C3.78774 3.95453 3.67229 4.00637 3.54475 4.00637C3.41872 4.00637 3.3045 3.95577 3.22134 3.87376L2.34449 2.9967C2.26215 2.91383 2.21126 2.79962 2.21126 2.67354C2.21126 2.54595 2.26338 2.43052 2.34748 2.34739L2.34754 2.34734ZM2.99735 13.6652L3.87425 12.7883L3.87414 12.7883C3.95604 12.7052 4.00655 12.5911 4.00655 12.4651C4.00655 12.3378 3.95488 12.2225 3.87135 12.1391C3.78797 12.0548 3.67223 12.0026 3.54432 12.0026C3.41856 12.0026 3.30457 12.0531 3.22159 12.1348L2.34482 13.0129C2.26436 13.0959 2.21481 13.2091 2.21481 13.3339C2.21481 13.5888 2.42137 13.7953 2.67618 13.7953C2.80109 13.7953 2.91439 13.7457 2.99735 13.6652ZM8.46653 15.5489C8.46591 15.801 8.26132 16.0052 8.00906 16.0052H8.00837H8.00472H8.00383C7.7509 16.0052 7.54558 15.8014 7.54312 15.5491V14.309C7.5435 14.0561 7.74864 13.8511 8.00167 13.8511L8.00488 13.8512C8.25942 13.8512 8.46653 14.0583 8.46653 14.3091V15.5489ZM3.38836 8.00499C3.38858 10.5544 5.45554 12.6207 8.00475 12.6207C10.554 12.6205 12.6205 10.5538 12.6203 8.00412C12.6203 5.45492 10.5535 3.38861 8.0041 3.38861C5.45467 3.38861 3.38836 5.45557 3.38836 8.00499ZM13.6613 13.6615C13.5781 13.7456 13.4627 13.7976 13.3352 13.7976C13.2094 13.7976 13.0954 13.747 13.0125 13.665L12.1352 12.7877C12.0533 12.7048 12.0026 12.5909 12.0026 12.465C12.0026 12.3373 12.0548 12.2218 12.1391 12.1386C12.2224 12.0546 12.3378 12.0026 12.4653 12.0026C12.5907 12.0026 12.7044 12.0528 12.7872 12.1342L13.6649 13.0124C13.8429 13.1919 13.8421 13.4818 13.6628 13.6598L13.6613 13.6615ZM14.308 8.4652H15.5489H15.5491C15.8012 8.46346 16.0051 8.25852 16.0051 8.00599V8.00447C16.0051 7.74759 15.8004 7.54287 15.5489 7.54287H14.308C14.0579 7.54287 13.8516 7.74977 13.8516 8.00447V8.00748V8.00816C13.8516 8.26035 14.0559 8.46482 14.308 8.4652Z" fill="#A29DDF"/>
</svg>
