<svg width="61" height="61" viewBox="0 0 61 61" fill="none" xmlns="http://www.w3.org/2000/svg">
<g clip-path="url(#clip0_1527_6522)">
<path d="M16.8553 -0.5H16.3553V0V29.6974C16.3553 37.5094 22.688 43.8421 30.5 43.8421C38.3121 43.8421 44.6448 37.5094 44.6448 29.6974V0V-0.5H44.1448H16.8553ZM20.5658 29.6974V3.71053H40.4342V29.6974C40.4342 35.1841 35.9868 39.6316 30.5 39.6316C25.0133 39.6316 20.5658 35.1841 20.5658 29.6974Z" fill="#A29DDF" stroke="#A29DDF"/>
<path d="M28.0921 46.5521H32.9079V60.9994H28.0921V46.5521ZM40.8556 46.3161L45.026 43.9082L52.2497 56.4196L48.0793 58.8275L40.8556 46.3161ZM15.974 43.9082L20.1445 46.3161L12.9208 58.8275L8.75031 56.4196L15.974 43.9082Z" fill="#A29DDF"/>
</g>
<defs>
<clipPath id="clip0_1527_6522">
<rect width="61" height="61" fill="white"/>
</clipPath>
</defs>
</svg>
