<svg width="29" height="27" viewBox="0 0 29 27" fill="none" xmlns="http://www.w3.org/2000/svg">
<path fill-rule="evenodd" clip-rule="evenodd" d="M26.7256 6.36092C25.4895 4.31292 23.791 2.59619 21.7719 1.35406C22.4462 0.496016 23.4669 -0.00232116 24.5451 1.63158e-05C26.4969 1.63158e-05 28.0801 1.59441 28.0801 3.56122C28.0801 4.65587 27.5807 5.68747 26.7256 6.36092ZM22.3856 23.9064L23.7821 22.5035C25.7851 20.1732 26.8889 17.1796 26.8877 14.0806C26.8877 6.94394 21.1442 1.16011 14.0591 1.16011C6.97508 1.16011 1.23158 6.94513 1.23158 14.0806C1.23051 17.1894 2.34139 20.1918 4.35591 22.5249L5.75708 23.9254C8.08255 25.917 11.0236 27.0061 14.0602 26.9999C17.1069 27.0062 20.057 25.91 22.3856 23.9064ZM19.9364 18.8992C19.9566 19.1627 19.8722 19.4234 19.7022 19.6229C19.3464 20.0419 18.7262 20.0907 18.3116 19.7324L13.1199 15.2598C12.9011 15.0722 12.7747 14.7957 12.7746 14.5042V9.09875C12.7761 8.83347 12.881 8.57969 13.0661 8.39333C13.2513 8.20698 13.5015 8.10333 13.7616 8.10523C14.0217 8.10333 14.2719 8.20698 14.457 8.39333C14.6421 8.57969 14.747 8.83347 14.7486 9.09875V14.0461L19.5949 18.2213C19.7932 18.3915 19.9162 18.6357 19.9364 18.8992ZM1.40579 6.33887C1.40605 6.33908 1.40632 6.33929 1.40658 6.3395H1.40541C1.40554 6.33929 1.40567 6.33908 1.40579 6.33887ZM0.0800781 3.56122C0.0807515 4.64551 0.569474 5.66946 1.40579 6.33887C2.64609 4.29071 4.34936 2.5753 6.37308 1.33621C5.70341 0.491422 4.68841 1.63158e-05 3.61508 1.63158e-05C2.68 -0.000537933 1.78228 0.374316 1.11608 1.04351C0.453411 1.71101 0.0800781 2.61767 0.0800781 3.56122Z" fill="#A29DDF"/>
</svg>
