<svg width="24" height="24" viewBox="0 0 24 24" fill="none" xmlns="http://www.w3.org/2000/svg">
<path fill-rule="evenodd" clip-rule="evenodd" d="M2.01953 11.9714C2.01953 6.45413 6.46781 2.00586 11.985 2.00586C17.4563 2.00586 21.9506 6.44264 21.9506 11.9599C21.9506 17.4771 17.5023 21.9254 11.985 21.9254C6.52528 21.9254 2.01953 17.4886 2.01953 11.9714ZM17.7667 15.4426C18.0655 15.4426 18.3299 15.2932 18.4793 14.9829C18.6287 14.5691 18.4793 14.1553 18.077 14.0059L12.6632 11.5576V6.50011C12.6632 6.08632 12.3069 5.73 11.8931 5.73C11.4793 5.73 11.123 6.08632 11.123 6.50011V12.0174C11.123 12.3162 11.3299 12.6265 11.5827 12.73L17.4563 15.3967C17.5598 15.4426 17.6632 15.4426 17.7667 15.4426Z" fill="#30414D"/>
</svg>
