<svg width="252" height="252" viewBox="0 0 252 252" fill="none" xmlns="http://www.w3.org/2000/svg">
<g filter="url(#filter0_d_0_7087)">
<path fill-rule="evenodd" clip-rule="evenodd" d="M127.983 21.0183V11H124.017V21.0183C67.6018 22.0631 22.0631 67.6018 21.0183 124.017H11V127.983H21.0183C22.0631 184.398 67.6018 229.937 124.017 230.982V241H127.983V230.982C184.398 229.937 229.937 184.398 230.982 127.983H241V124.017H230.982C229.937 67.6018 184.398 22.0631 127.983 21.0183Z" fill="url(#paint0_radial_0_7087)"/>
<path fill-rule="evenodd" clip-rule="evenodd" d="M127.983 21.0183V11H124.017V21.0183C67.6018 22.0631 22.0631 67.6018 21.0183 124.017H11V127.983H21.0183C22.0631 184.398 67.6018 229.937 124.017 230.982V241H127.983V230.982C184.398 229.937 229.937 184.398 230.982 127.983H241V124.017H230.982C229.937 67.6018 184.398 22.0631 127.983 21.0183Z" fill="#F6F8FA"/>
<path d="M127.983 11H128.483V10.5H127.983V11ZM127.983 21.0183H127.483V21.5092L127.974 21.5183L127.983 21.0183ZM124.017 11V10.5H123.517V11H124.017ZM124.017 21.0183L124.026 21.5183L124.517 21.5092V21.0183H124.017ZM21.0183 124.017V124.517H21.5092L21.5183 124.026L21.0183 124.017ZM11 124.017V123.517H10.5V124.017H11ZM11 127.983H10.5V128.483H11V127.983ZM21.0183 127.983L21.5183 127.974L21.5092 127.483H21.0183V127.983ZM124.017 230.982H124.517V230.491L124.026 230.482L124.017 230.982ZM124.017 241H123.517V241.5H124.017V241ZM127.983 241V241.5H128.483V241H127.983ZM127.983 230.982L127.974 230.482L127.483 230.491V230.982H127.983ZM230.982 127.983V127.483H230.491L230.482 127.973L230.982 127.983ZM241 127.983V128.483H241.5V127.983H241ZM241 124.017H241.5V123.517H241V124.017ZM230.982 124.017L230.482 124.027L230.491 124.517H230.982V124.017ZM127.483 11V21.0183H128.483V11H127.483ZM124.017 11.5H127.983V10.5H124.017V11.5ZM124.517 21.0183V11H123.517V21.0183H124.517ZM21.5183 124.026C22.5581 67.8799 67.8799 22.5581 124.026 21.5183L124.008 20.5184C67.3236 21.5682 21.5682 67.3236 20.5184 124.008L21.5183 124.026ZM11 124.517H21.0183V123.517H11V124.517ZM11.5 127.983V124.017H10.5V127.983H11.5ZM21.0183 127.483H11V128.483H21.0183V127.483ZM124.026 230.482C67.8799 229.442 22.5581 184.12 21.5183 127.974L20.5184 127.992C21.5682 184.676 67.3236 230.432 124.008 231.482L124.026 230.482ZM124.517 241V230.982H123.517V241H124.517ZM127.983 240.5H124.017V241.5H127.983V240.5ZM127.483 230.982V241H128.483V230.982H127.483ZM230.482 127.973C229.442 184.12 184.12 229.442 127.974 230.482L127.992 231.482C184.676 230.432 230.432 184.676 231.482 127.992L230.482 127.973ZM241 127.483H230.982V128.483H241V127.483ZM240.5 124.017V127.983H241.5V124.017H240.5ZM230.982 124.517H241V123.517H230.982V124.517ZM127.974 21.5183C184.12 22.5581 229.442 67.8799 230.482 124.027L231.482 124.008C230.432 67.3236 184.676 21.5682 127.992 20.5184L127.974 21.5183Z" fill="white"/>
</g>
<defs>
<filter id="filter0_d_0_7087" x="0.5" y="0.5" width="251" height="251" filterUnits="userSpaceOnUse" color-interpolation-filters="sRGB">
<feFlood flood-opacity="0" result="BackgroundImageFix"/>
<feColorMatrix in="SourceAlpha" type="matrix" values="0 0 0 0 0 0 0 0 0 0 0 0 0 0 0 0 0 0 127 0" result="hardAlpha"/>
<feOffset/>
<feGaussianBlur stdDeviation="5"/>
<feColorMatrix type="matrix" values="0 0 0 0 0.917875 0 0 0 0 0.928587 0 0 0 0 0.944548 0 0 0 1 0"/>
<feBlend mode="normal" in2="BackgroundImageFix" result="effect1_dropShadow_0_7087"/>
<feBlend mode="normal" in="SourceGraphic" in2="effect1_dropShadow_0_7087" result="shape"/>
</filter>
<radialGradient id="paint0_radial_0_7087" cx="0" cy="0" r="1" gradientUnits="userSpaceOnUse" gradientTransform="translate(126 126) rotate(93.2828) scale(115.189)">
<stop stop-color="#F4F7F9"/>
<stop offset="1" stop-color="#F1F6F6"/>
</radialGradient>
</defs>
</svg>
