<svg width="95" height="95" viewBox="0 0 95 95" fill="none" xmlns="http://www.w3.org/2000/svg">
<rect width="95" height="95" fill="#182129"/>
<rect x="0.5" y="63.5" width="94" height="31" fill="#EBEFF3" stroke="black"/>
<rect x="63.5" y="63.5" width="31" height="31" fill="#EBEFF3" stroke="black"/>
<rect x="63.5" y="31.5" width="31" height="32" fill="#EBEFF3" stroke="black"/>
<mask id="path-5-inside-1_2641_2090" fill="white">
<path d="M63 0H95V32H63V0Z"/>
</mask>
<path d="M63 0H95V32H63V0Z" fill="#EBEFF3"/>
<path d="M95 0H96V-1H95V0ZM63 1H95V-1H63V1ZM94 0V32H96V0H94Z" fill="black" mask="url(#path-5-inside-1_2641_2090)"/>
<rect x="31.5" y="63.5" width="32" height="31" fill="#EBEFF3" stroke="black"/>
<rect x="31.5" y="31.5" width="32" height="32" fill="#EBEFF3" stroke="black"/>
<rect x="31.5" y="0.5" width="32" height="31" fill="#EBEFF3" stroke="black"/>
<rect x="0.5" y="63.5" width="31" height="31" fill="#EBEFF3" stroke="black"/>
<rect x="0.5" y="31.5" width="31" height="32" fill="#EBEFF3" stroke="black"/>
<rect x="0.5" y="0.5" width="31" height="31" fill="#EBEFF3" stroke="black"/>
</svg>
