<svg width="95" height="95" viewBox="0 0 95 95" fill="none" xmlns="http://www.w3.org/2000/svg">
<rect width="95" height="95" fill="#182129"/>
<rect x="0.5" y="63.5" width="94" height="31" fill="#EBEFF3" stroke="black"/>
<rect x="63.5" y="63.5" width="31" height="31" fill="#EBEFF3" stroke="black"/>
<rect x="31.5" y="63.5" width="32" height="31" fill="#EBEFF3" stroke="black"/>
<rect x="0.5" y="63.5" width="31" height="31" fill="#EBEFF3" stroke="black"/>
<rect x="0.5" y="31.5" width="31" height="32" fill="#EBEFF3" stroke="black"/>
<mask id="path-7-inside-1_2641_2082" fill="white">
<path d="M0 0H32V32H0V0Z"/>
</mask>
<path d="M0 0H32V32H0V0Z" fill="#EBEFF3"/>
<path d="M0 0V-1H-1V0H0ZM32 0H33V-1H32V0ZM0 1H32V-1H0V1ZM31 0V32H33V0H31ZM1 32V0H-1V32H1Z" fill="black" mask="url(#path-7-inside-1_2641_2082)"/>
</svg>
