<svg width="95" height="95" viewBox="0 0 95 95" fill="none" xmlns="http://www.w3.org/2000/svg">
<rect width="95" height="95" fill="#182129"/>
<rect x="63.5" y="63.5" width="31" height="31" fill="#EBEFF3" stroke="black"/>
<mask id="path-3-inside-1_2641_2033" fill="white">
<path d="M63 31H95V64H63V31Z"/>
</mask>
<path d="M63 31H95V64H63V31Z" fill="#EBEFF3"/>
<path d="M95 64V65H96V64H95ZM94 31V64H96V31H94ZM95 63H63V65H95V63Z" fill="black" mask="url(#path-3-inside-1_2641_2033)"/>
<mask id="path-5-inside-2_2641_2033" fill="white">
<path d="M63 0H95V32H63V0Z"/>
</mask>
<path d="M63 0H95V32H63V0Z" fill="#EBEFF3"/>
<path d="M95 0H96V-1H95V0ZM63 1H95V-1H63V1ZM94 0V32H96V0H94Z" fill="black" mask="url(#path-5-inside-2_2641_2033)"/>
<mask id="path-7-inside-3_2641_2033" fill="white">
<path d="M31 63H64V95H31V63Z"/>
</mask>
<path d="M31 63H64V95H31V63Z" fill="#EBEFF3"/>
<path d="M31 63V62H30V63H31ZM31 95H30V96H31V95ZM31 64H64V62H31V64ZM64 94H31V96H64V94ZM32 95V63H30V95H32Z" fill="black" mask="url(#path-7-inside-3_2641_2033)"/>
<mask id="path-9-inside-4_2641_2033" fill="white">
<path d="M31 31H64V64H31V31Z"/>
</mask>
<path d="M31 31H64V64H31V31Z" fill="#EBEFF3"/>
<path d="M31 64H30V65H31V64ZM64 63H31V65H64V63ZM32 64V31H30V64H32Z" fill="black" mask="url(#path-9-inside-4_2641_2033)"/>
<mask id="path-11-inside-5_2641_2033" fill="white">
<path d="M31 0H64V32H31V0Z"/>
</mask>
<path d="M31 0H64V32H31V0Z" fill="#EBEFF3"/>
<path d="M31 0V-1H30V0H31ZM31 1H64V-1H31V1ZM32 32V0H30V32H32Z" fill="black" mask="url(#path-11-inside-5_2641_2033)"/>
<rect x="0.5" y="0.5" width="31" height="31" fill="#EBEFF3" stroke="black"/>
</svg>
