<svg width="38" height="36" viewBox="0 0 38 36" fill="none" xmlns="http://www.w3.org/2000/svg">
<g opacity="0.5">
<path fill-rule="evenodd" clip-rule="evenodd" d="M20.1196 5.27871C20.1196 6.03917 19.465 6.65401 18.6554 6.65401C17.8458 6.65401 17.1913 6.03513 17.1913 5.27871V1.3753C17.1913 0.614838 17.8458 0 18.6554 0C19.465 0 20.1196 0.614838 20.1196 1.3753V5.27871ZM18.6558 7.15604C15.4906 7.15604 12.515 8.3129 10.2757 10.4163C8.03639 12.5197 6.80478 15.3148 6.80478 18.2878C6.80478 21.2609 8.03639 24.056 10.2757 26.1594C12.515 28.2628 15.4906 29.4197 18.6558 29.4197C21.8209 29.4197 24.7966 28.2628 27.0359 26.1594C29.2752 24.056 30.5068 21.2609 30.5068 18.2878C30.5068 15.3148 29.2752 12.5197 27.0359 10.4163C24.7966 8.3129 21.8209 7.15604 18.6558 7.15604ZM18.6549 26.6651C13.7371 26.6651 9.73222 22.9073 9.73222 18.2839C9.73222 13.6604 13.7328 9.90265 18.6549 9.90265C23.5728 9.90265 27.5776 13.6604 27.5776 18.2839C27.5776 22.9073 23.5771 26.6651 18.6549 26.6651ZM13.2904 29.9573H24.0217C24.8313 29.9573 25.4859 30.5721 25.4859 31.3326C25.4859 32.0931 24.8313 32.7079 24.0217 32.7079H13.2904C12.4808 32.7079 11.8262 32.0931 11.8262 31.3326C11.8262 30.5721 12.4808 29.9573 13.2904 29.9573ZM21.8766 33.2494H15.4386C14.629 33.2494 13.9745 33.8643 13.9745 34.6247C13.9745 35.3852 14.629 36 15.4386 36H21.8766C22.6862 36 23.3407 35.3852 23.3407 34.6247C23.3407 33.8643 22.6862 33.2494 21.8766 33.2494ZM26.7516 8.65252C27.0057 8.82241 27.2985 8.90331 27.5914 8.90331C28.0521 8.90331 28.5086 8.69702 28.7928 8.31679L31.1742 5.12125C31.6393 4.49832 31.4757 3.64078 30.8168 3.20392C30.1536 2.76706 29.2407 2.92077 28.7756 3.53966L26.3942 6.7352C25.9291 7.35813 26.0885 8.21566 26.7516 8.65252ZM35.0584 11.1114C35.8163 10.8444 36.6604 11.2044 36.9446 11.9163C37.2288 12.6282 36.8455 13.4211 36.0876 13.688L32.1947 15.0552C32.0268 15.1159 31.8545 15.1442 31.6823 15.1442C31.088 15.1442 30.5282 14.8044 30.3085 14.2503C30.0243 13.5384 30.4076 12.7455 31.1655 12.4786L35.0584 11.1114ZM8.75491 7.66531C9.03913 8.04554 9.4956 8.25184 9.95637 8.25184C10.2449 8.25184 10.5377 8.17094 10.7961 8.00105C11.4593 7.56419 11.6186 6.70665 11.1535 6.08372L8.77213 2.88818C8.30705 2.26525 7.39411 2.11559 6.73094 2.55244C6.06776 2.9893 5.90843 3.84684 6.37351 4.46977L8.75491 7.66531ZM6.37814 11.8233C7.13174 12.0903 7.51931 12.8831 7.2351 13.595C7.01547 14.1492 6.45565 14.489 5.86138 14.489C5.68912 14.489 5.51687 14.4607 5.34892 14.4L1.45601 13.0328C0.702399 12.7658 0.31483 11.973 0.599048 11.2611C0.883265 10.5532 1.7273 10.1891 2.48522 10.4561L6.37814 11.8233Z" fill="#1D202D"/>
</g>
</svg>
