<svg width="38" height="36" viewBox="0 0 38 36" fill="none" xmlns="http://www.w3.org/2000/svg">
<path fill-rule="evenodd" clip-rule="evenodd" d="M20.612 5.27871C20.612 6.03917 19.9574 6.65401 19.1478 6.65401C18.3382 6.65401 17.6837 6.03513 17.6837 5.27871V1.3753C17.6837 0.614838 18.3382 0 19.1478 0C19.9574 0 20.612 0.614838 20.612 1.3753V5.27871ZM19.1479 7.15604C15.9828 7.15604 13.0071 8.3129 10.7678 10.4163C8.52851 12.5197 7.2969 15.3148 7.2969 18.2878C7.2969 21.2609 8.52851 24.056 10.7678 26.1594C13.0071 28.2628 15.9828 29.4197 19.1479 29.4197C22.3131 29.4197 25.2887 28.2628 27.528 26.1594C29.7673 24.056 30.9989 21.2609 30.9989 18.2878C30.9989 15.3148 29.7673 12.5197 27.528 10.4163C25.2887 8.3129 22.3131 7.15604 19.1479 7.15604ZM19.1473 26.6651C14.2295 26.6651 10.2246 22.9073 10.2246 18.2839C10.2246 13.6604 14.2252 9.90265 19.1473 9.90265C24.0651 9.90265 28.07 13.6604 28.07 18.2839C28.07 22.9073 24.0694 26.6651 19.1473 26.6651ZM13.7825 29.9573H24.5139C25.3234 29.9573 25.978 30.5721 25.978 31.3326C25.978 32.0931 25.3234 32.7079 24.5139 32.7079H13.7825C12.9729 32.7079 12.3183 32.0931 12.3183 31.3326C12.3183 30.5721 12.9729 29.9573 13.7825 29.9573ZM22.369 33.2494H15.931C15.1214 33.2494 14.4668 33.8643 14.4668 34.6247C14.4668 35.3852 15.1214 36 15.931 36H22.369C23.1785 36 23.8331 35.3852 23.8331 34.6247C23.8331 33.8643 23.1785 33.2494 22.369 33.2494ZM27.243 8.65252C27.497 8.82241 27.7899 8.90331 28.0827 8.90331C28.5435 8.90331 28.9999 8.69702 29.2842 8.31679L31.6656 5.12125C32.1306 4.49832 31.967 3.64078 31.3081 3.20392C30.645 2.76706 29.732 2.92077 29.2669 3.53966L26.8855 6.7352C26.4205 7.35813 26.5798 8.21566 27.243 8.65252ZM35.5497 11.1114C36.3077 10.8444 37.1517 11.2044 37.4359 11.9163C37.7201 12.6282 37.3369 13.4211 36.579 13.688L32.686 15.0552C32.5181 15.1159 32.3458 15.1442 32.1736 15.1442C31.5793 15.1442 31.0195 14.8044 30.7999 14.2503C30.5156 13.5384 30.8989 12.7455 31.6568 12.4786L35.5497 11.1114ZM9.24838 7.66531C9.5326 8.04554 9.98907 8.25184 10.4498 8.25184C10.7384 8.25184 11.0312 8.17094 11.2896 8.00105C11.9528 7.56419 12.1121 6.70665 11.647 6.08372L9.2656 2.88818C8.80052 2.26525 7.88758 2.11559 7.22441 2.55244C6.56123 2.9893 6.4019 3.84684 6.86698 4.46977L9.24838 7.66531ZM6.87045 11.8233C7.62405 12.0903 8.01162 12.8831 7.7274 13.595C7.50778 14.1492 6.94796 14.489 6.35369 14.489C6.18143 14.489 6.00918 14.4607 5.84123 14.4L1.94832 13.0328C1.19471 12.7658 0.80714 11.973 1.09136 11.2611C1.37557 10.5532 2.21961 10.1891 2.97753 10.4561L6.87045 11.8233Z" fill="#1D202D"/>
</svg>
