<svg width="17" height="18" viewBox="0 0 17 18" fill="none" xmlns="http://www.w3.org/2000/svg">
<path d="M8.04857 10.8511C8.82199 10.8511 9.44871 10.2751 9.44871 9.56512V1.28669C9.44869 0.575931 8.82199 0 8.04857 0C7.27516 0 6.64844 0.575931 6.64844 1.28669V9.5651C6.64844 10.2751 7.27514 10.8511 8.04857 10.8511Z" fill="#6822FF"/>
<path d="M13.409 3.83942C12.8692 3.37111 12.0406 3.41653 11.5587 3.94173C11.0768 4.46638 11.1241 5.27147 11.6642 5.73977C12.781 6.71102 13.4798 8.1088 13.4802 9.67725C13.4751 12.5913 11.049 14.9492 8.05086 14.9539C5.05275 14.9492 2.62631 12.5913 2.62156 9.67725C2.62194 8.10142 3.32723 6.69854 4.45298 5.72692C4.99498 5.26074 5.04478 4.45536 4.56503 3.92938C4.08479 3.40281 3.25695 3.35407 2.71533 3.82063L2.71495 3.81996C1.0534 5.24901 -0.000468674 7.34921 1.56361e-07 9.67725C0.000767355 13.9991 3.60421 17.5009 8.05088 17.5016C12.4974 17.5009 16.1009 13.9991 16.1016 9.67725C16.102 7.35927 15.0581 5.26726 13.409 3.83942Z" fill="#6822FF"/>
</svg>
