<?xml version="1.0" encoding="UTF-8"?>
<svg width="74px" height="74px" viewBox="0 0 74 74" version="1.1" xmlns="http://www.w3.org/2000/svg" xmlns:xlink="http://www.w3.org/1999/xlink">
    <title>形状</title>
    <defs>
        <linearGradient x1="50%" y1="0%" x2="50%" y2="100%" id="linearGradient-1">
            <stop stop-color="#FFDB01" offset="0%"></stop>
            <stop stop-color="#FFC105" offset="100%"></stop>
        </linearGradient>
    </defs>
    <g id="页面-1" stroke="none" stroke-width="1" fill="none" fill-rule="evenodd">
        <g id="2" transform="translate(-863.000000, -1853.000000)" fill="url(#linearGradient-1)" fill-rule="nonzero">
            <g id="编组-4" transform="translate(78.000000, 1765.000000)">
                <g id="定时开关" transform="translate(674.000000, 0.000000)">
                    <path d="M178.475446,125 C178.475446,120.672321 181.192634,117.005357 185,115.543527 C184.091518,111.97567 182.6875,108.614286 180.854018,105.525446 C177.120982,107.185491 172.611607,106.508259 169.555804,103.444196 C166.5,100.388393 165.822768,95.8707589 167.482812,92.1459821 C164.385714,90.3125 161.02433,88.9084821 157.456473,88 C155.986384,91.8073661 152.31942,94.5245536 148,94.5245536 C143.672321,94.5245536 140.005357,91.8073661 138.543527,88 C134.97567,88.9084821 131.614286,90.3125 128.525446,92.1459821 C130.185491,95.8790179 129.508259,100.388393 126.452455,103.444196 C123.396652,106.5 118.879018,107.177232 115.154241,105.525446 C113.3125,108.614286 111.908482,111.97567 111,115.543527 C114.807366,117.013616 117.524554,120.68058 117.524554,125 C117.524554,129.327679 114.807366,132.994643 111,134.456473 C111.908482,138.02433 113.3125,141.385714 115.145982,144.474554 C118.879018,142.814509 123.388393,143.491741 126.444196,146.555804 C129.5,149.611607 130.177232,154.129241 128.517188,157.854018 C131.614286,159.6875 134.97567,161.091518 138.543527,162 C140.013616,158.192634 143.68058,155.475446 148,155.475446 C152.327679,155.475446 155.994643,158.192634 157.456473,162 C161.02433,161.091518 164.385714,159.6875 167.474554,157.854018 C165.814509,154.120982 166.491741,149.611607 169.547545,146.555804 C172.603348,143.5 177.120982,142.822768 180.845759,144.474554 C182.6875,141.385714 184.091518,138.02433 185,134.456473 C181.192634,132.994643 178.475446,129.327679 178.475446,125 Z M148,135 C142.479675,135 138,130.520325 138,125 C138,119.479675 142.479675,115 148,115 C153.520325,115 158,119.479675 158,125 C158,130.520325 153.520325,135 148,135 Z" id="形状"></path>
                </g>
            </g>
        </g>
    </g>
</svg>