<svg width="25" height="24" viewBox="0 0 25 24" fill="none" xmlns="http://www.w3.org/2000/svg">
<g clip-path="url(#clip0_1628_8519)">
<path d="M22.3359 3.99935L24.8411 7.05007C24.932 7.21244 24.9297 7.39477 24.8348 7.55488C24.7399 7.71496 24.5803 7.80547 24.3931 7.80547L0.0145151 7.80548C-0.172683 7.80548 -0.332186 7.71496 -0.427144 7.55488C-0.522042 7.39478 -0.524337 7.21244 -0.433426 7.05007L2.07176 3.99935C2.16485 3.83311 2.32807 3.73779 2.51974 3.73779L21.8879 3.73779C22.0796 3.73779 22.2428 3.83311 22.3359 3.99935ZM21.3731 10.6093L23.3236 13.1516C23.4127 13.3139 23.4104 13.4963 23.3175 13.6563C23.2246 13.8164 23.0684 13.9069 22.8852 13.9069L1.01656 13.9069C0.83335 13.9069 0.6772 13.8164 0.584326 13.6563C0.491391 13.4963 0.489186 13.3139 0.578164 13.1516L2.52868 10.6093C2.61974 10.443 2.77957 10.3478 2.9671 10.3478L20.9347 10.3478C21.1222 10.3478 21.282 10.443 21.3731 10.6093ZM20.3485 16.7108L22.2958 18.7446C22.3847 18.9069 22.3824 19.0893 22.2896 19.2494C22.1969 19.4095 22.041 19.5 21.8581 19.5L2.028 19.5C1.84509 19.5 1.68918 19.4095 1.59643 19.2494C1.50368 19.0893 1.50147 18.9069 1.5903 18.7446L3.53764 16.7108C3.62858 16.5445 3.78811 16.4492 3.97534 16.4492L19.9107 16.4492C20.098 16.4492 20.2575 16.5445 20.3485 16.7108Z" fill="white"/>
</g>
<defs>
<clipPath id="clip0_1628_8519">
<rect width="24" height="24" fill="white" transform="translate(0.5 24) rotate(-90)"/>
</clipPath>
</defs>
</svg>
