<?xml version="1.0" encoding="UTF-8"?>
<svg width="36px" height="36px" viewBox="0 0 36 36" version="1.1" xmlns="http://www.w3.org/2000/svg" xmlns:xlink="http://www.w3.org/1999/xlink">
    <!-- Generator: Sketch 64 (93537) - https://sketch.com -->
    <title>扫描2</title>
    <desc>Created with Sketch.</desc>
    <g id="添加设备优化" stroke="none" stroke-width="1" fill="none" fill-rule="evenodd">
        <g id="添加设备-方案3" transform="translate(-678.000000, -178.000000)">
            <g id="扫描2" transform="translate(672.000000, 172.000000)">
                <rect id="矩形" x="0" y="0" width="48" height="48"></rect>
                <g id="帮助" transform="translate(6.000000, 6.000000)" fill="#000000" fill-rule="nonzero">
                    <path d="M18.0072723,27.0007232 C16.9425804,27.0007232 16.0798259,27.8637991 16.0798259,28.9280089 C16.0798259,29.9922187 16.9426205,30.8556562 18.0072723,30.8556562 C19.0712009,30.8556562 19.9337545,29.9922991 19.9337545,28.9280089 C19.9337545,27.8637187 19.0711607,27.0007232 18.0072723,27.0007232 L18.0072723,27.0007232 Z" id="路径"></path>
                    <path d="M18.0072723,0.00514285714 C8.08786607,0.00514285714 0.0197678571,8.07404464 0.0197678571,17.9924063 C0.0197678571,27.9114509 8.08786607,35.9805536 18.0072723,35.9805536 C27.9253125,35.9805536 35.9945357,27.9114911 35.9945357,17.9924063 C35.9945357,8.07400446 27.9252321,0.00514285714 18.0072723,0.00514285714 Z M18.0072723,33.3993616 C9.51111161,33.3993616 2.60059821,26.4868393 2.60059821,17.9925268 C2.60059821,9.49753125 9.51111161,2.58661607 18.0072723,2.58661607 C26.5006607,2.58661607 33.4139464,9.49745089 33.4139464,17.9925268 C33.4139464,26.4869598 26.5006607,33.3993616 18.0072723,33.3993616 Z" id="形状"></path>
                    <path d="M18.0065089,6.47698661 C14.4649286,6.47698661 11.5822768,9.33340179 11.5822768,12.8432009 C11.5822768,13.5522723 12.1587187,14.1281518 12.8672277,14.1281518 C13.5773839,14.1281518 14.1523393,13.5523125 14.1523393,12.8432009 C14.1523393,10.7142589 15.8465491,9.04640625 18.0073125,9.04640625 C20.1316741,9.04640625 21.8614821,10.7887902 21.8614821,12.93075 C21.8614821,13.7875179 20.7865848,14.8616518 19.7467232,15.902558 C18.328058,17.3195357 16.722,18.9254732 16.722,21.0278571 L16.722,23.200192 C16.722,23.9098661 17.2982009,24.4853036 18.0072723,24.4853036 C18.7157812,24.4853036 19.2917812,23.9082187 19.2917812,23.1989464 L19.2917812,21.0264509 C19.2917812,19.9895625 20.4456696,18.8357545 21.5634777,17.7204777 C22.9727009,16.3112545 24.4315446,14.8538973 24.4315446,12.9303482 C24.4315446,9.37161161 21.5500179,6.47698661 18.0064286,6.47698661 L18.0065089,6.47698661 Z" id="路径"></path>
                </g>
            </g>
        </g>
    </g>
</svg>