<?xml version="1.0" encoding="UTF-8"?>
<svg width="128px" height="128px" viewBox="0 0 128 128" version="1.1" xmlns="http://www.w3.org/2000/svg" xmlns:xlink="http://www.w3.org/1999/xlink">
    <title>失败</title>
    <g id="添加设备流程" stroke="none" stroke-width="1" fill="none" fill-rule="evenodd">
        <g id="1.7-一键配网-配网失败" transform="translate(-311.000000, -332.000000)">
            <g id="编组-2" transform="translate(88.000000, 332.000000)">
                <g id="失败备份" transform="translate(223.000000, 0.000000)">
                    <rect id="矩形备份-48" fill="#FFFFFF" opacity="0" x="0" y="0" width="128" height="128"></rect>
                    <path d="M124,64.7436442 C124,97.1406813 97.1377778,124.002903 63.2592593,124.002903 C30.8622222,124.002903 4,97.1406813 4,64.7436442 C4,30.8651257 30.8622222,4.00290349 63.2592593,4.00290349 C97.1377778,4.00290349 124,30.8651257 124,64.7436442 Z M118,64.7301762 C118,34.1788468 93.8240567,10.0029035 63.2727273,10.0029035 C33.9718535,10.0029035 10,34.3871263 10,64.7301762 C10,93.8269602 34.1759433,118.002903 63.2727273,118.002903 C93.6157771,118.002903 118,94.03105 118,64.7301762 Z M64,33.6601616 C66.6291151,33.6601616 68.760434,35.7914804 68.760434,38.4205955 C68.760434,38.4791825 68.7593524,38.5377645 68.7571899,38.5963115 L67.4145616,74.9455161 C67.3467171,76.7822806 65.8380171,78.2362827 64,78.2362827 C62.1619829,78.2362827 60.6532829,76.7822806 60.5854384,74.9455161 L59.2428101,38.5963115 C59.1457649,35.9689881 61.1969606,33.7604509 63.824284,33.6634057 C63.882831,33.6612431 63.941413,33.6601616 64,33.6601616 Z M64,94.3456454 C61.2719806,94.3456454 59.0604839,92.1341487 59.0604839,89.4061293 C59.0604839,86.6781099 61.2719806,84.4666132 64,84.4666132 C66.7280194,84.4666132 68.9395161,86.6781099 68.9395161,89.4061293 C68.9395161,92.1341487 66.7280194,94.3456454 64,94.3456454 Z" id="形状" fill="#FF584C" fill-rule="nonzero"></path>
                </g>
            </g>
        </g>
    </g>
</svg>