<?xml version="1.0" encoding="UTF-8"?>
<svg width="48px" height="48px" viewBox="0 0 48 48" version="1.1" xmlns="http://www.w3.org/2000/svg" xmlns:xlink="http://www.w3.org/1999/xlink">
    <title>我的/icon/设置</title>
    <g id="我的/icon/设置" stroke="none" stroke-width="1" fill="none" fill-rule="evenodd">
        <g id="设置" transform="translate(0.000000, 1.000000)" fill="#15161A" fill-rule="nonzero">
            <path d="M47.8016842,20.0775197 C47.8433684,20.4248881 47.8736842,20.7747829 47.904,21.1259408 C47.9532631,21.7512039 48,22.3764671 48,23.0143619 C48,23.6522566 47.9532631,24.2775197 47.904,24.9027829 C47.8736842,25.2526776 47.8433684,25.6038355 47.8016842,25.9499408 C47.8016842,25.9499408 47.8016842,25.9499408 47.8029474,25.9499408 C47.6905263,26.8644671 47.5212631,27.7587829 47.3103158,28.6392039 C45.0416842,29.2000461 42.8829474,30.7486776 41.5111579,33.1246776 C40.1393684,35.5006776 39.8778947,38.1457303 40.5246316,40.3890987 C39.8652631,41.0168881 39.168,41.6017303 38.4404211,42.1512039 C38.4404211,42.1499408 38.4391579,42.1499408 38.4391579,42.1486776 C37.3048421,43.0050987 36.0947369,43.7655197 34.8189474,44.4160461 C34.8126316,44.4198355 34.8050526,44.423625 34.7987369,44.4261513 C34.1747369,44.7444671 33.5343158,45.0349934 32.8787369,45.2977303 C32.8256842,45.3192039 32.7701053,45.335625 32.7170526,45.3570987 C32.088,45.6046776 31.4488421,45.8307829 30.7945263,46.0240461 C29.1751579,44.3339408 26.7498947,43.2349934 24,43.2349934 C21.2501053,43.2349934 18.8248421,44.3352039 17.2054737,46.0240461 C17.2054737,46.0240461 17.2054737,46.0240461 17.2054737,46.0240461 C16.5511579,45.8307829 15.912,45.6046776 15.2829474,45.3570987 C15.2286316,45.335625 15.1743158,45.3192039 15.12,45.2977303 C14.4656842,45.0349934 13.8252631,44.7444671 13.2012631,44.4261513 C13.1936842,44.423625 13.1873684,44.4198355 13.1810526,44.4160461 C11.9052631,43.7655197 10.6951579,43.0050987 9.56084213,42.1486776 C9.55957894,42.1499408 9.55957894,42.1499408 9.55957894,42.1512039 C8.832,41.6017303 8.13347367,41.0168881 7.47410527,40.3890987 C8.12210527,38.1457303 7.86063159,35.5006776 6.48884212,33.1246776 C5.11705261,30.7486776 2.95705261,29.2000461 0.689684203,28.6392039 C0.478736859,27.7587829 0.309473672,26.8644671 0.197052609,25.9512039 C0.198315797,25.9512039 0.198315797,25.9512039 0.198315797,25.9512039 C0.156631594,25.6038355 0.126315797,25.2526776 0.0947368594,24.9027829 C0.0467368594,24.2775197 0,23.6522566 0,23.0143619 C0,22.3764671 0.0467368594,21.7512039 0.0947368594,21.1259408 C0.126315797,20.7747829 0.156631594,20.4248881 0.198315797,20.0775197 C0.198315797,20.0775197 0.198315797,20.0775197 0.197052609,20.0775197 C0.309473672,19.1642566 0.478736859,18.2686776 0.689684203,17.3895197 C2.95705261,16.8286776 5.11578947,15.2800461 6.48757894,12.9040461 C7.85936841,10.5280461 8.12084212,7.88425659 7.47410527,5.639625 C8.13347367,5.01183553 8.83073686,4.42825659 9.5583158,3.87751973 C9.5583158,3.87878287 9.55957894,3.88004606 9.55957894,3.8813092 C10.6938947,3.02488814 11.9052631,2.26320394 13.1810526,1.61141447 C13.1873684,1.60888814 13.1936842,1.60636186 13.2,1.60257239 C13.8252631,1.28425659 14.4656842,0.993730266 15.1212631,0.730993406 C15.1743158,0.709519734 15.2286316,0.693098672 15.2816842,0.671625 C15.9107369,0.424046063 16.5511579,0.197940797 17.2067369,0.00467760938 C18.8261053,1.69351973 21.2513684,2.79246712 24,2.79246712 C26.7486316,2.79246712 29.1738947,1.69351973 30.7932631,0.00467760938 C31.4488421,0.197940797 32.088,0.424046063 32.7183158,0.671625 C32.7713684,0.693098672 32.8256842,0.709519734 32.8787369,0.730993406 C33.5343158,0.993730266 34.1747369,1.28425659 34.8,1.60257239 C34.8063158,1.60636186 34.8126316,1.60888814 34.8189474,1.61141447 C36.0947369,2.26320394 37.3048421,3.02488814 38.4404211,3.8813092 C38.4404211,3.88004606 38.4404211,3.87878287 38.4416842,3.87751973 C39.1692631,4.42825659 39.8665263,5.01183553 40.5258947,5.639625 C39.8791579,7.88425659 40.1406316,10.5280461 41.5124211,12.9040461 C42.8842105,15.2800461 45.0429474,16.8286776 47.3090526,17.3895197 C47.5212631,18.2686776 47.6905263,19.1629934 47.8016842,20.0775197 C47.8016842,20.0775197 47.8016842,20.0775197 47.8016842,20.0775197 Z M45.1528421,19.3512039 C42.8387369,18.3912039 40.7431579,16.6177303 39.3271579,14.1646776 C37.9174737,11.7229934 37.4273684,9.03499341 37.7431579,6.56046713 C35.8673684,4.99541447 33.7288421,3.73225659 31.3907369,2.87457239 C29.4037895,4.39288814 26.8256842,5.31625659 24,5.31625659 C21.1743158,5.31625659 18.5962105,4.39288814 16.6092631,2.87457239 C14.2711579,3.73225659 12.1326316,4.99541447 10.2555789,6.56046713 C10.5726316,9.03499341 10.0812631,11.7229934 8.67157894,14.1646776 C7.25684213,16.6177303 5.16126314,18.3912039 2.84715788,19.3512039 C2.64126314,20.5423619 2.5263158,21.7638355 2.5263158,23.0143619 C2.5263158,24.2648881 2.64126314,25.4863619 2.84715788,26.6775197 C5.16126314,27.6362566 7.25684213,29.4109934 8.67410527,31.8627829 C10.0837895,34.3044671 10.5738947,36.9937303 10.2568421,39.4695197 C12.1326316,41.0333092 14.2711579,42.2964671 16.608,43.1541513 C18.5949474,41.6358355 21.1743158,40.7112039 24,40.7112039 C26.8256842,40.7112039 29.4050526,41.6358355 31.392,43.1541513 C33.7288421,42.2964671 35.8661053,41.0333092 37.7431579,39.4695197 C37.4248421,36.9937303 37.9162105,34.3044671 39.3258947,31.8627829 C40.7418947,29.4109934 42.8374737,27.6362566 45.1528421,26.6762566 C45.3574737,25.4863619 45.4736842,24.2648881 45.4736842,23.0143619 C45.4736842,21.7638355 45.3574737,20.5423619 45.1528421,19.3512039 Z M24,31.8438355 C19.1229474,31.8438355 15.1692631,27.8901513 15.1692631,23.0130987 C15.1692631,18.1373092 19.1229474,14.183625 24,14.183625 C28.8757895,14.183625 32.8294737,18.1373092 32.8294737,23.0130987 C32.8294737,27.8901513 28.8757895,31.8438355 24,31.8438355 Z M24,16.7137303 C20.52,16.7137303 17.7006316,19.5343619 17.7006316,23.0130987 C17.7006316,26.4930987 20.52,29.3137303 24,29.3137303 C27.4787369,29.3137303 30.2993684,26.4930987 30.2993684,23.0130987 C30.2993684,19.5343619 27.4787369,16.7137303 24,16.7137303 Z" id="形状1"></path>
        </g>
    </g>
</svg>