<?xml version="1.0" encoding="UTF-8"?>
<svg width="128px" height="128px" viewBox="0 0 128 128" version="1.1" xmlns="http://www.w3.org/2000/svg" xmlns:xlink="http://www.w3.org/1999/xlink">
    <title>成功</title>
    <g id="添加设备流程" stroke="none" stroke-width="1" fill="none" fill-rule="evenodd">
        <g id="1.8-一键配网-配网成功" transform="translate(-311.000000, -332.000000)">
            <g id="编组-2" transform="translate(188.000000, 332.000000)">
                <g id="成功备份" transform="translate(123.000000, 0.000000)">
                    <rect id="矩形" fill="#FFFFFF" opacity="0" x="0" y="0" width="128" height="128"></rect>
                    <path d="M124,64.7407407 C124,97.1377778 97.1377778,124 63.2592593,124 C30.8622222,124 4,97.1377778 4,64.7407407 C4,30.8622222 30.8622222,4 63.2592593,4 C97.1377778,4 124,30.8622222 124,64.7407407 Z M118,64.7407407 C118,34.1759307 93.8240693,10 63.2592593,10 C33.9719152,10 10,34.3842856 10,64.7407407 C10,93.8240693 34.1759307,118 63.2592593,118 C93.6157144,118 118,94.0280848 118,64.7407407 Z M32.2382353,63.476723 C33.2657317,62.0786283 35.2320618,61.7781991 36.6301565,62.8056955 C36.6471662,62.8181964 36.6640495,62.8308684 36.6808038,62.8437097 L51.5663116,74.2525977 C52.308179,74.8211965 53.3449417,74.8001226 54.0630906,74.2018466 L94.6539053,40.3864149 C95.816822,39.4176112 97.5252171,39.4898926 98.602145,40.553463 C99.6357525,41.5742503 99.6461453,43.2396664 98.625358,44.2732738 C98.6165916,44.2821503 98.6077622,44.2909642 98.5988705,44.2997151 L55.7108224,86.5079606 C54.1362964,88.0575293 51.6037173,88.0372975 50.0541486,86.4627716 C50.0455584,86.454043 50.0370084,86.4452751 50.0284987,86.436468 L32.5673245,68.3650184 C31.2808574,67.0335886 31.1418366,64.9685717 32.2382353,63.476723 Z" id="形状" fill="#07C160" fill-rule="nonzero"></path>
                </g>
            </g>
        </g>
    </g>
</svg>