<?xml version="1.0" encoding="UTF-8"?>
<svg width="32px" height="32px" viewBox="0 0 32 32" version="1.1" xmlns="http://www.w3.org/2000/svg" xmlns:xlink="http://www.w3.org/1999/xlink">
    <!-- Generator: Sketch 64 (93537) - https://sketch.com -->
    <title>扫描2</title>
    <desc>Created with Sketch.</desc>
    <g id="添加设备优化" stroke="none" stroke-width="1" fill="none" fill-rule="evenodd">
        <g id="添加设备-方案3" transform="translate(-592.000000, -180.000000)">
            <g id="扫描2" transform="translate(584.000000, 172.000000)">
                <rect id="矩形" x="0" y="0" width="48" height="48"></rect>
                <path d="M8,25.3629951 L8,23.2794357 L40,23.2794357 L40,25.3629951 L8,25.3629951 Z M37.3333333,11.4066196 C37.3333333,10.6759848 36.764,10.0835594 36.064,10.0835594 L29.3333333,10.0835594 L29.3333333,8 L36.6666667,8 C38.1393333,8 39.3333333,9.24388497 39.3333333,10.7780792 L39.3333333,19.1123169 L37.3333333,19.1123169 L37.3333333,11.4066196 Z M10.6666667,11.4066196 L10.6666667,19.1123169 L8.66666666,19.1123169 L8.66666666,10.7780792 C8.66666666,9.243885 9.86066666,8.00000003 11.3333333,8.00000003 L18.6666667,8.00000003 L18.6666667,10.0835594 L11.9366667,10.0835594 C11.2353333,10.0835594 10.6666667,10.6759848 10.6666667,11.4066196 Z M10.6666667,36.5412914 C10.6666667,37.2719262 11.2353333,37.8643516 11.9366667,37.8643516 L18.6666667,37.8643516 L18.6666667,39.9631905 L11.3333333,39.947911 C9.86066666,39.947911 8.66666666,38.7040261 8.66666666,37.1698318 L8.66666666,28.8355941 L10.6666667,28.8355941 L10.6666667,36.5412914 Z M37.3333333,36.5412914 L37.3333333,28.8355941 L39.3333333,28.8355941 L39.3333333,37.1698318 C39.3333333,38.704026 38.2146667,40 36.742,40 L29.3333333,39.9854151 L29.3333333,37.8643516 L36.064,37.8643516 C36.764,37.8643516 37.3333333,37.2719262 37.3333333,36.5412914 Z" id="形状" fill="#000000" fill-rule="nonzero"></path>
            </g>
        </g>
    </g>
</svg>