<?xml version="1.0" encoding="UTF-8"?>
<svg width="512px" height="320px" viewBox="0 0 512 320" version="1.1" xmlns="http://www.w3.org/2000/svg" xmlns:xlink="http://www.w3.org/1999/xlink">
    <title>空白页/无数据</title>
    <defs>
        <radialGradient cx="50%" cy="-13.7511502%" fx="50%" fy="-13.7511502%" r="119.117172%" gradientTransform="translate(0.500000,-0.137512),scale(0.272253,1.000000),rotate(90.000000),scale(1.000000,1.744156),translate(-0.500000,0.137512)" id="radialGradient-1">
            <stop stop-color="#A1C0F8" offset="0%"></stop>
            <stop stop-color="#FFFFFF" stop-opacity="0" offset="93.6150342%"></stop>
            <stop stop-color="#FFFFFF" stop-opacity="0" offset="100%"></stop>
        </radialGradient>
        <linearGradient x1="50%" y1="0%" x2="50%" y2="100%" id="linearGradient-2">
            <stop stop-color="#E2ECFF" offset="0%"></stop>
            <stop stop-color="#E2ECFF" stop-opacity="0" offset="100%"></stop>
        </linearGradient>
        <linearGradient x1="50%" y1="0%" x2="50%" y2="100%" id="linearGradient-3">
            <stop stop-color="#E2ECFF" offset="0%"></stop>
            <stop stop-color="#E2ECFF" stop-opacity="0" offset="100%"></stop>
        </linearGradient>
        <linearGradient x1="50%" y1="0%" x2="50%" y2="100%" id="linearGradient-4">
            <stop stop-color="#4288E4" offset="0%"></stop>
            <stop stop-color="#1F50C4" offset="100%"></stop>
        </linearGradient>
        <linearGradient x1="50%" y1="0%" x2="50%" y2="100%" id="linearGradient-5">
            <stop stop-color="#BFDAFE" offset="0%"></stop>
            <stop stop-color="#5380DC" offset="100%"></stop>
        </linearGradient>
        <linearGradient x1="50%" y1="0%" x2="50%" y2="100%" id="linearGradient-6">
            <stop stop-color="#4288E4" offset="0%"></stop>
            <stop stop-color="#1F50C4" offset="100%"></stop>
        </linearGradient>
        <linearGradient x1="50%" y1="0%" x2="50%" y2="100%" id="linearGradient-7">
            <stop stop-color="#BFDAFE" offset="0%"></stop>
            <stop stop-color="#5380DC" offset="100%"></stop>
        </linearGradient>
        <linearGradient x1="50%" y1="5.38993969%" x2="50%" y2="108.021519%" id="linearGradient-8">
            <stop stop-color="#7AA0E8" offset="0%"></stop>
            <stop stop-color="#3769D4" offset="100%"></stop>
        </linearGradient>
        <linearGradient x1="50%" y1="0%" x2="50%" y2="100%" id="linearGradient-9">
            <stop stop-color="#B8CFF4" offset="0%"></stop>
            <stop stop-color="#658CE0" offset="100%"></stop>
        </linearGradient>
        <rect id="path-10" x="54" y="12" width="84" height="6" rx="3"></rect>
        <filter x="-15.5%" y="-183.3%" width="131.0%" height="533.3%" filterUnits="objectBoundingBox" id="filter-11">
            <feOffset dx="0" dy="2" in="SourceAlpha" result="shadowOffsetOuter1"></feOffset>
            <feGaussianBlur stdDeviation="4" in="shadowOffsetOuter1" result="shadowBlurOuter1"></feGaussianBlur>
            <feColorMatrix values="0 0 0 0 0   0 0 0 0 0   0 0 0 0 0  0 0 0 0.1 0" type="matrix" in="shadowBlurOuter1"></feColorMatrix>
        </filter>
        <rect id="path-12" x="54" y="28" width="61" height="6" rx="3"></rect>
        <filter x="-21.3%" y="-183.3%" width="142.6%" height="533.3%" filterUnits="objectBoundingBox" id="filter-13">
            <feOffset dx="0" dy="2" in="SourceAlpha" result="shadowOffsetOuter1"></feOffset>
            <feGaussianBlur stdDeviation="4" in="shadowOffsetOuter1" result="shadowBlurOuter1"></feGaussianBlur>
            <feColorMatrix values="0 0 0 0 0   0 0 0 0 0   0 0 0 0 0  0 0 0 0.1 0" type="matrix" in="shadowBlurOuter1"></feColorMatrix>
        </filter>
        <linearGradient x1="50%" y1="5.38993969%" x2="50%" y2="108.021519%" id="linearGradient-14">
            <stop stop-color="#BAD0FF" offset="0%"></stop>
            <stop stop-color="#1745A7" offset="100%"></stop>
        </linearGradient>
        <linearGradient x1="50%" y1="0%" x2="50%" y2="100%" id="linearGradient-15">
            <stop stop-color="#A1BDF4" offset="0%"></stop>
            <stop stop-color="#6A93DA" offset="100%"></stop>
        </linearGradient>
        <linearGradient x1="0%" y1="0%" x2="100%" y2="100%" id="linearGradient-16">
            <stop stop-color="#C1D8F6" offset="0%"></stop>
            <stop stop-color="#415BBA" offset="100%"></stop>
        </linearGradient>
        <circle id="path-17" cx="25" cy="25" r="25"></circle>
        <filter x="-68.0%" y="-28.0%" width="196.0%" height="196.0%" filterUnits="objectBoundingBox" id="filter-18">
            <feMorphology radius="4" operator="dilate" in="SourceAlpha" result="shadowSpreadOuter1"></feMorphology>
            <feOffset dx="-10" dy="10" in="shadowSpreadOuter1" result="shadowOffsetOuter1"></feOffset>
            <feMorphology radius="4" operator="erode" in="SourceAlpha" result="shadowInner"></feMorphology>
            <feOffset dx="-10" dy="10" in="shadowInner" result="shadowInner"></feOffset>
            <feComposite in="shadowOffsetOuter1" in2="shadowInner" operator="out" result="shadowOffsetOuter1"></feComposite>
            <feGaussianBlur stdDeviation="5" in="shadowOffsetOuter1" result="shadowBlurOuter1"></feGaussianBlur>
            <feColorMatrix values="0 0 0 0 0   0 0 0 0 0   0 0 0 0 0  0 0 0 0.1 0" type="matrix" in="shadowBlurOuter1"></feColorMatrix>
        </filter>
        <linearGradient x1="-7.55378683%" y1="23.8418224%" x2="106.266364%" y2="38.7317635%" id="linearGradient-19">
            <stop stop-color="#4288E4" offset="0%"></stop>
            <stop stop-color="#2358D6" offset="100%"></stop>
        </linearGradient>
        <path d="M43.9570312,48.6142578 L56,63.8759766" id="path-20"></path>
        <filter x="-186.2%" y="-120.7%" width="472.4%" height="393.9%" filterUnits="objectBoundingBox" id="filter-21">
            <feMorphology radius="6" operator="dilate" in="SourceAlpha" result="shadowSpreadOuter1"></feMorphology>
            <feOffset dx="0" dy="4" in="shadowSpreadOuter1" result="shadowOffsetOuter1"></feOffset>
            <feMorphology radius="6" operator="erode" in="SourceAlpha" result="shadowInner"></feMorphology>
            <feOffset dx="0" dy="4" in="shadowInner" result="shadowInner"></feOffset>
            <feComposite in="shadowOffsetOuter1" in2="shadowInner" operator="out" result="shadowOffsetOuter1"></feComposite>
            <feGaussianBlur stdDeviation="4" in="shadowOffsetOuter1" result="shadowBlurOuter1"></feGaussianBlur>
            <feColorMatrix values="0 0 0 0 0   0 0 0 0 0   0 0 0 0 0  0 0 0 0.2 0" type="matrix" in="shadowBlurOuter1"></feColorMatrix>
        </filter>
        <linearGradient x1="50%" y1="0%" x2="50%" y2="100%" id="linearGradient-22">
            <stop stop-color="#E8F0FB" offset="0%"></stop>
            <stop stop-color="#CDDDF5" offset="100%"></stop>
        </linearGradient>
    </defs>
    <g id="空白页/无数据" stroke="none" stroke-width="1" fill="none" fill-rule="evenodd">
        <g>
            <path d="M256.201945,137 C397.124732,137 521.026663,209.874945 592.277958,319.995053 L-79.8740674,319.995053 C-8.62277269,209.874945 115.279159,137 256.201945,137 Z" id="形状结合" fill="url(#radialGradient-1)"></path>
            <g id="cloud" transform="translate(22.000000, 13.000000)">
                <path d="M343,78 L342.999989,77.6195045 C333.315117,75.751781 326,67.230159 326,57 C326,45.4020203 335.40202,36 347,36 C349.856571,36 352.579929,36.5703569 355.062405,37.6034027 C355.020618,36.9075003 355,36.2061579 355,35.5 C355,15.8938914 370.893891,0 390.5,0 C408.142352,0 422.778881,12.8694627 425.533893,29.7326958 C427.443118,29.2537654 429.441924,29 431.5,29 C445.030976,29 456,39.9690236 456,53.5 C456,65.8422576 446.873612,76.0529331 435.001137,77.7517263 L435,78 L343,78 Z" id="形状结合" fill="url(#linearGradient-2)"></path>
                <path d="M13.6,102 L13.6005987,101.697671 C5.8523994,100.213308 0,93.4395698 0,85.3076923 C0,76.0887853 7.5216162,68.6153846 16.8,68.6153846 C19.0856169,68.6153846 21.2646291,69.068888 23.2508616,69.8902721 C23.2165066,69.3371373 23.2,68.7794583 23.2,68.2179487 C23.2,52.633606 35.9151131,40 51.6,40 C65.7139309,40 77.4231859,50.229644 79.627137,63.6338209 C81.1548413,63.2529493 82.7537178,63.0512821 84.4,63.0512821 C95.2247811,63.0512821 104,71.7702496 104,82.525641 C104,92.3362975 96.6986755,100.45257 87.2004915,101.802714 L87.2,102 L13.6,102 Z" id="形状结合备份" fill="url(#linearGradient-3)"></path>
            </g>
            <g id="编组" transform="translate(66.000000, 133.000000)">
                <g id="tree" transform="translate(43.000000, 0.000000)">
                    <path d="M9.5,28.1481481 C10.4716121,28.1481481 11.2592593,28.9357953 11.2592593,29.9074074 L11.2592593,36.9444444 C11.2592593,37.9160565 10.4716121,38.7037037 9.5,38.7037037 C8.52838794,38.7037037 7.74074074,37.9160565 7.74074074,36.9444444 L7.74074074,29.9074074 C7.74074074,28.9357953 8.52838794,28.1481481 9.5,28.1481481 Z" id="矩形" fill="url(#linearGradient-4)"></path>
                    <path d="M9.37664258,0.703703704 C14.4222439,0.703703704 20.831195,20.5926958 18.5102602,25.978017 C16.1893255,31.3633381 3.34150101,32.00046 0.64111084,25.978017 C-2.05927933,19.9555739 4.33104127,0.703703704 9.37664258,0.703703704 Z" id="矩形" fill="url(#linearGradient-5)"></path>
                </g>
                <g id="tree" transform="translate(333.000000, 14.000000)">
                    <path d="M13.381875,39.65 C14.7505056,39.65 15.86,40.7594944 15.86,42.128125 L15.86,52.040625 C15.86,53.4092556 14.7505056,54.51875 13.381875,54.51875 C12.0132444,54.51875 10.90375,53.4092556 10.90375,52.040625 L10.90375,42.128125 C10.90375,40.7594944 12.0132444,39.65 13.381875,39.65 Z" id="矩形" fill="url(#linearGradient-6)"></path>
                    <path d="M13.2081115,0.99125 C20.3154384,0.99125 29.3432049,29.0072506 26.0738935,36.5931132 C22.8045821,44.1789758 4.70689988,45.0764374 0.903080539,36.5931132 C-2.9007388,28.109789 6.10078451,0.99125 13.2081115,0.99125 Z" id="矩形" fill="url(#linearGradient-7)"></path>
                </g>
                <g id="tree备份" transform="translate(6.000000, 28.000000)">
                    <path d="M13.381875,39.65 C14.7505056,39.65 15.86,40.7594944 15.86,42.128125 L15.86,52.040625 C15.86,53.4092556 14.7505056,54.51875 13.381875,54.51875 C12.0132444,54.51875 10.90375,53.4092556 10.90375,52.040625 L10.90375,42.128125 C10.90375,40.7594944 12.0132444,39.65 13.381875,39.65 Z" id="矩形" fill="url(#linearGradient-6)"></path>
                    <path d="M13.2081115,0.99125 C20.3154384,0.99125 29.3432049,29.0072506 26.0738935,36.5931132 C22.8045821,44.1789758 4.70689988,45.0764374 0.903080539,36.5931132 C-2.9007388,28.109789 6.10078451,0.99125 13.2081115,0.99125 Z" id="矩形" fill="url(#linearGradient-7)"></path>
                </g>
            </g>
            <g id="编组-2" transform="translate(166.000000, 63.000000)">
                <g id="编组-9">
                    <path d="M148.584163,11 C150.793302,11 152.584163,12.790861 152.584163,15 C152.584163,15.398739 152.524542,15.795237 152.407279,16.1763434 L150.922491,21 L153.837845,21 C162.674401,21 169.837845,28.163444 169.837845,37 C169.837845,37.3736947 169.824753,37.7472746 169.798593,38.1200525 L168.044207,63.1200525 C167.456046,71.5013399 160.485358,78 152.083459,78 L30.9165413,78 C22.5146421,78 15.5439537,71.5013399 14.9557932,63.1200525 L13.2014072,38.1200525 C12.5828193,29.3051747 19.2272251,21.6578397 28.0421029,21.0392518 C28.4148808,21.013092 28.7884607,21 29.1621554,21 L99.9224911,21 L102.131183,13.8236566 C102.647603,12.1452901 104.198279,11 105.954299,11 L148.584163,11 Z" id="形状结合" fill="url(#linearGradient-8)"></path>
                    <rect id="矩形" fill="url(#linearGradient-9)" x="36" y="0" width="121" height="53" rx="4"></rect>
                    <g id="矩形">
                        <use fill="black" fill-opacity="1" filter="url(#filter-11)" xlink:href="#path-10"></use>
                        <use fill="#F6FAFF" fill-rule="evenodd" xlink:href="#path-10"></use>
                    </g>
                    <g id="矩形备份">
                        <use fill="black" fill-opacity="1" filter="url(#filter-13)" xlink:href="#path-12"></use>
                        <use fill="#F6FAFF" fill-rule="evenodd" xlink:href="#path-12"></use>
                    </g>
                    <path d="M20.8861435,45 L159.113856,45 C167.950412,45 175.113856,52.163444 175.113856,61 C175.113856,62.4068214 174.928315,63.8074986 174.562031,65.1658 L159.191245,122.1658 C157.308255,129.148555 150.975256,134 143.74307,134 L36.25693,134 C29.0247441,134 22.6917451,129.148555 20.8087551,122.1658 L5.43796854,65.1658 C3.13726073,56.6340085 8.18855207,47.8525328 16.7203435,45.551825 C18.0786449,45.1855415 19.4793222,45 20.8861435,45 Z" id="矩形" fill="url(#linearGradient-14)"></path>
                    <path d="M21.8861435,50 L160.113856,50 C168.950412,50 176.113856,57.163444 176.113856,66 C176.113856,67.4068214 175.928315,68.8074986 175.562031,70.1658 L160.191245,127.1658 C158.308255,134.148555 151.975256,139 144.74307,139 L37.25693,139 C30.0247441,139 23.6917451,134.148555 21.8087551,127.1658 L6.43796854,70.1658 C4.13726073,61.6340085 9.18855207,52.8525328 17.7203435,50.551825 C19.0786449,50.1855415 20.4793222,50 21.8861435,50 Z" id="矩形" fill="url(#linearGradient-15)"></path>
                </g>
                <g id="编组-8" transform="translate(75.258288, 62.000000)">
                    <g id="椭圆形">
                        <use fill="black" fill-opacity="1" filter="url(#filter-18)" xlink:href="#path-17"></use>
                        <use stroke="url(#linearGradient-16)" stroke-width="8" xlink:href="#path-17"></use>
                    </g>
                    <g id="路径-3" stroke-linecap="round">
                        <use fill="black" fill-opacity="1" filter="url(#filter-21)" xlink:href="#path-20"></use>
                        <use stroke="url(#linearGradient-19)" stroke-width="12" xlink:href="#path-20"></use>
                    </g>
                    <circle id="椭圆形" stroke="url(#linearGradient-22)" stroke-width="8" cx="29" cy="25" r="25"></circle>
                </g>
            </g>
        </g>
    </g>
</svg>