<?xml version="1.0" encoding="UTF-8"?>
<svg width="512px" height="320px" viewBox="0 0 512 320" version="1.1" xmlns="http://www.w3.org/2000/svg" xmlns:xlink="http://www.w3.org/1999/xlink">
    <title>空白页/无消息</title>
    <defs>
        <radialGradient cx="50%" cy="-13.7511502%" fx="50%" fy="-13.7511502%" r="119.117172%" gradientTransform="translate(0.500000,-0.137512),scale(0.272253,1.000000),rotate(90.000000),scale(1.000000,1.744156),translate(-0.500000,0.137512)" id="radialGradient-1">
            <stop stop-color="#A1C0F8" offset="0%"></stop>
            <stop stop-color="#FFFFFF" stop-opacity="0" offset="93.6150342%"></stop>
            <stop stop-color="#FFFFFF" stop-opacity="0" offset="100%"></stop>
        </radialGradient>
        <linearGradient x1="50%" y1="0%" x2="50%" y2="100%" id="linearGradient-2">
            <stop stop-color="#E2ECFF" offset="0%"></stop>
            <stop stop-color="#E2ECFF" stop-opacity="0" offset="100%"></stop>
        </linearGradient>
        <linearGradient x1="50%" y1="0%" x2="50%" y2="100%" id="linearGradient-3">
            <stop stop-color="#E2ECFF" offset="0%"></stop>
            <stop stop-color="#E2ECFF" stop-opacity="0" offset="100%"></stop>
        </linearGradient>
        <linearGradient x1="50%" y1="0%" x2="50%" y2="100%" id="linearGradient-4">
            <stop stop-color="#4288E4" offset="0%"></stop>
            <stop stop-color="#1F50C4" offset="100%"></stop>
        </linearGradient>
        <linearGradient x1="50%" y1="0%" x2="50%" y2="100%" id="linearGradient-5">
            <stop stop-color="#BFDAFE" offset="0%"></stop>
            <stop stop-color="#5380DC" offset="100%"></stop>
        </linearGradient>
        <linearGradient x1="50%" y1="0%" x2="50%" y2="100%" id="linearGradient-6">
            <stop stop-color="#4288E4" offset="0%"></stop>
            <stop stop-color="#1F50C4" offset="100%"></stop>
        </linearGradient>
        <linearGradient x1="50%" y1="0%" x2="50%" y2="100%" id="linearGradient-7">
            <stop stop-color="#BFDAFE" offset="0%"></stop>
            <stop stop-color="#5380DC" offset="100%"></stop>
        </linearGradient>
        <linearGradient x1="50%" y1="5.38993969%" x2="50%" y2="108.021519%" id="linearGradient-8">
            <stop stop-color="#BAD0FF" offset="0%"></stop>
            <stop stop-color="#0336A1" offset="100%"></stop>
        </linearGradient>
        <linearGradient x1="50%" y1="5.38993969%" x2="50%" y2="108.021519%" id="linearGradient-9">
            <stop stop-color="#7AA0E8" offset="0%"></stop>
            <stop stop-color="#4278EC" offset="100%"></stop>
        </linearGradient>
        <path d="M36.36,35.36 C40.380633,35.36 43.64,38.619367 43.64,42.64 C43.64,46.660633 40.380633,49.92 36.36,49.92 C32.339367,49.92 29.08,46.660633 29.08,42.64 C29.08,38.619367 32.339367,35.36 36.36,35.36 Z M61.32,35.36 C65.340633,35.36 68.6,38.619367 68.6,42.64 C68.6,46.660633 65.340633,49.92 61.32,49.92 C57.299367,49.92 54.04,46.660633 54.04,42.64 C54.04,38.619367 57.299367,35.36 61.32,35.36 Z M86.28,35.36 C90.300633,35.36 93.56,38.619367 93.56,42.64 C93.56,46.660633 90.300633,49.92 86.28,49.92 C82.259367,49.92 79,46.660633 79,42.64 C79,38.619367 82.259367,35.36 86.28,35.36 Z" id="path-10"></path>
        <filter x="-17.1%" y="-68.7%" width="134.1%" height="251.1%" filterUnits="objectBoundingBox" id="filter-11">
            <feOffset dx="0" dy="1" in="SourceAlpha" result="shadowOffsetOuter1"></feOffset>
            <feGaussianBlur stdDeviation="3.5" in="shadowOffsetOuter1" result="shadowBlurOuter1"></feGaussianBlur>
            <feColorMatrix values="0 0 0 0 0   0 0 0 0 0   0 0 0 0 0  0 0 0 0.1 0" type="matrix" in="shadowBlurOuter1"></feColorMatrix>
        </filter>
        <path d="M85.9484663,53.0674847 L142.959509,53.0674847 C152.262288,53.0674847 159.803681,60.6088772 159.803681,69.9116564 L159.803681,101.008589 C159.803681,110.311368 152.262288,117.852761 142.959509,117.852761 L85.9484663,117.852761 C76.6456871,117.852761 69.1042945,110.311368 69.1042945,101.008589 L69.1042945,69.9116564 C69.1042945,60.6088772 76.6456871,53.0674847 85.9484663,53.0674847 Z" id="path-12"></path>
        <filter x="-41.3%" y="-44.0%" width="182.7%" height="215.8%" filterUnits="objectBoundingBox" id="filter-13">
            <feOffset dx="0" dy="9" in="SourceAlpha" result="shadowOffsetOuter1"></feOffset>
            <feGaussianBlur stdDeviation="11" in="shadowOffsetOuter1" result="shadowBlurOuter1"></feGaussianBlur>
            <feColorMatrix values="0 0 0 0 0   0 0 0 0 0   0 0 0 0 0  0 0 0 0.15 0" type="matrix" in="shadowBlurOuter1"></feColorMatrix>
        </filter>
        <linearGradient x1="50%" y1="5.38993969%" x2="50%" y2="108.021519%" id="linearGradient-14">
            <stop stop-color="#BFD4FF" offset="0%"></stop>
            <stop stop-color="#04318F" offset="100%"></stop>
        </linearGradient>
        <linearGradient x1="50%" y1="0%" x2="50%" y2="100%" id="linearGradient-15">
            <stop stop-color="#A1BDF4" offset="0%"></stop>
            <stop stop-color="#6A93DA" offset="100%"></stop>
        </linearGradient>
        <linearGradient x1="50%" y1="0%" x2="50%" y2="100%" id="linearGradient-16">
            <stop stop-color="#6F91D7" offset="0%"></stop>
            <stop stop-color="#315AB0" offset="100%"></stop>
        </linearGradient>
        <path d="M45.1104294,46.1288344 C50.5370506,46.1288344 54.9361963,50.52798 54.9361963,55.9546012 C54.9361963,61.3812224 50.5370506,65.7803681 45.1104294,65.7803681 C39.6838082,65.7803681 35.2846626,61.3812224 35.2846626,55.9546012 C35.2846626,50.52798 39.6838082,46.1288344 45.1104294,46.1288344 Z M78.798773,46.1288344 C84.2253942,46.1288344 88.6245399,50.52798 88.6245399,55.9546012 C88.6245399,61.3812224 84.2253942,65.7803681 78.798773,65.7803681 C73.3721518,65.7803681 68.9730061,61.3812224 68.9730061,55.9546012 C68.9730061,50.52798 73.3721518,46.1288344 78.798773,46.1288344 Z M112.487117,46.1288344 C117.913738,46.1288344 122.312883,50.52798 122.312883,55.9546012 C122.312883,61.3812224 117.913738,65.7803681 112.487117,65.7803681 C107.060495,65.7803681 102.66135,61.3812224 102.66135,55.9546012 C102.66135,50.52798 107.060495,46.1288344 112.487117,46.1288344 Z" id="path-17"></path>
        <filter x="-23.0%" y="-50.9%" width="146.0%" height="303.5%" filterUnits="objectBoundingBox" id="filter-18">
            <feOffset dx="0" dy="10" in="SourceAlpha" result="shadowOffsetOuter1"></feOffset>
            <feGaussianBlur stdDeviation="5" in="shadowOffsetOuter1" result="shadowBlurOuter1"></feGaussianBlur>
            <feColorMatrix values="0 0 0 0 0   0 0 0 0 0   0 0 0 0 0  0 0 0 0.08 0" type="matrix" in="shadowBlurOuter1"></feColorMatrix>
        </filter>
        <linearGradient x1="50%" y1="0%" x2="50%" y2="100%" id="linearGradient-19">
            <stop stop-color="#FFFFFF" offset="0%"></stop>
            <stop stop-color="#CDDDF5" offset="100%"></stop>
        </linearGradient>
    </defs>
    <g id="空白页/无消息" stroke="none" stroke-width="1" fill="none" fill-rule="evenodd">
        <g id="空白页/无数据">
            <path d="M256.201945,137 C397.12516,137 521.027416,209.875387 592.278607,319.996056 L-79.8747164,319.996056 C-8.62352509,209.875387 115.278731,137 256.201945,137 Z" id="形状结合" fill="url(#radialGradient-1)"></path>
            <g id="cloud" transform="translate(22.000000, 13.000000)">
                <path d="M343,78 L342.999989,77.6195045 C333.315117,75.751781 326,67.230159 326,57 C326,45.4020203 335.40202,36 347,36 C349.856571,36 352.579929,36.5703569 355.062405,37.6034027 C355.020618,36.9075003 355,36.2061579 355,35.5 C355,15.8938914 370.893891,0 390.5,0 C408.142352,0 422.778881,12.8694627 425.533893,29.7326958 C427.443118,29.2537654 429.441924,29 431.5,29 C445.030976,29 456,39.9690236 456,53.5 C456,65.8422576 446.873612,76.0529331 435.001137,77.7517263 L435,78 L343,78 Z" id="形状结合" fill="url(#linearGradient-2)"></path>
                <path d="M13.6,102 L13.6005987,101.697671 C5.8523994,100.213308 0,93.4395698 0,85.3076923 C0,76.0887853 7.5216162,68.6153846 16.8,68.6153846 C19.0856169,68.6153846 21.2646291,69.068888 23.2508616,69.8902721 C23.2165066,69.3371373 23.2,68.7794583 23.2,68.2179487 C23.2,52.633606 35.9151131,40 51.6,40 C65.7139309,40 77.4231859,50.229644 79.627137,63.6338209 C81.1548413,63.2529493 82.7537178,63.0512821 84.4,63.0512821 C95.2247811,63.0512821 104,71.7702496 104,82.525641 C104,92.3362975 96.6986755,100.45257 87.2004915,101.802714 L87.2,102 L13.6,102 Z" id="形状结合备份" fill="url(#linearGradient-3)"></path>
            </g>
            <g id="编组" transform="translate(66.000000, 133.000000)">
                <g id="tree" transform="translate(38.000000, 0.000000)">
                    <path d="M9.5,28.1481481 C10.4716121,28.1481481 11.2592593,28.9357953 11.2592593,29.9074074 L11.2592593,36.9444444 C11.2592593,37.9160565 10.4716121,38.7037037 9.5,38.7037037 C8.52838794,38.7037037 7.74074074,37.9160565 7.74074074,36.9444444 L7.74074074,29.9074074 C7.74074074,28.9357953 8.52838794,28.1481481 9.5,28.1481481 Z" id="矩形" fill="url(#linearGradient-4)"></path>
                    <path d="M9.37664258,0.703703704 C14.4222439,0.703703704 20.831195,20.5926958 18.5102602,25.978017 C16.1893255,31.3633381 3.34150101,32.00046 0.64111084,25.978017 C-2.05927933,19.9555739 4.33104127,0.703703704 9.37664258,0.703703704 Z" id="矩形" fill="url(#linearGradient-5)"></path>
                </g>
                <g id="tree" transform="translate(333.000000, 14.000000)">
                    <path d="M13.381875,39.65 C14.7505056,39.65 15.86,40.7594944 15.86,42.128125 L15.86,52.040625 C15.86,53.4092556 14.7505056,54.51875 13.381875,54.51875 C12.0132444,54.51875 10.90375,53.4092556 10.90375,52.040625 L10.90375,42.128125 C10.90375,40.7594944 12.0132444,39.65 13.381875,39.65 Z" id="矩形" fill="url(#linearGradient-6)"></path>
                    <path d="M13.2081115,0.99125 C20.3154384,0.99125 29.3432049,29.0072506 26.0738935,36.5931132 C22.8045821,44.1789758 4.70689988,45.0764374 0.903080539,36.5931132 C-2.9007388,28.109789 6.10078451,0.99125 13.2081115,0.99125 Z" id="矩形" fill="url(#linearGradient-7)"></path>
                </g>
                <g id="tree备份" transform="translate(1.000000, 28.000000)">
                    <path d="M13.381875,39.65 C14.7505056,39.65 15.86,40.7594944 15.86,42.128125 L15.86,52.040625 C15.86,53.4092556 14.7505056,54.51875 13.381875,54.51875 C12.0132444,54.51875 10.90375,53.4092556 10.90375,52.040625 L10.90375,42.128125 C10.90375,40.7594944 12.0132444,39.65 13.381875,39.65 Z" id="矩形" fill="url(#linearGradient-6)"></path>
                    <path d="M13.2081115,0.99125 C20.3154384,0.99125 29.3432049,29.0072506 26.0738935,36.5931132 C22.8045821,44.1789758 4.70689988,45.0764374 0.903080539,36.5931132 C-2.9007388,28.109789 6.10078451,0.99125 13.2081115,0.99125 Z" id="矩形" fill="url(#linearGradient-7)"></path>
                </g>
            </g>
            <g id="编组-5" transform="translate(166.000000, 60.000000)">
                <g id="编组-3" transform="translate(121.900000, 97.500000) scale(-1, 1) translate(-121.900000, -97.500000) translate(62.900000, 48.500000)">
                    <path d="M101.88,0 C108.772514,4.85564768e-15 114.36,5.58748632 114.36,12.48 L114.36,72.9010808 C114.36,79.7382514 108.858607,85.3025463 102.021878,85.3802743 L35.203,86.139 L23.1377148,97.7267794 L19.7726605,97.7472622 C18.6239295,97.7542544 17.6870308,96.8286922 17.6800385,95.6799612 L17.68,86.225 L11.7851081,85.8972196 C5.17284099,85.5284736 -2.7416863e-15,80.0591216 0,73.4365805 L0,12.48 C-8.44089481e-16,5.58748632 5.58748632,1.26613422e-15 12.48,0 L101.88,0 Z" id="形状结合" fill="url(#linearGradient-8)"></path>
                    <path d="M105,3.12 C111.892514,3.12 117.48,8.70748632 117.48,15.6 L117.48,73.84 C117.48,80.7325137 111.892514,86.32 105,86.32 L39.589,86.32 L25.1385732,97.3026844 C24.2239801,97.9977752 22.9190734,97.8198333 22.2239826,96.9052402 C21.9489217,96.5433179 21.8,96.1012506 21.8,95.646667 L21.8,86.32 L17.64,86.32 C10.7474863,86.32 5.16,80.7325137 5.16,73.84 L5.16,15.6 C5.16,8.70748632 10.7474863,3.12 17.64,3.12 L105,3.12 Z" id="形状结合" fill="url(#linearGradient-9)"></path>
                    <g id="形状结合">
                        <use fill="black" fill-opacity="1" filter="url(#filter-11)" xlink:href="#path-10"></use>
                        <use fill="#F6FAFF" fill-rule="evenodd" xlink:href="#path-10"></use>
                    </g>
                </g>
                <g id="编组-3">
                    <g id="形状结合" fill="black" fill-opacity="1">
                        <use filter="url(#filter-13)" xlink:href="#path-12"></use>
                    </g>
                    <path d="M141.368098,7.10542736e-14 C150.670877,8.58704362e-14 158.21227,7.54139258 158.21227,16.8441718 L158.21227,96.8539877 C158.21227,106.156767 150.670877,113.69816 141.368098,113.69816 L48.4510429,113.698 L31.5796693,126.521414 C30.3452492,127.459574 28.5840255,127.219407 27.6458661,125.984987 C27.2746183,125.496503 27.0736196,124.899847 27.0736196,124.286299 L27.0730429,113.698 L20.0552147,113.69816 C10.7524355,113.69816 3.21104294,106.156767 3.21104294,96.8539877 L3.21104294,16.8441718 C3.21104294,7.54139258 10.7524355,7.27631664e-14 20.0552147,7.10542736e-14 L141.368098,7.10542736e-14 Z" id="形状结合" fill="url(#linearGradient-14)"></path>
                    <path d="M134.753374,6.61472393 C144.056153,6.61472393 151.597546,14.1561165 151.597546,23.4588957 L151.597546,99.0650307 C151.597546,108.36781 144.056153,115.909202 134.753374,115.909202 L46.469,115.908724 L26.9649454,130.732457 C25.7305252,131.670617 23.9693015,131.43045 23.0311422,130.19603 C22.6598943,129.707546 22.4588957,129.11089 22.4588957,128.497342 L22.458,115.908724 L16.8441718,115.909202 C7.54139258,115.909202 1.13926188e-15,108.36781 0,99.0650307 L0,23.4588957 C-1.13926188e-15,14.1561165 7.54139258,6.61472393 16.8441718,6.61472393 L134.753374,6.61472393 Z" id="形状结合" fill="url(#linearGradient-15)"></path>
                    <g id="形状结合">
                        <use fill="black" fill-opacity="1" filter="url(#filter-18)" xlink:href="#path-17"></use>
                        <use fill="url(#linearGradient-16)" fill-rule="evenodd" xlink:href="#path-17"></use>
                    </g>
                    <path d="M42.1104294,48.1288344 C47.5370506,48.1288344 51.9361963,52.52798 51.9361963,57.9546012 C51.9361963,63.3812224 47.5370506,67.7803681 42.1104294,67.7803681 C36.6838082,67.7803681 32.2846626,63.3812224 32.2846626,57.9546012 C32.2846626,52.52798 36.6838082,48.1288344 42.1104294,48.1288344 Z M75.798773,48.1288344 C81.2253942,48.1288344 85.6245399,52.52798 85.6245399,57.9546012 C85.6245399,63.3812224 81.2253942,67.7803681 75.798773,67.7803681 C70.3721518,67.7803681 65.9730061,63.3812224 65.9730061,57.9546012 C65.9730061,52.52798 70.3721518,48.1288344 75.798773,48.1288344 Z M109.487117,48.1288344 C114.913738,48.1288344 119.312883,52.52798 119.312883,57.9546012 C119.312883,63.3812224 114.913738,67.7803681 109.487117,67.7803681 C104.060495,67.7803681 99.6613497,63.3812224 99.6613497,57.9546012 C99.6613497,52.52798 104.060495,48.1288344 109.487117,48.1288344 Z" id="形状结合" fill="url(#linearGradient-19)"></path>
                </g>
            </g>
        </g>
    </g>
</svg>