<?xml version="1.0" encoding="UTF-8"?>
<svg width="512px" height="320px" viewBox="0 0 512 320" version="1.1" xmlns="http://www.w3.org/2000/svg" xmlns:xlink="http://www.w3.org/1999/xlink">
    <title>空白页/无设备</title>
    <defs>
        <radialGradient cx="50%" cy="-13.7511502%" fx="50%" fy="-13.7511502%" r="119.117172%" gradientTransform="translate(0.500000,-0.137512),scale(0.272253,1.000000),rotate(90.000000),scale(1.000000,1.744156),translate(-0.500000,0.137512)" id="radialGradient-1">
            <stop stop-color="#A1C0F8" offset="0%"></stop>
            <stop stop-color="#FFFFFF" stop-opacity="0" offset="93.6150342%"></stop>
            <stop stop-color="#FFFFFF" stop-opacity="0" offset="100%"></stop>
        </radialGradient>
        <linearGradient x1="50%" y1="0%" x2="50%" y2="100%" id="linearGradient-2">
            <stop stop-color="#E2ECFF" offset="0%"></stop>
            <stop stop-color="#E2ECFF" stop-opacity="0" offset="100%"></stop>
        </linearGradient>
        <linearGradient x1="50%" y1="0%" x2="50%" y2="100%" id="linearGradient-3">
            <stop stop-color="#E2ECFF" offset="0%"></stop>
            <stop stop-color="#E2ECFF" stop-opacity="0" offset="100%"></stop>
        </linearGradient>
        <linearGradient x1="50%" y1="0%" x2="50%" y2="100%" id="linearGradient-4">
            <stop stop-color="#4288E4" offset="0%"></stop>
            <stop stop-color="#1F50C4" offset="100%"></stop>
        </linearGradient>
        <linearGradient x1="50%" y1="0%" x2="50%" y2="100%" id="linearGradient-5">
            <stop stop-color="#BFDAFE" offset="0%"></stop>
            <stop stop-color="#5380DC" offset="100%"></stop>
        </linearGradient>
        <linearGradient x1="50%" y1="0%" x2="50%" y2="100%" id="linearGradient-6">
            <stop stop-color="#4288E4" offset="0%"></stop>
            <stop stop-color="#1F50C4" offset="100%"></stop>
        </linearGradient>
        <linearGradient x1="50%" y1="0%" x2="50%" y2="100%" id="linearGradient-7">
            <stop stop-color="#BFDAFE" offset="0%"></stop>
            <stop stop-color="#5380DC" offset="100%"></stop>
        </linearGradient>
        <linearGradient x1="50%" y1="0%" x2="50%" y2="100%" id="linearGradient-8">
            <stop stop-color="#4288E4" offset="0%"></stop>
            <stop stop-color="#1F50C4" offset="100%"></stop>
        </linearGradient>
        <linearGradient x1="50%" y1="5.38993969%" x2="50%" y2="108.021519%" id="linearGradient-9">
            <stop stop-color="#BDD2FE" offset="0%"></stop>
            <stop stop-color="#093798" offset="100%"></stop>
        </linearGradient>
        <linearGradient x1="50%" y1="0%" x2="50%" y2="100%" id="linearGradient-10">
            <stop stop-color="#A1BDF4" offset="0%"></stop>
            <stop stop-color="#6A93DA" offset="100%"></stop>
        </linearGradient>
        <linearGradient x1="50%" y1="0%" x2="50%" y2="100%" id="linearGradient-11">
            <stop stop-color="#A1BDF4" offset="0%"></stop>
            <stop stop-color="#6A93DA" offset="100%"></stop>
        </linearGradient>
        <linearGradient x1="50%" y1="0%" x2="50%" y2="100%" id="linearGradient-12">
            <stop stop-color="#FFFFFF" offset="0%"></stop>
            <stop stop-color="#CDDDF5" offset="100%"></stop>
        </linearGradient>
        <circle id="path-13" cx="34" cy="38" r="26"></circle>
        <filter x="-22.1%" y="-26.0%" width="159.6%" height="159.6%" filterUnits="objectBoundingBox" id="filter-14">
            <feOffset dx="4" dy="2" in="SourceAlpha" result="shadowOffsetOuter1"></feOffset>
            <feGaussianBlur stdDeviation="4.5" in="shadowOffsetOuter1" result="shadowBlurOuter1"></feGaussianBlur>
            <feColorMatrix values="0 0 0 0 0   0 0 0 0 0   0 0 0 0 0  0 0 0 0.1 0" type="matrix" in="shadowBlurOuter1"></feColorMatrix>
        </filter>
        <linearGradient x1="50%" y1="0%" x2="50%" y2="100%" id="linearGradient-15">
            <stop stop-color="#A1BDF4" offset="0%"></stop>
            <stop stop-color="#6A93DA" offset="100%"></stop>
        </linearGradient>
        <linearGradient x1="50%" y1="0%" x2="50%" y2="100%" id="linearGradient-16">
            <stop stop-color="#A1BDF4" offset="0%"></stop>
            <stop stop-color="#6A93DA" offset="100%"></stop>
        </linearGradient>
        <path d="M41.8,39.7 L122.1,39.7 C126.960106,39.7 130.9,43.6398942 130.9,48.5 L130.9,149.7 C130.9,154.560106 126.960106,158.5 122.1,158.5 L41.8,158.5 C36.9398942,158.5 33,154.560106 33,149.7 L33,48.5 C33,43.6398942 36.9398942,39.7 41.8,39.7 Z" id="path-17"></path>
        <filter x="-30.1%" y="-29.0%" width="174.6%" height="161.4%" filterUnits="objectBoundingBox" id="filter-18">
            <feOffset dx="7" dy="2" in="SourceAlpha" result="shadowOffsetOuter1"></feOffset>
            <feGaussianBlur stdDeviation="11" in="shadowOffsetOuter1" result="shadowBlurOuter1"></feGaussianBlur>
            <feColorMatrix values="0 0 0 0 0   0 0 0 0 0   0 0 0 0 0  0 0 0 0.2 0" type="matrix" in="shadowBlurOuter1"></feColorMatrix>
        </filter>
        <linearGradient x1="50%" y1="5.38993969%" x2="50%" y2="108.021519%" id="linearGradient-19">
            <stop stop-color="#BFD4FF" offset="0%"></stop>
            <stop stop-color="#0A41B3" offset="100%"></stop>
        </linearGradient>
        <linearGradient x1="50%" y1="0%" x2="50%" y2="100%" id="linearGradient-20">
            <stop stop-color="#A1BDF4" offset="0%"></stop>
            <stop stop-color="#6A93DA" offset="100%"></stop>
        </linearGradient>
        <linearGradient x1="50%" y1="0%" x2="50%" y2="100%" id="linearGradient-21">
            <stop stop-color="#FFFFFF" offset="0%"></stop>
            <stop stop-color="#CDDDF5" offset="100%"></stop>
        </linearGradient>
        <circle id="path-22" cx="15.8" cy="16.2" r="15.5"></circle>
        <filter x="-22.6%" y="-29.0%" width="171.0%" height="171.0%" filterUnits="objectBoundingBox" id="filter-23">
            <feOffset dx="4" dy="2" in="SourceAlpha" result="shadowOffsetOuter1"></feOffset>
            <feGaussianBlur stdDeviation="3" in="shadowOffsetOuter1" result="shadowBlurOuter1"></feGaussianBlur>
            <feColorMatrix values="0 0 0 0 0   0 0 0 0 0   0 0 0 0 0  0 0 0 0.1 0" type="matrix" in="shadowBlurOuter1"></feColorMatrix>
        </filter>
        <linearGradient x1="50%" y1="0%" x2="50%" y2="100%" id="linearGradient-24">
            <stop stop-color="#A1BDF4" offset="0%"></stop>
            <stop stop-color="#6A93DA" offset="100%"></stop>
        </linearGradient>
        <linearGradient x1="50%" y1="5.38993969%" x2="50%" y2="108.021519%" id="linearGradient-25">
            <stop stop-color="#BDD2FE" offset="0%"></stop>
            <stop stop-color="#093798" offset="100%"></stop>
        </linearGradient>
        <circle id="path-26" cx="40.7333333" cy="36.4" r="36.4"></circle>
        <filter x="-11.0%" y="-15.1%" width="144.0%" height="144.0%" filterUnits="objectBoundingBox" id="filter-27">
            <feOffset dx="8" dy="5" in="SourceAlpha" result="shadowOffsetOuter1"></feOffset>
            <feGaussianBlur stdDeviation="4" in="shadowOffsetOuter1" result="shadowBlurOuter1"></feGaussianBlur>
            <feColorMatrix values="0 0 0 0 0   0 0 0 0 0   0 0 0 0 0  0 0 0 0.13 0" type="matrix" in="shadowBlurOuter1"></feColorMatrix>
        </filter>
        <circle id="path-28" cx="36" cy="37" r="21"></circle>
        <filter x="-13.1%" y="-17.9%" width="145.2%" height="145.2%" filterUnits="objectBoundingBox" id="filter-29">
            <feOffset dx="4" dy="2" in="SourceAlpha" result="shadowOffsetOuter1"></feOffset>
            <feGaussianBlur stdDeviation="2.5" in="shadowOffsetOuter1" result="shadowBlurOuter1"></feGaussianBlur>
            <feColorMatrix values="0 0 0 0 0   0 0 0 0 0   0 0 0 0 0  0 0 0 0.1 0" type="matrix" in="shadowBlurOuter1"></feColorMatrix>
        </filter>
        <linearGradient x1="50%" y1="0%" x2="50%" y2="100%" id="linearGradient-30">
            <stop stop-color="#A1BDF4" offset="0%"></stop>
            <stop stop-color="#6A93DA" offset="100%"></stop>
        </linearGradient>
    </defs>
    <g id="空白页/无设备" stroke="none" stroke-width="1" fill="none" fill-rule="evenodd">
        <g id="空白页/无数据">
            <path d="M256.201945,137 C397.12516,137 521.027416,209.875387 592.278607,319.996056 L-79.8747164,319.996056 C-8.62352509,209.875387 115.278731,137 256.201945,137 Z" id="形状结合" fill="url(#radialGradient-1)"></path>
            <g id="cloud" transform="translate(22.000000, 13.000000)">
                <path d="M343,78 L342.999989,77.6195045 C333.315117,75.751781 326,67.230159 326,57 C326,45.4020203 335.40202,36 347,36 C349.856571,36 352.579929,36.5703569 355.062405,37.6034027 C355.020618,36.9075003 355,36.2061579 355,35.5 C355,15.8938914 370.893891,0 390.5,0 C408.142352,0 422.778881,12.8694627 425.533893,29.7326958 C427.443118,29.2537654 429.441924,29 431.5,29 C445.030976,29 456,39.9690236 456,53.5 C456,65.8422576 446.873612,76.0529331 435.001137,77.7517263 L435,78 L343,78 Z" id="形状结合" fill="url(#linearGradient-2)"></path>
                <path d="M13.6,102 L13.6005987,101.697671 C5.8523994,100.213308 0,93.4395698 0,85.3076923 C0,76.0887853 7.5216162,68.6153846 16.8,68.6153846 C19.0856169,68.6153846 21.2646291,69.068888 23.2508616,69.8902721 C23.2165066,69.3371373 23.2,68.7794583 23.2,68.2179487 C23.2,52.633606 35.9151131,40 51.6,40 C65.7139309,40 77.4231859,50.229644 79.627137,63.6338209 C81.1548413,63.2529493 82.7537178,63.0512821 84.4,63.0512821 C95.2247811,63.0512821 104,71.7702496 104,82.525641 C104,92.3362975 96.6986755,100.45257 87.2004915,101.802714 L87.2,102 L13.6,102 Z" id="形状结合备份" fill="url(#linearGradient-3)"></path>
            </g>
            <g id="编组" transform="translate(66.000000, 133.000000)">
                <g id="tree" transform="translate(38.000000, 0.000000)">
                    <path d="M9.5,28.1481481 C10.4716121,28.1481481 11.2592593,28.9357953 11.2592593,29.9074074 L11.2592593,36.9444444 C11.2592593,37.9160565 10.4716121,38.7037037 9.5,38.7037037 C8.52838794,38.7037037 7.74074074,37.9160565 7.74074074,36.9444444 L7.74074074,29.9074074 C7.74074074,28.9357953 8.52838794,28.1481481 9.5,28.1481481 Z" id="矩形" fill="url(#linearGradient-4)"></path>
                    <path d="M9.37664258,0.703703704 C14.4222439,0.703703704 20.831195,20.5926958 18.5102602,25.978017 C16.1893255,31.3633381 3.34150101,32.00046 0.64111084,25.978017 C-2.05927933,19.9555739 4.33104127,0.703703704 9.37664258,0.703703704 Z" id="矩形" fill="url(#linearGradient-5)"></path>
                </g>
                <g id="tree" transform="translate(333.000000, 14.000000)">
                    <path d="M13.381875,39.65 C14.7505056,39.65 15.86,40.7594944 15.86,42.128125 L15.86,52.040625 C15.86,53.4092556 14.7505056,54.51875 13.381875,54.51875 C12.0132444,54.51875 10.90375,53.4092556 10.90375,52.040625 L10.90375,42.128125 C10.90375,40.7594944 12.0132444,39.65 13.381875,39.65 Z" id="矩形" fill="url(#linearGradient-6)"></path>
                    <path d="M13.2081115,0.99125 C20.3154384,0.99125 29.3432049,29.0072506 26.0738935,36.5931132 C22.8045821,44.1789758 4.70689988,45.0764374 0.903080539,36.5931132 C-2.9007388,28.109789 6.10078451,0.99125 13.2081115,0.99125 Z" id="矩形" fill="url(#linearGradient-7)"></path>
                </g>
                <g id="tree备份" transform="translate(1.000000, 28.000000)">
                    <path d="M13.381875,39.65 C14.7505056,39.65 15.86,40.7594944 15.86,42.128125 L15.86,52.040625 C15.86,53.4092556 14.7505056,54.51875 13.381875,54.51875 C12.0132444,54.51875 10.90375,53.4092556 10.90375,52.040625 L10.90375,42.128125 C10.90375,40.7594944 12.0132444,39.65 13.381875,39.65 Z" id="矩形" fill="url(#linearGradient-6)"></path>
                    <path d="M13.2081115,0.99125 C20.3154384,0.99125 29.3432049,29.0072506 26.0738935,36.5931132 C22.8045821,44.1789758 4.70689988,45.0764374 0.903080539,36.5931132 C-2.9007388,28.109789 6.10078451,0.99125 13.2081115,0.99125 Z" id="矩形" fill="url(#linearGradient-7)"></path>
                </g>
            </g>
            <g id="编组-5" transform="translate(276.000000, 90.000000)">
                <rect id="矩形" fill="url(#linearGradient-8)" x="21" y="98" width="27" height="16"></rect>
                <path d="M38,0 C56.7776815,-3.44940413e-15 72,15.2223185 72,34 L72,68 C72,86.7776815 56.7776815,102 38,102 C19.2223185,102 4,86.7776815 4,68 L4,34 C4,15.2223185 19.2223185,3.44940413e-15 38,0 Z" id="矩形" fill="url(#linearGradient-9)"></path>
                <rect id="矩形" fill="url(#linearGradient-10)" x="0" y="4" width="68" height="100" rx="34"></rect>
                <path d="M35.5622522,112.00067 C54.0806056,112.044824 69,114.26619 69,117 C69,117.342741 68.7381118,117.677428 68.2468402,118.00078 L1.75315975,118.00078 C1.26188824,117.677428 1,117.342741 1,117 C1,114.238576 16.2223185,112 35,112 Z" id="形状结合" fill="url(#linearGradient-11)"></path>
                <g id="椭圆形">
                    <use fill="black" fill-opacity="1" filter="url(#filter-14)" xlink:href="#path-13"></use>
                    <use fill="url(#linearGradient-12)" fill-rule="evenodd" xlink:href="#path-13"></use>
                </g>
                <circle id="椭圆形" fill="url(#linearGradient-15)" cx="34" cy="38" r="12"></circle>
            </g>
            <g id="编组-2" transform="translate(175.000000, 42.000000)">
                <g id="矩形">
                    <use fill="black" fill-opacity="1" filter="url(#filter-18)" xlink:href="#path-17"></use>
                    <use fill="url(#linearGradient-16)" fill-rule="evenodd" xlink:href="#path-17"></use>
                </g>
                <path d="M23.1,0 L113.3,0 C123.020212,-1.7855739e-15 130.9,7.8797884 130.9,17.6 L130.9,150.8 C130.9,160.520212 123.020212,168.4 113.3,168.4 L23.1,168.4 C13.3797884,168.4 5.5,160.520212 5.5,150.8 L5.5,17.6 C5.5,7.8797884 13.3797884,8.89100126e-15 23.1,0 Z" id="矩形" fill="url(#linearGradient-19)"></path>
                <path d="M17.6,5.5 L107.8,5.5 C117.520212,5.5 125.4,13.3797884 125.4,23.1 L125.4,154.1 C125.4,163.820212 117.520212,171.7 107.8,171.7 L17.6,171.7 C7.8797884,171.7 4.74309628e-15,163.820212 0,154.1 L0,23.1 C2.36233108e-15,13.3797884 7.8797884,5.5 17.6,5.5 Z" id="矩形" fill="url(#linearGradient-20)"></path>
                <path d="M24.75,102.5 C26.8762963,102.5 28.6,104.223704 28.6,106.35 C28.6,108.476296 26.8762963,110.2 24.75,110.2 C22.6237037,110.2 20.9,108.476296 20.9,106.35 C20.9,104.223704 22.6237037,102.5 24.75,102.5 Z M41.25,102.5 C43.3762963,102.5 45.1,104.223704 45.1,106.35 C45.1,108.476296 43.3762963,110.2 41.25,110.2 C39.1237037,110.2 37.4,108.476296 37.4,106.35 C37.4,104.223704 39.1237037,102.5 41.25,102.5 Z M57.75,102.5 C59.8762963,102.5 61.6,104.223704 61.6,106.35 C61.6,108.476296 59.8762963,110.2 57.75,110.2 C55.6237037,110.2 53.9,108.476296 53.9,106.35 C53.9,104.223704 55.6237037,102.5 57.75,102.5 Z M74.25,102.5 C76.3762963,102.5 78.1,104.223704 78.1,106.35 C78.1,108.476296 76.3762963,110.2 74.25,110.2 C72.1237037,110.2 70.4,108.476296 70.4,106.35 C70.4,104.223704 72.1237037,102.5 74.25,102.5 Z M90.75,102.5 C92.8762963,102.5 94.6,104.223704 94.6,106.35 C94.6,108.476296 92.8762963,110.2 90.75,110.2 C88.6237037,110.2 86.9,108.476296 86.9,106.35 C86.9,104.223704 88.6237037,102.5 90.75,102.5 Z M107.25,102.5 C109.376296,102.5 111.1,104.223704 111.1,106.35 C111.1,108.476296 109.376296,110.2 107.25,110.2 C105.123704,110.2 103.4,108.476296 103.4,106.35 C103.4,104.223704 105.123704,102.5 107.25,102.5 Z" id="形状结合" fill="url(#linearGradient-21)"></path>
                <g id="编组-7" transform="translate(14.000000, 14.000000)">
                    <g id="椭圆形备份-4">
                        <use fill="black" fill-opacity="1" filter="url(#filter-23)" xlink:href="#path-22"></use>
                        <use fill="url(#linearGradient-12)" fill-rule="evenodd" xlink:href="#path-22"></use>
                    </g>
                    <path d="M11.8751036,9.94169527 C12.2978297,10.4446772 12.2508157,11.2109809 11.770095,11.6532825 C10.4132957,12.9016466 9.61818182,14.7123832 9.61818182,16.6652212 C9.61818182,20.3203013 12.3906485,23.2744681 15.8,23.2744681 C19.2093515,23.2744681 21.9818182,20.3203013 21.9818182,16.6652212 C21.9818182,14.7178795 21.1912124,12.9117467 19.8410002,11.6635153 C19.361279,11.2200271 19.3159947,10.4536094 19.7398547,9.95167337 C20.1637148,9.44973732 20.8962121,9.40235592 21.3759333,9.84584404 C23.2204772,11.5510707 24.3,14.0172321 24.3,16.6652212 C24.3,21.6500979 20.4991928,25.7 15.8,25.7 C11.1008072,25.7 7.3,21.6500979 7.3,16.6652212 C7.3,14.0097271 8.38568128,11.5372727 10.2392685,9.83182389 C10.7199892,9.38952227 11.4523775,9.43871337 11.8751036,9.94169527 Z M15.8,6.7 C16.4401482,6.7 16.9590909,7.21894268 16.9590909,7.85909091 L16.9590909,14.4345261 C16.9590909,15.0746743 16.4401482,15.593617 15.8,15.593617 C15.1598518,15.593617 14.6409091,15.0746743 14.6409091,14.4345261 L14.6409091,7.85909091 C14.6409091,7.21894268 15.1598518,6.7 15.8,6.7 Z" id="形状结合" fill="url(#linearGradient-24)"></path>
                </g>
                <path d="M24.75,119 C26.8762963,119 28.6,120.723704 28.6,122.85 C28.6,124.976296 26.8762963,126.7 24.75,126.7 C22.6237037,126.7 20.9,124.976296 20.9,122.85 C20.9,120.723704 22.6237037,119 24.75,119 Z M41.25,119 C43.3762963,119 45.1,120.723704 45.1,122.85 C45.1,124.976296 43.3762963,126.7 41.25,126.7 C39.1237037,126.7 37.4,124.976296 37.4,122.85 C37.4,120.723704 39.1237037,119 41.25,119 Z M57.75,119 C59.8762963,119 61.6,120.723704 61.6,122.85 C61.6,124.976296 59.8762963,126.7 57.75,126.7 C55.6237037,126.7 53.9,124.976296 53.9,122.85 C53.9,120.723704 55.6237037,119 57.75,119 Z M74.25,119 C76.3762963,119 78.1,120.723704 78.1,122.85 C78.1,124.976296 76.3762963,126.7 74.25,126.7 C72.1237037,126.7 70.4,124.976296 70.4,122.85 C70.4,120.723704 72.1237037,119 74.25,119 Z M90.75,119 C92.8762963,119 94.6,120.723704 94.6,122.85 C94.6,124.976296 92.8762963,126.7 90.75,126.7 C88.6237037,126.7 86.9,124.976296 86.9,122.85 C86.9,120.723704 88.6237037,119 90.75,119 Z M107.25,119 C109.376296,119 111.1,120.723704 111.1,122.85 C111.1,124.976296 109.376296,126.7 107.25,126.7 C105.123704,126.7 103.4,124.976296 103.4,122.85 C103.4,120.723704 105.123704,119 107.25,119 Z" id="形状结合" fill="url(#linearGradient-21)"></path>
                <path d="M24.75,135.5 C26.8762963,135.5 28.6,137.223704 28.6,139.35 C28.6,141.476296 26.8762963,143.2 24.75,143.2 C22.6237037,143.2 20.9,141.476296 20.9,139.35 C20.9,137.223704 22.6237037,135.5 24.75,135.5 Z M41.25,135.5 C43.3762963,135.5 45.1,137.223704 45.1,139.35 C45.1,141.476296 43.3762963,143.2 41.25,143.2 C39.1237037,143.2 37.4,141.476296 37.4,139.35 C37.4,137.223704 39.1237037,135.5 41.25,135.5 Z M57.75,135.5 C59.8762963,135.5 61.6,137.223704 61.6,139.35 C61.6,141.476296 59.8762963,143.2 57.75,143.2 C55.6237037,143.2 53.9,141.476296 53.9,139.35 C53.9,137.223704 55.6237037,135.5 57.75,135.5 Z M74.25,135.5 C76.3762963,135.5 78.1,137.223704 78.1,139.35 C78.1,141.476296 76.3762963,143.2 74.25,143.2 C72.1237037,143.2 70.4,141.476296 70.4,139.35 C70.4,137.223704 72.1237037,135.5 74.25,135.5 Z M90.75,135.5 C92.8762963,135.5 94.6,137.223704 94.6,139.35 C94.6,141.476296 92.8762963,143.2 90.75,143.2 C88.6237037,143.2 86.9,141.476296 86.9,139.35 C86.9,137.223704 88.6237037,135.5 90.75,135.5 Z M107.25,135.5 C109.376296,135.5 111.1,137.223704 111.1,139.35 C111.1,141.476296 109.376296,143.2 107.25,143.2 C105.123704,143.2 103.4,141.476296 103.4,139.35 C103.4,137.223704 105.123704,135.5 107.25,135.5 Z" id="形状结合" fill="url(#linearGradient-21)"></path>
                <path d="M24.75,152 C26.8762963,152 28.6,153.723704 28.6,155.85 C28.6,157.976296 26.8762963,159.7 24.75,159.7 C22.6237037,159.7 20.9,157.976296 20.9,155.85 C20.9,153.723704 22.6237037,152 24.75,152 Z M41.25,152 C43.3762963,152 45.1,153.723704 45.1,155.85 C45.1,157.976296 43.3762963,159.7 41.25,159.7 C39.1237037,159.7 37.4,157.976296 37.4,155.85 C37.4,153.723704 39.1237037,152 41.25,152 Z M57.75,152 C59.8762963,152 61.6,153.723704 61.6,155.85 C61.6,157.976296 59.8762963,159.7 57.75,159.7 C55.6237037,159.7 53.9,157.976296 53.9,155.85 C53.9,153.723704 55.6237037,152 57.75,152 Z M74.25,152 C76.3762963,152 78.1,153.723704 78.1,155.85 C78.1,157.976296 76.3762963,159.7 74.25,159.7 C72.1237037,159.7 70.4,157.976296 70.4,155.85 C70.4,153.723704 72.1237037,152 74.25,152 Z M90.75,152 C92.8762963,152 94.6,153.723704 94.6,155.85 C94.6,157.976296 92.8762963,159.7 90.75,159.7 C88.6237037,159.7 86.9,157.976296 86.9,155.85 C86.9,153.723704 88.6237037,152 90.75,152 Z M107.25,152 C109.376296,152 111.1,153.723704 111.1,155.85 C111.1,157.976296 109.376296,159.7 107.25,159.7 C105.123704,159.7 103.4,157.976296 103.4,155.85 C103.4,153.723704 105.123704,152 107.25,152 Z" id="形状结合备份-2" fill="url(#linearGradient-21)"></path>
            </g>
            <g id="编组-6" transform="translate(165.000000, 143.000000)">
                <g id="编组-8">
                    <g id="椭圆形">
                        <use fill="black" fill-opacity="1" filter="url(#filter-27)" xlink:href="#path-26"></use>
                        <use fill="url(#linearGradient-25)" fill-rule="evenodd" xlink:href="#path-26"></use>
                    </g>
                    <circle id="椭圆形" fill="url(#linearGradient-15)" cx="36.4" cy="37.2666667" r="36.4"></circle>
                </g>
                <g id="椭圆形">
                    <use fill="black" fill-opacity="1" filter="url(#filter-29)" xlink:href="#path-28"></use>
                    <use fill="url(#linearGradient-12)" fill-rule="evenodd" xlink:href="#path-28"></use>
                </g>
                <g id="编组-3" transform="translate(26.000000, 29.000000)" fill="url(#linearGradient-30)">
                    <path d="M3.75305389,11.2853726 L3.75305389,14.1066927 L6.56873256,14.1066927 L6.56873256,16.4578424 L1.40665995,16.4578424 L1.40665995,11.2853726 L3.75305389,11.2853726 Z M17.8314205,11.2853816 L17.8314205,16.4578514 L12.6693479,16.4578514 L12.6693479,14.1067016 L15.4850265,14.1067016 L15.4850265,11.2853816 L17.8314205,11.2853816 Z M9.61903277,2.35111694 L19.2392509,8.93424676 L19.2392509,11.7555966 L9.61903277,5.172437 L-0.00118533116,11.7555966 L-0.00118533116,8.93424676 L9.61903277,2.35111694 Z M17.8314205,1.2735049e-13 L17.8314205,5.17243998 L15.4850265,5.17243998 L15.4850265,2.35111992 L12.6693479,2.35111992 L12.6693479,1.2735049e-13 L17.8314205,1.2735049e-13 Z M6.56872066,1.2735049e-13 L6.56872066,2.35111992 L3.75304199,2.35111992 L3.75304199,5.17243998 L1.40664805,5.17243998 L1.40664805,1.2735049e-13 L6.56872066,1.2735049e-13 Z" id="形状结合"></path>
                </g>
            </g>
        </g>
    </g>
</svg>