<?xml version="1.0" encoding="UTF-8"?>
<svg width="512px" height="320px" viewBox="0 0 512 320" version="1.1" xmlns="http://www.w3.org/2000/svg" xmlns:xlink="http://www.w3.org/1999/xlink">
    <title>空白页/成功</title>
    <defs>
        <radialGradient cx="50%" cy="-13.7511502%" fx="50%" fy="-13.7511502%" r="119.117172%" gradientTransform="translate(0.500000,-0.137512),scale(0.272253,1.000000),rotate(90.000000),scale(1.000000,1.744156),translate(-0.500000,0.137512)" id="radialGradient-1">
            <stop stop-color="#A1C0F8" offset="0%"></stop>
            <stop stop-color="#FFFFFF" stop-opacity="0" offset="93.6150342%"></stop>
            <stop stop-color="#FFFFFF" stop-opacity="0" offset="100%"></stop>
        </radialGradient>
        <linearGradient x1="50%" y1="0%" x2="50%" y2="100%" id="linearGradient-2">
            <stop stop-color="#E2ECFF" offset="0%"></stop>
            <stop stop-color="#E2ECFF" stop-opacity="0" offset="100%"></stop>
        </linearGradient>
        <linearGradient x1="50%" y1="0%" x2="50%" y2="100%" id="linearGradient-3">
            <stop stop-color="#E2ECFF" offset="0%"></stop>
            <stop stop-color="#E2ECFF" stop-opacity="0" offset="100%"></stop>
        </linearGradient>
        <linearGradient x1="50%" y1="0%" x2="50%" y2="100%" id="linearGradient-4">
            <stop stop-color="#4288E4" offset="0%"></stop>
            <stop stop-color="#1F50C4" offset="100%"></stop>
        </linearGradient>
        <linearGradient x1="50%" y1="0%" x2="50%" y2="100%" id="linearGradient-5">
            <stop stop-color="#BFDAFE" offset="0%"></stop>
            <stop stop-color="#5380DC" offset="100%"></stop>
        </linearGradient>
        <linearGradient x1="50%" y1="0%" x2="50%" y2="100%" id="linearGradient-6">
            <stop stop-color="#4288E4" offset="0%"></stop>
            <stop stop-color="#1F50C4" offset="100%"></stop>
        </linearGradient>
        <linearGradient x1="50%" y1="0%" x2="50%" y2="100%" id="linearGradient-7">
            <stop stop-color="#BFDAFE" offset="0%"></stop>
            <stop stop-color="#5380DC" offset="100%"></stop>
        </linearGradient>
        <linearGradient x1="50%" y1="5.38993969%" x2="50%" y2="108.021519%" id="linearGradient-8">
            <stop stop-color="#BDD2FE" offset="0%"></stop>
            <stop stop-color="#093798" offset="100%"></stop>
        </linearGradient>
        <linearGradient x1="50%" y1="0%" x2="50%" y2="100%" id="linearGradient-9">
            <stop stop-color="#A1BDF4" offset="0%"></stop>
            <stop stop-color="#6A93DA" offset="100%"></stop>
        </linearGradient>
        <linearGradient x1="50%" y1="0%" x2="50%" y2="100%" id="linearGradient-10">
            <stop stop-color="#6F91D7" offset="0%"></stop>
            <stop stop-color="#315AB0" offset="100%"></stop>
        </linearGradient>
        <path d="M32.9922485,76.4755859 C34.1224888,74.4951638 36.571419,73.6961578 38.6521448,74.6289466 L57.35466,83.0132783 C58.0211656,83.3120726 58.7975501,83.2237623 59.3799246,82.7829136 L100.651446,51.5409962 C102.570893,50.0880032 105.270818,50.2865778 106.957031,52.0047607 C108.608698,53.6877415 108.649837,56.3704552 107.050552,58.1032891 L63.2198314,105.594111 C61.7215449,107.217513 59.1909167,107.318939 57.5675151,105.820652 C57.5415599,105.796697 57.5159231,105.7724 57.4906114,105.747766 L33.880398,82.7697071 C32.1845319,81.1192472 31.8192903,78.5308592 32.9922485,76.4755859 Z" id="path-11"></path>
        <filter x="-23.7%" y="-14.1%" width="146.9%" height="161.6%" filterUnits="objectBoundingBox" id="filter-12">
            <feOffset dx="0" dy="10" in="SourceAlpha" result="shadowOffsetOuter1"></feOffset>
            <feGaussianBlur stdDeviation="5" in="shadowOffsetOuter1" result="shadowBlurOuter1"></feGaussianBlur>
            <feColorMatrix values="0 0 0 0 0   0 0 0 0 0   0 0 0 0 0  0 0 0 0.08 0" type="matrix" in="shadowBlurOuter1"></feColorMatrix>
        </filter>
        <linearGradient x1="50%" y1="0%" x2="50%" y2="100%" id="linearGradient-13">
            <stop stop-color="#E8F0FB" offset="0%"></stop>
            <stop stop-color="#CDDDF5" offset="100%"></stop>
        </linearGradient>
    </defs>
    <g id="空白页/成功" stroke="none" stroke-width="1" fill="none" fill-rule="evenodd">
        <g>
            <path d="M256.076662,137 C396.999876,137 520.902132,209.875387 592.153323,319.996056 L-80,319.996056 C-8.7488087,209.875387 115.153447,137 256.076662,137 Z" id="形状结合" fill="url(#radialGradient-1)"></path>
            <g id="cloud" transform="translate(26.000000, 19.000000)">
                <path d="M17,78 L16.9999888,77.6195045 C7.31511674,75.751781 0,67.230159 0,57 C0,45.4020203 9.40202025,36 21,36 C23.8565715,36 26.5799289,36.5703569 29.0624046,37.6034027 C29.0206182,36.9075003 29,36.2061579 29,35.5 C29,15.8938914 44.8938914,0 64.5,0 C82.1423524,0 96.7788807,12.8694627 99.5338925,29.7326958 C101.443118,29.2537654 103.441924,29 105.5,29 C119.030976,29 130,39.9690236 130,53.5 C130,65.8422576 120.873612,76.0529331 109.001137,77.7517263 L109,78 L17,78 Z" id="形状结合" fill="url(#linearGradient-2)"></path>
                <path d="M361.6,96 L361.600599,95.6976713 C353.852399,94.2133083 348,87.4395698 348,79.3076923 C348,70.0887853 355.521616,62.6153846 364.8,62.6153846 C367.085617,62.6153846 369.264629,63.068888 371.250862,63.8902721 C371.216507,63.3371373 371.2,62.7794583 371.2,62.2179487 C371.2,46.633606 383.915113,34 399.6,34 C413.713931,34 425.423186,44.229644 427.627137,57.6338209 C429.154841,57.2529493 430.753718,57.0512821 432.4,57.0512821 C443.224781,57.0512821 452,65.7702496 452,76.525641 C452,86.3362975 444.698675,94.4525698 435.200492,95.8027137 L435.2,96 L361.6,96 Z" id="形状结合备份" fill="url(#linearGradient-3)"></path>
            </g>
            <g id="编组" transform="translate(78.000000, 131.000000)">
                <g id="tree" transform="translate(33.000000, 17.000000)">
                    <path d="M10.5,31.1111111 C11.573887,31.1111111 12.4444444,31.9816685 12.4444444,33.0555556 L12.4444444,40.8333333 C12.4444444,41.9072203 11.573887,42.7777778 10.5,42.7777778 C9.42611299,42.7777778 8.55555556,41.9072203 8.55555556,40.8333333 L8.55555556,33.0555556 C8.55555556,31.9816685 9.42611299,31.1111111 10.5,31.1111111 Z" id="矩形" fill="url(#linearGradient-4)"></path>
                    <path d="M10.3636576,0.777777778 C15.9403748,0.777777778 23.0239523,22.760348 20.4587087,28.7125451 C17.893465,34.6647421 3.69323796,35.3689295 0.708596191,28.7125451 C-2.27604558,22.0561606 4.78694035,0.777777778 10.3636576,0.777777778 Z" id="矩形" fill="url(#linearGradient-5)"></path>
                </g>
                <g id="tree" transform="translate(293.000000, 1.000000)">
                    <path d="M10.5,31.1111111 C11.573887,31.1111111 12.4444444,31.9816685 12.4444444,33.0555556 L12.4444444,40.8333333 C12.4444444,41.9072203 11.573887,42.7777778 10.5,42.7777778 C9.42611299,42.7777778 8.55555556,41.9072203 8.55555556,40.8333333 L8.55555556,33.0555556 C8.55555556,31.9816685 9.42611299,31.1111111 10.5,31.1111111 Z" id="矩形" fill="url(#linearGradient-4)"></path>
                    <path d="M10.3636576,0.777777778 C15.9403748,0.777777778 23.0239523,22.760348 20.4587087,28.7125451 C17.893465,34.6647421 3.69323796,35.3689295 0.708596191,28.7125451 C-2.27604558,22.0561606 4.78694035,0.777777778 10.3636576,0.777777778 Z" id="矩形" fill="url(#linearGradient-5)"></path>
                </g>
                <g id="tree" transform="translate(328.000000, 26.000000)">
                    <path d="M14.1375,41.8888889 C15.5834122,41.8888889 16.7555556,43.0610323 16.7555556,44.5069444 L16.7555556,54.9791667 C16.7555556,56.4250788 15.5834122,57.5972222 14.1375,57.5972222 C12.6915878,57.5972222 11.5194444,56.4250788 11.5194444,54.9791667 L11.5194444,44.5069444 C11.5194444,43.0610323 12.6915878,41.8888889 14.1375,41.8888889 Z" id="矩形" fill="url(#linearGradient-6)"></path>
                    <path d="M13.9539247,1.04722222 C21.4625761,1.04722222 31.0001072,30.6451828 27.5461899,38.659391 C24.0922725,46.6735992 4.97268111,47.6217372 0.954074158,38.659391 C-3.06453279,29.6970449 6.44527325,1.04722222 13.9539247,1.04722222 Z" id="矩形" fill="url(#linearGradient-7)"></path>
                </g>
            </g>
            <g id="编组-5" transform="translate(183.000000, 58.000000)">
                <g id="编组-6">
                    <ellipse id="椭圆形" fill="url(#linearGradient-8)" cx="72.0137931" cy="72" rx="68.5241379" ry="72"></ellipse>
                    <ellipse id="椭圆形" fill="url(#linearGradient-9)" cx="65.9862069" cy="75.3333333" rx="65.9862069" ry="69.3333333"></ellipse>
                </g>
                <g id="路径">
                    <use fill="black" fill-opacity="1" filter="url(#filter-12)" xlink:href="#path-11"></use>
                    <use fill="url(#linearGradient-10)" fill-rule="evenodd" xlink:href="#path-11"></use>
                </g>
                <path d="M28.9922485,73.4755859 C30.1224888,71.4951638 32.571419,70.6961578 34.6521448,71.6289466 L53.35466,80.0132783 C54.0211656,80.3120726 54.7975501,80.2237623 55.3799246,79.7829136 L96.6514457,48.5409962 C98.5708935,47.0880032 101.270818,47.2865778 102.957031,49.0047607 C104.608698,50.6877415 104.649837,53.3704552 103.050552,55.1032891 L59.2198314,102.594111 C57.7215449,104.217513 55.1909167,104.318939 53.5675151,102.820652 C53.5415599,102.796697 53.5159231,102.7724 53.4906114,102.747766 L29.880398,79.7697071 C28.1845319,78.1192472 27.8192903,75.5308592 28.9922485,73.4755859 Z" id="路径" fill="url(#linearGradient-13)"></path>
            </g>
        </g>
    </g>
</svg>