<?xml version="1.0" encoding="UTF-8"?>
<svg width="55px" height="55px" viewBox="0 0 55 55" version="1.1" xmlns="http://www.w3.org/2000/svg" xmlns:xlink="http://www.w3.org/1999/xlink">
    <!-- Generator: Sketch 59.1 (86144) - https://sketch.com -->
    <title>续航里程</title>
    <desc>Created with Sketch.</desc>
    <g id="页面-1" stroke="none" stroke-width="1" fill="none" fill-rule="evenodd">
        <g id="1" transform="translate(-624.000000, -423.000000)" fill="#000000" fill-rule="nonzero">
            <g id="编组-7" transform="translate(-1.000000, 0.000000)">
                <g id="续航里程" transform="translate(625.000000, 423.000000)">
                    <path d="M27.4845156,0.0325462761 L27.9452178,0.0364671746 C39.5575603,0.235706755 49.787523,7.72220401 53.4896452,18.7304049 C57.1917674,29.7386057 53.5645765,41.8853446 44.432475,49.0610617 C35.2329984,56.2887332 22.4629649,56.8896713 12.6253996,50.5578537 C2.78810606,44.2256209 -1.95389802,32.353689 0.813779577,20.9866543 C1.00498765,20.1987088 1.60203508,19.5726255 2.38001988,19.3442439 C3.15800467,19.1158622 3.99873242,19.3198788 4.58550912,19.8794426 C5.17228582,20.4390064 5.41596613,21.2691063 5.22475803,22.0570517 C2.96616804,31.3350077 6.69967544,41.0408044 14.5938322,46.4133258 C22.4879889,51.7858471 32.8867319,51.6980272 40.6890246,46.1929455 C48.4258109,40.7322702 52.0050761,31.0739072 49.6953394,21.8901196 C47.3856028,12.7063321 39.6630269,5.89039948 30.2634321,4.7395504 L29.7537189,4.68269776 L29.7537189,10.6943713 C29.7527387,11.8177005 28.9303363,12.7724323 27.8060269,12.9390692 L27.4845156,12.9625944 C26.3602062,12.9625944 25.4064547,12.1392118 25.2398177,11.0158826 L25.2153123,10.6943713 L25.2153123,2.30174964 C25.2158532,1.04872735 26.2314933,0.0325462761 27.4845156,0.0325462761 Z M14.7358078,14.7358078 L28.8979892,23.6518655 C29.3312453,23.8283046 29.7282333,24.07826 30.0713094,24.3909494 L30.0781709,24.3909494 L30.2516694,24.5007338 L30.2222629,24.5340611 C31.2381872,25.5503356 31.634764,27.0314011 31.2626066,28.4193546 C30.8904492,29.8073081 29.8060972,30.8912864 28.4180156,31.2629654 C27.0299339,31.6346444 25.5490052,31.2375572 24.5330809,30.2212827 L24.5066151,30.2487288 L24.3929099,30.0654281 C24.0833903,29.7215584 23.8353686,29.3269785 23.6597072,28.8989694 L14.7358078,14.7358078 Z" id="形状"></path>
                </g>
            </g>
        </g>
    </g>
</svg>