<?xml version="1.0" encoding="UTF-8"?>
<svg width="54px" height="73px" viewBox="0 0 54 73" version="1.1" xmlns="http://www.w3.org/2000/svg" xmlns:xlink="http://www.w3.org/1999/xlink">
    <!-- Generator: Sketch 59.1 (86144) - https://sketch.com -->
    <title>倒计时选中</title>
    <desc>Created with Sketch.</desc>
    <g id="页面-1" stroke="none" stroke-width="1" fill="none" fill-rule="evenodd">
        <g id="1备份" transform="translate(-508.000000, -3119.000000)" fill-rule="nonzero">
            <g id="编组-3" transform="translate(100.000000, 2984.000000)">
                <g id="蓝白" transform="translate(0.000000, 132.000000)">
                    <g id="倒计时选中" transform="translate(408.000000, 3.000000)">
                        <path d="M21.3074141,47.0109073 C20.9490289,47.0115954 20.59444,47.0842242 20.2647256,47.2244765 C15.8249907,49.1013834 12.4696718,52.8774131 11.1318436,57.5024963 C10.8290483,58.4294735 11.0564586,59.4475527 11.7250508,60.1581892 C12.3936429,60.8688256 13.3970543,61.1589681 14.3424822,60.9150353 C15.2879102,60.6711026 16.0249518,59.9319005 16.2650794,58.9868025 C17.1754614,55.910482 19.4093832,53.3980931 22.3607969,52.1312299 C23.5407744,51.6367377 24.2043737,50.3766738 23.9436369,49.125682 C23.6829001,47.8746902 22.570949,46.9836025 21.2913727,47.0002288 L21.3074141,47.0109073 Z" id="路径" fill="#006FFF"></path>
                        <path d="M51,70 L3.00679055,70 L3.00679055,62.1405188 C2.69461008,49.1185041 13.1851833,38.313413 26.4381419,38.0066722 C39.6911005,37.6999314 50.6878188,48.0076974 51,61.0297121 L51,70 L51,70 Z" id="路径" stroke="#006FFF" stroke-width="5"></path>
                        <path d="M27,31 C12.0951655,30.9857629 0.016533374,20.5847186 0,7.74999996 L0,0 L54,0 L54,7.74999996 C53.9834666,20.5847186 41.9048345,30.9857629 27,31 Z" id="路径" fill="#006FFF"></path>
                    </g>
                </g>
            </g>
        </g>
    </g>
</svg>