<?xml version="1.0" encoding="UTF-8"?>
<svg width="74px" height="74px" viewBox="0 0 74 74" version="1.1" xmlns="http://www.w3.org/2000/svg" xmlns:xlink="http://www.w3.org/1999/xlink">
    <!-- Generator: Sketch 59.1 (86144) - https://sketch.com -->
    <title>设置2</title>
    <desc>Created with Sketch.</desc>
    <defs>
        <linearGradient x1="8.45868644%" y1="0%" x2="111.848517%" y2="112.510417%" id="linearGradient-1">
            <stop stop-color="#00F0FF" offset="0%"></stop>
            <stop stop-color="#704DF0" offset="100%"></stop>
        </linearGradient>
        <path d="M303.475446,683 C303.475446,678.672321 306.192634,675.005357 310,673.543527 C309.091518,669.97567 307.6875,666.614286 305.854018,663.525446 C302.120982,665.185491 297.611607,664.508259 294.555804,661.444196 C291.5,658.388393 290.822768,653.870759 292.482813,650.145982 C289.385714,648.3125 286.02433,646.908482 282.456473,646 C280.986384,649.807366 277.31942,652.524554 273,652.524554 C268.672321,652.524554 265.005357,649.807366 263.543527,646 C259.97567,646.908482 256.614286,648.3125 253.525446,650.145982 C255.185491,653.879018 254.508259,658.388393 251.452455,661.444196 C248.396652,664.5 243.879018,665.177232 240.154241,663.525446 C238.3125,666.614286 236.908482,669.97567 236,673.543527 C239.807366,675.013616 242.524554,678.68058 242.524554,683 C242.524554,687.327679 239.807366,690.994643 236,692.456473 C236.908482,696.02433 238.3125,699.385714 240.145982,702.474554 C243.879018,700.814509 248.388393,701.491741 251.444196,704.555804 C254.5,707.611607 255.177232,712.129241 253.517188,715.854018 C256.614286,717.6875 259.97567,719.091518 263.543527,720 C265.013616,716.192634 268.68058,713.475446 273,713.475446 C277.327679,713.475446 280.994643,716.192634 282.456473,720 C286.02433,719.091518 289.385714,717.6875 292.474554,715.854018 C290.814509,712.120982 291.491741,707.611607 294.547545,704.555804 C297.603348,701.5 302.120982,700.822768 305.845759,702.474554 C307.6875,699.385714 309.091518,696.02433 310,692.456473 C306.192634,690.994643 303.475446,687.327679 303.475446,683 Z M273,693 C267.479675,693 263,688.520325 263,683 C263,677.479675 267.479675,673 273,673 C278.520325,673 283,677.479675 283,683 C283,688.520325 278.520325,693 273,693 Z" id="path-2"></path>
        <filter x="-206.8%" y="-198.6%" width="513.5%" height="513.5%" filterUnits="objectBoundingBox" id="filter-3">
            <feOffset dx="0" dy="6" in="SourceAlpha" result="shadowOffsetOuter1"></feOffset>
            <feGaussianBlur stdDeviation="50" in="shadowOffsetOuter1" result="shadowBlurOuter1"></feGaussianBlur>
            <feColorMatrix values="0 0 0 0 0.125490196   0 0 0 0 0.127812629   0 0 0 0 0.129411765  0 0 0 0.1 0" type="matrix" in="shadowBlurOuter1"></feColorMatrix>
        </filter>
    </defs>
    <g id="页面-1" stroke="none" stroke-width="1" fill="none" fill-rule="evenodd">
        <g id="1备份" transform="translate(-266.000000, -672.000000)">
            <g id="编组" transform="translate(30.000000, 26.000000)">
                <g id="设置2">
                    <use fill="black" fill-opacity="1" filter="url(#filter-3)" xlink:href="#path-2"></use>
                    <use fill="url(#linearGradient-1)" fill-rule="evenodd" xlink:href="#path-2"></use>
                </g>
            </g>
        </g>
    </g>
</svg>