<?xml version="1.0" encoding="UTF-8"?>
<svg width="143px" height="30px" viewBox="0 0 143 30" version="1.1" xmlns="http://www.w3.org/2000/svg" xmlns:xlink="http://www.w3.org/1999/xlink">
    <!-- Generator: Sketch 59.1 (86144) - https://sketch.com -->
    <title>关闭1</title>
    <desc>Created with Sketch.</desc>
    <g id="页面-1" stroke="none" stroke-width="1" fill="none" fill-rule="evenodd">
        <g id="1备份" transform="translate(-483.000000, -481.000000)" fill="#FFFFFF">
            <g id="暗色" transform="translate(44.000000, 435.000000)">
                <g id="关闭1" transform="translate(445.000000, 44.000000)">
                    <rect id="矩形备份" transform="translate(43.000000, 22.500000) rotate(-30.000000) translate(-43.000000, -22.500000) " x="29" y="19" width="28" height="7" rx="3.5"></rect>
                    <rect id="矩形备份-5" transform="translate(14.874356, 22.500000) rotate(-30.000000) translate(-14.874356, -22.500000) " x="0.874355653" y="19" width="28" height="7" rx="3.5"></rect>
                    <rect id="矩形备份-7" transform="translate(88.874356, 22.500000) scale(-1, 1) rotate(-30.000000) translate(-88.874356, -22.500000) " x="74.8743557" y="19" width="28" height="7" rx="3.5"></rect>
                    <rect id="矩形备份-13" transform="translate(116.874356, 22.500000) scale(-1, 1) rotate(-30.000000) translate(-116.874356, -22.500000) " x="102.874356" y="19" width="28" height="7" rx="3.5"></rect>
                    <rect id="矩形备份-6" transform="translate(42.000000, 10.500000) scale(-1, 1) rotate(-30.000000) translate(-42.000000, -10.500000) " x="28" y="7" width="28" height="7" rx="3.5"></rect>
                    <rect id="矩形备份-12" transform="translate(13.874356, 10.500000) scale(-1, 1) rotate(-30.000000) translate(-13.874356, -10.500000) " x="-0.125644347" y="7" width="28" height="7" rx="3.5"></rect>
                    <rect id="矩形备份-8" transform="translate(88.874356, 11.500000) scale(-1, -1) rotate(-30.000000) translate(-88.874356, -11.500000) " x="74.8743557" y="8" width="28" height="7" rx="3.5"></rect>
                    <rect id="矩形备份-14" transform="translate(116.874356, 11.500000) scale(-1, -1) rotate(-30.000000) translate(-116.874356, -11.500000) " x="102.874356" y="8" width="28" height="7" rx="3.5"></rect>
                </g>
            </g>
        </g>
    </g>
</svg>