<?xml version="1.0" encoding="UTF-8"?>
<svg width="143px" height="30px" viewBox="0 0 143 30" version="1.1" xmlns="http://www.w3.org/2000/svg" xmlns:xlink="http://www.w3.org/1999/xlink">
    <!-- Generator: Sketch 59.1 (86144) - https://sketch.com -->
    <title>关闭</title>
    <desc>Created with Sketch.</desc>
    <defs>
        <linearGradient x1="8.45868644%" y1="47.3517699%" x2="111.848517%" y2="53.3108394%" id="linearGradient-1">
            <stop stop-color="#00F0FF" offset="0%"></stop>
            <stop stop-color="#704DF0" offset="100%"></stop>
        </linearGradient>
        <path d="M28.8756443,2.5 C29.8421427,0.825975818 31.9827091,0.252412775 33.6567333,1.21891109 L33.6567333,1.21891109 L51.8432667,11.7189111 C52.6081226,12.1605008 53.1432523,12.8471825 53.4067271,13.6224761 C53.6848687,13.8672532 53.9286755,14.161072 54.1243557,14.5 C55.090854,16.1740242 54.5172909,18.3145906 52.8432667,19.2810889 L34.6567333,29.7810889 C32.9827091,30.7475872 30.8421427,30.1740242 29.8756443,28.5 C28.909146,26.8259758 29.4827091,24.6854094 31.1567333,23.7189111 L44.8915045,15.7884156 L30.1567333,7.28108891 C28.540434,6.34791813 27.9500106,4.32025341 28.7811374,2.67477189 Z M0.75,2.5 C1.71649831,0.825975818 3.85706473,0.252412775 5.53108891,1.21891109 L5.53108891,1.21891109 L23.7176224,11.7189111 C24.4821503,12.1603115 25.017149,12.8465937 25.2807437,13.6214788 C25.5587036,13.8666258 25.8028222,14.1607101 25.9987113,14.5 C26.9652096,16.1740242 26.3916466,18.3145906 24.7176224,19.2810889 L6.53108891,29.7810889 C4.85706473,30.7475872 2.71649831,30.1740242 1.75,28.5 C0.783501688,26.8259758 1.35706473,24.6854094 3.03108891,23.7189111 L16.7665045,15.7884156 L2.03108891,7.28108891 C0.414789703,6.34791813 -0.175633725,4.32025341 0.65549307,2.67477189 Z M99.9987113,3.5 C100.96521,5.17402418 100.391647,7.3145906 98.7176224,8.28108891 L85.3475045,15.9994156 L98.7176224,23.7189111 C100.333922,24.6520819 100.924345,26.6797466 100.093218,28.3252281 L99.9987113,28.5 C99.032213,30.1740242 96.8916466,30.7475872 95.2176224,29.7810889 L95.2176224,29.7810889 L77.0310889,19.2810889 C75.8318992,18.5887364 75.1974215,17.2938997 75.289254,15.9996714 C75.1976744,14.7055842 75.8321382,13.4111256 77.0310889,12.7189111 L95.2176224,2.21891109 C96.8916466,1.25241277 99.032213,1.82597582 99.9987113,3.5 Z M127.998711,3.5 C128.96521,5.17402418 128.391647,7.3145906 126.717622,8.28108891 L113.347504,15.9994156 L126.717622,23.7189111 C128.333922,24.6520819 128.924345,26.6797466 128.093218,28.3252281 L127.998711,28.5 C127.032213,30.1740242 124.891647,30.7475872 123.217622,29.7810889 L123.217622,29.7810889 L105.031089,19.2810889 C103.831899,18.5887364 103.197421,17.2938997 103.289254,15.9996714 C103.197674,14.7055842 103.832138,13.4111256 105.031089,12.7189111 L123.217622,2.21891109 C124.891647,1.25241277 127.032213,1.82597582 127.998711,3.5 Z" id="path-2"></path>
        <filter x="-119.4%" y="-498.3%" width="338.7%" height="1137.2%" filterUnits="objectBoundingBox" id="filter-3">
            <feOffset dx="0" dy="6" in="SourceAlpha" result="shadowOffsetOuter1"></feOffset>
            <feGaussianBlur stdDeviation="50" in="shadowOffsetOuter1" result="shadowBlurOuter1"></feGaussianBlur>
            <feColorMatrix values="0 0 0 0 0.125490196   0 0 0 0 0.127812629   0 0 0 0 0.129411765  0 0 0 0.1 0" type="matrix" in="shadowBlurOuter1"></feColorMatrix>
        </filter>
    </defs>
    <g id="页面-1" stroke="none" stroke-width="1" fill="none" fill-rule="evenodd">
        <g id="1备份" transform="translate(-248.000000, -436.000000)">
            <g id="暗色" transform="translate(44.000000, 435.000000)">
                <g id="关闭" transform="translate(211.000000, 0.000000)">
                    <g id="形状结合">
                        <use fill="black" fill-opacity="1" filter="url(#filter-3)" xlink:href="#path-2"></use>
                        <use fill="url(#linearGradient-1)" fill-rule="evenodd" xlink:href="#path-2"></use>
                    </g>
                </g>
            </g>
        </g>
    </g>
</svg>