<?xml version="1.0" encoding="UTF-8"?>
<svg width="143px" height="30px" viewBox="0 0 143 30" version="1.1" xmlns="http://www.w3.org/2000/svg" xmlns:xlink="http://www.w3.org/1999/xlink">
    <!-- Generator: Sketch 59.1 (86144) - https://sketch.com -->
    <title>开启1</title>
    <desc>Created with Sketch.</desc>
    <defs>
        <path d="M53.1243557,2.5 C54.090854,4.17402418 53.5172909,6.3145906 51.8432667,7.28108891 L38.4735045,14.9994156 L51.8432667,22.7189111 C53.459566,23.6520819 54.0499894,25.6797466 53.2188626,27.3252281 L53.1243557,27.5 C52.1578573,29.1740242 50.0172909,29.7475872 48.3432667,28.7810889 L48.3432667,28.7810889 L30.1567333,18.2810889 C28.9575435,17.5887364 28.3230658,16.2938997 28.4148984,14.9996714 C28.3233188,13.7055842 28.9577825,12.4111256 30.1567333,11.7189111 L48.3432667,1.21891109 C50.0172909,0.252412775 52.1578573,0.825975818 53.1243557,2.5 Z M24.9987113,2.5 C25.9652096,4.17402418 25.3916466,6.3145906 23.7176224,7.28108891 L10.3475045,14.9994156 L23.7176224,22.7189111 C25.3339216,23.6520819 25.924345,25.6797466 25.0932182,27.3252281 L24.9987113,27.5 C24.032213,29.1740242 21.8916466,29.7475872 20.2176224,28.7810889 L20.2176224,28.7810889 L2.03108891,18.2810889 C0.831899177,17.5887364 0.197421499,16.2938997 0.289254045,14.9996714 C0.19767441,13.7055842 0.832138162,12.4111256 2.03108891,11.7189111 L20.2176224,1.21891109 C21.8916466,0.252412775 24.032213,0.825975818 24.9987113,2.5 Z M89.75,2.5 C90.7164983,0.825975818 92.8570647,0.252412775 94.5310889,1.21891109 L94.5310889,1.21891109 L112.717622,11.7189111 C113.916573,12.4111256 114.551037,13.7055842 114.459512,14.9995548 C114.55129,16.2938997 113.916812,17.5887364 112.717622,18.2810889 L94.5310889,28.7810889 C92.8570647,29.7475872 90.7164983,29.1740242 89.75,27.5 C88.7835017,25.8259758 89.3570647,23.6854094 91.0310889,22.7189111 L104.400504,14.9994156 L91.0310889,7.28108891 C89.4147897,6.34791813 88.8243663,4.32025341 89.6554931,2.67477189 Z M117.75,2.5 C118.716498,0.825975818 120.857065,0.252412775 122.531089,1.21891109 L122.531089,1.21891109 L140.717622,11.7189111 C141.916573,12.4111256 142.551037,13.7055842 142.459512,14.9995548 C142.55129,16.2938997 141.916812,17.5887364 140.717622,18.2810889 L122.531089,28.7810889 C120.857065,29.7475872 118.716498,29.1740242 117.75,27.5 C116.783502,25.8259758 117.357065,23.6854094 119.031089,22.7189111 L132.400504,14.9994156 L119.031089,7.28108891 C117.41479,6.34791813 116.824366,4.32025341 117.655493,2.67477189 Z" id="path-1"></path>
        <filter x="-107.6%" y="-515.8%" width="315.2%" height="1173.6%" filterUnits="objectBoundingBox" id="filter-2">
            <feOffset dx="0" dy="6" in="SourceAlpha" result="shadowOffsetOuter1"></feOffset>
            <feGaussianBlur stdDeviation="50" in="shadowOffsetOuter1" result="shadowBlurOuter1"></feGaussianBlur>
            <feColorMatrix values="0 0 0 0 0.125490196   0 0 0 0 0.127812629   0 0 0 0 0.129411765  0 0 0 0.1 0" type="matrix" in="shadowBlurOuter1"></feColorMatrix>
        </filter>
    </defs>
    <g id="页面-1" stroke="none" stroke-width="1" fill="none" fill-rule="evenodd">
        <g id="1备份" transform="translate(-44.000000, -512.000000)">
            <g id="暗色" transform="translate(44.000000, 435.000000)">
                <g id="开启1" transform="translate(0.000000, 77.000000)">
                    <g id="形状结合">
                        <use fill="black" fill-opacity="1" filter="url(#filter-2)" xlink:href="#path-1"></use>
                        <use fill="#FFFFFF" fill-rule="evenodd" xlink:href="#path-1"></use>
                    </g>
                </g>
            </g>
        </g>
    </g>
</svg>