<?xml version="1.0" encoding="UTF-8"?>
<svg width="66px" height="66px" viewBox="0 0 66 66" version="1.1" xmlns="http://www.w3.org/2000/svg" xmlns:xlink="http://www.w3.org/1999/xlink">
    <!-- Generator: Sketch 59.1 (86144) - https://sketch.com -->
    <title>自启动开关</title>
    <desc>Created with Sketch.</desc>
    <defs>
        <linearGradient x1="11.8644068%" y1="4.18229167%" x2="104.602754%" y2="105.080729%" id="linearGradient-1">
            <stop stop-color="#00F0FF" offset="0%"></stop>
            <stop stop-color="#704DF0" offset="100%"></stop>
        </linearGradient>
        <path d="M80.1808036,57 C80.1808036,53.1401786 82.6042411,49.8696429 86,48.5658482 C85.1897321,45.3837054 83.9375,42.3857143 82.3022321,39.6308036 C78.9727679,41.1113839 74.9508929,40.5073661 72.2254464,37.7745536 C69.5,35.0491071 68.8959821,31.0198661 70.3765625,27.6977679 C67.6142857,26.0625 64.6162946,24.8102679 61.4341518,24 C60.1229911,27.3957589 56.8524554,29.8191964 53,29.8191964 C49.1401786,29.8191964 45.8696429,27.3957589 44.5658482,24 C41.3837054,24.8102679 38.3857143,26.0625 35.6308036,27.6977679 C37.1113839,31.0272321 36.5073661,35.0491071 33.7819196,37.7745536 C31.0564732,40.5 27.0272321,41.1040179 23.7051339,39.6308036 C22.0625,42.3857143 20.8102679,45.3837054 20,48.5658482 C23.3957589,49.8770089 25.8191964,53.1475446 25.8191964,57 C25.8191964,60.8598214 23.3957589,64.1303571 20,65.4341518 C20.8102679,68.6162946 22.0625,71.6142857 23.6977679,74.3691964 C27.0272321,72.8886161 31.0491071,73.4926339 33.7745536,76.2254464 C36.5,78.9508929 37.1040179,82.9801339 35.6234375,86.3022321 C38.3857143,87.9375 41.3837054,89.1897321 44.5658482,90 C45.8770089,86.6042411 49.1475446,84.1808036 53,84.1808036 C56.8598214,84.1808036 60.1303571,86.6042411 61.4341518,90 C64.6162946,89.1897321 67.6142857,87.9375 70.3691964,86.3022321 C68.8886161,82.9727679 69.4926339,78.9508929 72.2180804,76.2254464 C74.9435268,73.5 78.9727679,72.8959821 82.2948661,74.3691964 C83.9375,71.6142857 85.1897321,68.6162946 86,65.4341518 C82.6042411,64.1303571 80.1808036,60.8598214 80.1808036,57 Z M53,66 C48.0317073,66 44,61.9682927 44,57 C44,52.0317073 48.0317073,48 53,48 C57.9682927,48 62,52.0317073 62,57 C62,61.9682927 57.9682927,66 53,66 Z" id="path-2"></path>
        <filter x="-231.8%" y="-222.7%" width="563.6%" height="563.6%" filterUnits="objectBoundingBox" id="filter-3">
            <feOffset dx="0" dy="6" in="SourceAlpha" result="shadowOffsetOuter1"></feOffset>
            <feGaussianBlur stdDeviation="50" in="shadowOffsetOuter1" result="shadowBlurOuter1"></feGaussianBlur>
            <feColorMatrix values="0 0 0 0 0.125490196   0 0 0 0 0.127812629   0 0 0 0 0.129411765  0 0 0 0.1 0" type="matrix" in="shadowBlurOuter1"></feColorMatrix>
        </filter>
    </defs>
    <g id="页面-1" stroke="none" stroke-width="1" fill="none" fill-rule="evenodd">
        <g id="7" transform="translate(-100.000000, -638.000000)">
            <g id="编组-3" transform="translate(80.000000, 614.000000)">
                <g id="声音">
                    <g id="自启动开关">
                        <use fill="black" fill-opacity="1" filter="url(#filter-3)" xlink:href="#path-2"></use>
                        <use fill="url(#linearGradient-1)" fill-rule="evenodd" xlink:href="#path-2"></use>
                    </g>
                </g>
            </g>
        </g>
    </g>
</svg>