<?xml version="1.0" encoding="UTF-8"?>
<svg width="74px" height="74px" viewBox="0 0 74 74" version="1.1" xmlns="http://www.w3.org/2000/svg" xmlns:xlink="http://www.w3.org/1999/xlink">
    <!-- Generator: Sketch 59.1 (86144) - https://sketch.com -->
    <title>设置</title>
    <desc>Created with Sketch.</desc>
    <defs>
        <linearGradient x1="50%" y1="0%" x2="50%" y2="86.165508%" id="linearGradient-1">
            <stop stop-color="#576273" offset="0%"></stop>
            <stop stop-color="#414B5B" offset="100%"></stop>
        </linearGradient>
        <path d="M303.475446,861 C303.475446,856.672321 306.192634,853.005357 310,851.543527 C309.091518,847.97567 307.6875,844.614286 305.854018,841.525446 C302.120982,843.185491 297.611607,842.508259 294.555804,839.444196 C291.5,836.388393 290.822768,831.870759 292.482813,828.145982 C289.385714,826.3125 286.02433,824.908482 282.456473,824 C280.986384,827.807366 277.31942,830.524554 273,830.524554 C268.672321,830.524554 265.005357,827.807366 263.543527,824 C259.97567,824.908482 256.614286,826.3125 253.525446,828.145982 C255.185491,831.879018 254.508259,836.388393 251.452455,839.444196 C248.396652,842.5 243.879018,843.177232 240.154241,841.525446 C238.3125,844.614286 236.908482,847.97567 236,851.543527 C239.807366,853.013616 242.524554,856.68058 242.524554,861 C242.524554,865.327679 239.807366,868.994643 236,870.456473 C236.908482,874.02433 238.3125,877.385714 240.145982,880.474554 C243.879018,878.814509 248.388393,879.491741 251.444196,882.555804 C254.5,885.611607 255.177232,890.129241 253.517188,893.854018 C256.614286,895.6875 259.97567,897.091518 263.543527,898 C265.013616,894.192634 268.68058,891.475446 273,891.475446 C277.327679,891.475446 280.994643,894.192634 282.456473,898 C286.02433,897.091518 289.385714,895.6875 292.474554,893.854018 C290.814509,890.120982 291.491741,885.611607 294.547545,882.555804 C297.603348,879.5 302.120982,878.822768 305.845759,880.474554 C307.6875,877.385714 309.091518,874.02433 310,870.456473 C306.192634,868.994643 303.475446,865.327679 303.475446,861 Z M273,871 C267.479675,871 263,866.520325 263,861 C263,855.479675 267.479675,851 273,851 C278.520325,851 283,855.479675 283,861 C283,866.520325 278.520325,871 273,871 Z" id="path-2"></path>
        <filter x="-206.8%" y="-198.6%" width="513.5%" height="513.5%" filterUnits="objectBoundingBox" id="filter-3">
            <feOffset dx="0" dy="6" in="SourceAlpha" result="shadowOffsetOuter1"></feOffset>
            <feGaussianBlur stdDeviation="50" in="shadowOffsetOuter1" result="shadowBlurOuter1"></feGaussianBlur>
            <feColorMatrix values="0 0 0 0 0.125490196   0 0 0 0 0.127812629   0 0 0 0 0.129411765  0 0 0 0.1 0" type="matrix" in="shadowBlurOuter1"></feColorMatrix>
        </filter>
    </defs>
    <g id="页面-1" stroke="none" stroke-width="1" fill="none" fill-rule="evenodd">
        <g id="1备份" transform="translate(-266.000000, -850.000000)">
            <g id="编组" transform="translate(30.000000, 26.000000)">
                <g id="设置">
                    <use fill="black" fill-opacity="1" filter="url(#filter-3)" xlink:href="#path-2"></use>
                    <use fill="url(#linearGradient-1)" fill-rule="evenodd" xlink:href="#path-2"></use>
                </g>
            </g>
        </g>
    </g>
</svg>