<?xml version="1.0" encoding="UTF-8"?>
<svg width="78px" height="78px" viewBox="0 0 78 78" version="1.1" xmlns="http://www.w3.org/2000/svg" xmlns:xlink="http://www.w3.org/1999/xlink">
    <!-- Generator: Sketch 59.1 (86144) - https://sketch.com -->
    <title>定时器</title>
    <desc>Created with Sketch.</desc>
    <defs>
        <linearGradient x1="8.45868644%" y1="0%" x2="111.848517%" y2="112.510417%" id="linearGradient-1">
            <stop stop-color="#00F0FF" offset="0%"></stop>
            <stop stop-color="#704DF0" offset="100%"></stop>
        </linearGradient>
        <path d="M73.4913144,42.548995 C73.4913144,62.1263231 57.8201613,78 38.4742492,78 C19.1283371,78 3.49453973,62.1254368 3.49453973,42.548995 C3.49453973,22.9725532 19.1283371,7.09799005 38.4742492,7.09799005 C57.8201613,7.09799005 73.4921832,22.971667 73.4913144,42.548995 L73.4913144,42.548995 Z M38.0813733,23.3041638 C36.1073196,23.3041638 34.5070329,24.9044505 34.5070329,26.8785042 L34.5070329,46.9117126 L34.5070329,46.9117126 L34.4931114,46.93526 L51.8210621,56.9622769 C53.5285954,57.9503607 55.7138248,57.3671315 56.7019085,55.6595981 C56.7031765,55.6574069 56.7044422,55.6552144 56.7057055,55.6530205 C57.6928767,53.9386661 57.1059448,51.748741 55.3937314,50.757861 L41.6557137,42.8074928 L41.6557137,42.8074928 L41.6557137,26.8785042 C41.6557137,24.9044505 40.055427,23.3041638 38.0813733,23.3041638 Z M21.1289419,1.59921863 C22.5378156,3.42311357 22.2163803,6.04115779 20.4081375,7.4700651 L6.68399357,18.3151406 C4.90131934,19.7238432 2.31419729,19.4206792 0.905494737,17.638005 C0.896115724,17.6261361 0.886802247,17.6142156 0.877554731,17.602244 C-0.531319034,15.7783491 -0.209883651,13.1603048 1.59835913,11.7313975 L15.322503,0.886322007 C17.1051773,-0.522380548 19.6922993,-0.219216611 21.1010019,1.56345761 C21.1103809,1.57532649 21.1196944,1.58724702 21.1289419,1.59921863 Z M56.8711031,1.59921863 C55.4622294,3.42311357 55.7836648,6.04115779 57.5919075,7.4700651 L71.3160515,18.3151406 C73.0987257,19.7238432 75.6858477,19.4206792 77.0945503,17.638005 C77.1039293,17.6261361 77.1132428,17.6142156 77.1224903,17.602244 C78.5313641,15.7783491 78.2099287,13.1603048 76.4016859,11.7313975 L62.677542,0.886322007 C60.8948678,-0.522380548 58.3077457,-0.219216611 56.8990432,1.56345761 C56.8896641,1.57532649 56.8803507,1.58724702 56.8711031,1.59921863 Z" id="path-2"></path>
        <filter x="-196.2%" y="-188.5%" width="492.3%" height="492.3%" filterUnits="objectBoundingBox" id="filter-3">
            <feOffset dx="0" dy="6" in="SourceAlpha" result="shadowOffsetOuter1"></feOffset>
            <feGaussianBlur stdDeviation="50" in="shadowOffsetOuter1" result="shadowBlurOuter1"></feGaussianBlur>
            <feColorMatrix values="0 0 0 0 0.125490196   0 0 0 0 0.127812629   0 0 0 0 0.129411765  0 0 0 0.1 0" type="matrix" in="shadowBlurOuter1"></feColorMatrix>
        </filter>
    </defs>
    <g id="页面-1" stroke="none" stroke-width="1" fill="none" fill-rule="evenodd">
        <g id="1备份" transform="translate(-269.000000, -697.000000)">
            <g id="编组" transform="translate(153.000000, 56.000000)">
                <g id="暗色" transform="translate(0.000000, 641.000000)">
                    <g id="定时器" transform="translate(116.000000, 0.000000)">
                        <g id="形状">
                            <use fill="black" fill-opacity="1" filter="url(#filter-3)" xlink:href="#path-2"></use>
                            <use fill="url(#linearGradient-1)" fill-rule="evenodd" xlink:href="#path-2"></use>
                        </g>
                    </g>
                </g>
            </g>
        </g>
    </g>
</svg>