<?xml version="1.0" encoding="UTF-8"?>
<svg width="512px" height="494px" viewBox="0 0 512 494" version="1.1" xmlns="http://www.w3.org/2000/svg" xmlns:xlink="http://www.w3.org/1999/xlink">
    <title>形状</title>
    <defs>
        <linearGradient x1="11.8644068%" y1="9.04426997%" x2="104.602754%" y2="99.2357989%" id="linearGradient-1">
            <stop stop-color="#00F0FF" offset="0%"></stop>
            <stop stop-color="#704DF0" offset="100%"></stop>
        </linearGradient>
        <path d="M448.5,398 C440.480961,398 434,391.506095 434,383.493454 C434,375.493905 440.494107,369 448.5,369 C456.505893,369 463,375.493905 463,383.493454 C463,391.506095 456.505893,398 448.5,398 L448.5,398 Z M452.266962,445.678775 C444.669783,465.593413 423.424105,479 399.456655,479 C375.647754,479 354.468139,465.749607 346.752047,446.004178 C344.564456,440.462424 347.309524,434.218237 352.909065,431.99885 C355.601143,430.966593 358.600206,431.036222 361.239933,432.192268 C363.87966,433.348313 365.941425,435.49503 366.967151,438.155468 C371.380122,449.453445 384.737945,457.341204 399.469867,457.341204 C414.267852,457.341204 427.638888,449.388365 431.972583,437.973242 C432.978041,435.300089 435.026025,433.133518 437.661102,431.955337 C440.296178,430.777155 443.299882,430.685042 446.004244,431.69948 C451.636461,433.872227 454.433371,440.115335 452.266962,445.678775 L452.266962,445.678775 Z M337,383.323335 C337,375.417682 343.494107,369 351.5,369 C359.519039,369 366,375.417682 366,383.323335 C365.66914,390.969105 359.275185,397 351.5,397 C343.724815,397 337.33086,390.969105 337,383.323335 L337,383.323335 Z M560.891247,375.886585 C568.94306,368.15212 564.481563,354.672051 553.40702,353.060163 L462.830719,340.009064 C458.41386,339.379711 454.598916,336.639849 452.640556,332.69057 L412.143894,251.446184 C409.879782,246.889252 405.178046,244 400.026575,244 C394.875104,244 390.173368,246.889252 387.909256,251.446184 L347.386195,332.716568 C345.43117,336.670862 341.615641,339.416011 337.196031,340.048062 L246.606531,353.047163 C235.505588,354.68505 231.070491,368.15212 239.095905,375.899584 L304.632386,439.166213 C307.826712,442.247 309.265479,446.679693 308.526296,450.995395 L293.043055,540.325222 C291.155499,551.244468 302.74483,559.60289 312.6446,554.429248 L393.664323,512.260161 C397.606694,510.203338 402.327659,510.203338 406.27003,512.260161 L487.289752,554.429248 C497.229122,559.60289 508.818453,551.244468 506.891298,540.325222 L491.447656,451.008394 C490.699461,446.67522 492.154187,442.255956 495.341566,439.179211 L560.878047,375.899584 L560.891247,375.886585 Z" id="path-2"></path>
        <filter x="-46.4%" y="-47.1%" width="192.7%" height="198.1%" filterUnits="objectBoundingBox" id="filter-3">
            <feOffset dx="0" dy="6" in="SourceAlpha" result="shadowOffsetOuter1"></feOffset>
            <feGaussianBlur stdDeviation="50" in="shadowOffsetOuter1" result="shadowBlurOuter1"></feGaussianBlur>
            <feColorMatrix values="0 0 0 0 0.125490196   0 0 0 0 0.127812629   0 0 0 0 0.129411765  0 0 0 0.1 0" type="matrix" in="shadowBlurOuter1"></feColorMatrix>
        </filter>
    </defs>
    <g id="页面-1" stroke="none" stroke-width="1" fill="none" fill-rule="evenodd">
        <g id="3" transform="translate(-307.000000, -523.000000)">
            <g id="编组-6" transform="translate(163.000000, 364.000000)">
                <g id="温度显示表">
                    <g id="形状">
                        <use fill="black" fill-opacity="1" filter="url(#filter-3)" xlink:href="#path-2"></use>
                        <use fill="url(#linearGradient-1)" fill-rule="evenodd" xlink:href="#path-2"></use>
                    </g>
                </g>
            </g>
        </g>
    </g>
</svg>