<svg width="20" height="20" viewBox="0 0 20 20" fill="none" xmlns="http://www.w3.org/2000/svg">
<path fill-rule="evenodd" clip-rule="evenodd" d="M0.0197449 9.97144C0.0197449 4.4542 4.46802 0.00592041 9.98526 0.00592041C15.4565 0.00592041 19.9508 4.4427 19.9508 9.95994C19.9508 15.4772 15.5025 19.9255 9.98526 19.9255C4.52549 19.9255 0.0197449 15.4887 0.0197449 9.97144ZM15.7669 13.4427C16.0657 13.4427 16.3301 13.2933 16.4795 12.9829C16.6289 12.5691 16.4795 12.1553 16.0772 12.0059L10.6634 9.55764V4.50017C10.6634 4.08638 10.3071 3.73006 9.89331 3.73006C9.47952 3.73006 9.12319 4.08638 9.12319 4.50017V10.0174C9.12319 10.3163 9.33009 10.6266 9.58296 10.7301L15.4565 13.3967C15.56 13.4427 15.6634 13.4427 15.7669 13.4427Z" fill="#30414D"/>
</svg>
