<?xml version="1.0" encoding="UTF-8"?>
<svg width="77px" height="77px" viewBox="0 0 77 77" version="1.1" xmlns="http://www.w3.org/2000/svg" xmlns:xlink="http://www.w3.org/1999/xlink">
    <!-- Generator: Sketch 59.1 (86144) - https://sketch.com -->
    <title>历史记录</title>
    <desc>Created with Sketch.</desc>
    <defs>
        <linearGradient x1="61.5645064%" y1="-28.7259615%" x2="61.5645064%" y2="100%" id="linearGradient-1">
            <stop stop-color="#00F0FF" offset="0%"></stop>
            <stop stop-color="#5A6CF3" offset="100%"></stop>
        </linearGradient>
        <path d="M29.5375881,29.992851 L29.5375881,20.9240997 C29.5374884,20.2530839 29.2690028,19.6095959 28.7912056,19.1352211 C28.3134084,18.6608464 27.665446,18.3946488 26.9898884,18.3946488 C26.3146298,18.3946488 25.6670732,18.6613105 25.1896991,19.1356852 C24.712325,19.61006 24.4442451,20.253381 24.4444444,20.9240997 L24.4444444,32.0887136 L35.3759413,42.9463427 C35.8528477,43.4214284 36.5007413,43.6880906 37.1761754,43.687291 C37.8514793,43.6879912 38.4992191,43.4213366 38.9760336,42.9463427 C39.4537854,42.4722592 39.7222222,41.82899 39.7222222,41.1582119 C39.7222222,40.4874338 39.4537854,39.8441646 38.9760336,39.370081 L29.5375881,29.992851 L29.5375881,29.992851 Z" id="path-2"></path>
        <filter x="-1001.5%" y="-581.2%" width="2102.9%" height="1309.8%" filterUnits="objectBoundingBox" id="filter-3">
            <feOffset dx="0" dy="6" in="SourceAlpha" result="shadowOffsetOuter1"></feOffset>
            <feGaussianBlur stdDeviation="50" in="shadowOffsetOuter1" result="shadowBlurOuter1"></feGaussianBlur>
            <feColorMatrix values="0 0 0 0 0.125490196   0 0 0 0 0.127812629   0 0 0 0 0.129411765  0 0 0 0.1 0" type="matrix" in="shadowBlurOuter1"></feColorMatrix>
        </filter>
        <linearGradient x1="61.5645064%" y1="-28.7259615%" x2="61.5645064%" y2="100%" id="linearGradient-4">
            <stop stop-color="#00F0FF" offset="0%"></stop>
            <stop stop-color="#5A6CF3" offset="100%"></stop>
        </linearGradient>
        <path d="M50.7938202,16.7074371 L45.5049966,17.852672 C48.3129308,21.627307 50.0002013,26.2932577 50.0002013,31.3590197 C50.0002013,43.8363265 39.906108,53.9875256 27.4994463,53.9875256 C15.0949994,53.9875256 5.00016778,43.8363265 5.00016778,31.3590197 C5.00016778,18.8835691 15.0949994,8.73162752 27.4994463,8.73162752 C28.7577936,8.73162752 29.9903021,8.84485172 31.1899585,9.04902651 L29.8441286,13.9611006 L43.7808136,10.314539 L33.6704787,0 L32.5272985,4.17036281 C30.8691959,3.85857471 29.1859137,3.70211314 27.4990772,3.70298816 C12.3121657,3.70298816 0,16.0852609 0,31.3590197 C0,46.635006 12.3121657,59.016165 27.4994463,59.016165 C42.6889417,59.016165 55,46.635006 55,31.3590197 C55,25.9695478 53.4515205,20.9539014 50.7938202,16.7074371 L50.7938202,16.7074371 Z" id="path-5"></path>
        <filter x="-278.2%" y="-249.1%" width="656.4%" height="618.5%" filterUnits="objectBoundingBox" id="filter-6">
            <feOffset dx="0" dy="6" in="SourceAlpha" result="shadowOffsetOuter1"></feOffset>
            <feGaussianBlur stdDeviation="50" in="shadowOffsetOuter1" result="shadowBlurOuter1"></feGaussianBlur>
            <feColorMatrix values="0 0 0 0 0.125490196   0 0 0 0 0.127812629   0 0 0 0 0.129411765  0 0 0 0.1 0" type="matrix" in="shadowBlurOuter1"></feColorMatrix>
        </filter>
    </defs>
    <g id="页面-1" stroke="none" stroke-width="1" fill="none" fill-rule="evenodd">
        <g id="切图暗色" transform="translate(-528.000000, -1667.000000)">
            <g id="编组" transform="translate(38.000000, 96.000000)">
                <g id="历史记录" transform="translate(501.000000, 1580.000000)">
                    <g id="路径">
                        <use fill="black" fill-opacity="1" filter="url(#filter-3)" xlink:href="#path-2"></use>
                        <use fill="url(#linearGradient-1)" fill-rule="evenodd" xlink:href="#path-2"></use>
                    </g>
                    <g id="路径">
                        <use fill="black" fill-opacity="1" filter="url(#filter-6)" xlink:href="#path-5"></use>
                        <use fill="url(#linearGradient-4)" fill-rule="evenodd" xlink:href="#path-5"></use>
                    </g>
                </g>
            </g>
        </g>
    </g>
</svg>