<?xml version="1.0" encoding="UTF-8"?>
<svg width="254px" height="276px" viewBox="0 0 254 276" version="1.1" xmlns="http://www.w3.org/2000/svg" xmlns:xlink="http://www.w3.org/1999/xlink">
    <!-- Generator: Sketch 59.1 (86144) - https://sketch.com -->
    <title>主机工作</title>
    <desc>Created with Sketch.</desc>
    <defs>
        <linearGradient x1="61.5645064%" y1="-28.7259615%" x2="61.5645064%" y2="100%" id="linearGradient-1">
            <stop stop-color="#00F0FF" offset="0%"></stop>
            <stop stop-color="#5A6CF3" offset="100%"></stop>
        </linearGradient>
        <path d="M122.239914,1.37944073 C88.8028435,23.8246854 50.0778822,36.9503859 9.99145297,39.425694 C4.59605581,39.425694 0.222222222,43.8386183 0.222222222,49.2822363 L0.222222222,114.631112 C0.219246395,190.810336 51.6071507,257.214389 124.858068,275.687014 C126.460005,276.104329 128.140747,276.104329 129.742684,275.687014 L134.627299,274.366237 C205.395802,254.073163 254.222222,188.859881 254.222222,114.631112 L254.222222,49.2822363 C254.222222,43.8386183 249.848389,39.425694 244.452991,39.425694 C221.925145,39.425694 183.883761,26.6516152 131.481607,0.985179102 C128.530646,-0.456396659 125.059729,-0.308323222 122.239914,1.37944073 Z" id="path-2"></path>
        <filter x="-60.2%" y="-53.3%" width="220.5%" height="210.9%" filterUnits="objectBoundingBox" id="filter-3">
            <feOffset dx="0" dy="6" in="SourceAlpha" result="shadowOffsetOuter1"></feOffset>
            <feGaussianBlur stdDeviation="50" in="shadowOffsetOuter1" result="shadowBlurOuter1"></feGaussianBlur>
            <feColorMatrix values="0 0 0 0 0.125490196   0 0 0 0 0.127812629   0 0 0 0 0.129411765  0 0 0 0.1 0" type="matrix" in="shadowBlurOuter1"></feColorMatrix>
        </filter>
        <linearGradient x1="61.5645064%" y1="-28.7259615%" x2="61.5645064%" y2="100%" id="linearGradient-4">
            <stop stop-color="#00F0FF" offset="0%"></stop>
            <stop stop-color="#5A6CF3" offset="100%"></stop>
        </linearGradient>
        <rect id="path-5" x="111" y="121" width="5.44444444" height="50"></rect>
        <filter x="-2810.2%" y="-294.0%" width="5720.4%" height="712.0%" filterUnits="objectBoundingBox" id="filter-6">
            <feOffset dx="0" dy="6" in="SourceAlpha" result="shadowOffsetOuter1"></feOffset>
            <feGaussianBlur stdDeviation="50" in="shadowOffsetOuter1" result="shadowBlurOuter1"></feGaussianBlur>
            <feColorMatrix values="0 0 0 0 0.125490196   0 0 0 0 0.127812629   0 0 0 0 0.129411765  0 0 0 0.1 0" type="matrix" in="shadowBlurOuter1"></feColorMatrix>
        </filter>
        <linearGradient x1="61.5645064%" y1="-28.7259615%" x2="61.5645064%" y2="100%" id="linearGradient-7">
            <stop stop-color="#00F0FF" offset="0%"></stop>
            <stop stop-color="#5A6CF3" offset="100%"></stop>
        </linearGradient>
        <rect id="path-8" x="141" y="121" width="6" height="50"></rect>
        <filter x="-2550.0%" y="-294.0%" width="5200.0%" height="712.0%" filterUnits="objectBoundingBox" id="filter-9">
            <feOffset dx="0" dy="6" in="SourceAlpha" result="shadowOffsetOuter1"></feOffset>
            <feGaussianBlur stdDeviation="50" in="shadowOffsetOuter1" result="shadowBlurOuter1"></feGaussianBlur>
            <feColorMatrix values="0 0 0 0 0.125490196   0 0 0 0 0.127812629   0 0 0 0 0.129411765  0 0 0 0.1 0" type="matrix" in="shadowBlurOuter1"></feColorMatrix>
        </filter>
    </defs>
    <g id="页面-1" stroke="none" stroke-width="1" fill="none" fill-rule="evenodd">
        <g id="切图暗色" transform="translate(-382.000000, -1779.000000)">
            <g id="编组" transform="translate(38.000000, 96.000000)">
                <g id="主机工作" transform="translate(344.000000, 1683.000000)">
                    <g id="路径">
                        <use fill="black" fill-opacity="1" filter="url(#filter-3)" xlink:href="#path-2"></use>
                        <use fill="url(#linearGradient-1)" fill-rule="evenodd" xlink:href="#path-2"></use>
                    </g>
                    <path d="M92,124 L92,167.895149 C92,170.656573 94.2385763,172.895149 97,172.895149 L161.963253,172.895149 C164.724677,172.895149 166.963253,170.656573 166.963253,167.895149 L166.963253,124 C166.963253,121.238576 164.724677,119 161.963253,119 L97,119 C94.2385763,119 92,121.238576 92,124 Z" id="路径" fill="#2A3643" fill-rule="nonzero"></path>
                    <path d="M132.19186,101 L125.860465,101 C117.673648,101 111.028827,107.534158 111,115.613091 L111,172 L147,172 L147,115.613091 C147,107.542504 140.37017,101 132.19186,101 Z M141,169 L117,169 L117,115.11157 C116.986274,112.708828 117.929441,110.399 119.622159,108.69024 C121.314876,106.981481 123.618479,106.013769 126.026181,106 L131.869623,106 C136.912191,106 141,110.079389 141,115.11157 L141,169 Z" id="形状" fill="#2A3643" fill-rule="nonzero"></path>
                    <g id="矩形">
                        <use fill="black" fill-opacity="1" filter="url(#filter-6)" xlink:href="#path-5"></use>
                        <use fill="url(#linearGradient-4)" fill-rule="evenodd" xlink:href="#path-5"></use>
                    </g>
                    <g id="矩形备份">
                        <use fill="black" fill-opacity="1" filter="url(#filter-9)" xlink:href="#path-8"></use>
                        <use fill="url(#linearGradient-7)" fill-rule="evenodd" xlink:href="#path-8"></use>
                    </g>
                </g>
            </g>
        </g>
    </g>
</svg>