<?xml version="1.0" encoding="UTF-8"?>
<svg width="80px" height="77px" viewBox="0 0 80 77" version="1.1" xmlns="http://www.w3.org/2000/svg" xmlns:xlink="http://www.w3.org/1999/xlink">
    <title>5-1-定时-选中</title>
    <defs>
        <path d="M173.492665,2104 C173.492665,2123.32827 157.820789,2139 138.473986,2139 C119.127182,2139 103.492665,2123.32739 103.492665,2104 C103.492665,2084.67261 119.127182,2069 138.473986,2069 C157.820789,2069 173.493533,2084.67173 173.492665,2104 L173.492665,2104 Z M138.081092,2085 C136.106947,2085 134.506587,2086.60036 134.506587,2088.57451 L134.506587,2108.30722 L134.506587,2108.30722 L134.492665,2108.33046 L151.841262,2118.24126 C153.546011,2119.21513 155.7171,2118.63323 156.706282,2116.93732 C157.684071,2115.26094 157.11775,2113.10931 155.44137,2112.13152 C155.432301,2112.12623 155.42321,2112.12098 155.414095,2112.11577 L141.655597,2104.25521 L141.655597,2104.25521 L141.655597,2088.57451 C141.655597,2086.60036 140.055237,2085 138.081092,2085 Z M121.127745,2063.57129 C122.530157,2065.36364 122.21405,2067.95351 120.4217,2069.35592 C120.420146,2069.35714 120.418591,2069.35835 120.417035,2069.35956 L106.672143,2080.08236 C104.874445,2081.4848 102.280568,2081.16631 100.87555,2079.37063 C99.4731378,2077.57828 99.7892449,2074.98842 101.581595,2073.586 C101.583149,2073.58479 101.584704,2073.58357 101.586259,2073.58236 L115.331152,2062.85956 C117.128849,2061.45712 119.722727,2061.77561 121.127745,2063.57129 Z M156.871777,2063.57129 C155.469365,2065.36364 155.785472,2067.95351 157.577822,2069.35592 C157.579376,2069.35714 157.580931,2069.35835 157.582487,2069.35956 L171.327379,2080.08236 C173.125077,2081.4848 175.718954,2081.16631 177.123972,2079.37063 C178.526384,2077.57828 178.210277,2074.98842 176.417927,2073.586 C176.416373,2073.58479 176.414818,2073.58357 176.413263,2073.58236 L162.66837,2062.85956 C160.870672,2061.45712 158.276795,2061.77561 156.871777,2063.57129 Z" id="path-1"></path>
        <filter x="-196.2%" y="-190.9%" width="492.3%" height="497.3%" filterUnits="objectBoundingBox" id="filter-2">
            <feOffset dx="0" dy="6" in="SourceAlpha" result="shadowOffsetOuter1"></feOffset>
            <feGaussianBlur stdDeviation="50" in="shadowOffsetOuter1" result="shadowBlurOuter1"></feGaussianBlur>
            <feColorMatrix values="0 0 0 0 0.125490196   0 0 0 0 0.127812629   0 0 0 0 0.129411765  0 0 0 0.1 0" type="matrix" in="shadowBlurOuter1"></feColorMatrix>
        </filter>
    </defs>
    <g id="页面-1" stroke="none" stroke-width="1" fill="none" fill-rule="evenodd">
        <g id="切图" transform="translate(-203.000000, -2214.000000)">
            <g id="形状" transform="translate(104.000000, 152.000000)">
                <use fill="black" fill-opacity="1" filter="url(#filter-2)" xlink:href="#path-1"></use>
                <use fill="#FFA802" fill-rule="evenodd" xlink:href="#path-1"></use>
            </g>
        </g>
    </g>
</svg>
