<svg width="32" height="32" viewBox="0 0 32 32" fill="none" xmlns="http://www.w3.org/2000/svg">
<g clip-path="url(#clip0_3240_13286)">
<path d="M27.6476 0C29.5036 0 31.1676 1.184 31.7756 2.976C32.3836 4.768 31.7756 6.72 30.2716 7.84C28.8316 5.28 26.7196 3.168 24.1916 1.728C24.9916 0.64 26.2716 0 27.6476 0ZM3.42356 0.096C5.11956 -0.256 6.87956 0.416 7.87156 1.824C5.34356 3.296 3.29556 5.408 1.85556 7.968C0.447561 6.944 -0.256439 5.216 0.0955609 3.52C0.415561 1.792 1.72756 0.48 3.42356 0.096ZM15.2316 7.872C14.8476 7.84 14.4316 7.936 14.1436 8.224C13.8556 8.48 13.6636 8.864 13.6636 9.28V17.664C13.6636 18.144 14.0476 18.528 14.5276 18.528H20.8636C21.2796 18.528 21.6636 18.368 21.9196 18.048C22.1756 17.76 22.3036 17.344 22.2716 16.96C22.1756 16.256 21.5676 15.712 20.8316 15.712H16.4476V9.312C16.4476 8.576 15.9356 7.968 15.2316 7.872ZM16.1276 1.6C22.1116 1.6 27.4876 5.376 29.5356 11.04C31.5836 16.704 29.9196 23.04 25.3436 26.944L27.6476 29.248C28.2876 29.888 28.2876 30.88 27.6476 31.52C27.3596 31.808 26.9436 32 26.5276 32C26.1116 32 25.6956 31.84 25.4076 31.52L22.6556 28.768C18.5276 30.912 13.6316 30.88 9.50356 28.736L6.71956 31.52C6.43156 31.808 6.01556 32 5.59956 32C5.18356 32 4.76756 31.84 4.47956 31.52C3.83956 30.88 3.83956 29.888 4.47956 29.248L6.81556 26.912C2.20756 22.976 0.575561 16.64 2.65556 10.976C4.73556 5.344 10.1116 1.6 16.1276 1.6Z" fill="#F2A56B"/>
</g>
<defs>
<clipPath id="clip0_3240_13286">
<rect width="32" height="32" fill="white"/>
</clipPath>
</defs>
</svg>
