<svg width="16" height="16" viewBox="0 0 16 16" fill="none" xmlns="http://www.w3.org/2000/svg">
<g opacity="0.5" clip-path="url(#clip0_1530_2435)">
<path d="M7.99991 0C3.59996 0 0 3.59996 0 7.99991C0 12.3999 3.59996 15.9998 7.99991 15.9998C8.19914 16.003 8.39698 15.966 8.58166 15.8912C8.76635 15.8164 8.93412 15.7053 9.07502 15.5644C9.21591 15.4235 9.32706 15.2557 9.40186 15.071C9.47666 14.8864 9.51358 14.6885 9.51044 14.4893C9.51044 14.1446 9.39844 13.8202 9.18608 13.5657L9.10172 13.4733C9.00943 13.3789 8.93683 13.2671 8.88814 13.1443C8.83945 13.0216 8.81563 12.8904 8.81808 12.7584C8.81808 12.1671 9.24717 11.7111 9.83043 11.6762L9.9257 11.6733H11.4602C13.9577 11.6733 15.9998 9.63116 15.9998 7.13519C15.9998 3.25596 12.5002 0.103999 8.21518 0.0021818L7.99991 0ZM7.99991 1.45453C11.6166 1.45453 14.5453 4.03923 14.5453 7.13446C14.5453 8.82826 13.154 10.2195 11.461 10.2195H9.90316L9.76498 10.2232C8.39263 10.3053 7.36428 11.3977 7.36428 12.7584C7.36428 13.3657 7.57519 13.9388 7.96282 14.3831L8.05736 14.4849C8.05591 14.5387 8.05009 14.5453 7.99991 14.5453C4.40286 14.5453 1.45453 11.597 1.45453 7.99991C1.45453 4.46686 4.29813 1.55998 7.80791 1.45744L7.99991 1.45453Z" fill="#1D2C3E"/>
<path d="M3.99995 5.81824C3.3716 5.81824 2.90906 6.28078 2.90906 6.90913C2.90906 7.53749 3.3716 8.00003 3.99995 8.00003C4.62831 8.00003 5.09085 7.53676 5.09085 6.90913C5.09085 6.28005 4.62904 5.81824 3.99995 5.81824ZM7.99991 2.90918C7.37082 2.90918 6.90901 3.37172 6.90901 4.00008C6.90901 4.62843 7.37155 5.09097 7.99991 5.09097C8.62826 5.09097 9.09081 4.62843 9.09081 4.00008C9.09081 3.37172 8.62899 2.90918 7.99991 2.90918ZM11.9999 5.81824C11.3715 5.81824 10.909 6.28078 10.909 6.90913C10.909 7.53749 11.3715 8.00003 11.9999 8.00003C12.6282 8.00003 13.0908 7.53749 13.0908 6.90913C13.0908 6.28078 12.6282 5.81824 11.9999 5.81824Z" fill="#1D2C3E"/>
</g>
<defs>
<clipPath id="clip0_1530_2435">
<rect width="16" height="16" fill="white"/>
</clipPath>
</defs>
</svg>
