<svg xmlns="http://www.w3.org/2000/svg" viewBox="0 0 60 48" class="design-iconfont">
  <g fill="none" fill-rule="evenodd">
    <path d="M13.2481447,13.1775495 L20.6503752,22.7353745 C21.6318626,24.0026797 23.4362173,24.2745396 24.747542,23.3526895 L28.9768167,20.3795455 C30.0119328,19.6518677 31.3923225,19.6518677 32.4274386,20.3795455 L37.7253109,24.1039045 C38.5244257,24.6656753 39,25.5813295 39,26.5581462 L39,32 C39,33.6568542 37.6568542,35 36,35 L3,35 C1.34314575,35 2.02906125e-16,33.6568542 0,32 L0,25 L0,25 L8.44070327,13.2629274 C9.40805693,11.9177907 11.2827008,11.611537 12.6278376,12.5788906 C12.8623495,12.7475396 13.0712751,12.9491738 13.2481447,13.1775495 Z" fill="#DDE0E5" transform="translate(8 5)"/>
    <path d="M3,0 L36,0 C37.6568542,-3.04359188e-16 39,1.34314575 39,3 L39,32 C39,33.6568542 37.6568542,35 36,35 L3,35 C1.34314575,35 2.02906125e-16,33.6568542 0,32 L0,3 C-2.02906125e-16,1.34314575 1.34314575,2.08071603e-15 3,0 Z" stroke="#CDD2DA" stroke-width="2" transform="translate(8 5)"/>
    <g stroke="#CDD2DA" stroke-width="2">
      <path fill="#EDEFF2" d="M10.9322034 0.7288136000000005A10 10 0 1 0 10.9322034 20.728813600000002A10 10 0 1 0 10.9322034 0.7288136000000005Z" transform="translate(36.067797 22.271186)"/>
      <path stroke-linecap="round" d="M10.9322034 5.72881356L10.9322034 11.7288136" transform="translate(36.067797 22.271186)"/>
      <path stroke-linecap="round" d="M10.9322034 14.7288136L10.9322034 15.7288136" transform="translate(36.067797 22.271186)"/>
    </g>
  </g>
</svg>
