<?xml version="1.0" encoding="UTF-8"?>
<svg width="36px" height="36px" viewBox="0 0 36 36" version="1.1" xmlns="http://www.w3.org/2000/svg" xmlns:xlink="http://www.w3.org/1999/xlink">
    <!-- Generator: Sketch 63.1 (92452) - https://sketch.com -->
    <title>icon/添加</title>
    <desc>Created with Sketch.</desc>
    <g id="icon/添加" stroke="none" stroke-width="1" fill="none" fill-rule="evenodd">
        <g fill="#0066FF" id="形状结合">
            <path d="M17.5,4 C18.3284271,4 19,4.67157288 19,5.5 L19,16 L29.5,16 C30.3284271,16 31,16.6715729 31,17.5 C31,18.3284271 30.3284271,19 29.5,19 L19,19 L19,29.5 C19,30.3284271 18.3284271,31 17.5,31 C16.6715729,31 16,30.3284271 16,29.5 L16,19 L5.5,19 C4.67157288,19 4,18.3284271 4,17.5 C4,16.6715729 4.67157288,16 5.5,16 L16,16 L16,5.5 C16,4.67157288 16.6715729,4 17.5,4 Z"></path>
        </g>
    </g>
</svg>