<?xml version="1.0" encoding="UTF-8"?>
<svg width="37px" height="39px" viewBox="0 0 37 39" version="1.1" xmlns="http://www.w3.org/2000/svg" xmlns:xlink="http://www.w3.org/1999/xlink">
    <!-- Generator: Sketch 63.1 (92452) - https://sketch.com -->
    <title>编组 6</title>
    <desc>Created with Sketch.</desc>
    <g id="标准控制面板" stroke="none" stroke-width="1" fill="none" fill-rule="evenodd">
        <g id="切图-标准控制面板" transform="translate(-295.000000, -599.000000)" fill="#FFFFFF" fill-rule="nonzero">
            <g id="编组-2" transform="translate(290.000000, 595.000000)">
                <g id="编组-6" transform="translate(5.000000, 4.000000)">
                    <path d="M8.85687621,7.01953919 C9.39836977,7.6464971 9.32908722,8.59371417 8.7021293,9.13520773 C5.42068666,11.9693374 3.5,16.075269 3.5,20.4962794 C3.5,28.7826812 10.2158045,35.5 18.5,35.5 C26.7841955,35.5 33.5,28.7826812 33.5,20.4962794 C33.5,16.0877344 31.590214,11.9922656 28.3247527,9.15848062 C27.6990721,8.61551164 27.6320211,7.66813398 28.1749901,7.04245341 C28.7179591,6.41677283 29.6653367,6.34972183 30.2910173,6.89269081 C34.206339,10.2904281 36.5,15.2091034 36.5,20.4962794 C36.5,30.439384 28.4412012,38.5 18.5,38.5 C8.55879878,38.5 0.5,30.439384 0.5,20.4962794 C0.5,15.1941371 2.80673524,10.2629334 6.74120767,6.86479227 C7.36816559,6.32329871 8.31538266,6.39258127 8.85687621,7.01953919 Z M18.5,-3.41060513e-13 C19.3284271,-3.41212693e-13 20,0.671572875 20,1.5 L20,15.5 C20,16.3284271 19.3284271,17 18.5,17 C17.6715729,17 17,16.3284271 17,15.5 L17,1.5 C17,0.671572875 17.6715729,-3.40908334e-13 18.5,-3.41060513e-13 Z" id="形状结合"></path>
                </g>
            </g>
        </g>
    </g>
</svg>