<?xml version="1.0" encoding="UTF-8"?>
<svg width="83px" height="83px" viewBox="0 0 83 83" version="1.1" xmlns="http://www.w3.org/2000/svg" xmlns:xlink="http://www.w3.org/1999/xlink">
    <title>5-1-报警-未选中</title>
    <g id="页面-1" stroke="none" stroke-width="1" fill="none" fill-rule="evenodd">
        <g id="切图" transform="translate(-131.000000, -1956.000000)" fill="#C2C5CB" fill-rule="nonzero">
            <g id="编组" transform="translate(41.000000, 103.000000)">
                <path d="M158.542182,1932.32822 C157.836373,1931.62305 156.927745,1931.12051 155.913651,1930.91787 C155.305195,1930.79629 154.867106,1930.27754 154.867106,1929.66152 L154.867106,1899.86582 C154.867106,1886.97813 144.312418,1876.29512 131.413146,1876.34358 C118.554437,1876.39238 108.137666,1886.82412 108.137666,1899.6875 L108.137666,1929.66152 C108.137666,1930.27754 107.699577,1930.79629 107.091121,1930.91787 C104.722198,1931.4042 102.945505,1933.49541 102.945505,1936 L160.059266,1936 C160.059266,1934.56533 159.475148,1933.26846 158.542182,1932.32822 Z M135.988737,1890.60938 L134.414863,1904.65615 L140.588666,1904.65615 L127.024148,1924.32812 L128.598021,1910.28135 L122.416106,1910.28135 L135.988737,1890.60938 Z M131.502386,1869.85938 C130.066429,1869.85938 128.906306,1868.70029 128.906306,1867.26562 L128.906306,1855.59375 C128.906306,1854.15908 130.066429,1853 131.502386,1853 C132.938343,1853 134.098466,1854.15908 134.098466,1855.59375 L134.098466,1867.26562 C134.098466,1868.70029 132.938343,1869.85938 131.502386,1869.85938 Z M112.680806,1877.00029 C111.439555,1877.71357 109.849456,1877.29209 109.135534,1876.05195 L103.294354,1865.94443 C102.580432,1864.7043 103.002295,1863.11562 104.243545,1862.40234 C105.484796,1861.68906 107.074895,1862.11055 107.788817,1863.35068 L113.629997,1873.4582 C114.343919,1874.69834 113.922056,1876.27891 112.680806,1877.00029 Z M150.323966,1877.00029 C151.565217,1877.71357 153.155316,1877.29209 153.869238,1876.05195 L159.710418,1865.94443 C160.42434,1864.7043 160.002477,1863.11562 158.761226,1862.40234 C157.519975,1861.68906 155.929876,1862.11055 155.215954,1863.35068 L149.374774,1873.4582 C148.660852,1874.69834 149.082715,1876.27891 150.323966,1877.00029 Z M106.393424,1889.06123 C106.020238,1890.44727 104.600506,1891.26592 103.213226,1890.89307 L91.9283908,1887.87783 C90.5411105,1887.50498 89.7217228,1886.08652 90.0867965,1884.70049 C90.459983,1883.31445 91.8797143,1882.4958 93.2669946,1882.86865 L104.55183,1885.89199 C105.93911,1886.25674 106.758498,1887.6752 106.393424,1889.06123 L106.393424,1889.06123 Z M156.611347,1889.06123 C156.984534,1890.44727 158.404265,1891.26592 159.791545,1890.89307 L171.076381,1887.86973 C172.463661,1887.49688 173.283049,1886.07842 172.909862,1884.69238 C172.536676,1883.30635 171.116945,1882.4877 169.729664,1882.86055 L158.444829,1885.88389 C157.065661,1886.25674 156.246274,1887.6752 156.611347,1889.06123 Z" id="形状"></path>
            </g>
        </g>
    </g>
</svg>