<svg width="44" height="76" viewBox="0 0 44 76" fill="none" xmlns="http://www.w3.org/2000/svg">
<path d="M0 74L5.51798 75.6986L4.23003 70.0706L0 74ZM3.01673 73.8119C3.66283 73.6577 4.30747 73.5009 4.95013 73.3409L4.70856 72.3705C4.06939 72.5297 3.42792 72.6857 2.78464 72.8392L3.01673 73.8119ZM6.87929 72.8488C7.52319 72.6804 8.16458 72.508 8.80289 72.3313L8.53606 71.3676C7.90266 71.5429 7.26586 71.714 6.62617 71.8814L6.87929 72.8488ZM10.7194 71.7839C11.3591 71.5953 11.9951 71.4016 12.627 71.2021L12.3258 70.2485C11.7005 70.4459 11.0706 70.6378 10.4366 70.8248L10.7194 71.7839ZM14.5235 70.5808C15.1562 70.3656 15.784 70.1439 16.4063 69.915L16.0611 68.9765C15.4469 69.2024 14.8269 69.4214 14.2016 69.634L14.5235 70.5808ZM18.2725 69.1992C18.8943 68.9506 19.5097 68.6937 20.1183 68.428L19.7181 67.5116C19.1196 67.7729 18.5137 68.0257 17.9012 68.2707L18.2725 69.1992ZM21.9393 67.5956C22.5443 67.306 23.1415 67.0065 23.7302 66.6963L23.2641 65.8116C22.6872 66.1155 22.1015 66.4093 21.5075 66.6936L21.9393 67.5956ZM25.4851 65.7245C26.0653 65.3868 26.6362 65.0372 27.1969 64.6751L26.6544 63.8351C26.1071 64.1885 25.5494 64.53 24.982 64.8603L25.4851 65.7245ZM28.8576 63.5435C29.4026 63.1516 29.9366 62.7461 30.4587 62.3263L29.8321 61.547C29.3243 61.9552 28.8047 62.3499 28.2738 62.7317L28.8576 63.5435ZM31.991 61.0212C32.4886 60.5721 32.9735 60.108 33.4453 59.628L32.732 58.9271C32.2746 59.3925 31.804 59.8429 31.321 60.2789L31.991 61.0212ZM34.8125 58.1481C35.2505 57.6434 35.6749 57.1227 36.0849 56.5851L35.2898 55.9787C34.8927 56.4993 34.4816 57.0037 34.0573 57.4926L34.8125 58.1481ZM37.2557 54.9447C37.625 54.391 37.9801 53.8209 38.3205 53.2339L37.4554 52.7323C37.1255 53.3013 36.7815 53.8535 36.4238 54.3898L37.2557 54.9447ZM39.2767 51.4609C39.5735 50.8682 39.8561 50.2595 40.1242 49.6343L39.2052 49.2402C38.9448 49.8475 38.6704 50.4383 38.3825 51.0133L39.2767 51.4609ZM40.8648 47.7625C41.0907 47.1413 41.3032 46.5049 41.5019 45.853L40.5453 45.5616C40.3517 46.1968 40.1448 46.8164 39.925 47.4207L40.8648 47.7625ZM42.0401 43.912C42.2 43.2747 42.3474 42.6233 42.4821 41.9576L41.502 41.7594C41.3703 42.4103 41.2262 43.0465 41.0701 43.6687L42.0401 43.912ZM42.8361 39.989C42.9385 39.3408 43.0295 38.6798 43.1087 38.0056L42.1156 37.8888C42.0378 38.5502 41.9487 39.1981 41.8483 39.8329L42.8361 39.989ZM43.3058 36.0081C43.3585 35.3515 43.4007 34.6831 43.4321 34.0026L42.4332 33.9566C42.4023 34.626 42.3608 35.283 42.309 35.928L43.3058 36.0081ZM43.4924 32.0155C43.4975 31.6798 43.5 31.3413 43.5 31H42.5C42.5 31.3364 42.4975 31.6699 42.4926 32.0005L43.4924 32.0155ZM43.5 31C43.5 30.6544 43.4966 30.3122 43.4898 29.9733L42.49 29.9933C42.4966 30.3255 42.5 30.661 42.5 31H43.5ZM43.4073 27.9413C43.3647 27.2505 43.3077 26.5746 43.2371 25.9134L42.2427 26.0196C42.3117 26.6658 42.3675 27.3268 42.4092 28.0029L43.4073 27.9413ZM42.9729 23.8946C42.8663 23.2098 42.7446 22.542 42.6088 21.8911L41.6299 22.0954C41.7622 22.7294 41.8808 23.3803 41.9848 24.0483L42.9729 23.8946ZM42.1387 19.9095C41.959 19.2358 41.7635 18.5819 41.5536 17.9474L40.6042 18.2615C40.8079 18.8772 40.9978 19.5123 41.1725 20.1673L42.1387 19.9095ZM40.8514 16.0264C40.5923 15.3812 40.3176 14.7585 40.029 14.1578L39.1277 14.5909C39.4067 15.1716 39.6725 15.7742 39.9235 16.3991L40.8514 16.0264ZM39.0772 12.3405C38.732 11.7344 38.3724 11.1542 38.0004 10.5993L37.1697 11.1562C37.5282 11.6909 37.8751 12.2504 38.2082 12.8354L39.0772 12.3405ZM36.7933 8.9385C36.3612 8.38966 35.9171 7.8703 35.4636 7.37965L34.7292 8.05837C35.1648 8.52972 35.5918 9.02902 36.0075 9.55705L36.7933 8.9385ZM34.007 5.92757C33.4892 5.45243 32.9636 5.01119 32.4339 4.60281L31.8233 5.39473C32.3305 5.78577 32.8342 6.20865 33.331 6.66442L34.007 5.92757ZM30.7503 3.41992C30.1529 3.03922 29.5552 2.69822 28.9625 2.39551L28.5077 3.28609C29.072 3.57431 29.6422 3.89953 30.213 4.26325L30.7503 3.41992ZM27.0779 1.55149C26.4045 1.29176 25.7448 1.082 25.1071 0.920164L24.8611 1.88944C25.4587 2.04109 26.0804 2.23856 26.7181 2.4845L27.0779 1.55149ZM23.0489 0.552944C22.6872 0.517564 22.3368 0.5 22 0.5V1.5C22.3022 1.5 22.62 1.51577 22.9516 1.5482L23.0489 0.552944Z" fill="#6C8FB1"/>
</svg>
