<svg width="24" height="24" viewBox="0 0 24 24" fill="none" xmlns="http://www.w3.org/2000/svg">
<circle cx="12" cy="12" r="12" fill="#D83939"/>
<path d="M12.176 6C11.6311 6 11.1964 6.45467 11.2209 6.99899L11.5156 13.5606C11.5315 13.9138 11.8225 14.192 12.176 14.192C12.5295 14.192 12.8205 13.9138 12.8364 13.5606L13.1311 6.99899C13.1556 6.45467 12.7209 6 12.176 6ZM12.168 15.136C11.848 15.136 11.576 15.232 11.352 15.456C11.112 15.664 11 15.936 11 16.272C11 16.592 11.112 16.864 11.352 17.088C11.576 17.312 11.848 17.424 12.168 17.424C12.488 17.424 12.776 17.312 13.016 17.104C13.24 16.88 13.352 16.608 13.352 16.272C13.352 15.936 13.24 15.664 13.016 15.456C12.792 15.232 12.504 15.136 12.168 15.136Z" fill="white"/>
</svg>
