<svg width="72" height="72" viewBox="0 0 72 72" fill="none" xmlns="http://www.w3.org/2000/svg">
<path d="M10.3338 9.85355H20.8496V15.729C18.214 16.8683 16.1685 19.06 15.2175 21.7808C14.2286 24.6098 14.522 27.7286 16.0208 30.3233L22.5122 41.5638L25.3609 63.203L25.361 63.2033C25.4246 63.6837 25.6056 64.1409 25.888 64.5346C26.1704 64.9283 26.5454 65.2463 26.98 65.4606C27.4146 65.6748 27.8953 65.7786 28.3795 65.7628C28.8638 65.7471 29.3367 65.6122 29.7564 65.3701L29.7566 65.37L57.33 49.4514C57.3301 49.4514 57.3302 49.4513 57.3303 49.4513C57.7504 49.2091 58.1043 48.8669 58.3605 48.4552C58.6168 48.0434 58.7675 47.5746 58.7992 47.0906L58.7992 47.0905C58.8308 46.6066 58.7426 46.1223 58.5423 45.6805C58.3421 45.2388 58.036 44.8533 57.6511 44.5582C57.6511 44.5582 57.6511 44.5581 57.6511 44.5581L40.3369 31.2762L33.8455 20.0331C31.8862 16.637 28.1781 14.664 24.2972 14.904V9.85496H32.3655C33.318 9.85496 34.0896 9.08337 34.0896 8.13082C34.0896 7.35213 33.5736 6.69458 32.8655 6.48032V6.40527H32.3655H10.3338C9.38121 6.40527 8.60962 7.17687 8.60962 8.12941C8.60962 9.08215 9.3821 9.85355 10.3338 9.85355ZM41.1782 40.1071L41.1781 40.107C40.3974 39.5611 39.3222 39.7525 38.7767 40.5326C38.2308 41.3133 38.4223 42.3885 39.2023 42.9339L45.2166 47.1441L45.2167 47.1442C45.9977 47.6906 47.0729 47.5005 47.6194 46.7204L47.6195 46.7202C48.1659 45.9392 47.9759 44.864 47.1958 44.3176L47.1956 44.3174L41.1782 40.1071ZM30.8602 21.7563L30.8602 21.7564L36.7302 31.9229L24.8767 38.7644L19.0067 28.5998C19.0067 28.5998 19.0067 28.5998 19.0067 28.5998C17.117 25.3268 18.2387 21.1411 21.5117 19.2513C24.7847 17.3616 28.9705 18.4827 30.8602 21.7563ZM28.6798 62.0106L26.055 42.0681L38.9995 34.5953L54.9574 46.8401L28.6798 62.0106Z" fill="#30414D" stroke="#30414D"/>
</svg>
