<svg width="72" height="72" viewBox="0 0 72 72" fill="none" xmlns="http://www.w3.org/2000/svg">
<g clip-path="url(#clip0_521_1217)">
<path d="M36.0003 69.8873C29.2979 69.8873 22.746 67.8998 17.1732 64.1762C11.6003 60.4525 7.25679 55.1599 4.69189 48.9677C2.12699 42.7755 1.45589 35.9618 2.76347 29.3881C4.07104 22.8145 7.29856 16.7762 12.0379 12.0369C16.7772 7.29759 22.8155 4.07007 29.3891 2.76249C35.9627 1.45492 42.7765 2.12601 48.9687 4.69091C55.1609 7.25582 60.4535 11.5993 64.1772 17.1722C67.9008 22.745 69.8883 29.2969 69.8883 35.9993C69.882 44.9851 66.3096 53.6009 59.9557 59.9548C53.6019 66.3086 44.986 69.881 36.0003 69.8873Z" fill="#26313D"/>
<path d="M36 4.224C42.2847 4.224 48.4283 6.08763 53.6538 9.57922C58.8794 13.0708 62.9522 18.0335 65.3572 23.8399C67.7623 29.6462 68.3915 36.0352 67.1655 42.1992C65.9394 48.3631 62.913 54.0251 58.469 58.469C54.0251 62.913 48.3631 65.9393 42.1992 67.1654C36.0353 68.3915 29.6462 67.7622 23.8399 65.3572C18.0336 62.9521 13.0708 58.8793 9.57924 53.6538C6.08765 48.4283 4.22402 42.2847 4.22402 36C4.22402 27.5725 7.57184 19.4901 13.531 13.531C19.4901 7.57182 27.5725 4.224 36 4.224ZM36 0C28.8799 0 21.9197 2.11136 15.9995 6.06709C10.0793 10.0228 5.46511 15.6453 2.74035 22.2234C0.0155981 28.8015 -0.697322 36.0399 0.691746 43.0233C2.08081 50.0066 5.50948 56.4212 10.5442 61.4558C15.5789 66.4905 21.9935 69.9192 28.9768 71.3083C35.9601 72.6973 43.1985 71.9844 49.7766 69.2597C56.3548 66.5349 61.9772 61.9207 65.9329 56.0005C69.8887 50.0804 72 43.1201 72 36C72 26.4522 68.2072 17.2955 61.4559 10.5442C54.7046 3.79285 45.5478 0 36 0V0Z" fill="#26313D"/>
<path d="M55.8479 53.0887C55.6113 52.7536 55.3549 52.433 55.0799 52.1287C54.8255 51.8388 54.5442 51.5736 54.2399 51.3367L53.4959 50.7607C53.3205 50.6224 53.1266 50.5093 52.9199 50.4247L52.7999 50.4007L48.6959 47.7127C48.0793 47.3125 47.4381 46.9517 46.7759 46.6327L41.2319 43.9447V41.3047C42.7662 40.3884 44.0455 39.1009 44.9519 37.5607C45.7919 35.9549 46.2749 34.1865 46.3679 32.3767V30.3607C46.4296 29.1573 46.3652 27.9507 46.1759 26.7607L46.0079 25.6087C45.9732 22.6224 44.7967 19.7628 42.7199 17.6167C41.6884 16.5092 40.4159 15.6539 39.0009 15.1171C37.5859 14.5802 36.0664 14.3761 34.5599 14.5207C33.4549 14.6514 32.387 15.001 31.4187 15.5491C30.4503 16.0972 29.6008 16.8327 28.9199 17.7127C27.1188 19.9325 25.9941 22.6234 25.6799 25.4647C25.6799 25.4647 25.4639 29.1607 25.4879 29.6167L25.6799 32.2087C25.8756 33.9978 26.3451 35.7462 27.0719 37.3927C27.9245 38.9817 29.2268 40.284 30.8159 41.1367V43.7767L25.2959 46.5127C24.8799 46.7207 24.4719 46.9527 24.0719 47.2087L19.1999 50.4007L18.7919 50.6407C18.4626 50.8484 18.1497 51.0811 17.8559 51.3367C17.4326 51.6786 17.0392 52.056 16.6799 52.4647C16.3091 52.895 15.9946 53.3709 15.7439 53.8807C15.462 54.4741 15.3445 55.1323 15.4036 55.7866C15.4627 56.4409 15.6962 57.0674 16.0799 57.6007C17.6605 58.9646 19.4111 60.1182 21.2879 61.0327C26.3488 63.9655 32.1558 65.3575 37.9964 65.0377C43.837 64.718 49.4573 62.7005 54.1679 59.2327C54.8159 58.7704 55.3974 58.2213 55.8959 57.6007C56.3834 56.9684 56.6453 56.1911 56.6399 55.3927C56.6407 54.9673 56.5676 54.545 56.4239 54.1447C56.2769 53.7699 56.0834 53.4151 55.8479 53.0887Z" fill="white"/>
</g>
<defs>
<clipPath id="clip0_521_1217">
<rect width="72" height="72" fill="white"/>
</clipPath>
</defs>
</svg>
