<svg width="154" height="145" viewBox="0 0 154 145" fill="none" xmlns="http://www.w3.org/2000/svg">
<path d="M134.007 66.0168V61.6435C134.007 23.1625 108.646 2.1748 77.1533 2.1748C45.6608 2.1748 20.2998 23.1625 20.2998 61.6435V67.775C20.2998 69.5331 20.2998 70.3902 21.1789 71.2692C24.6951 107.135 48.298 142.1 77.1533 142.1C106.009 142.1 129.633 106.234 133.128 71.2692C134.007 69.5111 134.007 68.654 134.007 67.775V66.0168ZM81.5266 80.895V54.6549C108.646 55.534 123.502 62.5225 125.26 66.8959V67.775C123.524 73.0274 108.646 80.0159 81.5266 80.895ZM29.9475 68.654V66.8959C31.7057 62.5225 46.5618 55.534 72.8019 54.6549V80.895C47.4189 80.0159 31.6837 73.0274 29.9475 68.654ZM124.381 55.534C114.755 50.2816 98.1409 46.7873 81.5266 46.7873V10.9215C106.031 12.6796 122.645 30.173 124.381 55.534ZM72.7799 10.9215V45.9082C56.1656 46.7873 39.5513 49.4025 29.9256 54.6549C32.5627 30.173 48.298 13.5367 72.7799 10.9215ZM31.6837 80.895C41.3094 86.1474 57.0447 88.7626 72.7799 89.6417V133.375C54.4295 129.859 37.8152 107.135 31.6837 80.895ZM81.5266 133.353V89.6197C97.2619 89.6197 113.019 86.1254 122.623 80.873C117.392 107.992 99.899 129.859 81.5266 133.353Z" fill="#26313D"/>
</svg>
