<svg width="66" height="66" viewBox="0 0 66 66" fill="none" xmlns="http://www.w3.org/2000/svg">
<path d="M52.8001 23.1H23.1001V16.5C23.1001 13.8744 24.1431 11.3563 25.9997 9.49964C27.8563 7.64303 30.3745 6.6 33.0001 6.6C35.6257 6.6 38.1438 7.64303 40.0004 9.49964C41.8571 11.3563 42.9001 13.8744 42.9001 16.5H49.5001C49.5001 12.1239 47.7617 7.92709 44.6674 4.83274C41.573 1.73839 37.3762 0 33.0001 0C28.624 0 24.4272 1.73839 21.3328 4.83274C18.2385 7.92709 16.5001 12.1239 16.5001 16.5V23.1H13.2001C11.4497 23.1 9.77093 23.7954 8.53319 25.0331C7.29545 26.2708 6.6001 27.9496 6.6001 29.7V59.4C6.6001 61.1504 7.29545 62.8292 8.53319 64.0669C9.77093 65.3046 11.4497 66 13.2001 66H52.8001C54.5505 66 56.2293 65.3046 57.467 64.0669C58.7047 62.8292 59.4001 61.1504 59.4001 59.4V29.7C59.4001 27.9496 58.7047 26.2708 57.467 25.0331C56.2293 23.7954 54.5505 23.1 52.8001 23.1ZM52.8001 59.4H13.2001V29.7H52.8001V59.4Z" fill="#26313D"/>
<path d="M33 52.8008C33.8752 52.8008 34.7145 52.4531 35.3334 51.8342C35.9523 51.2154 36.3 50.376 36.3 49.5008V39.6008C36.3 38.7256 35.9523 37.8862 35.3334 37.2673C34.7145 36.6485 33.8752 36.3008 33 36.3008C32.1247 36.3008 31.2854 36.6485 30.6665 37.2673C30.0476 37.8862 29.7 38.7256 29.7 39.6008V49.5008C29.7 50.376 30.0476 51.2154 30.6665 51.8342C31.2854 52.4531 32.1247 52.8008 33 52.8008Z" fill="#26313D"/>
</svg>
