<svg xmlns="http://www.w3.org/2000/svg" viewBox="0 0 61 49" class="design-iconfont">
  <path d="M3.8125,0 L57.1875,0 C59.2940333,0 61,1.715 61,3.828125 L61,15.0164583 C61,17.131625 59.292,18.846625 57.1875,18.846625 L3.8125,18.846625 C1.70691439,18.846625 0,17.1327151 0,15.0185 L0,3.828125 C0,1.71295832 1.708,0 3.8125,0 Z M9.50176665,7.53783332 C8.46525704,7.53783332 7.62499998,8.38153406 7.62499998,9.42229166 C7.62499998,10.4630493 8.46525704,11.30675 9.50176665,11.30675 L20.9982333,11.30675 C22.034743,11.30675 22.875,10.4630493 22.875,9.42229166 C22.875,8.38153406 22.034743,7.53783332 20.9982333,7.53783332 L9.50176665,7.53783332 L9.50176665,7.53783332 Z M3.8125,30.1554167 L57.1875,30.1554167 C59.2940333,30.1554167 61,31.8704167 61,33.9835417 L61,45.1739167 C61,47.2870417 59.292,49 57.1875,49 L3.8125,49 C1.70691439,49 0,47.2860901 0,45.171875 L0,33.9835417 C0,31.868375 1.708,30.153375 3.8125,30.153375 L3.8125,30.1554167 Z M9.50176665,37.6952917 C8.46525705,37.6952917 7.625,38.5389924 7.625,39.57975 C7.625,40.6205076 8.46525705,41.4642083 9.50176665,41.4642083 L20.9982333,41.4642083 C22.0347429,41.4642083 22.875,40.6205076 22.875,39.57975 C22.875,38.5389924 22.0347429,37.6952917 20.9982333,37.6952917 L9.50176665,37.6952917 Z" fill-rule="evenodd"/>
</svg>
