<?xml version="1.0" encoding="UTF-8"?>
<svg width="70px" height="70px" viewBox="0 0 70 70" version="1.1" xmlns="http://www.w3.org/2000/svg" xmlns:xlink="http://www.w3.org/1999/xlink">
    <!-- Generator: Sketch 59.1 (86144) - https://sketch.com -->
    <title>黑白选中勾</title>
    <desc>Created with Sketch.</desc>
    <g id="页面-1" stroke="none" stroke-width="1" fill-rule="evenodd">
        <g id="切图" transform="translate(-675.000000, -525.000000)">
            <g id="黑白" transform="translate(86.000000, 147.000000)">
                <g id="黑白选中勾" transform="translate(589.000000, 378.000000)">
                    <path d="M35,0 C54.3299662,0 70,15.6700338 70,35 C70,54.3299662 54.3299662,70 35,70 C15.6700338,70 0,54.3299662 0,35 C0,15.6700338 15.6700338,0 35,0 Z M53.9454991,21.6132637 C52.9034626,20.7074352 51.3244061,20.8178536 50.4185776,21.85989 L50.4185776,21.85989 L32.458,42.52 L20.267767,30.3294118 C19.2914562,29.3531011 17.7085438,29.3531011 16.732233,30.3294118 C15.7559223,31.3057225 15.7559223,32.888635 16.732233,33.8649457 L16.732233,33.8649457 L30.1672619,47.2999745 C30.3158309,47.4485436 30.478447,47.5745042 30.6505434,47.6773842 C30.7481639,47.802494 30.8591749,47.920083 30.9834331,48.028099 C32.0254696,48.9339275 33.6045261,48.8235091 34.5103546,47.7814726 L34.5103546,47.7814726 L54.1921255,25.1401852 C55.097954,24.0981487 54.9875356,22.5190922 53.9454991,21.6132637 Z" id="形状结合"></path>
                </g>
            </g>
        </g>
    </g>
</svg>