<?xml version="1.0" encoding="UTF-8"?>
<svg width="54px" height="76px" viewBox="0 0 54 76" version="1.1" xmlns="http://www.w3.org/2000/svg" xmlns:xlink="http://www.w3.org/1999/xlink">
    <g id="页面-1" stroke="none" stroke-width="1" fill="none" fill-rule="evenodd">
        <g id="1" transform="translate(-791.000000, -2006.000000)" fill-rule="nonzero">
            <g id="模式开关" transform="translate(670.000000, 1925.000000)">
                <g id="时长-倒计时" transform="translate(124.000000, 84.000000)">
                    <path d="M18.3074141,47.0109073 C17.9490289,47.0115954 17.59444,47.0842242 17.2647256,47.2244765 C12.8249907,49.1013834 9.4696718,52.8774131 8.13184356,57.5024963 C7.82904831,58.4294735 8.05645861,59.4475527 8.72505075,60.1581892 C9.39364289,60.8688256 10.3970543,61.1589681 11.3424822,60.9150353 C12.2879102,60.6711026 13.0249518,59.9319005 13.2650794,58.9868025 C14.1754614,55.910482 16.4093832,53.3980931 19.3607969,52.1312299 C20.5407744,51.6367377 21.2043737,50.3766738 20.9436369,49.125682 C20.6829001,47.8746902 19.570949,46.9836025 18.2913727,47.0002288 L18.3074141,47.0109073 Z" id="路径" fill="#0F0F0F"></path>
                    <path d="M48,70 L0.00679054997,70 L0.00679054997,62.1405188 C-0.305389916,49.1185041 10.1851833,38.313413 23.4381419,38.0066722 C36.6911005,37.6999314 47.6878188,48.0076974 48,61.0297121 L48,70 L48,70 Z" id="路径" stroke="#0F0F0F" stroke-width="5"></path>
                    <path d="M24,31 C10.7512582,30.9857629 0.0146963324,20.5847186 0,7.74999996 L0,0 L48,0 L48,7.74999996 C47.9853037,20.5847186 37.2487418,30.9857629 24,31 Z" id="路径" stroke="#0F0F0F" stroke-width="5" fill="#0F0F0F"></path>
                </g>
            </g>
        </g>
    </g>
</svg>