<?xml version="1.0" encoding="UTF-8"?>
<svg width="52px" height="51px" viewBox="0 0 52 51" version="1.1" xmlns="http://www.w3.org/2000/svg" xmlns:xlink="http://www.w3.org/1999/xlink">
    <!-- Generator: Sketch 59.1 (86144) - https://sketch.com -->
    <title>编辑</title>
    <desc>Created with Sketch.</desc>
    <g id="页面-1" stroke="none" stroke-width="1" fill="none" fill-rule="evenodd">
        <g id="5" transform="translate(-694.000000, -876.000000)" fill="#231815" fill-rule="nonzero">
            <g id="身体指标" transform="translate(79.000000, 614.000000)">
                <g id="编辑名称" transform="translate(387.000000, 63.000000)">
                    <path d="M272.329502,215.605507 C272.770662,216.042216 273.489327,216.042216 273.937603,215.605507 L279.19595,210.400218 C279.63711,209.963509 279.63711,209.252096 279.19595,208.808343 L269.6185,199.327532 C269.17734,198.890823 268.458675,198.890823 268.0104,199.327532 L262.752053,204.532821 C262.310892,204.96953 262.310892,205.680943 262.752053,206.124696 L272.329502,215.605507 Z M268.629447,219.211878 L259.108922,209.787416 C258.646415,209.329576 257.906404,209.329576 257.443897,209.787416 L228.384236,238.55386 C228.163656,238.772215 228.042693,239.06805 228.042693,239.370929 L228,248.830609 C228,249.478629 228.526546,250.006906 229.181171,249.999932 L238.737274,249.9576 C239.050356,249.9576 239.342091,249.830813 239.562671,249.619503 L268.622332,220.853059 C269.091954,220.402262 269.091954,219.662675 268.629447,219.211878 Z M278.818829,244.794573 L251.616311,244.794573 C251.296114,244.794573 250.990148,244.921359 250.769568,245.146757 L248.008758,247.957191 C247.282978,248.696779 247.809524,249.936469 248.855501,249.936469 L278.818829,249.936469 C279.473454,249.936469 280,249.415236 280,248.767216 L280,245.956782 C280,245.315806 279.473454,244.794573 278.818829,244.794573 Z" id="编辑"></path>
                </g>
            </g>
        </g>
    </g>
</svg>