<?xml version="1.0" encoding="UTF-8"?>
<svg width="73px" height="64px" viewBox="0 0 73 64" version="1.1" xmlns="http://www.w3.org/2000/svg" xmlns:xlink="http://www.w3.org/1999/xlink">
    <g id="2" transform="translate(-144.000000, -432.000000)" fill-rule="nonzero">
        <g id="测量" transform="translate(144.000000, 432.000000)">
            <path d="M63.3646118,29.2376564 L63.4814177,55.817729 C63.4814177,60.2977931 60.1475804,64 55.930398,64 L16.8563652,64 C12.6343158,64 9.29804509,60.29287 9.29804509,55.817729 L9.17637218,29.2327332 L2.57683447,29.2327332 C1.57186771,29.3853211 0.590998534,28.8355846 0.186011829,27.8927761 C-0.218974876,26.9499677 0.0530580721,25.8495345 0.849079389,25.2105218 C19.9419898,10.2736926 30.0408399,2.46065768 31.5252492,1.45633562 C34.4426556,-0.438219122 38.1717087,-0.487877648 41.1374077,1.32833379 C42.7045545,2.29819379 52.8374731,10.1112287 72.1420942,25.2154449 C72.9449396,25.8533313 73.2208538,26.9590565 72.8134633,27.9059545 C72.4060728,28.8528526 71.4180988,29.4021685 70.4094722,29.2425795 L63.3694787,29.2425795 L63.3646118,29.2376564 Z M36,38 C32.1350171,38 29.0014288,41.0774418 29,44.8745766 L29,53.9152543 C29,56.7234818 31.3171954,59 34.1756007,59 L37.8243993,59 C40.6828046,59 43,56.7234818 43,53.9152543 L43,44.8745766 C43,43.0508851 42.2624197,41.3019243 40.9495906,40.0126181 C39.6367615,38.7233119 37.8562774,37.999326 36,38 L36,38 Z" id="训练"></path>
        </g>
    </g>
</svg>