<?xml version="1.0" encoding="UTF-8"?>
<svg width="108px" height="121px" viewBox="0 0 108 121" version="1.1" xmlns="http://www.w3.org/2000/svg" xmlns:xlink="http://www.w3.org/1999/xlink">
    <g id="5" transform="translate(-159.000000, -1840.000000)" fill-rule="nonzero">
        <g id="身体指标" transform="translate(77.000000, 1750.000000)">
            <path d="M146.4625,182.952046 C139.574572,184.504412 132.425428,184.504412 125.5375,182.952046 L117.1,211 L104.90275,190.898518 L82,197.59453 L96.6677499,163.132925 C83.5433065,143.490783 87.0510885,117.205026 104.871284,101.659297 C122.691479,86.1135677 149.315271,86.1135677 167.135466,101.659297 C184.955661,117.205026 188.463443,143.490783 175.339,163.132925 L190,197.59453 L167.09725,190.898518 L154.90675,211 L146.4625,182.952046 Z M136,171 C154.777681,171 170,156.001539 170,137.5 C170,118.998461 154.777681,104 136,104 C117.222319,104 102,118.998461 102,137.5 C102,156.001539 117.222319,171 136,171 Z M135.501569,157 C128.177251,157.000547 121.409062,153.188688 117.746741,147.000442 C114.08442,140.812196 114.08442,133.187804 117.746741,126.999558 C121.409062,120.811312 128.177251,116.999453 135.501569,117 C146.822794,117.000845 156,125.954903 156,137 C156,148.045097 146.822794,156.999155 135.501569,157 L135.501569,157 Z" id="每日跳绳"></path>
        </g>
    </g>
</svg>