<?xml version="1.0" encoding="UTF-8"?>
<svg width="75px" height="75px" viewBox="0 0 75 75" version="1.1" xmlns="http://www.w3.org/2000/svg" xmlns:xlink="http://www.w3.org/1999/xlink">
    <!-- Generator: Sketch 59.1 (86144) - https://sketch.com -->
    <title>记时训练</title>
    <desc>Created with Sketch.</desc>
    <g id="页面-1" stroke="none" stroke-width="1" fill-rule="evenodd">
        <g id="1" transform="translate(-526.000000, -2083.000000)">
            <g id="记时训练" transform="translate(415.000000, 1998.000000)">
                <g transform="translate(111.000000, 85.000000)">
                    <circle id="椭圆形" cx="37.5" cy="37.5" r="37.5"></circle>
                    <g id="计时" transform="translate(17.229730, 14.189189)" fill="#FFFFFF" fill-rule="nonzero">
                        <path d="M22.9180446,4.14155406 L22.9180446,5.64510137 C22.9180446,5.88597974 22.8751853,6.11908785 22.8011556,6.3366554 C33.3211692,7.32347971 41.5540541,15.9445946 41.5540541,26.4305743 C41.5540541,37.5809121 32.2496864,46.6216216 20.7750789,46.6216216 C9.30047135,46.6216216 0,37.5809122 0,26.4305743 C0,15.9407095 8.23678107,7.31570945 18.7684837,6.33277028 C18.6915964,6.11158401 18.6520956,5.87919737 18.6515946,5.64510137 L18.6515946,4.14155406 L12.7409054,4.14155406 C11.5939599,4.14155406 10.6641768,3.21443561 10.6641768,2.07077703 C10.6641768,0.927118457 11.5939599,0 12.7409054,0 L27.2351465,0 C28.3820921,0 29.3118752,0.927118457 29.3118752,2.07077703 C29.3118752,3.21443561 28.3820921,4.14155406 27.2351465,4.14155406 L22.9219409,4.14155406 L22.9180446,4.14155406 Z M18.6515946,23.9052365 L18.6515946,17.3665541 C18.6515946,16.1738176 19.6412552,15.2064189 20.7828715,15.2064189 C21.3539431,15.2084557 21.9005781,15.437694 22.3014526,15.843255 C22.702327,16.248816 22.9242782,16.7971494 22.9180446,17.3665541 L22.9180446,23.9052365 C24.0362831,24.5929054 24.7804767,25.8089527 24.7804767,27.1920608 C24.7804767,29.3366554 22.9920743,31.077196 20.7828715,31.077196 C18.6044708,31.1031061 16.8169654,29.3641962 16.7891626,27.1920608 C16.7891626,25.8050676 17.5294598,24.5890203 18.6515946,23.9052365 L18.6515946,23.9052365 Z M20.7789752,10.7190878 C11.8525487,10.7190878 4.61711709,17.7511824 4.61711709,26.4228041 C4.61711709,35.0944257 11.8525487,42.1265203 20.7789752,42.1265203 C29.7015053,42.1265203 36.9369369,35.0944257 36.9369369,26.4228041 C36.9369369,17.7472973 29.7015053,10.7190878 20.7789752,10.7190878 Z" id="形状"></path>
                    </g>
                </g>
            </g>
        </g>
    </g>
</svg>