<svg width="24" height="26" viewBox="0 0 24 26" fill="none" xmlns="http://www.w3.org/2000/svg">
<path d="M22.6006 23.7368H22.1006V23.7368L22.6006 23.7368ZM3.29656 6.13602V6.63602H3.79656V6.13602H3.29656ZM1.02549 6.13602V5.63602H0.52549V6.13602H1.02549ZM1.02549 10.6782H0.52549V11.1782H1.02549V10.6782ZM3.29656 10.6782H3.79656V10.1782H3.29656V10.6782ZM3.29656 15.2203V15.7203H3.79656V15.2203H3.29656ZM1.02549 15.2203V14.7203H0.52549V15.2203H1.02549ZM1.02549 19.7624H0.52549V20.2624H1.02549V19.7624ZM3.29656 19.7624H3.79656V19.2624H3.29656V19.7624ZM14.6519 6.70378H15.1519V6.20378H14.6519V6.70378ZM6.70315 6.70378V6.20378H6.20315V6.70378H6.70315ZM14.6519 7.83933V8.33933H15.1519V7.83933H14.6519ZM6.70315 7.83933H6.20315V8.33933H6.70315V7.83933ZM6.70315 12.3815V11.8815H6.20315V12.3815H6.70315ZM19.194 12.3815H19.694V11.8815H19.194V12.3815ZM6.70315 13.517H6.20315V14.017H6.70315V13.517ZM19.194 13.517V14.017H19.694V13.517H19.194ZM19.194 18.0591H19.694V17.5591H19.194V18.0591ZM6.70315 18.0591V17.5591H6.20315V18.0591H6.70315ZM19.194 19.1947V19.6947H19.694V19.1947H19.194ZM6.70315 19.1947H6.20315V19.6947H6.70315V19.1947ZM21.4651 24.3723H4.43208V25.3723H21.4651V24.3723ZM22.1006 23.7368C22.1006 24.0878 21.8161 24.3723 21.4651 24.3723V25.3723C22.3684 25.3723 23.1006 24.6401 23.1006 23.7368L22.1006 23.7368ZM22.1006 2.16164V23.7368H23.1006V2.16164H22.1006ZM21.4651 1.52612C21.8161 1.52612 22.1006 1.81064 22.1006 2.16164H23.1006C23.1006 1.25835 22.3684 0.526123 21.4651 0.526123V1.52612ZM4.43208 1.52612H21.4651V0.526123H4.43208V1.52612ZM3.79656 2.16164C3.79656 1.81064 4.08107 1.52612 4.43208 1.52612V0.526123C3.52879 0.526123 2.79656 1.25835 2.79656 2.16164H3.79656ZM3.79656 6.13602V2.16164H2.79656V6.13602H3.79656ZM1.02549 6.63602H3.29656V5.63602H1.02549V6.63602ZM1.52549 10.6782V6.13602H0.52549V10.6782H1.52549ZM3.29656 10.1782H1.02549V11.1782H3.29656V10.1782ZM3.79656 15.2203V10.6782H2.79656V15.2203H3.79656ZM1.02549 15.7203H3.29656V14.7203H1.02549V15.7203ZM1.52549 19.7624V15.2203H0.52549V19.7624H1.52549ZM3.29656 19.2624H1.02549V20.2624H3.29656V19.2624ZM3.79656 23.7368V19.7624H2.79656V23.7368H3.79656ZM4.43208 24.3723C4.08107 24.3723 3.79656 24.0878 3.79656 23.7368H2.79656C2.79656 24.6401 3.52879 25.3723 4.43208 25.3723V24.3723ZM14.6519 6.20378H6.70315V7.20378H14.6519V6.20378ZM15.1519 7.83933V6.70378H14.1519V7.83933H15.1519ZM6.70315 8.33933H14.6519V7.33933H6.70315V8.33933ZM6.20315 6.70378V7.83933H7.20315V6.70378H6.20315ZM6.70315 12.8815H19.194V11.8815H6.70315V12.8815ZM7.20315 13.517V12.3815H6.20315V13.517H7.20315ZM19.194 13.017H6.70315V14.017H19.194V13.017ZM18.694 12.3815V13.517H19.694V12.3815H18.694ZM19.194 17.5591H6.70315V18.5591H19.194V17.5591ZM19.694 19.1947V18.0591H18.694V19.1947H19.694ZM6.70315 19.6947H19.194V18.6947H6.70315V19.6947ZM6.20315 18.0591V19.1947H7.20315V18.0591H6.20315Z" fill="#060606"/>
</svg>
