<?xml version="1.0" encoding="UTF-8"?>
<svg width="88px" height="63px" viewBox="0 0 88 63" version="1.1" xmlns="http://www.w3.org/2000/svg" xmlns:xlink="http://www.w3.org/1999/xlink">
    <title>舒适2</title>
    <g id="页面-1" stroke="none" stroke-width="1" fill="none" fill-rule="evenodd">
        <g id="1" transform="translate(-251.000000, -2129.000000)" fill="#B5C4D1" fill-rule="nonzero">
            <g id="舒适2" transform="translate(251.000000, 2129.000000)">
                <path d="M85.5906366,1.04189463 C83.5764522,-0.423881053 80.7288121,-0.354082211 77.1171711,1.32109 C70.0327982,4.60163557 62.6243038,5.13676002 54.7990815,5.69515076 C48.0059986,5.97721594 41.2582351,6.94373242 34.6572372,8.58016956 C20.2801276,12.4889047 11.3436311,25.2620928 7.24580764,47.7373199 C4.6053845,51.2371453 2.28101131,54.9667868 0.300344085,58.8818683 C-0.137923015,59.7632515 -0.0941912567,60.8092255 0.416101811,61.6505557 C0.910274334,62.4657146 1.78179945,62.9737043 2.73125633,63 L4.5602284,63 C5.50179387,62.9880557 6.37324968,62.4976219 6.87538292,61.6970883 C14.8858176,48.9006339 24.6094665,49.1798293 35.8611175,49.5055572 C43.0612481,49.6916875 50.5160456,49.901084 58.2255102,46.8764675 C66.6899693,43.6721321 74.0097536,38.0011607 79.2471132,30.5900711 C81.6117025,27.2017314 83.5262879,23.5178341 84.9423933,19.6316529 C86.3629421,15.7824261 87.3567484,11.7875002 87.9057911,7.71931717 C88.3021909,5.24373198 87.432,2.73390727 85.5906366,1.04189463 Z M57.114236,23.9824473 C43.778946,26.3090754 33.9626908,29.9386152 25.9059531,35.7319191 C20.3021323,39.7789754 15.2978584,44.6043801 11.0426611,50.063948 L13.4967248,40.3153764 C16.5135611,37.2616554 19.7733102,34.4604073 23.2435254,31.9395153 C27.874613,28.6014311 32.9476764,25.9309429 38.3151813,24.0057136 C44.1772957,21.8930036 50.2229536,20.3351525 56.3733866,19.3524575 L56.7438113,19.3524575 C57.8286686,19.4916116 58.6686549,20.3747016 58.7580904,21.4700988 C58.8475259,22.5654961 58.1620126,23.5743756 57.114236,23.8893822 L57.114236,23.9824473 Z" id="形状"></path>
            </g>
        </g>
    </g>
</svg>