<?xml version="1.0" encoding="UTF-8"?>
<svg width="78px" height="88px" viewBox="0 0 78 88" version="1.1" xmlns="http://www.w3.org/2000/svg" xmlns:xlink="http://www.w3.org/1999/xlink">
    <title>手动</title>
    <g id="页面-1" stroke="none" stroke-width="1" fill="none" fill-rule="evenodd">
        <g id="2" transform="translate(-244.000000, -1773.000000)" fill="#000000" fill-rule="nonzero">
            <g id="手动" transform="translate(244.000000, 1773.000000)">
                <path d="M21.9676443,49.6613333 L21.9676443,8.07155556 C21.9676443,3.63733333 25.433714,0 29.7528951,0 C34.0964507,0 37.2310257,3.63733333 37.2310257,8.07155556 L37.2310257,21.6968889 C38.5985958,19.8324564 40.7730383,18.7366686 43.0809323,18.7488889 L43.105307,18.7488889 C44.4069112,18.7488889 45.6890157,19.0715556 46.8394974,19.6875556 C49.2867083,20.9831111 50.8174339,23.452 50.8174339,26.8155556 L50.8174339,26.8888889 C52.1932261,25.0256458 54.3750745,23.9352308 56.6868402,23.9555556 L56.9013368,23.9555556 C58.1688165,24.0533333 59.3972969,24.4346667 60.5087792,25.0653333 C62.8194923,26.356 64.340468,28.6048889 64.4574662,31.6408889 C65.8224444,29.876 67.8796615,28.7466667 70.2147493,28.7466667 L70.2976229,28.7466667 C71.5943522,28.7173333 72.8764568,29.0204444 74.0269384,29.6266667 C76.4838992,30.9075556 78,33.4057778 78,36.8133333 L78,55.9777778 C78,68.0533333 77.4637586,72.8688889 74.4998059,77.9582222 C70.541369,84.7391111 62.9316155,88 50.6029373,88 C39.8976082,88 32.7850967,85.4577778 27.3203089,79.7231111 L2.37533205,53.5431111 C-0.988364258,49.9888889 -0.637369861,44.968 2.53132956,41.6191111 C5.61715531,38.3582222 11.0916929,38.2457778 14.1628939,41.4675556 L20.9146611,48.5564444 L21.9676443,49.6613333 Z" id="路径"></path>
            </g>
        </g>
    </g>
</svg>