<?xml version="1.0" encoding="UTF-8"?>
<svg width="84px" height="84px" viewBox="0 0 84 84" version="1.1" xmlns="http://www.w3.org/2000/svg" xmlns:xlink="http://www.w3.org/1999/xlink">
    <title>晚安</title>
    <g id="页面-1" stroke="none" stroke-width="1" fill="none" fill-rule="evenodd">
        <g id="2" transform="translate(-822.000000, -2108.000000)" fill="#000000" fill-rule="nonzero">
            <g id="晚安" transform="translate(822.000000, 2108.000000)">
                <path d="M83.7735397,56.8428473 C83.4715927,56.5416932 82.5657514,56.5416932 81.6599102,56.8428473 C72.9034449,60.7578514 63.8450325,61.3601597 54.484673,59.2520805 C36.6697953,54.7347681 23.988018,39.0747519 23.0821767,20.4031942 C23.0821767,14.0789569 24.289965,8.05587374 27.0074887,2.33394468 C27.3094357,1.43048224 27.9133299,1.12932802 27.0074887,0.225865583 C26.1016475,-0.0752885277 25.7997004,-0.0752885277 24.5919121,0.225865583 C20.6666001,2.33394468 16.741288,4.44202377 14.0237643,7.75471952 C5.87119315,15.2835735 1.34198692,24.3181982 0.134198681,35.1597479 C0.134198681,36.0632104 -0.167748351,40.5805228 0.134198681,41.4839852 L0.134198681,42.6886019 C0.134198681,46.603606 1.04003988,50.2174558 2.24782823,53.5301516 C7.38092863,70.0936302 22.4782826,81.8386424 39.3873189,83.6455673 C45.4262606,84.5490297 51.163255,83.6455673 57.2021967,81.8386424 C68.9781328,77.9236384 78.0365453,70.3947844 83.7735397,58.9509264 L83.7735397,58.6497722 C84.0754868,58.0474639 84.0754868,57.7463098 83.7735397,56.8428473 Z" id="路径"></path>
                <polygon id="路径" points="47.3529411 34 52.0588235 19.9000001 60 17.5 52.0588235 14.2 47.3529411 1 42.6470588 14.2 35 17.5 42.6470588 19.9000001"></polygon>
            </g>
        </g>
    </g>
</svg>