<svg width="32" height="32" viewBox="0 0 32 32" fill="none" xmlns="http://www.w3.org/2000/svg">
<path fill-rule="evenodd" clip-rule="evenodd" d="M4.52823 19.5321C4.75135 20.2576 5.0414 20.9537 5.39117 21.6134L3.3909 24.9472C3.15482 25.3406 3.21682 25.8443 3.54129 26.1688L5.83122 28.4587C6.15568 28.7832 6.65934 28.8452 7.05282 28.6091L10.3867 26.6088C11.0463 26.9585 11.7424 27.2486 12.4679 27.4717L13.4106 31.2425C13.5219 31.6877 13.9219 32 14.3808 32H17.6192C18.0781 32 18.4781 31.6877 18.5893 31.2425L19.5321 27.4716C20.2575 27.2485 20.9537 26.9585 21.6133 26.6088L24.9471 28.6091C25.3406 28.8452 25.8443 28.7832 26.1687 28.4587L28.4587 26.1688C28.7831 25.8443 28.8451 25.3407 28.6091 24.9472L26.6088 21.6133C26.9585 20.9537 27.2486 20.2576 27.4717 19.5321L31.2425 18.5894C31.6877 18.4781 32 18.0781 32 17.6192V14.3808C32 13.9219 31.6877 13.5219 31.2425 13.4106L27.4717 12.4679C27.2486 11.7424 26.9586 11.0462 26.6088 10.3866L28.609 7.05289C28.8451 6.65941 28.7831 6.15576 28.4586 5.83129L26.1687 3.54136C25.8442 3.21689 25.3406 3.15489 24.9471 3.39097L21.6135 5.39114C20.9538 5.04134 20.2576 4.75128 19.532 4.52815L18.5893 0.757464C18.4781 0.312297 18.0781 0 17.6192 0H14.3808C13.9219 0 13.5219 0.312296 13.4106 0.757463L12.4679 4.52813C11.7424 4.75126 11.0462 5.04133 10.3864 5.39113L7.05287 3.39098C6.65939 3.1549 6.15573 3.2169 5.83126 3.54137L3.54134 5.8313C3.21687 6.15577 3.15486 6.65942 3.39095 7.0529L5.39112 10.3865C5.04133 11.0462 4.75128 11.7424 4.52816 12.468L0.757464 13.4106C0.312297 13.5219 0 13.9219 0 14.3808V17.6192C0 18.0781 0.312296 18.4781 0.757463 18.5894L4.52823 19.5321ZM22.4 16C22.4 19.5346 19.5346 22.4 16 22.4C12.4654 22.4 9.6 19.5346 9.6 16C9.6 12.4654 12.4654 9.6 16 9.6C19.5346 9.6 22.4 12.4654 22.4 16Z" fill="#F2A56B"/>
</svg>
