<?xml version="1.0" encoding="UTF-8"?>
<svg width="63px" height="63px" viewBox="0 0 63 63" version="1.1" xmlns="http://www.w3.org/2000/svg" xmlns:xlink="http://www.w3.org/1999/xlink">
    <!-- Generator: Sketch 59.1 (86144) - https://sketch.com -->
    <title>体型</title>
    <desc>Created with Sketch.</desc>
    <defs>
        <linearGradient x1="8.45868644%" y1="0%" x2="111.848517%" y2="112.510417%" id="linearGradient-1">
            <stop stop-color="#00F0FF" offset="0%"></stop>
            <stop stop-color="#704DF0" offset="100%"></stop>
        </linearGradient>
        <rect id="path-2" x="0" y="0" width="63" height="63" rx="10"></rect>
        <filter x="-242.9%" y="-233.3%" width="585.7%" height="585.7%" filterUnits="objectBoundingBox" id="filter-4">
            <feOffset dx="0" dy="6" in="SourceAlpha" result="shadowOffsetOuter1"></feOffset>
            <feGaussianBlur stdDeviation="50" in="shadowOffsetOuter1" result="shadowBlurOuter1"></feGaussianBlur>
            <feColorMatrix values="0 0 0 0 0.125490196   0 0 0 0 0.127812629   0 0 0 0 0.129411765  0 0 0 0.1 0" type="matrix" in="shadowBlurOuter1"></feColorMatrix>
        </filter>
    </defs>
    <g id="页面-1" stroke="none" stroke-width="1" fill="none" fill-rule="evenodd">
        <g id="1备份" transform="translate(-941.000000, -660.000000)">
            <g id="暗色" transform="translate(96.000000, 350.000000)">
                <g id="体型" transform="translate(845.000000, 310.000000)">
                    <rect id="矩形" fill="#000000" x="0" y="0" width="63" height="63" rx="10"></rect>
                    <g id="Fill-1">
                        <mask id="mask-3" fill="white">
                            <use xlink:href="#path-2"></use>
                        </mask>
                        <g id="蒙版">
                            <use fill="black" fill-opacity="1" filter="url(#filter-4)" xlink:href="#path-2"></use>
                            <use fill="url(#linearGradient-1)" fill-rule="evenodd" xlink:href="#path-2"></use>
                        </g>
                        <path d="M32.7427569,24.1884092 C29.8444853,24.1377232 27.6762224,21.8545076 27.7604359,18.9442875 C27.8408646,16.1955117 30.0588041,14.0094442 32.7758746,14.0000289 C35.4929451,13.9902023 38.0534162,16.4907106 38.0321262,19.1428076 C38.0117825,21.8854823 35.5445141,24.2390952 32.7427569,24.1884092 M10.7570225,24.189213 C16.709141,25.134687 22.4721716,25.6673216 28.2723358,26.0104795 C36.6093083,26.5015915 44.8207108,25.5040949 53.0242956,24.3829851 C54.9801593,24.1161905 56.4816254,24.3786896 56.9125701,26.3020921 C57.3889546,28.447903 55.8518207,29.4721268 53.9233186,29.7675576 C50.3433504,30.3178512 46.7536102,30.8581221 43.146769,31.1564165 C40.27527,31.393143 39.2790157,32.7271157 39.1617519,35.4575836 C38.7342273,45.6349125 41.4112638,55.3139704 43.8342285,65.0455281 C44.1273881,66.224865 44.4786911,67.3927474 44.7000267,68.5868797 C44.998561,70.1704652 44.5241309,71.4748471 42.7925344,71.8910275 C41.0379738,72.3134124 40.0441625,71.3622111 39.6176152,69.7728984 C38.2246181,64.589257 36.851165,59.3998883 35.4596338,54.2148151 C35.1982331,53.2368866 34.9466044,52.2494127 34.581132,51.3058477 C34.215171,50.3622828 33.7607735,49.3728998 32.4576787,49.4168087 C31.1540954,49.4602404 30.7319454,50.434828 30.4583297,51.4251655 C28.9827594,56.7930336 27.536505,62.1733107 26.0760812,67.5478605 C25.8366675,68.4279484 25.6656577,69.3376271 25.3177749,70.1747606 C24.7422047,71.5483469 23.6643543,72.3105488 22.1125624,71.879573 C20.5607706,71.4490745 20.0228226,70.2883512 20.3677738,68.7944926 C21.1378065,65.4407086 21.8663083,62.0730837 22.7760805,58.7541405 C24.880967,51.0800985 25.9695665,43.3148977 25.7418792,35.3468567 C25.6612603,32.5323891 24.5843871,31.3645067 21.7456242,31.1349393 C18.1397603,30.8438039 14.5373165,30.3336011 10.9817782,29.6821261 C8.3086506,29.1948323 7.25767317,27.0552259 8.55197313,25.293141 C9.14757586,24.4817802 10.0070223,24.2116447 10.7570225,24.189213" fill="#FFFFFF" mask="url(#mask-3)"></path>
                    </g>
                </g>
            </g>
        </g>
    </g>
</svg>