<?xml version="1.0" encoding="UTF-8"?>
<svg width="63px" height="63px" viewBox="0 0 63 63" version="1.1" xmlns="http://www.w3.org/2000/svg" xmlns:xlink="http://www.w3.org/1999/xlink">
    <!-- Generator: Sketch 59.1 (86144) - https://sketch.com -->
    <title>骨量</title>
    <desc>Created with Sketch.</desc>
    <defs>
        <linearGradient x1="8.45868644%" y1="0%" x2="111.848517%" y2="112.510417%" id="linearGradient-1">
            <stop stop-color="#00F0FF" offset="0%"></stop>
            <stop stop-color="#704DF0" offset="100%"></stop>
        </linearGradient>
        <rect id="path-2" x="0" y="0" width="63" height="63" rx="10"></rect>
        <filter x="-242.9%" y="-233.3%" width="585.7%" height="585.7%" filterUnits="objectBoundingBox" id="filter-3">
            <feOffset dx="0" dy="6" in="SourceAlpha" result="shadowOffsetOuter1"></feOffset>
            <feGaussianBlur stdDeviation="50" in="shadowOffsetOuter1" result="shadowBlurOuter1"></feGaussianBlur>
            <feColorMatrix values="0 0 0 0 0.125490196   0 0 0 0 0.127812629   0 0 0 0 0.129411765  0 0 0 0.1 0" type="matrix" in="shadowBlurOuter1"></feColorMatrix>
        </filter>
    </defs>
    <g id="页面-1" stroke="none" stroke-width="1" fill="none" fill-rule="evenodd">
        <g id="1备份" transform="translate(-240.000000, -653.000000)">
            <rect fill="#FFFFFF" x="0" y="0" width="1125" height="2866"></rect>
            <rect id="矩形" fill="#222532" x="-1" y="-6" width="1128" height="2872"></rect>
            <g id="暗色" transform="translate(96.000000, 350.000000)">
                <g id="骨量" transform="translate(144.000000, 303.000000)">
                    <g id="矩形">
                        <use fill="black" fill-opacity="1" filter="url(#filter-3)" xlink:href="#path-2"></use>
                        <use fill="url(#linearGradient-1)" fill-rule="evenodd" xlink:href="#path-2"></use>
                    </g>
                    <path d="M17.5627943,16.5845172 C17.5385976,16.2650536 17.5013855,15.9685401 17.4959428,15.6714928 C17.4502708,13.1841598 19.0168449,11.0040147 21.3818512,10.2544286 C24.6272272,9.22576405 28.0802571,11.4304604 28.5139047,14.8108328 C28.6062545,15.5306489 28.6623979,16.2558616 28.7759864,16.9720603 C29.0848049,18.9196795 29.87176,20.658909 31.1063245,22.1942558 C31.1537122,22.2531434 31.2086725,22.3061007 31.2622129,22.359829 C34.1672377,25.2722438 37.061436,28.1955703 39.9823158,31.091914 C41.4668933,32.5639848 43.2238464,33.5787133 45.2800933,34.0399697 C46.1706386,34.2397012 47.068934,34.3612717 47.9788249,34.4383652 C50.6294588,34.6628259 52.7353415,36.7914962 52.9769536,39.4541874 C53.2093367,42.0157081 51.6645928,44.4012777 49.2359296,45.2207223 C48.4079171,45.5000974 47.5580152,45.5802746 46.6909566,45.4559168 C46.6123913,45.4446493 46.5336485,45.4345085 46.4382223,45.4215212 C46.4460315,45.4872879 46.4501728,45.5395336 46.4585736,45.5910083 C46.8179154,47.795764 45.7559224,50.0774353 43.8453883,51.2047203 C40.6760337,53.0747122 36.6959416,51.5052664 35.662819,47.9788907 C35.505925,47.4433281 35.4852779,46.8902711 35.4273004,46.3398828 C35.255912,44.7138028 34.9153833,43.130065 34.1292565,41.6751919 C34.0280327,41.487914 33.8976426,41.3074558 33.7477887,41.1569456 C29.8777353,37.2703654 26.0026533,33.3889445 22.1317717,29.5033132 C21.9306254,29.3014468 21.7104887,29.1375342 21.4635521,28.9978763 C20.3093277,28.3450722 19.0573108,27.9865281 17.7612192,27.7756477 C17.1028202,27.668547 16.4293354,27.6521202 15.7723563,27.5384369 C13.440894,27.1350006 11.8599438,25.802469 11.2307703,23.5181884 C10.6071578,21.2542486 11.2592266,19.2940572 13.0439852,17.7683175 C14.287838,16.7050201 15.7627723,16.3410201 17.3809936,16.5608552 C17.4385569,16.5685648 17.4961794,16.5758589 17.5627943,16.5845172 Z" id="路径" fill="#FFFFFF" fill-rule="nonzero"></path>
                </g>
            </g>
        </g>
    </g>
</svg>