<?xml version="1.0" encoding="UTF-8"?>
<svg width="724px" height="632px" viewBox="0 0 724 632" version="1.1" xmlns="http://www.w3.org/2000/svg" xmlns:xlink="http://www.w3.org/1999/xlink">
    <!-- Generator: Sketch 59.1 (86144) - https://sketch.com -->
    <title>线圈</title>
    <desc>Created with Sketch.</desc>
    <g id="页面-1" stroke="none" stroke-width="1" fill="none" fill-rule="evenodd">
        <g id="1" transform="translate(-201.000000, -1060.000000)">
            <g id="体重表备份" transform="translate(201.000000, 1060.000000)">
                <g id="线圈" transform="translate(1.000000, 2.000000)" stroke="#13D4FC" stroke-linecap="round">
                    <line x1="360.5" y1="0" x2="360.5" y2="27" id="路径" stroke-width="3"></line>
                    <line x1="342" y1="0" x2="343" y2="27" id="路径"></line>
                    <line x1="323" y1="2" x2="326" y2="29" id="路径"></line>
                    <line x1="304" y1="5" x2="308" y2="30" id="路径"></line>
                    <line x1="286" y1="7" x2="291" y2="32" id="路径"></line>
                    <line x1="268" y1="12" x2="275" y2="37" id="路径"></line>
                    <line x1="250" y1="19" x2="258" y2="43" id="路径"></line>
                    <line x1="233" y1="25" x2="242" y2="49" id="路径"></line>
                    <line x1="215" y1="31" x2="224" y2="55" id="路径"></line>
                    <line x1="198" y1="40" x2="210" y2="63" id="路径"></line>
                    <line x1="182" y1="48" x2="195" y2="70" id="路径"></line>
                    <line x1="164" y1="58" x2="178" y2="80" id="路径"></line>
                    <line x1="148" y1="68" x2="163" y2="89" id="路径"></line>
                    <line x1="134" y1="81" x2="150" y2="101" id="路径"></line>
                    <line x1="119" y1="93" x2="136" y2="112" id="路径"></line>
                    <line x1="105" y1="105" x2="123" y2="123" id="路径"></line>
                    <line x1="93" y1="119" x2="112" y2="136" id="路径"></line>
                    <line x1="81" y1="134" x2="101" y2="150" id="路径"></line>
                    <line x1="68" y1="148" x2="89" y2="163" id="路径"></line>
                    <line x1="58" y1="163" x2="80" y2="177" id="路径"></line>
                    <line x1="48" y1="182" x2="70" y2="195" id="路径"></line>
                    <line x1="40" y1="198" x2="63" y2="210" id="路径"></line>
                    <line x1="31" y1="215" x2="55" y2="224" id="路径"></line>
                    <line x1="25" y1="233" x2="49" y2="242" id="路径"></line>
                    <line x1="19" y1="250" x2="43" y2="258" id="路径"></line>
                    <line x1="12" y1="267" x2="37" y2="274" id="路径"></line>
                    <line x1="8" y1="286" x2="33" y2="291" id="路径"></line>
                    <line x1="5" y1="304" x2="30" y2="308" id="路径"></line>
                    <line x1="2" y1="323" x2="29" y2="326" id="路径"></line>
                    <line x1="0" y1="342" x2="27" y2="343" id="路径"></line>
                    <line x1="0" y1="360.5" x2="27" y2="360.5" id="路径"></line>
                    <line x1="0" y1="379" x2="27" y2="378" id="路径"></line>
                    <line x1="2" y1="399" x2="29" y2="396" id="路径"></line>
                    <line x1="5" y1="417" x2="30" y2="413" id="路径"></line>
                    <line x1="8" y1="435" x2="33" y2="430" id="路径"></line>
                    <line x1="12" y1="453" x2="37" y2="446" id="路径"></line>
                    <line x1="19" y1="471" x2="43" y2="463" id="路径"></line>
                    <line x1="25" y1="488" x2="49" y2="479" id="路径"></line>
                    <line x1="31" y1="506" x2="55" y2="497" id="路径"></line>
                    <line x1="40" y1="523" x2="63" y2="511" id="路径"></line>
                    <line x1="48" y1="540" x2="70" y2="527" id="路径"></line>
                    <line x1="58" y1="558" x2="80" y2="544" id="路径"></line>
                    <line x1="68" y1="574" x2="89" y2="559" id="路径"></line>
                    <line x1="81" y1="587" x2="101" y2="571" id="路径"></line>
                    <line x1="93" y1="601" x2="112" y2="584" id="路径"></line>
                    <line x1="105" y1="617" x2="123" y2="599" id="路径"></line>
                    <line x1="119" y1="628" x2="136" y2="609" id="路径" stroke-width="3"></line>
                    <line x1="601" y1="628" x2="584" y2="609" id="路径" stroke-width="3"></line>
                    <line x1="617" y1="617" x2="599" y2="599" id="路径"></line>
                    <line x1="628" y1="601" x2="609" y2="584" id="路径"></line>
                    <line x1="641" y1="587" x2="621" y2="571" id="路径"></line>
                    <line x1="653" y1="574" x2="632" y2="559" id="路径"></line>
                    <line x1="664" y1="558" x2="642" y2="544" id="路径"></line>
                    <line x1="674" y1="540" x2="652" y2="527" id="路径"></line>
                    <line x1="682" y1="523" x2="659" y2="511" id="路径"></line>
                    <line x1="690" y1="506" x2="666" y2="497" id="路径"></line>
                    <line x1="697" y1="488" x2="673" y2="479" id="路径"></line>
                    <line x1="703" y1="471" x2="679" y2="463" id="路径"></line>
                    <line x1="708" y1="453" x2="683" y2="446" id="路径"></line>
                    <line x1="715" y1="435" x2="690" y2="430" id="路径"></line>
                    <line x1="717" y1="417" x2="692" y2="413" id="路径"></line>
                    <line x1="720" y1="399" x2="693" y2="396" id="路径"></line>
                    <line x1="721" y1="379" x2="694" y2="378" id="路径"></line>
                    <line x1="722" y1="360.5" x2="695" y2="360.5" id="路径"></line>
                    <line x1="721" y1="342" x2="694" y2="343" id="路径"></line>
                    <line x1="720" y1="323" x2="693" y2="326" id="路径"></line>
                    <line x1="717" y1="304" x2="692" y2="308" id="路径"></line>
                    <line x1="715" y1="286" x2="690" y2="291" id="路径"></line>
                    <line x1="708" y1="267" x2="683" y2="274" id="路径"></line>
                    <line x1="703" y1="250" x2="679" y2="258" id="路径"></line>
                    <line x1="697" y1="233" x2="673" y2="242" id="路径"></line>
                    <line x1="690" y1="215" x2="666" y2="224" id="路径"></line>
                    <line x1="682" y1="198" x2="659" y2="210" id="路径"></line>
                    <line x1="674" y1="182" x2="652" y2="195" id="路径"></line>
                    <line x1="664" y1="163" x2="642" y2="177" id="路径"></line>
                    <line x1="653" y1="148" x2="632" y2="163" id="路径"></line>
                    <line x1="641" y1="134" x2="621" y2="150" id="路径"></line>
                    <line x1="628" y1="119" x2="609" y2="136" id="路径"></line>
                    <line x1="617" y1="105" x2="599" y2="123" id="路径"></line>
                    <line x1="601" y1="93" x2="584" y2="112" id="路径"></line>
                    <line x1="587" y1="81" x2="571" y2="101" id="路径"></line>
                    <line x1="574" y1="68" x2="559" y2="89" id="路径"></line>
                    <line x1="558" y1="58" x2="544" y2="80" id="路径"></line>
                    <line x1="540" y1="48" x2="527" y2="70" id="路径"></line>
                    <line x1="523" y1="40" x2="511" y2="63" id="路径"></line>
                    <line x1="506" y1="31" x2="497" y2="55" id="路径"></line>
                    <line x1="489" y1="25" x2="480" y2="49" id="路径"></line>
                    <line x1="471" y1="19" x2="463" y2="43" id="路径"></line>
                    <line x1="453" y1="12" x2="446" y2="37" id="路径"></line>
                    <line x1="435" y1="7" x2="430" y2="32" id="路径"></line>
                    <line x1="417" y1="5" x2="413" y2="30" id="路径"></line>
                    <line x1="399" y1="2" x2="396" y2="29" id="路径"></line>
                    <line x1="379" y1="0" x2="378" y2="27" id="路径"></line>
                </g>
                <circle id="椭圆形" stroke="#979797" cx="363" cy="363" r="360.5"></circle>
            </g>
        </g>
    </g>
</svg>