<?xml version="1.0" encoding="UTF-8"?>
<svg width="63px" height="63px" viewBox="0 0 63 63" version="1.1" xmlns="http://www.w3.org/2000/svg" xmlns:xlink="http://www.w3.org/1999/xlink">
    <!-- Generator: Sketch 59.1 (86144) - https://sketch.com -->
    <title>体重控制</title>
    <desc>Created with Sketch.</desc>
    <defs>
        <linearGradient x1="8.45868644%" y1="0%" x2="111.848517%" y2="112.510417%" id="linearGradient-1">
            <stop stop-color="#00F0FF" offset="0%"></stop>
            <stop stop-color="#704DF0" offset="100%"></stop>
        </linearGradient>
        <rect id="path-2" x="0" y="0" width="63" height="63" rx="10"></rect>
        <filter x="-242.9%" y="-233.3%" width="585.7%" height="585.7%" filterUnits="objectBoundingBox" id="filter-3">
            <feOffset dx="0" dy="6" in="SourceAlpha" result="shadowOffsetOuter1"></feOffset>
            <feGaussianBlur stdDeviation="50" in="shadowOffsetOuter1" result="shadowBlurOuter1"></feGaussianBlur>
            <feColorMatrix values="0 0 0 0 0.125490196   0 0 0 0 0.127812629   0 0 0 0 0.129411765  0 0 0 0.1 0" type="matrix" in="shadowBlurOuter1"></feColorMatrix>
        </filter>
    </defs>
    <g id="页面-1" stroke="none" stroke-width="1" fill="none" fill-rule="evenodd">
        <g id="1备份" transform="translate(-524.000000, -526.000000)">
            <rect fill="#FFFFFF" x="0" y="0" width="1125" height="2866"></rect>
            <rect id="矩形" fill="#222532" x="-1" y="-6" width="1128" height="2872"></rect>
            <g id="暗色" transform="translate(96.000000, 350.000000)">
                <g id="体重控制" transform="translate(428.000000, 176.000000)">
                    <g id="矩形">
                        <use fill="black" fill-opacity="1" filter="url(#filter-3)" xlink:href="#path-2"></use>
                        <use fill="url(#linearGradient-1)" fill-rule="evenodd" xlink:href="#path-2"></use>
                    </g>
                    <g id="编组" transform="translate(12.000000, 8.000000)">
                        <path d="M19.9564073,6.74320664 C18.0016904,6.70966009 16.5393222,5.198512 16.5961194,3.27238059 C16.6503639,1.45310117 18.1462361,0.00625064918 19.9787433,1.91055736e-05 C21.8112505,-0.00648461735 23.5381405,1.6484788 23.5237817,3.40377127 C23.510061,5.21901267 21.8460308,6.7767532 19.9564073,6.74320664 M5.80050447,6.88391581 C9.68760232,7.49924661 13.4512141,7.84589435 17.2390764,8.06922744 C22.6836299,8.38885157 28.0461785,7.7396636 33.4036216,7.01002601 C34.6809203,6.83639152 35.6614696,7.00723046 35.9429029,8.25901398 C36.2540112,9.65554467 35.2501686,10.3221272 33.9907387,10.5143986 C31.6528003,10.8725392 29.3084801,11.2241568 26.952992,11.4182919 C25.0777274,11.5723576 24.4271123,12.44053 24.3505318,14.2175656 C24.0713321,20.8411467 25.8196008,27.1404444 27.4019451,33.4739099 C27.5933963,34.2414426 27.8228187,35.0015206 27.9673644,35.7786825 C28.1623255,36.8093072 27.8524936,37.6582215 26.7216551,37.9290788 C25.5758196,38.2039742 24.9268,37.584916 24.6482385,36.5505639 C23.7385261,33.1769607 22.8415772,29.7996302 21.9328221,26.4250951 C21.7621114,25.7886424 21.5977824,25.1459774 21.3591066,24.5318891 C21.1201117,23.9178007 20.8233623,23.2738932 19.9723616,23.3024699 C19.1210419,23.330736 18.8453521,23.9650144 18.6666643,24.6095431 C17.7030265,28.1030442 16.7585339,31.6046212 15.8047877,35.1024709 C15.6484359,35.6752473 15.536756,36.2672819 15.3095673,36.8121028 C14.9336847,37.7060564 14.2297824,38.2021105 13.2163673,37.921624 C12.2029522,37.6414482 11.8516392,36.8860294 12.0769135,35.9138006 C12.579792,33.7311001 13.0555483,31.5393918 13.6496852,29.3793664 C15.024305,24.3849676 15.7352271,19.3312411 15.5865334,14.1455027 C15.5338843,12.3137986 14.8306201,11.5537206 12.9767342,11.4043142 C10.6218842,11.2148383 8.2692679,10.8827895 5.94728374,10.4587983 C4.20156774,10.1416591 3.51521513,8.74916643 4.36047225,7.60237121 C4.7494373,7.07432357 5.31070845,6.89851477 5.80050447,6.88391581" id="Fill-1" fill="#FFFFFF"></path>
                        <path d="M32.487959,35 C36.4841803,35.9438889 39,37.3168479 39,38.8452671 C39,41.6919888 30.2697541,44 19.5,44 C8.73056557,44 0,41.6919888 0,38.8452671 C0,37.4418706 2.12102459,36.1697153 5.56133607,35.2402269" id="Stroke-3" stroke="#FFFFFF" stroke-width="3" stroke-linecap="round"></path>
                    </g>
                </g>
            </g>
        </g>
    </g>
</svg>