<?xml version="1.0" encoding="UTF-8"?>
<svg width="27px" height="34px" viewBox="0 0 27 34" version="1.1" xmlns="http://www.w3.org/2000/svg" xmlns:xlink="http://www.w3.org/1999/xlink">
    <!-- Generator: Sketch 59.1 (86144) - https://sketch.com -->
    <title>下</title>
    <desc>Created with Sketch.</desc>
    <g id="页面-1" stroke="none" stroke-width="1" fill="none" fill-rule="evenodd">
        <g id="路由器连接中-莫兰迪色" transform="translate(-109.000000, -873.000000)" fill="#B5ABA1" fill-rule="nonzero">
            <g id="编组-10" transform="translate(109.000000, 873.000000)">
                <g id="下" transform="translate(13.500000, 17.000000) scale(1, -1) translate(-13.500000, -17.000000) ">
                    <g id="上移">
                        <path d="M13.5003176,0 L13.5369603,0 C13.6209617,0.000408231169 13.7047973,0.00735608182 13.7876732,0.0207848409 L13.8879585,0.0377848374 C13.9303868,0.0453404061 13.9728151,0.0566737371 14.0133149,0.0661181648 C14.0432253,0.0738024969 14.0728189,0.0826239949 14.1020288,0.0925626333 C14.1406,0.103895964 14.1772427,0.119007057 14.2158139,0.132229292 C14.291014,0.16071794 14.3638705,0.194818096 14.4337413,0.23422927 L14.5031695,0.273895929 C14.6340171,0.35154785 14.7545103,0.444817389 14.861882,0.551562538 L14.6883114,0.400451429 L14.7056685,0.413673663 L14.8638105,0.551562538 L26.4351788,11.8848935 C26.9223079,12.3620017 27.1125535,13.0574022 26.9342519,13.7091442 C26.7559503,14.3608862 26.2361897,14.8699546 25.570759,15.0445884 C24.9053282,15.2192221 24.1953221,15.0328901 23.708193,14.5557818 L15.428879,6.44867241 L15.428879,32.1111115 C15.42875,33.0687304 14.6969762,33.8747364 13.7259593,33.9867778 L13.5003176,34 C12.4352026,34 11.5717562,33.1543158 11.5717562,32.1111115 L11.5717562,6.44867241 L3.29244221,14.5576707 C2.60535647,15.230559 1.51447307,15.2977414 0.746741185,14.7144484 L0.565456445,14.5576707 C0.203433921,14.2036979 0,13.7232459 0,13.2222265 C0,12.7212072 0.203433921,12.2407552 0.565456445,11.8867824 L12.1368247,0.553451397 L12.2949667,0.415562566 L12.3123238,0.402340332 L12.3528236,0.372118101 C12.3990661,0.337832251 12.4473669,0.30629414 12.4974657,0.277673691 C12.5206084,0.264451457 12.5437512,0.249340364 12.5688225,0.238007033 C12.6395797,0.200833701 12.7123272,0.167415065 12.7867499,0.137895957 L12.9024636,0.0963403955 L12.9911774,0.0698959713 L13.1165339,0.0396737406 L13.2168191,0.0226737442 C13.3104989,0.00731722677 13.4053352,0 13.5003176,0 L13.3286757,0.00756265096 L13.4656035,0 L13.5003176,0 Z" id="路径"></path>
                    </g>
                </g>
            </g>
        </g>
    </g>
</svg>