<?xml version="1.0" encoding="UTF-8"?>
<svg width="639px" height="546px" viewBox="0 0 639 546" version="1.1" xmlns="http://www.w3.org/2000/svg" xmlns:xlink="http://www.w3.org/1999/xlink">
    <!-- Generator: Sketch 59.1 (86144) - https://sketch.com -->
    <title>车子</title>
    <desc>Created with Sketch.</desc>
    <defs>
        <filter x="-3.5%" y="-50.0%" width="106.9%" height="200.0%" filterUnits="objectBoundingBox" id="filter-1">
            <feGaussianBlur stdDeviation="2" in="SourceGraphic"></feGaussianBlur>
        </filter>
        <filter x="-3.5%" y="-50.0%" width="106.9%" height="200.0%" filterUnits="objectBoundingBox" id="filter-2">
            <feGaussianBlur stdDeviation="2" in="SourceGraphic"></feGaussianBlur>
        </filter>
        <filter x="-1.9%" y="-50.0%" width="103.8%" height="200.0%" filterUnits="objectBoundingBox" id="filter-3">
            <feGaussianBlur stdDeviation="2" in="SourceGraphic"></feGaussianBlur>
        </filter>
        <linearGradient x1="50%" y1="14.7827602%" x2="50%" y2="108.788336%" id="linearGradient-4">
            <stop stop-color="#FBFBFC" offset="0%"></stop>
            <stop stop-color="#CFD3D4" offset="100%"></stop>
        </linearGradient>
        <linearGradient x1="50%" y1="0%" x2="50%" y2="100%" id="linearGradient-5">
            <stop stop-color="#636667" offset="0%"></stop>
            <stop stop-color="#3A393A" offset="100%"></stop>
        </linearGradient>
        <linearGradient x1="27.5759388%" y1="6.66247805%" x2="69.4656883%" y2="96.1647713%" id="linearGradient-6">
            <stop stop-color="#707270" offset="0%"></stop>
            <stop stop-color="#363036" offset="100%"></stop>
        </linearGradient>
        <linearGradient x1="27.5759388%" y1="6.66247805%" x2="69.4656883%" y2="96.1647713%" id="linearGradient-7">
            <stop stop-color="#707270" offset="0%"></stop>
            <stop stop-color="#363036" offset="100%"></stop>
        </linearGradient>
        <linearGradient x1="50%" y1="14.7827602%" x2="50%" y2="108.788336%" id="linearGradient-8">
            <stop stop-color="#FBFBFC" offset="0%"></stop>
            <stop stop-color="#CFD3D4" offset="100%"></stop>
        </linearGradient>
        <linearGradient x1="50%" y1="0%" x2="50%" y2="100%" id="linearGradient-9">
            <stop stop-color="#838383" offset="0%"></stop>
            <stop stop-color="#464646" offset="100%"></stop>
        </linearGradient>
        <linearGradient x1="50%" y1="14.7827602%" x2="50%" y2="108.788336%" id="linearGradient-10">
            <stop stop-color="#FBFBFC" offset="0%"></stop>
            <stop stop-color="#CFD3D4" offset="100%"></stop>
        </linearGradient>
        <linearGradient x1="50%" y1="0%" x2="50%" y2="100%" id="linearGradient-11">
            <stop stop-color="#636667" offset="0%"></stop>
            <stop stop-color="#3A393A" offset="100%"></stop>
        </linearGradient>
        <linearGradient x1="50%" y1="0%" x2="50%" y2="100%" id="linearGradient-12">
            <stop stop-color="#636667" offset="0%"></stop>
            <stop stop-color="#3A393A" offset="100%"></stop>
        </linearGradient>
        <linearGradient x1="50%" y1="14.7827602%" x2="50%" y2="108.788336%" id="linearGradient-13">
            <stop stop-color="#FBFBFC" offset="0%"></stop>
            <stop stop-color="#CFD3D4" offset="100%"></stop>
        </linearGradient>
        <linearGradient x1="50%" y1="0%" x2="50%" y2="100%" id="linearGradient-14">
            <stop stop-color="#E5E5E5" offset="0%"></stop>
            <stop stop-color="#635E5E" offset="100%"></stop>
        </linearGradient>
        <linearGradient x1="50%" y1="0%" x2="50%" y2="100%" id="linearGradient-15">
            <stop stop-color="#636667" offset="0%"></stop>
            <stop stop-color="#3A393A" offset="100%"></stop>
        </linearGradient>
        <linearGradient x1="50%" y1="0%" x2="50%" y2="100%" id="linearGradient-16">
            <stop stop-color="#E5E5E5" offset="0%"></stop>
            <stop stop-color="#635E5E" offset="100%"></stop>
        </linearGradient>
    </defs>
    <g id="页面-1" stroke="none" stroke-width="1" fill="none" fill-rule="evenodd">
        <g id="1" transform="translate(-241.000000, -617.000000)">
            <g id="编组-7" transform="translate(-1.000000, 0.000000)">
                <g id="车子" transform="translate(246.000000, 617.000000)">
                    <ellipse id="椭圆形" fill="#585B6A" filter="url(#filter-1)" cx="86.5" cy="535" rx="86.5" ry="6"></ellipse>
                    <ellipse id="椭圆形备份" fill="#585B6A" filter="url(#filter-2)" cx="517.5" cy="535" rx="86.5" ry="6"></ellipse>
                    <ellipse id="椭圆形备份-2" fill="#585B6A" filter="url(#filter-3)" cx="297" cy="535" rx="159" ry="6"></ellipse>
                    <g transform="translate(10.000000, 0.000000)">
                        <path d="M561,369.080656 C561,369.080656 596.799641,407.410574 607.892879,447.295082 L619,453 C619,453 608.920287,396.022131 582.20766,366 L561,369.080656 Z" id="路径" fill="#050101" fill-rule="nonzero"></path>
                        <path d="M609,333 L591.487326,327.654469 L562.299536,300.856475 L558.853953,287.802125 C558.853953,287.802125 559.202783,254.427721 558.853953,253.063204 C558.505124,251.698687 547.826664,225.132802 547.826664,225.132802 L543,210.826472 L547.662927,190" id="路径" fill="#050101" fill-rule="nonzero"></path>
                        <path d="M607.50587,333 L607.50587,333 L546,190.239432 C552.995699,187.318742 560.885237,187.25246 567.930667,190.055187 C574.976097,192.857914 580.599429,198.299721 583.561927,205.181859 L622.73059,296.093328 C625.693887,302.968824 625.75756,310.720341 622.907595,317.642006 C620.05763,324.563672 614.527578,330.088268 607.534434,333" id="路径" fill="url(#linearGradient-4)" fill-rule="nonzero"></path>
                        <path d="M370.604629,397 L323.386301,397 C323.386301,397 342.28494,353.44 343.316803,335.910968 C324.835149,323.370968 304,272.245806 304,272.245806 L424,265 L414.755639,353.667097 L370.604629,397 Z" id="路径" fill="#202121" fill-rule="nonzero"></path>
                        <path d="M560.985094,237.972298 C560.985094,237.972298 559.160851,206.847928 533.776411,194.494514 C505.130873,190.379071 334.976235,213.272553 325.770502,214.327977 C316.564768,215.383401 277.755593,274.820038 306.323654,272.957109 C334.891714,271.09418 425.920712,265.753312 425.920712,265.753312 L566,250.318628 L560.985094,237.972298 Z" id="路径" fill="url(#linearGradient-5)" fill-rule="nonzero"></path>
                        <polygon id="路径" fill="#202121" fill-rule="nonzero" points="200 382 456 382 447.801113 397 201.432336 395.901154"></polygon>
                        <path d="M588,457.528254 C587.984393,500.326638 553.279553,535.010391 510.481164,535 C467.682775,534.989586 432.9948,500.288965 433,457.490579 C433.0052,414.692193 467.701606,380 510.5,380 C531.055499,380 550.768998,388.166124 565.303271,402.701721 C579.837544,417.237317 588.001872,436.951559 588,457.50706 M510.499996,410.999998 C491.689001,410.997141 474.728669,422.326411 467.528033,439.704682 C460.327397,457.082954 464.3046,477.087629 477.604972,490.39002 C490.905344,503.692412 510.909416,507.672654 528.288783,500.474658 C545.66815,493.276663 556.999998,476.318054 556.999998,457.50706 C557.001871,445.17327 552.103605,433.343999 543.382961,424.62203 C534.662316,415.900061 522.833788,410.999998 510.499996,410.999998" id="形状" fill="url(#linearGradient-6)" fill-rule="nonzero"></path>
                        <path d="M545,457 C545,474.673112 530.673112,489 513,489 C495.326888,489 481,474.673112 481,457 C481,439.326888 495.326888,425 513,425 C530.673112,425 545,439.326888 545,457" id="路径" fill="#BABABA" fill-rule="nonzero"></path>
                        <path d="M131,376.034629 C131,376.034629 66.4127755,363.983942 17,391 C48.5199851,335.93456 93.1916324,353.985648 117.748973,364.154975 L131,376.034629 Z" id="路径" fill="#FDFDFD" fill-rule="nonzero"></path>
                        <path d="M155,457.528254 C154.984384,500.326638 120.279546,535.010391 77.4811596,535 C34.6827732,534.989586 -0.00519997361,500.288965 0,457.490579 C0.00519997361,414.692193 34.7016044,380 77.5,380 C98.0591664,380 117.775878,388.169032 132.310759,402.709213 C146.845641,417.249394 155.007486,436.969082 155,457.528254 M77.499992,411.021192 C58.6889981,411.018335 41.7286671,422.347605 34.5280313,439.725876 C27.3273955,457.104148 31.3045985,477.108823 44.6049695,490.411214 C57.9053406,503.713606 77.9094119,507.693848 95.2887778,500.495852 C112.668144,493.297857 123.999991,476.339248 123.999991,457.528254 C124.001864,445.194464 119.103599,433.365193 110.382954,424.643224 C101.66231,415.921255 89.8337825,411.021192 77.499992,411.021192" id="形状" fill="url(#linearGradient-7)" fill-rule="nonzero"></path>
                        <path d="M110,457 C110,474.673112 95.673112,489 78,489 C60.326888,489 46,474.673112 46,457 C46,439.326888 60.326888,425 78,425 C95.673112,425 110,439.326888 110,457" id="路径" fill="#BABABA" fill-rule="nonzero"></path>
                        <path d="M73.4568901,463.634566 L73.4568901,463.634566 C69.8505463,461.156937 68.9153382,456.200039 71.3672611,452.558872 L136.911957,355 L150,363.953321 L84.455304,461.512194 C81.9996369,465.15079 77.0866769,466.094362 73.4777864,463.620511" id="路径" fill="#2E2F2F" fill-rule="nonzero"></path>
                        <path d="M108.124762,406.589666 L100.729623,416.099953 C99.4307137,417.761101 99.9120791,420.024519 101.807764,421.169459 L102.119059,421.354767 C103.044419,421.910687 104.18715,422.119365 105.290686,421.933951 C106.394223,421.748537 107.366094,421.184567 107.988096,420.368662 L115.299717,410.825284 C116.51555,409.229834 116.111302,407.08674 114.373427,405.914614 L114.14565,405.762396 C113.23294,405.147691 112.069942,404.88803 110.930597,405.044576 C109.791253,405.201122 108.776283,405.760035 108.124762,406.589666" id="路径" fill="#B98A48" fill-rule="nonzero"></path>
                        <path d="M521.540018,462.639542 L521.540018,462.639542 C523.27401,461.450841 524.468538,459.615753 524.86059,457.538332 C525.252642,455.46091 524.810071,453.311492 523.630323,451.56334 L458.085312,354 L445,362.946703 L510.558946,460.510044 C511.737438,462.259057 513.556765,463.463934 515.616344,463.859383 C517.675923,464.254831 519.80688,463.808426 521.540018,462.618458" id="路径" fill="#2E2F2F" fill-rule="nonzero"></path>
                        <path d="M487.873729,404.589785 L495.268099,414.100789 C496.570514,415.759178 496.088384,418.023639 494.190069,419.164059 L493.878807,419.349381 C492.954849,419.908972 491.81097,420.119827 490.706277,419.934185 C489.601583,419.748543 488.629559,419.182114 488.010381,418.363202 L480.69952,408.819104 C479.484731,407.2256 479.889067,405.084542 481.625714,403.914683 L481.853467,403.762454 C482.766083,403.147702 483.92896,402.888022 485.068186,403.044579 C486.207411,403.201137 487.222275,403.760092 487.873729,404.589785" id="路径" fill="#B98A48" fill-rule="nonzero"></path>
                        <polygon id="路径" fill="url(#linearGradient-8)" fill-rule="nonzero" points="521.686238 471 440.563645 458.622646 410 435.092227 418.313762 409 530 444.907773"></polygon>
                        <path d="M521.894206,463 L503.700177,457.070939 C502.718445,456.752635 501.901587,456.049729 501.429979,455.117432 C500.958371,454.185135 500.870806,453.100136 501.186619,452.102021 L501.923471,449.747216 C502.578034,447.669046 504.763649,446.523955 506.805971,447.18917 L525,453.111223 L521.894206,463 Z" id="路径" fill="#050101" fill-rule="nonzero"></path>
                        <path d="M206.178918,176.518481 C206.178918,176.518481 192.017301,251.777457 182.776845,320.256092 C198.205927,351.907063 216,393.215097 216,393.215097 L192.017301,402 L146.770932,365.214538 L119,315.810889 L119,287.557122 L136.482517,238.512184 L160.557267,197.295586 L172.729177,187.075839 L180.256077,171.749735 L185.09935,163 L194.523907,167.564773 L206.178918,176.518481 Z" id="路径" fill="url(#linearGradient-9)" fill-rule="nonzero"></path>
                        <path d="M469.9677,383.401601 C471.349601,382.584065 472.963973,382.249192 474.556918,382.449649 C481.296231,383.281726 508.274631,385.18563 584.860293,377.337313 C586.875906,377.125317 588.709854,376.076318 589.914778,374.446199 C593.862492,369.122319 601.447744,360.018836 605.254468,355.484723 C606.716685,353.746843 607.402737,351.410907 606.75601,349.20889 C599.998514,326.20054 586.275589,283.453604 561.681569,239.727343 C560.812864,238.182853 558.047225,237.708652 555.985581,237.985623 C517.213384,242.921671 446.535195,248.358375 381.447251,267.996795 C366.311995,272.566166 345.988314,342.98947 321.033119,390.50951 L201.896733,394.41604 L147.770746,335.97323 C137.975825,325.396713 135.266208,310.069096 140.841097,296.773956 L192.203684,183.724351 L185.210589,163 L151.922896,167.576422 C151.922896,167.576422 59.6662168,290.871853 60,345.238897 C72.6090809,363.403555 150.943017,348.376814 167.685557,444.284229 C169.793354,456.525629 417.984759,454.93199 417.984759,454.93199 C428.086678,456.194208 466.414757,385.545256 469.9677,383.408653" id="路径" fill="url(#linearGradient-10)" fill-rule="nonzero"></path>
                        <line x1="209" y1="92" x2="219" y2="38" id="路径" stroke="#040000" stroke-width="5.81" stroke-linecap="round"></line>
                        <polygon id="路径" fill="url(#linearGradient-11)" fill-rule="nonzero" points="219.276567 40.9107661 206 29.6529602 220.366485 0.379798669 224.310627 0 226 42"></polygon>
                        <path d="M198.692362,74 C198.692362,74 231.33112,94.0525383 234,106.988075 C232.995731,123.636525 206.348197,177 206.348197,177 L179.370493,162.723884 L176,151.676388 L176,121.243135 L191.696869,81.4819761 L198.692362,74 Z" id="路径" fill="url(#linearGradient-12)" fill-rule="nonzero"></path>
                        <path d="M214,93.6235426 L198.750389,74 C198.750389,74 139.102644,109.070667 135.715397,117.592248 L133,131.548798 L142.797823,140.745356 C142.797823,140.745356 177.706065,156.403411 197.385692,153.682411 L205.517885,134.276829 L189.29549,132.223775 L187.895801,118.604713 L213.993002,109.752674 L214,93.6235426 Z" id="路径" fill="url(#linearGradient-13)" fill-rule="nonzero"></path>
                        <polygon id="路径" fill="url(#linearGradient-14)" fill-rule="nonzero" points="135.813367 116.334778 179 103 167.057692 124.169046 133 130"></polygon>
                        <path d="M237,124.499878 C237,127.938383 234.928323,131.03818 231.751292,132.353395 C228.574261,133.66861 224.917774,132.940135 222.48737,130.50776 C220.056965,128.075386 219.331451,124.418309 220.649239,121.242345 C221.967027,118.066381 225.068502,115.997219 228.507005,116 C230.76068,116 232.921949,116.895742 234.514892,118.489976 C236.107835,120.08421 237.001824,122.246204 237,124.499878" id="路径" fill="#040000" fill-rule="nonzero"></path>
                        <path d="M231,118.5 C231,123.19442 227.19442,127 222.5,127 C217.80558,127 214,123.19442 214,118.5 C214,113.80558 217.80558,110 222.5,110 C227.19442,110 231,113.80558 231,118.5" id="路径" fill="#040000" fill-rule="nonzero"></path>
                        <path d="M215,123.274517 C215,123.274517 217.198675,126.980673 223.350993,130 C229.390728,129.319971 231.013245,121.030422 231.013245,121.030422 L233,116.440229 L225.13245,111 L222.721854,116.358626 L220.92053,121.234431 L215,123.274517 Z" id="路径" fill="#040000" fill-rule="nonzero"></path>
                        <line x1="223" y1="93" x2="242" y2="41" id="路径" stroke="#040000" stroke-width="5.81" stroke-linecap="round"></line>
                        <polygon id="路径" fill="url(#linearGradient-15)" fill-rule="nonzero" points="239.529897 43.6423818 228 30.0341239 247.906922 4 252 4.37263266 246.189102 46"></polygon>
                        <line x1="183" y1="165" x2="108" y2="316" id="路径" stroke="#D7DADB" stroke-width="1.45" stroke-linejoin="round"></line>
                        <path d="M109.461312,315.089764 L133,267 L82.5221143,275.220472 C70.7670884,297.628346 61.4819064,320.532283 60,339 L109.461312,315.089764 Z" id="路径" fill="url(#linearGradient-16)" fill-rule="nonzero"></path>
                        <polygon id="路径" fill="#F8D063" fill-rule="nonzero" points="109.439321 314.914702 133 267 122.043711 268.772265 105.534038 310.826489 60 334.742328 60 339"></polygon>
                        <g id="编组" opacity="0.35" transform="translate(65.000000, 273.000000)" fill="#FAFAFA" fill-rule="nonzero">
                            <g id="路径">
                                <path d="M0.235714286,44.6879032 L29.5214286,0.500806452 L17.8571429,2.90322581 C17.8571429,2.90322581 2.65714286,35.8983871 0.235714286,44.6951613"></path>
                            </g>
                        </g>
                        <g id="编组" opacity="0.35" transform="translate(141.000000, 108.000000)" fill="#FDFDFD" fill-rule="nonzero">
                            <g id="路径">
                                <polygon points="0.67375 20.5054839 10.759375 18.7170968 21.690625 0.0541935484 10.57375 3.61741935"></polygon>
                            </g>
                        </g>
                        <path d="M549.058528,256.527736 L494.74068,262.976436 C493.555606,263.116404 492.384388,262.625896 491.668214,261.689681 C490.952039,260.753466 490.799711,259.513777 491.26861,258.437595 C491.737509,257.361412 492.756398,256.612232 493.941472,256.472264 L548.25932,250.023564 C549.444394,249.883596 550.615612,250.374104 551.331786,251.310319 C552.047961,252.246534 552.200289,253.486223 551.73139,254.562405 C551.262491,255.638588 550.243602,256.387768 549.058528,256.527736" id="路径" fill="#C6C6C6" fill-rule="nonzero"></path>
                        <path d="M431.82698,443 C435.64527,437.969266 439.8333,431.843358 444,425.44189 L344.25,337 C341.405836,343.818341 338.979261,351.23856 336,358.113426 L431.82698,443 Z" id="路径" fill="#B81C22" fill-rule="nonzero"></path>
                        <path d="M350.179841,328.931551 L449.738504,418 C453.778566,411.564806 457.649705,405.200251 461,399.732809 L357.749072,307 C354.997044,313.498769 351.920951,320.798562 349,328.010782" id="路径" fill="#B81C22" fill-rule="nonzero"></path>
                        <path d="M579,327.89203 L586.543045,358 C586.543045,358 602.402959,354.931854 598.331667,338.680719 C594.260375,322.429583 579,327.877692 579,327.877692" id="路径" fill="#EF901D" fill-rule="nonzero"></path>
                    </g>
                </g>
            </g>
        </g>
    </g>
</svg>