<svg width="24" height="24" viewBox="0 0 24 24" fill="none" xmlns="http://www.w3.org/2000/svg">
<path d="M12.3555 0C14.2235 0 15.7413 1.50012 15.7714 3.36213L15.7719 3.41866V13.6488C16.9873 14.6565 17.7109 16.1565 17.7109 17.7759C17.7109 19.95 16.4171 21.8218 14.5578 22.6622C13.8803 22.9839 13.1233 23.1643 12.326 23.1643C10.862 23.1643 9.53393 22.5561 8.58466 21.5812C7.60601 20.6102 7 19.2639 7 17.7759C7 16.1547 7.7255 14.6547 8.93899 13.6487L8.93904 3.41866C8.93904 1.53059 10.4686 0 12.3555 0ZM12.3555 1.53251C11.3249 1.53251 10.4875 2.36017 10.4708 3.38745L10.4705 3.41866V13.7569C10.5733 14.0657 10.47 14.4167 10.1958 14.6172L10.18 14.6285C9.15479 15.3397 8.53151 16.5046 8.53151 17.7759C8.53151 19.8892 10.2435 21.6024 12.3555 21.6024C14.4674 21.6024 16.1794 19.8892 16.1794 17.7759C16.1794 16.5564 15.6063 15.4339 14.6511 14.7153L14.622 14.6937C14.4863 14.5939 14.3874 14.4519 14.3409 14.2901C14.2778 14.1798 14.2434 14.0555 14.2406 13.9285L14.2404 13.9104V3.41866C14.2404 2.37696 13.3965 1.53251 12.3555 1.53251ZM12.2966 7.60356C12.4096 7.60356 12.5185 7.62124 12.6206 7.65399C13.0518 7.78121 13.3686 8.1798 13.3686 8.64847L13.3687 14.803C14.5979 15.2433 15.4774 16.4191 15.4774 17.8006C15.4774 17.9784 15.4628 18.1528 15.4348 18.3227C15.2619 19.8739 13.9299 21.0906 12.326 21.0906C11.116 21.0906 10.0607 20.3981 9.54111 19.3918C9.27059 18.9237 9.11574 18.3802 9.11574 17.8006C9.11574 16.4147 10.0009 15.2358 11.2363 14.7988L11.2363 8.66382C11.2363 8.07825 11.711 7.60356 12.2966 7.60356Z" fill="#1FDC5D"/>
</svg>
