<svg width="72" height="72" viewBox="0 0 72 72" fill="none" xmlns="http://www.w3.org/2000/svg">
<g opacity="0.5">
<path d="M10.3339 9.85355H20.8497V15.729C18.2141 16.8683 16.1686 19.06 15.2176 21.7808C14.2288 24.6098 14.5222 27.7286 16.0209 30.3233L22.5123 41.5638L25.361 63.203L25.3611 63.2033C25.4247 63.6837 25.6057 64.1409 25.8881 64.5346C26.1705 64.9283 26.5456 65.2463 26.9801 65.4606C27.4147 65.6748 27.8954 65.7786 28.3796 65.7628C28.8639 65.7471 29.3368 65.6122 29.7565 65.3701L29.7567 65.37L57.3301 49.4514C57.3302 49.4514 57.3303 49.4513 57.3304 49.4513C57.7506 49.2091 58.1044 48.8669 58.3607 48.4552C58.6169 48.0434 58.7676 47.5746 58.7993 47.0906L58.7993 47.0905C58.8309 46.6066 58.7427 46.1223 58.5425 45.6805C58.3422 45.2388 58.0361 44.8533 57.6513 44.5582C57.6512 44.5582 57.6512 44.5581 57.6512 44.5581L40.337 31.2762L33.8456 20.0331C31.8863 16.637 28.1783 14.664 24.2973 14.904V9.85496H32.3656C33.3181 9.85496 34.0897 9.08337 34.0897 8.13082C34.0897 7.35213 33.5737 6.69458 32.8656 6.48032V6.40527H32.3656H10.3339C9.38133 6.40527 8.60974 7.17687 8.60974 8.12941C8.60974 9.08215 9.38222 9.85355 10.3339 9.85355ZM41.1783 40.1071L41.1782 40.107C40.3975 39.5611 39.3223 39.7525 38.7769 40.5326C38.231 41.3133 38.4224 42.3885 39.2024 42.9339L45.2168 47.1441L45.2169 47.1442C45.9978 47.6906 47.073 47.5005 47.6195 46.7204L47.6197 46.7202C48.166 45.9392 47.976 44.864 47.1959 44.3176L47.1957 44.3174L41.1783 40.1071ZM30.8603 21.7563L30.8603 21.7564L36.7303 31.9229L24.8768 38.7644L19.0068 28.5998C19.0068 28.5998 19.0068 28.5998 19.0068 28.5998C17.1171 25.3268 18.2389 21.1411 21.5119 19.2513C24.7848 17.3616 28.9706 18.4827 30.8603 21.7563ZM28.6799 62.0106L26.0551 42.0681L38.9996 34.5953L54.9575 46.8401L28.6799 62.0106Z" fill="white" stroke="white"/>
</g>
</svg>
