<svg width="52" height="62" viewBox="0 0 52 62" fill="none" xmlns="http://www.w3.org/2000/svg">
<path d="M2.33388 4.85355H12.8497V10.729C10.2141 11.8683 8.1686 14.06 7.21759 16.7808C6.22877 19.6098 6.52216 22.7286 8.02092 25.3233L14.5123 36.5638L17.361 58.203L17.3611 58.2033C17.4247 58.6837 17.6057 59.1409 17.8881 59.5346C18.1705 59.9283 18.5456 60.2463 18.9801 60.4606C19.4147 60.6748 19.8954 60.7786 20.3796 60.7628C20.8639 60.7471 21.3368 60.6122 21.7565 60.3701L21.7567 60.37L49.3301 44.4514C49.3302 44.4514 49.3303 44.4513 49.3304 44.4513C49.7506 44.2091 50.1044 43.8669 50.3607 43.4552C50.6169 43.0434 50.7676 42.5746 50.7993 42.0906L50.7993 42.0905C50.8309 41.6066 50.7427 41.1223 50.5425 40.6805C50.3422 40.2388 50.0361 39.8533 49.6513 39.5582C49.6512 39.5582 49.6512 39.5581 49.6512 39.5581L32.337 26.2762L25.8456 15.0331C23.8863 11.637 20.1783 9.66399 16.2973 9.904V4.85496H24.3656C25.3181 4.85496 26.0897 4.08337 26.0897 3.13082C26.0897 2.35213 25.5737 1.69458 24.8656 1.48032V1.40527H24.3656H2.33388C1.38133 1.40527 0.609741 2.17687 0.609741 3.12941C0.609741 4.08215 1.38222 4.85355 2.33388 4.85355ZM33.1783 35.1071L33.1782 35.107C32.3975 34.5611 31.3223 34.7525 30.7769 35.5326C30.231 36.3133 30.4224 37.3885 31.2024 37.9339L37.2168 42.1441L37.2169 42.1442C37.9978 42.6906 39.073 42.5005 39.6195 41.7204L39.6197 41.7202C40.166 40.9392 39.976 39.864 39.1959 39.3176L39.1957 39.3174L33.1783 35.1071ZM22.8603 16.7563L22.8603 16.7564L28.7303 26.9229L16.8768 33.7644L11.0068 23.5998C11.0068 23.5998 11.0068 23.5998 11.0068 23.5998C9.1171 20.3268 10.2389 16.1411 13.5119 14.2513C16.7848 12.3616 20.9706 13.4827 22.8603 16.7563ZM20.6799 57.0106L18.0551 37.0681L30.9996 29.5953L46.9575 41.8401L20.6799 57.0106Z" fill="white" stroke="white"/>
</svg>
