<?xml version="1.0" encoding="UTF-8"?>
<svg width="63px" height="63px" viewBox="0 0 63 63" version="1.1" xmlns="http://www.w3.org/2000/svg" xmlns:xlink="http://www.w3.org/1999/xlink">
    <!-- Generator: Sketch 59.1 (86144) - https://sketch.com -->
    <title>身体指标</title>
    <desc>Created with Sketch.</desc>
    <g id="页面-1" stroke="none" stroke-width="1" fill="none" fill-rule="evenodd">
        <g id="1" transform="translate(-144.000000, -683.000000)">
            <g id="身体指标" transform="translate(79.000000, 614.000000)">
                <g id="编组-5" transform="translate(65.000000, 67.000000)">
                    <g id="身体指标" transform="translate(0.000000, 2.000000)">
                        <rect id="矩形" fill="#000000" x="0" y="0" width="63" height="63" rx="11"></rect>
                        <path d="M16.9129631,17 C21.0433192,17.6721924 25.0420285,18.0512866 29.0666605,18.2950263 C34.8514972,18.6446071 40.5489082,17.9352685 46.2412363,17.1378987 C47.5983678,16.9480972 48.6403602,17.1348456 48.9392341,18.5026376 C49.2701302,20.0286824 48.2032317,20.7568484 46.8654152,20.9670039 C44.381407,21.3583105 41.8902828,21.7424932 39.3874679,21.9546841 C37.3949751,22.1231139 36.7037022,23.0716125 36.622376,25.0133887 C36.3260435,32.2507793 38.1833314,39.1340095 39.8647512,46.0543858 C40.0680668,46.8929726 40.3120455,47.7234177 40.4655488,48.5726904 C40.6724224,49.698778 40.3435595,50.6264138 39.1419643,50.9225652 C37.9246123,51.2227875 37.2348641,50.5465242 36.9390399,49.4163657 C35.9722743,45.7297388 35.0192325,42.0395499 34.0539918,38.352414 C33.8725326,37.6568145 33.6976812,36.9545998 33.4440451,36.2834251 C33.1904088,35.6127592 32.8747614,34.909018 31.9705154,34.9400579 C31.0662693,34.9710978 30.7729866,35.6641531 30.5833948,36.3684032 C29.5597008,40.1858049 28.5558301,44.0118571 27.5428102,47.8338384 C27.3765997,48.4597254 27.2581683,49.1064753 27.0162228,49.7018312 C26.617216,50.6788255 25.8690146,51.220752 24.7924586,50.9144236 C23.7159026,50.6080952 23.3423102,49.7827385 23.5817143,48.7202572 C24.1159259,46.3352716 24.6216735,43.9406179 25.2529684,41.580566 C26.7132826,36.1231369 27.4686,30.6010837 27.3105221,24.9345168 C27.2546103,22.933205 26.5074255,22.1027599 24.5378058,21.9394185 C22.0360075,21.7323161 19.5362424,21.3695052 17.0690078,20.9064507 C15.2142614,20.559923 14.4848667,19.037949 15.3830133,17.7851574 C15.7962523,17.2081201 16.3924752,17.0157744 16.9129631,17 L16.9129631,17 Z M31.8813004,16.9993695 C29.62455,16.9595938 27.9361296,15.1669225 28.0018548,12.8820262 C28.0642662,10.7236389 29.7913485,9.0072045 31.9072591,9 C34.0231696,8.99228862 36.0164668,10.9556642 35.9998974,13.0378146 C35.9838803,15.1912299 34.0629362,17.0391453 31.8813004,16.9993695 Z" id="形状" fill="#FFFFFF" fill-rule="nonzero"></path>
                    </g>
                </g>
            </g>
        </g>
    </g>
</svg>