<svg width="24" height="24" viewBox="0 0 24 24" fill="none" xmlns="http://www.w3.org/2000/svg">
<path d="M6 12C6 13.5913 6.63214 15.1174 7.75736 16.2426C8.88258 17.3679 10.4087 18 12 18C13.5913 18 15.1174 17.3679 16.2426 16.2426C17.3679 15.1174 18 13.5913 18 12C18 10.4087 17.3679 8.88258 16.2426 7.75736C15.1174 6.63214 13.5913 6 12 6C10.4087 6 8.88258 6.63214 7.75736 7.75736C6.63214 8.88258 6 10.4087 6 12Z" fill="#FED95D"/>
<path d="M22.5 12C22.5 10.7437 22.2795 9.5175 21.8527 8.3625C21.781 8.1799 21.6406 8.03268 21.4616 7.95241C21.2825 7.87214 21.0792 7.86521 20.8951 7.93311C20.7111 8.001 20.5609 8.13832 20.4769 8.31561C20.3929 8.4929 20.3817 8.69605 20.4457 8.8815C20.811 9.8715 21 10.9222 21 12C21 12.5168 20.9467 13.0208 20.8627 13.5135C20.4911 13.5466 20.1453 13.7175 19.8931 13.9925C19.641 14.2675 19.5008 14.6269 19.5 15C19.5 15.4425 19.695 15.8363 20.0002 16.1108C18.5063 19.0118 15.4882 21 12 21C7.02975 21 3 16.9703 3 12C3 11.4832 3.05325 10.9792 3.13725 10.4865C3.50889 10.4534 3.85473 10.2825 4.10687 10.0075C4.35901 9.73247 4.49923 9.37312 4.5 9C4.5 8.5575 4.305 8.16375 3.99975 7.88925C5.49375 4.98825 8.51175 3 12 3C12.7808 3 13.5428 3.111 14.2808 3.30375C14.3586 3.66506 14.567 3.98495 14.866 4.20219C15.165 4.41943 15.5337 4.51875 15.9014 4.48114C16.269 4.44352 16.6099 4.27162 16.8588 3.99833C17.1076 3.72505 17.2469 3.36959 17.25 3C17.25 2.60218 17.092 2.22064 16.8107 1.93934C16.5294 1.65804 16.1478 1.5 15.75 1.5C15.369 1.5 15.0247 1.647 14.76 1.881C13.861 1.6322 12.9328 1.50407 12 1.5C7.7745 1.5 4.14225 4.00125 2.4765 7.599C2.19032 7.70513 1.94341 7.8962 1.76888 8.1466C1.59435 8.397 1.50053 8.69477 1.5 9C1.5 9.29475 1.58775 9.56775 1.73475 9.7995C1.57944 10.5227 1.50075 11.2603 1.5 12C1.5 17.799 6.201 22.5 12 22.5C16.2255 22.5 19.8577 19.9988 21.5235 16.401C21.8097 16.2949 22.0566 16.1038 22.2311 15.8534C22.4057 15.603 22.4995 15.3052 22.5 15C22.5 14.7052 22.4123 14.4323 22.2653 14.2005C22.4167 13.4902 22.5 12.7552 22.5 12Z" fill="#FED95D"/>
</svg>
