<svg width="16" height="16" viewBox="0 0 16 16" fill="none" xmlns="http://www.w3.org/2000/svg">
<path d="M5.06732 7.98415C5.06732 9.59513 6.3731 10.9009 7.98408 10.9009C9.59507 10.9009 10.9008 9.59513 10.9008 7.98415C10.9008 6.37316 9.59507 5.06738 7.98408 5.06738C6.3731 5.06738 5.06732 6.37316 5.06732 7.98415Z" fill="#FE6D3E"/>
<path fill-rule="evenodd" clip-rule="evenodd" d="M7.52369 0.460085C7.52369 0.209074 7.72766 0.00488281 7.98409 0.00488281C8.23814 0.00488281 8.44471 0.210374 8.44471 0.460085V1.69737C8.4441 1.9489 8.24003 2.15257 7.98843 2.15257H7.98774H7.98409H7.98234C7.73023 2.15257 7.52566 1.94919 7.52369 1.69755V0.460085ZM12.104 3.2129L12.9785 2.33834C13.0612 2.25627 13.1751 2.20553 13.3009 2.20553C13.428 2.20553 13.543 2.25739 13.626 2.34112C13.805 2.51955 13.8068 2.80893 13.6297 2.98928L12.7542 3.86413C12.6718 3.94647 12.558 3.99737 12.4324 3.99737C12.3052 3.99737 12.1903 3.94522 12.1077 3.86115C12.0238 3.77784 11.972 3.66256 11.972 3.53518C11.972 3.40963 12.0224 3.29583 12.104 3.2129ZM0.459597 8.44347H1.69775H1.69787C1.94899 8.44199 2.15208 8.23798 2.15208 7.98653V7.98393C2.15208 7.72772 1.94876 7.52352 1.69688 7.52352H0.459597C0.210103 7.52352 0.00439453 7.72988 0.00439453 7.98393V7.98691V7.98783C0.00439453 8.23931 0.208134 8.44321 0.459597 8.44347ZM2.34153 2.34115C2.42475 2.25761 2.53991 2.20591 2.66711 2.20591C2.79282 2.20591 2.90674 2.25638 2.98969 2.33817L3.86428 3.21276C3.94652 3.29544 3.99737 3.40943 3.99737 3.5353C3.99737 3.66204 3.94581 3.77672 3.86256 3.85956L3.86124 3.86066C3.77802 3.94421 3.66287 3.99591 3.53566 3.99591C3.40996 3.99591 3.29603 3.94544 3.21308 3.86364L2.3385 2.98884C2.25636 2.90618 2.2056 2.79227 2.2056 2.66652C2.2056 2.53926 2.25759 2.42412 2.34148 2.34121L2.34153 2.34115ZM2.98965 13.6295L3.86429 12.7549L3.86418 12.7549C3.94587 12.672 3.99625 12.5582 3.99625 12.4326C3.99625 12.3056 3.94471 12.1906 3.8614 12.1074C3.77824 12.0233 3.66279 11.9712 3.53521 11.9712C3.40978 11.9712 3.29609 12.0216 3.21332 12.1031L2.33881 12.9789C2.25855 13.0617 2.20913 13.1746 2.20913 13.2991C2.20913 13.5533 2.41516 13.7593 2.66932 13.7593C2.7939 13.7593 2.90691 13.7098 2.98965 13.6295ZM8.44471 15.5084C8.4441 15.76 8.24003 15.9636 7.98843 15.9636H7.98774H7.98409H7.98321C7.73093 15.9636 7.52614 15.7603 7.52369 15.5087V14.2718C7.52407 14.0195 7.72867 13.8151 7.98106 13.8151L7.98425 13.8151C8.23814 13.8151 8.44471 14.0217 8.44471 14.2718V15.5084ZM3.37961 7.98415C3.37983 10.527 5.44146 12.588 7.98409 12.588C10.5267 12.5878 12.5879 10.5263 12.5877 7.98328C12.5877 5.44065 10.5263 3.37967 7.98344 3.37967C5.44059 3.37967 3.37961 5.4413 3.37961 7.98415ZM13.626 13.6265C13.543 13.7103 13.4279 13.7622 13.3007 13.7622C13.1753 13.7622 13.0616 13.7117 12.9789 13.6299L12.1039 12.7549C12.0221 12.6723 11.9716 12.5586 11.9716 12.4331C11.9716 12.3057 12.0237 12.1904 12.1077 12.1075C12.1908 12.0237 12.3059 11.9719 12.4332 11.9719C12.5582 11.9719 12.6716 12.022 12.7542 12.1031L13.6297 12.979C13.8072 13.1581 13.8063 13.4472 13.6275 13.6248L13.626 13.6265ZM14.2711 8.44347H15.5088H15.509C15.7604 8.44173 15.9638 8.23732 15.9638 7.98545V7.98393C15.9638 7.72772 15.7596 7.52352 15.5088 7.52352H14.2711C14.0216 7.52352 13.8159 7.72988 13.8159 7.98393V7.98693V7.98761C13.8159 8.23915 14.0196 8.44309 14.2711 8.44347Z" fill="#FE6D3E"/>
</svg>
