<svg width="60" height="60" viewBox="0 0 60 60" fill="none" xmlns="http://www.w3.org/2000/svg">
<path d="M48.9978 39.242L48.9978 39.242C49.0242 38.8387 48.9507 38.4351 48.7838 38.067C48.6169 37.6989 48.3618 37.3776 48.0411 37.1317C48.0411 37.1317 48.0411 37.1317 48.0411 37.1316L33.6126 26.0634L28.2031 16.6941C26.5703 13.864 23.4803 12.2199 20.2462 12.4199V8.21235H26.9697C27.7635 8.21235 28.4065 7.56935 28.4065 6.77556C28.4065 6.12666 27.9765 5.57869 27.3864 5.40014V5.33761H26.9697H8.60996C7.81617 5.33761 7.17318 5.9806 7.17318 6.77439C7.17318 7.56834 7.81691 8.21117 8.60996 8.21117H17.3732V13.1074C15.1768 14.0568 13.4722 15.8832 12.6797 18.1506C11.8557 20.5081 12.1002 23.107 13.3492 25.2693L18.7587 34.6364L21.1326 52.669L21.1326 52.6693C21.1856 53.0696 21.3365 53.4506 21.5718 53.7787C21.8071 54.1068 22.1197 54.3718 22.4818 54.5503C22.844 54.7289 23.2445 54.8154 23.6481 54.8022C24.0516 54.7891 24.4457 54.6767 24.7955 54.475L24.7956 54.4749L47.7735 41.2094C48.1237 41.0076 48.4187 40.7224 48.6323 40.3792C48.8458 40.036 48.9714 39.6454 48.9978 39.242ZM34.3137 33.4224L34.3136 33.4224C33.663 32.9675 32.767 33.127 32.3124 33.777C31.8576 34.4275 32.017 35.3235 32.6669 35.778C32.667 35.7781 32.667 35.7781 32.6671 35.7782L37.679 39.2866L37.6791 39.2867C38.3299 39.742 39.2259 39.5836 39.6813 38.9336L39.6814 38.9334C40.1368 38.2825 39.9784 37.3866 39.3283 36.9312L39.3281 36.931L34.3137 33.4224ZM30.607 26.6023L20.7291 32.3035L15.8374 23.833C15.8374 23.833 15.8374 23.833 15.8374 23.833C14.2626 21.1056 15.1975 17.6174 17.9249 16.0427C20.6524 14.4679 24.1405 15.4022 25.7153 18.1302L25.7153 18.1302L30.607 26.6023ZM23.8983 51.6754L21.711 35.0566L32.4981 28.8293L45.7963 39.0333L23.8983 51.6754Z" fill="#30414D" stroke="#30414D" stroke-width="0.833333"/>
</svg>
