<?xml version="1.0" encoding="UTF-8"?>
<svg width="54px" height="76px" viewBox="0 0 54 76" version="1.1" xmlns="http://www.w3.org/2000/svg" xmlns:xlink="http://www.w3.org/1999/xlink">
    <title>4-1-倒计时-选中</title>
    <defs>
        <linearGradient x1="17.82727%" y1="5.07753516%" x2="97.0809463%" y2="105.080729%" id="linearGradient-1">
            <stop stop-color="#C8F664" offset="0%"></stop>
            <stop stop-color="#79FD8D" offset="100%"></stop>
        </linearGradient>
        <linearGradient x1="12.6872481%" y1="30.0344601%" x2="104.602754%" y2="74.4803241%" id="linearGradient-2">
            <stop stop-color="#C8F664" offset="0%"></stop>
            <stop stop-color="#79FD8D" offset="100%"></stop>
        </linearGradient>
        <linearGradient x1="12.6872481%" y1="31.2628087%" x2="104.602754%" y2="72.9742104%" id="linearGradient-3">
            <stop stop-color="#C8F664" offset="0%"></stop>
            <stop stop-color="#79FD8D" offset="100%"></stop>
        </linearGradient>
    </defs>
    <g id="页面-1" stroke="none" stroke-width="1" fill="none" fill-rule="evenodd">
        <g id="切图" transform="translate(-134.000000, -1154.000000)" fill-rule="nonzero">
            <g id="编组" transform="translate(108.000000, 131.000000)">
                <g id="时长-倒计时" transform="translate(29.000000, 1026.000000)">
                    <path d="M18.3074141,47.0109073 C17.9490289,47.0115954 17.59444,47.0842242 17.2647256,47.2244765 C12.8249907,49.1013834 9.4696718,52.8774131 8.13184356,57.5024963 C7.82904831,58.4294735 8.05645861,59.4475527 8.72505075,60.1581892 C9.39364289,60.8688256 10.3970543,61.1589681 11.3424822,60.9150353 C12.2879102,60.6711026 13.0249518,59.9319005 13.2650794,58.9868025 C14.1754614,55.910482 16.4093832,53.3980931 19.3607969,52.1312299 C20.5407744,51.6367377 21.2043737,50.3766738 20.9436369,49.125682 C20.6829001,47.8746902 19.570949,46.9836025 18.2913727,47.0002288 L18.3074141,47.0109073 Z" id="路径" fill="url(#linearGradient-1)"></path>
                    <path d="M48,70 L0.00679054997,70 L0.00679054997,62.1405188 C-0.305389916,49.1185041 10.1851833,38.313413 23.4381419,38.0066722 C36.6911005,37.6999314 47.6878188,48.0076974 48,61.0297121 L48,70 L48,70 Z" id="路径" stroke="url(#linearGradient-2)" stroke-width="5"></path>
                    <path d="M24,31 C10.7512582,30.9857629 0.0146963324,20.5847186 0,7.74999996 L0,0 L48,0 L48,7.74999996 C47.9853037,20.5847186 37.2487418,30.9857629 24,31 Z" id="路径" stroke="url(#linearGradient-3)" stroke-width="5" fill="url(#linearGradient-3)"></path>
                </g>
            </g>
        </g>
    </g>
</svg>
