<svg width="16" height="16" viewBox="0 0 16 16" fill="none" xmlns="http://www.w3.org/2000/svg">
<path fill-rule="evenodd" clip-rule="evenodd" d="M7.52369 0.460268C7.52369 0.209257 7.72766 0.00506592 7.98409 0.00506592C8.23814 0.00506592 8.44471 0.210557 8.44471 0.460268V1.69755C8.4441 1.94909 8.24003 2.15275 7.98843 2.15275H7.98774H7.98409H7.98234C7.73023 2.15275 7.52566 1.94938 7.52369 1.69773V0.460268ZM12.104 3.21309L12.9785 2.33852C13.0612 2.25646 13.1751 2.20572 13.3009 2.20572C13.428 2.20572 13.543 2.25758 13.626 2.3413C13.805 2.51973 13.8068 2.80911 13.6297 2.98946L12.7542 3.86431C12.6718 3.94665 12.558 3.99755 12.4324 3.99755C12.3052 3.99755 12.1903 3.9454 12.1077 3.86133C12.0238 3.77802 11.972 3.66274 11.972 3.53536C11.972 3.40982 12.0224 3.29602 12.104 3.21309ZM0.459597 8.44365H1.69775H1.69787C1.94899 8.44217 2.15208 8.23816 2.15208 7.98671V7.98411C2.15208 7.7279 1.94876 7.52371 1.69688 7.52371H0.459597C0.210103 7.52371 0.00439453 7.73007 0.00439453 7.98411V7.98709V7.98801C0.00439453 8.2395 0.208134 8.4434 0.459597 8.44365ZM2.34153 2.34134C2.42475 2.25779 2.53991 2.2061 2.66711 2.2061C2.79282 2.2061 2.90674 2.25657 2.98969 2.33836L3.86428 3.21294C3.94652 3.29562 3.99737 3.40962 3.99737 3.53548C3.99737 3.66222 3.94581 3.7769 3.86256 3.85974L3.86124 3.86085C3.77802 3.94439 3.66287 3.99609 3.53566 3.99609C3.40996 3.99609 3.29603 3.94562 3.21308 3.86383L2.3385 2.98903C2.25636 2.90637 2.2056 2.79246 2.2056 2.6667C2.2056 2.53944 2.25759 2.4243 2.34148 2.34139L2.34153 2.34134ZM2.98965 13.6297L3.86429 12.7551L3.86418 12.7551C3.94587 12.6722 3.99625 12.5583 3.99625 12.4327C3.99625 12.3057 3.94471 12.1908 3.8614 12.1075C3.77824 12.0235 3.66279 11.9714 3.53521 11.9714C3.40978 11.9714 3.29609 12.0217 3.21332 12.1032L2.33881 12.9791C2.25855 13.0619 2.20913 13.1748 2.20913 13.2993C2.20913 13.5535 2.41516 13.7595 2.66932 13.7595C2.7939 13.7595 2.90691 13.71 2.98965 13.6297ZM8.44471 15.5086C8.4441 15.7601 8.24003 15.9638 7.98843 15.9638H7.98774H7.98409H7.98321C7.73093 15.9638 7.52614 15.7605 7.52369 15.5088V14.272C7.52407 14.0196 7.72867 13.8153 7.98106 13.8153L7.98425 13.8153C8.23814 13.8153 8.44471 14.0218 8.44471 14.272V15.5086ZM3.37961 7.98433C3.37983 10.5272 5.44146 12.5882 7.98409 12.5882C10.5267 12.5879 12.5879 10.5265 12.5877 7.98346C12.5877 5.44083 10.5263 3.37985 7.98344 3.37985C5.44059 3.37985 3.37961 5.44148 3.37961 7.98433ZM13.626 13.6267C13.543 13.7105 13.4279 13.7624 13.3007 13.7624C13.1753 13.7624 13.0616 13.7119 12.9789 13.6301L12.1039 12.7551C12.0221 12.6724 11.9716 12.5588 11.9716 12.4333C11.9716 12.3059 12.0237 12.1906 12.1077 12.1076C12.1908 12.0239 12.3059 11.972 12.4332 11.972C12.5582 11.972 12.6716 12.0221 12.7542 12.1033L13.6297 12.9792C13.8072 13.1582 13.8063 13.4474 13.6275 13.6249L13.626 13.6267ZM14.2711 8.44365H15.5088H15.509C15.7604 8.44192 15.9638 8.23751 15.9638 7.98563V7.98411C15.9638 7.7279 15.7596 7.52371 15.5088 7.52371H14.2711C14.0216 7.52371 13.8159 7.73007 13.8159 7.98411V7.98711V7.9878C13.8159 8.23933 14.0196 8.44327 14.2711 8.44365Z" fill="#A29DDF"/>
</svg>
