<?xml version="1.0" encoding="UTF-8"?>
<svg width="84px" height="84px" viewBox="0 0 84 84" version="1.1" xmlns="http://www.w3.org/2000/svg" xmlns:xlink="http://www.w3.org/1999/xlink">
    <!-- Generator: Sketch 59.1 (86144) - https://sketch.com -->
    <title>已插卡</title>
    <desc>Created with Sketch.</desc>
    <defs>
        <linearGradient x1="50%" y1="0%" x2="50%" y2="100%" id="linearGradient-1">
            <stop stop-color="#33E554" offset="0%"></stop>
            <stop stop-color="#20E077" offset="100%"></stop>
        </linearGradient>
    </defs>
    <g id="页面-1" stroke="none" stroke-width="1" fill="none" fill-rule="evenodd">
        <g id="1" transform="translate(-816.000000, -2029.000000)" fill="url(#linearGradient-1)" fill-rule="nonzero">
            <g id="编组-3" transform="translate(236.000000, 567.000000)">
                <g id="已插卡" transform="translate(580.000000, 1469.000000)">
                    <path d="M79.8,0 L4.20000003,0 C1.68000003,0 0,1.66990248 0,4.17475605 L0,16.6990244 C0,19.203878 1.68000003,20.8737805 4.20000003,20.8737805 L12.6,20.8737805 L12.6,62.6213417 C12.6,67.2135734 16.38,70.9708539 21,70.9708539 L25.2,70.9708539 L25.2,20.8737805 L37.8,20.8737805 L37.8,70.9708539 L63,70.9708539 C67.6199999,70.9708539 71.3999999,67.2135734 71.4,62.6213417 L71.4,20.8737805 L79.8,20.8737805 C82.32,20.8737805 84,19.203878 84,16.6990244 L84,4.17475605 C84,1.66990238 82.32,0 79.8,0 Z" id="路径"></path>
                </g>
            </g>
        </g>
    </g>
</svg>