<?xml version="1.0" encoding="UTF-8"?>
<svg width="84px" height="84px" viewBox="0 0 84 84" version="1.1" xmlns="http://www.w3.org/2000/svg" xmlns:xlink="http://www.w3.org/1999/xlink">
    <!-- Generator: Sketch 59.1 (86144) - https://sketch.com -->
    <title>时间</title>
    <desc>Created with Sketch.</desc>
    <defs>
        <linearGradient x1="50%" y1="0%" x2="50%" y2="100%" id="linearGradient-1">
            <stop stop-color="#FCD500" offset="0%"></stop>
            <stop stop-color="#FFC300" offset="100%"></stop>
        </linearGradient>
    </defs>
    <g id="页面-1" stroke="none" stroke-width="1" fill="none" fill-rule="evenodd">
        <g id="1" transform="translate(-239.000000, -2030.000000)" fill="url(#linearGradient-1)" fill-rule="nonzero">
            <g id="编组-3" transform="translate(236.000000, 567.000000)">
                <path d="M80,1504.98563 C80,1524.30596 64.3281248,1539.97126 44.9813213,1539.97126 C25.6345178,1539.97126 10,1524.30509 10,1504.98563 C10,1485.66617 25.6345178,1470 44.9813213,1470 C64.3281248,1470 80.0008688,1485.6653 80,1504.98563 L80,1504.98563 Z M44.5884272,1485.99343 C42.6142826,1485.99343 41.0139221,1487.59379 41.0139221,1489.56794 L41.0139221,1509.29108 L41.0139221,1509.29108 L41,1509.31432 L58.3492297,1519.2214 C60.0538038,1520.19478 62.2243337,1519.61303 63.2136176,1517.91764 C64.1910588,1516.24254 63.6254971,1514.09223 61.9504002,1513.11479 C61.9409795,1513.1093 61.9315333,1513.10384 61.9220618,1513.09843 L48.1629323,1505.24074 L48.1629323,1505.24074 L48.1629323,1489.56794 C48.1629323,1487.59379 46.5625719,1485.99343 44.5884272,1485.99343 Z" id="时间"></path>
            </g>
        </g>
    </g>
</svg>