<svg width="20" height="20" viewBox="0 0 20 20" fill="none" xmlns="http://www.w3.org/2000/svg">
<path fill-rule="evenodd" clip-rule="evenodd" d="M2.83015 12.2075C2.9696 12.661 3.15088 13.0961 3.36949 13.5084L2.26998 15.3409C2.03389 15.7344 2.0959 16.238 2.42036 16.5625L3.4375 17.5796C3.76197 17.9041 4.26563 17.9661 4.6591 17.73L6.49162 16.6305C6.90391 16.8491 7.33902 17.0304 7.79246 17.1698L8.31063 19.2425C8.42193 19.6877 8.82191 20 9.28078 20H10.7192C11.1781 20 11.5781 19.6877 11.6894 19.2425L12.2075 17.1698C12.661 17.0304 13.0961 16.8491 13.5084 16.6305L15.3409 17.73C15.7344 17.9661 16.238 17.9041 16.5625 17.5796L17.5796 16.5625C17.9041 16.238 17.9661 15.7344 17.73 15.3409L16.6305 13.5084C16.8491 13.0961 17.0304 12.661 17.1698 12.2075L19.2425 11.6894C19.6877 11.5781 20 11.1781 20 10.7192V9.28078C20 8.82191 19.6877 8.42193 19.2425 8.31063L17.1698 7.79246C17.0304 7.33902 16.8491 6.90391 16.6305 6.49162L17.73 4.6591C17.9661 4.26563 17.9041 3.76197 17.5796 3.4375L16.5625 2.42036C16.238 2.0959 15.7344 2.03389 15.3409 2.26998L13.5084 3.36949C13.0961 3.15088 12.661 2.9696 12.2075 2.83015L11.6894 0.757464C11.5781 0.312297 11.1781 0 10.7192 0H9.28078C8.82191 0 8.42193 0.312297 8.31063 0.757464L7.79246 2.83015C7.33902 2.9696 6.9039 3.15088 6.49161 3.36949L4.6591 2.26998C4.26563 2.03389 3.76197 2.0959 3.4375 2.42036L2.42036 3.4375C2.0959 3.76197 2.03389 4.26563 2.26998 4.6591L3.36949 6.49162C3.15088 6.90391 2.9696 7.33902 2.83015 7.79246L0.757464 8.31063C0.312297 8.42193 0 8.82191 0 9.28078V10.7192C0 11.1781 0.312297 11.5781 0.757464 11.6894L2.83015 12.2075ZM14 10C14 12.2091 12.2091 14 10 14C7.79086 14 6 12.2091 6 10C6 7.79086 7.79086 6 10 6C12.2091 6 14 7.79086 14 10Z" fill="#26313D"/>
</svg>
