<svg width="161" height="161" viewBox="0 0 161 161" fill="none" xmlns="http://www.w3.org/2000/svg">
<path d="M45.9882 141.457L45.2178 136.142C61.0348 133.831 75.028 124.696 83.5025 111.159L88.0621 113.974C78.7542 128.879 63.3618 138.925 45.9882 141.457ZM90.8292 108.376L85.9867 106.096C89.3828 98.9112 91.128 91.0499 91.0965 83.0942H96.458C96.4894 91.836 94.5712 100.468 90.8292 108.376ZM123.312 107.213H117.951V83.0942C117.982 74.9813 115.357 67.0728 110.467 60.5951L114.759 57.3877C120.341 64.793 123.359 73.8336 123.328 83.1099L123.312 107.213ZM105.907 55.5796C91.7097 42.4197 69.8238 42.2153 55.3904 55.1236L51.8056 51.1301C68.2987 36.3822 93.3134 36.6023 109.539 51.6489L105.907 55.5796ZM42.9223 85.7356H37.5452V83.0942C37.5137 73.8178 40.5325 64.7773 46.114 57.3562L50.4063 60.5636C45.5166 67.0414 42.8751 74.9499 42.9066 83.0628L42.9223 85.7356Z" fill="#26313D"/>
<path d="M96.5059 83.1099H91.0973C91.0816 78.5189 88.1414 74.4468 83.802 72.9846C79.4468 71.5224 74.6514 72.9846 71.8685 76.6322L67.5919 73.4248C71.7427 67.8904 78.9751 65.6421 85.5314 67.8275C92.0878 70.013 96.5216 76.1605 96.5216 83.0785V83.1099H96.5059ZM37.5459 115.247V109.901C52.3409 109.901 64.3373 97.905 64.353 83.1099V80.4214H69.7145V83.0942C69.6987 100.845 55.2968 115.231 37.5459 115.247ZM123.313 123.344C118.329 123.344 113.565 121.347 110.043 117.826C106.521 114.304 104.556 109.524 104.556 104.54V83.0942C104.556 77.8743 102.858 72.8116 99.729 68.6451L104.021 65.4377C107.858 70.5318 109.933 76.7423 109.917 83.1257V104.556C109.917 111.961 115.923 117.951 123.313 117.951V123.344ZM94.9021 63.8025C90.7356 60.658 85.6572 58.9757 80.4373 58.9757C77.1513 58.9914 73.9281 59.7933 71.0194 61.3183L68.3937 56.6487C72.1043 54.6834 76.2236 53.6614 80.4216 53.63C86.805 53.6142 93.0312 55.6896 98.1253 59.526L94.9021 63.8025Z" fill="#26313D"/>
<path d="M37.5459 101.867V96.5054C41.0992 96.5054 44.511 95.0903 47.0267 92.5747C49.5423 90.0591 50.9573 86.6473 50.9573 83.0939C51.0674 75.327 54.2276 67.9216 59.762 62.4658L63.5983 66.2078C59.0545 70.6573 56.4445 76.7263 56.3345 83.0782C56.3187 93.4552 47.9071 101.867 37.5459 101.867ZM117.417 138.013C108.659 136.221 101.663 130.938 95.3896 121.41L99.8705 118.47C105.373 126.834 111.112 131.237 118.502 132.762L117.417 138.013ZM59.479 150.686L58.5042 145.419C65.1863 144.192 72.1829 140.859 79.3996 135.419C84.6038 131.488 91.8677 131.771 96.7417 136.111C100.264 139.224 104.194 141.85 108.392 143.925L106.05 148.752C101.411 146.456 97.0876 143.563 93.2041 140.151C90.2325 137.494 85.7987 137.306 82.6228 139.711C74.7771 145.639 66.9944 149.349 59.479 150.686ZM70.5949 114.413L66.6957 110.734C73.7709 103.282 77.7173 93.3766 77.7016 83.0939V80.4054H83.1259V83.0782C83.1259 94.7602 78.6449 105.97 70.5949 114.413ZM37.5459 128.658V123.344C45.9575 123.375 54.1647 120.734 60.9884 115.813L64.1172 120.168C56.3659 125.718 47.0738 128.69 37.5459 128.658Z" fill="#26313D"/>
<path d="M119.131 49.9984C105.971 34.3229 84.5726 28.2697 65.1551 34.7474L63.5514 29.6376C85.0128 22.5152 108.644 29.2131 123.187 46.5237L119.131 49.9984ZM41.744 49.9984L37.6719 46.508C42.5145 40.7378 48.4262 35.9581 55.1083 32.4519L57.5296 37.2316C51.4921 40.4233 46.1307 44.7628 41.744 49.9984Z" fill="#26313D"/>
<path d="M111.301 26.6656C92.0564 16.1471 68.7869 16.1471 49.5424 26.6656L46.9639 21.9174C67.8121 10.5184 93.0312 10.5184 113.879 21.9174L111.301 26.6656Z" fill="#26313D"/>
</svg>
