<svg width="24" height="24" viewBox="0 0 24 24" fill="none" xmlns="http://www.w3.org/2000/svg">
<path d="M18.2873 16.5963C18.3173 16.641 18.344 16.6883 18.3687 16.7363L19.6667 19.333C19.8422 19.6842 19.9251 20.0744 19.9075 20.4666C19.8898 20.8588 19.7722 21.2399 19.5658 21.5739C19.3594 21.9079 19.0711 22.1835 18.7282 22.3747C18.3853 22.5659 17.9993 22.6663 17.6067 22.6663H6.39333C6.00074 22.6663 5.61467 22.5659 5.27178 22.3747C4.92889 22.1835 4.64057 21.9079 4.43418 21.5739C4.22779 21.2399 4.11018 20.8588 4.09253 20.4666C4.07488 20.0744 4.15777 19.6842 4.33333 19.333L5.63133 16.737C5.656 16.6883 5.68267 16.641 5.71267 16.597C7.27922 17.9355 9.27286 18.6694 11.3333 18.6663H12.6667C14.8113 18.6663 16.774 17.887 18.2873 16.5963ZM12 1.33301C16.418 1.33301 20 4.91501 20 9.33301C20 13.751 16.418 17.333 12 17.333C7.582 17.333 4 13.751 4 9.33301C4 4.91501 7.582 1.33301 12 1.33301ZM12 13.9997C12.4378 13.9997 12.8713 13.9135 13.2757 13.746C13.6802 13.5785 14.0477 13.333 14.3572 13.0235C14.6668 12.7139 14.9124 12.3465 15.0799 11.942C15.2474 11.5376 15.3337 11.1041 15.3337 10.6663C15.3337 10.2286 15.2474 9.7951 15.0799 9.39066C14.9124 8.98622 14.6668 8.61874 14.3572 8.3092C14.0477 7.99967 13.6802 7.75415 13.2757 7.58665C12.8713 7.41915 12.4378 7.33296 12 7.33301C11.116 7.33309 10.2682 7.68432 9.64319 8.30943C9.01813 8.93454 8.66699 9.78234 8.66699 10.6663C8.66699 11.5503 9.01813 12.3981 9.64319 13.0232C10.2682 13.6484 11.116 13.9996 12 13.9997ZM12.0707 11.9997C11.8956 11.9997 11.7221 11.9652 11.5604 11.8982C11.3986 11.8312 11.2516 11.733 11.1277 11.6092C11.0039 11.4854 10.9057 11.3384 10.8386 11.1766C10.7716 11.0149 10.7371 10.8415 10.7371 10.6663C10.7371 10.4912 10.7716 10.3178 10.8386 10.156C10.9057 9.99427 11.0039 9.84727 11.1277 9.72346C11.2516 9.59964 11.3986 9.50144 11.5604 9.43444C11.7221 9.36745 11.8956 9.33298 12.0707 9.33301C12.4243 9.33306 12.7633 9.47356 13.0133 9.7236C13.2633 9.97365 13.4038 10.3128 13.4038 10.6663C13.4038 11.0199 13.2633 11.359 13.0133 11.6091C12.7633 11.8591 12.4243 11.9996 12.0707 11.9997Z" fill="#2A2A37"/>
</svg>
