<svg width="111" height="149" viewBox="0 0 111 149" fill="none" xmlns="http://www.w3.org/2000/svg">
<path d="M33.1247 55.3538C33.1247 64.2563 25.8812 71.4997 16.9788 71.4997C8.07643 71.4997 0.833008 64.2563 0.833008 55.3538C0.833008 46.4514 8.07643 39.208 16.9788 39.208C25.8812 39.208 33.1247 46.4514 33.1247 55.3538ZM16.9788 0.458008C8.07643 0.458008 0.833008 7.70143 0.833008 16.6038C0.833008 25.5062 8.07643 32.7497 16.9788 32.7497C25.8812 32.7497 33.1247 25.5063 33.1247 16.6038C33.1247 7.70143 25.8812 0.458008 16.9788 0.458008ZM55.7288 116.708C46.8264 116.708 39.583 123.951 39.583 132.854C39.583 141.756 46.8264 149 55.7288 149C64.6312 149 71.8747 141.756 71.8747 132.854C71.8747 123.951 64.6312 116.708 55.7288 116.708ZM16.9788 77.958C8.07643 77.958 0.833008 85.2014 0.833008 94.1038C0.833008 103.006 8.07643 110.25 16.9788 110.25C25.8812 110.25 33.1247 103.006 33.1247 94.1038C33.1247 85.2014 25.8812 77.958 16.9788 77.958ZM94.4788 32.7497C103.381 32.7497 110.625 25.5063 110.625 16.6038C110.625 7.70143 103.381 0.458008 94.4788 0.458008C85.5764 0.458008 78.333 7.70143 78.333 16.6038C78.333 25.5062 85.5764 32.7497 94.4788 32.7497ZM55.7288 0.458008C46.8264 0.458008 39.583 7.70143 39.583 16.6038C39.583 25.5062 46.8264 32.7497 55.7288 32.7497C64.6312 32.7497 71.8747 25.5063 71.8747 16.6038C71.8747 7.70143 64.6312 0.458008 55.7288 0.458008ZM94.4788 77.958C85.5764 77.958 78.333 85.2014 78.333 94.1038C78.333 103.006 85.5764 110.25 94.4788 110.25C103.381 110.25 110.625 103.006 110.625 94.1038C110.625 85.2014 103.381 77.958 94.4788 77.958ZM55.7288 77.958C46.8264 77.958 39.583 85.2014 39.583 94.1038C39.583 103.006 46.8264 110.25 55.7288 110.25C64.6312 110.25 71.8747 103.006 71.8747 94.1038C71.8747 85.2014 64.6312 77.958 55.7288 77.958ZM94.4788 39.208C85.5764 39.208 78.333 46.4514 78.333 55.3538C78.333 64.2563 85.5764 71.4997 94.4788 71.4997C103.381 71.4997 110.625 64.2563 110.625 55.3538C110.625 46.4514 103.381 39.208 94.4788 39.208ZM55.7288 39.208C46.8264 39.208 39.583 46.4514 39.583 55.3538C39.583 64.2563 46.8264 71.4997 55.7288 71.4997C64.6312 71.4997 71.8747 64.2563 71.8747 55.3538C71.8747 46.4514 64.6312 39.208 55.7288 39.208Z" fill="#26313D"/>
</svg>
