<svg width="84" height="84" viewBox="0 0 84 84" fill="none" xmlns="http://www.w3.org/2000/svg">
<path opacity="0.01" d="M0 0H84V84H0V0Z" fill="#202425"/>
<path d="M78.3996 41.9996C78.3996 62.1036 62.1036 78.3996 41.9996 78.3996C21.8956 78.3996 5.59961 62.1036 5.59961 41.9996C5.59961 21.8956 21.8956 5.59961 41.9996 5.59961C62.1036 5.59961 78.3996 21.8956 78.3996 41.9996Z" fill="#0AAB89"/>
<path d="M41.9998 8.39981C23.4442 8.39981 8.39981 23.4442 8.39981 41.9998C8.39981 60.5554 23.4442 75.5998 41.9998 75.5998C60.5554 75.5998 75.5998 60.5554 75.5998 41.9998C75.5998 23.4442 60.5554 8.39981 41.9998 8.39981ZM2.7998 41.9998C2.7998 20.3502 20.3502 2.7998 41.9998 2.7998C63.6494 2.7998 81.1998 20.3502 81.1998 41.9998C81.1998 63.6494 63.6494 81.1998 41.9998 81.1998C20.3502 81.1998 2.7998 63.6494 2.7998 41.9998Z" fill="#0AAB89"/>
<path d="M64.5679 27.8325C65.3544 28.62 65.7962 29.6875 65.7962 30.8005C65.7962 31.9135 65.3544 32.981 64.5679 33.7685L39.3679 58.9685C38.5804 59.7551 37.5129 60.1968 36.3999 60.1968C35.2869 60.1968 34.2194 59.7551 33.4319 58.9685L19.4319 44.9685C18.69 44.1724 18.2861 43.1193 18.3053 42.0312C18.3245 40.9431 18.7653 39.905 19.5348 39.1355C20.3044 38.3659 21.3425 37.9252 22.4306 37.906C23.5187 37.8868 24.5717 38.2907 25.3679 39.0325L36.3999 50.0589L58.6319 27.8269C59.4194 27.0404 60.4869 26.5986 61.5999 26.5986C62.7129 26.5986 63.7804 27.0404 64.5679 27.8269V27.8325Z" fill="white"/>
</svg>
