<svg width="188" height="152" viewBox="0 0 188 152" fill="none" xmlns="http://www.w3.org/2000/svg">
<ellipse cx="94" cy="89.4001" rx="92.4" ry="7.8" fill="#FFE4C7"/>
<g filter="url(#filter0_d_192_1010)">
<circle cx="94.6" cy="81" r="33" fill="#FFFDF7"/>
</g>
<path fill-rule="evenodd" clip-rule="evenodd" d="M94 0C70.1413 0 50.8 19.3413 50.8 43.2V50.4H50.7776L1.66093 85.6502C-0.2337 87.0099 0.728226 90 3.06029 90H184.94C187.272 90 188.234 87.0099 186.339 85.6502L137.222 50.4H137.2V43.2C137.2 19.3413 117.859 0 94 0Z" fill="white"/>
<path fill-rule="evenodd" clip-rule="evenodd" d="M94 0C70.1413 0 50.8 19.3413 50.8 43.2V50.4H50.7776L1.66093 85.6502C-0.2337 87.0099 0.728226 90 3.06029 90H184.94C187.272 90 188.234 87.0099 186.339 85.6502L137.222 50.4H137.2V43.2C137.2 19.3413 117.859 0 94 0Z" fill="url(#paint0_linear_192_1010)"/>
<defs>
<filter id="filter0_d_192_1010" x="29.2" y="20.4" width="130.8" height="130.8" filterUnits="userSpaceOnUse" color-interpolation-filters="sRGB">
<feFlood flood-opacity="0" result="BackgroundImageFix"/>
<feColorMatrix in="SourceAlpha" type="matrix" values="0 0 0 0 0 0 0 0 0 0 0 0 0 0 0 0 0 0 127 0" result="hardAlpha"/>
<feOffset dy="4.8"/>
<feGaussianBlur stdDeviation="16.2"/>
<feComposite in2="hardAlpha" operator="out"/>
<feColorMatrix type="matrix" values="0 0 0 0 1 0 0 0 0 1 0 0 0 0 1 0 0 0 1 0"/>
<feBlend mode="normal" in2="BackgroundImageFix" result="effect1_dropShadow_192_1010"/>
<feBlend mode="normal" in="SourceGraphic" in2="effect1_dropShadow_192_1010" result="shape"/>
</filter>
<linearGradient id="paint0_linear_192_1010" x1="137.826" y1="62.4" x2="36.1552" y2="43.9775" gradientUnits="userSpaceOnUse">
<stop stop-color="#EA9238"/>
<stop offset="1" stop-color="#FFC07D"/>
</linearGradient>
</defs>
</svg>
