<svg width="128" height="142" viewBox="0 0 128 142" fill="none" xmlns="http://www.w3.org/2000/svg">
<path opacity="0.1" d="M87.2251 15.6477C66.6118 15.4877 49.5984 31.1944 47.7318 51.3544C42.7984 46.261 35.8918 43.061 28.2384 43.0077C13.0918 42.901 0.718438 55.0877 0.611772 70.2344L0.398438 97.2744L47.2251 97.621L55.2518 97.6744L125.945 98.2077L126.265 55.301C126.452 33.5677 108.958 15.8077 87.2251 15.6477Z" fill="#B3B3B3"/>
<path d="M40.016 129.704C39.28 129.768 38.496 129.832 37.664 129.896V128.632H40.16V127.688H37.664V126.632H36.608V127.688H34.752C35.152 127.16 35.536 126.552 35.888 125.88H40.272V124.856H36.368C36.496 124.568 36.608 124.28 36.72 123.992L35.568 123.8C35.44 124.152 35.296 124.504 35.152 124.856H32.928V125.88H34.64C34.256 126.6 33.824 127.208 33.376 127.72L33.632 128.632H36.608V129.96C35.52 130.024 34.352 130.072 33.136 130.136L33.28 131.16C34.432 131.096 35.552 131.016 36.608 130.952V132.104H37.664V130.872C38.48 130.792 39.264 130.712 40.016 130.648V129.704ZM42.256 128.648H44.336V132.12H45.44V128.648H47.136V127.64H42.336V125.976C44.064 125.784 45.504 125.416 46.688 124.904L45.952 124.04C44.832 124.552 43.264 124.904 41.28 125.096V127.608C41.248 129.048 40.864 130.28 40.16 131.32L40.96 132.152C41.648 131.16 42.08 129.992 42.256 128.648ZM45.344 132.584H34.848V138.6H36.032V137.976H44.16V138.6H45.344V132.584ZM36.032 136.984V135.736H44.16V136.984H36.032ZM36.032 134.808V133.56H44.16V134.808H36.032ZM50.128 124.792V125.912H54.72V126.984C54.704 127.976 54.64 128.92 54.512 129.784H49.056V130.888H54.32C54.112 131.896 53.824 132.808 53.44 133.608C52.576 135.24 51.056 136.536 48.848 137.528L49.488 138.552C51.712 137.592 53.312 136.232 54.304 134.504C54.848 133.48 55.248 132.28 55.504 130.888H56.8V136.712C56.8 137.8 57.312 138.344 58.368 138.344H60.96C61.632 138.344 62.112 138.2 62.416 137.912C62.768 137.56 63.008 136.616 63.136 135.048L62.048 134.696C61.968 135.944 61.824 136.68 61.6 136.936C61.424 137.144 61.136 137.256 60.752 137.256H58.72C58.208 137.256 57.952 136.984 57.952 136.472V130.888H62.912V129.784H55.68C55.792 128.92 55.856 127.976 55.888 126.984V125.912H61.616V124.792H50.128ZM74.528 127.48H76.896C76.832 129.64 76.496 131.528 75.872 133.144C75.232 131.8 74.72 130.184 74.32 128.312L74.528 127.48ZM75.344 134.296C74.608 135.656 73.632 136.76 72.384 137.624L72.976 138.584C74.176 137.72 75.168 136.648 75.936 135.368C76.736 136.712 77.696 137.8 78.816 138.6L79.44 137.656C78.288 136.872 77.312 135.768 76.48 134.328C77.376 132.44 77.872 130.152 77.952 127.48H78.992V126.376H74.768C74.896 125.672 75.024 124.904 75.12 124.088L74 123.896C73.68 126.936 73.04 129.352 72.096 131.144L72.816 132.024C73.152 131.448 73.472 130.792 73.76 130.056C74.192 131.656 74.72 133.064 75.344 134.296ZM67.76 131.368C67.648 131.688 67.52 132.024 67.376 132.376H65.04V133.384H66.928C66.608 134.024 66.24 134.68 65.824 135.384C66.608 135.672 67.344 135.976 68.048 136.28C67.12 136.808 65.984 137.24 64.672 137.592L65.216 138.552C66.816 138.104 68.144 137.512 69.2 136.776C70.144 137.192 70.96 137.624 71.664 138.04L72.288 137.144C71.584 136.76 70.848 136.408 70.08 136.056C70.912 135.288 71.504 134.376 71.856 133.32V132.376H68.512C68.608 132.088 68.72 131.8 68.832 131.496L67.76 131.368ZM69.024 135.608C68.448 135.368 67.84 135.144 67.2 134.92C67.52 134.44 67.808 133.928 68.064 133.384H70.816C70.432 134.216 69.824 134.968 69.024 135.608ZM66.304 124.232L65.392 124.536C65.776 125.144 66.128 125.832 66.464 126.616L67.296 126.232C67.008 125.528 66.688 124.856 66.304 124.232ZM71.168 124.184C70.88 124.856 70.464 125.528 69.952 126.216L70.768 126.632C71.28 125.96 71.68 125.272 72 124.568L71.168 124.184ZM65.072 127V128.008H67.344C66.864 128.888 66 129.688 64.768 130.408L65.328 131.336C66.704 130.408 67.664 129.32 68.192 128.056V131.096H69.264V129.016C69.84 129.4 70.528 129.912 71.328 130.552L71.92 129.656C71.024 129.112 70.128 128.616 69.264 128.184V128.008H72.176V127H69.264V123.944H68.192V127H65.072ZM82.624 138.456C83.52 138.456 83.968 137.976 83.968 137.048V132.376C84.464 132.152 84.96 131.928 85.456 131.672V130.536C84.976 130.792 84.48 131.032 83.968 131.256V128.104H85.504V127H83.968V123.976H82.848V127H80.928V128.104H82.848V131.72C82.144 131.976 81.408 132.2 80.672 132.376L80.96 133.496C81.584 133.304 82.208 133.08 82.848 132.84V136.76C82.848 137.208 82.64 137.448 82.24 137.448C81.856 137.448 81.44 137.416 81.024 137.368L81.264 138.456H82.624ZM87.408 131.384H90.672V133.352H88V138.6H89.072V137.816H93.408V138.6H94.48V133.352H91.792V131.384H95.216V130.344H91.792V128.456H94.8V124.568H86.368V129.576C86.352 132.936 85.776 135.688 84.64 137.8L85.536 138.6C86.592 136.52 87.216 134.12 87.408 131.384ZM90.672 128.456V130.344H87.472C87.472 130.088 87.488 129.832 87.488 129.576V128.456H90.672ZM89.072 136.792V134.376H93.408V136.792H89.072ZM93.68 125.64V127.416H87.488V125.64H93.68Z" fill="#26313D" fill-opacity="0.5"/>
<path opacity="0.3" d="M21.839 13.1408C20.9324 13.1408 20.1057 13.4342 19.439 13.9142C19.4924 13.6475 19.519 13.3808 19.519 13.1142C19.5457 10.9008 17.759 9.08751 15.519 9.06084C13.279 9.03417 11.4924 10.8208 11.4657 13.0608C11.4657 13.1408 11.4657 13.2208 11.4657 13.3008C11.039 13.1408 10.559 13.0342 10.079 13.0342C7.86569 13.0075 6.05236 14.7942 6.02569 17.0342C5.99903 19.2208 7.73236 21.0075 9.89236 21.0875L21.7857 21.1675C23.999 21.1942 25.8124 19.4075 25.839 17.1675C25.8657 14.9275 24.0524 13.1675 21.839 13.1408Z" fill="#B3B3B3"/>
<path opacity="0.3" d="M123.038 4.28733C122.132 4.28733 121.305 4.58066 120.638 5.06066C120.692 4.794 120.718 4.52733 120.718 4.26066C120.745 2.04733 118.958 0.233993 116.718 0.207326C114.478 0.180659 112.692 1.96733 112.665 4.20733C112.665 4.28733 112.665 4.36733 112.665 4.44733C112.238 4.28733 111.758 4.18066 111.278 4.18066C109.065 4.154 107.252 5.94066 107.225 8.18066C107.198 10.3673 108.932 12.154 111.092 12.234L122.985 12.314C125.198 12.3407 127.012 10.554 127.038 8.314C127.065 6.074 125.252 4.31399 123.038 4.28733Z" fill="#B3B3B3"/>
<g opacity="0.1">
<path opacity="0.1" d="M96.5052 85.1689C95.9452 85.1689 95.5186 85.5956 95.5186 86.1556C95.5186 86.5556 95.7319 86.8756 96.0519 87.0356L95.9186 104.396H96.8519L96.9852 86.9823C97.2786 86.8223 97.4652 86.5023 97.4652 86.1556C97.4919 85.5956 97.0652 85.1956 96.5052 85.1689Z" fill="#B3B3B3"/>
<path opacity="0.1" d="M116.612 86.2894C116.612 85.7827 116.185 85.3294 115.625 85.3027C115.065 85.3027 114.639 85.7294 114.639 86.2894C114.639 86.6627 114.852 86.9827 115.145 87.1427L115.012 104.529H115.945L116.079 87.1427C116.399 86.9827 116.585 86.6627 116.612 86.2894Z" fill="#B3B3B3"/>
</g>
<path opacity="0.1" d="M93.3052 88.4457L93.2725 92.8457L117.886 93.029L117.919 88.629L93.3052 88.4457Z" fill="#B3B3B3"/>
<path opacity="0.1" d="M96.106 88.4492L96.0526 88.5292L93.466 92.8492H93.2793L93.306 88.4492H96.106Z" fill="#B3B3B3"/>
<path opacity="0.1" d="M102.318 88.5013L99.6781 92.9013L96.3447 92.8746L97.3847 91.1146L98.9314 88.4746L102.318 88.5013Z" fill="#B3B3B3"/>
<path opacity="0.1" d="M108.532 88.556L105.892 92.9293L102.559 92.9026L105.145 88.5293L108.532 88.556Z" fill="#B3B3B3"/>
<path opacity="0.1" d="M114.745 88.6077L112.131 92.9811L108.771 92.9544L111.385 88.5811L114.745 88.6077Z" fill="#B3B3B3"/>
<path opacity="0.1" d="M117.919 88.6084L117.892 93.0351L114.985 93.0084L117.599 88.6084H117.919Z" fill="#B3B3B3"/>
<path opacity="0.1" d="M93.2515 95.2504L93.2188 99.6504L117.832 99.8337L117.865 95.4337L93.2515 95.2504Z" fill="#B3B3B3"/>
<path opacity="0.1" d="M96.0513 95.248L95.9979 95.328L93.4113 99.648H93.2246L93.2513 95.248H96.0513Z" fill="#B3B3B3"/>
<path opacity="0.1" d="M102.265 95.3011L99.6253 99.7011L96.292 99.6744L97.332 97.9144L98.8787 95.2744L102.265 95.3011Z" fill="#B3B3B3"/>
<path opacity="0.1" d="M108.479 95.3548L105.839 99.7281L102.506 99.7015L105.093 95.3281L108.479 95.3548Z" fill="#B3B3B3"/>
<path opacity="0.1" d="M114.692 95.4085L112.105 99.7818L108.719 99.7552L111.332 95.3818L114.692 95.4085Z" fill="#B3B3B3"/>
<path opacity="0.1" d="M117.865 95.4355L117.838 99.8355L114.932 99.8089L117.545 95.4355H117.865Z" fill="#B3B3B3"/>
<path opacity="0.1" d="M117.891 93.0359C117.891 93.0359 117.891 93.0092 117.891 92.9559V92.7159C117.891 92.5292 117.891 92.2359 117.891 91.8625C117.891 91.1159 117.918 90.0226 117.918 88.6092L117.945 88.6359L93.3313 88.5026L93.3579 88.4759C93.3579 89.9692 93.3313 91.4626 93.3313 92.8759L93.3046 92.8492L110.851 93.0092L116.051 93.0359H117.465H116.051L110.851 93.0092L93.3046 92.9292H93.2246L93.2513 88.4492H93.2779L117.891 88.6626H117.918V88.6892C117.918 90.1026 117.891 91.1959 117.891 91.9426C117.891 92.3426 117.891 92.6092 117.891 92.7959V92.9826V93.0359Z" fill="#B3B3B3"/>
<path opacity="0.1" d="M117.839 99.8344C117.839 99.8344 117.839 99.8077 117.839 99.7544V99.5144C117.839 99.3277 117.839 99.0344 117.839 98.6611C117.839 97.9144 117.865 96.8211 117.865 95.4077L117.892 95.4344L93.2785 95.3011L93.3052 95.2744C93.3052 96.7677 93.2785 98.2611 93.2785 99.6744L93.2519 99.6477L110.799 99.8077L115.999 99.8344H117.412H115.999L110.799 99.8077L93.2519 99.7277H93.1719L93.1985 95.2744H93.2252L117.839 95.4877H117.865V95.5144C117.865 96.9277 117.839 98.0211 117.839 98.7677C117.839 99.1677 117.839 99.4344 117.839 99.6211V99.8077C117.839 99.7811 117.839 99.8344 117.839 99.8344Z" fill="#B3B3B3"/>
</svg>
