<?xml version="1.0" encoding="UTF-8"?>
<svg width="78px" height="78px" viewBox="0 0 78 78" version="1.1" xmlns="http://www.w3.org/2000/svg" xmlns:xlink="http://www.w3.org/1999/xlink">
    <title>形状2</title>
    <g id="页面-1" stroke="none" stroke-width="1" fill="none" fill-rule="evenodd">
        <g id="2" transform="translate(-820.000000, -2078.000000)" fill="#2885FE">
            <g id="编组-6" transform="translate(210.000000, 1748.000000)">
                <path d="M651.817248,359.769718 C653.305142,354.151308 656.808357,346.500942 662.598932,341.981786 C666.929371,338.595195 668.011981,335.086464 664.464352,332.899059 C659.85632,330.067647 645.62694,327.197372 635.861243,335.319639 C634.706459,336.28565 633.068665,339.422411 633.962512,343.408596 C634.756426,346.9895 638.292952,355.455978 643.556101,360.824558 C645.754632,363.045274 650.551427,364.438773 651.817248,359.769718 L651.817248,359.769718 Z M639.767634,366.193986 C634.138205,364.683878 626.499059,361.180652 621.979971,355.401161 C618.571224,351.070707 615.079201,349.982541 612.891829,353.546838 C610.06046,358.13823 607.201332,372.373211 615.33458,382.127837 C616.289473,383.277073 619.426186,384.920425 623.412311,384.048782 C626.998712,383.221554 635.470614,379.718328 640.822458,374.432953 C643.04314,372.234414 644.442169,367.437603 639.767634,366.199537 L639.767634,366.193986 Z M646.199812,378.233603 C644.700863,383.845728 641.197763,391.48399 635.412929,396.024759 C631.065975,399.433112 629.988953,402.913628 633.536466,405.122951 C638.144347,407.926238 652.378815,410.801688 662.13864,402.680484 C663.287835,401.731252 664.925576,398.556044 664.042861,394.603687 C663.23787,390.995497 659.712563,382.535677 654.455137,377.184453 C652.256678,374.964027 647.443385,373.548506 646.199812,378.233603 Z M658.220919,372.548194 C663.861594,374.07491 671.478726,377.589132 676.009031,383.357342 C679.428968,387.693215 682.909975,388.781347 685.097402,385.222711 C687.928843,380.620357 690.810251,366.369158 682.671246,356.620383 C681.688569,355.471183 678.573984,353.833433 674.582207,354.727256 C670.984612,355.532251 662.523599,359.046474 657.177173,364.331687 C654.967538,366.513502 653.551818,371.321269 658.220919,372.548194 L658.220919,372.548194 Z" id="形状2"></path>
            </g>
        </g>
    </g>
</svg>