<?xml version="1.0" encoding="UTF-8"?>
<svg width="61px" height="74px" viewBox="0 0 61 74" version="1.1" xmlns="http://www.w3.org/2000/svg" xmlns:xlink="http://www.w3.org/1999/xlink">
    <!-- Generator: Sketch 59.1 (86144) - https://sketch.com -->
    <title>间歇蓝白</title>
    <desc>Created with Sketch.</desc>
    <g id="页面-1" stroke="none" stroke-width="1" fill="none" fill-rule="evenodd">
        <g id="1备份" transform="translate(-553.000000, -746.000000)" fill="#2885FE" fill-rule="nonzero">
            <g id="蓝白" transform="translate(23.000000, 680.000000)">
                <path d="M575.73919,75.6344243 C576.073477,74.3672338 577.085342,73.3911392 578.364266,73.1021471 C579.643191,72.8131551 580.97677,73.2592613 581.823965,74.2594782 C589.997466,83.827714 592.947133,96.7981899 589.714773,108.957479 C584.416609,128.999964 564.186935,141.13827 544.12305,136.607999 L543.593939,138.610485 C543.205924,140.055941 541.163556,140.479001 539.911327,139.375519 L535.272788,135.292986 L530.637777,131.210454 C530.103527,130.739536 529.880773,130.007686 530.062132,129.319193 C530.243491,128.630699 530.797934,128.103354 531.494936,127.956415 L537.54091,126.690759 L543.583357,125.428629 C545.2236,125.086655 546.793296,126.468652 546.405281,127.910583 L545.914972,129.7791 C549.583474,130.582914 553.308415,130.730986 557.008664,130.20216 C565.097036,129.036854 572.416835,124.778543 577.42529,118.32474 C579.99239,115.013158 581.861865,111.216261 582.920989,107.162998 C583.995223,103.112602 584.245907,98.888033 583.658217,94.7391252 C583.084183,90.7347944 581.738944,86.8796461 579.69694,83.3870054 C578.753054,81.766302 577.667052,80.2325619 576.451726,78.8038515 C575.710155,77.9272894 575.444087,76.7437953 575.73919,75.6344243 L575.73919,75.6344243 Z M556.5,80 L557.5,80 C558.880712,80 560,81.1192881 560,82.5 L560,103.5 C560,104.880712 558.880712,106 557.5,106 L556.5,106 C555.119288,106 554,104.880712 554,103.5 L554,82.5 C554,81.1192881 555.119288,80 556.5,80 Z M545.282486,116.424621 L544.575379,115.717514 C543.599068,114.741204 543.599068,113.158291 544.575379,112.181981 L555.181981,101.575379 C556.158291,100.599068 557.741204,100.599068 558.717514,101.575379 L559.424621,102.282486 C560.400932,103.258796 560.400932,104.841709 559.424621,105.818019 L548.818019,116.424621 C547.841709,117.400932 546.258796,117.400932 545.282486,116.424621 Z M558.698292,66.5527285 C560.085276,67.3225569 560.948999,68.7802053 560.957794,70.365832 C560.966456,71.9514586 560.118834,73.4185175 558.740408,74.2035526 C557.361982,74.9885876 555.667082,74.9695353 554.306671,74.153713 C552.251485,72.9212426 551.564553,70.2694772 552.763097,68.1950472 C553.96164,66.1206171 556.60296,65.3897415 558.698292,66.5527285 L558.698292,66.5527285 Z" id="间歇蓝白"></path>
            </g>
        </g>
    </g>
</svg>