<?xml version="1.0" encoding="UTF-8"?>
<svg width="73px" height="73px" viewBox="0 0 73 73" version="1.1" xmlns="http://www.w3.org/2000/svg" xmlns:xlink="http://www.w3.org/1999/xlink">
    <title>睡眠2</title>
    <g id="页面-1" stroke="none" stroke-width="1" fill="none" fill-rule="evenodd">
        <g id="2" transform="translate(-820.000000, -1756.000000)" fill="#2885FE">
            <g id="编组-6" transform="translate(210.000000, 1748.000000)">
                <path d="M682.803195,57.3991411 C682.540789,57.1374239 681.75357,57.1374239 680.966351,57.3991411 C673.356565,60.8014661 665.484373,61.3249007 657.349775,59.4928795 C641.867798,55.5671199 630.84673,41.9578201 630.059511,25.7313473 C630.059511,20.235284 631.109136,15.0009379 633.470794,10.0283091 C633.7332,9.24315718 634.258013,8.98143983 633.470794,8.19628795 C632.683575,7.93457068 632.421168,7.93457068 631.371543,8.19628795 C627.96026,10.0283091 624.548976,11.8603302 622.187319,14.7392205 C615.102346,21.2821531 611.166251,29.1336722 610.116625,38.5554952 C610.116625,39.3406471 609.854219,43.2664067 610.116625,44.0515586 L610.116625,45.0984278 C610.116625,48.5007528 610.903844,51.6413604 611.95347,54.5202508 C616.414378,68.9147024 629.534698,79.1216774 644.229456,80.6919811 C649.477584,81.477133 654.463305,80.6919811 659.711433,79.1216774 C669.945282,75.7193524 677.817474,69.1764198 682.803195,59.2311622 L682.803195,58.9694449 C683.065602,58.4460103 683.065602,58.184293 682.803195,57.3991411 Z" id="睡眠2"></path>
            </g>
        </g>
    </g>
</svg>