<svg width="21" height="23" viewBox="0 0 21 23" fill="none" xmlns="http://www.w3.org/2000/svg">
<path d="M10.4999 14.1522C11.5086 14.1522 12.326 13.401 12.326 12.475V1.67813C12.326 0.751141 11.5086 0 10.4999 0C9.49121 0 8.67383 0.751141 8.67383 1.67813V12.475C8.67383 13.401 9.49118 14.1522 10.4999 14.1522Z" fill="#26313D"/>
<path d="M17.4883 5.00778C16.7843 4.39701 15.7036 4.45624 15.075 5.14123C14.4466 5.82548 14.5083 6.8755 15.2126 7.48627C16.6693 8.75299 17.5806 10.576 17.5812 12.6216C17.5745 16.4221 14.4104 19.4974 10.5001 19.5035C6.58991 19.4973 3.42529 16.4221 3.4191 12.6216C3.4196 10.5664 4.33944 8.73671 5.80767 7.46951C6.51456 6.8615 6.57951 5.81111 5.95381 5.12512C5.32747 4.43836 4.24778 4.37479 3.54139 4.98328L3.54089 4.98241C1.37386 6.84621 -0.000611255 9.58533 2.03929e-07 12.6216C0.0010008 18.2583 4.70068 22.8254 10.5001 22.8263C16.2994 22.8254 20.9991 18.2583 21 12.6216C21.0006 9.59845 19.6391 6.87001 17.4883 5.00778Z" fill="#26313D"/>
</svg>
