<?xml version="1.0" encoding="UTF-8"?>
<svg width="83px" height="66px" viewBox="0 0 83 66" version="1.1" xmlns="http://www.w3.org/2000/svg" xmlns:xlink="http://www.w3.org/1999/xlink">
    <!-- Generator: Sketch 59.1 (86144) - https://sketch.com -->
    <title>声音</title>
    <desc>Created with Sketch.</desc>
    <defs>
        <linearGradient x1="33.4001051%" y1="4.18229167%" x2="73.7678217%" y2="105.080729%" id="linearGradient-1">
            <stop stop-color="#00F0FF" offset="0%"></stop>
            <stop stop-color="#704DF0" offset="100%"></stop>
        </linearGradient>
        <path d="M34.6977989,1.01545673 L17.7073478,12.8568192 L5.73517337,12.8568192 C4.21825798,12.844808 2.76121346,13.4464627 1.6966946,14.5244209 C0.632175742,15.602379 0.0510624915,17.0646134 0.0860276005,18.5772842 L0.0860276005,25.3131317 L-4.26325641e-14,25.2988305 L-4.26325641e-14,40.6868813 L0.0860276005,40.6868813 L0.0860276005,47.4227288 C0.0706441702,48.9244053 0.659950284,50.3694535 1.72188306,51.4340395 C2.78381583,52.4986256 4.22957714,53.0937295 5.73517337,53.0859891 L17.7503616,53.0859891 L34.6977989,64.9845562 C36.414462,66.1847505 38.6581233,66.332256 40.5178708,65.3671864 C42.3776183,64.4021168 43.5443038,62.4848883 43.5443038,60.3938831 L43.5443038,5.5918287 C43.5389838,3.50339379 42.3702223,1.59103642 40.5115229,0.629515478 C38.6528235,-0.332005466 36.4123527,-0.183272898 34.6977989,1.01545673 Z" id="path-2"></path>
        <filter x="-351.4%" y="-222.7%" width="802.7%" height="563.6%" filterUnits="objectBoundingBox" id="filter-3">
            <feOffset dx="0" dy="6" in="SourceAlpha" result="shadowOffsetOuter1"></feOffset>
            <feGaussianBlur stdDeviation="50" in="shadowOffsetOuter1" result="shadowBlurOuter1"></feGaussianBlur>
            <feColorMatrix values="0 0 0 0 0.125490196   0 0 0 0 0.127812629   0 0 0 0 0.129411765  0 0 0 0.1 0" type="matrix" in="shadowBlurOuter1"></feColorMatrix>
        </filter>
        <linearGradient x1="50%" y1="-32.8971354%" x2="50%" y2="170.507812%" id="linearGradient-4">
            <stop stop-color="#19CBFB" offset="0%"></stop>
            <stop stop-color="#6063F2" offset="100%"></stop>
        </linearGradient>
        <linearGradient x1="50%" y1="-32.8971354%" x2="50%" y2="170.507812%" id="linearGradient-5">
            <stop stop-color="#19CBFB" offset="0%"></stop>
            <stop stop-color="#6063F2" offset="100%"></stop>
        </linearGradient>
    </defs>
    <g id="页面-1" stroke="none" stroke-width="1" fill="none" fill-rule="evenodd">
        <g id="4" transform="translate(-146.000000, -426.000000)">
            <g id="声音" transform="translate(80.000000, 364.000000)">
                <g transform="translate(66.000000, 62.000000)" id="路径">
                     <g>
                        <use fill="black" fill-opacity="1" filter="url(#filter-3)" xlink:href="#path-2"></use>
                        <use fill="url(#linearGradient-1)" fill-rule="evenodd" xlink:href="#path-2"></use>
                    </g>
                    <path d="M69.8734177,55 C76.3076807,49.581035 80,41.7417797 80,33.5 C80,25.2582203 76.3076807,17.418965 69.8734177,12" stroke="url(#linearGradient-4)" stroke-width="5" stroke-linecap="round"></path>
                    <path d="M58.7341772,48 C64.3210473,45.1532884 67.8481013,39.3483453 67.8481013,33 C67.8481013,26.6516547 64.3210473,20.8467116 58.7341772,18" stroke="url(#linearGradient-5)" stroke-width="5" stroke-linecap="round"></path>
                </g>
            </g>
        </g>
    </g>
</svg>