<svg width="24" height="24" viewBox="0 0 24 24" fill="none" xmlns="http://www.w3.org/2000/svg">
<path fill-rule="evenodd" clip-rule="evenodd" d="M12.6673 3.33073C12.6673 2.96254 12.3688 2.66406 12.0007 2.66406C11.6325 2.66406 11.334 2.96254 11.334 3.33073V4.02426C7.22762 4.36302 4.00063 7.80309 4.00063 11.9969V18.6641H2.00065C1.63246 18.6641 1.33398 18.9625 1.33398 19.3307C1.33398 19.6989 1.63246 19.9974 2.00065 19.9974H22.0007C22.3688 19.9974 22.6673 19.6989 22.6673 19.3307C22.6673 18.9625 22.3688 18.6641 22.0007 18.6641H20.0006V11.9969C20.0006 7.8031 16.7737 4.36303 12.6673 4.02426V3.33073ZM14.0006 20.6641C14.0006 21.7686 13.1052 22.6641 12.0006 22.6641C10.8961 22.6641 10.0006 21.7686 10.0006 20.6641H14.0006Z" fill="#30414D"/>
</svg>
