<svg width="24" height="24" viewBox="0 0 24 24" fill="none" xmlns="http://www.w3.org/2000/svg">
<path fill-rule="evenodd" clip-rule="evenodd" d="M12.6668 3.33073C12.6668 2.96254 12.3683 2.66406 12.0001 2.66406C11.6319 2.66406 11.3334 2.96254 11.3334 3.33073V4.02426C7.22707 4.36302 4.00009 7.80309 4.00009 11.9969V18.6641H2.0001C1.63191 18.6641 1.33344 18.9625 1.33344 19.3307C1.33344 19.6989 1.63191 19.9974 2.0001 19.9974H22.0001C22.3683 19.9974 22.6668 19.6989 22.6668 19.3307C22.6668 18.9625 22.3683 18.6641 22.0001 18.6641H20.0001V11.9969C20.0001 7.8031 16.7731 4.36303 12.6668 4.02426V3.33073ZM14.0001 20.6641C14.0001 21.7686 13.1047 22.6641 12.0001 22.6641C10.8955 22.6641 10.0001 21.7686 10.0001 20.6641H14.0001Z" fill="#30414D"/>
</svg>
