<svg width="200" height="200" viewBox="0 0 200 200" fill="none" xmlns="http://www.w3.org/2000/svg">
<path d="M100.02 191.504C151.365 191.504 192.988 177.696 192.988 160.664C192.988 143.632 151.365 129.824 100.02 129.824C48.6743 129.824 7.05078 143.632 7.05078 160.664C7.05078 177.696 48.6743 191.504 100.02 191.504Z" fill="url(#paint0_linear_4205_7253)"/>
<path d="M37.4414 132.148C37.4414 136.816 33.6523 140.586 29.0039 140.586C24.3555 140.586 20.5664 136.797 20.5664 132.148C20.5664 127.5 24.3555 118.145 29.0039 118.145C33.6523 118.145 37.4414 127.48 37.4414 132.148Z" fill="#E6EAF0"/>
<path d="M32.8525 130.996C32.5791 130.859 32.2666 130.977 32.1299 131.25L29.5322 136.504V126.582C29.5322 126.289 29.2979 126.035 28.9854 126.035C28.6924 126.035 28.4385 126.27 28.4385 126.582V131.66L25.665 128.887C25.4502 128.672 25.1182 128.672 24.9033 128.887C24.6885 129.102 24.6885 129.434 24.9033 129.648L28.2432 132.988C28.3018 133.047 28.3604 133.047 28.4385 133.066V147.754C28.4385 148.047 28.6729 148.301 28.9854 148.301C29.2783 148.301 29.5322 148.066 29.5322 147.754V138.926L33.0869 131.719C33.2236 131.445 33.1064 131.133 32.8525 130.996Z" fill="#D0D6E0"/>
<path d="M172.051 133.164C172.051 136.973 168.965 140.059 165.156 140.059C161.348 140.059 158.262 136.973 158.262 133.164C158.262 129.355 161.348 121.719 165.156 121.719C168.965 121.719 172.051 129.355 172.051 133.164Z" fill="#E6EAF0"/>
<path d="M168.302 132.227C168.087 132.129 167.813 132.207 167.716 132.422L165.587 136.719V128.613C165.587 128.379 165.392 128.164 165.138 128.164C164.884 128.164 164.688 128.359 164.688 128.613V132.773L162.423 130.508C162.247 130.332 161.974 130.332 161.798 130.508C161.622 130.684 161.622 130.957 161.798 131.133L164.532 133.867C164.571 133.906 164.63 133.906 164.688 133.926V145.938C164.688 146.172 164.884 146.387 165.138 146.387C165.392 146.387 165.587 146.191 165.587 145.938V138.711L168.497 132.812C168.614 132.617 168.517 132.344 168.302 132.227Z" fill="#D0D6E0"/>
<path d="M181.191 150C181.191 152.832 178.887 155.137 176.055 155.137C173.223 155.137 170.918 152.832 170.918 150C170.918 147.168 173.223 141.465 176.055 141.465C178.887 141.465 181.191 147.168 181.191 150Z" fill="#E6EAF0"/>
<path d="M178.399 149.316C178.243 149.238 178.048 149.297 177.95 149.473L176.368 152.676V146.621C176.368 146.445 176.212 146.289 176.036 146.289C175.86 146.289 175.704 146.445 175.704 146.621V149.727L174.005 148.027C173.868 147.891 173.673 147.891 173.536 148.027C173.399 148.164 173.399 148.359 173.536 148.496L175.587 150.547C175.626 150.586 175.665 150.586 175.704 150.586V159.551C175.704 159.727 175.86 159.883 176.036 159.883C176.212 159.883 176.368 159.727 176.368 159.551V154.16L178.536 149.766C178.614 149.59 178.556 149.395 178.399 149.316Z" fill="#D0D6E0"/>
<path d="M62.207 116.113C59.707 113.613 59.707 109.551 62.207 107.031L86.7773 82.4609C89.2773 79.9609 93.3398 79.9609 95.8594 82.4609C98.3594 84.9609 98.3594 89.0234 95.8594 91.543L71.2891 116.113C68.7891 118.613 64.7266 118.613 62.207 116.113Z" fill="url(#paint1_linear_4205_7253)"/>
<path d="M87.7148 141.602C85.2148 139.102 85.2148 135.039 87.7148 132.52L112.305 107.949C114.805 105.449 118.867 105.449 121.387 107.949C123.887 110.449 123.887 114.512 121.387 117.031L96.7969 141.602C94.2773 144.121 90.2148 144.121 87.7148 141.602Z" fill="url(#paint2_linear_4205_7253)"/>
<path d="M44.375 167.617L36.2109 159.434L66.2891 129.375L74.4531 137.539L44.375 167.617Z" fill="url(#paint3_linear_4205_7253)"/>
<path d="M114.98 141.562L62.2461 88.8477L65.4297 85.6641L118.145 138.398L114.98 141.562Z" fill="url(#paint4_linear_4205_7253)"/>
<path d="M60.1367 143.691C76.2695 159.824 102.422 159.824 118.555 143.691L60.1367 85.2539C44.0039 101.387 44.0039 127.559 60.1367 143.691Z" fill="url(#paint5_linear_4205_7253)"/>
<path d="M159.551 36.0938L167.715 44.2773L137.637 74.3555L129.473 66.1719L159.551 36.0938Z" fill="url(#paint6_linear_4205_7253)"/>
<path d="M88.9453 62.1484L141.68 114.863L138.496 118.047L85.7812 65.332L88.9453 62.1484Z" fill="url(#paint7_linear_4205_7253)"/>
<path d="M143.789 60.0391C127.656 43.9062 101.504 43.9062 85.3711 60.0391L143.789 118.457C159.922 102.324 159.922 76.1719 143.789 60.0391Z" fill="url(#paint8_linear_4205_7253)"/>
<path d="M90.7422 91.4062C92.8133 91.4062 94.4922 89.7273 94.4922 87.6562C94.4922 85.5852 92.8133 83.9062 90.7422 83.9062C88.6711 83.9062 86.9922 85.5852 86.9922 87.6562C86.9922 89.7273 88.6711 91.4062 90.7422 91.4062Z" fill="url(#paint9_linear_4205_7253)"/>
<path d="M116.191 116.875C118.262 116.875 119.941 115.196 119.941 113.125C119.941 111.054 118.262 109.375 116.191 109.375C114.12 109.375 112.441 111.054 112.441 113.125C112.441 115.196 114.12 116.875 116.191 116.875Z" fill="url(#paint10_linear_4205_7253)"/>
<path d="M72.6562 67.9102L68.2617 57.0312L74.1406 53.7109L63.8867 42.0898L68.8281 51.875L62.4219 55.8008L72.6562 67.9102Z" fill="url(#paint11_linear_4205_7253)"/>
<path d="M60.4883 74.1016L67.3047 75.9961L66.7383 80.0391L76.0547 79.4141L69.5703 78.1836L70.0586 73.6523L60.4883 74.1016Z" fill="url(#paint12_linear_4205_7253)"/>
<defs>
<linearGradient id="paint0_linear_4205_7253" x1="100.012" y1="129.831" x2="100.012" y2="191.511" gradientUnits="userSpaceOnUse">
<stop stop-color="#DEE3F0"/>
<stop offset="0.0398184" stop-color="#E1E6F1" stop-opacity="0.9602"/>
<stop offset="0.3162" stop-color="#F2F4F9" stop-opacity="0.6838"/>
<stop offset="0.6198" stop-color="#FCFCFE" stop-opacity="0.3802"/>
<stop offset="1" stop-color="white" stop-opacity="0"/>
</linearGradient>
<linearGradient id="paint1_linear_4205_7253" x1="62.2143" y1="116.104" x2="95.8687" y2="82.4496" gradientUnits="userSpaceOnUse">
<stop stop-color="#E1E7F2"/>
<stop offset="1" stop-color="#B7BFC9"/>
</linearGradient>
<linearGradient id="paint2_linear_4205_7253" x1="87.7187" y1="141.608" x2="121.373" y2="107.954" gradientUnits="userSpaceOnUse">
<stop stop-color="#E1E7F2"/>
<stop offset="1" stop-color="#B7BFC9"/>
</linearGradient>
<linearGradient id="paint3_linear_4205_7253" x1="40.2958" y1="163.527" x2="70.3721" y2="133.451" gradientUnits="userSpaceOnUse">
<stop stop-color="#E1E7F2" stop-opacity="0"/>
<stop offset="1" stop-color="#B7BFC9"/>
</linearGradient>
<linearGradient id="paint4_linear_4205_7253" x1="91.7937" y1="112.029" x2="88.6165" y2="115.206" gradientUnits="userSpaceOnUse">
<stop stop-color="#C5CFDB"/>
<stop offset="1" stop-color="#B4B7BF"/>
</linearGradient>
<linearGradient id="paint5_linear_4205_7253" x1="89.3533" y1="114.469" x2="60.1406" y2="143.682" gradientUnits="userSpaceOnUse">
<stop stop-color="#ECEFF5"/>
<stop offset="1" stop-color="#CAD3DE"/>
</linearGradient>
<linearGradient id="paint6_linear_4205_7253" x1="163.636" y1="40.1908" x2="133.56" y2="70.267" gradientUnits="userSpaceOnUse">
<stop stop-color="#E1E7F2" stop-opacity="0"/>
<stop offset="1" stop-color="#B7BFC9"/>
</linearGradient>
<linearGradient id="paint7_linear_4205_7253" x1="112.138" y1="91.6886" x2="115.315" y2="88.5114" gradientUnits="userSpaceOnUse">
<stop stop-color="#C5CFDB"/>
<stop offset="1" stop-color="#B4B7BF"/>
</linearGradient>
<linearGradient id="paint8_linear_4205_7253" x1="114.578" y1="89.2483" x2="143.791" y2="60.0356" gradientUnits="userSpaceOnUse">
<stop stop-color="#ECEFF5"/>
<stop offset="1" stop-color="#CAD3DE"/>
</linearGradient>
<linearGradient id="paint9_linear_4205_7253" x1="88.0852" y1="90.3185" x2="93.3949" y2="85.0088" gradientUnits="userSpaceOnUse">
<stop stop-color="#ECEFF5"/>
<stop offset="1" stop-color="#CAD3DE"/>
</linearGradient>
<linearGradient id="paint10_linear_4205_7253" x1="113.547" y1="115.78" x2="118.857" y2="110.47" gradientUnits="userSpaceOnUse">
<stop stop-color="#ECEFF5"/>
<stop offset="1" stop-color="#CAD3DE"/>
</linearGradient>
<linearGradient id="paint11_linear_4205_7253" x1="66.7174" y1="67.1366" x2="69.8507" y2="42.8589" gradientUnits="userSpaceOnUse">
<stop stop-color="#DCE2EB"/>
<stop offset="1" stop-color="#B8BDCC"/>
</linearGradient>
<linearGradient id="paint12_linear_4205_7253" x1="63.0594" y1="71.5324" x2="73.5018" y2="81.9749" gradientUnits="userSpaceOnUse">
<stop stop-color="#DCE2EB"/>
<stop offset="1" stop-color="#B8BDCC"/>
</linearGradient>
</defs>
</svg>
