<svg width="24" height="24" viewBox="0 0 24 24" fill="none" xmlns="http://www.w3.org/2000/svg">
<path fill-rule="evenodd" clip-rule="evenodd" d="M3.66667 2C2.74619 2 2 2.74619 2 3.66667V9.22222C2 10.1427 2.74619 10.8889 3.66667 10.8889H9.22222C10.1427 10.8889 10.8889 10.1427 10.8889 9.22222V3.66667C10.8889 2.74619 10.1427 2 9.22222 2H3.66667ZM14.7778 2C13.8573 2 13.1111 2.74619 13.1111 3.66667V9.22222C13.1111 10.1427 13.8573 10.8889 14.7778 10.8889H20.3333C21.2538 10.8889 22 10.1427 22 9.22222V3.66667C22 2.74619 21.2538 2 20.3333 2H14.7778ZM2 14.7778C2 13.8573 2.74619 13.1111 3.66667 13.1111H9.22222C10.1427 13.1111 10.8889 13.8573 10.8889 14.7778V20.3333C10.8889 21.2538 10.1427 22 9.22222 22H3.66667C2.74619 22 2 21.2538 2 20.3333V14.7778ZM14.7778 13.1111C13.8573 13.1111 13.1111 13.8573 13.1111 14.7778V20.3333C13.1111 21.2538 13.8573 22 14.7778 22H20.3333C21.2538 22 22 21.2538 22 20.3333V14.7778C22 13.8573 21.2538 13.1111 20.3333 13.1111H14.7778Z" fill="#30414D"/>
</svg>
