<svg width="24" height="24" viewBox="0 0 24 24" fill="none" xmlns="http://www.w3.org/2000/svg">
<path fill-rule="evenodd" clip-rule="evenodd" d="M5.33327 2.66797H15.9999C16.7363 2.66797 17.3333 3.26492 17.3333 4.0013V20.0013C17.3333 20.7377 16.7363 21.3346 15.9999 21.3346H5.33327C4.59689 21.3346 3.99994 20.7377 3.99994 20.0013V4.0013C3.99994 3.26492 4.59689 2.66797 5.33327 2.66797ZM19.3332 2.66797C19.7014 2.66797 19.9999 2.96645 19.9999 3.33464V20.668C19.9999 21.0362 19.7014 21.3346 19.3332 21.3346C18.9651 21.3346 18.6666 21.0362 18.6666 20.668V3.33464C18.6666 2.96645 18.9651 2.66797 19.3332 2.66797ZM7.33324 6.66857C6.96505 6.66857 6.66657 6.96705 6.66657 7.33524C6.66657 7.70343 6.96505 8.0019 7.33324 8.0019H13.9999C14.3681 8.0019 14.6666 7.70343 14.6666 7.33524C14.6666 6.96705 14.3681 6.66857 13.9999 6.66857H7.33324ZM7.33324 9.33504C6.96505 9.33504 6.66657 9.63351 6.66657 10.0017C6.66657 10.3699 6.96505 10.6684 7.33324 10.6684H13.9999C14.3681 10.6684 14.6666 10.3699 14.6666 10.0017C14.6666 9.63351 14.3681 9.33504 13.9999 9.33504H7.33324ZM7.33324 12.0015C6.96505 12.0015 6.66657 12.3 6.66657 12.6682C6.66657 13.0364 6.96505 13.3348 7.33324 13.3348H11.3332C11.7014 13.3348 11.9999 13.0364 11.9999 12.6682C11.9999 12.3 11.7014 12.0015 11.3332 12.0015H7.33324Z" fill="#30414D"/>
</svg>
