<?xml version="1.0" standalone="no"?><!DOCTYPE svg PUBLIC "-//W3C//DTD SVG 1.1//EN" "http://www.w3.org/Graphics/SVG/1.1/DTD/svg11.dtd"><svg t="1711587031895" class="icon" viewBox="0 0 1024 1024" version="1.1" xmlns="http://www.w3.org/2000/svg" p-id="834" width="24" height="24" xmlns:xlink="http://www.w3.org/1999/xlink"><path d="M671.22820779 26.54814777a97.09036999 97.09036999 0 0 1 89.32313998 59.12803556l2.71853113 7.28177777 172.4810422 517.39458447a72.81777778 72.81777778 0 0 1-62.67183331 95.53692444l-6.40796445 0.29127111H560.54518557v194.18073998h145.63555555a48.54518557 48.54518557 0 0 1 5.67978667 96.75055445L706.18074112 997.45185223H317.81925888a48.54518557 48.54518557 0 0 1-5.67978667-96.75055445L317.81925888 900.3614811h145.63555555v-194.18073998H157.32887666a72.81777778 72.81777778 0 0 1-70.87596999-89.71150222l1.79617223-6.11669333L260.68157667 92.9579611A97.09036999 97.09036999 0 0 1 345.00456334 26.83941888L352.77179221 26.54814777h318.45641558zM706.18074112 706.18074112a48.54518557 48.54518557 0 1 1 0 97.09036999 48.54518557 48.54518557 0 0 1 0-97.09036999z" fill="#30414D" p-id="835"></path></svg>