<svg width="42" height="45" viewBox="0 0 42 45" fill="none" xmlns="http://www.w3.org/2000/svg">
<path d="M21.0328 22.5C22.9238 22.5 24.4567 20.9671 24.4567 19.0761V3.42392C24.4567 1.53294 22.9238 0 21.0328 0C19.1418 0 17.6089 1.53294 17.6089 3.42392V19.0761C17.6089 20.9671 19.1418 22.5 21.0328 22.5Z" fill="white"/>
<path d="M34.8518 9.49093C33.4488 8.27374 31.295 8.39178 30.0425 9.75686C28.7901 11.1205 28.9129 13.213 30.3167 14.4302C33.2195 16.9546 35.0357 20.5876 35.0369 24.6642C35.0236 32.2381 28.7179 38.3666 20.9252 38.3788C13.1328 38.3666 6.82614 32.2381 6.81378 24.6642C6.81478 20.5684 8.64791 16.9222 11.5739 14.3968C12.9826 13.1851 13.1121 11.0919 11.8651 9.72475C10.6169 8.35614 8.46523 8.22946 7.0575 9.44209L7.0565 9.44035C2.73792 13.1547 -0.00121815 18.6133 4.06402e-07 24.6642C0.00199446 35.8974 9.36781 44.999 20.9253 45.0007C32.4825 44.999 41.8484 35.8973 41.8501 24.6642C41.8512 18.6395 39.138 13.2021 34.8518 9.49093Z" fill="white"/>
</svg>
