<svg width="18" height="18" viewBox="0 0 18 18" fill="none" xmlns="http://www.w3.org/2000/svg">
<g clip-path="url(#clip0_4157_5645)">
<path d="M4.5 13.5005H0.9C0.405 13.5005 0 13.0955 0 12.6005V5.41846C0 4.91446 0.414 4.50046 0.918 4.50046H4.5V13.5005ZM9 2.59246V15.3995C9 15.7505 8.622 15.9665 8.316 15.7865L4.5 13.5005V4.50046L8.316 2.20546C8.622 2.02546 9 2.24146 9 2.59246Z" fill="white"/>
<path d="M15 8.99916C15 12.2177 12.9205 14.9511 10.0307 15.9285C9.98496 15.9443 9.9375 15.9109 9.9375 15.8617V14.8122C9.9375 14.7841 9.95508 14.7577 9.98145 14.7472C10.0201 14.7314 10.057 14.7173 10.0957 14.6997C10.8322 14.3886 11.4949 13.9421 12.0627 13.3726C12.6305 12.8048 13.077 12.1421 13.3898 11.4056C13.7115 10.6445 13.875 9.83412 13.875 8.9974C13.875 8.16068 13.7115 7.35208 13.3898 6.58919C13.0787 5.85267 12.6322 5.18997 12.0627 4.6222C11.4932 4.05443 10.8322 3.60794 10.0957 3.29505C10.0588 3.27923 10.0201 3.26341 9.98145 3.24759C9.95508 3.23704 9.9375 3.21068 9.9375 3.18255V2.13314C9.9375 2.08568 9.98496 2.05052 10.0307 2.06634C12.9205 3.0472 15 5.7806 15 8.99916Z" fill="white"/>
<path d="M12.1875 9.00097C12.1875 10.6217 11.3297 12.042 10.0447 12.8348C9.99727 12.8629 9.9375 12.8295 9.9375 12.775V11.548C9.9375 11.5287 9.94629 11.5094 9.96035 11.4971C9.99902 11.4619 10.0359 11.425 10.0746 11.3881C10.7109 10.75 11.0625 9.90273 11.0625 9.00097C11.0625 8.09921 10.7109 7.25195 10.0746 6.61386C10.0377 6.57695 9.99902 6.54003 9.96035 6.50488C9.94629 6.49082 9.9375 6.47324 9.9375 6.4539V5.22695C9.9375 5.17246 9.99727 5.1373 10.0447 5.16718C11.3297 5.95996 12.1875 7.38027 12.1875 9.00097Z" fill="white"/>
</g>
<defs>
<clipPath id="clip0_4157_5645">
<rect width="18" height="18" fill="white"/>
</clipPath>
</defs>
</svg>
