<svg width="18" height="18" viewBox="0 0 18 18" fill="none" xmlns="http://www.w3.org/2000/svg">
<g id="&#233;&#157;&#153;&#233;&#159;&#179; 1">
<path id="Vector" d="M4.5 13.5005H0.9C0.405 13.5005 0 13.0955 0 12.6005V5.41846C0 4.91446 0.414 4.50046 0.918 4.50046H4.5V13.5005ZM9 2.59246V15.3995C9 15.7505 8.622 15.9665 8.316 15.7865L4.5 13.5005V4.50046L8.316 2.20546C8.622 2.02546 9 2.24146 9 2.59246ZM10.953 11.5475C10.602 11.1965 10.602 10.6295 10.953 10.2785L14.769 6.46246C15.12 6.11146 15.687 6.11146 16.038 6.46246C16.389 6.81346 16.389 7.38046 16.038 7.73146L12.222 11.5475C11.88 11.8985 11.304 11.8985 10.953 11.5475Z" fill="white"/>
<path id="Vector_2" d="M10.9527 6.4527C11.3037 6.1017 11.8707 6.1017 12.2217 6.4527L16.0377 10.2687C16.3887 10.6197 16.3887 11.1867 16.0377 11.5377C15.6867 11.8887 15.1197 11.8887 14.7687 11.5377L10.9527 7.7217C10.6017 7.3797 10.6017 6.8037 10.9527 6.4527Z" fill="white"/>
</g>
</svg>
