<svg width="24" height="24" viewBox="0 0 24 24" fill="none" xmlns="http://www.w3.org/2000/svg">
<path fill-rule="evenodd" clip-rule="evenodd" d="M12.3242 3.27185L6.98289 6.47585C6.77622 6.60119 6.53889 6.66652 6.29622 6.66652H2.66689C1.92956 6.66652 1.33356 7.26252 1.33356 7.99985V15.9999C1.33356 16.7372 1.92956 17.3332 2.66689 17.3332H6.29622C6.53889 17.3332 6.77622 17.3985 6.98289 17.5225L12.3242 20.7279C12.7682 20.9945 13.3336 20.6745 13.3336 20.1559V3.84385C13.3336 3.32519 12.7682 3.00519 12.3242 3.27185ZM16.5182 6.81419C16.2582 6.55419 15.8355 6.55419 15.5755 6.81419C15.3155 7.07419 15.3155 7.49686 15.5755 7.75686C16.7102 8.89019 17.3329 10.3969 17.3329 11.9995C17.3329 13.6022 16.7102 15.1089 15.5755 16.2409C15.3155 16.5022 15.3155 16.9235 15.5755 17.1835C15.7062 17.3142 15.8769 17.3795 16.0462 17.3795C16.2169 17.3795 16.3875 17.3142 16.5182 17.1835C17.9035 15.7995 18.6662 13.9582 18.6662 11.9995C18.6662 10.0395 17.9035 8.19819 16.5182 6.81419ZM18.4049 3.98522C18.6649 3.72522 19.0876 3.72522 19.3476 3.98522C21.4876 6.12656 22.6662 8.97322 22.6662 11.9999C22.6662 15.0252 21.4876 17.8719 19.3476 20.0132C19.2169 20.1439 19.0462 20.2092 18.8756 20.2092C18.7062 20.2092 18.5356 20.1439 18.4049 20.0132C18.1449 19.7532 18.1449 19.3319 18.4049 19.0706C20.2929 17.1812 21.3329 14.6706 21.3329 11.9999C21.3329 9.32922 20.2929 6.81722 18.4049 4.92789C18.1449 4.66789 18.1449 4.24522 18.4049 3.98522Z" fill="#30414D"/>
</svg>
