<?xml version="1.0" encoding="UTF-8"?>
<svg width="78px" height="78px" viewBox="0 0 78 78" version="1.1" xmlns="http://www.w3.org/2000/svg" xmlns:xlink="http://www.w3.org/1999/xlink">
    <!-- Generator: Sketch 59.1 (86144) - https://sketch.com -->
    <title>形状备份</title>
    <desc>Created with Sketch.</desc>
    <defs>
        <linearGradient x1="8.45868644%" y1="0%" x2="111.848517%" y2="112.510417%" id="linearGradient-1">
            <stop stop-color="#00F0FF" offset="0%"></stop>
            <stop stop-color="#704DF0" offset="100%"></stop>
        </linearGradient>
        <path d="M184.817248,29.7697181 C186.305142,24.1513076 189.808357,16.5009422 195.598932,11.9817859 C199.929371,8.59519457 201.011981,5.08646388 197.464352,2.89905898 C192.85632,0.0676465509 178.62694,-2.8026284 168.861243,5.31963902 C167.706459,6.28565032 166.068665,9.42241115 166.962512,13.4085957 C167.756426,16.9894997 171.292952,25.455978 176.556101,30.824558 C178.754632,33.0452737 183.551427,34.4387727 184.817248,29.7697181 L184.817248,29.7697181 Z M172.767634,36.1939856 C167.138205,34.6838784 159.499059,31.1806519 154.979971,25.4011609 C151.571224,21.0707066 148.079201,19.9825412 145.891829,23.5468382 C143.06046,28.1382302 140.201332,42.3732108 148.33458,52.1278368 C149.289473,53.2770727 152.426186,54.9204246 156.412311,54.0487819 C159.998712,53.2215541 168.470614,49.7183276 173.822458,44.4329525 C176.04314,42.2344142 177.442169,37.4376032 172.767634,36.1995374 L172.767634,36.1939856 Z M179.199812,48.2336034 C177.700863,53.8457278 174.197763,61.4839901 168.412929,66.0247594 C164.065975,69.433112 162.988953,72.9136283 166.536466,75.1229513 C171.144347,77.926238 185.378815,80.8016885 195.13864,72.6804837 C196.287835,71.7312519 197.925576,68.5560441 197.042861,64.6036874 C196.23787,60.9954966 192.712563,52.535677 187.455137,47.1844525 C185.256678,44.9640274 180.443385,43.5485064 179.199812,48.2336034 Z M191.220919,42.5481938 C196.861594,44.0749096 204.478726,47.589132 209.009031,53.3573422 C212.428968,57.6932153 215.909975,58.7813473 218.097402,55.2227114 C220.928843,50.620357 223.810251,36.3691582 215.671246,26.6203834 C214.688569,25.4711827 211.573984,23.833433 207.582207,24.7272557 C203.984612,25.5322514 195.523599,29.0464737 190.177173,34.3316865 C187.967538,36.5135023 186.551818,41.3212694 191.220919,42.5481938 L191.220919,42.5481938 Z" id="path-2"></path>
        <filter x="-196.2%" y="-188.5%" width="492.3%" height="492.3%" filterUnits="objectBoundingBox" id="filter-3">
            <feOffset dx="0" dy="6" in="SourceAlpha" result="shadowOffsetOuter1"></feOffset>
            <feGaussianBlur stdDeviation="50" in="shadowOffsetOuter1" result="shadowBlurOuter1"></feGaussianBlur>
            <feColorMatrix values="0 0 0 0 0.125490196   0 0 0 0 0.127812629   0 0 0 0 0.129411765  0 0 0 0.1 0" type="matrix" in="shadowBlurOuter1"></feColorMatrix>
        </filter>
    </defs>
    <g id="页面-1" stroke="none" stroke-width="1" fill="none" fill-rule="evenodd">
        <g id="1备份" transform="translate(-333.000000, -233.000000)">
            <g id="暗色" transform="translate(190.000000, 233.000000)">
                <g id="形状备份">
                    <use fill="black" fill-opacity="1" filter="url(#filter-3)" xlink:href="#path-2"></use>
                    <use fill="url(#linearGradient-1)" fill-rule="evenodd" xlink:href="#path-2"></use>
                </g>
            </g>
        </g>
    </g>
</svg>