<?xml version="1.0" encoding="UTF-8"?>
<svg width="61px" height="74px" viewBox="0 0 61 74" version="1.1" xmlns="http://www.w3.org/2000/svg" xmlns:xlink="http://www.w3.org/1999/xlink">
    <!-- Generator: Sketch 59.1 (86144) - https://sketch.com -->
    <title>间歇暗色</title>
    <desc>Created with Sketch.</desc>
    <defs>
        <linearGradient x1="21.7722374%" y1="0%" x2="92.0267223%" y2="112.510417%" id="linearGradient-1">
            <stop stop-color="#00F0FF" offset="0%"></stop>
            <stop stop-color="#704DF0" offset="100%"></stop>
        </linearGradient>
        <path d="M443.73919,92.6344243 C444.073477,91.3672338 445.085342,90.3911392 446.364266,90.1021471 C447.643191,89.8131551 448.97677,90.2592613 449.823965,91.2594782 C457.997466,100.827714 460.947133,113.79819 457.714773,125.957479 C452.416609,145.999964 432.186935,158.13827 412.12305,153.607999 L411.593939,155.610485 C411.205924,157.055941 409.163556,157.479001 407.911327,156.375519 L403.272788,152.292986 L398.637777,148.210454 C398.103527,147.739536 397.880773,147.007686 398.062132,146.319193 C398.243491,145.630699 398.797934,145.103354 399.494936,144.956415 L405.54091,143.690759 L411.583357,142.428629 C413.2236,142.086655 414.793296,143.468652 414.405281,144.910583 L413.914972,146.7791 C417.583474,147.582914 421.308415,147.730986 425.008664,147.20216 C433.097036,146.036854 440.416835,141.778543 445.42529,135.32474 C447.99239,132.013158 449.861865,128.216261 450.920989,124.162998 C451.995223,120.112602 452.245907,115.888033 451.658217,111.739125 C451.084183,107.734794 449.738944,103.879646 447.69694,100.387005 C446.753054,98.766302 445.667052,97.2325619 444.451726,95.8038515 C443.710155,94.9272894 443.444087,93.7437953 443.73919,92.6344243 L443.73919,92.6344243 Z M424.5,97 L425.5,97 C426.880712,97 428,98.1192881 428,99.5 L428,120.5 C428,121.880712 426.880712,123 425.5,123 L424.5,123 C423.119288,123 422,121.880712 422,120.5 L422,99.5 C422,98.1192881 423.119288,97 424.5,97 Z M413.282486,133.424621 L412.575379,132.717514 C411.599068,131.741204 411.599068,130.158291 412.575379,129.181981 L423.181981,118.575379 C424.158291,117.599068 425.741204,117.599068 426.717514,118.575379 L427.424621,119.282486 C428.400932,120.258796 428.400932,121.841709 427.424621,122.818019 L416.818019,133.424621 C415.841709,134.400932 414.258796,134.400932 413.282486,133.424621 Z M426.698292,83.5527285 C428.085276,84.3225569 428.948999,85.7802053 428.957794,87.365832 C428.966456,88.9514586 428.118834,90.4185175 426.740408,91.2035526 C425.361982,91.9885876 423.667082,91.9695353 422.306671,91.153713 C420.251485,89.9212426 419.564553,87.2694772 420.763097,85.1950472 C421.96164,83.1206171 424.60296,82.3897415 426.698292,83.5527285 L426.698292,83.5527285 Z" id="path-2"></path>
        <filter x="-250.8%" y="-198.6%" width="601.6%" height="513.5%" filterUnits="objectBoundingBox" id="filter-3">
            <feOffset dx="0" dy="6" in="SourceAlpha" result="shadowOffsetOuter1"></feOffset>
            <feGaussianBlur stdDeviation="50" in="shadowOffsetOuter1" result="shadowBlurOuter1"></feGaussianBlur>
            <feColorMatrix values="0 0 0 0 0.125490196   0 0 0 0 0.127812629   0 0 0 0 0.129411765  0 0 0 0.1 0" type="matrix" in="shadowBlurOuter1"></feColorMatrix>
        </filter>
    </defs>
    <g id="页面-1" stroke="none" stroke-width="1" fill="none" fill-rule="evenodd">
        <g id="1备份" transform="translate(-408.000000, -966.000000)">
            <g id="暗色" transform="translate(10.000000, 883.000000)">
                <g id="间歇暗色">
                    <use fill="black" fill-opacity="1" filter="url(#filter-3)" xlink:href="#path-2"></use>
                    <use fill="url(#linearGradient-1)" fill-rule="evenodd" xlink:href="#path-2"></use>
                </g>
            </g>
        </g>
    </g>
</svg>