<?xml version="1.0" encoding="UTF-8"?>
<svg width="254px" height="276px" viewBox="0 0 254 276" version="1.1" xmlns="http://www.w3.org/2000/svg" xmlns:xlink="http://www.w3.org/1999/xlink">
    <!-- Generator: Sketch 59.1 (86144) - https://sketch.com -->
    <title>主机布防</title>
    <desc>Created with Sketch.</desc>
    <g id="页面-1" stroke="none" stroke-width="1" fill="none" fill-rule="evenodd">
        <g id="切图莫兰迪" transform="translate(-376.000000, -159.000000)">
            <g id="编组-2" transform="translate(52.000000, 159.000000)">
                <g id="主机布防" transform="translate(324.000000, 0.000000)">
                    <path d="M122.239914,1.37944073 C88.8028435,23.8246854 50.0778822,36.9503859 9.99145297,39.425694 C4.59605581,39.425694 0.222222222,43.8386183 0.222222222,49.2822363 L0.222222222,114.631112 C0.219246395,190.810336 51.6071507,257.214389 124.858068,275.687014 C126.460005,276.104329 128.140747,276.104329 129.742684,275.687014 L134.627299,274.366237 C205.395802,254.073163 254.222222,188.859881 254.222222,114.631112 L254.222222,49.2822363 C254.222222,43.8386183 249.848389,39.425694 244.452991,39.425694 C221.925145,39.425694 183.883761,26.6516152 131.481607,0.985179102 C128.530646,-0.456396659 125.059729,-0.308323222 122.239914,1.37944073 Z" id="路径" fill="#FDFBFC"></path>
                    <path d="M125.626923,103.380018 C116.411982,109.563397 105.739749,113.17936 94.6923077,113.861276 C93.2053872,113.861276 92,115.076981 92,116.576628 L92,134.579411 C91.9991799,155.565816 106.161201,173.859286 126.348462,178.948259 C126.78994,179.063224 127.253137,179.063224 127.694615,178.948259 L129.040769,178.584402 C148.5439,172.993919 162,155.02849 162,134.579411 L162,116.576628 C162,115.076981 160.794613,113.861276 159.307692,113.861276 C153.099231,113.861276 142.615385,110.34218 128.173846,103.271404 C127.360589,102.874269 126.404037,102.915061 125.626923,103.380018 Z" id="路径" fill="#4C5667" fill-rule="nonzero"></path>
                    <polyline id="路径-3" stroke="#FFFFFF" stroke-width="5" stroke-linecap="round" points="114.444444 140.222222 125.789931 149.142578 142.826989 129.031901"></polyline>
                </g>
            </g>
        </g>
    </g>
</svg>