<?xml version="1.0" encoding="UTF-8"?>
<svg width="254px" height="276px" viewBox="0 0 254 276" version="1.1" xmlns="http://www.w3.org/2000/svg" xmlns:xlink="http://www.w3.org/1999/xlink">
    <!-- Generator: Sketch 59.1 (86144) - https://sketch.com -->
    <title>主机休闲</title>
    <desc>Created with Sketch.</desc>
    <g id="页面-1" stroke="none" stroke-width="1" fill="none" fill-rule="evenodd">
        <g id="切图莫兰迪" transform="translate(-705.000000, -2054.000000)">
            <g id="编组-2" transform="translate(52.000000, 159.000000)">
                <g id="主机休闲" transform="translate(653.000000, 1895.000000)">
                    <path d="M122.239914,1.37944073 C88.8028435,23.8246854 50.0778822,36.9503859 9.99145297,39.425694 C4.59605581,39.425694 0.222222222,43.8386183 0.222222222,49.2822363 L0.222222222,114.631112 C0.219246395,190.810336 51.6071507,257.214389 124.858068,275.687014 C126.460005,276.104329 128.140747,276.104329 129.742684,275.687014 L134.627299,274.366237 C205.395802,254.073163 254.222222,188.859881 254.222222,114.631112 L254.222222,49.2822363 C254.222222,43.8386183 249.848389,39.425694 244.452991,39.425694 C221.925145,39.425694 183.883761,26.6516152 131.481607,0.985179102 C128.530646,-0.456396659 125.059729,-0.308323222 122.239914,1.37944073 Z" id="路径" fill="#FDFBFC"></path>
                    <path d="M154.613198,126.945946 L102.089505,126.945946 C99.278649,126.945946 97,129.227506 97,132.041952 L97,172.300391 C97,175.114837 99.278649,177.396396 102.089505,177.396396 L154.613198,177.396396 C157.424054,177.396396 159.702703,175.114837 159.702703,172.300391 L159.702703,131.889072 C159.620134,129.134504 157.36549,126.944707 154.613198,126.945946 Z" id="路径" stroke="#4C5667" stroke-width="5" fill="#4C5667" fill-rule="nonzero"></path>
                    <path d="M182,143 L182,148.462687 C182,155.386854 176.627417,161 170,161 C163.372583,161 158,155.386854 158,148.462687 L158,143" id="矩形" stroke="#4C5667" stroke-width="5" transform="translate(170.000000, 152.000000) scale(1, -1) rotate(-90.000000) translate(-170.000000, -152.000000) "></path>
                    <rect id="矩形" fill="#4C5667" fill-rule="nonzero" x="111.414414" y="101" width="7.20720721" height="18.018018" rx="3.6036036"></rect>
                    <rect id="矩形" fill="#4C5667" fill-rule="nonzero" x="125.108108" y="101" width="7.20720721" height="18.018018" rx="3.6036036"></rect>
                    <rect id="矩形" fill="#4C5667" fill-rule="nonzero" x="138.801802" y="101" width="7.20720721" height="18.018018" rx="3.6036036"></rect>
                </g>
            </g>
        </g>
    </g>
</svg>