<?xml version="1.0" encoding="UTF-8"?>
<svg width="77px" height="77px" viewBox="0 0 77 77" version="1.1" xmlns="http://www.w3.org/2000/svg" xmlns:xlink="http://www.w3.org/1999/xlink">
    <!-- Generator: Sketch 59.1 (86144) - https://sketch.com -->
    <title>设置</title>
    <desc>Created with Sketch.</desc>
    <g id="页面-1" stroke="none" stroke-width="1" fill="none" fill-rule="evenodd">
        <g id="切图莫兰迪" transform="translate(-508.000000, -1113.000000)">
            <g id="编组-2" transform="translate(52.000000, 159.000000)">
                <g id="编组" transform="translate(0.000000, 626.000000)"></g>
                <g id="设置" transform="translate(469.000000, 967.000000)">
                    <path d="M26,33 C22.1357724,33 19,29.8642276 19,26 C19,22.1357724 22.1357724,19 26,19 C29.8642276,19 33,22.1357724 33,26 C33,29.8642276 29.8642276,33 26,33 Z" id="路径" fill="#566172"></path>
                    <path d="M47.4151786,26 C47.4151786,22.9589286 49.3245536,20.3821429 52,19.3549107 C51.3616071,16.8477679 50.375,14.4857143 49.0866071,12.3151786 C46.4633929,13.4816964 43.2946429,13.0058036 41.1473214,10.8526786 C39,8.70535714 38.5241071,5.53080357 39.690625,2.91339286 C37.5142857,1.625 35.1522321,0.638392857 32.6450893,0 C31.6120536,2.67544643 29.0352679,4.58482143 26,4.58482143 C22.9589286,4.58482143 20.3821429,2.67544643 19.3549107,0 C16.8477679,0.638392857 14.4857143,1.625 12.3151786,2.91339286 C13.4816964,5.53660714 13.0058036,8.70535714 10.8584821,10.8526786 C8.71116071,13 5.53660714,13.4758929 2.91919643,12.3151786 C1.625,14.4857143 0.638392857,16.8477679 0,19.3549107 C2.67544643,20.3879464 4.58482143,22.9647321 4.58482143,26 C4.58482143,29.0410714 2.67544643,31.6178571 0,32.6450893 C0.638392857,35.1522321 1.625,37.5142857 2.91339286,39.6848214 C5.53660714,38.5183036 8.70535714,38.9941964 10.8526786,41.1473214 C13,43.2946429 13.4758929,46.4691964 12.309375,49.0866071 C14.4857143,50.375 16.8477679,51.3616071 19.3549107,52 C20.3879464,49.3245536 22.9647321,47.4151786 26,47.4151786 C29.0410714,47.4151786 31.6178571,49.3245536 32.6450893,52 C35.1522321,51.3616071 37.5142857,50.375 39.6848214,49.0866071 C38.5183036,46.4633929 38.9941964,43.2946429 41.1415179,41.1473214 C43.2888393,39 46.4633929,38.5241071 49.0808036,39.6848214 C50.375,37.5142857 51.3616071,35.1522321 52,32.6450893 C49.3245536,31.6178571 47.4151786,29.0410714 47.4151786,26 Z" id="路径" stroke="#566172" stroke-width="5" stroke-linejoin="round" fill-rule="nonzero"></path>
                </g>
            </g>
        </g>
    </g>
</svg>