<?xml version="1.0" encoding="UTF-8"?>
<svg width="77px" height="77px" viewBox="0 0 77 77" version="1.1" xmlns="http://www.w3.org/2000/svg" xmlns:xlink="http://www.w3.org/1999/xlink">
    <!-- Generator: Sketch 59.1 (86144) - https://sketch.com -->
    <title>触发报警</title>
    <desc>Created with Sketch.</desc>
    <g id="页面-1" stroke="none" stroke-width="1" fill="none" fill-rule="evenodd">
        <g id="切图莫兰迪" transform="translate(-174.000000, -1096.000000)">
            <g id="编组-2" transform="translate(52.000000, 159.000000)">
                <g id="编组" transform="translate(0.000000, 626.000000)"></g>
                <g id="触发报警" transform="translate(120.000000, 941.000000)">
                    <rect id="矩形" fill="#566172" x="8" y="64" width="63" height="6" rx="3"></rect>
                    <path d="M59,22 L59,43.3500831 C59,54.8903614 50.045695,64.2456055 39,64.2456055 C27.954305,64.2456055 19,54.8903614 19,43.3500831 L19,22" id="矩形" fill="#566172" transform="translate(39.000000, 43.122803) scale(1, -1) translate(-39.000000, -43.122803) "></path>
                    <polygon id="路径" fill="#FDFDFD" fill-rule="nonzero" points="40.2698413 37 38.9365079 46.8311346 47 46.8311346 34.3650794 60 37.7936508 51.0791557 31 51.5039578"></polygon>
                    <path d="M7.5426281,18.2279781 L7.55264848,18.2280323 C9.80770101,18.2402164 11.6327585,20.0653105 11.6448973,22.3203632 L11.669383,26.8691241 C11.6813835,29.0984683 9.88387121,30.9154371 7.65452703,30.9274375 C7.64001432,30.9275156 7.62550129,30.9275155 7.61098858,30.9274371 L7.6009682,30.9273829 C5.34591566,30.9151989 3.52085819,29.0901047 3.50871937,26.835052 L3.48423364,22.2862911 C3.47223321,20.0569469 5.26974547,18.2399781 7.49908965,18.2279777 C7.51360236,18.2278996 7.52811539,18.2278997 7.5426281,18.2279781 Z" id="矩形" fill="#566172" transform="translate(7.576808, 24.577708) rotate(-54.520000) translate(-7.576808, -24.577708) "></path>
                    <path d="M22.402172,5.09318375 L22.4096151,5.09321281 C24.6798074,5.10207337 26.5179857,6.940192 26.5269201,9.21038402 L26.5443343,13.6352832 C26.5531947,15.8866873 24.7352537,17.7189938 22.4838496,17.7278542 C22.4731983,17.7278961 22.462547,17.7278963 22.4518957,17.7278547 L22.4444526,17.7278257 C20.1742603,17.7189651 18.336082,15.8808465 18.3271476,13.6106544 L18.3097334,9.1857553 C18.300873,6.93435113 20.1188139,5.10204467 22.3702181,5.09318427 C22.3808694,5.09314236 22.3915207,5.09314218 22.402172,5.09318375 Z" id="矩形" fill="#566172" transform="translate(22.427034, 11.410519) rotate(-21.695109) translate(-22.427034, -11.410519) "></path>
                    <path d="M39.493868,0.824911542 L39.495387,0.824912756 C41.76609,0.826727816 43.6064112,2.66703235 43.6082469,4.93773531 L43.6117908,9.32141277 C43.6136233,11.5882392 41.777483,13.4273507 39.5106565,13.4291833 C39.5084569,13.429185 39.5062572,13.4291851 39.5040575,13.4291833 L39.5025385,13.4291821 C37.2318356,13.427367 35.3915143,11.5870625 35.3896786,9.31635953 L35.3861348,4.93268206 C35.3843022,2.66585561 37.2204426,0.826744118 39.487269,0.824911572 C39.4894687,0.824909794 39.4916684,0.824909784 39.493868,0.824911542 Z" id="矩形" fill="#566172"></path>
                    <path d="M58.2398968,4.89081638 L58.2484936,4.89077754 C60.4935775,4.88063206 62.3218021,6.69240761 62.3319476,8.93749148 C62.3320031,8.94978064 62.3320029,8.96206998 62.331947,8.97435913 L62.31176,13.4107017 C62.3014453,15.6774722 60.4663809,17.512479 58.1996101,17.5227224 L58.1910134,17.5227613 C55.9459295,17.5329068 54.1177049,15.7211312 54.1075594,13.4760473 C54.1075039,13.4637582 54.1075041,13.4514689 54.10756,13.4391797 L54.127747,9.00283712 C54.1380616,6.73606666 55.9731261,4.90105986 58.2398968,4.89081638 Z" id="矩形" fill="#566172" transform="translate(58.219753, 11.206769) rotate(26.320000) translate(-58.219753, -11.206769) "></path>
                    <path d="M71.6203751,17.4680087 L71.6303955,17.4679545 C73.8597395,17.4559093 75.6767444,19.2533851 75.6887895,21.4827291 C75.688868,21.4972418 75.6888681,21.5117548 75.68879,21.5262675 L75.6643043,26.0750284 C75.6521654,28.3300811 73.827108,30.1551752 71.5720554,30.1673593 L71.562035,30.1674135 C69.3326911,30.1794587 67.5156862,28.3819829 67.503641,26.1526389 C67.5035626,26.1381262 67.5035625,26.1236132 67.5036406,26.1091005 L67.5281263,21.5603396 C67.5402651,19.3052869 69.3653226,17.4801928 71.6203751,17.4680087 Z" id="矩形" fill="#566172" transform="translate(71.596215, 23.817684) rotate(-125.480000) translate(-71.596215, -23.817684) "></path>
                </g>
            </g>
        </g>
    </g>
</svg>