<svg width="49" height="60" viewBox="0 0 49 60" fill="none" xmlns="http://www.w3.org/2000/svg">
<path d="M38.84 17.4281L38.5501 17.3528C38.9542 19.3206 38.8309 21.3409 38.1765 23.413C37.1964 26.5139 36.5952 26.5139 35.5542 29.8865C35.3389 29.5882 33.96 27.4712 35.1372 23.4092C36.042 18.7095 33.7142 13.9886 30.4817 9.14506C27.3503 4.44539 22.7306 0.901608 18.3741 0.00976562H18.158L18.2333 0.229682C19.6517 7.40171 15.6156 11.1388 10.8551 15.3111C6.09451 19.4872 0.890324 24.2965 0.0951231 33.6509C-0.928365 45.9564 7.13931 54.6123 12.0148 58.6043C12.3047 58.8242 12.5992 58.8988 12.9233 58.8988C13.4332 58.8988 13.8289 58.6796 14.1226 58.3067C14.3948 57.9005 14.4234 57.3781 14.1972 56.9446C10.346 46.887 18.2333 40.4143 20.7414 38.6444C18.6686 50.8889 28.8487 60.515 31.1186 59.716C40.4464 56.4531 46.4717 49.8609 47.9655 40.9729C49.5604 31.4419 45.5281 20.9019 38.84 17.4281Z" fill="#FF5057"/>
</svg>
