<?xml version="1.0" encoding="UTF-8"?>
<svg width="64px" height="64px" viewBox="0 0 64 64" version="1.1" xmlns="http://www.w3.org/2000/svg" xmlns:xlink="http://www.w3.org/1999/xlink">
    <!-- Generator: Sketch 59.1 (86144) - https://sketch.com -->
    <title>记录蓝白</title>
    <desc>Created with Sketch.</desc>
    <defs>
        <linearGradient x1="8.45868644%" y1="0%" x2="111.848517%" y2="112.510417%" id="linearGradient-1">
            <stop stop-color="#00F0FF" offset="0%"></stop>
            <stop stop-color="#704DF0" offset="100%"></stop>
        </linearGradient>
        <path d="M147,2 C164.673112,2 179,16.326888 179,34 C179,51.673112 164.673112,66 147,66 C129.326888,66 115,51.673112 115,34 C115,16.326888 129.326888,2 147,2 Z M145.5,18 C144.119288,18 143,19.1192881 143,20.5 L143,20.5 L143,37.5 C143,38.6261488 143.744607,39.5783853 144.767486,39.8910036 C144.86928,39.9927496 144.981295,40.0870747 145.103267,40.1724804 L145.103267,40.1724804 L159.028851,49.9232798 C160.159864,50.7152236 161.718729,50.4403538 162.510672,49.3093408 C163.302616,48.1783278 163.027746,46.6194634 161.896733,45.8275196 L161.896733,45.8275196 L148,36.096 L148,20.5 C148,19.1192881 146.880712,18 145.5,18 Z" id="path-2"></path>
        <filter x="-239.1%" y="-229.7%" width="578.1%" height="578.1%" filterUnits="objectBoundingBox" id="filter-3">
            <feOffset dx="0" dy="6" in="SourceAlpha" result="shadowOffsetOuter1"></feOffset>
            <feGaussianBlur stdDeviation="50" in="shadowOffsetOuter1" result="shadowBlurOuter1"></feGaussianBlur>
            <feColorMatrix values="0 0 0 0 0.125490196   0 0 0 0 0.127812629   0 0 0 0 0.129411765  0 0 0 0.1 0" type="matrix" in="shadowBlurOuter1"></feColorMatrix>
        </filter>
    </defs>
    <g id="页面-1" stroke="none" stroke-width="1" fill="none" fill-rule="evenodd">
        <g id="1备份" transform="translate(-357.000000, -673.000000)">
            <g id="暗色" transform="translate(242.000000, 671.000000)">
                <g id="蓝白备份">
                    <g id="记录蓝白">
                        <use fill="black" fill-opacity="1" filter="url(#filter-3)" xlink:href="#path-2"></use>
                        <use fill="url(#linearGradient-1)" fill-rule="evenodd" xlink:href="#path-2"></use>
                    </g>
                </g>
            </g>
        </g>
    </g>
</svg>