<?xml version="1.0" encoding="UTF-8"?>
<svg width="75px" height="75px" viewBox="0 0 75 75" version="1.1" xmlns="http://www.w3.org/2000/svg" xmlns:xlink="http://www.w3.org/1999/xlink">
    <!-- Generator: Sketch 59.1 (86144) - https://sketch.com -->
    <title>喂食记录</title>
    <desc>Created with Sketch.</desc>
    <g id="页面-1" stroke="none" stroke-width="1" fill-rule="evenodd">
        <g id="1" transform="translate(-525.000000, -1361.000000)" fill-rule="nonzero">
            <g id="喂食记录" transform="translate(415.000000, 1277.000000)">
                <g transform="translate(110.000000, 84.000000)" id="记录-(1)-(1)">
                    <g>
                        <path d="M56.7589286,54.6177455 L13.2410714,54.6177455 C11.4464286,54.6177455 10,56.0239955 10,57.781808 C10,59.5396205 11.4375,60.9458705 13.2410714,60.9458705 L56.7678571,60.9458705 C58.5625,60.9458705 60.0089286,59.5396205 60.0089286,57.781808 C60.0089286,56.0239955 58.5625,54.6177455 56.7589286,54.6177455 L56.7589286,54.6177455 Z M13.2410714,20.3822545 L30.5089286,20.3822545 C32.3035714,20.3822545 33.75,18.9760045 33.75,17.218192 C33.75,15.4603795 32.3125,14.0541295 30.5089286,14.0541295 L13.2410714,14.0541295 C11.4464286,14.0541295 10,15.4603795 10,17.218192 C10,18.9760045 11.4375,20.3822545 13.2410714,20.3822545 L13.2410714,20.3822545 Z M10,37.4162946 C10,39.1741071 11.4375,40.5803571 13.2410714,40.5803571 L56.7678571,40.5803571 C58.5625,40.5803571 60.0089286,39.1741071 60.0089286,37.4162946 C60.0089286,35.6584821 58.5714286,34.2522321 56.7678571,34.2522321 L13.2410714,34.2522321 C11.4375,34.4280134 10,35.8342634 10,37.4162946 L10,37.4162946 Z M75,64.8549107 C75,70.5301339 70.125,75 63.9375,75 L11.0625,75 C4.875,75 0,70.5301339 0,64.8549107 L0,10.1450893 C0,4.46986607 4.875,0 11.0625,0 L45.375,0 L45.375,16.8582589 C45.375,22.5334821 50.25,27.0033482 56.4375,27.0033482 L75,27.0033482 L75,64.8549107 Z M50.4375,0.17578125 C52.5,0.518973214 54.5625,1.38113839 56.0625,2.75390625 L72,17.3772321 C73.5,18.75 74.4375,20.4743304 74.8125,22.5418527 L56.4375,22.5418527 C53.0625,22.5418527 50.4375,19.9637277 50.4375,17.0340402 L50.4375,0.17578125 Z" id="形状"></path>
                    </g>
                </g>
            </g>
        </g>
    </g>
</svg>