<svg width="32" height="32" viewBox="0 0 32 32" fill="none" xmlns="http://www.w3.org/2000/svg">
<g clip-path="url(#clip0_521_981)">
<path d="M15.9998 31.0612C13.021 31.0612 10.109 30.1778 7.63219 28.5229C5.15537 26.8679 3.22492 24.5156 2.08496 21.7635C0.945002 19.0114 0.646738 15.9831 1.22788 13.0615C1.80903 10.1399 3.24348 7.45621 5.34985 5.34985C7.45621 3.24348 10.1399 1.80903 13.0615 1.22788C15.9831 0.646738 19.0114 0.945002 21.7635 2.08496C24.5156 3.22492 26.8679 5.15537 28.5229 7.63219C30.1778 10.109 31.0612 13.021 31.0612 15.9998C31.0583 19.9935 29.4706 23.8227 26.6467 26.6467C23.8227 29.4706 19.9935 31.0583 15.9998 31.0612Z" fill="#26313D"/>
<path d="M16 1.87733C18.7932 1.87733 21.5237 2.70561 23.8461 4.25743C26.1686 5.80925 27.9787 8.01491 29.0476 10.5955C30.1166 13.1761 30.3962 16.0157 29.8513 18.7552C29.3064 21.4947 27.9613 24.0111 25.9862 25.9862C24.0112 27.9613 21.4947 29.3064 18.7552 29.8513C16.0157 30.3962 13.1761 30.1166 10.5955 29.0476C8.01492 27.9787 5.80926 26.1686 4.25744 23.8461C2.70562 21.5237 1.87734 18.7932 1.87734 16C1.87734 12.2544 3.36526 8.66228 6.01377 6.01377C8.66229 3.36525 12.2544 1.87733 16 1.87733ZM16 0C12.8355 0 9.74207 0.938384 7.11088 2.69649C4.4797 4.45459 2.42894 6.95345 1.21793 9.87706C0.0069325 12.8007 -0.309921 16.0177 0.307443 19.1214C0.924806 22.2251 2.44866 25.0761 4.6863 27.3137C6.92394 29.5513 9.77487 31.0752 12.8786 31.6926C15.9823 32.3099 19.1993 31.9931 22.1229 30.7821C25.0466 29.5711 27.5454 27.5203 29.3035 24.8891C31.0616 22.2579 32 19.1645 32 16C32 11.7565 30.3143 7.68687 27.3137 4.68629C24.3131 1.68571 20.2435 0 16 0V0Z" fill="#26313D"/>
<path d="M24.8212 23.595C24.7161 23.446 24.6021 23.3036 24.4799 23.1683C24.3668 23.0395 24.2418 22.9216 24.1066 22.8163L23.7759 22.5603C23.6979 22.4988 23.6118 22.4486 23.5199 22.411L23.4666 22.4003L21.6426 21.2056C21.3685 21.0278 21.0835 20.8674 20.7892 20.7256L18.3252 19.531V18.3576C19.0072 17.9504 19.5757 17.3782 19.9786 16.6936C20.3519 15.9799 20.5666 15.194 20.6079 14.3896V13.4936C20.6353 12.9588 20.6067 12.4225 20.5226 11.8936L20.4479 11.3816C20.4325 10.0544 19.9096 8.78345 18.9866 7.82963C18.5281 7.33742 17.9626 6.95731 17.3337 6.7187C16.7048 6.4801 16.0294 6.3894 15.3599 6.45363C14.8688 6.51174 14.3942 6.66713 13.9638 6.91071C13.5334 7.15429 13.1559 7.48118 12.8532 7.87229C12.0528 8.85888 11.5529 10.0549 11.4132 11.3176C11.4132 11.3176 11.3172 12.9603 11.3279 13.163L11.4132 14.315C11.5002 15.1101 11.7089 15.8872 12.0319 16.619C12.4108 17.3252 12.9896 17.904 13.6959 18.283V19.4563L11.2426 20.6723C11.0577 20.7647 10.8763 20.8678 10.6986 20.9816L8.53323 22.4003L8.35189 22.507C8.20554 22.5993 8.06647 22.7027 7.93589 22.8163C7.74778 22.9683 7.57293 23.136 7.41323 23.3176C7.24843 23.5089 7.10864 23.7204 6.99723 23.947C6.87194 24.2107 6.81971 24.5032 6.84597 24.794C6.87224 25.0848 6.97604 25.3633 7.14656 25.6003C7.84907 26.2065 8.62709 26.7192 9.46123 27.1256C11.7105 28.4291 14.2914 29.0478 16.8872 28.9056C19.4831 28.7635 21.981 27.8669 24.0746 26.3256C24.3626 26.1202 24.621 25.8761 24.8426 25.6003C25.0592 25.3193 25.1757 24.9738 25.1732 24.619C25.1736 24.4299 25.1411 24.2422 25.0772 24.0643C25.0119 23.8977 24.9259 23.7401 24.8212 23.595Z" fill="white"/>
</g>
<defs>
<clipPath id="clip0_521_981">
<rect width="32" height="32" fill="white"/>
</clipPath>
</defs>
</svg>
