<svg width="16" height="16" viewBox="0 0 16 16" fill="none" xmlns="http://www.w3.org/2000/svg">
<path d="M9.14703 8.00971L15.2125 1.94445C15.5187 1.63819 15.5187 1.13354 15.2125 0.827281L15.1793 0.79415C14.8731 0.487887 14.3684 0.487887 14.0622 0.79415L7.99672 6.86789L1.93147 0.79415C1.62521 0.487887 1.12056 0.487887 0.814299 0.79415L0.781168 0.827281C0.466824 1.13354 0.466824 1.63819 0.781168 1.94445L6.84662 8.00991L0.781168 14.0752C0.475107 14.3814 0.475107 14.8861 0.781168 15.1923L0.814299 15.2255C1.12056 15.5317 1.62521 15.5317 1.93147 15.2255L7.99672 9.16001L14.0622 15.2253C14.3684 15.5315 14.8731 15.5315 15.1793 15.2253L15.2125 15.1921C15.5187 14.8859 15.5187 14.3812 15.2125 14.075L9.14703 8.00971Z" fill="black"/>
</svg>
