<svg width="84" height="84" viewBox="0 0 84 84" fill="none" xmlns="http://www.w3.org/2000/svg">
<path d="M14.5742 40.6877C14.5742 44.2894 15.2836 47.8557 16.6619 51.1832C18.0402 54.5107 20.0604 57.5341 22.6071 60.0808C25.1538 62.6276 28.1773 64.6478 31.5047 66.026C34.8322 67.4043 38.3986 68.1137 42.0002 68.1137C45.6019 68.1137 49.1682 67.4043 52.4957 66.026C55.8232 64.6478 58.8466 62.6276 61.3933 60.0808C63.9401 57.5341 65.9603 54.5107 67.3385 51.1832C68.7168 47.8557 69.4262 44.2894 69.4262 40.6877C69.4262 37.0861 68.7168 33.5197 67.3385 30.1922C65.9603 26.8648 63.9401 23.8413 61.3933 21.2946C58.8466 18.7479 55.8232 16.7277 52.4957 15.3494C49.1682 13.9711 45.6019 13.2617 42.0002 13.2617C38.3986 13.2617 34.8322 13.9711 31.5047 15.3494C28.1773 16.7277 25.1538 18.7479 22.6071 21.2946C20.0604 23.8413 18.0402 26.8648 16.6619 30.1922C15.2836 33.5197 14.5742 37.0861 14.5742 40.6877Z" fill="white"/>
<path d="M42 2.625C20.2177 2.625 2.625 20.2125 2.625 42C2.625 63.7875 20.2125 81.375 42 81.375C63.7875 81.375 81.375 63.7875 81.375 42C81.375 20.2125 63.7875 2.625 42 2.625ZM58.5375 58.5375C58.0053 59.0404 57.3009 59.3205 56.5687 59.3205C55.8366 59.3205 55.1322 59.0404 54.6 58.5375L42 45.9375L29.4052 58.5375C28.8731 59.0404 28.1687 59.3205 27.4365 59.3205C26.7043 59.3205 25.9999 59.0404 25.4677 58.5375C24.9625 58.0065 24.6807 57.3017 24.6807 56.5687C24.6807 55.8358 24.9625 55.131 25.4677 54.6L38.0625 42L25.4625 29.4C24.4125 28.35 24.4125 26.5125 25.4625 25.4625C26.5125 24.4125 28.35 24.4125 29.4 25.4625L42 38.0625L54.6 25.4625C55.6447 24.4125 57.4927 24.4125 58.5375 25.4625C59.5822 26.5125 59.5822 28.35 58.5375 29.4L45.9375 42L58.5375 54.6C59.85 55.65 59.85 57.4822 58.5375 58.5375Z" fill="#DA695C"/>
</svg>
