<svg width="66" height="66" viewBox="0 0 66 66" fill="none" xmlns="http://www.w3.org/2000/svg">
<g clip-path="url(#clip0_698_2075)">
<path d="M52.7999 23.1H49.4999V16.5C49.4999 12.1239 47.7615 7.92709 44.6671 4.83274C41.5728 1.73839 37.3759 0 32.9999 0C28.6238 0 24.4269 1.73839 21.3326 4.83274C18.2382 7.92709 16.4999 12.1239 16.4999 16.5V23.1H13.1999C11.4494 23.1 9.77069 23.7954 8.53295 25.0331C7.29521 26.2708 6.59985 27.9496 6.59985 29.7V59.4C6.59985 61.1504 7.29521 62.8292 8.53295 64.0669C9.77069 65.3046 11.4494 66 13.1999 66H52.7999C54.5503 66 56.229 65.3046 57.4668 64.0669C58.7045 62.8292 59.3998 61.1504 59.3998 59.4V29.7C59.3998 27.9496 58.7045 26.2708 57.4668 25.0331C56.229 23.7954 54.5503 23.1 52.7999 23.1ZM23.0999 16.5C23.0999 13.8744 24.1429 11.3563 25.9995 9.49964C27.8561 7.64303 30.3742 6.6 32.9999 6.6C35.6255 6.6 38.1436 7.64303 40.0002 9.49964C41.8568 11.3563 42.8998 13.8744 42.8998 16.5V23.1H23.0999V16.5ZM52.7999 59.4H13.1999V29.7H52.7999V59.4Z" fill="#999999"/>
<path d="M33 52.7998C33.8752 52.7998 34.7145 52.4521 35.3334 51.8333C35.9523 51.2144 36.3 50.375 36.3 49.4998V39.5998C36.3 38.7246 35.9523 37.8852 35.3334 37.2663C34.7145 36.6475 33.8752 36.2998 33 36.2998C32.1247 36.2998 31.2854 36.6475 30.6665 37.2663C30.0476 37.8852 29.7 38.7246 29.7 39.5998V49.4998C29.7 50.375 30.0476 51.2144 30.6665 51.8333C31.2854 52.4521 32.1247 52.7998 33 52.7998Z" fill="#999999"/>
<rect x="2.66098" y="8.6748" width="8.50489" height="83.6436" rx="4.25244" transform="rotate(-45 2.66098 8.6748)" fill="#999999" stroke="white" stroke-width="2"/>
</g>
<defs>
<clipPath id="clip0_698_2075">
<rect width="66" height="66" fill="white"/>
</clipPath>
</defs>
</svg>
