<svg width="34" height="18" viewBox="0 0 34 18" fill="none" xmlns="http://www.w3.org/2000/svg">
<path fill-rule="evenodd" clip-rule="evenodd" d="M15.7548 4.6439C15.7548 5.09276 16.12 5.45413 16.5651 5.45413C17.0101 5.45413 17.3715 5.09276 17.3753 4.6439V0.840013C17.3753 0.391155 17.0101 0.0297852 16.5651 0.0297852C16.1162 0.0297852 15.7548 0.394958 15.7548 0.840013V4.6439ZM7.54604 8.71787C7.702 8.87383 7.91121 8.95371 8.11662 8.95371C8.32584 8.95371 8.53125 8.87383 8.69101 8.71787C9.00673 8.40214 9.00673 7.88862 8.69101 7.5729L6.00166 4.88355C5.68594 4.56782 5.17241 4.56782 4.85669 4.88355C4.54097 5.19927 4.54097 5.71279 4.85669 6.02852L7.54604 8.71787ZM4.61705 17.4021H0.813158C0.368103 17.4021 0.00292969 17.0408 0.00292969 16.5919C0.00292969 16.1431 0.364299 15.7817 0.813158 15.7817H4.61705C5.0621 15.7817 5.42727 16.1431 5.42727 16.5919C5.42727 17.0408 5.06591 17.4021 4.61705 17.4021ZM28.5131 17.4021H32.317C32.762 17.4021 33.1272 17.0408 33.1272 16.5919C33.1272 16.1431 32.762 15.7817 32.317 15.7817H28.5131C28.0642 15.7817 27.7028 16.1431 27.7028 16.5919C27.7028 17.0408 28.068 17.4021 28.5131 17.4021ZM25.0135 8.95371C24.8081 8.95371 24.5989 8.87383 24.4429 8.71787C24.1272 8.40214 24.1272 7.88862 24.4429 7.5729L27.1323 4.88355C27.448 4.56782 27.9615 4.56782 28.2772 4.88355C28.593 5.19927 28.593 5.71279 28.2772 6.02852L25.5879 8.71787C25.4281 8.87383 25.2189 8.95371 25.0135 8.95371ZM7.05534 17.1967H16.5651H26.0748C26.0748 11.9816 21.7802 7.68701 16.5651 7.68701C11.3499 7.68701 7.05534 11.9816 7.05534 17.1967Z" fill="#1D2C3E" fill-opacity="0.5"/>
</svg>
