<svg width="16" height="16" viewBox="0 0 16 16" fill="none" xmlns="http://www.w3.org/2000/svg">
<path d="M12.9528 13.9707H2.97174C1.86938 13.9707 0.975586 13.0772 0.975586 11.9746V9.47928C0.975586 9.20374 1.19916 8.98032 1.47453 8.98032H2.47279C2.74834 8.98032 2.97174 9.20374 2.97174 9.47928V10.9765C2.97174 11.5278 3.41855 11.9746 3.96981 11.9746H11.9547C12.506 11.9746 12.9528 11.5278 12.9528 10.9765V9.47928C12.9528 9.20374 13.1762 8.98032 13.4519 8.98032H14.45C14.7255 8.98032 14.9489 9.20374 14.9489 9.47928V11.9746C14.9489 13.0772 14.0553 13.9707 12.9528 13.9707ZM3.90533 4.17983C4.10722 3.97797 4.43478 3.97797 4.63669 4.17983L6.96436 6.50752V1.4827C6.96436 1.20716 7.18781 0.983521 7.46332 0.983521H8.46137C8.73696 0.983521 8.96052 1.20716 8.96052 1.4827V6.50752L11.2882 4.17983C11.4901 3.97797 11.8175 3.97797 12.0194 4.17983L12.7509 4.91137C12.9528 5.11328 12.9528 5.44066 12.7509 5.64273L8.62912 9.76453C8.61129 9.78231 8.29061 9.97833 7.96793 9.97848C7.64174 9.97864 7.31358 9.78252 7.29573 9.76453L3.17381 5.64273C2.9719 5.44064 2.9719 5.11328 3.17381 4.91137L3.90533 4.17983Z" fill="#67615A"/>
</svg>
