<?xml version="1.0" encoding="UTF-8"?>
<svg width="48px" height="48px" viewBox="0 0 48 48" version="1.1" xmlns="http://www.w3.org/2000/svg" xmlns:xlink="http://www.w3.org/1999/xlink">
    <title>编组</title>
    <g id="新增主控设备绑定" stroke="none" stroke-width="1" fill="none" fill-rule="evenodd">
        <g id="2-关联icon" transform="translate(-215.000000, -1090.000000)">
            <g id="编组-10" transform="translate(32.000000, 524.000000)">
                <g id="编组-8备份-2" transform="translate(0.000000, 364.000000)">
                    <g id="编组" transform="translate(183.000000, 202.000000)">
                        <polygon id="路径" points="0 0 48 0 48 48 0 48"></polygon>
                        <path d="M25.0783123,20.0425808 L26.5178658,21.4821342 C27.8535569,22.8176891 28.6039518,24.6291719 28.6039518,26.518028 C28.6039518,28.4068842 27.8535569,30.218367 26.5178658,31.5539219 L26.1577231,31.9130472 C23.3764757,34.6942945 18.8671828,34.6942945 16.0859355,31.9130471 C13.3046882,29.1317998 13.3046882,24.622507 16.0859354,21.8412596 L17.5254889,23.2808131 C16.2310617,24.5639518 15.7220732,26.4415772 16.1912344,28.2027911 C16.6603957,29.9640051 18.0359949,31.3396043 19.7972089,31.8087656 C21.5584228,32.2779268 23.4360482,31.7689383 24.7191869,30.4745111 L25.0793296,30.1143684 C27.0651094,28.1279888 27.0651094,24.9080673 25.0793296,22.9216877 L23.6397761,21.4821342 L25.0793296,20.0435981 L25.0783123,20.0425808 Z M31.9128849,26.1578853 L30.4743488,24.7193492 C31.7687761,23.4362105 32.2777645,21.5585851 31.8086033,19.7973711 C31.339442,18.0361572 29.9638428,16.660558 28.2026289,16.1913967 C26.4414149,15.7222355 24.5637895,16.2312239 23.2806508,17.5256512 L22.9205081,17.8857939 C20.9347283,19.8721735 20.9347283,23.092095 22.9205081,25.0784746 L24.3600616,26.518028 L22.9205081,27.9565642 L21.481972,26.518028 C20.1462808,25.1824732 19.3958859,23.3709904 19.3958859,21.4821342 C19.3958859,19.5932781 20.1462808,17.7817953 21.481972,16.4462404 L21.8421147,16.0871151 C23.6412662,14.2879635 26.2635868,13.5853148 28.7212735,14.24385 C31.1789603,14.9023852 33.0986322,16.8220571 33.7571673,19.2797438 C34.4157025,21.7374306 33.7130538,24.3597511 31.9139023,26.1589027 L31.9128849,26.1578853 Z" id="形状" stroke="#A1A7B2" stroke-width="0.5" fill="#A1A7B2" fill-rule="nonzero"></path>
                    </g>
                </g>
            </g>
        </g>
    </g>
</svg>