<?xml version="1.0" encoding="utf-8"?>
<svg version="1.1" id="图层_1" xmlns="http://www.w3.org/2000/svg" xmlns:xlink="http://www.w3.org/1999/xlink" x="0px" y="0px"
     viewBox="0 0 120 120" enable-background="new 0 0 120 120" xml:space="preserve">
<path fill="#999999" d="M89.8,8.4L89.8,8.4c2.5,1.4,2.8,5.5,0.8,9.1l-7.4,12.9c-2.1,3.6-5.7,5.3-8.2,3.8l0,0
    c-2.5-1.4-2.8-5.5-0.8-9.1l7.5-12.9C83.6,8.7,87.3,6.9,89.8,8.4z"/>
<path fill="#9A9A9A" d="M111.6,30.2L111.6,30.2c1.4,2.5-0.3,6.2-3.8,8.2l-12.9,7.5c-3.6,2.1-7.6,1.7-9.1-0.8l0,0
    c-1.4-2.5,0.3-6.2,3.8-8.2l12.9-7.5C106.1,27.4,110.2,27.7,111.6,30.2z"/>
<path fill="#9F9F9F" d="M119.6,60L119.6,60c0,2.9-3.3,5.2-7.4,5.2H97.3c-4.1,0-7.4-2.3-7.4-5.2l0,0c0-2.9,3.3-5.2,7.4-5.2h14.9
    C116.3,54.8,119.6,57.1,119.6,60z"/>
<path fill="#A6A6A6" d="M111.6,89.8L111.6,89.8c-1.4,2.5-5.5,2.8-9.1,0.8l-12.9-7.4c-3.6-2.1-5.3-5.7-3.8-8.2l0,0
    c1.4-2.5,5.5-2.8,9.1-0.8l12.9,7.4C111.3,83.6,113.1,87.3,111.6,89.8z"/>
<path fill="#AFAFAF" d="M89.8,111.6L89.8,111.6c-2.5,1.4-6.2-0.3-8.2-3.8l-7.4-12.9c-2.1-3.6-1.7-7.6,0.8-9.1l0,0
    c2.5-1.4,6.2,0.3,8.2,3.8l7.4,12.9C92.7,106.1,92.3,110.2,89.8,111.6z"/>
<path fill="#B6B6B6" d="M60,119.6L60,119.6c-2.9,0-5.2-3.3-5.2-7.4V97.3c0-4.1,2.3-7.4,5.2-7.4l0,0c2.9,0,5.2,3.3,5.2,7.4v14.9
    C65.2,116.3,62.9,119.6,60,119.6z"/>
<path fill="#BEBEBE" d="M30.2,111.6L30.2,111.6c-2.5-1.4-2.8-5.5-0.8-9.1l7.5-12.9c2.1-3.6,5.7-5.3,8.2-3.8l0,0
    c2.5,1.4,2.8,5.5,0.8,9.1l-7.5,12.9C36.4,111.3,32.7,113.1,30.2,111.6z"/>
<path fill="#C5C5C5" d="M8.4,89.8L8.4,89.8c-1.4-2.5,0.3-6.2,3.8-8.2l12.9-7.5c3.6-2.1,7.6-1.7,9.1,0.8l0,0c1.4,2.5-0.3,6.2-3.8,8.2
    l-12.9,7.4C13.9,92.6,9.8,92.3,8.4,89.8z"/>
<path fill="#CCCCCC" d="M0.4,60L0.4,60c0-2.9,3.3-5.2,7.4-5.2h14.9c4.1,0,7.5,2.3,7.5,5.2l0,0c0,2.9-3.3,5.2-7.5,5.2H7.9
    C3.7,65.2,0.4,62.9,0.4,60z"/>
<path fill="#D4D4D4" d="M8.4,30.2L8.4,30.2c1.4-2.5,5.5-2.8,9.1-0.8l12.9,7.4c3.6,2.1,5.3,5.7,3.8,8.2l0,0c-1.4,2.5-5.5,2.8-9.1,0.8
    l-12.9-7.5C8.7,36.4,6.9,32.7,8.4,30.2z"/>
<path fill="#DADADA" d="M30.2,8.4L30.2,8.4c2.5-1.4,6.2,0.3,8.2,3.8l7.5,12.9c2.1,3.6,1.7,7.6-0.8,9.1l0,0c-2.5,1.4-6.2-0.3-8.2-3.8
    l-7.4-12.9C27.4,13.9,27.7,9.8,30.2,8.4z"/>
<path fill="#E2E2E2" d="M60,0.4L60,0.4c2.9,0,5.2,3.3,5.2,7.4v14.9c0,4.1-2.3,7.5-5.2,7.5l0,0c-2.9,0-5.2-3.3-5.2-7.5V7.9
    C54.8,3.7,57.1,0.4,60,0.4z"/>
</svg>
