<?xml version="1.0" encoding="UTF-8"?>
<svg width="750px" height="388px" viewBox="0 0 750 388" version="1.1" xmlns="http://www.w3.org/2000/svg" xmlns:xlink="http://www.w3.org/1999/xlink">
    <title>选购真实设备，体验更多智能功能！</title>
    <defs>
        <rect id="path-1" x="0" y="0" width="750" height="388"></rect>
        <linearGradient x1="203.727651%" y1="-22.8859057%" x2="-41.6938158%" y2="117.669278%" id="linearGradient-3">
            <stop stop-color="#D2E0F9" stop-opacity="0" offset="0%"></stop>
            <stop stop-color="#B1C6E7" stop-opacity="0.464588995" offset="100%"></stop>
        </linearGradient>
        <linearGradient x1="203.727651%" y1="-22.8859057%" x2="-41.6938158%" y2="117.669278%" id="linearGradient-4">
            <stop stop-color="#D2E0F9" stop-opacity="0" offset="0%"></stop>
            <stop stop-color="#B1C6E7" stop-opacity="0.464588995" offset="100%"></stop>
        </linearGradient>
        <linearGradient x1="50%" y1="166.803254%" x2="50%" y2="20.389144%" id="linearGradient-5">
            <stop stop-color="#70B8F9" offset="0%"></stop>
            <stop stop-color="#3D82F0" offset="100%"></stop>
        </linearGradient>
        <linearGradient x1="50%" y1="166.803254%" x2="50%" y2="20.389144%" id="linearGradient-6">
            <stop stop-color="#70B8F9" offset="0%"></stop>
            <stop stop-color="#3D82F0" offset="100%"></stop>
        </linearGradient>
        <linearGradient x1="50%" y1="-2.48949813e-15%" x2="50%" y2="100%" id="linearGradient-7">
            <stop stop-color="#FFFFFF" offset="0%"></stop>
            <stop stop-color="#ECEDF2" offset="82.4086782%"></stop>
            <stop stop-color="#E6E7EB" offset="100%"></stop>
        </linearGradient>
        <linearGradient x1="50%" y1="-2.48949813e-15%" x2="50%" y2="100%" id="linearGradient-8">
            <stop stop-color="#FFFFFF" offset="0%"></stop>
            <stop stop-color="#ECEDF2" offset="82.4086782%"></stop>
            <stop stop-color="#E6E7EB" offset="100%"></stop>
        </linearGradient>
        <linearGradient x1="50%" y1="-2.48949813e-15%" x2="50%" y2="100%" id="linearGradient-9">
            <stop stop-color="#FFFFFF" offset="0%"></stop>
            <stop stop-color="#ECEDF2" offset="82.4086782%"></stop>
            <stop stop-color="#E6E7EB" offset="100%"></stop>
        </linearGradient>
        <linearGradient x1="50%" y1="-2.48949813e-15%" x2="50%" y2="100%" id="linearGradient-10">
            <stop stop-color="#FFFFFF" offset="0%"></stop>
            <stop stop-color="#ECEDF2" offset="82.4086782%"></stop>
            <stop stop-color="#E6E7EB" offset="100%"></stop>
        </linearGradient>
        <linearGradient x1="50%" y1="-2.48949813e-15%" x2="50%" y2="100%" id="linearGradient-11">
            <stop stop-color="#1B1B1B" offset="0%"></stop>
            <stop stop-color="#000000" offset="100%"></stop>
        </linearGradient>
        <linearGradient x1="50%" y1="-2.48949813e-15%" x2="50%" y2="100%" id="linearGradient-12">
            <stop stop-color="#FFFFFF" offset="0%"></stop>
            <stop stop-color="#ECEDF2" offset="82.4086782%"></stop>
            <stop stop-color="#E6E7EB" offset="100%"></stop>
        </linearGradient>
        <linearGradient x1="50%" y1="0%" x2="50%" y2="100%" id="linearGradient-13">
            <stop stop-color="#616A91" offset="0%"></stop>
            <stop stop-color="#373D58" offset="100%"></stop>
        </linearGradient>
        <linearGradient x1="50%" y1="-2.48949813e-15%" x2="50%" y2="100%" id="linearGradient-14">
            <stop stop-color="#FFFFFF" offset="0%"></stop>
            <stop stop-color="#E6E7EB" offset="100%"></stop>
        </linearGradient>
        <linearGradient x1="50%" y1="-2.48949813e-15%" x2="50%" y2="100%" id="linearGradient-15">
            <stop stop-color="#FFFFFF" offset="0%"></stop>
            <stop stop-color="#ECEDF2" offset="82.4086782%"></stop>
            <stop stop-color="#E6E7EB" offset="100%"></stop>
        </linearGradient>
        <linearGradient x1="50%" y1="-2.48949813e-15%" x2="50%" y2="100%" id="linearGradient-16">
            <stop stop-color="#FFFFFF" offset="0%"></stop>
            <stop stop-color="#ECEDF2" offset="82.4086782%"></stop>
            <stop stop-color="#E6E7EB" offset="100%"></stop>
        </linearGradient>
        <linearGradient x1="50%" y1="0%" x2="50%" y2="100%" id="linearGradient-17">
            <stop stop-color="#616A91" offset="0%"></stop>
            <stop stop-color="#373D58" offset="100%"></stop>
        </linearGradient>
        <linearGradient x1="50%" y1="-2.48949813e-15%" x2="50%" y2="100%" id="linearGradient-18">
            <stop stop-color="#FFFFFF" offset="0%"></stop>
            <stop stop-color="#D9DBE2" offset="100%"></stop>
        </linearGradient>
        <rect id="path-19" x="0" y="0.118616949" width="3.55850847" height="3.55850847" rx="1.77925424"></rect>
        <filter x="-112.4%" y="-56.2%" width="324.8%" height="324.8%" filterUnits="objectBoundingBox" id="filter-20">
            <feOffset dx="0" dy="2" in="SourceAlpha" result="shadowOffsetOuter1"></feOffset>
            <feGaussianBlur stdDeviation="1" in="shadowOffsetOuter1" result="shadowBlurOuter1"></feGaussianBlur>
            <feComposite in="shadowBlurOuter1" in2="SourceAlpha" operator="out" result="shadowBlurOuter1"></feComposite>
            <feColorMatrix values="0 0 0 0 0   0 0 0 0 0   0 0 0 0 0  0 0 0 0.06 0" type="matrix" in="shadowBlurOuter1"></feColorMatrix>
        </filter>
        <linearGradient x1="50%" y1="-2.48949813e-15%" x2="50%" y2="100%" id="linearGradient-21">
            <stop stop-color="#FFFFFF" offset="0%"></stop>
            <stop stop-color="#E6E7EB" offset="100%"></stop>
        </linearGradient>
        <linearGradient x1="50%" y1="100%" x2="50%" y2="0.226984797%" id="linearGradient-22">
            <stop stop-color="#C4C8D1" offset="0%"></stop>
            <stop stop-color="#D8DBE4" offset="100%"></stop>
        </linearGradient>
        <rect id="path-23" x="0" y="0" width="3.55850847" height="3.55850847" rx="1.77925424"></rect>
        <filter x="-112.4%" y="-56.2%" width="324.8%" height="324.8%" filterUnits="objectBoundingBox" id="filter-24">
            <feOffset dx="0" dy="2" in="SourceAlpha" result="shadowOffsetOuter1"></feOffset>
            <feGaussianBlur stdDeviation="1" in="shadowOffsetOuter1" result="shadowBlurOuter1"></feGaussianBlur>
            <feComposite in="shadowBlurOuter1" in2="SourceAlpha" operator="out" result="shadowBlurOuter1"></feComposite>
            <feColorMatrix values="0 0 0 0 0   0 0 0 0 0   0 0 0 0 0  0 0 0 0.04 0" type="matrix" in="shadowBlurOuter1"></feColorMatrix>
        </filter>
    </defs>
    <g id="选购真实设备，体验更多智能功能！" stroke="none" stroke-width="1" fill="none" fill-rule="evenodd">
        <mask id="mask-2" fill="white">
            <use xlink:href="#path-1"></use>
        </mask>
        <g id="矩形"></g>
        <path d="M507.669225,111.624498 L508.610797,112.670865 C571.79213,116.768569 622.914971,147.102845 636.705564,195.06102 C656.364084,263.425145 592.717608,341.71365 494.546596,369.92337 C424.562939,390.03323 355.926371,379.26453 315.159768,346.655612 C230.139585,353.769814 157.155104,320.785331 140.188054,261.780785 C119.507872,189.863465 189.877196,106.525085 297.362064,75.638665 C383.350389,50.929813 467.043132,67.276001 507.669225,111.624498 Z" id="Mask" fill="#D4E1F8" opacity="0.102993278" mask="url(#mask-2)"></path>
        <g id="window-reflactions" mask="url(#mask-2)" opacity="0.472712054" stroke-linecap="round" stroke-linejoin="round" stroke-width="3.2">
            <g transform="translate(218.000000, 211.600000)">
                <line x1="0.2" y1="31.4" x2="40.8007259" y2="0.331618442" id="Line" stroke="url(#linearGradient-3)"></line>
                <line x1="0.6" y1="47" x2="32.6237787" y2="22.4948476" id="Line-Copy" stroke="url(#linearGradient-4)"></line>
                <line x1="288.6" y1="82" x2="329.200726" y2="50.9316184" id="Line-Copy-3" stroke="url(#linearGradient-3)"></line>
                <line x1="289" y1="97.6" x2="321.023779" y2="73.0948476" id="Line-Copy-2" stroke="url(#linearGradient-4)"></line>
            </g>
        </g>
        <g id="编组-6" mask="url(#mask-2)">
            <g transform="translate(204.000000, 158.000000)">
                <path d="M198.753622,195.488324 C256.599483,195.488324 303.492756,185.982168 303.492756,174.255772 C303.492756,162.529376 256.599483,153.02322 198.753622,153.02322 C140.907761,153.02322 94.014488,162.529376 94.014488,174.255772 C94.014488,185.982168 140.907761,195.488324 198.753622,195.488324 Z" id="chair-shadow备份" stroke="none" fill="#D9E5FB" fill-rule="evenodd" opacity="0.50090843"></path>
                <rect id="矩形" stroke="#CEDDF7" stroke-width="5" fill="none" x="114.5" y="131.5" width="162" height="37" rx="18.5"></rect>
                <circle id="椭圆形" stroke="none" fill="url(#linearGradient-5)" fill-rule="evenodd" cx="148" cy="168" r="16"></circle>
                <circle id="椭圆形备份" stroke="none" fill="url(#linearGradient-5)" fill-rule="evenodd" cx="245" cy="168" r="16"></circle>
                <polygon id="矩形" stroke="none" fill="#D9E5FB" fill-rule="evenodd" opacity="0.50090843" points="64.4186184 5 295 5 278.333333 102.718487 123.577398 102.718487"></polygon>
                <path d="M53,0 L53,0.002 L117.1,111 L279,111 L279,119 L112,119 L112,119 L48.008,8 L0,8 L0,0 L53,0 Z" id="形状结合" stroke="none" fill="url(#linearGradient-6)" fill-rule="evenodd"></path>
                <line x1="79.5" y1="27.5" x2="289.5" y2="27.5" id="直线" stroke="#CEDDF7" stroke-width="3" fill="none" stroke-linecap="round"></line>
                <line x1="109" y1="7" x2="161" y2="101" id="直线备份-3" stroke="#CEDDF7" stroke-width="3" fill="none" stroke-linecap="round"></line>
                <line x1="146" y1="7" x2="199" y2="101" id="直线备份-4" stroke="#CEDDF7" stroke-width="3" fill="none" stroke-linecap="round"></line>
                <line x1="96" y1="54" x2="285.5" y2="53.5" id="直线备份" stroke="#CEDDF7" stroke-width="3" fill="none" stroke-linecap="round"></line>
                <line x1="112" y1="80" x2="280.5" y2="79.5" id="直线备份-2" stroke="#CEDDF7" stroke-width="3" fill="none" stroke-linecap="round"></line>
            </g>
        </g>
        <path id="line" d="M124.10684,147.615386 C124.484697,148.018179 124.464483,148.651021 124.06169,149.028879 C123.574299,149.486097 123.086625,149.945692 122.598669,150.407667 C122.197614,150.787368 121.564686,150.770058 121.184985,150.369002 C120.805283,149.967947 120.822594,149.335019 121.223649,148.955318 C121.713824,148.491242 122.203723,148.029549 122.693347,147.570236 C123.09614,147.192379 123.728983,147.212593 124.10684,147.615386 Z M131.483729,140.888461 C131.851904,141.300122 131.816651,141.932305 131.404989,142.30048 C130.910465,142.742765 130.415639,143.187514 129.920512,143.634732 C129.510662,144.004924 128.878314,143.972775 128.508122,143.562925 C128.137931,143.153076 128.17008,142.520727 128.579929,142.150536 C129.077483,141.701127 129.574743,141.25419 130.071709,140.809721 C130.483371,140.441546 131.115553,140.476799 131.483729,140.888461 Z M139.043696,134.331993 C139.401165,134.752986 139.349668,135.384053 138.928675,135.741521 C138.421567,136.172111 137.914129,136.605313 137.406361,137.041131 C136.987275,137.400834 136.355943,137.352694 135.996241,136.933609 C135.636538,136.514523 135.684678,135.883191 136.103764,135.523488 C136.614219,135.085363 137.124354,134.649859 137.634168,134.216972 C138.055161,133.859503 138.686228,133.911 139.043696,134.331993 Z M365.571917,119.904866 L365.597726,120.018794 L367.861183,133.599636 L368.153445,135.353225 L366.50306,134.692375 L353.721495,129.574358 C353.208786,129.369058 352.959582,128.786997 353.164882,128.274288 C353.355518,127.798201 353.871014,127.54932 354.354187,127.680569 L354.464952,127.717675 L364.156043,131.598619 C364.164301,131.316295 364.291465,131.039201 364.528773,130.848264 C364.766177,130.657249 365.064215,130.592371 365.341859,130.644854 L363.624938,120.34759 C363.540629,119.841731 363.85193,119.361347 364.333006,119.222606 L364.446934,119.196798 C364.952792,119.112489 365.433177,119.42379 365.571917,119.904866 Z M146.761806,127.994334 C147.10745,128.425087 147.038456,129.054482 146.607703,129.400127 C146.090535,129.815113 145.573008,130.232839 145.055125,130.65331 C144.626363,131.001422 143.996583,130.936042 143.648471,130.507281 C143.300359,130.078519 143.365738,129.448739 143.7945,129.100627 C144.315352,128.677746 144.835856,128.257616 145.356013,127.840232 C145.786766,127.494587 146.416161,127.563581 146.761806,127.994334 Z M359.592737,123.192012 C359.734529,123.349213 359.87535,123.506089 360.028783,123.67867 L360.186924,123.857081 L360.919646,124.767412 C361.265939,125.197645 361.197892,125.827142 360.76766,126.173435 C360.370522,126.493089 359.803596,126.459698 359.446358,126.114279 L359.361637,126.021448 L358.661116,125.149144 C358.478327,124.943884 358.293825,124.738015 358.107612,124.531565 C357.737704,124.121459 357.770292,123.489133 358.180398,123.119226 C358.590504,122.749318 359.222829,122.781906 359.592737,123.192012 Z M154.689887,121.862848 C155.022362,122.303845 154.934389,122.930869 154.493392,123.263345 C153.961997,123.663974 153.430207,124.067521 152.898023,124.473992 C152.459115,124.80922 151.831553,124.725171 151.496325,124.286263 C151.161096,123.847355 151.245145,123.219793 151.684053,122.884565 C152.219549,122.475565 152.754661,122.069497 153.28939,121.666354 C153.730387,121.333878 154.357411,121.421852 154.689887,121.862848 Z M352.579411,115.962403 C353.066322,116.430055 353.547299,116.898548 354.022333,117.367703 C354.415281,117.755788 354.419223,118.388941 354.031138,118.781889 C353.643053,119.174838 353.009901,119.17878 352.616952,118.790695 C352.148508,118.328049 351.674192,117.866043 351.194012,117.404855 C350.795689,117.022288 350.782917,116.389252 351.165485,115.99093 C351.548052,115.592607 352.181088,115.579835 352.579411,115.962403 Z M162.789075,115.999909 C163.106931,116.451558 162.99847,117.075364 162.546822,117.39322 C162.004472,117.774909 161.461691,118.159666 160.91848,118.547498 C160.468998,118.86841 159.84447,118.764184 159.523558,118.314702 C159.202646,117.865221 159.306872,117.240693 159.756353,116.919781 C160.303241,116.529324 160.849712,116.141951 161.395764,115.757657 C161.847413,115.439801 162.471219,115.548261 162.789075,115.999909 Z M171.08249,110.42159 C171.384045,110.884281 171.253418,111.503825 170.790726,111.80538 C170.234526,112.167878 169.67785,112.533636 169.120699,112.902659 C168.660252,113.20763 168.039759,113.081593 167.734787,112.621147 C167.429816,112.1607 167.555853,111.540207 168.016299,111.235235 C168.57756,110.86349 169.138361,110.495022 169.6987,110.129827 C170.161391,109.828272 170.780935,109.958899 171.08249,110.42159 Z M345.075373,109.238631 C345.591817,109.670126 346.103935,110.104098 346.611719,110.540431 C347.030601,110.900371 347.078382,111.531731 346.718442,111.950612 C346.358502,112.369494 345.727142,112.417275 345.308261,112.057335 C344.807452,111.626995 344.302374,111.198989 343.793034,110.77343 C343.369211,110.419322 343.312696,109.788684 343.666804,109.364861 C344.020912,108.941039 344.65155,108.884523 345.075373,109.238631 Z M179.572115,105.163096 C179.85547,105.637152 179.700876,106.251154 179.22682,106.534508 C178.660897,106.872774 178.094455,107.214449 177.527495,107.559541 C177.055729,107.846691 176.440506,107.697031 176.153356,107.225265 C175.866206,106.753498 176.015867,106.138275 176.487633,105.851125 C177.059158,105.503254 177.630182,105.158815 178.200703,104.817801 C178.674759,104.534447 179.288761,104.689041 179.572115,105.163096 Z M337.118616,103.049757 C337.663232,103.443349 338.204362,103.840326 338.742001,104.240605 C339.184993,104.570418 339.276743,105.1969 338.94693,105.639892 C338.617117,106.082884 337.990635,106.174634 337.547643,105.844821 C337.017567,105.450173 336.484062,105.058789 335.947132,104.670753 C335.499507,104.347257 335.39888,103.722139 335.722376,103.274514 C336.045872,102.826888 336.67099,102.726261 337.118616,103.049757 Z M188.289634,100.246223 C188.552577,100.731897 188.372018,101.338771 187.886344,101.601714 C187.303601,101.91721 186.720276,102.236362 186.136371,102.559178 C185.653034,102.826393 185.044591,102.651192 184.777376,102.167856 C184.51016,101.684519 184.685361,101.076076 185.168698,100.808861 C185.757742,100.483204 186.346224,100.161231 186.934143,99.8429324 C187.419817,99.5799893 188.026691,99.7605485 188.289634,100.246223 Z M328.757371,97.4539581 C329.329057,97.8070856 329.897774,98.1642244 330.463521,98.525305 C330.929066,98.8224338 331.065595,99.4407037 330.768467,99.9062496 C330.471338,100.371795 329.853068,100.508324 329.387522,100.211196 C328.830033,99.8553855 328.269633,99.5034698 327.706326,99.1555172 C327.236453,98.865279 327.090831,98.2490875 327.381069,97.7792149 C327.671307,97.3093423 328.287499,97.1637199 328.757371,97.4539581 Z M197.211385,95.728916 C197.451498,96.2262733 197.24296,96.8241109 196.745602,97.0642236 C196.151683,97.3509541 195.557124,97.6415264 194.961926,97.9359502 C194.466895,98.1808242 193.867084,97.9780323 193.62221,97.4830019 C193.377336,96.9879714 193.580128,96.3881603 194.075158,96.1432863 C194.676085,95.8460291 195.276392,95.5526479 195.876077,95.2631334 C196.373435,95.0230207 196.971272,95.2315586 197.211385,95.728916 Z M319.985947,92.4805375 C320.58322,92.7897958 321.177889,93.1035436 321.769948,93.4217222 C322.256433,93.6831635 322.438866,94.2894769 322.177425,94.7759611 C321.915983,95.2624453 321.30967,95.4448787 320.823186,95.1834374 C320.240121,94.870093 319.654506,94.5611213 319.066342,94.2565801 C318.575901,94.0026382 318.384181,93.399197 318.638123,92.9087564 C318.892065,92.4183158 319.495506,92.2265957 319.985947,92.4805375 Z M206.357013,91.6483746 C206.571554,92.1572856 206.332921,92.7437597 205.82401,92.9583012 C205.214598,93.2152109 204.604468,93.4762164 203.993621,93.7413287 C203.486994,93.9612089 202.898043,93.7287545 202.678163,93.2221273 C202.458283,92.7155001 202.690737,92.1265495 203.197364,91.9066693 C203.814635,91.638769 204.431209,91.3750066 205.047086,91.1153714 C205.555997,90.90083 206.142471,91.1394636 206.357013,91.6483746 Z M310.856602,88.1965586 C311.47538,88.4576328 312.091843,88.7235452 312.705988,88.9942449 C313.211358,89.2169993 313.440463,89.8072609 313.217709,90.312631 C312.994954,90.818001 312.404693,91.0471062 311.899322,90.8243517 C311.294857,90.5579184 310.688126,90.296204 310.079132,90.0392579 C309.570285,89.8245656 309.331825,89.2380208 309.546517,88.7291734 C309.76121,88.220326 310.347754,87.9818662 310.856602,88.1965586 Z M215.691622,88.0690565 C215.877689,88.5890542 215.606985,89.1614325 215.086987,89.3474991 C214.464497,89.5702397 213.841206,89.7973106 213.217115,90.0287248 C212.699284,90.2207377 212.123841,89.9566095 211.931828,89.438778 C211.739815,88.9209465 212.003944,88.3455039 212.521775,88.153491 C213.153023,87.9194232 213.783491,87.6897373 214.41318,87.4644208 C214.933178,87.2783541 215.505556,87.5490587 215.691622,88.0690565 Z M301.423851,84.6572322 C302.063345,84.8679486 302.700746,85.0837993 303.336052,85.3047396 C303.857692,85.4861504 304.133503,86.0560859 303.952092,86.5777262 C303.770681,87.0993664 303.200745,87.3751769 302.679105,87.193766 C302.054101,86.9764082 301.427046,86.7640613 300.797945,86.5567693 C300.273402,86.3839299 299.98829,85.8185901 300.161129,85.2940474 C300.333969,84.7695048 300.899309,84.4843929 301.423851,84.6572322 Z M225.211674,85.0410013 C225.366155,85.5712407 225.061544,86.1263169 224.531304,86.2807987 C223.899294,86.4649308 223.266396,86.6535896 222.632612,86.8467898 C222.104328,87.0078299 221.54552,86.7101195 221.38448,86.181835 C221.22344,85.6535505 221.52115,85.0947425 222.049434,84.9337023 C222.691114,84.7380952 223.331929,84.5470765 223.971876,84.360632 C224.502116,84.2061502 225.057192,84.5107619 225.211674,85.0410013 Z M291.726511,81.8997722 C292.380512,82.0567556 293.032629,82.2190458 293.68286,82.3866036 C294.217674,82.5244195 294.539504,83.0696931 294.401688,83.6045064 C294.263872,84.1393196 293.718598,84.4611496 293.183785,84.3233338 C292.544273,84.1585381 291.90291,83.9989245 291.2597,83.8445312 C290.722669,83.7156249 290.391819,83.1757766 290.520726,82.6387462 C290.649632,82.1017159 291.18948,81.7708659 291.726511,81.8997722 Z M234.931157,82.6132831 C235.050735,83.1524673 234.710577,83.6864995 234.171393,83.8060774 C233.526445,83.9491113 232.880498,84.0969292 232.233554,84.2495486 C231.696024,84.3763563 231.157472,84.0434002 231.030665,83.5058704 C230.903857,82.9683406 231.236813,82.4297887 231.774343,82.3029811 C232.429995,82.1483073 233.084669,81.9984922 233.738363,81.8535189 C234.277547,81.7339409 234.811579,82.074099 234.931157,82.6132831 Z M244.768711,80.8569575 C244.850319,81.4031795 244.473675,81.9121366 243.927453,81.9937448 C243.276477,82.0910039 242.624394,82.1932131 241.971207,82.3003921 C241.426211,82.3898186 240.911909,82.0205059 240.822483,81.4755093 C240.733056,80.9305126 241.102369,80.4162111 241.647365,80.3267846 C242.309976,80.2180594 242.971496,80.1143709 243.631923,80.0156998 C244.178145,79.9340915 244.687102,80.3107354 244.768711,80.8569575 Z M281.722972,79.9468361 L281.839264,79.9578784 C282.505152,80.0600803 283.169335,80.1677041 283.83181,80.2807151 C284.37623,80.3735871 284.742282,80.8902144 284.64941,81.4346345 C284.556538,81.9790546 284.039911,82.3451067 283.495491,82.2522346 C282.84396,82.1410906 282.190746,82.0352443 281.535853,81.9347297 C280.98996,81.8509449 280.615348,81.3404906 280.699133,80.7945982 C280.770948,80.3266904 281.156235,79.9846211 281.608621,79.9491986 L281.722972,79.9468361 Z M254.73254,79.8178783 C254.773205,80.368664 254.359671,80.8481295 253.808885,80.8887947 C253.149677,80.9374648 252.489228,80.9912939 251.827538,81.0503049 C251.277436,81.0993642 250.79172,80.6931893 250.742661,80.1430878 C250.693602,79.5929863 251.099777,79.1072706 251.649878,79.0582113 C252.321693,78.9982972 252.992276,78.9436423 253.661624,78.8942236 C254.212409,78.8535584 254.691875,79.2670927 254.73254,79.8178783 Z M271.696443,78.8407927 L271.81325,78.8421882 C272.483948,78.8889254 273.153118,78.9410765 273.820759,78.9986114 C274.371004,79.0460296 274.778626,79.5305316 274.731208,80.0807769 C274.68379,80.6310223 274.199288,81.0386443 273.649043,80.9912261 C272.992284,80.934629 272.334008,80.883327 271.674218,80.8373499 C271.123269,80.7989574 270.707761,80.3212019 270.746153,79.7702532 C270.779061,79.2980115 271.134766,78.9252766 271.582678,78.8525957 L271.696443,78.8407927 Z M262.730326,78.5427236 L263.73708,78.5433908 C264.289359,78.5459585 264.734988,78.9957505 264.73242,79.5480293 C264.729853,80.1003081 264.280061,80.5459369 263.727782,80.5433692 C263.067913,80.5403012 262.406671,80.5424894 261.744057,80.5499598 C261.191807,80.556186 260.739073,80.1135466 260.732847,79.5612969 C260.726621,79.0090473 261.16926,78.5563131 261.72151,78.5500869 L262.730326,78.5427236 Z" fill="#8CA4D4" fill-rule="nonzero" opacity="0.5"></path>
        <path id="line备份" d="M647.082046,115.060494 C647.594661,115.045454 648.028472,115.418933 648.100797,115.914363 L648.110942,116.030737 L648.514714,129.792985 L648.56685,131.569998 L647.021142,130.691772 L635.050259,123.890268 C634.57007,123.617438 634.401971,123.006995 634.674801,122.526805 C634.928143,122.080914 635.47259,121.904123 635.933543,122.099585 L636.038264,122.151346 L645.210399,127.362333 C645.27232,127.114374 645.42871,126.889986 645.664993,126.747798 C645.901598,126.605416 646.173516,126.572416 646.421877,126.634163 L646.111803,116.08939 C646.096763,115.576775 646.470242,115.142964 646.965672,115.070639 L647.082046,115.060494 Z M411.979905,121.604893 C412.392168,121.972396 412.428453,122.60452 412.06095,123.016783 C411.622669,123.508444 411.184201,124.002755 410.745547,124.499718 C410.38007,124.913778 409.748131,124.953161 409.334072,124.587684 C408.920013,124.222207 408.880629,123.590268 409.246106,123.176209 C409.686921,122.676798 410.127558,122.180042 410.568016,121.685938 C410.935519,121.273676 411.567643,121.237391 411.979905,121.604893 Z M641.838607,118.496556 C641.914148,118.611547 641.989354,118.726309 642.069897,118.849889 L642.195424,119.043005 L642.912492,120.234343 C643.197302,120.707526 643.044595,121.322 642.571412,121.60681 C642.132028,121.871276 641.570816,121.758495 641.26485,121.362178 L641.198946,121.265729 L640.501021,120.104936 C640.39044,119.935366 640.279111,119.765272 640.167032,119.594663 C639.863799,119.13307 639.992174,118.513056 640.453766,118.209822 C640.915359,117.906588 641.535373,118.034963 641.838607,118.496556 Z M418.770233,114.220769 C419.172753,114.598917 419.192511,115.231773 418.814363,115.634294 C418.35968,116.118281 417.904788,116.605133 417.449685,117.094853 C417.073721,117.499414 416.440981,117.522597 416.03642,117.146633 C415.631858,116.770669 415.608676,116.137929 415.984639,115.733368 C416.442195,115.241008 416.899552,114.751519 417.356708,114.264898 C417.734856,113.862378 418.367713,113.842621 418.770233,114.220769 Z M636.099804,110.242367 C636.498315,110.785248 636.892029,111.32739 637.280937,111.868626 C637.603213,112.317131 637.500883,112.941972 637.052378,113.264248 C636.603873,113.586523 635.979032,113.484194 635.656756,113.035689 C635.271783,112.499929 634.882047,111.963265 634.487559,111.425864 C634.160745,110.980654 634.256724,110.354806 634.701933,110.027993 C635.147143,109.701179 635.772991,109.797158 636.099804,110.242367 Z M425.731624,107.057323 C426.123188,107.446805 426.124875,108.079968 425.735393,108.471531 C425.266552,108.942877 424.797477,109.417284 424.328168,109.894754 C423.941024,110.28863 423.307883,110.294088 422.914007,109.906945 C422.52013,109.519801 422.514673,108.88666 422.901816,108.492784 C423.373904,108.012485 423.845771,107.535256 424.317416,107.061091 C424.706898,106.669527 425.340061,106.66784 425.731624,107.057323 Z M629.953154,102.298848 C630.377471,102.81928 630.798293,103.340896 631.215613,103.863588 C631.560202,104.295186 631.489667,104.92441 631.058069,105.269 C630.626472,105.613589 629.997248,105.543054 629.652658,105.111456 C629.239585,104.594083 628.823052,104.077782 628.403067,103.562664 C628.054074,103.134619 628.118158,102.504706 628.546202,102.155713 C628.974247,101.80672 629.604161,101.870804 629.953154,102.298848 Z M432.908231,100.106004 C433.287357,100.507603 433.26914,101.140505 432.867541,101.519632 C432.386966,101.973315 431.906132,102.430231 431.42504,102.890382 C431.025927,103.272124 430.392919,103.258042 430.011177,102.858928 C429.629435,102.459815 429.643517,101.826806 430.042631,101.445064 C430.526865,100.981906 431.010856,100.521991 431.494603,100.065314 C431.896201,99.6861875 432.529104,99.704405 432.908231,100.106004 Z M623.397347,94.6734241 C623.847933,95.170205 624.295685,95.6692692 624.740598,96.1705338 C625.107215,96.5835844 625.069572,97.2156294 624.656522,97.5822459 C624.243471,97.9488624 623.611426,97.91122 623.24481,97.4981694 C622.804643,97.002253 622.361682,96.5085295 621.915934,96.0170817 C621.544893,95.6080008 621.575731,94.9755872 621.984812,94.6045464 C622.393892,94.2335056 623.026306,94.2643432 623.397347,94.6734241 Z M440.32798,93.3849904 C440.692891,93.7995478 440.652646,94.4314325 440.238088,94.7963442 C439.741668,95.2333152 439.244957,95.6737534 438.747957,96.1176646 C438.336053,96.4855692 437.703894,96.4499009 437.335989,96.0379972 C436.968085,95.6260935 437.003753,94.993934 437.415657,94.6260294 C437.916253,94.1789062 438.416576,93.7352647 438.916626,93.2950989 C439.331183,92.9301872 439.963068,92.970433 440.32798,93.3849904 Z M616.427476,87.4047895 C616.905016,87.8752748 617.38012,88.3488371 617.852785,88.8254075 C618.241699,89.2175355 618.239093,89.8506951 617.846965,90.2396091 C617.454837,90.6285231 616.821678,90.6259177 616.432764,90.2337898 C615.965507,89.7626716 615.495859,89.2945481 615.023825,88.8294877 C614.630406,88.4418803 614.625694,87.8087329 615.013302,87.4153133 C615.400909,87.0218938 616.034056,87.0171821 616.427476,87.4047895 Z M447.994159,86.9417593 C448.342771,87.3701143 448.278127,87.9999707 447.849772,88.3485828 C447.334289,88.768103 446.818476,89.191384 446.302332,89.6184328 C445.876813,89.9705006 445.246454,89.9109564 444.894386,89.4854371 C444.542318,89.0599178 444.601862,88.4295589 445.027382,88.0774911 C445.547677,87.6470074 446.067661,87.2203033 446.587336,86.7973719 C447.015691,86.4487598 447.645547,86.5134042 447.994159,86.9417593 Z M455.888936,80.8428382 C456.218857,81.2857499 456.12726,81.9122543 455.684348,82.2421751 C455.153643,82.6374922 454.622568,83.0368208 454.091122,83.440169 C453.651194,83.7740582 453.023891,83.688097 452.690002,83.2481692 C452.356113,82.8082415 452.442074,82.1809389 452.882002,81.8470497 C453.418215,81.4400834 453.954081,81.0371528 454.489599,80.6382502 C454.932511,80.3083294 455.559015,80.3999266 455.888936,80.8428382 Z M609.039889,80.5504546 C609.544704,80.9906577 610.04735,81.4345917 610.547824,81.8821967 C610.959486,82.2503718 610.994739,82.8825547 610.626564,83.2942165 C610.258388,83.7058784 609.626206,83.7411314 609.214544,83.3729563 C608.720291,82.9309153 608.223921,82.4925237 607.725436,82.0578409 C607.309183,81.6948647 607.265993,81.0631745 607.628969,80.6469213 C607.991945,80.230668 608.623636,80.1874785 609.039889,80.5504546 Z M464.07147,75.1011691 C464.379756,75.5594029 464.258199,76.1807899 463.799965,76.4890759 C463.252319,76.8575157 462.704254,77.2302567 462.155769,77.6073081 C461.700651,77.9201754 461.078076,77.8048584 460.765209,77.3497403 C460.452341,76.8946222 460.567658,76.272047 461.022776,75.9591796 C461.576764,75.5783452 462.13036,75.2018432 462.683563,74.8296646 C463.141797,74.5213786 463.763184,74.6429353 464.07147,75.1011691 Z M601.251008,74.193664 C601.784122,74.5996732 602.315252,75.0100093 602.844395,75.4246175 C603.279124,75.7652479 603.355406,76.3938009 603.014776,76.82853 C602.674145,77.2632591 602.045592,77.3395411 601.610863,76.9989107 C601.088917,76.5899415 600.565043,76.1852119 600.039248,75.7847757 C599.599874,75.4501573 599.514954,74.822713 599.849572,74.3833396 C600.18419,73.9439662 600.811635,73.8590455 601.251008,74.193664 Z M472.554155,69.7778661 C472.837335,70.2520257 472.682516,70.8659711 472.208356,71.1491514 C471.643139,71.4867137 471.077445,71.8288915 470.511275,72.1756956 C470.040321,72.4641757 469.424678,72.3162515 469.136198,71.8452975 C468.847718,71.3743435 468.995642,70.7587005 469.466596,70.4702204 C470.039132,70.1195165 470.611224,69.7734691 471.182869,69.4320676 C471.657029,69.1488872 472.270974,69.3037065 472.554155,69.7778661 Z M593.021233,68.3798702 C593.582277,68.745903 594.141484,69.1168137 594.698849,69.4925514 C595.156794,69.8012666 595.277768,70.4227673 594.969053,70.880712 C594.660338,71.3386568 594.038837,71.4596312 593.580892,71.150916 C593.031841,70.7807831 592.481015,70.4154306 591.928416,70.054908 C591.465867,69.753135 591.335532,69.1335297 591.637305,68.6709808 C591.939078,68.2084319 592.558684,68.0780972 593.021233,68.3798702 Z M481.340023,64.946912 C481.594071,65.4372975 481.402482,66.0407803 480.912097,66.2948286 C480.324491,66.5992427 479.736333,66.9086848 479.147625,67.223168 C478.660489,67.4833924 478.054634,67.299444 477.794409,66.8123077 C477.534185,66.3251714 477.718133,65.719316 478.20527,65.4590916 C478.801397,65.1406448 479.39701,64.8272804 479.992106,64.5189857 C480.482492,64.2649374 481.085974,64.4565265 481.340023,64.946912 Z M584.358315,63.2020306 C584.947616,63.5225931 585.535194,63.8485687 586.121047,64.1799096 C586.601773,64.4517939 586.771072,65.061905 586.499188,65.5426309 C586.227303,66.0233567 585.617192,66.1926562 585.136466,65.9207718 C584.560173,65.5948373 583.982223,65.2742033 583.402621,64.9589164 C582.91747,64.6950086 582.738117,64.0877768 583.002025,63.6026262 C583.265933,63.1174756 583.873165,62.9381228 584.358315,63.2020306 Z M490.37899,60.710846 C490.599514,61.2171932 490.367809,61.806439 489.861462,62.0269633 C489.258549,62.2895437 488.655013,62.5574621 488.050855,62.8307339 C487.547652,63.0583416 486.955213,62.8349275 486.727605,62.3317245 C486.499997,61.8285216 486.723411,61.2360826 487.226614,61.0084749 C487.839286,60.7313527 488.451372,60.4596386 489.062872,60.193318 C489.56922,59.9727937 490.158465,60.2044988 490.37899,60.710846 Z M575.309153,58.7705008 C575.925396,59.039381 576.540019,59.3141739 577.153019,59.5948341 C577.655174,59.8247444 577.875872,60.4182007 577.645961,60.9203557 C577.416051,61.4225108 576.822595,61.6432088 576.32044,61.4132985 C575.718289,61.1376053 575.114584,60.8676938 574.509329,60.6036079 C574.00313,60.3827426 573.771822,59.7933409 573.992687,59.2871424 C574.213553,58.7809439 574.802954,58.5496356 575.309153,58.7705008 Z M499.698576,57.1339083 C499.880616,57.6553294 499.605493,58.2255971 499.084072,58.4076368 C498.463929,58.6241424 497.843075,58.8463462 497.22151,59.0742664 C496.702986,59.2644025 496.128504,58.9981919 495.938368,58.4796683 C495.748232,57.9611448 496.014442,57.3866626 496.532966,57.1965264 C497.164266,56.9650365 497.794894,56.7393348 498.424848,56.5194038 C498.946269,56.3373641 499.516537,56.6124872 499.698576,57.1339083 Z M565.890359,55.168869 C566.529824,55.3793882 567.167776,55.5962409 567.804209,55.8193841 C568.325388,56.002117 568.599752,56.5727501 568.417019,57.0939287 C568.234286,57.6151072 567.663653,57.8894716 567.142475,57.7067387 C566.518088,57.4878193 565.892247,57.2750832 565.264955,57.0685718 C564.740367,56.8958714 564.455105,56.3306071 564.627806,55.8060187 C564.800506,55.2814303 565.36577,54.9961686 565.890359,55.168869 Z M509.303161,54.3011188 C509.441397,54.8358237 509.119995,55.3813498 508.58529,55.5195854 C507.948234,55.6842814 507.310365,55.855048 506.671683,56.0319067 C506.139428,56.1792944 505.588469,55.8672979 505.441081,55.3350429 C505.293693,54.802788 505.60569,54.2518288 506.137945,54.1044411 C506.787639,53.9245329 507.436556,53.7508086 508.084695,53.5832475 C508.6194,53.4450119 509.164926,53.7664139 509.303161,54.3011188 Z M556.157082,52.4853834 C556.814447,52.6318836 557.470413,52.7850254 558.124977,52.9447687 C558.661515,53.0757084 558.990318,53.6168061 558.859378,54.1533443 C558.728438,54.6898825 558.187341,55.0186851 557.650803,54.8877454 C557.009231,54.7311727 556.366308,54.581076 555.722035,54.4374937 C555.182975,54.3173589 554.843369,53.7829757 554.963503,53.2439153 C555.083638,52.704855 555.618021,52.3652487 556.157082,52.4853834 Z M519.116422,52.3181173 C519.20586,52.863112 518.836558,53.3774215 518.291564,53.4668597 C517.639806,53.5738185 516.987122,53.6871947 516.333513,53.8070135 C515.79028,53.906598 515.269174,53.5469505 515.16959,53.0037182 C515.070005,52.4604858 515.429653,51.9393798 515.972885,51.8397952 C516.638716,51.717736 517.303648,51.6022322 517.967679,51.4932592 C518.512674,51.403821 519.026984,51.7731226 519.116422,52.3181173 Z M546.066209,50.7831153 L546.182817,50.7900616 C546.852042,50.8688041 547.519991,50.9543675 548.186661,51.0467152 C548.733722,51.1224946 549.115771,51.6274066 549.039992,52.1744678 C548.964213,52.721529 548.459301,53.1035783 547.912239,53.0277989 C547.259108,52.9373266 546.604729,52.8535015 545.949105,52.7763593 C545.400604,52.7118214 545.008274,52.2148553 545.072812,51.6663543 C545.128131,51.1962106 545.501151,50.8408051 545.952011,50.7894973 L546.066209,50.7831153 Z M529.0665,51.267714 C529.10297,51.8187933 528.685797,52.2950961 528.134718,52.3315661 C527.476005,52.3751592 526.816256,52.4253751 526.155473,52.4822425 C525.605222,52.5295975 525.120767,52.1219199 525.073412,51.571669 C525.026057,51.0214182 525.433735,50.536963 525.983986,50.4896081 C526.657897,50.4316108 527.330786,50.3803948 528.002648,50.3359315 C528.553728,50.2994615 529.03003,50.7166348 529.0665,51.267714 Z M536.095825,50.1258361 C536.768928,50.1356216 537.440888,50.1522399 538.111701,50.1756587 C538.663649,50.1949277 539.095471,50.6579911 539.076202,51.2099396 C539.056933,51.7618881 538.59387,52.1937101 538.041921,52.174441 C537.384668,52.1514956 536.726277,52.1352129 536.066752,52.1256248 C535.514526,52.1175966 535.073366,51.6634205 535.081394,51.1111941 C535.089423,50.5589677 535.543599,50.1178079 536.095825,50.1258361 Z" fill="#8CA4D4" fill-rule="nonzero" opacity="0.5"></path>
        <path id="line备份-2" d="M451.892644,245.673232 C452.178481,246.256159 452.482943,246.818481 452.805736,247.359217 C453.08882,247.833435 452.933875,248.447348 452.459658,248.730432 C451.985441,249.013516 451.371527,248.858572 451.088443,248.384354 C450.737257,247.796052 450.406673,247.185486 450.096911,246.553768 C449.853758,246.057889 450.058632,245.458786 450.55451,245.215633 C451.050388,244.97248 451.649491,245.177354 451.892644,245.673232 Z M449.157737,236.373748 C449.249311,237.02353 449.356509,237.663542 449.479235,238.292688 C449.584974,238.834756 449.231261,239.359908 448.689193,239.465648 C448.147125,239.571388 447.621973,239.217674 447.516233,238.675606 C447.386739,238.011764 447.273745,237.33714 447.177307,236.652852 C447.100235,236.105971 447.48109,235.600158 448.02797,235.523085 C448.574851,235.446013 449.080665,235.826868 449.157737,236.373748 Z M447.889051,225.516704 L448.00583,225.519588 C448.556245,225.564995 448.965634,226.048005 448.920227,226.59842 C448.866231,227.252932 448.825635,227.905673 448.79853,228.555548 C448.775514,229.107353 448.30953,229.536022 447.757725,229.513007 C447.20592,229.489992 446.777252,229.024008 446.800267,228.472203 C446.828505,227.795189 446.870782,227.115413 446.926998,226.433984 C446.965919,225.9622 447.326343,225.594026 447.775144,225.527057 L447.889051,225.516704 Z M484.564008,220.071769 C485.115625,220.279671 485.682202,220.412482 486.259416,220.471468 C486.80884,220.527613 487.20872,221.018524 487.152574,221.567948 C487.096428,222.117371 486.605517,222.517252 486.056094,222.461106 C485.307724,222.384629 484.572371,222.212256 483.858651,221.943258 C483.341854,221.748479 483.080806,221.171632 483.275585,220.654835 C483.470364,220.138037 484.04721,219.87699 484.564008,220.071769 Z M495.535532,216.586632 C495.960795,216.93901 496.019881,217.569412 495.667503,217.994675 C495.204924,218.552933 494.704103,219.071594 494.171894,219.543548 C493.758679,219.90998 493.126651,219.872056 492.760219,219.458842 C492.393787,219.045627 492.431712,218.413599 492.844926,218.047167 C493.300218,217.643421 493.729876,217.198459 494.127489,216.718604 C494.479867,216.293341 495.110269,216.234255 495.535532,216.586632 Z M449.977929,215.751118 C450.50923,215.90191 450.817693,216.454855 450.666901,216.986155 C450.488826,217.613586 450.322619,218.245963 450.168526,218.882256 C450.038535,219.419025 449.49802,219.748784 448.961251,219.618793 C448.424482,219.488802 448.094723,218.948286 448.224714,218.411517 C448.38491,217.750025 448.557718,217.092534 448.742892,216.44009 C448.893684,215.908789 449.446629,215.600326 449.977929,215.751118 Z M478.623678,213.202326 C478.872144,213.817356 479.137022,214.394292 479.417466,214.933118 C479.672447,215.42302 479.482005,216.026866 478.992104,216.281846 C478.502202,216.536826 477.898356,216.346385 477.643376,215.856483 C477.332914,215.259983 477.041353,214.624928 476.769287,213.951482 C476.562413,213.439406 476.809829,212.856582 477.321904,212.649709 C477.83398,212.442835 478.416804,212.69025 478.623678,213.202326 Z M498.936622,207.905865 C498.995193,208.626089 498.99437,209.348243 498.935637,210.067394 C498.890681,210.617846 498.408008,211.027632 497.857556,210.982676 C497.307104,210.93772 496.897318,210.455047 496.942274,209.904595 C496.992229,209.29293 496.992928,208.679423 496.943203,208.067977 C496.898437,207.517509 497.308389,207.034978 497.858857,206.990212 C498.409324,206.945446 498.891856,207.355398 498.936622,207.905865 Z M453.894757,206.514238 C454.382096,206.774084 454.566515,207.379796 454.306669,207.867135 C454.002701,208.437224 453.709562,209.019245 453.427629,209.612275 C453.1905,210.111062 452.593922,210.323178 452.095136,210.086049 C451.596349,209.84892 451.384233,209.252343 451.621362,208.753556 C451.916411,208.132937 452.223365,207.523486 452.541861,206.92615 C452.801707,206.438812 453.407419,206.254393 453.894757,206.514238 Z M477.554445,202.850289 C478.094525,202.965753 478.438745,203.497176 478.323281,204.037256 C478.180002,204.707437 478.059919,205.345862 477.963443,205.950169 C477.876375,206.495547 477.363676,206.867081 476.818298,206.780013 C476.272919,206.692945 475.901385,206.180246 475.988453,205.634868 C476.090588,204.995113 476.217099,204.322516 476.367478,203.619124 C476.482942,203.079044 477.014365,202.734825 477.554445,202.850289 Z M459.934037,198.571277 C460.33022,198.956059 460.339462,199.589157 459.95468,199.98534 C459.510723,200.442451 459.076651,200.91979 458.652941,201.416594 C458.294554,201.836805 457.663376,201.886923 457.243164,201.528537 C456.822953,201.17015 456.772835,200.538971 457.131222,200.11876 C457.582678,199.589425 458.045745,199.0802 458.519974,198.59192 C458.904757,198.195737 459.537854,198.186495 459.934037,198.571277 Z M494.199767,198.501295 C494.721594,199.003113 495.201308,199.520576 495.638818,200.052562 C495.989625,200.479122 495.928214,201.109302 495.501654,201.460108 C495.075095,201.810915 494.444915,201.749505 494.094108,201.322945 C493.706439,200.851561 493.279657,200.391196 492.813462,199.942876 C492.41538,199.560059 492.403006,198.927015 492.785824,198.528933 C493.168642,198.130851 493.801686,198.118477 494.199767,198.501295 Z M480.542696,193.305812 C481.061757,193.494476 481.329597,194.0682 481.140932,194.587261 C480.911257,195.219155 480.691832,195.841431 480.482986,196.45309 C480.304529,196.975748 479.736163,197.254778 479.213505,197.076321 C478.690847,196.897864 478.411817,196.329498 478.590274,195.806839 C478.80338,195.182704 479.027147,194.548111 479.261246,193.904048 C479.449911,193.384987 480.023635,193.117148 480.542696,193.305812 Z M485.397641,193.082379 C486.049691,193.345157 486.678811,193.618995 487.285025,193.903658 C487.784937,194.138404 487.999897,194.733963 487.76515,195.233876 C487.530404,195.733788 486.934845,195.948748 486.434933,195.714001 C485.862782,195.445334 485.267842,195.186373 484.65006,194.937405 C484.137809,194.730966 483.889899,194.148353 484.096337,193.636102 C484.302776,193.12385 484.88539,192.87594 485.397641,193.082379 Z M468.304635,193.227854 C468.516895,193.737721 468.275638,194.32312 467.765771,194.535381 C467.18193,194.778437 466.606592,195.049935 466.040167,195.349357 C465.551904,195.607461 464.946854,195.42088 464.68875,194.932617 C464.430646,194.444354 464.617226,193.839304 465.105489,193.5812 C465.725718,193.253337 466.356431,192.955708 466.997108,192.68899 C467.506975,192.47673 468.092375,192.717988 468.304635,193.227854 Z M475.272077,191.014571 C475.961987,191.010611 476.65819,191.038138 477.360308,191.097433 C477.910634,191.143909 478.319084,191.627713 478.272608,192.178039 C478.226132,192.728364 477.742328,193.136815 477.192003,193.090339 C476.549504,193.036078 475.913288,193.010924 475.283556,193.014538 C474.73128,193.017708 474.281003,192.57257 474.277833,192.020295 C474.274663,191.468019 474.719801,191.017741 475.272077,191.014571 Z M484.411229,184.073066 C484.914323,184.300915 485.137453,184.893461 484.909604,185.396555 C484.634397,186.004216 484.365437,186.608804 484.102967,187.209717 C483.881904,187.715829 483.292412,187.946907 482.7863,187.725844 C482.280187,187.504781 482.049109,186.915289 482.270172,186.409177 C482.536242,185.800024 482.808845,185.187245 483.08774,184.57144 C483.315589,184.068347 483.908135,183.845217 484.411229,184.073066 Z M488.881984,175.109717 C489.370155,175.367994 489.556522,175.97311 489.298245,176.461281 C488.987543,177.048542 488.681121,177.636044 488.379162,178.22338 C488.126642,178.714554 487.523759,178.908021 487.032585,178.655501 C486.541411,178.40298 486.347944,177.800097 486.600464,177.308923 C486.906006,176.714618 487.216052,176.120167 487.530419,175.525978 C487.788696,175.037807 488.393812,174.85144 488.881984,175.109717 Z M493.851076,166.46098 C494.323406,166.747202 494.474277,167.362129 494.188055,167.834459 C493.844802,168.400905 493.504644,168.969795 493.167727,169.540833 C492.887082,170.016498 492.273972,170.174592 491.798307,169.893946 C491.322643,169.613301 491.164549,169.00019 491.445195,168.524526 C491.786089,167.946747 492.130271,167.371126 492.477597,166.797959 C492.763819,166.325629 493.378746,166.174759 493.851076,166.46098 Z M499.349386,158.094509 C499.803108,158.409398 499.915654,159.03248 499.600765,159.486202 C499.224334,160.0286 498.85018,160.575266 498.478422,161.125972 C498.169416,161.583721 497.547839,161.7043 497.09009,161.395294 C496.632342,161.086288 496.511762,160.46471 496.820769,160.006962 C497.197325,159.449148 497.576339,158.89538 497.957694,158.345888 C498.272582,157.892167 498.895665,157.77962 499.349386,158.094509 Z M505.398248,150.110296 C505.82843,150.45665 505.896387,151.086158 505.550033,151.51634 C505.137361,152.028892 504.726333,152.547526 504.317051,153.072051 C503.9773,153.507468 503.348903,153.585021 502.913486,153.24527 C502.478069,152.90552 502.400516,152.277122 502.740267,151.841705 C503.155777,151.309197 503.573123,150.782592 503.992203,150.262081 C504.338557,149.831898 504.968065,149.763941 505.398248,150.110296 Z M626.120085,138.970887 L626.179785,139.071294 L632.523035,151.291183 L633.34209,152.869043 L631.568327,152.749644 L617.831245,151.824942 C617.280207,151.787849 616.863572,151.311075 616.900665,150.760038 C616.935108,150.24836 617.348664,149.85257 617.84876,149.828338 L617.965569,149.829458 L627.895,150.498 L627.707733,150.375991 C627.245647,150.073509 627.116262,149.453705 627.418743,148.991619 C627.699619,148.562539 628.254105,148.420329 628.701856,148.644386 L628.803115,148.70263 L628.987,148.823 L624.404693,139.992731 C624.16842,139.537566 624.316316,138.98457 624.731113,138.704167 L624.83152,138.644467 C625.286686,138.408194 625.839682,138.55609 626.120085,138.970887 Z M620.345305,143.272809 C620.929077,143.616385 621.504983,143.95972 622.072813,144.302497 C622.545628,144.587916 622.697542,145.202587 622.412122,145.675402 C622.126703,146.148217 621.512032,146.300131 621.039217,146.014711 C620.477715,145.675755 619.908195,145.336227 619.330868,144.996443 C618.854899,144.716314 618.69614,144.103376 618.976269,143.627407 C619.256398,143.151439 619.869337,142.99268 620.345305,143.272809 Z M512.048475,142.65784 C512.446771,143.040435 512.459499,143.673472 512.076904,144.071768 C511.623004,144.544295 511.170184,145.024992 510.718541,145.513687 C510.343695,145.919284 509.711021,145.944213 509.305424,145.569367 C508.899827,145.194521 508.874898,144.561847 509.249744,144.15625 C509.710061,143.65817 510.171692,143.168119 510.634547,142.686269 C511.017142,142.287973 511.650179,142.275245 512.048475,142.65784 Z M611.548781,138.414777 C612.145791,138.723434 612.739538,139.03461 613.329914,139.348144 C613.817681,139.607184 614.0031,140.212591 613.744059,140.700358 C613.485019,141.188125 612.879612,141.373544 612.391845,141.114504 C611.807936,140.804405 611.220708,140.496644 610.630268,140.191384 C610.139671,139.937744 609.94758,139.33442 610.201221,138.843824 C610.454861,138.353227 611.058184,138.161136 611.548781,138.414777 Z M519.448892,135.911561 C519.800447,136.337504 519.740144,136.96779 519.314201,137.319346 C518.811731,137.734063 518.309747,138.159645 517.808343,138.595925 C517.3917,138.958453 516.760056,138.914584 516.397528,138.497941 C516.035,138.081297 516.078869,137.449654 516.495512,137.087126 C517.009926,136.639526 517.525152,136.202718 518.041107,135.77687 C518.467049,135.425315 519.097336,135.485618 519.448892,135.911561 Z M602.499929,134.057122 C603.112128,134.330242 603.722929,134.607163 604.332258,134.887768 C604.833905,135.118785 605.053295,135.712726 604.822278,136.214373 C604.591262,136.71602 603.997321,136.93541 603.495674,136.704393 C602.893537,136.4271 602.28998,136.153464 601.685082,135.883601 C601.180714,135.658587 600.954252,135.067306 601.179266,134.562938 C601.40428,134.05857 601.995561,133.832108 602.499929,134.057122 Z M593.188537,130.248281 C593.816637,130.481565 594.444465,130.719618 595.071959,130.962345 C595.58705,131.161592 595.843093,131.740678 595.643845,132.255769 C595.444598,132.77086 594.865513,133.026902 594.350421,132.827655 C593.731263,132.588153 593.111832,132.353284 592.492189,132.123141 C591.974461,131.93085 591.710642,131.355265 591.902933,130.837537 C592.095224,130.319809 592.670809,130.05599 593.188537,130.248281 Z M527.707782,130.287667 C527.986095,130.7647 527.825001,131.377029 527.347968,131.655342 C526.789528,131.98115 526.230836,132.321459 525.671992,132.676102 C525.205679,132.972025 524.587764,132.833897 524.291842,132.367583 C523.995919,131.90127 524.134047,131.283355 524.600361,130.987433 C525.180058,130.619556 525.760002,130.266302 526.340107,129.927853 C526.81714,129.64954 527.429469,129.810634 527.707782,130.287667 Z M583.602375,127.074907 C584.245788,127.261249 584.889782,127.453275 585.534304,127.650902 C586.062324,127.812807 586.359119,128.372102 586.197214,128.900122 C586.035309,129.428142 585.476015,129.724937 584.947995,129.563033 C584.313384,129.368444 583.67937,129.179394 583.046008,128.995963 C582.515523,128.842326 582.210027,128.287736 582.363663,127.757251 C582.5173,127.226766 583.07189,126.92127 583.602375,127.074907 Z M536.932993,126.441116 C537.096841,126.968537 536.802106,127.52892 536.274686,127.692768 C536.003618,127.776977 535.733809,127.862932 535.461254,127.951924 C535.112306,128.065904 534.762993,128.185995 534.413334,128.312164 C533.893835,128.499617 533.320736,128.230441 533.133283,127.710942 C532.945829,127.191443 533.215005,126.618344 533.734505,126.43089 C534.103261,126.29783 534.471854,126.171111 534.840377,126.050737 C535.122156,125.958734 535.401105,125.869867 535.681342,125.782809 C536.208762,125.618962 536.769146,125.913696 536.932993,126.441116 Z M573.789287,124.67487 C574.446296,124.804926 575.104638,124.941625 575.764262,125.084888 C576.303964,125.202105 576.646456,125.734643 576.529239,126.274346 C576.412021,126.814048 575.879483,127.15654 575.33978,127.039323 C574.692116,126.898657 574.045812,126.764458 573.40092,126.636801 C572.859148,126.529556 572.506894,126.003424 572.614138,125.461652 C572.721383,124.91988 573.247515,124.567625 573.789287,124.67487 Z M546.721834,124.408835 C546.800357,124.955509 546.420845,125.462332 545.874171,125.540855 C545.22167,125.634578 544.57268,125.737793 543.927247,125.850571 C543.383205,125.945633 542.865109,125.581663 542.770047,125.037621 C542.674985,124.493579 543.038956,123.975483 543.582998,123.880421 C544.248415,123.764151 544.917371,123.65776 545.589814,123.561172 C546.136488,123.48265 546.643311,123.862161 546.721834,124.408835 Z M563.707162,123.208015 L563.823904,123.212157 C564.492605,123.274583 565.163372,123.344722 565.836157,123.422496 C566.384788,123.485917 566.778128,123.982084 566.714707,124.530715 C566.651286,125.079346 566.155119,125.472686 565.606488,125.409265 C564.94821,125.333169 564.292031,125.264555 563.638002,125.203498 C563.088108,125.152163 562.683947,124.66477 562.735282,124.114876 C562.779284,123.643539 563.143654,123.27927 563.593151,123.21714 L563.707162,123.208015 Z M555.701601,122.838871 C556.253882,122.836974 556.703133,123.283149 556.705029,123.83543 C556.706926,124.387712 556.260751,124.836962 555.70847,124.838859 C555.047866,124.841128 554.390087,124.851908 553.735183,124.871271 C553.183139,124.887594 552.722388,124.453306 552.706066,123.901262 C552.689744,123.349219 553.124032,122.888467 553.676075,122.872145 C554.348461,122.852265 555.023653,122.841199 555.701601,122.838871 Z" fill="#8CA4D4" fill-rule="nonzero" opacity="0.5"></path>
        <g id="编组-5" mask="url(#mask-2)">
            <g transform="translate(608.000000, 86.000000)">
                <path d="M32,0.503936 C49.120832,0.503936 63,14.492416 63,31.748032 C63,49.003648 49.120832,62.992128 32,62.992128 C14.879168,62.992128 1,49.003648 1,31.748032 C1,14.492416 14.879168,0.503936 32,0.503936 Z" id="Ellipse-4" fill="url(#linearGradient-5)"></path>
                <g id="图标" stroke-width="1" fill="none" transform="translate(16.640000, 16.640000)">
                    <rect id="矩形" fill="url(#linearGradient-7)" x="0" y="0" width="30.4128" height="30.4128" rx="2.376"></rect>
                    <g id="编组-3" opacity="0.799077943" transform="translate(8.524800, 9.561600)">
                        <path d="M2.73681997,0.191409231 C2.96345043,0.191409231 3.14717072,0.375129519 3.14717072,0.60175998 L3.14717072,3.64349527 C3.14717072,3.87012574 2.96345043,4.05384602 2.73681997,4.05384602 L2.59410186,4.05384602 C2.3674714,4.05384602 2.18375111,3.87012574 2.18375111,3.64349527 L2.18375111,3.54729694 L1.41301543,3.54729694 C0.629724948,3.53011784 0,2.89887163 0,2.12262763 C0,1.33580449 0.647006477,0.697958318 1.44512941,0.697958318 L2.18375111,0.697958318 L2.18375111,0.60175998 C2.18375111,0.375129519 2.3674714,0.191409231 2.59410186,0.191409231 L2.73681997,0.191409231 Z" id="形状结合" fill="#3C5D94"></path>
                        <path d="M13.0197492,0.191409231 C13.2463797,0.191409231 13.4301,0.375129519 13.4301,0.60175998 L13.4301,3.64349527 C13.4301,3.87012574 13.2463797,4.05384602 13.0197492,4.05384602 L12.8770311,4.05384602 C12.6504006,4.05384602 12.4666803,3.87012574 12.4666803,3.64349527 L12.4666803,3.54729694 L11.6959447,3.54729694 C10.9126542,3.53011784 10.2829292,2.89887163 10.2829292,2.12262763 C10.2829292,1.33580449 10.9299357,0.697958318 11.7280586,0.697958318 L12.4666803,0.697958318 L12.4666803,0.60175998 C12.4666803,0.375129519 12.6504006,0.191409231 12.8770311,0.191409231 L13.0197492,0.191409231 Z" id="形状结合备份" fill="#3C5D94" transform="translate(11.856515, 2.122628) scale(-1, 1) translate(-11.856515, -2.122628) "></path>
                        <rect id="矩形" fill="#3C5D94" x="6.27396923" y="0" width="1.152" height="4.1472" rx="0.456923077"></rect>
                        <line x1="1.67611802" y1="8.39581331" x2="3.62305676" y2="11.3299869" id="路径-4" stroke="#3C5D94" stroke-width="0.99" stroke-linecap="round"></line>
                        <line x1="9.89585723" y1="8.3242867" x2="11.9143226" y2="11.3299869" id="路径-4备份" stroke="#3C5D94" stroke-width="0.99" stroke-linecap="round" transform="translate(10.905090, 9.827137) scale(-1, 1) translate(-10.905090, -9.827137) "></line>
                    </g>
                </g>
            </g>
        </g>
        <g id="编组-5备份-2" mask="url(#mask-2)">
            <g transform="translate(244.000000, 44.000000)">
                <path d="M27.5,0.43307 C42.213215,0.43307 54.140625,12.45442 54.140625,27.283465 C54.140625,42.11251 42.213215,54.13386 27.5,54.13386 C12.786785,54.13386 0.859375,42.11251 0.859375,27.283465 C0.859375,12.45442 12.786785,0.43307 27.5,0.43307 Z" id="Ellipse-4" fill="url(#linearGradient-5)"></path>
                <g id="编组" stroke-width="1" fill="none" transform="translate(12.000000, 16.000000)">
                    <path d="M1.67571493,0.513137926 L6.57799907,0.0670033495 C7.04016148,0.0249440505 7.49426802,0.208195191 7.79779531,0.559242578 L8.35893642,1.20823569 L8.35893642,1.20823569 L30.1382452,2.46821596 C30.7342029,2.50267658 31.2142032,2.96996418 31.2646608,3.56478112 C31.2757445,3.69544114 31.2838471,3.81246859 31.2889686,3.91586348 C31.3646794,5.4443642 31.2295205,7.23734774 30.883492,9.29481412 C30.4698616,11.7542373 29.4812887,15.6494785 27.9177732,20.9805378 C27.6179492,22.002817 26.680117,22.7051 25.6147771,22.7051 L5.58083601,22.7051 C4.27868471,22.7051 3.21407918,21.6667388 3.18158345,20.364993 L2.9464324,10.9450836 C2.93620697,10.5354632 2.75196299,10.1495966 2.43984454,9.88412437 L0.548868724,8.27575562 C0.203375865,7.98189681 0.016523188,7.54243619 0.0445926124,7.08974377 L0.368983669,1.85809489 C0.412968045,1.14873252 0.967915181,0.577551561 1.67571493,0.513137926 Z" id="矩形" fill="url(#linearGradient-8)"></path>
                    <path d="M1.67756857,0.512969234 L6.57799907,0.0670033495 C7.04016148,0.0249440505 7.49426802,0.208195191 7.79779531,0.559242578 L8.35893642,1.20823569 L8.35893642,1.20823569 L30.162242,2.46960423 C30.7558096,2.50394135 31.2347371,2.96774747 31.2880952,3.55990834 C31.2978805,3.66850453 31.3049675,3.7697404 31.309356,3.86361596 C31.3255196,4.20937219 31.3177251,4.72735865 31.2859723,5.41757536 L0.154979919,5.4251 L0.370706284,1.86006521 C0.413683997,1.14982732 0.968959836,0.577456492 1.67756857,0.512969234 Z" id="矩形" fill="url(#linearGradient-9)"></path>
                    <rect id="矩形" fill="#3C5D94" opacity="0.797896984" x="4.74" y="1.75533256" width="2.4" height="2.4" rx="1.2"></rect>
                    <polyline id="路径-6" stroke="#3C5D94" stroke-width="0.72" opacity="0.796875" points="8.35893642 1.20823569 9.75466151 5.0651 31.2 5.0651"></polyline>
                </g>
            </g>
        </g>
        <g id="编组-5备份" mask="url(#mask-2)">
            <g transform="translate(574.000000, 243.000000)">
                <path d="M41.5,0.653542 C63.703579,0.653542 81.703125,18.794852 81.703125,41.173229 C81.703125,63.551606 63.703579,81.692916 41.5,81.692916 C19.296421,81.692916 1.296875,63.551606 1.296875,41.173229 C1.296875,18.794852 19.296421,0.653542 41.5,0.653542 Z" id="Ellipse-4" fill="url(#linearGradient-5)"></path>
                <g id="编组-2" stroke-width="1" fill="none" transform="translate(23.000000, 17.000000)">
                    <g id="编组" transform="translate(0.000000, 0.068267)">
                        <path d="M13.824,34.1845333 L23.1936,34.1845333 C24.2115713,34.1845333 25.0368,35.0097621 25.0368,36.0277333 L25.0368,43.8613333 C25.0368,44.8793046 24.2115713,45.7045333 23.1936,45.7045333 L13.824,45.7045333 C12.8060287,45.7045333 11.9808,44.8793046 11.9808,43.8613333 L11.9808,36.0277333 C11.9808,35.0097621 12.8060287,34.1845333 13.824,34.1845333 Z" id="矩形备份" fill="url(#linearGradient-10)"></path>
                        <rect id="矩形" fill="url(#linearGradient-7)" x="0" y="0.0853333333" width="36.864" height="36.864" rx="18.432"></rect>
                        <rect id="矩形" fill="url(#linearGradient-11)" opacity="0.060054" x="3.9168" y="4.07893333" width="29.0304" height="28.8768" rx="14.4384"></rect>
                        <path d="M19.0250033,16.6258985 C17.5472449,13.6098849 24.7032391,11.5489423 23.4279134,9.30703884 C20.8671404,4.79307185 15.6544997,6.5121996 14.3184442,7.84929894 C10.9276973,11.5891558 15.3306074,16.0930694 16.8792172,17.4804356 C16.7946019,17.6217995 16.7298959,17.7740171 16.6869062,17.9328377 C13.6504164,19.400631 11.5754818,12.2928923 9.31835769,13.559618 C4.77374472,16.1031228 6.50454388,21.2806128 7.85072098,22.6076588 C11.6159683,25.9755406 16.1504596,21.6023209 17.5472449,20.064154 C17.6895685,20.1481986 17.8428196,20.2124683 18.0027184,20.2551682 C19.4804768,23.2711818 12.3244826,25.3321243 13.5998082,27.5740278 C16.1605813,32.0879948 21.373222,30.3688671 22.7092775,29.0317677 C26.0899027,25.2919109 21.6971142,20.7879973 20.1383829,19.400631 C20.2237057,19.2596233 20.2884546,19.1073047 20.3306939,18.9482289 C23.3671836,17.4804356 25.4421183,24.5881744 27.6992423,23.3214486 C32.2438553,20.7779438 30.5130561,15.6004538 29.166879,14.2734079 C25.3712668,10.905526 20.8367755,15.2686924 19.4804768,16.8169127 C19.33939,16.7304618 19.1857757,16.6660398 19.0250033,16.6258985 Z" id="路径" fill="#3C5D94" opacity="0.797715298"></path>
                        <path d="M8.2944,41.0965333 L28.7232,41.0965333 C29.7411713,41.0965333 30.5664,41.9217621 30.5664,42.9397333 L30.5664,46.4725333 C30.5664,47.4905046 29.7411713,48.3157333 28.7232,48.3157333 L8.2944,48.3157333 C7.27642875,48.3157333 6.4512,47.4905046 6.4512,46.4725333 L6.4512,42.9397333 C6.4512,41.9217621 7.27642875,41.0965333 8.2944,41.0965333 Z" id="矩形" fill="url(#linearGradient-12)"></path>
                        <polygon id="矩形备份-2" fill="url(#linearGradient-13)" opacity="0.100000001" points="15.0528 43.2469333 21.9648 43.2469333 21.9648 46.1653333 15.0528 46.1653333"></polygon>
                    </g>
                    <rect id="矩形" fill="url(#linearGradient-14)" x="15.2832" y="15.36" width="6.4512" height="6.2976" rx="3.1488"></rect>
                </g>
            </g>
        </g>
        <g id="编组-4" mask="url(#mask-2)">
            <g transform="translate(80.000000, 145.000000)">
                <path d="M38.28,0.60283344 C58.7607953,0.60283344 75.36375,17.3365526 75.36375,37.9785833 C75.36375,58.6206139 58.7607953,75.3543331 38.28,75.3543331 C17.7992047,75.3543331 1.19625,58.6206139 1.19625,37.9785833 C1.19625,17.3365526 17.7992047,0.60283344 38.28,0.60283344 Z" id="Ellipse-4备份" fill="url(#linearGradient-5)"></path>
                <g id="编组-2" stroke-width="1" fill="none" transform="translate(24.000000, 19.000000)">
                    <path d="M27.9936,1.45284608 L27.9936,37.0976624 C27.9936,37.9000471 27.2797898,38.5505085 26.3992603,38.5505085 L1.59433971,38.5505085 C0.713810219,38.5505085 0,37.9000471 0,37.0976624 L0,1.45284608 C0,0.650461339 0.713810219,0 1.59433971,0 L26.3992603,0 C27.2797898,0 27.9936,0.650461339 27.9936,1.45284608 Z" id="路径" fill="url(#linearGradient-15)"></path>
                    <path d="M27.9936,1.45284608 L27.9936,8.89627119 L1.34851858e-14,8.89627119 L1.34851858e-14,1.45284608 C1.34851858e-14,0.650461339 0.713810219,0 1.59433971,0 L26.3992603,0 C27.2797898,0 27.9936,0.650461339 27.9936,1.45284608 Z" id="路径" fill="url(#linearGradient-16)"></path>
                    <polygon id="矩形备份" fill="url(#linearGradient-17)" opacity="0.100000001" points="3.67712542 2.96542373 10.0824407 2.96542373 10.0824407 5.93084746 3.67712542 5.93084746"></polygon>
                    <polygon id="矩形备份-2" fill="url(#linearGradient-17)" opacity="0.100000001" points="17.9111593 2.96542373 24.3164746 2.96542373 24.3164746 5.93084746 17.9111593 5.93084746"></polygon>
                    <g id="编组" transform="translate(12.217546, 2.490956)">
                        <g id="矩形">
                            <use fill="black" fill-opacity="1" filter="url(#filter-20)" xlink:href="#path-19"></use>
                            <rect stroke="#C5C9D3" stroke-width="0.5" stroke-linejoin="square" fill="url(#linearGradient-18)" fill-rule="evenodd" x="0.25" y="0.368616949" width="3.05850847" height="3.05850847" rx="1.52925424"></rect>
                        </g>
                        <g id="矩形">
                            <use fill="black" fill-opacity="1" filter="url(#filter-24)" xlink:href="#path-23"></use>
                            <rect stroke="url(#linearGradient-22)" stroke-width="0.5" stroke-linejoin="square" fill="url(#linearGradient-21)" fill-rule="evenodd" x="0.25" y="0.25" width="3.05850847" height="3.05850847" rx="1.52925424"></rect>
                        </g>
                    </g>
                    <rect id="矩形" stroke-opacity="0.45044799" stroke="#3C5D94" stroke-width="0.5" fill="url(#linearGradient-21)" x="3.80850847" y="12.2799655" width="20.3765831" height="20.3765831" rx="10.1882915"></rect>
                    <rect id="矩形" fill="#3C5D94" opacity="0.802325581" x="6.87978305" y="15.35124" width="14.2340339" height="14.2340339" rx="7.11701695"></rect>
                </g>
            </g>
        </g>
    </g>
</svg>