<svg xmlns="http://www.w3.org/2000/svg" width="36" height="36" viewBox="0 0 36 36"><path d="M18,24a19.573,19.573,0,0,1-11.024-3.36A18.761,18.761,0,0,1,0,12,18.752,18.752,0,0,1,6.976,3.361,19.516,19.516,0,0,1,10.352,1.53l2.123,2.413a16.265,16.265,0,0,0-9.131,7.921L3.277,12l.067.137A16.253,16.253,0,0,0,17.643,21L18,21a16.773,16.773,0,0,0,7.788-1.929l2.04,2.319A19.689,19.689,0,0,1,18,24Zm12.322-4.319h0L28.33,17.418a15.607,15.607,0,0,0,4.326-5.281L32.722,12l-.066-.136A16.25,16.25,0,0,0,18.357,3L18,3a16.679,16.679,0,0,0-2.226.15L13.461.521A19.936,19.936,0,0,1,18,0,19.573,19.573,0,0,1,29.025,3.361,18.732,18.732,0,0,1,36,12a18.722,18.722,0,0,1-5.677,7.681ZM18,18A6.044,6.044,0,0,1,13.726,7.727a5.787,5.787,0,0,1,1.246-.947l2.075,2.358A2.9,2.9,0,0,0,15,12a2.9,2.9,0,0,0,3,3,2.886,2.886,0,0,0,2.726-1.682L22.8,15.674a5.792,5.792,0,0,1-.523.6A5.983,5.983,0,0,1,18,18Zm5.982-5.523,0,0L18.289,6.007A5.886,5.886,0,0,1,24,12c0,.157-.006.317-.017.474Z" transform="translate(0 6)" fill="#6c7078"/><path d="M0,0,23.955,27.5" transform="translate(6.045 4.5)" fill="none" stroke="#6c7078" stroke-linecap="round" stroke-miterlimit="10" stroke-width="3"/></svg>