<?xml version="1.0" encoding="UTF-8"?>
<svg width="24px" height="24px" viewBox="0 0 24 24" version="1.1" xmlns="http://www.w3.org/2000/svg" xmlns:xlink="http://www.w3.org/1999/xlink">
    <title>设备/开启icon</title>
    <g id="设备/开启icon" stroke="none" stroke-width="1" fill="none" fill-rule="evenodd">
        <g id="编组-6" fill="#0066FF" fill-rule="nonzero">
            <g transform="translate(1.000000, 0.000000)" id="形状结合">
                <path d="M6.42072232,4.00946521 C6.96777958,4.6315744 6.90693797,5.57937109 6.28482877,6.12642835 C4.52897087,7.67045762 3.5,9.91005287 3.5,12.3254051 C3.5,16.8461621 7.08789804,20.5 11.5,20.5 C15.912102,20.5 19.5,16.8461621 19.5,12.3254051 C19.5,9.91685102 18.4768631,7.68294988 16.7295297,6.13908468 C16.108714,5.59055989 16.0501107,4.64262218 16.5986355,4.02180654 C17.1471603,3.4009909 18.095098,3.34238758 18.7159137,3.89091237 C21.1029705,6.00000847 22.5,9.05026074 22.5,12.3254051 C22.5,18.4909106 17.5813083,23.5 11.5,23.5 C5.41869171,23.5 0.5,18.4909106 0.5,12.3254051 C0.5,9.04097832 1.90499931,5.9829425 4.30375918,3.87357165 C4.92586838,3.32651439 5.87366506,3.38735601 6.42072232,4.00946521 Z M11.5,0 C12.3284271,-1.52179594e-16 13,0.671572875 13,1.5 L13,9.5 C13,10.3284271 12.3284271,11 11.5,11 C10.6715729,11 10,10.3284271 10,9.5 L10,1.5 C10,0.671572875 10.6715729,1.52179594e-16 11.5,0 Z"></path>
            </g>
        </g>
    </g>
</svg>