<svg xmlns="http://www.w3.org/2000/svg" width="36.5" height="33" viewBox="0 0 36.5 33">
<g id="编组_7" transform="translate(-0.832 -1.5)">
    <path fill="none" stroke="#0066FF" stroke-width="3" stroke-linecap="round" stroke-miterlimit="10" d="M33.7,21.1
        C32.2,28,26.1,33,19,33c-5.1,0-9.9-2.6-12.6-6.9"/>
    <path fill="none" stroke="#0066FF" stroke-width="3" stroke-linecap="round" stroke-miterlimit="10" d="M4.5,14
        c0.9-3.1,2.7-5.9,5.3-7.9c4.6-3.5,10.8-4.1,16-1.5c2,1,3.8,2.5,5.2,4.4"/>
    <path id="矩形" fill="#0066FF" d="M3.8,22.3c0-0.3,0.3-0.5,0.5-0.5c0.1,0,0.2,0,0.2,0.1l5.2,3.7c0.2,0.2,0.3,0.5,0.1,0.7
        c-0.1,0.1-0.1,0.1-0.2,0.2L4,29.1c-0.3,0.1-0.5,0-0.7-0.2c0-0.1-0.1-0.2,0-0.3L3.8,22.3z"/>
    <path id="矩形-2" fill="#0066FF" d="M34.5,13.8c0,0.3-0.2,0.5-0.5,0.5c-0.1,0-0.2,0-0.3-0.1l-5.5-3.2c-0.2-0.1-0.3-0.4-0.2-0.7
        c0-0.1,0.1-0.1,0.2-0.2L33.7,7c0.2-0.1,0.5-0.1,0.7,0.2c0,0.1,0.1,0.2,0.1,0.2L34.5,13.8z"/>
</g>
</svg>
