<?xml version="1.0" encoding="UTF-8"?>
<svg width="82px" height="82px" viewBox="0 0 82 82" version="1.1" xmlns="http://www.w3.org/2000/svg" xmlns:xlink="http://www.w3.org/1999/xlink">
    <title>编组 6</title>
    <g id="页面-1" stroke="none" stroke-width="1" fill="none" fill-rule="evenodd">
        <g id="1" transform="translate(-522.000000, -1361.000000)">
            <g id="编组-4" transform="translate(78.000000, 1277.000000)">
                <g id="档位开关" transform="translate(337.000000, 0.000000)">
                    <g id="编组-6" transform="translate(107.000000, 84.000000)">
                        <circle id="椭圆形" fill="#B5C4D1" cx="41" cy="41" r="41"></circle>
                        <path d="M48.6171414,17.3492268 C48.8097634,17.5739524 48.8929377,17.8724631 48.8442787,18.1644171 L45.629,37.449 L59.5199484,37.4496336 C60.0722332,37.4496336 60.5199484,37.8973489 60.5199484,38.4496336 C60.5199484,38.7476037 60.3870705,39.0300519 60.1575161,39.220028 L35.466549,59.6539318 C35.0410719,60.0060507 34.4107059,59.9465822 34.0585869,59.5211052 C33.8666016,59.2891229 33.7893729,58.9829791 33.8483471,58.6876891 L37.69,39.449 L24,39.4496336 C23.4477153,39.4496336 23,39.0019184 23,38.4496336 C23,38.1577087 23.1275627,37.8803592 23.3492086,37.690377 L47.2070934,17.2407615 C47.6264192,16.8813394 48.2577192,16.9299009 48.6171414,17.3492268 Z" id="形状结合" fill="#FFFFFF"></path>
                    </g>
                </g>
            </g>
        </g>
    </g>
</svg>