<?xml version="1.0" encoding="UTF-8"?>
<svg width="148px" height="178px" viewBox="0 0 148 178" version="1.1" xmlns="http://www.w3.org/2000/svg" xmlns:xlink="http://www.w3.org/1999/xlink">
    <!-- Generator: Sketch 59.1 (86144) - https://sketch.com -->
    <title>燃气黑</title>
    <desc>Created with Sketch.</desc>
    <g id="页面-1" stroke="none" stroke-width="1" fill="none" fill-rule="evenodd">
        <g id="黑白" transform="translate(-488.000000, -903.000000)" fill="#000000" fill-rule="nonzero">
            <g transform="translate(88.000000, 186.000000)" id="燃气黑">
                <g transform="translate(400.000000, 717.000000)">
                    <path d="M87.2174576,177.997193 C87.2174576,177.997193 139.725614,173.632891 148,118.664795 C148,81.6347166 117.608729,60.6508838 117.608729,60.6508838 C117.608729,60.6508838 111.358778,71.8462826 104.395284,75.1544051 C104.450681,75.6579851 123.204714,25.0409808 60.790394,0 C60.7165311,0.941452952 63.6062428,13.2917657 63.433083,18.4588058 C63.2600975,23.6261938 58.9260529,46.9700908 35.6846749,64.6063422 C12.443297,82.2425937 0.388663748,94.9515135 0.0080258991,118.664795 C-0.372437745,142.377903 12.6850935,167.946278 58.1477051,177.997193 C58.1107736,178.276708 39.6751876,157.640879 39.6488826,134.486803 C39.6224034,111.332552 61.8370173,96.0116911 72.6826685,89.6577525 C72.443485,89.5852662 71.5,93.6792657 71.361324,100.205816 C71.2224826,106.732366 75.3293642,118.347038 83.2534242,125.257226 C91.1776584,132.167588 97.8953494,143.3536 97.7883876,150.308636 C97.6814257,157.263846 92.2399603,171.326887 87.2176319,177.997193 L87.2174576,177.997193 Z" id="路径"></path>
                </g>
            </g>
        </g>
    </g>
</svg>