<?xml version="1.0" encoding="UTF-8"?>
<svg width="330px" height="312px" viewBox="0 0 330 312" version="1.1" xmlns="http://www.w3.org/2000/svg" xmlns:xlink="http://www.w3.org/1999/xlink">
    <title>休闲</title>
    <defs>
        <linearGradient x1="50%" y1="-19.9794671%" x2="50%" y2="100%" id="linearGradient-1">
            <stop stop-color="#EEF0F3" offset="0%"></stop>
            <stop stop-color="#A9ABAE" offset="100%"></stop>
        </linearGradient>
    </defs>
    <g id="页面-1" stroke="none" stroke-width="1" fill="none" fill-rule="evenodd">
        <g id="3" transform="translate(-400.000000, -890.000000)" fill="url(#linearGradient-1)" fill-rule="nonzero">
            <g id="编组-6" transform="translate(212.000000, 694.000000)">
                <g id="温度显示表">
                    <g id="休闲" transform="translate(188.000000, 196.000000)">
                        <path d="M213.5,154 C205.480961,154 199,147.506095 199,139.493454 C199,131.493905 205.494107,125 213.5,125 C221.505893,125 228,131.493905 228,139.493454 C228,147.506095 221.505893,154 213.5,154 L213.5,154 Z M217.266962,201.678775 C209.669783,221.593413 188.424105,235 164.456655,235 C140.647754,235 119.468139,221.749607 111.752047,202.004178 C109.564456,196.462424 112.309524,190.218237 117.909065,187.99885 C120.601143,186.966593 123.600206,187.036222 126.239933,188.192268 C128.87966,189.348313 130.941425,191.49503 131.967151,194.155468 C136.380122,205.453445 149.737945,213.341204 164.469867,213.341204 C179.267852,213.341204 192.638888,205.388365 196.972583,193.973242 C197.978041,191.300089 200.026025,189.133518 202.661102,187.955337 C205.296178,186.777155 208.299882,186.685042 211.004244,187.69948 C216.636461,189.872227 219.433371,196.115335 217.266962,201.678775 L217.266962,201.678775 Z M102,139.323335 C102,131.417682 108.494107,125 116.5,125 C124.519039,125 131,131.417682 131,139.323335 C130.66914,146.969105 124.275185,153 116.5,153 C108.724815,153 102.33086,146.969105 102,139.323335 L102,139.323335 Z M325.891247,131.886585 C333.94306,124.15212 329.481563,110.672051 318.40702,109.060163 L227.830719,96.0090644 C223.41386,95.3797114 219.598916,92.639849 217.640556,88.6905702 L177.143894,7.44618425 C174.879782,2.88925233 170.178046,0 165.026575,0 C159.875104,0 155.173368,2.88925233 152.909256,7.44618425 L112.386195,88.7165683 C110.43117,92.670862 106.615641,95.4160112 102.196031,96.0480617 L11.6065308,109.047163 C0.505588339,110.68505 -3.92950887,124.15212 4.09590502,131.899584 L69.6323861,195.166213 C72.8267119,198.247 74.2654787,202.679693 73.5262959,206.995395 L58.0430548,296.325222 C56.1554986,307.244468 67.7448299,315.60289 77.6446005,310.429248 L158.664323,268.260161 C162.606694,266.203338 167.327659,266.203338 171.27003,268.260161 L252.289752,310.429248 C262.229122,315.60289 273.818453,307.244468 271.891298,296.325222 L256.447656,207.008394 C255.699461,202.67522 257.154187,198.255956 260.341566,195.179211 L325.878047,131.899584 L325.891247,131.886585 Z" id="形状"></path>
                    </g>
                </g>
            </g>
        </g>
    </g>
</svg>