<svg width="144" height="203" viewBox="0 0 144 203" fill="none" xmlns="http://www.w3.org/2000/svg">
<rect x="63.0474" y="142.724" width="17.3208" height="60.2765" fill="white"/>
<rect x="63.0474" y="142.724" width="17.3208" height="60.2765" fill="url(#paint0_linear_1703_31364)"/>
<circle cx="71.7082" cy="71.7082" r="70.3225" fill="white" fill-opacity="0.1" stroke="url(#paint1_linear_1703_31364)" stroke-width="2.77133"/>
<path fill-rule="evenodd" clip-rule="evenodd" d="M44.8609 46.2467C44.8609 60.8209 57.134 73.094 71.7082 73.094H18.0137C18.0137 87.6682 30.2867 99.9412 44.8609 99.9412C59.4352 99.9412 71.7082 87.6682 71.7082 73.094V126.788C86.2824 126.788 98.5555 114.515 98.5555 99.9412C98.5555 85.367 86.2824 73.094 71.7082 73.094H125.403C125.403 58.5197 113.13 46.2467 98.5555 46.2467C83.9813 46.2467 71.7082 58.5197 71.7082 73.094V19.3994C57.134 19.3994 44.8609 31.6725 44.8609 46.2467Z" fill="white" fill-opacity="0.6"/>
<defs>
<linearGradient id="paint0_linear_1703_31364" x1="75.7739" y1="184.515" x2="66.0374" y2="184.271" gradientUnits="userSpaceOnUse">
<stop stop-color="#EA9238"/>
<stop offset="1" stop-color="#FFC07D"/>
</linearGradient>
<linearGradient id="paint1_linear_1703_31364" x1="71.7082" y1="0" x2="71.7082" y2="143.416" gradientUnits="userSpaceOnUse">
<stop stop-color="#FDC384"/>
<stop offset="1" stop-color="#EA9339"/>
</linearGradient>
</defs>
</svg>
