<svg width="21" height="20" viewBox="0 0 21 20" fill="none" xmlns="http://www.w3.org/2000/svg">
<path fill-rule="evenodd" clip-rule="evenodd" d="M9.75 0.673077C9.75 0.301347 9.41421 0 9 0H7.5C7.08579 0 6.75 0.301347 6.75 0.673077V4.71154C6.75 5.08327 7.08579 5.38462 7.5 5.38462H9C9.41421 5.38462 9.75 5.08327 9.75 4.71154V0.673077ZM13.5 6.92308C13.9142 6.92308 14.25 7.22442 14.25 7.59615V11.6346C14.25 12.0063 13.9142 12.3077 13.5 12.3077H12C11.5858 12.3077 11.25 12.0063 11.25 11.6346V7.59615C11.25 7.22442 11.5858 6.92308 12 6.92308H13.5ZM9 14.6154C9.41421 14.6154 9.75 14.9167 9.75 15.2885V19.3269C9.75 19.6987 9.41421 20 9 20H7.5C7.08579 20 6.75 19.6987 6.75 19.3269V15.2885C6.75 14.9167 7.08579 14.6154 7.5 14.6154H9ZM4.59375 15.3846C4.95619 15.3846 5.25 15.729 5.25 16.1538V17.6923C5.25 18.1171 4.95619 18.4615 4.59375 18.4615H0.65625C0.293813 18.4615 0 18.1171 0 17.6923V16.1538C0 15.729 0.293813 15.3846 0.65625 15.3846H4.59375ZM21 16.1538C21 15.729 20.7053 15.3846 20.3417 15.3846H11.1583C10.7947 15.3846 10.5 15.729 10.5 16.1538V17.6923C10.5 18.1171 10.7947 18.4615 11.1583 18.4615H20.3417C20.7053 18.4615 21 18.1171 21 17.6923V16.1538ZM21 9.23077C21 8.80593 20.7062 8.46154 20.3438 8.46154H16.4062C16.0438 8.46154 15.75 8.80593 15.75 9.23077V10.7692C15.75 11.1941 16.0438 11.5385 16.4062 11.5385H20.3438C20.7062 11.5385 21 11.1941 21 10.7692V9.23077ZM9.84169 8.46154C10.2053 8.46154 10.5 8.80593 10.5 9.23077V10.7692C10.5 11.1941 10.2053 11.5385 9.84169 11.5385H0.658307C0.294734 11.5385 0 11.1941 0 10.7692V9.23077C0 8.80593 0.294734 8.46154 0.658307 8.46154H9.84169ZM4.59375 1.53846C4.95619 1.53846 5.25 1.88286 5.25 2.30769V3.84615C5.25 4.27099 4.95619 4.61538 4.59375 4.61538H0.65625C0.293813 4.61538 0 4.27099 0 3.84615V2.30769C0 1.88286 0.293813 1.53846 0.65625 1.53846H4.59375ZM21 2.30769C21 1.88286 20.7053 1.53846 20.3417 1.53846H11.1583C10.7947 1.53846 10.5 1.88286 10.5 2.30769V3.84615C10.5 4.27099 10.7947 4.61538 11.1583 4.61538H20.3417C20.7053 4.61538 21 4.27099 21 3.84615V2.30769Z" fill="#4D4D4D"/>
</svg>
