<?xml version="1.0" encoding="UTF-8"?>
<svg width="83px" height="76px" viewBox="0 0 83 76" version="1.1" xmlns="http://www.w3.org/2000/svg" xmlns:xlink="http://www.w3.org/1999/xlink">
    <!-- Generator: Sketch 59.1 (86144) - https://sketch.com -->
    <title>档位（未打开）</title>
    <desc>Created with Sketch.</desc>
    <g id="页面-1" stroke="none" stroke-width="1" fill="none" fill-rule="evenodd">
        <g id="1备份" transform="translate(-301.000000, -904.000000)">
            <g id="编组-2" transform="translate(305.000000, 787.000000)">
                <g id="档位（未打开）" transform="translate(0.000000, 117.000000)">
                    <path d="M19,90 C39.4345357,90 56,73.4345357 56,53 C56,32.5654643 39.4345357,16 19,16" id="椭圆形" stroke="#FFFFFF" stroke-width="8" stroke-linecap="round" transform="translate(37.500000, 53.000000) rotate(90.000000) translate(-37.500000, -53.000000) "></path>
                    <g id="矩形" transform="translate(20.000000, 18.000000)">
                        <g id="path-1-link" fill="#000000" fill-rule="nonzero">
                            <rect id="path-1" x="0" y="0" width="8" height="34" rx="4"></rect>
                        </g>
                        <g id="path-1-link" fill="#FEFEFE">
                            <rect id="path-1" x="0" y="0" width="8" height="34" rx="4"></rect>
                        </g>
                    </g>
                    <g id="矩形备份-9" transform="translate(34.000000, 0.000000)">
                        <g id="path-3-link" fill="#000000" fill-rule="nonzero">
                            <rect id="path-3" x="0" y="0" width="8" height="52" rx="4"></rect>
                        </g>
                        <g id="path-3-link" fill="#FEFEFE">
                            <rect id="path-3" x="0" y="0" width="8" height="52" rx="4"></rect>
                        </g>
                    </g>
                    <g id="矩形备份-10" transform="translate(48.000000, 18.000000)">
                        <g id="path-5-link" fill="#000000" fill-rule="nonzero">
                            <rect id="path-5" x="0" y="0" width="8" height="34" rx="4"></rect>
                        </g>
                        <g id="path-5-link" fill="#FEFEFE">
                            <rect id="path-5" x="0" y="0" width="8" height="34" rx="4"></rect>
                        </g>
                    </g>
                </g>
            </g>
        </g>
    </g>
</svg>