<svg width="60" height="60" viewBox="0 0 60 60" fill="none" xmlns="http://www.w3.org/2000/svg">
<path d="M54.375 35.625H53.7188C51.1875 46.4062 41.5312 54.375 30 54.375C18.4688 54.375 8.8125 46.4062 6.28125 35.625H5.625C4.59375 35.625 3.75 34.7812 3.75 33.75V25.3125C3.75 24.2812 4.59375 23.4375 5.625 23.4375H6.5625C9.375 13.125 18.8438 5.625 30 5.625C41.1562 5.625 50.625 13.125 53.4375 23.4375H54.375C55.4062 23.4375 56.25 24.2812 56.25 25.3125V33.75C56.25 34.7812 55.4062 35.625 54.375 35.625ZM30 9.375C18.5625 9.375 9.375 18.5625 9.375 30C9.375 41.4375 18.5625 50.625 30 50.625C41.4375 50.625 50.625 41.4375 50.625 30C50.625 18.5625 41.4375 9.375 30 9.375ZM30 39.375C24.8438 39.375 20.625 35.1562 20.625 30C20.625 24.8438 24.8438 20.625 30 20.625C35.1562 20.625 39.375 24.8438 39.375 30C39.375 35.1562 35.1562 39.375 30 39.375ZM30 24.375C26.9062 24.375 24.375 26.9062 24.375 30C24.375 33.0938 26.9062 35.625 30 35.625C33.0938 35.625 35.625 33.0938 35.625 30C35.625 26.9062 33.0938 24.375 30 24.375Z" fill="#30414D"/>
</svg>
