<svg width="20" height="20" viewBox="0 0 20 20" fill="none" xmlns="http://www.w3.org/2000/svg">
<path fill-rule="evenodd" clip-rule="evenodd" d="M1.66667 0C0.746192 0 0 0.746193 0 1.66667V7.22222C0 8.1427 0.746193 8.88889 1.66667 8.88889H7.22222C8.1427 8.88889 8.88889 8.1427 8.88889 7.22222V1.66667C8.88889 0.746192 8.1427 0 7.22222 0H1.66667ZM12.7778 0C11.8573 0 11.1111 0.746193 11.1111 1.66667V7.22222C11.1111 8.1427 11.8573 8.88889 12.7778 8.88889H18.3333C19.2538 8.88889 20 8.1427 20 7.22222V1.66667C20 0.746192 19.2538 0 18.3333 0H12.7778ZM0 12.7778C0 11.8573 0.746192 11.1111 1.66667 11.1111H7.22222C8.1427 11.1111 8.88889 11.8573 8.88889 12.7778V18.3333C8.88889 19.2538 8.1427 20 7.22222 20H1.66667C0.746193 20 0 19.2538 0 18.3333V12.7778ZM12.7778 11.1111C11.8573 11.1111 11.1111 11.8573 11.1111 12.7778V18.3333C11.1111 19.2538 11.8573 20 12.7778 20H18.3333C19.2538 20 20 19.2538 20 18.3333V12.7778C20 11.8573 19.2538 11.1111 18.3333 11.1111H12.7778Z" fill="#30414D"/>
</svg>
