<svg width="27" height="28" viewBox="0 0 27 28" fill="none" xmlns="http://www.w3.org/2000/svg">
<path d="M13.2803 17.4121C14.4693 17.4121 15.4329 16.4879 15.4329 15.3486V2.06468C15.4328 0.924163 14.4693 0 13.2803 0C12.0912 0 11.1277 0.924163 11.1277 2.06468V15.3486C11.1277 16.4879 12.0912 17.4121 13.2803 17.4121Z" fill="#fff"/>
<path d="M22.0415 5.85792C21.1549 5.09895 19.7941 5.17255 19.0027 6.02374C18.2114 6.87402 18.289 8.17882 19.1759 8.93779C21.0101 10.5119 22.1576 12.7772 22.1584 15.3192C22.15 20.0419 18.1657 23.8633 13.2419 23.8709C8.31823 23.8633 4.33337 20.0419 4.32557 15.3192C4.3262 12.7653 5.48446 10.4916 7.33324 8.91697C8.22335 8.16143 8.30514 6.85617 7.51726 6.00372C6.72858 5.15032 5.36904 5.07133 4.47956 5.82747L4.47893 5.82638C1.75023 8.14242 0.019494 11.5462 0.0202639 15.3192C0.0215239 22.3236 5.93934 27.9989 13.242 28C20.5444 27.9989 26.4622 22.3236 26.4633 15.3192C26.4641 11.5625 24.7497 8.172 22.0415 5.85792Z" fill="#fff"/>
</svg>
