<svg width="24" height="24" viewBox="0 0 24 24" fill="none" xmlns="http://www.w3.org/2000/svg">
<path d="M4.50782 3.41828C4.50782 2.36383 5.34775 1.50977 6.38266 1.50977H17.6313C18.6669 1.50977 19.5062 2.36383 19.5062 3.41828V5.47928C19.5062 6.87259 18.9087 8.19637 17.8695 9.10206L14.5417 12.0063L17.8695 14.91C18.3849 15.3622 18.7976 15.9195 19.0799 16.5443C19.3621 17.1691 19.5075 17.8471 19.5062 18.5328V20.5943C19.5062 21.6482 18.6663 22.5029 17.6313 22.5029H6.38266C6.13557 22.5026 5.89104 22.453 5.66337 22.357C5.4357 22.261 5.22946 22.1205 5.05673 21.9438C4.70409 21.5832 4.507 21.0987 4.50782 20.5943V18.5334C4.50782 17.1407 5.10597 15.8175 6.14446 14.9106L9.47224 12.0063L6.14446 9.10267C5.62903 8.65037 5.21632 8.09304 4.93403 7.46809C4.65175 6.84314 4.50643 6.16503 4.50782 5.47928V3.41828ZM17.6313 3.37143H6.38266V5.4793C6.38195 5.89075 6.46928 6.29758 6.63877 6.67249C6.80827 7.0474 7.05601 7.38171 7.36537 7.65297L10.6925 10.5566C10.8988 10.7375 11.0639 10.9604 11.1769 11.2103C11.2899 11.4602 11.3482 11.7315 11.3477 12.0058C11.3477 12.563 11.1082 13.092 10.6925 13.4549L7.36537 16.3597C7.05602 16.631 6.80828 16.9653 6.63878 17.3402C6.46929 17.7151 6.38196 18.1219 6.38266 18.5334V20.6178H17.6313V18.5334C17.632 18.1219 17.5447 17.7151 17.3752 17.3402C17.2057 16.9653 16.958 16.631 16.6487 16.3597L13.3214 13.4548C13.1152 13.274 12.95 13.0511 12.837 12.8012C12.724 12.5512 12.6658 12.28 12.6663 12.0057C12.6663 11.4485 12.9057 10.9195 13.3214 10.5566L16.6487 7.65353C16.9581 7.38219 17.2059 7.04778 17.3753 6.67276C17.5448 6.29774 17.6321 5.8908 17.6313 5.47926V3.37143H17.6313Z" fill="#30414D"/>
<path d="M11.0004 14.4146C11.0908 14.3177 11.2002 14.2404 11.3218 14.1875C11.4434 14.1347 11.5745 14.1074 11.7071 14.1074C11.8397 14.1074 11.9708 14.1347 12.0924 14.1875C12.214 14.2404 12.3234 14.3177 12.4138 14.4146L14.4139 16.5144C14.6995 16.815 14.7853 17.2668 14.6305 17.6585C14.4757 18.0508 14.1115 18.3064 13.7066 18.3064H9.70684C9.30252 18.3064 8.93837 18.0508 8.78296 17.6585C8.70706 17.4668 8.68718 17.2575 8.72564 17.055C8.7641 16.8524 8.8593 16.6649 9.00018 16.5144L11.0004 14.4146Z" fill="#30414D"/>
</svg>
