<svg width="21" height="20" viewBox="0 0 21 20" fill="none" xmlns="http://www.w3.org/2000/svg">
<path fill-rule="evenodd" clip-rule="evenodd" d="M18.7801 7.27397L20.1408 7.46427C20.5594 7.52136 20.871 7.87817 20.8663 8.30158V11.7008C20.8663 12.1218 20.557 12.4786 20.1384 12.5381L18.7777 12.7284C18.4756 12.7688 18.2306 12.9734 18.1117 13.2541C17.8453 13.8892 17.5004 14.4839 17.0912 15.0263C16.9081 15.2689 16.8533 15.5853 16.9675 15.866L17.4837 17.1386C17.6407 17.5287 17.4885 17.9759 17.1221 18.1876L14.1796 19.886C13.8133 20.0977 13.3495 20.0073 13.0902 19.6743L12.2481 18.5968C12.0602 18.3541 11.7557 18.2423 11.4512 18.2804C11.1182 18.3232 10.7781 18.347 10.4331 18.347C10.0882 18.347 9.74806 18.3232 9.41504 18.2804C9.11056 18.2423 8.80608 18.3541 8.61816 18.5968L7.77609 19.6743C7.51681 20.0073 7.05295 20.0977 6.68663 19.886L3.74413 18.1876C3.37781 17.9783 3.22319 17.5287 3.38256 17.1386L3.89875 15.866C4.01293 15.5853 3.95822 15.2689 3.77505 15.0263C3.36591 14.4839 3.02337 13.8892 2.75458 13.2541C2.63564 12.9758 2.39063 12.7712 2.08853 12.7284L0.727893 12.5381C0.311614 12.4786 0 12.1218 0 11.7008V8.30158C0 7.87817 0.311614 7.52136 0.730272 7.46189L2.09091 7.27159C2.39301 7.23115 2.63802 7.02658 2.75696 6.74589C3.02337 6.11077 3.36829 5.51608 3.77743 4.97373C3.9606 4.7311 4.01531 4.41711 3.90113 4.13404L3.38494 2.86141C3.22795 2.4713 3.38018 2.0241 3.74651 1.81239L6.68901 0.113972C7.05533 -0.0977354 7.51919 -0.00734347 7.77847 0.32568L8.62054 1.40325C8.80846 1.64588 9.11294 1.75768 9.41742 1.71962C9.75044 1.6768 10.0906 1.65301 10.4355 1.65301C10.7804 1.65301 11.1206 1.6768 11.4536 1.71962C11.7581 1.75768 12.0626 1.64588 12.2505 1.40325L13.0926 0.32568C13.3518 -0.00734347 13.8157 -0.0977354 14.182 0.113972L17.1245 1.81477C17.4908 2.0241 17.6455 2.47368 17.4861 2.86379L16.9699 4.13642C16.8557 4.41711 16.9104 4.73348 17.0936 4.97611C17.5027 5.51846 17.8453 6.11315 18.1141 6.74827C18.233 7.02658 18.478 7.23115 18.7801 7.27397ZM7.13142 10.0001C7.13142 11.8246 8.611 13.3041 10.4355 13.3041C12.26 13.3041 13.7396 11.8246 13.7396 10.0001C13.7396 8.17558 12.26 6.69601 10.4355 6.69601C8.611 6.69601 7.13142 8.17558 7.13142 10.0001Z" fill="white"/>
</svg>
