<?xml version="1.0" encoding="UTF-8"?>
<svg width="60px" height="40px" viewBox="0 0 60 40" version="1.1" xmlns="http://www.w3.org/2000/svg" xmlns:xlink="http://www.w3.org/1999/xlink">
    <!-- Generator: Sketch 59.1 (86144) - https://sketch.com -->
    <title>wifi (1)</title>
    <desc>Created with Sketch.</desc>
    <g id="页面-1" stroke="none" stroke-width="1" fill="none" fill-rule="evenodd">
        <g id="路由器连接中-蓝白" transform="translate(-144.000000, -1156.000000)" fill="#FFFFFF" fill-rule="nonzero">
            <g id="Wi-Fi管理" transform="translate(144.000000, 1156.000000)">
                <g id="wifi-(1)">
                    <path d="M29.3181818,40 C28.9348302,40 28.0435378,39.3278464 26.6443045,37.9835391 C25.2450712,36.6392318 24.5454545,35.7841793 24.5454545,35.4183814 C24.5454545,34.8331047 25.1444414,34.3392776 26.3424151,33.9368999 C27.5403888,33.5345222 28.5323111,33.3333333 29.3181818,33.3333333 C30.1040526,33.3333333 31.0959748,33.5345222 32.2939485,33.9368999 C33.4919222,34.3392776 34.0909091,34.8331047 34.0909091,35.4183814 C34.0909091,35.7841793 33.3912924,36.6392318 31.9920591,37.9835391 C30.5928258,39.3278464 29.7015334,40 29.3181818,40 Z M38.3868295,32 C38.3454131,32 37.9312486,31.7503121 37.1443362,31.2509363 C36.3574238,30.7515606 35.3064816,30.2521848 33.9915095,29.752809 C32.6765375,29.2534332 31.3460343,29.0037453 29.9999999,29.0037453 C28.6539656,29.0037454 27.3234624,29.2534332 26.0084903,29.752809 C24.6935183,30.2521847 23.6477531,30.7515605 22.8711948,31.2509363 C22.0946365,31.7503122 21.675295,32 21.6131704,32 C21.2404224,32 20.2723131,31.2509363 18.7088424,29.752809 C17.1453717,28.2546816 16.3636364,27.3258427 16.3636364,26.9662921 C16.3636364,26.7066167 16.4671775,26.4769039 16.6742597,26.2771536 C18.289501,24.7390761 20.3189066,23.5305868 22.7624767,22.6516854 C25.2060468,21.772784 27.6185546,21.3333333 30,21.3333333 C32.3814454,21.3333333 34.7939532,21.772784 37.2375233,22.6516854 C39.6810934,23.5305868 41.710499,24.7390761 43.3257403,26.2771536 C43.5328225,26.4769039 43.6363636,26.7066167 43.6363636,26.9662921 C43.6363636,27.3258427 42.8546283,28.2546816 41.2911576,29.752809 C39.7276869,31.2509363 38.7595776,32 38.3868296,32 L38.3868295,32 Z M46.6862996,24 C46.4609475,24 46.2253521,23.9240266 45.9795134,23.7720798 C43.1933418,21.7777778 40.6120358,20.3105413 38.2355954,19.3703704 C35.8591549,18.4301994 33.1139565,17.960114 30,17.960114 C28.2586428,17.960114 26.5121639,18.1690409 24.7605634,18.5868946 C23.0089629,19.0047484 21.4827145,19.5080722 20.1818182,20.0968661 C18.8809219,20.68566 17.7183099,21.2744539 16.6939821,21.8632479 C15.6696543,22.4520418 14.8604354,22.9553656 14.2663253,23.3732194 C13.6722151,23.7910731 13.3546735,24 13.3137004,24 C12.965429,24 12.0230474,23.2877493 10.4865557,21.8632479 C8.95006402,20.4387464 8.18181818,19.5555556 8.18181818,19.2136752 C8.18181818,18.985755 8.28425097,18.7768281 8.48911653,18.5868946 C11.1933419,16.0797721 14.4711908,14.1329535 18.3226633,12.7464388 C22.1741358,11.359924 26.0665813,10.6666667 30,10.6666667 C33.9334187,10.6666667 37.8258642,11.359924 41.6773367,12.7464388 C45.5288092,14.1329535 48.8066581,16.0797721 51.5108835,18.5868946 C51.715749,18.7768281 51.8181818,18.985755 51.8181818,19.2136752 C51.8181818,19.5555556 51.049936,20.4387464 49.5134443,21.8632479 C47.9769526,23.2877493 47.034571,24 46.6862996,24 Z M54.8676171,16 C54.6435845,16 54.4195519,15.9173838 54.1955193,15.7521515 C50.5498982,12.8697648 46.7668024,10.6987952 42.8462322,9.2392427 C38.9256619,7.77969022 34.6435845,7.04991398 30,7.04991398 C25.3564155,7.04991398 21.0743381,7.77969022 17.1537678,9.2392427 C13.2331976,10.6987952 9.45010185,12.8697648 5.80448068,15.7521515 C5.5804481,15.9173838 5.35641551,16 5.13238289,16 C4.7861507,16 3.84419551,15.3115318 2.3065173,13.9345955 C0.768839102,12.5576592 0,11.7039587 0,11.373494 C0,11.134825 0.101832999,10.9236948 0.305498997,10.7401033 C4.11405297,7.32530122 8.6456212,4.68158349 13.9002037,2.80895007 C19.1547861,0.936316659 24.5213849,0 30,0 C35.4786151,0 40.8452139,0.936316723 46.0997963,2.80895007 C51.3543788,4.68158342 55.885947,7.32530116 59.694501,10.7401033 C59.898167,10.9236948 60,11.134825 60,11.373494 C60,11.7039587 59.2311609,12.5576592 57.6934827,13.9345955 C56.1558045,15.3115318 55.2138493,16 54.8676171,16 Z" id="形状"></path>
                </g>
            </g>
        </g>
    </g>
</svg>