<svg width="26" height="26" viewBox="0 0 26 26" fill="none" xmlns="http://www.w3.org/2000/svg">
<path d="M18.1082 9.10883L17.7546 9.46238V9.46239L18.1082 9.10883ZM19.8655 21.0485L19.512 20.695L19.512 20.695L19.8655 21.0485ZM20.6874 5.0824L20.2832 4.78815L20.2825 4.789L20.6874 5.0824ZM20.9026 4.18952L20.4087 4.2673L20.4087 4.26731L20.9026 4.18952ZM19.983 6.0544L20.3875 6.34837L20.3879 6.3478L19.983 6.0544ZM18.3066 6.3196L18.0126 6.72405V6.72406L18.3066 6.3196ZM18.0414 4.6432L18.4459 4.93717L18.446 4.93693L18.0414 4.6432ZM18.747 3.6712L18.3428 3.37695L18.3424 3.37747L18.747 3.6712ZM19.5305 3.192L19.4527 2.69809V2.69809L19.5305 3.192ZM20.4234 3.4072L20.1292 3.81145L20.1304 3.81235L20.4234 3.4072ZM24.9534 9.706L25.4289 9.55152L25.4289 9.55146L24.9534 9.706ZM24.183 11.218L24.0285 10.7425L24.0279 10.7427L24.183 11.218ZM23.4414 8.9356L23.2869 8.46006L23.2869 8.46007L23.4414 8.9356ZM22.3002 9.3064L22.1457 8.83087L22.1455 8.83092L22.3002 9.3064ZM23.043 11.59L23.1977 12.0655L23.1981 12.0653L23.043 11.59ZM3.72301 9.3076L3.56804 9.78298L3.57601 9.78558L3.58405 9.7879L3.72301 9.3076ZM2.58181 8.9356L2.73677 8.46022L2.73629 8.46006L2.58181 8.9356ZM2.98141 11.5888L3.15145 11.1186L3.1438 11.1158L3.13606 11.1133L2.98141 11.5888ZM1.84141 11.218L1.99606 10.7425L1.99549 10.7423L1.84141 11.218ZM1.06981 9.706L0.594286 9.55146L0.594221 9.55167L1.06981 9.706ZM6.504 3.1919L6.42552 3.6857L6.42552 3.6857L6.504 3.1919ZM7.28701 3.6724L6.88228 3.96599L6.88255 3.96637L7.28701 3.6724ZM5.61061 3.4048L5.31807 2.99931L5.31668 3.00031L5.61061 3.4048ZM5.13076 4.18807L5.62461 4.26619L5.62462 4.26619L5.13076 4.18807ZM5.34541 5.0812L5.74986 4.78723L5.74983 4.78719L5.34541 5.0812ZM6.05101 6.052L6.46456 5.77097L6.46011 5.76443L6.45546 5.75803L6.05101 6.052ZM8.14444 5.85502L7.68573 5.65607L8.14444 5.85502ZM7.99261 4.6432L7.58815 4.93717L7.59256 4.94324L7.59716 4.94917L7.99261 4.6432ZM13.717 2.2V3.4H14.717V2.2H13.717ZM13.017 1.5C13.4036 1.5 13.717 1.8134 13.717 2.2H14.717C14.717 1.26112 13.9559 0.5 13.017 0.5V1.5ZM12.317 2.2C12.317 1.8134 12.6304 1.5 13.017 1.5V0.5C12.0781 0.5 11.317 1.26112 11.317 2.2H12.317ZM12.317 3.4V2.2H11.317V3.4H12.317ZM13.017 4.1C12.6304 4.1 12.317 3.7866 12.317 3.4H11.317C11.317 4.33888 12.0781 5.1 13.017 5.1V4.1ZM13.717 3.4C13.717 3.7866 13.4036 4.1 13.017 4.1V5.1C13.9559 5.1 14.717 4.33888 14.717 3.4H13.717ZM20.717 14.2C20.717 12.1578 19.9058 10.1993 18.4617 8.75528L17.7546 9.46239C19.0111 10.7189 19.717 12.423 19.717 14.2H20.717ZM20.717 20.2V14.2H19.717V20.2H20.717ZM20.2191 21.4021C20.5379 21.0833 20.717 20.6509 20.717 20.2H19.717C19.717 20.3857 19.6433 20.5637 19.512 20.695L20.2191 21.4021ZM19.017 21.9C19.4679 21.9 19.9003 21.7209 20.2191 21.4021L19.512 20.695C19.3807 20.8263 19.2027 20.9 19.017 20.9V21.9ZM7.017 21.9H19.017V20.9H7.017V21.9ZM5.31701 20.2C5.31701 21.1389 6.07812 21.9 7.017 21.9V20.9C6.63041 20.9 6.31701 20.5866 6.31701 20.2H5.31701ZM5.31701 14.2V20.2H6.31701V14.2H5.31701ZM13.017 6.5C8.76441 6.5 5.31701 9.94741 5.31701 14.2H6.31701C6.31701 10.4997 9.3167 7.5 13.017 7.5V6.5ZM18.4617 8.75528C17.0177 7.31125 15.0592 6.5 13.017 6.5V7.5C14.794 7.5 16.4981 8.20589 17.7546 9.46238L18.4617 8.75528ZM23.117 23.8C23.117 22.8611 22.3559 22.1 21.417 22.1V23.1C21.8036 23.1 22.117 23.4134 22.117 23.8H23.117ZM21.417 25.5C22.3559 25.5 23.117 24.7389 23.117 23.8H22.117C22.117 24.1866 21.8036 24.5 21.417 24.5V25.5ZM4.61701 25.5H21.417V24.5H4.61701V25.5ZM2.91701 23.8C2.91701 24.7389 3.67812 25.5 4.61701 25.5V24.5C4.23041 24.5 3.91701 24.1866 3.91701 23.8H2.91701ZM4.61701 22.1C3.67812 22.1 2.91701 22.8611 2.91701 23.8H3.91701C3.91701 23.4134 4.23041 23.1 4.61701 23.1V22.1ZM21.417 22.1H4.61701V23.1H21.417V22.1ZM21.0917 5.37665C21.357 5.01213 21.4667 4.55712 21.3965 4.11174L20.4087 4.26731C20.4376 4.4507 20.3924 4.63805 20.2832 4.78815L21.0917 5.37665ZM20.3879 6.3478L21.0923 5.3758L20.2825 4.789L19.5781 5.761L20.3879 6.3478ZM18.0126 6.72406C18.7722 7.2761 19.8354 7.1079 20.3875 6.34837L19.5786 5.76043C19.3512 6.07322 18.9134 6.14248 18.6006 5.91514L18.0126 6.72406ZM17.6369 4.34923C17.0849 5.10877 17.2531 6.17201 18.0126 6.72405L18.6006 5.91515C18.2878 5.68781 18.2185 5.24995 18.4459 4.93717L17.6369 4.34923ZM18.3424 3.37747L17.6368 4.34947L18.446 4.93693L19.1516 3.96493L18.3424 3.37747ZM19.4527 2.69809C19.0074 2.76823 18.6081 3.01242 18.3428 3.37695L19.1513 3.96545C19.2605 3.81535 19.4249 3.7148 19.6083 3.68592L19.4527 2.69809ZM20.7177 3.00295C20.3531 2.73761 19.8981 2.62795 19.4527 2.69809L19.6083 3.68592C19.7917 3.65704 19.9791 3.70219 20.1292 3.81145L20.7177 3.00295ZM21.3965 4.11174C21.3264 3.66657 21.0822 3.2666 20.7164 3.00205L20.1304 3.81235C20.2792 3.91999 20.3798 4.0837 20.4087 4.2673L21.3965 4.11174ZM24.4779 9.86048C24.5973 10.2281 24.3961 10.623 24.0285 10.7425L24.3375 11.6935C25.2304 11.4034 25.719 10.4444 25.4289 9.55152L24.4779 9.86048ZM23.5959 9.41114C23.9635 9.2917 24.3584 9.4929 24.4779 9.86054L25.4289 9.55146C25.1388 8.65862 24.1798 8.17001 23.2869 8.46006L23.5959 9.41114ZM22.4547 9.78193L23.5959 9.41113L23.2869 8.46007L22.1457 8.83087L22.4547 9.78193ZM22.0053 10.6649C21.8856 10.2969 22.0869 9.90158 22.4549 9.78188L22.1455 8.83092C21.2523 9.12146 20.7638 10.0811 21.0543 10.9743L22.0053 10.6649ZM22.8883 11.1145C22.5203 11.2342 22.125 11.0329 22.0053 10.6649L21.0543 10.9743C21.3449 11.8675 22.3045 12.356 23.1977 12.0655L22.8883 11.1145ZM24.0279 10.7427L22.8879 11.1147L23.1981 12.0653L24.3381 11.6933L24.0279 10.7427ZM3.87797 8.83222L2.73677 8.46022L2.42684 9.41098L3.56804 9.78298L3.87797 8.83222ZM5.04847 10.089C4.91293 9.48341 4.45812 8.99977 3.86196 8.8273L3.58405 9.7879C3.82953 9.85892 4.0168 10.0581 4.07261 10.3074L5.04847 10.089ZM4.513 11.7362C4.97877 11.326 5.18402 10.6947 5.04847 10.089L4.07261 10.3074C4.12843 10.5568 4.04391 10.8168 3.85213 10.9857L4.513 11.7362ZM2.81136 12.059C3.39498 12.2701 4.04723 12.1463 4.513 11.7362L3.85213 10.9857C3.66034 11.1546 3.39176 11.2055 3.15145 11.1186L2.81136 12.059ZM1.68675 11.6935L2.82675 12.0643L3.13606 11.1133L1.99606 10.7425L1.68675 11.6935ZM0.696983 10.8491C0.901996 11.2509 1.25825 11.5547 1.68732 11.6937L1.99549 10.7423C1.81881 10.6851 1.67212 10.56 1.5877 10.3946L0.696983 10.8491ZM0.594221 9.55167C0.455004 9.98066 0.491971 10.4474 0.696983 10.8491L1.5877 10.3946C1.50329 10.2292 1.48807 10.037 1.54539 9.86034L0.594221 9.55167ZM2.73629 8.46006C1.84341 8.17001 0.884447 8.65862 0.594286 9.55146L1.54532 9.86054C1.6648 9.4929 2.05967 9.2917 2.42732 9.41114L2.73629 8.46006ZM6.42552 3.6857C6.60893 3.71485 6.77324 3.81567 6.88228 3.96599L7.69173 3.37881C7.42691 3.01374 7.02788 2.76887 6.58247 2.69809L6.42552 3.6857ZM5.90314 3.81029C6.05395 3.70149 6.24202 3.65654 6.42552 3.6857L6.58247 2.69809C6.13716 2.62733 5.68247 2.73641 5.31807 2.99931L5.90314 3.81029ZM5.62462 4.26619C5.65363 4.0828 5.75432 3.91844 5.90453 3.80929L5.31668 3.00031C4.95189 3.26539 4.70736 3.66454 4.6369 4.10994L5.62462 4.26619ZM5.74983 4.78719C5.64064 4.637 5.5956 4.44959 5.62461 4.26619L4.6369 4.10994C4.56644 4.55534 4.67582 5.01048 4.94098 5.37521L5.74983 4.78719ZM6.45546 5.75803L5.74986 4.78723L4.94095 5.37517L5.64655 6.34597L6.45546 5.75803ZM7.1091 6.07446C6.85499 6.09837 6.60801 5.98208 6.46456 5.77097L5.63745 6.33303C5.98584 6.84571 6.58566 7.12813 7.20278 7.07006L7.1091 6.07446ZM7.68573 5.65607C7.58417 5.89022 7.36321 6.05055 7.1091 6.07446L7.20278 7.07006C7.81991 7.01199 8.35651 6.62264 8.60315 6.05397L7.68573 5.65607ZM7.59716 4.94917C7.75334 5.15104 7.78728 5.42191 7.68573 5.65607L8.60315 6.05397C8.84979 5.4853 8.76737 4.82747 8.38805 4.33723L7.59716 4.94917ZM6.88255 3.96637L7.58815 4.93717L8.39706 4.34923L7.69146 3.37843L6.88255 3.96637Z" fill="#060606"/>
</svg>
