<svg width="45" height="33" viewBox="0 0 45 33" fill="none" xmlns="http://www.w3.org/2000/svg">
<path d="M44.953 12.8934C44.953 13.688 44.5555 14.4826 43.8935 15.0123C42.7014 15.9395 40.98 15.8069 39.9205 14.6148C35.55 9.31744 29.1931 6.27126 22.1735 6.27126C15.5515 6.27126 9.19463 9.05257 4.95635 14.0851C3.89687 15.2772 2.17503 15.4094 0.983329 14.3499C-0.208775 13.2905 -0.34101 11.5686 0.718462 10.3769C6.01582 4.15232 13.83 0.709034 22.1735 0.709034C30.782 0.709034 38.8606 4.54982 44.2906 11.1715C44.8207 11.569 44.953 12.2314 44.953 12.8934Z" fill="white"/>
<path d="M39.523 21.3695C39.523 22.1641 39.1255 23.0914 38.4635 23.6211C37.2714 24.5483 35.55 24.2835 34.6227 23.0914C31.8414 19.2506 27.3387 16.999 22.4384 16.999C17.5382 16.999 13.1676 19.2506 10.2541 23.0914C9.32686 24.2835 7.60542 24.5483 6.41332 23.6211C5.22121 22.6939 4.95635 20.9724 5.88358 19.7803C9.72437 14.6152 15.949 11.4368 22.4384 11.4368C28.9279 11.4368 35.1525 14.483 38.9933 19.7803C39.2581 20.1774 39.523 20.8398 39.523 21.3695Z" fill="white"/>
<path d="M34.6227 30.2428C34.6227 31.1701 34.093 32.0969 33.1658 32.6267C31.8414 33.4213 30.1196 32.8915 29.325 31.5672C27.868 29.0507 25.2193 27.4615 22.1732 27.4615C19.2596 27.4615 16.6109 28.9185 15.154 31.3023C14.3594 32.6267 12.6375 33.0242 11.3132 32.2296C9.98883 31.435 9.59133 29.7131 10.3859 28.3888C12.9024 24.4158 17.4051 21.8993 22.1732 21.8993C27.2056 21.8993 31.7088 24.548 34.0926 28.7863C34.4905 29.316 34.6227 29.8457 34.6227 30.2428Z" fill="white"/>
</svg>
