<svg width="25" height="24" viewBox="0 0 25 24" fill="none" xmlns="http://www.w3.org/2000/svg">
<path d="M12.638 2L12.6379 2.5H12.638V2ZM24.2106 10.5453L24.6893 10.4007L24.6886 10.3984L24.2106 10.5453ZM1.0706 10.5253L0.593001 10.3773L0.592936 10.3775L1.0706 10.5253ZM1.42077 12.0655L1.05396 12.4052H1.05396L1.42077 12.0655ZM4.08849 11.4589L3.61094 11.3108L3.61083 11.3112L4.08849 11.4589ZM12.6447 5.15967L12.6444 5.65967L12.6447 5.15967ZM21.1917 11.4716L20.7139 11.619L20.7143 11.6204L21.1917 11.4716ZM10.2201 12.5474L10.3981 12.0801L10.3743 12.0711L10.3497 12.0645L10.2201 12.5474ZM10.3085 12.5811L10.5217 12.1288L10.5044 12.1206L10.4865 12.1138L10.3085 12.5811ZM9.60744 12.8305L9.15541 12.6168L9.15524 12.6172L9.60744 12.8305ZM9.57165 13.1779L10.0582 13.0627L10.0579 13.0612L9.57165 13.1779ZM11.8401 20.2432L11.4514 20.5577L11.4515 20.5578L11.8401 20.2432ZM15.9506 20.3L15.6361 19.9113L15.6359 19.9114L15.9506 20.3ZM16.7485 16.2684L16.3597 16.5828L16.3599 16.5831L16.7485 16.2684ZM10.6769 12.7547L10.8922 12.3034L10.8901 12.3025L10.6769 12.7547ZM12.638 2.5C17.7694 2.5 22.2482 5.8605 23.7326 10.6921L24.6886 10.3984C23.0761 5.15003 18.2117 1.5 12.638 1.5V2.5ZM1.54819 10.6733C3.05424 5.81298 7.54968 2.4998 12.6379 2.5L12.638 1.5C7.11143 1.49978 2.22877 5.09835 0.593001 10.3773L1.54819 10.6733ZM1.78759 11.7257C1.5255 11.4428 1.43427 11.0415 1.54826 10.673L0.592936 10.3775C0.373352 11.0872 0.549094 11.8602 1.05396 12.4052L1.78759 11.7257ZM2.81887 12.0448C2.4428 12.1303 2.04967 12.0086 1.78759 11.7257L1.05396 12.4052C1.55883 12.9503 2.31612 13.1846 3.04057 13.0199L2.81887 12.0448ZM3.61083 11.3112C3.49684 11.6796 3.19495 11.9593 2.81887 12.0448L3.04057 13.0199C3.76502 12.8552 4.34657 12.3165 4.56615 11.6067L3.61083 11.3112ZM12.6451 4.65967C8.5013 4.65661 4.83873 7.35307 3.61094 11.3108L4.56604 11.6071C5.66392 8.0681 8.93899 5.65693 12.6444 5.65967L12.6451 4.65967ZM21.6694 11.3241C20.4475 7.3646 16.7889 4.66273 12.6451 4.65967L12.6444 5.65967C16.3497 5.6624 19.6212 8.07841 20.7139 11.619L21.6694 11.3241ZM23.0156 12.0332C22.4477 12.2075 21.8458 11.8899 21.669 11.3228L20.7143 11.6204C21.0549 12.7131 22.2147 13.325 23.3089 12.9892L23.0156 12.0332ZM23.7319 10.6898C23.9037 11.2585 23.5835 11.859 23.0156 12.0332L23.3089 12.9892C24.4031 12.6535 25.0202 11.4964 24.6892 10.4007L23.7319 10.6898ZM10.0421 13.0146L10.1305 13.0483L10.4865 12.1138L10.3981 12.0801L10.0421 13.0146ZM10.0595 13.0442C10.0646 13.0334 10.0778 13.0269 10.0905 13.0303L10.3497 12.0645C9.87022 11.9358 9.36727 12.1687 9.15541 12.6168L10.0595 13.0442ZM10.0579 13.0612C10.0565 13.0554 10.0571 13.0493 10.0596 13.0439L9.15524 12.6172C9.05557 12.8285 9.03095 13.0674 9.08545 13.2946L10.0579 13.0612ZM12.2288 19.9287C12.1316 19.8086 12.0005 19.5812 11.8411 19.2125C11.6851 18.8514 11.5138 18.3831 11.3276 17.8031C10.9553 16.6435 10.5322 15.0651 10.0582 13.0627L9.08509 13.2931C9.56166 15.3065 9.99169 16.9134 10.3755 18.1088C10.5673 18.7063 10.7497 19.2078 10.9232 19.6092C11.0934 20.0029 11.2675 20.3304 11.4514 20.5577L12.2288 19.9287ZM15.6359 19.9114C14.4252 20.8919 12.9182 20.7799 12.2286 19.9285L11.4515 20.5578C12.5914 21.9654 14.7644 21.9039 16.2653 20.6886L15.6359 19.9114ZM16.3599 16.5831C17.0497 17.4347 16.8463 18.9322 15.6361 19.9113L16.2651 20.6887C17.7665 19.4741 18.2768 17.361 17.137 15.9537L16.3599 16.5831ZM10.4616 13.206C12.2085 14.0393 13.5772 14.7434 14.5727 15.3194C15.0706 15.6074 15.4689 15.8599 15.7719 16.0774C16.0812 16.2993 16.2664 16.4674 16.3597 16.5828L17.1373 15.954C16.959 15.7336 16.6875 15.5035 16.355 15.2649C16.0161 15.0218 15.5876 14.7513 15.0735 14.4538C14.0451 13.8587 12.6495 13.1417 10.8922 12.3035L10.4616 13.206ZM10.0953 13.0333L10.4637 13.207L10.8901 12.3025L10.5217 12.1288L10.0953 13.0333Z" fill="#060606"/>
</svg>
