<svg width="24" height="24" viewBox="0 0 24 24" fill="none" xmlns="http://www.w3.org/2000/svg">
<path d="M18.4795 14.9829L18.93 15.1998L18.9411 15.1767L18.9498 15.1527L18.4795 14.9829ZM18.0772 14.0059L17.8712 14.4614L17.8869 14.4686L17.9031 14.4746L18.0772 14.0059ZM12.6634 11.5576H12.1634V11.8802L12.4574 12.0132L12.6634 11.5576ZM11.583 12.73L11.7897 12.2747L11.7811 12.2708L11.7723 12.2672L11.583 12.73ZM17.4565 15.3967L17.2498 15.852L17.2535 15.8536L17.4565 15.3967ZM11.9853 1.50586C6.19189 1.50586 1.51975 6.17799 1.51975 11.9714H2.51975C2.51975 6.73028 6.74417 2.50586 11.9853 2.50586V1.50586ZM22.4508 11.9599C22.4508 6.16425 17.7304 1.50586 11.9853 1.50586V2.50586C17.1826 2.50586 21.4508 6.72103 21.4508 11.9599H22.4508ZM11.9853 22.4254C17.7787 22.4254 22.4508 17.7533 22.4508 11.9599H21.4508C21.4508 17.201 17.2264 21.4254 11.9853 21.4254V22.4254ZM1.51975 11.9714C1.51975 17.7674 6.25199 22.4254 11.9853 22.4254V21.4254C6.79901 21.4254 2.51975 17.2099 2.51975 11.9714H1.51975ZM18.029 14.766C17.9641 14.9008 17.8764 14.9426 17.7669 14.9426V15.9426C18.255 15.9426 18.6961 15.6857 18.93 15.1998L18.029 14.766ZM17.9031 14.4746C17.974 14.5009 18.0048 14.5399 18.0205 14.5796C18.0387 14.6254 18.0482 14.7052 18.0092 14.813L18.9498 15.1527C19.1738 14.5323 18.9592 13.8001 18.2513 13.5371L17.9031 14.4746ZM12.4574 12.0132L17.8712 14.4614L18.2832 13.5503L12.8695 11.102L12.4574 12.0132ZM12.1634 6.50011V11.5576H13.1634V6.50011H12.1634ZM11.8933 6.23C12.031 6.23 12.1634 6.36246 12.1634 6.50011H13.1634C13.1634 5.81018 12.5833 5.23 11.8933 5.23V6.23ZM11.6232 6.50011C11.6232 6.36246 11.7557 6.23 11.8933 6.23V5.23C11.2034 5.23 10.6232 5.81018 10.6232 6.50011H11.6232ZM11.6232 12.0174V6.50011H10.6232V12.0174H11.6232ZM11.7723 12.2672C11.7585 12.2616 11.7172 12.2353 11.6772 12.174C11.6382 12.1141 11.6232 12.0552 11.6232 12.0174H10.6232C10.6232 12.2783 10.7117 12.524 10.8394 12.7199C10.966 12.9143 11.1545 13.0949 11.3937 13.1928L11.7723 12.2672ZM17.6632 14.9414L11.7897 12.2747L11.3763 13.1853L17.2498 15.8519L17.6632 14.9414ZM17.7669 14.9426C17.7399 14.9426 17.7209 14.9426 17.7032 14.9421C17.6862 14.9416 17.6749 14.9408 17.6669 14.94C17.6524 14.9383 17.6531 14.9369 17.6596 14.9398L17.2535 15.8536C17.4678 15.9489 17.676 15.9426 17.7669 15.9426V14.9426Z" fill="#060606"/>
</svg>
