<?xml version="1.0" encoding="UTF-8"?>
<svg width="83px" height="83px" viewBox="0 0 83 83" version="1.1" xmlns="http://www.w3.org/2000/svg" xmlns:xlink="http://www.w3.org/1999/xlink">
    <title>1-1-报警-选中</title>
    <g id="页面-1" stroke="none" stroke-width="1" fill="none" fill-rule="evenodd">
        <g id="切图" transform="translate(-812.000000, -264.000000)" fill="#FF9269" fill-rule="nonzero">
            <g id="编组" transform="translate(41.000000, 103.000000)">
                <path d="M839.542182,240.328223 C838.836373,239.623047 837.927745,239.120508 836.913651,238.917871 C836.305195,238.796289 835.867106,238.277539 835.867106,237.661523 L835.867106,207.86582 C835.867106,194.978125 825.312418,184.295117 812.413146,184.343585 C799.554437,184.392383 789.137666,194.824121 789.137666,207.6875 L789.137666,237.661523 C789.137666,238.277539 788.699577,238.796289 788.091121,238.917871 C785.722198,239.404199 783.945505,241.49541 783.945505,244 L841.059266,244 C841.059266,242.565332 840.475148,241.268457 839.542182,240.328223 Z M816.988737,198.609375 L815.414863,212.656152 L821.588666,212.656152 L808.024148,232.328125 L809.598021,218.281348 L803.416106,218.281348 L816.988737,198.609375 Z M812.502386,177.859375 C811.066429,177.859375 809.906306,176.700293 809.906306,175.265625 L809.906306,163.59375 C809.906306,162.159082 811.066429,161 812.502386,161 C813.938343,161 815.098466,162.159082 815.098466,163.59375 L815.098466,175.265625 C815.098466,176.700293 813.938343,177.859375 812.502386,177.859375 Z M793.680806,185.000293 C792.439555,185.713574 790.849456,185.29209 790.135534,184.051953 L784.294354,173.944434 C783.580432,172.704297 784.002295,171.115625 785.243545,170.402344 C786.484796,169.689063 788.074895,170.110547 788.788817,171.350684 L794.629997,181.458203 C795.343919,182.69834 794.922056,184.278906 793.680806,185.000293 Z M831.323966,185.000293 C832.565217,185.713574 834.155316,185.29209 834.869238,184.051953 L840.710418,173.944434 C841.42434,172.704297 841.002477,171.115625 839.761226,170.402344 C838.519975,169.689063 836.929876,170.110547 836.215954,171.350684 L830.374774,181.458203 C829.660852,182.69834 830.082715,184.278906 831.323966,185.000293 Z M787.393424,197.06123 C787.020238,198.447266 785.600506,199.265918 784.213226,198.893066 L772.928391,195.877832 C771.541111,195.50498 770.721723,194.086523 771.086797,192.700488 C771.459983,191.314453 772.879714,190.495801 774.266995,190.868652 L785.55183,193.891992 C786.93911,194.256738 787.758498,195.675195 787.393424,197.06123 L787.393424,197.06123 Z M837.611347,197.06123 C837.984534,198.447266 839.404265,199.265918 840.791545,198.893066 L852.076381,195.869727 C853.463661,195.496875 854.283049,194.078418 853.909862,192.692383 C853.536676,191.306348 852.116945,190.487695 850.729664,190.860547 L839.444829,193.883887 C838.065661,194.256738 837.246274,195.675195 837.611347,197.06123 Z" id="形状"></path>
            </g>
        </g>
    </g>
</svg>