<svg width="58" height="60" viewBox="0 0 58 60" fill="none" xmlns="http://www.w3.org/2000/svg">
<path fill-rule="evenodd" clip-rule="evenodd" d="M30.6793 8.79775C30.6793 10.0652 29.6555 11.0899 28.3892 11.0899C27.1228 11.0899 26.099 10.0584 26.099 8.79775V2.29213C26.099 1.02472 27.1228 0 28.3892 0C29.6555 0 30.6793 1.02472 30.6793 2.29213V8.79775ZM28.3892 11.9258C23.4384 11.9258 18.7839 13.8539 15.2813 17.3596C11.7787 20.8652 9.85224 25.5236 9.85224 30.4787C9.85224 35.4337 11.7787 40.0921 15.2813 43.5978C18.7839 47.1034 23.4384 49.0315 28.3892 49.0315C33.34 49.0315 37.9944 47.1034 41.497 43.5978C44.9997 40.0921 46.9261 35.4337 46.9261 30.4787C46.9261 25.5236 44.9997 20.8652 41.497 17.3596C37.9944 13.8539 33.34 11.9258 28.3892 11.9258ZM28.3892 44.4404C20.6969 44.4404 14.4326 38.1775 14.4326 30.4719C14.4326 22.7663 20.6901 16.5034 28.3892 16.5034C36.0815 16.5034 42.3458 22.7663 42.3458 30.4719C42.3458 38.1775 36.0882 44.4404 28.3892 44.4404ZM17.7062 52.2202C17.7062 50.9528 18.73 49.9281 19.9964 49.9281H36.782C38.0483 49.9281 39.0722 50.9528 39.0722 52.2202C39.0722 53.4876 38.0483 54.5124 36.782 54.5124H19.9964C18.73 54.5124 17.7062 53.4876 17.7062 52.2202ZM33.4276 55.4157H23.3575C22.0912 55.4157 21.0674 56.4404 21.0674 57.7079C21.0674 58.9753 22.0912 60 23.3575 60H33.4276C34.6939 60 35.7177 58.9753 35.7177 57.7079C35.7177 56.4404 34.6939 55.4157 33.4276 55.4157ZM41.0525 14.4202C41.4499 14.7034 41.9079 14.8382 42.366 14.8382C43.0867 14.8382 43.8007 14.4944 44.2452 13.8607L47.9701 8.53483C48.6976 7.49663 48.4417 6.06742 47.4111 5.33933C46.3738 4.61124 44.9458 4.86742 44.2183 5.89888L40.4934 11.2247C39.7659 12.2629 40.0152 13.6921 41.0525 14.4202ZM54.0458 18.5191C55.2313 18.0742 56.5516 18.6742 56.9961 19.8607C57.4407 21.0472 56.8412 22.3685 55.6557 22.8135L49.5665 25.0921C49.3038 25.1933 49.0344 25.2404 48.765 25.2404C47.8354 25.2404 46.9598 24.6742 46.6163 23.7506C46.1717 22.564 46.7712 21.2427 47.9567 20.7978L54.0458 18.5191ZM12.9036 12.7753C13.3481 13.409 14.0621 13.7528 14.7829 13.7528C15.2341 13.7528 15.6922 13.618 16.0963 13.3348C17.1336 12.6067 17.3829 11.1775 16.6554 10.1393L12.9305 4.81348C12.203 3.77528 10.775 3.52584 9.73773 4.25393C8.70042 4.98202 8.4512 6.41124 9.17866 7.44944L12.9036 12.7753ZM9.1854 19.7056C10.3642 20.1506 10.9704 21.4719 10.5258 22.6584C10.1823 23.582 9.30664 24.1483 8.3771 24.1483C8.10767 24.1483 7.83824 24.1011 7.57554 24L1.48638 21.7213C0.307612 21.2764 -0.29861 19.9551 0.145953 18.7685C0.590516 17.5888 1.91073 16.982 3.09623 17.427L9.1854 19.7056Z" fill="#6655F8"/>
</svg>
