<?xml version="1.0" encoding="UTF-8"?>
<svg width="92px" height="92px" viewBox="0 0 92 92" version="1.1" xmlns="http://www.w3.org/2000/svg" xmlns:xlink="http://www.w3.org/1999/xlink">
    <title>晚安</title>
    <g id="页面-1" stroke="none" stroke-width="1" fill="none" fill-rule="evenodd">
        <g id="2" transform="translate(-517.000000, -714.000000)" fill="#000000" fill-rule="nonzero">
            <g id="编组-2" transform="translate(98.000000, 645.000000)">
                <g id="晚安" transform="translate(419.000000, 69.000000)">
                    <path d="M91.7519721,62.2564518 C91.4212682,61.9266164 90.4291563,61.9266164 89.4370445,62.2564518 C79.8466301,66.5443134 69.9255118,67.2039845 59.6736895,64.8951358 C40.1621568,59.9476032 26.2725911,42.7961569 25.2804792,22.3463555 C25.2804792,15.4198099 26.603295,8.82309981 29.5796305,2.55622512 C29.9103344,1.56671864 30.5717423,1.23688307 29.5796305,0.247376591 C28.5875187,-0.0824588637 28.2568147,-0.0824588637 26.933999,0.247376591 C22.6348477,2.55622512 18.3356964,4.86507365 15.3593609,8.49326423 C6.4303544,16.7391519 1.46979519,26.634217 0.146979508,38.5082954 C0.146979508,39.4978018 -0.183724385,44.4453345 0.146979508,45.434841 L0.146979508,46.754183 C0.146979508,51.0420446 1.1390913,55.0000707 2.46190711,58.6282612 C8.08387421,76.769214 24.6190714,89.6327989 43.1384922,91.6118118 C49.7525711,92.6013183 56.035946,91.6118118 62.650025,89.6327989 C75.5474788,85.3449372 85.4685972,77.0990496 91.7519721,64.5653004 L91.7519721,64.2354648 C92.082676,63.5757938 92.082676,63.2459583 91.7519721,62.2564518 Z" id="路径"></path>
                    <polygon id="路径" points="52.3411764 37 57.4235294 21.6181819 66 19 57.4235294 15.4 52.3411764 1 47.2588235 15.4 39 19 47.2588235 21.6181819"></polygon>
                </g>
            </g>
        </g>
    </g>
</svg>